<svg width="93" height="117" fill="none" xmlns="http://www.w3.org/2000/svg"><g clip-path="url(#clip0)"><path d="M.595 18.431H0v15.45h.595v-15.45zm0-6.342H0v5.404h.595V12.09zM.89 59.466H.293v5.404h.595v-5.404zm91.507 10.61h.595V52.591s.412-5.564-4.762-7.86l-.238.548a7.487 7.487 0 013.346 2.953 7.504 7.504 0 011.075 4.335l-.016 17.509zM93 72.23h-.595v5.905h.596V72.23zM18.705 86.727l3.238.063a.277.277 0 00.158 0l12.396-7.153a2.863 2.863 0 012.571-.103l28.117 16.253h.055l9.34 3.18a.31.31 0 01.215.293v2.385c.08.326-.127.699-.61.977l-15.46 8.862a2.86 2.86 0 01-2.571.103L18.855 90.025a.794.794 0 01-.444-.652v-2.336a.318.318 0 01.294-.31z" fill="#201600"/><path d="M55.964 111.85L18.665 90.287a1.056 1.056 0 01-.587-.914v-2.336a.605.605 0 01.175-.406.548.548 0 01.436-.174l3.254.071 12.396-7.153a3.171 3.171 0 012.864-.111L65.32 95.525l9.34 3.18a.619.619 0 01.413.58v2.32a1.25 1.25 0 01-.793 1.264l-15.443 8.878a3.36 3.36 0 01-1.588.405 2.615 2.615 0 01-1.285-.302zM34.648 79.836l-12.396 7.153a.484.484 0 01-.317.087l-3.238-.071v-.294 2.654a.493.493 0 00.286.39l37.298 21.562a2.567 2.567 0 002.27-.103l15.498-8.957c.334-.199.516-.453.469-.66v-2.432l-9.34-3.179-.104-.048-28.156-16.205a1.973 1.973 0 00-.96-.215 2.798 2.798 0 00-1.31.318z" fill="#201600"/><path d="M18.823 87.426l37.299 21.57a2.826 2.826 0 002.603-.111l15.49-8.957c.794-.437.85-1.105.191-1.486L37.108 76.879a2.863 2.863 0 00-2.572.104l-15.49 8.98c-.794.446-.881 1.105-.223 1.463z" fill="#fff"/><path d="M55.964 109.275L18.666 87.712a1.056 1.056 0 01-.596-.906 1.344 1.344 0 01.794-1.097l15.49-8.957a3.171 3.171 0 012.865-.111l37.299 21.57a1.041 1.041 0 01.595.898 1.344 1.344 0 01-.793 1.097l-15.483 8.965a3.356 3.356 0 01-1.588.398 2.611 2.611 0 01-1.285-.294zM34.648 77.261L19.15 86.226c-.294.175-.477.39-.477.58a.501.501 0 00.294.39l37.299 21.562a2.567 2.567 0 002.27-.103l15.498-8.957c.301-.175.476-.398.476-.589a.51.51 0 00-.294-.389L36.918 77.157a1.975 1.975 0 00-.96-.214 2.775 2.775 0 00-1.31.318z" fill="#201600"/><path d="M57.471 109.45h-.46v2.209h.46v-2.209zm15.872-8.823h-.46v2.218h.46v-2.218zm-53.059-12.39h-.46v2.217h.46v-2.217z" fill="red"/><path d="M3.007 2.043a.08.08 0 010-.12L5.801.39a.484.484 0 01.547.008l83.636 48.34a1.954 1.954 0 01.794 1.589v64.067a.797.797 0 01-.239.636l-2.92 1.589-2.904-3.504 1.142-.501-79.509-45.97a1.985 1.985 0 01-.793-1.59V5.516L3.007 2.043z" fill="#fff"/><path d="M84.263 113.002l.968-.429L6.238 66.905a2.248 2.248 0 01-.968-1.828V5.61l-2.5-3.386a.39.39 0 01.001-.456.397.397 0 01.118-.108L5.619.15a.793.793 0 01.912 0l83.604 48.33a2.263 2.263 0 01.96 1.829v64.059a1.07 1.07 0 01-.388.898L87.532 117l-3.27-3.998zM5.944.644L3.397 2.066 5.865 5.42v59.657a1.671 1.671 0 00.666 1.311l80.01 46.265-1.318.572 2.492 3.012 2.666-1.478a.512.512 0 00.12-.398v-64.06a1.656 1.656 0 00-.667-1.31L6.238.65A.373.373 0 006.07.605a.214.214 0 00-.127.04z" fill="#201600"/><path d="M3.46 68.272l83.604 48.339c.444.254.793 0 .793-.62V51.923a1.99 1.99 0 00-.793-1.59L3.46 2.02c-.453-.263-.794 0-.794.62v64.067a1.966 1.966 0 00.794 1.566z" fill="#201600"/><path d="M86.913 116.833L3.31 68.526a2.264 2.264 0 01-.929-1.82V2.64a1.019 1.019 0 01.397-.922.793.793 0 01.793.047l83.636 48.307a2.232 2.232 0 01.968 1.82v64.068a1.003 1.003 0 01-.428.914.722.722 0 01-.357.095.9.9 0 01-.477-.135zM3.08 2.233c-.063 0-.135.167-.135.406v64.067a1.64 1.64 0 00.667 1.304l83.596 48.338c.048 0 .167.088.238.048.072-.04.135-.167.135-.405V51.923a1.639 1.639 0 00-.666-1.303L3.31 2.273a.413.413 0 00-.135-.056l-.096.016z" fill="#201600"/><path d="M3.587 67.072l83.326 48.195c.135.08.238 0 .238-.175V51.613a.558.558 0 00-.238-.46L3.587 2.948c-.135-.072-.246 0-.246.182v63.48a.573.573 0 00.246.46z" fill="red"/><path d="M86.794 115.53L3.436 67.326a.841.841 0 01-.389-.715V3.13a.517.517 0 01.23-.453.444.444 0 01.453 0l83.358 48.188a.89.89 0 01.389.723v63.48a.495.495 0 01-.23.445.397.397 0 01-.215.063.456.456 0 01-.238-.047zM3.643 66.61a.31.31 0 00.087.207l83.151 48.077v-63.28a.31.31 0 00-.087-.207L3.643 3.33v63.28z" fill="#201600"/><path d="M2.643 66.762v-3.648L87.88 112.39v3.648c0 .565-.397.795-.88.509L3.523 68.304a1.946 1.946 0 01-.88-1.542z" fill="#201600"/><path d="M86.85 116.833L3.373 68.558a2.248 2.248 0 01-.992-1.796v-4.157l85.707 49.539.15.087v3.807a.913.913 0 01-.404.795.788.788 0 01-.373.103 1.066 1.066 0 01-.611-.103zM2.944 63.63v3.18a1.647 1.647 0 00.73 1.271l83.477 48.267a.254.254 0 00.429-.254v-3.489L2.944 63.63z" fill="#201600"/><path d="M39.982 86.765l-.226.392 10.792 6.25.227-.391-10.793-6.25z" fill="red"/><path d="M90.646 49.099l-2.864 1.723.307.51 2.864-1.722-.307-.511zM10.918 2.84L8.044 4.547l.304.512 2.873-1.707-.303-.512zm79.735 106.962l-2.865 1.722.306.511 2.865-1.722-.306-.511z" fill="#201600"/><path d="M66.263 104.616l-.23.399 1.813 1.051.23-.399-1.813-1.051z" fill="red"/><path d="M57.392 107.908c.314-.001.622-.089.889-.255l3.246-2.003-.31-.5-3.246 2.003a1.126 1.126 0 01-1.127 0L24.728 88.825l-.293.517 32.116 18.343c.256.147.546.223.841.223zM23.514 88.809l.286-.525-2.381-1.327a.2.2 0 01-.111-.175.19.19 0 01.119-.15l3.317-1.948-.302-.516-3.317 1.947a.794.794 0 00-.389.7.796.796 0 00.405.683l2.373 1.311z" fill="#201600"/><path d="M13.086 48.784l63.28 36.56c1.048.604 1.897 0 1.897-1.439v-7.55a4.56 4.56 0 00-1.897-3.64l-63.28-36.56c-1.047-.604-1.896 0-1.896 1.438v7.55a4.583 4.583 0 001.896 3.64z" fill="#fff"/><path d="M77.77 88.356l-63.272-36.56a4.822 4.822 0 01-2.055-3.894v-7.55a1.966 1.966 0 01.793-1.797 1.506 1.506 0 011.54.095l63.32 36.568a4.813 4.813 0 012.047 3.895v7.518a1.981 1.981 0 01-.793 1.797 1.24 1.24 0 01-.635.166 1.79 1.79 0 01-.944-.238zm-64.2-49.324a1.454 1.454 0 00-.508 1.287v7.55a4.304 4.304 0 001.754 3.379l63.28 36.56a.95.95 0 00.944.103 1.422 1.422 0 00.508-1.28v-7.55a4.304 4.304 0 00-1.777-3.354l-63.273-36.56a1.315 1.315 0 00-.61-.19.681.681 0 00-.318.055zm77.241 68.556l-2.864 1.723.307.511 2.864-1.723-.307-.511zM12.752 3.834L9.888 5.556l.306.511 2.865-1.722-.307-.51zm78.046 48.325l-2.864 1.722.306.511 2.865-1.722-.307-.511zm-37.16 37.008c.13.54.404 1.035.794 1.43 0 0-.722-.087-.794.477a3.03 3.03 0 00-.793-1.43s.73.087.793-.47c-.008-.023 0-.015 0-.007zm-2.373-1.375c.126.542.4 1.037.794 1.43 0 0-.73-.08-.794.477a3.014 3.014 0 00-.793-1.43c.11 0 .738.08.793-.477zm-2.381-1.367c.134.536.408 1.027.794 1.422 0 0-.722-.08-.794.477a3.052 3.052 0 00-.793-1.43s.738.08.793-.477c-.008-.008 0-.008 0 .008zm-2.372-1.383a2.97 2.97 0 00.794 1.422s-.73-.08-.794.477a3.037 3.037 0 00-.793-1.422s.73.08.793-.477c-.008 0 0 0 0 0zm-2.372-1.367a2.96 2.96 0 00.793 1.422c-.111 0-.73-.08-.794.477a2.973 2.973 0 00-.793-1.422c.11 0 .738.08.793-.477-.016-.016 0-.008 0 0zM41.758 82.3a3.12 3.12 0 00.794 1.43s-.722-.08-.794.477a3.029 3.029 0 00-.793-1.43s.73.08.793-.477c-.008-.016 0-.008 0 0zm-2.373-1.375c.126.542.401 1.037.794 1.43 0 0-.73-.08-.794.485a2.966 2.966 0 00-.793-1.43c.11 0 .738.087.793-.477-.015-.024 0-.016 0-.008zm-2.38-1.375a3.02 3.02 0 00.793 1.43c-.111 0-.73-.079-.794.477a2.964 2.964 0 00-.793-1.43s.738.087.794-.477c-.008-.016 0-.008 0 0zm-2.373-1.367c.127.539.401 1.032.793 1.422 0 0-.73-.079-.793.477a3.078 3.078 0 00-.794-1.43s.73.087.794-.47c-.008-.015 0-.015 0 0zm-2.372-1.375c.126.539.401 1.032.793 1.422 0 0-.73-.079-.794.477a3.052 3.052 0 00-.793-1.43c.11 0 .738.08.793-.477-.016-.008 0-.008 0 .008zm45.138 26.1c.13.538.405 1.03.794 1.423 0 0-.722-.079-.794.477a3.039 3.039 0 00-.793-1.423s.73.08.793-.477zm-2.373-1.375c.127.539.402 1.032.794 1.423 0 0-.73-.079-.794.477a2.967 2.967 0 00-.794-1.431c.112 0 .739.08.794-.476-.016-.008 0 0 0 .007zm-2.381-1.39c.132.539.406 1.033.794 1.43 0 0-.722-.079-.794.485a3.03 3.03 0 00-.793-1.431s.73.088.793-.476c-.008-.008 0-.008 0-.008zm-2.372-1.359c.126.541.4 1.037.794 1.43 0 0-.73-.087-.794.477a2.973 2.973 0 00-.794-1.43s.73.087.794-.477c-.008-.016 0-.008 0 0zM67.9 97.409c.125.541.4 1.037.793 1.43-.111 0-.73-.08-.794.477a3.014 3.014 0 00-.793-1.43s.738.087.793-.47c-.016-.015-.008-.015 0-.007zm-2.382-1.367c.13.537.405 1.03.794 1.422 0 0-.722-.08-.794.477a3.125 3.125 0 00-.793-1.43s.73.079.793-.477c-.008-.008 0-.008 0 .008zm-2.373-1.376c.127.54.402 1.032.794 1.423 0 0-.73-.08-.794.477a2.973 2.973 0 00-.793-1.423c.11 0 .738.08.793-.477-.016-.015 0-.007 0 0zm-2.381-1.374c.134.536.408 1.027.794 1.422 0 0-.722-.08-.794.477a3.038 3.038 0 00-.793-1.422s.73.079.793-.477c-.008-.016 0-.008 0 0zm-2.372-1.375c.128.54.402 1.036.794 1.43 0 0-.73-.08-.794.477a2.973 2.973 0 00-.793-1.43s.73.087.793-.477c-.008-.016 0-.008 0 0zm-2.372-1.375c.125.541.4 1.037.793 1.43-.111 0-.73-.08-.794.485a2.967 2.967 0 00-.793-1.43s.738.087.793-.477v-.008zm-2.382-4.133c.13.54.404 1.035.794 1.43 0 0-.722-.08-.794.485a3.03 3.03 0 00-.793-1.43s.73.087.793-.477c-.008-.024 0-.016 0-.008zm-2.373-1.367c.126.542.4 1.037.794 1.43 0 0-.73-.087-.794.477a2.966 2.966 0 00-.793-1.43c.11 0 .738.087.793-.477-.016 0 0 0 0 0zm-2.381-1.375c.134.536.408 1.027.794 1.422 0 0-.722-.087-.794.477a2.966 2.966 0 00-.793-1.43s.738.08.793-.477c-.008-.008 0-.008 0 .008zm-2.372-1.375c.127.539.402 1.032.794 1.422 0 0-.73-.079-.794.477a2.998 2.998 0 00-.793-1.422s.73.08.793-.477c-.008-.016 0-.008 0 0zm-2.372-1.375c.126.539.401 1.032.793 1.422-.111 0-.73-.079-.794.477a2.973 2.973 0 00-.793-1.422c.11 0 .738.08.793-.477-.016-.016 0-.008 0 0zm-2.382-1.375c.13.537.405 1.03.794 1.423 0 0-.722-.08-.794.476a3.036 3.036 0 00-.793-1.422s.73.08.793-.477c-.008-.016 0-.008 0 0zm-2.373-1.375c.128.541.403 1.036.794 1.43 0 0-.73-.079-.794.477a2.966 2.966 0 00-.793-1.43c.11 0 .738.087.793-.477-.015-.016 0-.008 0 0zm-2.38-1.375a3.03 3.03 0 00.793 1.43c-.111 0-.73-.079-.794.485a2.965 2.965 0 00-.793-1.43s.738.087.794-.477c-.008-.024 0-.016 0-.008zm-2.373-1.375c.125.542.4 1.037.793 1.43 0 0-.73-.087-.793.477a3.029 3.029 0 00-.794-1.43s.73.087.794-.477c-.008-.016 0-.008 0 0zm-2.372-1.375c.125.542.4 1.037.793 1.43 0 0-.73-.079-.794.478a3.013 3.013 0 00-.793-1.431c.11 0 .738.08.793-.477zm45.138 26.101a3.04 3.04 0 00.794 1.422s-.722-.079-.794.477a3.12 3.12 0 00-.793-1.43s.73.079.793-.477c-.008.008 0 .008 0 .008zm-2.373-1.367a2.97 2.97 0 00.794 1.422s-.73-.079-.794.477a2.973 2.973 0 00-.794-1.422c.112 0 .739.079.794-.477-.016-.016 0-.008 0 0zM72.644 97.4c.134.537.408 1.028.794 1.423 0 0-.722-.08-.794.477a3.039 3.039 0 00-.793-1.422s.73.079.793-.477c-.008-.016 0-.008 0 0zm-2.372-1.374c.126.541.4 1.037.794 1.43 0 0-.73-.08-.794.485a2.974 2.974 0 00-.794-1.43s.73.087.794-.477c-.008-.024 0-.016 0-.008zM67.9 94.65c.125.542.4 1.038.793 1.431-.111 0-.73-.08-.794.485a2.966 2.966 0 00-.793-1.43s.738.087.793-.477c-.016-.024-.008-.016 0-.008zm-2.382-1.374c.129.54.403 1.035.794 1.43 0 0-.722-.087-.794.477a3.077 3.077 0 00-.793-1.43s.73.087.793-.47c-.008-.015 0-.015 0-.007zm-2.373-1.367a2.97 2.97 0 00.794 1.422s-.73-.08-.794.477a3.053 3.053 0 00-.793-1.43c.11 0 .738.08.793-.477-.016-.008 0-.008 0 .008zm-2.381-1.375c.134.536.408 1.027.794 1.422 0 0-.722-.08-.794.477a3.037 3.037 0 00-.793-1.422s.73.08.793-.477c-.008-.016 0-.008 0 0zm-2.372-1.375a2.97 2.97 0 00.794 1.422s-.73-.08-.794.477a2.973 2.973 0 00-.793-1.422s.73.08.793-.477c-.008-.016 0-.008 0 0zm-2.372-1.375c.124.54.4 1.033.793 1.422-.111 0-.73-.08-.794.477a2.966 2.966 0 00-.793-1.43s.738.08.793-.477v.008zm-2.382-4.134c.129.54.403 1.032.794 1.424 0 0-.722-.08-.794.476a3.03 3.03 0 00-.793-1.43s.73.087.793-.477c-.008-.008 0 0 0 .008zm-2.373-1.374c.126.542.4 1.037.794 1.43 0 0-.73-.079-.794.485a2.966 2.966 0 00-.793-1.43c.11 0 .738.087.793-.477-.016-.024 0-.016 0-.008zm-2.381-1.375c.133.54.407 1.033.794 1.43 0 0-.722-.087-.794.477a2.966 2.966 0 00-.793-1.43s.738.087.793-.477zm-2.372-1.375c.126.542.4 1.038.794 1.43 0 0-.73-.079-.794.477a3.077 3.077 0 00-.793-1.43s.73.08.793-.477c-.008-.008 0-.008 0 0zm-2.372-1.367c.126.539.401 1.032.793 1.423-.111 0-.73-.08-.794.476a3.055 3.055 0 00-.793-1.43c.11 0 .738.08.793-.477-.016-.008 0-.008 0 .008zm-2.382-1.375c.13.538.405 1.03.794 1.423 0 0-.722-.08-.794.477a3.037 3.037 0 00-.793-1.423s.73.08.793-.477c-.008-.016 0-.008 0 0zm-2.373-1.375c.127.539.402 1.032.794 1.423 0 0-.73-.08-.794.477a2.975 2.975 0 00-.793-1.423c.11 0 .738.08.793-.477-.015-.016 0-.008 0 0zm-2.38-1.375c.13.54.404 1.034.793 1.43-.111 0-.73-.079-.794.486a2.964 2.964 0 00-.793-1.431s.738.08.794-.477c-.008-.024 0-.016 0-.008zm-2.373-1.374c.125.54.4 1.037.793 1.43 0 0-.73-.08-.793.484a3.03 3.03 0 00-.794-1.43s.73.087.794-.477c-.008-.024 0-.016 0-.008zm-2.372-1.376c.125.542.4 1.038.793 1.43 0 0-.73-.087-.794.478a2.966 2.966 0 00-.793-1.431c.11 0 .738.087.793-.469-.016-.024 0-.016 0-.008zm45.138 26.101c.129.54.403 1.035.794 1.43 0 0-.722-.08-.794.477a3.077 3.077 0 00-.793-1.43s.73.08.793-.477c-.008-.008 0-.008 0 0zm-2.373-1.367a2.97 2.97 0 00.794 1.422s-.73-.08-.794.477a2.973 2.973 0 00-.794-1.422c.112 0 .739.08.794-.477-.016-.016 0-.008 0 0zm-2.381-1.375c.134.536.408 1.027.794 1.422 0 0-.722-.08-.794.477a3.038 3.038 0 00-.793-1.422s.73.08.793-.477c-.008-.016 0-.008 0 0zm-2.372-1.375c.128.54.402 1.036.794 1.43 0 0-.73-.08-.794.477a2.973 2.973 0 00-.794-1.422s.73.079.794-.477c-.008-.024 0-.016 0-.008zM67.9 91.893c.125.542.4 1.037.793 1.43-.111 0-.73-.079-.794.485a2.966 2.966 0 00-.793-1.43s.738.087.793-.477c-.016-.024-.008-.016 0-.008zm-2.382-1.375c.129.54.403 1.035.794 1.43 0 0-.722-.087-.794.477a3.03 3.03 0 00-.793-1.43s.73.087.793-.477c-.008-.016 0-.008 0 0zm-2.373-1.375c.126.542.4 1.037.794 1.43 0 0-.73-.079-.794.477a3.014 3.014 0 00-.793-1.43c.11 0 .738.08.793-.477zm-2.381-1.367c.134.536.408 1.027.794 1.422 0 0-.722-.079-.794.477a3.125 3.125 0 00-.793-1.43s.73.08.793-.477c-.008-.008 0-.008 0 .008zM58.392 86.4c.127.54.402 1.033.794 1.424 0 0-.73-.08-.794.476a2.973 2.973 0 00-.793-1.422s.73.08.793-.477c-.008-.016 0-.008 0 0zm-2.372-1.358a2.96 2.96 0 00.793 1.422c-.111 0-.73-.08-.794.477a2.974 2.974 0 00-.793-1.422s.738.08.793-.477c-.016 0-.008 0 0 0zm-2.382-4.149c.13.538.405 1.03.794 1.423 0 0-.722-.08-.794.477a3.037 3.037 0 00-.793-1.423s.73.08.793-.477c-.008-.016 0-.008 0 0zm-2.373-1.375c.13.54.404 1.035.794 1.43 0 0-.73-.079-.794.477a2.966 2.966 0 00-.793-1.43c.11 0 .738.08.793-.477-.016-.04 0-.04 0 0zm-2.381-1.375c.133.54.407 1.033.794 1.43 0 0-.722-.079-.794.486a2.966 2.966 0 00-.793-1.431s.738.087.793-.477c-.008-.024 0-.016 0-.008zm-2.372-1.375c.126.542.4 1.038.794 1.43 0 0-.73-.087-.794.478a3.029 3.029 0 00-.793-1.431s.73.087.793-.477c-.008-.016 0-.008 0 0zm-2.372-1.367c.126.54.401 1.032.793 1.423-.111 0-.73-.088-.794.477a3.014 3.014 0 00-.793-1.431c.11 0 .738.08.793-.477-.016-.008 0-.008 0 .008zm-2.382-1.375c.13.538.405 1.03.794 1.423 0 0-.722-.08-.794.477a3.124 3.124 0 00-.793-1.431s.73.08.793-.477c-.008-.008 0-.008 0 .008zm-2.373-1.375c.127.539.402 1.032.794 1.423 0 0-.73-.08-.794.477a2.974 2.974 0 00-.793-1.423c.11 0 .738.08.793-.477-.015-.016 0-.008 0 0zm-2.38-1.375c.13.538.404 1.03.793 1.423-.111 0-.73-.08-.794.477a2.973 2.973 0 00-.793-1.423s.738.08.794-.477c-.008-.016 0-.008 0 0zm-2.373-1.336c.127.542.402 1.037.793 1.431 0 0-.73-.079-.793.477a3.03 3.03 0 00-.794-1.43s.73.087.794-.477c-.008-.056 0-.048 0 0zm-2.372-1.414c.125.542.4 1.038.793 1.43 0 0-.73-.079-.794.486a2.966 2.966 0 00-.793-1.431c.11 0 .738.087.793-.477-.016-.024 0-.016 0-.008zm-2.382 6.907c.131.537.405 1.03.794 1.422 0 0-.722-.079-.794.477a3.037 3.037 0 00-.793-1.422s.73.08.793-.477c-.007-.016 0-.008 0 0zm-2.372-1.375c.127.539.401 1.032.793 1.422 0 0-.73-.079-.793.477a2.91 2.91 0 00-.794-1.422c.119 0 .738.08.794-.477-.008-.016 0-.008 0 0zm-2.373-1.375c.125.542.4 1.037.793 1.43-.111 0-.73-.079-.793.477a2.966 2.966 0 00-.794-1.43s.738.08.794-.477zm-2.381-1.375c.128.54.403 1.035.793 1.43 0 0-.722-.079-.793.485a3.03 3.03 0 00-.794-1.43s.73.087.794-.477c-.008-.024 0-.016 0-.008zm7.126 1.367c.131.538.405 1.03.794 1.423 0 0-.722-.08-.794.476a3.125 3.125 0 00-.793-1.43s.73.08.793-.477c-.007-.008 0-.008 0 .008zM27.506 71.3c.127.539.401 1.032.793 1.423 0 0-.73-.08-.793.477a2.91 2.91 0 00-.794-1.423c.119 0 .738.08.794-.477-.008-.016 0-.008 0 0zm-2.373-1.36a2.97 2.97 0 00.793 1.424c-.111 0-.73-.08-.793.476a2.974 2.974 0 00-.794-1.422s.738.08.794-.477c-.016 0-.008 0 0 0zm4.745 0a3.05 3.05 0 00.794 1.431s-.722-.079-.794.477a3.077 3.077 0 00-.793-1.43s.73.08.793-.477zm-2.372-1.398c.127.54.401 1.032.793 1.423 0 0-.73-.08-.793.477a2.91 2.91 0 00-.794-1.423c.119 0 .738.08.794-.477-.008-.016 0-.008 0 0zm-2.373-1.375c.127.54.401 1.032.793 1.423-.111 0-.73-.08-.793.477a2.974 2.974 0 00-.794-1.423s.738.08.794-.477c-.016-.016-.008-.008 0 0zm-2.381-1.375c.13.538.405 1.03.793 1.423 0 0-.722-.08-.793.477a3.037 3.037 0 00-.794-1.423s.73.08.794-.477c-.008-.016 0-.008 0 0zm7.126 1.359c.13.54.404 1.036.794 1.43 0 0-.722-.087-.794.478a3.03 3.03 0 00-.793-1.431s.73.087.793-.469c-.007-.024 0-.016 0-.008zm-2.372-1.367c.127.54.401 1.032.793 1.423 0 0-.73-.08-.793.477a2.95 2.95 0 00-.794-1.43c.119 0 .738.079.794-.478-.008-.008 0-.008 0 .008zm-2.373-1.407c.127.54.401 1.032.793 1.423-.111 0-.73-.08-.793.477a2.974 2.974 0 00-.794-1.423s.738.08.794-.477c-.016 0-.008 0 0 0zm-2.381-1.343c.13.538.405 1.03.793 1.423 0 0-.722-.08-.793.477a3.037 3.037 0 00-.794-1.423s.73.08.794-.477c-.008-.016 0-.008 0 0zm54.646 31.593c.129.54.403 1.035.794 1.43 0 0-.722-.08-.794.477a3.03 3.03 0 00-.793-1.43s.73.087.793-.47c-.008-.015 0-.015 0-.007zm-2.373-1.367c.127.539.402 1.032.794 1.422 0 0-.73-.079-.794.477a3.013 3.013 0 00-.794-1.43c.112 0 .739.08.794-.477-.016-.008 0-.008 0 .008zm-2.381-1.375c.134.536.408 1.027.794 1.422 0 0-.722-.079-.794.477a3.038 3.038 0 00-.793-1.422s.73.08.793-.477c-.008-.016 0-.008 0 0zm-2.372-1.375c.127.539.402 1.032.794 1.423 0 0-.73-.08-.794.476a2.973 2.973 0 00-.794-1.422s.73.08.794-.477c-.008-.016 0-.008 0 0zM67.9 89.135c.126.539.4 1.032.793 1.423-.111 0-.73-.08-.794.484a2.974 2.974 0 00-.793-1.422s.738.08.793-.477c-.016-.024-.008-.016 0-.008zm-2.382-1.375c.129.54.403 1.035.794 1.43 0 0-.722-.079-.794.485a3.03 3.03 0 00-.793-1.43s.73.087.793-.477c-.008-.024 0-.016 0-.008zm-2.373-1.375c.126.542.4 1.037.794 1.43 0 0-.73-.087-.794.477a2.965 2.965 0 00-.793-1.43c.11 0 .738.087.793-.477-.016-.016 0-.008 0 0zm-2.381-1.343c.132.54.406 1.033.794 1.43 0 0-.722-.08-.794.477a3.077 3.077 0 00-.793-1.43s.73.08.793-.485v.008zm-2.372-1.399c.127.539.402 1.032.794 1.423 0 0-.73-.08-.794.477a3.052 3.052 0 00-.793-1.431s.73.08.793-.477c-.008-.008 0-.008 0 .008zm-2.372-1.375c.126.539.401 1.032.793 1.423-.111 0-.73-.08-.794.477a2.975 2.975 0 00-.793-1.423s.738.08.793-.477c-.016-.016-.008-.008 0 0zM53.638 36.33c.13.54.404 1.035.794 1.43 0 0-.722-.087-.794.477a3.03 3.03 0 00-.793-1.43s.73.087.793-.477zm-2.373-1.36c.126.542.4 1.038.794 1.431 0 0-.73-.08-.794.477a3.014 3.014 0 00-.793-1.43c.11 0 .738.087.793-.47v-.008zm-2.381-1.383c.134.537.408 1.028.794 1.423 0 0-.722-.08-.794.477a3.053 3.053 0 00-.793-1.43s.738.079.793-.477c-.008-.008 0-.008 0 .008zm-2.372-1.375c.127.54.402 1.032.794 1.423 0 0-.73-.08-.794.477a3.037 3.037 0 00-.793-1.423s.73.08.793-.477c-.008-.015 0-.007 0 0zm-2.372-1.374a2.96 2.96 0 00.793 1.422c-.111 0-.73-.08-.794.477a2.973 2.973 0 00-.793-1.423c.11 0 .738.08.793-.476zm-2.382-1.375c.13.537.405 1.03.794 1.422 0 0-.722-.08-.794.485a3.037 3.037 0 00-.793-1.422s.73.087.793-.477c-.008-.024 0-.016 0-.008zm-2.373-1.375c.126.541.401 1.037.794 1.43 0 0-.73-.08-.794.485a2.966 2.966 0 00-.793-1.43c.11 0 .738.087.793-.477-.015-.024 0-.016 0-.008zm-2.38-1.375a3.03 3.03 0 00.793 1.43c-.111 0-.73-.087-.794.477a2.965 2.965 0 00-.793-1.43s.738.087.794-.47c-.008-.023 0-.015 0-.007zm-2.373-1.375c.125.541.4 1.037.793 1.43 0 0-.73-.08-.793.477a3.077 3.077 0 00-.794-1.43s.73.079.794-.477zM32.26 23.97c.126.54.401 1.032.793 1.423 0 0-.73-.08-.794.477a3.052 3.052 0 00-.793-1.43c.11 0 .738.08.793-.477-.016-.008 0-.008 0 .008zm45.138 26.101c.13.538.405 1.03.794 1.423 0 0-.722-.08-.794.477a3.038 3.038 0 00-.793-1.423s.73.08.793-.477c-.008 0 0 0 0 0zm-2.373-1.375c.125.54.4 1.033.794 1.423 0 0-.73-.08-.794.477a2.965 2.965 0 00-.794-1.43c.112 0 .739.079.794-.478-.016-.008 0 0 0 .008zm-2.381-1.375a3.1 3.1 0 00.794 1.431s-.722-.08-.794.477a3.03 3.03 0 00-.793-1.43s.73.087.793-.478zm-2.372-1.375c.126.542.4 1.038.794 1.431 0 0-.73-.08-.794.485a2.974 2.974 0 00-.794-1.43s.73.087.794-.478c-.008-.023 0-.016 0-.008zM67.9 44.571c.125.542.4 1.038.793 1.431-.111 0-.73-.08-.794.477a2.966 2.966 0 00-.793-1.43s.738.079.793-.478zm-2.382-1.366a3.04 3.04 0 00.794 1.422s-.722-.08-.794.477a3.077 3.077 0 00-.793-1.43s.73.079.793-.477c-.008-.008 0-.008 0 .008zm-2.373-1.375c.127.538.402 1.031.794 1.422 0 0-.73-.08-.794.477a2.973 2.973 0 00-.793-1.423c.11 0 .738.08.793-.477-.016-.016 0-.016 0 0zm-2.381-1.375c.134.536.408 1.027.794 1.422 0 0-.722-.08-.794.477a3.038 3.038 0 00-.793-1.423s.73.08.793-.476zm-2.372-1.375c.128.54.402 1.036.794 1.43 0 0-.73-.08-.794.477a2.973 2.973 0 00-.793-1.423s.73.08.793-.477c-.008-.023 0-.016 0-.008zm-2.372-1.375c.125.541.4 1.037.793 1.43-.111 0-.73-.08-.794.485a2.966 2.966 0 00-.793-1.43s.738.087.793-.478v-.008zm-2.382-4.133c.13.54.404 1.035.794 1.43 0 0-.722-.08-.794.485a3.029 3.029 0 00-.793-1.43s.73.087.793-.477c-.008-.024 0-.016 0-.008zm-2.373-1.375c.126.541.4 1.037.794 1.43 0 0-.73-.08-.794.485a2.966 2.966 0 00-.793-1.43c.11 0 .738.087.793-.47-.016-.031 0-.023 0-.015zm-2.381-1.375a3.12 3.12 0 00.794 1.43s-.722-.087-.794.477a3.014 3.014 0 00-.793-1.43s.738.087.793-.47v-.007zm-2.372-1.367a2.97 2.97 0 00.794 1.422s-.73-.08-.794.477a3.125 3.125 0 00-.793-1.43s.73.08.793-.477c-.008-.04 0-.04 0 .008zM44.14 28.08a2.96 2.96 0 00.793 1.422c-.111 0-.73-.08-.794.477a2.973 2.973 0 00-.793-1.422c.11 0 .738.08.793-.477zm-2.382-1.375c.13.537.405 1.03.794 1.422 0 0-.722-.08-.794.477a3.036 3.036 0 00-.793-1.422s.73.08.793-.477c-.008-.016 0-.008 0 0zm-2.373-1.375c.128.54.403 1.036.794 1.43 0 0-.73-.08-.794.477a2.966 2.966 0 00-.793-1.43c.11 0 .738.08.793-.477 0-.008-.015-.016 0 0zm-2.38-1.375a3.02 3.02 0 00.793 1.43c-.111 0-.73-.08-.794.485a2.965 2.965 0 00-.793-1.43s.738.087.794-.477c-.008-.024 0-.016 0-.008zm-2.373-1.375c.125.542.4 1.037.793 1.43 0 0-.73-.087-.793.477a3.03 3.03 0 00-.794-1.43s.73.087.794-.477c-.008-.016 0-.008 0 0zm-2.372-1.367a2.96 2.96 0 00.793 1.422s-.73-.08-.794.477a3.013 3.013 0 00-.793-1.43c.11 0 .738.08.793-.477-.016-.008 0-.008 0 .008zm45.138 26.1c.13.538.405 1.03.794 1.423 0 0-.722-.08-.794.477a3.039 3.039 0 00-.793-1.423s.73.08.793-.477c-.008-.016 0-.008 0 0zm-2.373-1.375c.127.54.402 1.032.794 1.423 0 0-.73-.08-.794.477a2.974 2.974 0 00-.794-1.423c.112 0 .739.08.794-.477zm-2.381-1.375c.134.537.408 1.028.794 1.423 0 0-.722-.08-.794.477a3.038 3.038 0 00-.793-1.423s.73.08.793-.477c-.008-.015 0-.007 0 0zm-2.372-1.375c.126.542.4 1.038.794 1.431 0 0-.73-.08-.794.485a2.974 2.974 0 00-.794-1.43s.73.079.794-.478c-.008-.023 0-.015 0-.008zM67.9 41.813c.125.542.4 1.038.793 1.431-.111 0-.73-.087-.794.477a2.967 2.967 0 00-.793-1.43s.738.087.793-.477zm-2.382-1.374c.129.54.403 1.035.794 1.43 0 0-.722-.08-.794.477a3.03 3.03 0 00-.793-1.43s.73.079.793-.477c-.008-.008 0-.008 0 0zm-2.373-1.367c.127.538.402 1.031.794 1.422 0 0-.73-.08-.794.477a3.014 3.014 0 00-.793-1.43c.11 0 .738.079.793-.477-.016-.008 0-.008 0 .008zm-2.381-1.375c.134.536.408 1.027.794 1.422 0 0-.722-.08-.794.477a3.038 3.038 0 00-.793-1.423s.73.08.793-.476c-.008-.016 0-.008 0 0zm-2.372-1.375a2.97 2.97 0 00.794 1.422s-.73-.08-.794.477a2.973 2.973 0 00-.793-1.423s.73.08.793-.476c-.008-.016 0-.008 0 0zM56.02 34.97c.129.54.403 1.035.793 1.431-.111 0-.73-.08-.794.477a2.966 2.966 0 00-.793-1.43s.738.079.793-.477zM29.878 22.596c.131.537.405 1.03.794 1.422 0 0-.722-.08-.794.477a3.037 3.037 0 00-.793-1.422s.73.079.793-.477c-.007-.016 0-.008 0 0zm-2.372-1.376c.127.54.401 1.033.793 1.423 0 0-.73-.08-.793.477a2.91 2.91 0 00-.794-1.422c.119 0 .738.08.794-.477-.008-.016 0-.008 0 0zm-2.373-1.35a3.01 3.01 0 00.793 1.43c-.111 0-.73-.08-.793.477a2.966 2.966 0 00-.794-1.43s.738.079.794-.478c-.016 0-.008 0 0 0zm-2.381-1.4a3.03 3.03 0 00.793 1.431s-.722-.08-.793.485a3.03 3.03 0 00-.794-1.43s.73.087.794-.477c-.008-.024 0-.016 0-.008zm7.126 1.4c.131.537.405 1.03.794 1.422 0 0-.722-.08-.794.477a3.037 3.037 0 00-.793-1.422s.73.079.793-.477c-.007-.048 0 0 0 0zm-2.372-1.407c.127.539.401 1.031.793 1.422 0 0-.73-.079-.793.477a2.91 2.91 0 00-.794-1.422c.119 0 .738.08.794-.477-.008-.016 0-.008 0 0zm-2.373-1.375c.127.539.401 1.031.793 1.422-.111 0-.73-.079-.793.477a2.975 2.975 0 00-.794-1.422s.738.08.794-.477zm-2.381-1.375c.128.54.403 1.035.793 1.43 0 0-.722-.08-.793.485a3.03 3.03 0 00-.794-1.43s.73.08.794-.477c-.008-.024 0-.016 0-.008z" fill="#201600"/><path d="M21.109 50.866v7.646c0 .056-.056.047-.087 0l-1.397-2.385s-.064-.055-.08 0l-1.11 1.789h-.064l-.793-.93s-.04-.072 0-.095l1.079-1.813s0-.087-.048-.11l-2.174-1.257c-.048 0-.072-.103 0-.119l4.674-2.79v.064z" fill="#201600"/><path d="M20.872 58.56l-1.294-2.202-.992 1.59-.071.087h-.08a.23.23 0 01-.19-.087l-.794-.93a.247.247 0 01-.04-.294l1.024-1.725-2.11-1.216a.286.286 0 01-.136-.238v-.136l4.762-2.829.119-.056.087.056a.287.287 0 01.135.239v7.811h-.182a.247.247 0 01-.238-.071zm-4.27-4.992l2.048 1.185a.247.247 0 01.127.167.222.222 0 010 .174l-1.032 1.749.666.795 1.016-1.59.072-.095h.095a.245.245 0 01.206.127l1.135 1.94v-7.035l-4.333 2.583z" fill="#201600"/><path d="M69.42 78.267l-.299.516 5.421 3.153.3-.515-5.422-3.154z" fill="red"/><path d="M75.581 82.824l-5.42-3.179 5.42 3.18z" fill="#fff"/><path d="M70.31 79.415l-.3.516 5.426 3.147.298-.516-5.425-3.147z" fill="#201600"/><path d="M47.202 50.763a3.774 3.774 0 01-1.785-.612 9.24 9.24 0 01-2.262-1.86l-.04-.048v-2.297l.302.326c.524.572.968 1.026 1.325 1.343.302.272.629.514.976.724.405.23.611.254.706.23.096-.024.167-.048.167-.39a1.083 1.083 0 00-.119-.468 3.33 3.33 0 00-.357-.588c-.159-.223-.5-.62-1-1.185-.403-.446-.77-.924-1.095-1.43a5.568 5.568 0 01-.587-1.2 3.773 3.773 0 01-.222-1.296c0-.874.27-1.422.793-1.637a2.464 2.464 0 012.095.445c.424.247.822.535 1.19.858.373.334.794.716 1.175 1.153l.08.087-.675 1.59-.183-.183c-.321-.35-.66-.685-1.016-1.001a5.041 5.041 0 00-.793-.565c-.254-.15-.452-.206-.564-.159-.11.048-.15.064-.15.358 0 .15.032.3.095.437.076.185.177.36.301.517.143.198.492.612 1.04 1.232a10.24 10.24 0 011.532 2.122c.273.562.416 1.178.42 1.804 0 .898-.293 1.454-.88 1.653a1.3 1.3 0 01-.469.04zm-3.738-2.655a8.444 8.444 0 002.127 1.74 2.587 2.587 0 001.976.51c.437-.152.651-.58.651-1.328a3.876 3.876 0 00-.389-1.653 9.558 9.558 0 00-1.484-2.074c-.547-.628-.905-1.05-1.055-1.256a3.232 3.232 0 01-.35-.588 1.59 1.59 0 01-.11-.573.653.653 0 01.357-.675.981.981 0 01.872.175c.297.174.576.376.834.604.238.206.531.485.873.842l.38-.85c-.372-.39-.73-.74-1.07-1.041a6.95 6.95 0 00-1.136-.795 2.205 2.205 0 00-1.793-.43c-.397.16-.595.597-.595 1.32 0 .404.07.804.206 1.184.143.396.33.774.555 1.129.318.476.67.928 1.056 1.351.516.572.857.977 1.024 1.208.156.201.29.42.396.652.092.191.14.4.143.612 0 .508-.23.675-.42.723a1.403 1.403 0 01-.968-.262 6.633 6.633 0 01-1.032-.795c-.294-.262-.65-.612-1.048-1.033v1.303zm11.198 6.772h-.174a3.171 3.171 0 01-.969-.167 7.34 7.34 0 01-1.222-.58 6.305 6.305 0 01-2.301-2.297 6.167 6.167 0 01-.841-3.18c0-1.231.27-2.018.793-2.384.524-.365 1.318-.302 2.262.247a5.559 5.559 0 012.04 2.042c.478.855.726 1.819.722 2.798v1.216l-3.833-2.218c.05.386.174.759.365 1.097.254.418.612.763 1.04 1.002.312.184.645.331.991.437.31.1.634.157.96.167h.167v1.82zm-2.19-1.05a6.34 6.34 0 001.158.55c.222.073.45.124.683.15v-1.12a4.107 4.107 0 01-.88-.16 5.07 5.07 0 01-1.056-.476 3.041 3.041 0 01-1.151-1.113 3.333 3.333 0 01-.437-1.59v-.318l3.873 2.242v-.62a5.283 5.283 0 00-.698-2.647 5.13 5.13 0 00-1.913-1.907c-.793-.477-1.452-.565-1.896-.263-.445.302-.675 1.018-.675 2.114a5.816 5.816 0 00.794 2.989 5.94 5.94 0 002.198 2.17zm1-3.393l-2.643-1.526V48.8a1.275 1.275 0 01.413-1.018c.254-.182.587-.15 1 .088.391.211.714.531.928.922.222.413.34.874.341 1.343l-.04.302zm-2.286-1.717l1.913 1.105a2.386 2.386 0 00-.27-.866 2.041 2.041 0 00-.794-.795c-.277-.16-.492-.19-.627-.096a.89.89 0 00-.222.652zm10.079 10.468l-1.46-.843-.286-.993a1.32 1.32 0 01-.794.246 2.815 2.815 0 01-1.214-.453 3.852 3.852 0 01-1.42-1.415 3.978 3.978 0 01-.54-1.995c0-.794.27-1.295.793-1.407a3.44 3.44 0 012.127.604l.794.422a1.592 1.592 0 00-.841-1.439 3.567 3.567 0 00-1.588-.445h-.119l-.65-1.923h.277a4.589 4.589 0 012.381.723 5.47 5.47 0 011.905 1.733 4.13 4.13 0 01.674 2.304l-.04 4.88zm-1.167-1.074l.794.477v-4.315a3.787 3.787 0 00-.58-2.114 5.225 5.225 0 00-1.785-1.59 4.621 4.621 0 00-1.96-.675l.42 1.247a3.88 3.88 0 011.643.493 1.89 1.89 0 011.024 1.733v.596l-1.302-.716a3.172 3.172 0 00-1.896-.564c-.128 0-.524.111-.524 1.065a3.612 3.612 0 00.468 1.82c.31.538.757.985 1.294 1.296.313.192.665.314 1.031.357a1.03 1.03 0 00.73-.294l.095-.08.207.12.341 1.145zm-1.238-1.756a1.521 1.521 0 01-.722-.23 1.588 1.588 0 01-.881-1.407c0-.58.262-.755.484-.795.42-.02.835.097 1.182.334l.723.39v.675a.98.98 0 01-.437.954.65.65 0 01-.349.079zm-.928-2.106h-.088c-.047 0-.206 0-.206.46a1.234 1.234 0 00.706 1.106c.318.185.564.233.738.143.167-.088.246-.31.246-.652v-.469l-.603-.278a1.942 1.942 0 00-.794-.31zm6.642 6.851l-1.976-1.145v-7.312l1.587.898.214 1.137a1.26 1.26 0 01.675-.35c.4-.055.806.039 1.142.263.204.113.398.244.58.389l.071.056-.206 2.138-.262-.23a2.655 2.655 0 00-.452-.319c-.469-.27-.794-.35-1.056-.238-.262.111-.341.413-.341.89l.024 3.823zm-1.627-1.343l1.285.747V57.28c0-.62.175-1.025.532-1.2a1.499 1.499 0 011.381.246c.085.048.167.102.246.16l.087-1.288a3.172 3.172 0 00-.452-.302 1.386 1.386 0 00-.913-.223.943.943 0 00-.642.43l-.088.134-.293-.166-.239-1.304-.904-.517v6.51zm8.785 5.237a2.147 2.147 0 01-.587-.087 5.848 5.848 0 01-1.055-.493 5.695 5.695 0 01-2.881-5.31c0-1.255.278-2.034.841-2.383.564-.35 1.357-.255 2.38.318a7.551 7.551 0 011.905 1.59l.072.079-.62 1.526-.19-.191c-.246-.27-.484-.5-.706-.708a3.346 3.346 0 00-.635-.468c-.285-.175-.516-.215-.659-.128-.142.088-.349.398-.349 1.328 0 1.303.381 2.154 1.183 2.614.246.154.513.269.793.342.241.052.49.052.73 0l.207-.04v1.972h-.143l-.286.04zm-1.468-.882c.31.192.64.346.984.461.186.063.383.087.58.072v-1.256a2.32 2.32 0 01-.667-.04 3.378 3.378 0 01-.929-.381 3.098 3.098 0 01-1.357-2.917c0-.89.175-1.423.524-1.59a.983.983 0 011.008.127c.25.149.483.322.698.517l.54.525.341-.795a7.146 7.146 0 00-1.754-1.43c-.88-.51-1.587-.62-1.992-.335-.404.286-.682 1.002-.682 2.114a5.388 5.388 0 002.706 5.008v-.08zm8.816 5.373l-1.983-1.137v-4.148a1.99 1.99 0 00-.873-1.9c-.563-.326-.722-.135-.794-.072-.071.064-.27.51-.27 1.455v3.553l-1.975-1.145v-10.03l2 1.16v3.362c.412-.294.983-.238 1.706.183a4.311 4.311 0 011.666 1.645c.384.699.58 1.484.572 2.281l-.048 4.793zm-1.634-1.343l1.286.747v-4.213a4.241 4.241 0 00-.524-2.114 4.098 4.098 0 00-1.54-1.518c-1.055-.612-1.396-.175-1.507 0l-.096.111-.31-.174.049-.644v-2.925l-1.286-.747v9.227l1.285.748v-2.957a2.809 2.809 0 01.381-1.693c.183-.215.54-.39 1.215 0a2.385 2.385 0 011.047 2.202v3.95z" fill="#fff"/><path d="M49.44 50.508c0 .795-.254 1.32-.794 1.495a2.742 2.742 0 01-2.118-.525 8.684 8.684 0 01-2.215-1.82V47.87c.421.476.869.927 1.342 1.35.307.283.642.533 1 .748.24.181.54.269.84.246.191-.047.286-.23.286-.548 0-.19-.043-.378-.127-.548a3.374 3.374 0 00-.373-.62c-.166-.223-.507-.62-1.015-1.2a11.31 11.31 0 01-1.032-1.368 6.107 6.107 0 01-.571-1.168 3.635 3.635 0 01-.223-1.24c0-.794.239-1.287.707-1.478a2.377 2.377 0 011.944.437 7.73 7.73 0 011.167.843c.365.325.793.707 1.158 1.136l-.54 1.184c-.326-.353-.67-.69-1.031-1.01a5.05 5.05 0 00-.794-.587c-.31-.183-.555-.239-.722-.16-.166.08-.246.24-.246.517.001.172.033.341.095.501.09.193.2.377.326.549.15.206.5.62 1.055 1.24a9.821 9.821 0 011.5 2.09c.255.539.385 1.128.381 1.724zm4 4.952a6.083 6.083 0 01-2.254-2.21 5.905 5.905 0 01-.793-3.075c0-1.16.254-1.908.793-2.258.54-.35 1.19-.254 2.08.255a5.233 5.233 0 011.968 1.979c.476.826.722 1.764.714 2.718v.914l-3.865-2.233c.015.524.157 1.036.413 1.494a2.89 2.89 0 001.087 1.08c.322.19.662.344 1.016.462.328.096.666.152 1.008.167v1.454a2.796 2.796 0 01-.913-.159 6.38 6.38 0 01-1.254-.588zm-.23-5.96c-.35-.197-.614-.229-.794-.096a1.153 1.153 0 00-.34.89l2.293 1.32a2.61 2.61 0 00-.318-1.256 2.153 2.153 0 00-.841-.859zm7.793 10.212l-.31-1.129h-.047a1.152 1.152 0 01-.85.342 2.64 2.64 0 01-1.134-.421 3.693 3.693 0 01-1.849-3.267c0-.73.222-1.144.667-1.232a3.305 3.305 0 012.007.58l1.04.565v-.31a1.742 1.742 0 00-.936-1.59 3.852 3.852 0 00-1.659-.492l-.54-1.59c.814.02 1.607.261 2.294.7a5.415 5.415 0 011.84 1.676c.43.66.653 1.431.644 2.218v4.642l-1.167-.692zm-.476-3.49l-.635-.333a1.751 1.751 0 00-1.055-.318c-.238.048-.35.255-.35.628a1.4 1.4 0 00.794 1.256.926.926 0 00.905.143c.23-.12.341-.382.341-.795v-.58zm6.641.001c.192.11.375.235.548.373l-.119 1.701a3.033 3.033 0 00-.484-.341 1.347 1.347 0 00-1.222-.239c-.286.143-.437.493-.437 1.05v3.52l-1.587-.946V54.42l1.238.715.238 1.303.08.048a1.096 1.096 0 01.793-.5c.335-.028.67.056.953.238zm4.064 9.521a5.504 5.504 0 01-2.794-5.158c0-1.176.254-1.931.794-2.257.54-.326 1.23-.215 2.174.326a7.52 7.52 0 011.865 1.59l-.484 1.184c-.254-.27-.492-.509-.714-.708a3.643 3.643 0 00-.667-.5c-.849-.493-1.27 0-1.27 1.35 0 1.352.421 2.282 1.27 2.767.272.163.566.287.873.365.262.05.532.05.794 0v1.59c-.266.04-.538.019-.794-.064a5.175 5.175 0 01-1.047-.485zm8.73 4.928l-1.635-.946v-4.045a2.164 2.164 0 00-.96-2.05c-.46-.263-.794-.279-.992 0a2.642 2.642 0 00-.302 1.589v3.259l-1.634-1.002v-9.633l1.634.97v3.553l.088.047c.365-.46.944-.469 1.73 0a4.145 4.145 0 011.587 1.59c.372.67.56 1.427.547 2.194l-.063 4.474z" fill="#201600"/></g><defs><clipPath id="clip0"><path fill="#fff" d="M0 0h93v117H0z"/></clipPath></defs></svg>