<svg width="402" height="258" fill="none" xmlns="http://www.w3.org/2000/svg"><path d="M213.333 121.714h186.636c1.122 0 2.031.911 2.031 2.035v3.052a2.033 2.033 0 01-2.031 2.036H213.333a2.033 2.033 0 01-2.031-2.036v-3.052c0-1.124.909-2.035 2.031-2.035z" fill="#D03434"/><path d="M165.278 26.245c-2.53 8.938 3.647 18.148 10.449 20.082 6.802 1.935 11.66-4.137 14.19-13.074 2.53-8.938-.938-17.75-7.74-19.685-6.802-1.934-14.371 3.742-16.899 12.677zm38.145 173.178s-17.438 27.149-19.792 28.327c-2.353 1.179-8.242 1.474-6.035 5.893 2.207 4.42 3.091 21.838 5.144 22.722 2.052.884 19.725 2.946 17.075 0-2.651-2.946-4.279-1.473-5.617-6.787-1.337-5.313-3.213-15.346-.713-17.41 2.501-2.065 17.81-20.657 17.81-20.657l-7.872-12.088zm87.761 11.658s21.198 35.021 25.121 38.168c3.924 3.148 16.879 7.87 6.283 8.655-10.596.786-15.703-3.53-22.375-5.495-6.672-1.964-14.914-3.147-11.774-8.264 3.14-5.117 1.834-16.282-4.936-23.365-6.77-7.084 7.681-9.699 7.681-9.699z" fill="#F09959"/><path d="M183.023 129.888s52.471-1.375 73.274 15.738c12.169 18.494 41.606 73.059 43.893 79.062-1.57 1.574-10.402 4.42-14.326 4.022-11.581-13.841-26.885-25.805-32.971-36.663-7.503-13.379-9.815-20.067-21.984-21.248-12.168-1.181-39.648-5.117-47.886-5.117-8.237 0 0-35.794 0-35.794z" fill="#78818D"/><path d="M137.262 258h2.751l19.722-82.49h-6.05L137.262 258zm82.39 0h-2.748l-22.635-85.406h6.053L219.652 258z" fill="#D03434"/><path d="M153.124 126.273l30.508 5.277s40.542.373 59.069 3.835c16.86 3.148 19.351 22.344 0 48.79-10.988 15.02-20.278 27.009-39.278 40.513-4.833-3.557-6.682-4.91-8.017-13.46 1.376-1.89 4.935-13.718 6.04-16.033 10.508-22.02 24.536-30.029 24.739-32.195-2.354-3.835-62.381 19.997-74.317 5.977-11.405-13.387 1.256-42.704 1.256-42.704z" fill="#8D8989"/><path d="M151.857 57.043c8.034-1.132 16.218.4 23.87 5.954 6.689 6.833 14.255 18.1 13.792 36.69-.59 23.606 3.643 25.123-.771 31.615-18.417 7.612-49.916 40.378-42.497 5.262 5.369-25.425-11.782-44.378 2.055-72.585 1.126-2.293 2.532-4.52 3.551-6.936z" fill="#F37168"/><path d="M189.525 108.57c.358 12.306 2.092 15.933.767 19.79-7.51.769-21.244 3.782-24.676 8.594-3.919 5.507-7.838 6.295-6.018 2.229 1.82-4.066 6.672-9.838-.786-29.643s-10.99-33.179-3.662-46.948l34.375 45.978z" fill="#D54A41"/><path d="M151.858 57.043c4.948-11.742 6.163-24.932 6.163-24.932l12.952 3.835s-7.348 16.525-.294 22.427a67.388 67.388 0 015.049 4.624c-7.645-5.542-15.836-7.086-23.87-5.954z" fill="#F09959"/><path d="M157.631 35.237c.766-.685 1.714-1.54 2.736-2.431l10.564 3.128.022.056c-.245.587-2.939 6.875-3.299 12.935-3.15-1.915-6.596-5.036-10.533-10.489.209-1.21.378-2.29.51-3.2z" fill="#E38540"/><path d="M160.965 60.733c13.339 4.665 11.86 18.766 24.139 39.531 6.353 10.752 12.247 10.592 12.247 10.592a283.266 283.266 0 0032.934-2.084c11.287-1.382 12.002 1.986 4.164 4.798-15.833 5.674-32.261 11.785-45.51 10.312-13.248-1.473-35.903-35.357-37.071-44.177-1.624-12.183 2.378-21.327 9.097-18.972z" fill="#F09959"/><path d="M167.837 178.948c.828 0 1.678-.011 2.55-.032 10.873-.27 18.273-1.778 24.22-2.988 6.944-1.414 10.777-2.195 15.22-.061a3.426 3.426 0 004.495-1.658 3.444 3.444 0 00-1.541-4.545c-6.525-3.123-11.985-2.011-19.543-.471-5.683 1.159-12.754 2.598-23.025 2.853-11.492.287-18.5-1.422-22.044-5.37-3.165-3.518-4.091-9.428-2.913-18.599.402-3.14.804-5.75 1.161-8.056 1.002-6.497 1.664-10.804.843-17.433-.762-6.163-2.797-14.373-7.512-30.291a3.439 3.439 0 00-1.656-2.043 3.422 3.422 0 00-2.611-.27 3.433 3.433 0 00-2.038 1.66 3.453 3.453 0 00-.27 2.617c8.786 29.665 8.328 32.553 6.464 44.714-.36 2.342-.771 5.002-1.185 8.225-1.45 11.312.02 18.963 4.624 24.082 4.738 5.257 12.431 7.666 24.761 7.666z" fill="#D03434"/><path d="M289.744 240.597c14.064 6.894 21.633 10.845 26.142 10.469a38.223 38.223 0 002.695-.314c5.016 2.973 13.021 6.485 4.014 7.152-10.598.789-15.703-3.54-22.375-5.507-6.672-1.967-14.914-3.148-11.774-8.265a10.793 10.793 0 001.298-3.535zm-107.646-12.27c.343 11.162 1.874 22.224 8.686 24.308 1.582.501 3.253.651 4.899.44 1.07 1.326 2.378 1.34 4.132 3.295 2.65 2.946-15.013.886-17.075 0-2.062-.887-2.939-18.295-5.144-22.722-1.812-3.631 1.837-4.478 4.502-5.321z" fill="#D54A41"/><path d="M236.271 122.689h44.682a3.43 3.43 0 003.108-1.989l18.057-38.954a3.437 3.437 0 00-1.681-4.53 3.421 3.421 0 00-2.603-.118 3.431 3.431 0 00-1.935 1.75l-17.146 36.966h-42.482c-.909 0-1.782.362-2.425 1.007a3.443 3.443 0 000 4.861 3.429 3.429 0 002.425 1.007z" fill="#8D8989"/><path d="M226.924 109.17c9.029-.133 17.981-5.525 22.429-4.739 4.448.785 18.973 10.887 17.146 11.28-1.827.392-13.347-5.589-13.739-5.68-.391-.09-2.878 4.143-9.028 5.699-6.15 1.557-.042-4.621-19.105 1.149-12.399 3.755 2.297-7.709 2.297-7.709z" fill="#F09959"/><path d="M153.185 46.327l-1.328 10.715s11.684.695 17.496 3.976c5.813 3.28 14.393 12.753 14.393 12.753l-7.008-12.098-1.011-7.739-22.542-7.607z" fill="#F2E5DE"/><path d="M158.157 59.444c8.679-1.63 12.693 6.163 18.319 18.886 5.627 12.724 15.231 28.176 17.146 30.167 1.916 1.991 32.188 0 32.188 0s.916 8.788 0 9.836-6.151.918-6.151.918-2.099 1.677-4.058 3.003c-1.96 1.326-18.582 3.818-26.3 3.425-7.718-.393-14.787-1.051-15.832-2.229-1.046-1.179-22.111-33.71-23.422-45.382-1.31-11.673 3.682-17.792 8.11-18.624z" fill="#F2E5DE"/><path d="M183.746 5.93c16.411.788 13.837 25.535 13.837 25.535s-4.262 1.321-13.19-.154c.686-2.657.392-9.444.392-9.444s-1.039 5.508-2.357 8.852c-1.886.87-4.022.098-7.654-.78-1.864 7.856-7.133 11.186-10.741 12.322-3.985 1.258-8.203 2.755-12.913.393-4.71-2.362-2.121-26.493.38-31.345 3.755-7.285 9.993-13.806 20.788-10.361 5.413 1.726 11.458 4.982 11.458 4.982z" fill="#303C60"/><path d="M155.208 35.323l-6.711 9.821s7.436 18.626-14.19 27.063c-16.937 6.61-14.941 18.253-7.289 29.955 7.652 11.702-4.58 21.936-4.58 21.936s-1.865-12.972-18.322-15.42c-22.439-3.339-28.793-33.54-12.034-48.64 13.871-12.495 18.089-2.146 27.477-13.36 9.389-11.213 27.11-3.638 27.11-3.638l6.496-9.498 2.043 1.78z" fill="#303C60"/><path d="M84.364 90.47a.593.593 0 00.596-.587.599.599 0 00-.074-.297c-5.634-10.337-1.036-22.86 1.279-26.253.244-.358.49-.724.734-1.11 2.276-3.56 5.107-7.99 20.215-10.717 3.64-.656 6.587-2.824 9.705-5.12 6.442-4.74 13.746-10.116 29.611-2.794a.596.596 0 00.741-.319.598.598 0 00-.252-.768c-16.504-7.612-24.109-2.019-30.815 2.917-3.006 2.21-5.845 4.299-9.21 4.91-15.622 2.819-18.616 7.494-21.009 11.248-.245.378-.47.737-.705 1.08-2.427 3.553-7.25 16.675-1.34 27.5a.597.597 0 00.524.31zm74.428-45.08a23.34 23.34 0 003.483-.283c5.742-.862 13.445-4.132 14.05-22.5a.6.6 0 00-.578-.586.6.6 0 00-.615.546c-.245 7.572-1.746 13.173-4.453 16.65-2.057 2.642-4.783 4.137-8.573 4.71-5.312.795-8.835-.188-10.466-2.925a.598.598 0 00-1.026.614c1.489 2.511 4.242 3.773 8.178 3.773z" fill="#303C60"/><path d="M381.993 258h-4.409l-17.153-131.434h9.702L381.993 258zm-149.621 0h4.408l17.154-131.434h-9.7L232.372 258z" fill="#D03434"/><path d="M59.456 147.055c-7.63 6.983-4.31 13.964 1.328 26.931 5.639 12.966 6.628 60.845 6.628 60.845l-4.654-.665s.664-49.207-5.633-62.508c-6.298-13.301-8.955-19.947-14.594-15.626-5.638 4.322 16.925-8.977 16.925-8.977z" fill="#74B570"/><path d="M63.648 138.015c-.929-4.137-6.43-8.616-13.785-12.414 1.092 6.104 4.6 16.082.98 18.13-4.9 2.76-.49-11.172-2.367-18.83a90.777 90.777 0 00-22.872-7.521c0 .027.02.054.032.084 4.31 10.973 9.95 15.294 7.627 16.956-1.746 1.25-7.436-11.422-14.941-17.924-5.634-.302-10.41.464-13.227 2.701-4.362 3.462-7.29 6.534-2.903 17.075 2.506 1.797 5.752 3.084 9.524 3.462 9.952.997 14.596 1.328 7.63 4.665-3.412 1.628-9.13-.093-13.764-1.142 1.504 2.78 3.351 5.922 5.597 9.502a35.401 35.401 0 004.654 5.95c3.206.613 6.001.621 7.483-.015 4.654-1.994 16.582-8.311 19.568-5.647 2.922 2.605-22.113 4.252-20.379 10.869 12.135 7.008 26.02 3.683 28.477-2.762 3.282-8.65 15.45-10.683 12.666-23.139z" fill="#9CD499"/><path d="M38.561 185.29c13.266-9.974 26.865-.663 33.831 9.976 6.966 10.639 1.991 34.579 1.991 34.579s-2.655 0-2.655-.997 7.297-28.264-9.95-40.565c-10.776-7.695-18.573-3.99-19.57-.331-.997 3.658 4.314 10.312 4.314 10.312L38.56 185.29z" fill="#74B570"/><path d="M69.075 164.788c-13.268 0-17.58 20.625-13.93 32.582 3.65 11.958 8.622 34.247 8.622 34.247l3.317-3.324s-12.602-31.254-9.619-45.218c2.983-13.963 10.288-16.293 11.61-16.293 1.323 0 0-1.994 0-1.994z" fill="#9CD499"/><path d="M57.948 197.463a9.602 9.602 0 00-3.493-2.946c.176.962.407 1.913.69 2.848 1.661 5.454 3.599 13.048 5.215 19.699.15-.852.375-2.165.735-4.191.08-.476.147-.997.191-1.547a129.365 129.365 0 01-3.338-13.863z" fill="#74B570"/><path d="M54.32 197.564c-25.207-10.639-11.926-25.24-34.15-15.598-1.565.68-3.473 2.391-5.388 4.753 2.279.695 4.681.888 7.042.567 6.633-.996 4.31 4.322-6.633 5.648a24.497 24.497 0 00-5.13 1.085c-5.21 10.045-7.558 23.254 3.464 27.846 2.173.904 4.862 1.422 7.853 1.616 3.405-2.701-.83-18.415 4.409-16.245 5.04 2.08-1.58 13.458-.674 16.323 4.977-.091 10.484-.903 15.747-2.21 2.085-1.171 3.675-2.74 4.164-4.802 1.659-6.981-9.288-11.295-9.618-17.288-.307-5.503 4.012 12.104 15.448 14.695 10.363-4.845 15.25-11.417 3.466-16.39zm17.962-18.815c-2.653-5.647 4.311-6.983 3.98-2.659-.294 3.83-.325 13.141 3.591 15.675 6.758-.737 15.953-3.465 22.904-7.612a2.835 2.835 0 00-.291-1.733c-2.986-5.986-22.223-10.973-16.254-12.967 4.757-1.589 13.087 7.788 19.801 12.522 4.031-3.066 6.733-6.722 6.733-10.803 0-5.525-6.694-11.786-15.353-14.767-3.897.396-7.517 2.529-13.17 5.743-8.353 4.744-6.422-2.926 1.47-7.481-6.82.354-13.617 3.275-18.628 10.251 0 0 .473 2.981-2.675 7.592-8.587 12.584 1.323 19.928 13.17 19.451-.66-3.334-3.446-9.303-5.278-13.212z" fill="#9CD499"/><path d="M39.36 184.728c-6.487 5.023-13.693 10.899-22.535 14.889S9.749 216.61 9.749 216.61s-1.328-11.23 6.042-15.073c7.37-3.842 12.247-8.424 17.84-9.311 5.591-.886 8.697-1.772 8.697-1.772s-1.768-3.546-.735-4.877c1.034-1.33-2.234-.849-2.234-.849zM7.388 125.726c23.734 6.354 41.13 21.575 44.373 25.27 3.243 3.696 3.243 4.729 3.243 4.729l-2.506 4.729-1.18-.592s1.918-3.989-3.096-9.16c-8.644-8.921-19.165-15.96-26.388-19.064a511.83 511.83 0 00-14.446-5.912z" fill="#74B570"/><path d="M63.834 257.423h9.063c3.096 0 6.066-1.233 8.256-3.428a11.72 11.72 0 003.42-8.277v-20.885H52.16v20.885a11.72 11.72 0 003.42 8.276 11.663 11.663 0 008.254 3.429z" fill="#8D8989"/><path d="M52.16 228.568h32.418v2.288H52.16v-2.288zm0 4.172h32.418v1.345H52.16v-1.345z" fill="#fff"/></svg>