<svg width="118" height="118" fill="none" xmlns="http://www.w3.org/2000/svg"><circle cx="59" cy="59" r="59" fill="#F8F8F8"/><g clip-path="url(#clip0)"><path d="M50.127 77.526l-.334.194a.15.15 0 01-.132 0l-.317-.181c-.041-.025-.045-.058 0-.078l.334-.194a.15.15 0 01.131 0l.318.181c.049.025.053.058 0 .079zm-.025.924l-.334.193a.157.157 0 01-.136 0l-.329-.194c-.041-.024-.045-.057 0-.078l.338-.193a.148.148 0 01.132 0l.317.185c.037.033.037.087.012.087zm.82-.475l-.334.194a.148.148 0 01-.132 0l-.317-.181c-.041-.025-.045-.058 0-.078l.334-.194a.147.147 0 01.131 0l.318.185c.028.02.028.054 0 .075zm.003.952l-.333.194a.16.16 0 01-.136 0l-.313-.181c-.041 0-.046-.058 0-.078l.334-.194a.147.147 0 01.131 0l.317.181c.025.013.025.058 0 .078zm.82-.477l-.333.193a.15.15 0 01-.132 0l-.33-.194c-.04-.02-.045-.057 0-.078l.334-.193a.148.148 0 01.132 0l.317.18c.041.042.041.091.012.091zm-.041.926l-.334.194a.144.144 0 01-.136 0l-.313-.181c-.041 0-.045-.058 0-.078l.334-.19a.135.135 0 01.132 0l.317.181c.029.021.033.054 0 .074zm.82-.473l-.334.193a.135.135 0 01-.131 0l-.318-.181c-.04-.02-.045-.058 0-.074l.334-.194a.136.136 0 01.132 0l.317.181c.033.033.037.054 0 .075zm-.013.939l-.333.194a.155.155 0 01-.136 0l-.313-.186c-.041 0-.046-.057 0-.074l.333-.193a.148.148 0 01.132 0l.317.18c.03.026.037.059 0 .08zm.821-.474l-.334.194a.149.149 0 01-.132 0l-.317-.186c-.041-.02-.045-.057 0-.074l.334-.193a.149.149 0 01.131 0l.318.181c.033.025.037.058 0 .078zm-.042.923l-.334.194a.15.15 0 01-.132 0l-.317-.181c-.041-.025-.045-.058 0-.079l.334-.193a.148.148 0 01.131 0l.318.181c.033.025.037.058 0 .078zm.82-.474l-.334.194a.15.15 0 01-.131 0l-.318-.181c-.04-.025-.045-.058 0-.078l.334-.194a.15.15 0 01.132 0l.317.181c.033.025.037.058 0 .078zm.004.953l-.334.193a.148.148 0 01-.132 0l-.317-.181c-.04-.025-.045-.058 0-.079l.334-.193a.148.148 0 01.132 0l.317.18c.033.022.037.059 0 .08zm.819-.475l-.333.194a.148.148 0 01-.132 0l-.317-.181c-.042-.02-.046-.058 0-.079l.333-.193a.161.161 0 01.136 0l.313.181c.033.025.037.058 0 .078zm-.041.923l-.333.194a.136.136 0 01-.132 0l-.317-.181c-.042 0-.046-.058 0-.079l.333-.19a.135.135 0 01.132 0l.317.182c.033.02.037.054 0 .074zm.82-.474l-.334.194a.136.136 0 01-.131 0l-.318-.181c-.037-.02-.045-.058 0-.079l.334-.189a.144.144 0 01.136 0l.313.181c.033.02.037.054 0 .074zm-.042.924l-.333.193a.149.149 0 01-.132 0l-.317-.185c-.041 0-.045-.058 0-.074l.334-.194a.135.135 0 01.131 0l.318.181c.032.025.037.058 0 .079zm.82-.474l-.333.193a.149.149 0 01-.132 0l-.317-.185c-.037 0-.046-.058 0-.074l.333-.194a.144.144 0 01.136 0l.313.181c.033.025.037.058 0 .079zm.005.964l-.334.194a.135.135 0 01-.132 0l-.317-.182c-.041-.025-.045-.058 0-.078l.334-.194a.148.148 0 01.132 0l.317.186c.033.004.037.04 0 .074zm.819-.49l-.334.193a.136.136 0 01-.131 0l-.318-.181c-.037-.025-.04-.058 0-.078l.334-.194a.144.144 0 01.136 0l.313.181c.033.025.037.062 0 .079zm-.041.926l-.334.19a.135.135 0 01-.131 0l-.318-.181c-.04-.025-.045-.058 0-.079l.334-.193a.136.136 0 01.132 0l.317.181c.033.025.037.058 0 .082zm.82-.474l-.333.19a.137.137 0 01-.132 0l-.317-.18c-.038-.026-.042-.059 0-.08l.333-.193a.144.144 0 01.136 0l.313.181c.033.025.037.062 0 .083zm-.042.924l-.333.193a.15.15 0 01-.132 0l-.317-.181c-.041 0-.045-.058 0-.078l.333-.194a.148.148 0 01.132 0l.317.181c.033.017.038.058 0 .079zm.825-.474l-.338.194a.148.148 0 01-.132 0l-.317-.182c-.037 0-.041-.057 0-.078l.334-.194a.16.16 0 01.136 0l.313.182c.032.024.037.078.004.078zm0 .947l-.334.194a.148.148 0 01-.132 0l-.317-.181c-.041-.025-.045-.058 0-.079l.334-.193a.147.147 0 01.132 0l.317.181c.033.025.037.058 0 .079zm.824-.473l-.338.193a.147.147 0 01-.132 0l-.317-.181c-.037-.025-.041-.058 0-.078l.334-.194a.157.157 0 01.136 0l.313.181c.033.017.037.058.004.079zm-.046.922l-.333.194a.15.15 0 01-.132 0l-.317-.181c-.037-.025-.045-.058 0-.078l.333-.194a.157.157 0 01.136 0l.313.185c.033.021.037.058 0 .075zm.824-.473l-.337.193a.148.148 0 01-.132 0l-.318-.181c-.037-.025-.04-.058 0-.078l.334-.194a.156.156 0 01.136 0l.313.185c.033.021.037.058.004.075zm-.053.923l-.334.193a.136.136 0 01-.132 0l-.317-.18c-.037-.026-.045-.059 0-.08l.334-.193a.155.155 0 01.136 0l.313.186c.041.02.045.057 0 .074zm.823-.474l-.338.194a.137.137 0 01-.132 0l-.317-.182c-.037-.024-.041-.057 0-.078l.334-.194a.144.144 0 01.136 0l.313.182c.04.024.045.061.004.078zm0 .952l-.333.194a.15.15 0 01-.132 0l-.317-.186c-.037-.02-.041-.058 0-.074l.334-.194a.144.144 0 01.136 0l.313.181c.04.025.045.058 0 .079zm.824-.474l-.338.194a.148.148 0 01-.132 0l-.317-.186c-.037-.02-.041-.057 0-.074l.334-.194a.145.145 0 01.136 0l.313.182c.041.024.045.057.004.078zm-.037.923l-.334.193a.148.148 0 01-.132 0l-.317-.185c-.037-.02-.041-.058 0-.074l.334-.194a.155.155 0 01.136 0l.313.181c.037.025.037.058 0 .079zm.825-.473l-.339.193a.149.149 0 01-.132 0l-.317-.186c-.037-.02-.04-.057 0-.074l.334-.194a.157.157 0 01.136 0l.313.182c.041.025.041.058.004.078zm-.043.922l-.338.194a.148.148 0 01-.132 0l-.317-.182c-.037-.024-.04-.057 0-.078l.334-.194a.157.157 0 01.136 0l.313.182c.033.024.037.057.004.078zm.82-.474l-.337.194a.147.147 0 01-.132 0l-.317-.182c-.037-.024-.041-.057 0-.078l.333-.194a.157.157 0 01.136 0l.313.182c.033.025.037.058.004.078zm.004.96l-.337.194a.147.147 0 01-.132 0l-.317-.194c-.037-.025-.042-.057 0-.078l.333-.194a.161.161 0 01.136 0l.313.182c.033.024.037.061.004.09zm.821-.482l-.338.194a.15.15 0 01-.132 0l-.317-.182c-.037-.02-.041-.057 0-.078l.334-.194a.161.161 0 01.135 0l.313.182c.034.024.038.057.005.078zm-.042.923l-.338.194a.136.136 0 01-.132 0l-.317-.182c-.037-.02-.041-.057 0-.078l.334-.19a.144.144 0 01.136 0l.313.182c.032.02.037.045.004.074zm.82-.474l-.338.194a.136.136 0 01-.132 0l-.317-.181c-.037-.021-.041-.058 0-.079l.334-.19a.144.144 0 01.136 0l.313.182c.033.02.037.053.004.074zm-.041.923l-.338.194a.15.15 0 01-.132 0l-.317-.185c-.037 0-.041-.058 0-.075l.334-.193a.145.145 0 01.136 0l.313.18c.033.013.037.059.004.08zm.819-.478l-.333.194a.157.157 0 01-.136 0l-.318-.186c-.037-.02-.04-.057 0-.074l.334-.193a.144.144 0 01.136 0l.313.18c.033.03.037.08.004.08zm.004.952l-.338.194a.136.136 0 01-.131 0l-.318-.182c-.037-.024-.04-.057 0-.078l.334-.194a.157.157 0 01.136 0l.313.186c.033.02.037.058.004.074zm.819-.474l-.333.194a.144.144 0 01-.136 0l-.317-.181c-.037-.025-.041-.058 0-.079l.333-.193a.145.145 0 01.136 0l.313.18c.033.013.037.063.004.08zm-.041.927l-.337.19a.135.135 0 01-.132 0l-.317-.182c-.037-.024-.041-.057 0-.078l.333-.194a.144.144 0 01.136 0l.313.182c.033.024.037.062.004.082zm.82-.474l-.333.194a.161.161 0 01-.136 0l-.317-.181c-.037-.025-.041-.058 0-.079l.334-.193a.144.144 0 01.136 0l.313.181c.033.02.037.058.004.078zm-.041.923l-.338.194a.148.148 0 01-.132 0l-.317-.181c-.037 0-.041-.058 0-.079l.334-.193a.16.16 0 01.136 0l.313.181c.033.025.037.058.004.079zm.821-.474l-.335.194a.16.16 0 01-.135 0l-.314-.181c-.04-.02-.045-.058 0-.078l.334-.194a.16.16 0 01.136 0l.313.181c.029.025.033.058 0 .079zm.003.948l-.338.194a.148.148 0 01-.132 0l-.317-.181c-.037-.025-.04-.058 0-.079l.334-.193a.157.157 0 01.136 0l.313.181c.033.025.037.058.004.078zm.82-.474l-.333.194a.157.157 0 01-.136 0l-.313-.181c-.041-.025-.046-.058 0-.079l.333-.193a.157.157 0 01.136 0l.317.181c.025.025.03.058-.004.078zm-.042.923l-.337.194a.148.148 0 01-.132 0l-.317-.181c-.037-.025-.042-.058 0-.079l.333-.193a.155.155 0 01.136 0l.313.185c.033.02.037.058.004.074zm.821-.473l-.334.193a.157.157 0 01-.136 0l-.313-.181c-.041-.025-.045-.058 0-.078l.334-.194a.157.157 0 01.136 0l.317.186c.024.02.029.057-.004.074zm.818-.474l-.333.193a.157.157 0 01-.136 0l-.313-.181c-.04-.025-.045-.058 0-.078l.338-.194a.148.148 0 01.132 0l.317.185c.025.021.029.058-.004.075zm.821-.474l-.333.193a.155.155 0 01-.136 0l-.313-.18c-.042-.026-.046-.058 0-.08l.333-.193a.148.148 0 01.132 0l.317.186c.03.02.033.057 0 .074zm.819-.474l-.333.194a.135.135 0 01-.132 0l-.317-.182c-.041-.024-.045-.057 0-.078l.334-.194a.15.15 0 01.131 0l.318.186c.032.016.037.057 0 .074zm.82-.47l-.333.194a.136.136 0 01-.132 0l-.317-.181c-.037-.025-.041-.058 0-.079l.334-.193a.157.157 0 01.136 0l.313.185c.033.017.037.074 0 .074zm.824-.478l-.338.194a.135.135 0 01-.131 0l-.318-.181c-.037-.025-.04-.058 0-.079l.334-.193a.155.155 0 01.136 0l.313.185c.033.02.037.058.004.074zm-3.324 2.819l-.334.193a.144.144 0 01-.136 0l-.313-.18c-.04-.026-.045-.059 0-.08l.313-.214a.145.145 0 01.136 0l.317.182c.046.045.05.082.017.099zm.82-.47l-.334.19a.144.144 0 01-.136 0l-.313-.182c-.042-.025-.046-.057 0-.078l.337-.194a.136.136 0 01.132 0l.317.181c.025.025.03.062-.004.083zm.82-.474l-.334.19a.145.145 0 01-.136 0l-.313-.182c-.041-.025-.045-.057 0-.078l.334-.194a.136.136 0 01.131 0l.318.182c.028.024.037.061 0 .082zm.819-.474l-.334.19a.136.136 0 01-.132 0l-.317-.182c-.04-.024-.045-.057 0-.078l.334-.194a.137.137 0 01.132 0l.317.182c.033.024.037.061 0 .082zm.821-.473l-.335.189a.135.135 0 01-.131 0l-.318-.181c-.037-.025-.04-.058 0-.079l.334-.193a.144.144 0 01.136 0l.313.181c.033.045.037.045 0 .083zM38.593 65.293l-.333.194a.145.145 0 01-.136 0l-.313-.181c-.041-.025-.045-.058 0-.079l.337-.194a.15.15 0 01.132 0l.317.186c.038.02.042.045-.004.074zm-.029.927l-.334.19a.144.144 0 01-.136 0l-.313-.182c-.04-.024-.045-.057 0-.078l.338-.194a.136.136 0 01.132 0l.317.182c.025.024.025.062-.004.082zm.819-.474l-.333.19a.145.145 0 01-.136 0l-.313-.181c-.041-.025-.045-.058 0-.079l.338-.193a.136.136 0 01.131 0l.318.18c.028.013.028.063-.005.083zm.004.948l-.333.194a.155.155 0 01-.136 0l-.313-.186c-.041 0-.046-.058 0-.074l.338-.194a.148.148 0 01.131 0l.318.182c.024.024.024.057-.005.078zm.821-.474l-.334.194a.157.157 0 01-.136 0l-.313-.186c-.041 0-.045-.057 0-.074l.338-.194a.149.149 0 01.132 0l.317.182c.029.025.029.058-.004.078zm-.041.923l-.338.181a.157.157 0 01-.136 0l-.313-.18c-.041-.026-.045-.059 0-.08l.338-.193a.148.148 0 01.132 0l.317.181c.029.037.033.07 0 .091zm.819-.473l-.334.193a.155.155 0 01-.136 0l-.313-.182c-.04-.024-.045-.057 0-.078l.334-.194a.148.148 0 01.132 0l.317.182c.029.025.033.058 0 .078zm-.012.939l-.333.193a.157.157 0 01-.136 0l-.313-.181c-.042-.025-.046-.058 0-.078l.337-.194a.149.149 0 01.132 0l.317.185c.025.021.03.058-.004.075zm.82-.474l-.317.19a.157.157 0 01-.136 0l-.313-.182c-.042-.025-.046-.058 0-.078l.333-.194a.148.148 0 01.132 0l.317.186c.013.024.017.061-.016.078zm-.041.923l-.334.193a.144.144 0 01-.136 0l-.313-.18c-.041-.025-.045-.058 0-.079l.338-.194a.136.136 0 01.132 0l.317.182c.024.024.029.061-.004.078zm.819-.47l-.334.19a.145.145 0 01-.136 0l-.313-.182c-.04-.024-.045-.057 0-.078l.334-.194a.136.136 0 01.132 0l.317.182c.029.024.037.061 0 .082zm.004.948l-.334.193a.155.155 0 01-.136 0l-.313-.185c-.041 0-.045-.058 0-.074l.338-.194a.135.135 0 01.132 0l.317.181c.025.025.029.058-.004.079zm.82-.474l-.334.194a.157.157 0 01-.135 0l-.313-.186c-.042 0-.046-.057 0-.074l.333-.194a.135.135 0 01.132 0l.317.182c.029.025.037.057 0 .078zm-.042.911l-.334.193a.157.157 0 01-.135 0l-.313-.185c-.042-.02-.046-.054 0-.074l.337-.194a.148.148 0 01.132 0l.317.181c.025.037.03.079-.004.079zm.821-.462l-.334.194a.149.149 0 01-.132 0l-.317-.186c-.041 0-.046-.053 0-.074l.333-.194a.149.149 0 01.132 0l.318.182c.032.025.037.057 0 .078zm-.042.923l-.333.194a.155.155 0 01-.136 0l-.313-.182c-.041-.024-.045-.057 0-.078l.338-.194a.148.148 0 01.131 0l.318.182c.024.029.028.057-.005.078zm.82-.461l-.334.193a.147.147 0 01-.132 0l-.317-.181c-.041-.025-.045-.058 0-.078l.334-.194a.148.148 0 01.132 0l.317.185c.033.009.037.042 0 .075zm.004.939l-.334.194a.16.16 0 01-.136 0l-.313-.182c-.041-.02-.045-.057 0-.078l.334-.194a.149.149 0 01.131 0l.318.182c.029.024.033.057 0 .078zm.82-.474l-.334.194a.148.148 0 01-.131 0l-.318-.181c-.04 0-.045-.058 0-.079l.334-.194a.15.15 0 01.132 0l.317.182c.033.025.037.058 0 .078zm-.041.923l-.334.194a.144.144 0 01-.136 0l-.313-.181c-.04 0-.045-.058 0-.079l.334-.19a.136.136 0 01.132 0l.317.182c.029.02.033.053 0 .074zm.819-.474l-.333.194a.136.136 0 01-.132 0l-.317-.181c-.042 0-.046-.058 0-.079l.333-.19a.136.136 0 01.132 0l.317.182c.033.02.037.054 0 .074zm-.041.923l-.333.194a.156.156 0 01-.136 0l-.313-.186c-.041 0-.046-.057 0-.074l.333-.194a.136.136 0 01.132 0l.317.182c.03.025.037.058 0 .078zm.82-.474L47 70.53a.148.148 0 01-.132 0l-.317-.185c-.041 0-.045-.058 0-.075l.334-.193a.135.135 0 01.132 0l.317.181c.033.025.037.058 0 .078zm.003.948l-.333.194a.144.144 0 01-.136 0l-.313-.182c-.041-.024-.045-.057 0-.078l.334-.194a.135.135 0 01.131 0l.317.182c.03.024.038.061 0 .078zm.821-.474l-.334.194a.136.136 0 01-.132 0l-.317-.182c-.041-.024-.045-.057 0-.078l.334-.194a.135.135 0 01.132 0l.317.182c.033.025.037.062 0 .078zm-.042.927l-.334.194a.149.149 0 01-.132 0l-.317-.181c-.041-.025-.045-.058 0-.079l.334-.193a.137.137 0 01.132 0l.317.181c.033.02.037.058 0 .078zm.82-.473l-.334.193a.147.147 0 01-.131 0l-.317-.181c-.042-.025-.046-.058 0-.078l.333-.194a.148.148 0 01.132 0l.317.181c.033.02.037.058 0 .079zm-.046.922l-.333.194a.149.149 0 01-.132 0l-.317-.181c-.041 0-.046-.058 0-.078l.333-.194a.149.149 0 01.132 0l.317.181c.037.025.041.058 0 .078zm.825-.473l-.334.193a.148.148 0 01-.132 0l-.317-.181c-.041 0-.045-.058 0-.078l.334-.194a.16.16 0 01.136 0l.313.181c.032.025.037.058 0 .079zm0 .968l-.334.194a.148.148 0 01-.132 0l-.317-.182c-.041-.024-.045-.057 0-.078l.334-.194a.148.148 0 01.131 0l.318.182c.037.004.04.037 0 .078zm.823-.495l-.333.194a.15.15 0 01-.132 0l-.317-.181c-.038-.025-.046-.058 0-.078l.333-.194a.157.157 0 01.136 0l.313.181c.033.025.037.058 0 .078zm-.04.907l-.334.194a.15.15 0 01-.132 0l-.317-.182c-.041-.024-.045-.057 0-.078l.334-.194a.15.15 0 01.132 0l.317.186c.04.037.04.074 0 .074zm.819-.458l-.334.194a.147.147 0 01-.132 0l-.317-.181c-.037-.025-.04-.058 0-.078l.334-.194a.157.157 0 01.136 0l.313.185c.045.02.045.058 0 .074zm-.041.924l-.334.193a.136.136 0 01-.131 0l-.318-.181c-.04-.025-.045-.058 0-.078l.334-.194a.136.136 0 01.132 0l.317.181c.033.025.037.062 0 .079zm.819-.466l-.333.19a.136.136 0 01-.132 0l-.317-.182c-.038-.025-.042-.058 0-.078l.333-.194a.144.144 0 01.136 0l.313.182c.033.02.037.057 0 .082zm-11.887-7.829l-.334.194a.15.15 0 01-.132 0l-.325-.194c-.037 0-.041-.058 0-.074l.334-.194a.144.144 0 01.136 0l.313.182c.04.04.04.086.008.086zm.824.482l-.334.194a.136.136 0 01-.132 0l-.317-.181c-.037-.025-.041-.058 0-.079l.334-.193a.144.144 0 01.136 0l.313.181c.033.008.033.062 0 .078zm.782.454l-.338.193a.148.148 0 01-.131 0l-.318-.181c-.037-.025-.04-.058 0-.078l.334-.194a.16.16 0 01.136 0l.313.181c.033.02.037.058.004.079zm.808.465l-.338.194a.135.135 0 01-.132 0l-.317-.182c-.037 0-.041-.057 0-.078l.334-.19a.144.144 0 01.136 0l.313.182c.033.02.037.053.004.074zm.778.449l-.338.194a.135.135 0 01-.131 0l-.318-.181c-.037 0-.04-.058 0-.075l.334-.193a.144.144 0 01.136 0l.313.181c.033.02.037.054.004.074zm.823.474l-.337.194a.137.137 0 01-.132 0l-.317-.181c-.037-.025-.042-.058 0-.079l.333-.194a.157.157 0 01.136 0l.313.186c.033.02.037.058.004.074zm.78.453l-.338.19a.136.136 0 01-.132 0l-.317-.181c-.037-.025-.041-.058 0-.079l.334-.194a.144.144 0 01.136 0l.313.182c.032.025.037.062.004.082zm.778.449l-.338.194a.149.149 0 01-.132 0l-.317-.181c-.037-.025-.041-.058 0-.078l.334-.194a.16.16 0 01.136 0l.313.181c.033.02.037.058.004.078zm.823.482l-.338.194a.147.147 0 01-.131 0l-.317-.181c-.038-.025-.042-.058 0-.079l.333-.193a.157.157 0 01.136 0l.313.181c.033.017.037.05.004.078zm.779.441l-.337.194a.147.147 0 01-.132 0l-.317-.181c-.037-.025-.041-.058 0-.078l.333-.194a.155.155 0 01.136 0l.313.185c.033.021.038.046.005.075zm.779.449l-.338.194a.136.136 0 01-.132 0l-.317-.181c-.037-.025-.041-.058 0-.078l.334-.194a.157.157 0 01.136 0l.313.185c.033.009.037.058.004.075zm.823.478l-.334.194a.145.145 0 01-.136 0l-.317-.181c-.037 0-.04-.058 0-.074l.334-.194a.145.145 0 01.136 0l.313.181c.033.021.037.054.004.075zm.779.45l-.333.193a.157.157 0 01-.136 0l-.317-.185c-.038 0-.042-.058 0-.074l.333-.194a.157.157 0 01.136 0l.313.181c.033.025.037.058.004.079zm.775.449l-.334.193a.157.157 0 01-.136 0l-.313-.18c-.041-.026-.045-.059 0-.08l.334-.193a.156.156 0 01.136 0l.313.181c.033.025.037.058 0 .079zm.823.478l-.334.194a.161.161 0 01-.136 0l-.313-.182c-.04-.025-.045-.058 0-.078l.334-.194a.161.161 0 01.136 0l.313.181c.033.021.037.058 0 .079zm.783.449l-.334.194a.145.145 0 01-.135 0l-.314-.182c-.04-.02-.045-.057 0-.078l.334-.19a.145.145 0 01.136 0l.317.182c.037.02.037.053-.004.074zm.778.449l-.333.194a.144.144 0 01-.136 0l-.313-.182c-.041 0-.045-.057 0-.074l.334-.193a.144.144 0 01.135 0l.318.18c.024.021.028.054-.005.075zm22.013 13.581l-.334.194a.144.144 0 01-.135 0l-.313-.182c-.042-.02-.046-.058 0-.078l.337-.19a.136.136 0 01.132 0l.317.182c.025.02.03.053-.004.074zm-.041.906l-.334.194a.144.144 0 01-.135 0l-.314-.181c-.04-.02-.045-.058 0-.075l.338-.193a.136.136 0 01.132 0l.317.181c.025.037.03.074-.004.074zm.82-.457l-.334.194a.144.144 0 01-.136 0l-.313-.182c-.041-.02-.045-.057 0-.074l.338-.194a.136.136 0 01.131 0l.318.182c.024.02.029.053-.004.074zm.003.947l-.333.194a.144.144 0 01-.136 0l-.313-.181c-.041-.025-.046-.058 0-.079l.337-.193a.15.15 0 01.132 0l.317.185c.025.02.03.058-.004.074zm.821-.49l-.334.194a.144.144 0 01-.136 0l-.313-.181c-.041-.025-.045-.058 0-.079l.338-.193a.147.147 0 01.132 0l.317.185c.025.037.029.074-.004.074zm-.05.944l-.334.19a.144.144 0 01-.136 0l-.313-.182c-.04-.025-.045-.058 0-.078l.338-.194a.135.135 0 01.132 0l.317.181c.033.025.037.062-.004.083zm.824-.474l-.334.19a.145.145 0 01-.135 0l-.313-.182c-.042-.025-.046-.057 0-.078l.333-.194a.135.135 0 01.132 0l.317.182c.033.024.037.061 0 .082zm-.037.923l-.334.194a.161.161 0 01-.136 0l-.313-.182c-.04-.024-.045-.057 0-.078l.338-.194a.149.149 0 01.132 0l.317.182c.033.02.033.057-.004.078zm.819-.474l-.333.194a.161.161 0 01-.136 0l-.313-.181c-.041-.025-.046-.058 0-.079l.333-.193a.148.148 0 01.132 0l.317.18c.042.021.042.059 0 .08zm.005.948l-.334.194a.155.155 0 01-.136 0l-.313-.182c-.042-.024-.046-.057 0-.078l.337-.194a.148.148 0 01.132 0l.317.182c.033.024.033.057-.004.078zm.82-.474l-.334.194a.157.157 0 01-.136 0l-.313-.182c-.041-.024-.045-.057 0-.078l.334-.194a.149.149 0 01.131 0l.318.182c.04.024.04.057 0 .078zm-.041.923l-.334.194a.155.155 0 01-.136 0l-.313-.182c-.041-.025-.045-.058 0-.078l.338-.194a.148.148 0 01.132 0l.317.186c.024.02.029.053-.004.074zm.819-.474l-.334.194a.157.157 0 01-.136 0l-.313-.181c-.04-.025-.045-.058 0-.079l.334-.193a.15.15 0 01.132 0l.317.185c.029.02.037.058 0 .074zm-.041.923l-.334.194a.144.144 0 01-.136 0l-.313-.182c-.04-.025-.045-.058 0-.078l.338-.194a.148.148 0 01.132 0l.317.186c.025.02.029.057-.004.074zm.819-.474l-.333.194a.137.137 0 01-.132 0l-.317-.181c-.042-.025-.046-.058 0-.079l.333-.193a.15.15 0 01.132 0l.317.185c.033.02.037.058 0 .074zm.004.952l-.334.194a.144.144 0 01-.135 0l-.313-.182c-.042 0-.046-.057 0-.074l.337-.193a.135.135 0 01.132 0l.317.18c.025.022.03.054-.004.075zm.82-.474l-.333.194a.136.136 0 01-.132 0l-.317-.181c-.041 0-.046-.058 0-.075l.334-.193a.135.135 0 01.131 0l.317.181c.033.02.038.053 0 .074zm-.042.939l-.333.194a.155.155 0 01-.136 0l-.313-.185c-.041-.02-.046-.058 0-.074l.334-.194a.148.148 0 01.131 0l.317.181c.03.009.033.042 0 .079zm.821-.49l-.334.194a.149.149 0 01-.132 0l-.317-.186c-.041 0-.045-.057 0-.074l.334-.193a.149.149 0 01.132 0l.317.18c.033.026.037.059 0 .08zm.778.45l-.334.193a.147.147 0 01-.131 0l-.318-.181c-.04-.025-.045-.058 0-.078l.334-.194a.149.149 0 01.132 0l.317.181c.033.025.037.058 0 .078zm-7.875-5.497l-.334.194a.149.149 0 01-.132 0l-.317-.186c-.037 0-.045-.053 0-.074l.334-.194a.157.157 0 01.135 0l.314.182c.032.024.037.057 0 .078zm.778.449l-.333.194a.148.148 0 01-.132 0l-.317-.182c-.037-.024-.042-.057 0-.078l.333-.194a.157.157 0 01.136 0l.313.182c.033.024.037.057 0 .078zm.779.448l-.334.195a.148.148 0 01-.132 0l-.317-.182c-.037-.025-.041-.058 0-.078l.334-.194a.157.157 0 01.135 0l.314.186c.032.02.037.057 0 .074zm.827.479l-.338.194a.136.136 0 01-.132 0l-.317-.182c-.037 0-.041-.057 0-.078l.334-.19a.144.144 0 01.136 0l.313.182c.033.02.037.053.004.074zm.77.453l-.337.194a.15.15 0 01-.132 0l-.317-.186c-.037-.02-.041-.057 0-.074l.333-.193a.144.144 0 01.136 0l.313.181c.041.02.046.054.004.078zm.788.445l-.338.194a.148.148 0 01-.132 0l-.317-.185c-.037-.021-.041-.054 0-.075l.333-.193a.157.157 0 01.136 0l.313.181c.042.045.042.045.005.078zm.823.478l-.338.194a.148.148 0 01-.132 0l-.317-.181c-.037-.025-.041-.058 0-.079l.334-.193a.144.144 0 01.136 0l.313.18c.04.022.04.059.004.08zm.779.449l-.338.194a.148.148 0 01-.132 0l-.317-.181c-.037-.02-.04-.058 0-.078l.334-.194a.161.161 0 01.136 0l.313.181c.033.025.037.058.004.078zm.778.449l-.337.194a.135.135 0 01-.132 0l-.317-.181c-.037-.02-.041-.058 0-.079l.333-.19a.144.144 0 01.136 0l.313.182c.033.02.037.054.004.074zm.824.474l-.338.194a.148.148 0 01-.132 0l-.317-.181c-.037-.025-.041-.058 0-.078l.334-.194a.157.157 0 01.136 0l.313.185c.032.02.037.058.004.074zm.779.449l-.338.194a.136.136 0 01-.132 0l-.317-.181c-.037-.025-.041-.058 0-.078l.334-.194a.144.144 0 01.136 0l.313.181c.033.025.037.062.004.078z" fill="#150035"/><path d="M85.172 48.605L39.787 22.412a1.111 1.111 0 00-1.062-.132c-.992.443-1.93.996-2.797 1.648l2.179 2.127v29.852c0 1.236.762 2.711 1.705 3.255l44.075 25.46-1.532.758 1.112 1.743a8.272 8.272 0 002.883-1.706 1.572 1.572 0 00.523-1.33V51.864c.004-1.257-.762-2.716-1.701-3.26z" fill="red"/><path d="M83.36 87.35l-1.306-2.06 1.404-.693-43.77-25.266c-.992-.573-1.8-2.11-1.8-3.424V26.145l-2.278-2.22.173-.14a14.504 14.504 0 012.838-1.674 1.323 1.323 0 011.26.116l45.39 26.214c.992.572 1.8 2.11 1.8 3.424v32.221a1.763 1.763 0 01-.602 1.492 8.419 8.419 0 01-2.97 1.734l-.14.038zm-.742-1.892l.914 1.434a8.693 8.693 0 002.694-1.623 1.414 1.414 0 00.453-1.183V51.865c0-1.191-.72-2.576-1.606-3.09l-45.385-26.21a.94.94 0 00-.877-.112h-.025c-.909.414-1.774.918-2.583 1.504l2.06 2.023v29.927c0 1.19.72 2.575 1.607 3.086L84.285 84.63l-1.668.828z" fill="#150035"/><path d="M38.102 29.22v9.29l30.56 17.652 14.805-8.55-38.605-22.295-6.76 3.902z" fill="#fff"/><path d="M68.663 56.385l-.099-.054-30.659-17.718v-9.505l6.957-4.018.095.058 38.897 22.464-15.191 8.773zM38.297 38.399l30.366 17.536 14.417-8.323L44.862 25.54l-6.565 3.795V38.4zm-.783-12.868l.547.532v1.055L42.89 24.2l-2.344-1.355-2.805 1.59-.226 1.096z" fill="#150035"/><path d="M37.868 27.464v-1.319l-.564-.552.263-1.281 2.978-1.69 2.727 1.574-5.404 3.268zm-.14-1.999l.531.515v.791l4.247-2.567-1.965-1.133-2.628 1.492-.185.902z" fill="#150035"/><path d="M73.4 85.186a1.575 1.575 0 00-.77-1.018l-1.763-1.017c-1.796-1.034-3.267-3.58-3.267-5.658V65.787a.05.05 0 000-.037l-1.775-1.022a.037.037 0 00-.062.02.037.037 0 00.004.026c.139.441.212.9.218 1.364v8.483c.015.445-.09.884-.304 1.274l-.182-1.385a.042.042 0 00-.029-.035.04.04 0 00-.016-.002l-3.682.433a.054.054 0 01-.042 0 6.046 6.046 0 01-1.31-3.482v-8.5a2.604 2.604 0 01.241-1.168c0-.01-.004-.02-.01-.027l-1.792-1.034a.044.044 0 00-.025-.024.044.044 0 00-.034.001.046.046 0 00-.024.025.045.045 0 000 .035v11.61c0 2.102-1.486 2.96-3.294 1.909l-1.837-1.06c-.194-.11-.33-.135-.454-.061h-.037a16.407 16.407 0 00-3.44 2.023.037.037 0 00-.011.048c.002.006.007.01.012.014l1.384 1.236 16.979 9.431 1.648 1.95a.037.037 0 00.045 0c.243-.091 2.298-.874 3.501-2.06a.648.648 0 00.128-.586z" fill="red"/><path d="M69.766 88.062a.244.244 0 01-.181-.082l-1.648-1.933-16.987-9.431-1.384-1.236a.25.25 0 01-.083-.19.247.247 0 01.095-.177 16.431 16.431 0 013.485-2.027.598.598 0 01.634.066l1.837 1.059c.824.474 1.578.552 2.142.226.565-.325.874-1.022.874-1.965v-11.64a.235.235 0 01.236-.237.24.24 0 01.118.03l1.808 1.03a.234.234 0 01.095.306 2.395 2.395 0 00-.214 1.059v8.483a5.79 5.79 0 001.235 3.297l3.6-.412a.239.239 0 01.26.206l.07.535a3.07 3.07 0 00.025-.412v-8.48a4.666 4.666 0 00-.206-1.305.234.234 0 01.078-.256.235.235 0 01.264 0l1.775 1.026a.24.24 0 01.115.202V77.51a7.005 7.005 0 003.172 5.488l1.763 1.022a1.759 1.759 0 01.861 1.146.825.825 0 01-.173.795c-1.236 1.215-3.336 2.015-3.571 2.105a.262.262 0 01-.095-.004zM51.193 76.294l16.991 9.444.033.037 1.594 1.867c.486-.185 2.262-.923 3.333-1.978a.478.478 0 00.061-.437 1.365 1.365 0 00-.675-.89l-1.763-1.017c-1.854-1.072-3.361-3.684-3.361-5.826V65.877l-1.376-.795c.083.345.126.7.128 1.055v8.484c.015.478-.099.952-.33 1.372l-.288.49-.235-1.796-3.534.412a.243.243 0 01-.214-.091 6.203 6.203 0 01-1.352-3.601v-8.484a2.927 2.927 0 01.19-1.096l-1.438-.824V72.35c0 1.088-.379 1.908-1.07 2.303-.693.396-1.586.318-2.53-.226l-1.837-1.059c-.181-.107-.226-.078-.251-.066l-.054.029a16.476 16.476 0 00-3.258 1.87l1.236 1.092z" fill="#150035"/><path d="M73.4 85.232c-.046-.219 0-.243-.145-.412a10.815 10.815 0 01-3.514 1.953l-.873.115.865 1.014a.04.04 0 00.045 0c.243-.095 2.299-.878 3.502-2.06a.648.648 0 00.12-.61z" fill="#1A0E33"/><path d="M69.767 88.108a.244.244 0 01-.181-.083l-1.096-1.29 1.211-.156a10.886 10.886 0 003.431-1.912l.153-.132.124.161a.635.635 0 01.16.37 1.135 1.135 0 000 .129.824.824 0 01-.173.795c-1.236 1.215-3.336 2.019-3.571 2.105a.259.259 0 01-.058.013zm-.515-1.08l.56.664c.487-.19 2.262-.923 3.333-1.982a.478.478 0 00.062-.437c0-.062 0-.107-.025-.144a10.857 10.857 0 01-3.386 1.825h-.029l-.515.074z" fill="#150035"/><path d="M67.98 85.866l.448.528 4.029-2.304-1.685-.972a5.508 5.508 0 01-.746-.532c-1.672.952-3.295 1.85-3.966 2.213l1.92 1.067z" fill="#fff"/><path d="M68.395 86.657l-.536-.63-2.191-1.216.313-.173c.626-.342 2.27-1.236 3.963-2.208l.12-.07.102.09c.223.192.463.363.717.511l1.977 1.142-4.465 2.554zm-1.92-1.846l1.648.907.033.033.346.412 3.592-2.06-1.388-.804a5.68 5.68 0 01-.672-.466c-1.437.812-2.813 1.57-3.559 1.978z" fill="#150035"/><path d="M55.457 74.255l-1.837-1.059c-.194-.111-.33-.136-.453-.062l-.037.02a16.403 16.403 0 00-3.415 2 .037.037 0 00-.017.03.04.04 0 00.005.018.03.03 0 00.012.013l1.384 1.236.177.268 4.18-2.464z" fill="#fff"/><path d="M51.201 76.995l-.267-.412-1.372-1.236a.25.25 0 01-.082-.19.248.248 0 01.094-.177 16.433 16.433 0 013.485-2.027.597.597 0 01.634.066l2.126 1.236-4.618 2.74zm0-.692h.025l.103.152 3.748-2.212-1.548-.895c-.182-.107-.227-.078-.252-.061l-.053.024a16.73 16.73 0 00-3.258 1.871l1.235 1.12zm16.399 1.19v-4.532c-.754-.255-1.322-.445-1.384-.445a2.103 2.103 0 00-.251.062v2.06a2.47 2.47 0 01-.305 1.273l-.177-1.384a.05.05 0 00-.05-.037l-3.682.432a.054.054 0 01-.041 0 7.72 7.72 0 01-.515-.778l-.16.053.411 7.911 1.94 1.175.054.07 1.577.865.227-.297s1.96-1.071 3.93-2.287a7.137 7.137 0 01-1.574-4.14z" fill="#150035"/><path d="M65.066 84.453l-1.759-.98-.057-.075-2.002-1.207-.412-8.167.453-.148.078.136c.136.238.286.468.45.688l3.6-.412a.239.239 0 01.259.206l.07.536a3.07 3.07 0 00.025-.412v-2.192l.144-.038c.098-.037.2-.06.305-.07.494.11.978.262 1.445.458l.132.04v4.673a6.982 6.982 0 001.533 4.005l.136.174-.186.11a98.656 98.656 0 01-3.9 2.275l-.314.4zm-1.503-1.282l1.4.78.153-.194h.037s1.853-1.018 3.736-2.172a7.199 7.199 0 01-1.483-4.07v-4.422c-.86-.293-1.12-.37-1.195-.387h-.053V74.6c.015.479-.098.953-.33 1.372l-.288.49-.235-1.796-3.534.412a.239.239 0 01-.214-.095 8.894 8.894 0 01-.31-.412l.38 7.392 1.886 1.142.05.066z" fill="#150035"/><path d="M69.289 86.278l-1.9-1.1a7.173 7.173 0 01-3.257-5.64V67.781l-1.883-1.088c.156.472.24.965.247 1.463v8.48c0 1.775-1.235 2.496-2.784 1.606a6.146 6.146 0 01-2.78-4.816v-8.484a2.59 2.59 0 01.247-1.175l-1.887-1.092v11.756c0 2.06-1.45 2.909-3.242 1.875l-1.899-1.096c-.375-.219-.68-.041-.68.412a1.504 1.504 0 00.68 1.174l19.125 11.047c.375.214.68.041.68-.392a1.497 1.497 0 00-.667-1.174z" fill="red"/><path d="M69.593 88.112a.824.824 0 01-.412-.12L50.065 76.945a1.685 1.685 0 01-.762-1.343.601.601 0 01.968-.56l1.898 1.096c.804.465 1.55.544 2.101.226.552-.317.853-1.005.853-1.932v-12.09l2.335 1.348-.082.165c-.159.34-.236.712-.227 1.088v8.484a5.955 5.955 0 002.686 4.651c.68.413 1.31.462 1.771.194.462-.268.721-.849.721-1.648v-8.476a4.697 4.697 0 00-.239-1.4l-.156-.483 2.418 1.397V79.53a6.976 6.976 0 003.15 5.455l1.9 1.096a1.688 1.688 0 01.774 1.344.662.662 0 01-.296.605.528.528 0 01-.285.083zM49.858 75.31a.157.157 0 00-.078.02.3.3 0 00-.103.272 1.311 1.311 0 00.581 1.005l19.13 11.047a.304.304 0 00.284.046.309.309 0 00.099-.268 1.293 1.293 0 00-.581-1.006l-1.9-1.096c-1.84-1.063-3.34-3.663-3.34-5.789V67.897l-1.376-.795c.084.345.126.7.128 1.055v8.484c0 .927-.325 1.627-.91 1.97-.585.341-1.36.267-2.163-.199a6.362 6.362 0 01-2.883-4.985v-8.484a2.93 2.93 0 01.19-1.096l-1.438-.824V74.44c0 1.076-.375 1.88-1.05 2.27-.676.392-1.558.31-2.472-.226l-1.9-1.096a.412.412 0 00-.218-.078z" fill="#150035"/><path d="M56.935 64.972v8.48a6.154 6.154 0 002.785 4.82c1.528.886 2.764.177 2.764-1.607v-8.48a4.909 4.909 0 00-.247-1.462l.988.568v-3.263h-6.178a2.84 2.84 0 00-.112.944z" fill="#fff"/><path d="M60.96 78.861a2.714 2.714 0 01-1.339-.412 6.372 6.372 0 01-2.883-4.99v-8.487c-.006-.336.046-.67.152-.99l.045-.131h6.5v3.778l-.869-.503c.084.347.127.703.128 1.06v8.48c0 .93-.321 1.647-.91 1.969-.25.148-.534.227-.824.226zm-3.74-14.606a2.848 2.848 0 00-.091.729v8.48a5.947 5.947 0 002.686 4.652c.68.412 1.31.461 1.775.193.465-.267.717-.824.717-1.648v-8.475a4.699 4.699 0 00-.24-1.406l-.152-.478 1.13.651v-2.71l-5.825.012z" fill="#150035"/><path d="M61.034 64.028h-3.958c-.098.3-.145.612-.14.927v8.48a6.181 6.181 0 001.672 3.91c.993.083 1.685-.655 1.685-1.978v-8.455a4.886 4.886 0 00-.247-1.462l.988.568v-1.99z" fill="#150035"/><path d="M58.752 77.564h-.235l-.054-.054a6.391 6.391 0 01-1.721-4.046v-8.492c-.006-.336.046-.67.152-.99l.045-.131h4.309v2.497l-.87-.503c.084.347.127.702.129 1.059v8.48a2.324 2.324 0 01-.639 1.767 1.565 1.565 0 01-1.116.413zm-.054-.392a1.185 1.185 0 00.886-.305 1.962 1.962 0 00.515-1.483v-8.472a4.702 4.702 0 00-.24-1.405l-.152-.478 1.129.647v-1.43h-3.617a2.848 2.848 0 00-.09.73v8.48a5.95 5.95 0 001.57 3.716z" fill="#150035"/><path d="M57.879 64.51v8.484a6.183 6.183 0 002.785 4.82c.407.257.882.386 1.363.372a2.25 2.25 0 00.457-1.52v-8.48a4.909 4.909 0 00-.247-1.463l.989.568v-.877c0-.05-.03-.103-.046-.153l.046.025v-2.258h-5.31a2.81 2.81 0 00-.037.482z" fill="red"/><path d="M61.907 78.388a2.76 2.76 0 01-1.343-.413 6.385 6.385 0 01-2.883-4.99V64.51c0-.165.012-.33.037-.494l.024-.165h5.693v3.778l-.869-.503c.083.347.126.703.128 1.06v8.48a2.463 2.463 0 01-.524 1.647l-.049.058h-.082l-.132.017zm-3.818-14.146v8.752a5.942 5.942 0 002.685 4.652c.352.22.756.34 1.17.35.267-.39.398-.858.375-1.33v-8.48a4.699 4.699 0 00-.24-1.406l-.151-.478 1.128.651v-.547l-.025-.083-.152-.482.185.107v-1.706H58.09zm16.093-10.569l-.519 25.16L83.64 84.6l3.237-1.858v-30.77a4.352 4.352 0 00-.786-2.365l-5.602 3.222-6.307.844z" fill="#150035"/><path d="M83.64 84.82l-10.174-5.876v-.115l.523-25.324 6.43-.866 5.725-3.296.103.148c.511.726.798 1.586.824 2.473v30.903l-3.43 1.953zm-9.779-6.099l9.78 5.65 3.039-1.743V51.971a4.076 4.076 0 00-.65-2.106l-5.48 3.148-6.178.824-.51 24.883z" fill="#150035"/><path d="M82.417 86.995L37.032 60.781c-.939-.544-1.7-1.998-1.7-3.255v-32.23c0-1.236.761-1.833 1.7-1.29L82.417 50.23c.943.544 1.705 1.998 1.705 3.255v32.221c0 1.257-.762 1.834-1.705 1.29z" fill="red"/><path d="M83.08 87.395a1.56 1.56 0 01-.774-.23L36.946 60.95c-.997-.573-1.804-2.11-1.804-3.424v-32.23c0-.729.25-1.293.688-1.545a1.275 1.275 0 011.31.087L82.515 50.06c.976.573 1.8 2.11 1.8 3.424v32.221c0 .734-.247 1.294-.684 1.546a1.067 1.067 0 01-.552.144zm-.58-.569a.923.923 0 00.918.09 1.343 1.343 0 00.494-1.21V53.483c0-1.19-.72-2.575-1.606-3.086l-45.36-26.214a.931.931 0 00-.923-.09 1.343 1.343 0 00-.498 1.203v32.22c0 1.192.72 2.576 1.606 3.087L82.5 86.826z" fill="#150035"/><path d="M82.256 83.278L37.184 57.246a1.173 1.173 0 01-.486-.931v-30.29c0-.358.219-.522.486-.366l45.072 26.033a1.161 1.161 0 01.486.93v30.29c.008.358-.206.523-.486.366z" fill="red"/><path d="M82.458 83.534a.556.556 0 01-.289-.087L37.09 57.435a1.36 1.36 0 01-.584-1.1v-30.31a.61.61 0 01.263-.56.507.507 0 01.515.025l45.08 26.033a1.367 1.367 0 01.585 1.1v30.289a.614.614 0 01-.268.56.413.413 0 01-.222.062zM36.995 25.795a.033.033 0 00-.03 0c-.036 0-.073.095-.073.222v30.298a.993.993 0 00.391.762l45.08 26.033c.053.032.099.04.124.024.024-.016.07-.094.07-.222v-30.29a.989.989 0 00-.388-.761L37.09 25.828a.218.218 0 00-.094-.033z" fill="#150035"/><path d="M82.689 83.02l-45.08-26.038a1.173 1.173 0 01-.486-.93V25.765a.687.687 0 010-.136c-.243-.099-.412.062-.412.412v30.273a1.16 1.16 0 00.486.927l45.06 26.037c.23.132.411.029.473-.235l-.041-.025z" fill="#150035"/><path d="M82.466 83.53a.618.618 0 01-.292-.082L37.094 57.41a1.367 1.367 0 01-.585-1.096v-30.29a.622.622 0 01.243-.543.46.46 0 01.457-.029l.144.058-.029.156a.68.68 0 000 .1V56.05a.973.973 0 00.412.762l45.08 26.037.165.066v.16a.523.523 0 01-.284.413.412.412 0 01-.231.04zm-45.52-57.67a.41.41 0 00-.03.165v30.289a.98.98 0 00.388.758l45.08 26.037a.165.165 0 00.12.028L37.51 57.151a1.365 1.365 0 01-.565-1.1v-30.19zm24.409 47.451l-3.262-1.866a.63.63 0 01-.264-.503c0-.198.12-.284.264-.202l3.262 1.883a.634.634 0 01.264.507c0 .177-.116.268-.264.181z" fill="#150035"/><path d="M61.462 73.538a.378.378 0 01-.202-.058l-3.262-1.883a.824.824 0 01-.363-.671.412.412 0 01.19-.384.366.366 0 01.366 0l3.263 1.887a.825.825 0 01.362.672.412.412 0 01-.19.383.325.325 0 01-.164.054zm-3.435-2.629a.445.445 0 00.164.334l3.234 1.866a.455.455 0 00-.165-.338l-3.233-1.862z" fill="#150035"/><path d="M86.622 51.314l-1.975 1.136.196.34 1.975-1.135-.196-.34zM86.62 81.52l-1.975 1.136.196.34 1.975-1.135-.196-.34zm-18.73-1.39l-2.888 1.663.195.34 2.888-1.663-.195-.34zm-9.462-4.427l-.639.368.195.34.64-.369-.196-.339z" fill="red"/><path d="M38.786 28.403h-.078v27.932h.078V28.403zm3.008 1.739h-.078v27.932h.078V30.142zm3.006 1.735h-.078v27.932h.078V31.877zm3.008 1.738h-.078v27.933h.078V33.615zm3.011 1.739h-.079v27.932h.078V35.354zm3.006 1.735h-.078V65.02h.078V37.089zm3.007 1.739h-.078V66.76h.078V38.828zm3.012 1.739h-.078v27.932h.078V40.567zm3.006 1.734h-.078v27.932h.079V42.301zm3.008 1.739h-.079v27.932h.079V44.04zm3.006 1.735h-.078v27.932h.078V45.775zm3.011 1.738h-.078v27.932h.078V47.513zm3.008 1.739h-.078v27.932h.078V49.252zm3.007 1.735h-.079V78.92h.079V50.987zm3.01 1.739h-.078v27.932h.078V52.726z" fill="#fff"/><path d="M80.839 52.66L38.725 28.436l.04-.066L80.88 52.59l-.041.07zm0 3.473L38.725 31.91l.04-.066 42.115 24.22-.041.07zm0 3.474l-42.114-24.22.04-.07L80.88 59.541l-.041.066zm0 3.473L38.725 38.86l.04-.065 42.115 24.22-.041.066zm0 3.478L38.725 42.334l.04-.066 42.115 24.22-.041.07zm0 3.473l-42.114-24.22.04-.07 42.115 24.22-.041.07zm0 3.474l-42.114-24.22.04-.07L80.88 73.44l-.041.066zm0 3.473l-42.114-24.22.04-.065 42.115 24.22-.041.065zm.021 3.577l-42.115-24.22.037-.066 42.114 24.22-.037.066zm7.608-2.929l-1.68-.985a.115.115 0 00-.12 0l-1.33.824a.053.053 0 000 .074l1.28 1.376a.028.028 0 01.003.012c0 .005 0 .009-.003.013v.445a.412.412 0 00.177.338l.441-.523a.04.04 0 01.02 0l-.07.733c.008.011.019.02.032.024a.054.054 0 00.039-.003l1.334-.825a.264.264 0 00.058-.14v-1.05a.41.41 0 00-.181-.313z" fill="#fff"/><path d="M87.223 80.147h-.053a.202.202 0 01-.136-.103l-.029-.045.029-.297-.21.247-.12-.074a.576.576 0 01-.263-.482v-.412l-1.265-1.356a.227.227 0 01.074-.305l1.327-.824a.276.276 0 01.292 0l1.68.965a.602.602 0 01.264.486v1.05a.412.412 0 01-.099.248l-.04.032-1.335.825a.193.193 0 01-.116.045zm-.033-1.166l.12.07a.198.198 0 01.082.082l.03.046-.05.515 1.091-.684v-1.047a.268.268 0 00-.09-.194l-1.648-.951-1.174.717 1.203 1.293a.21.21 0 01.029.112v.445a.21.21 0 000 .07l.407-.474z" fill="#150035"/><path d="M86.243 79.047v.086l.931.787a.09.09 0 00.124.03l1.305-.825a.264.264 0 00.058-.14v-.989a.037.037 0 00-.02-.031.037.037 0 00-.038.002l-1.314.824-1.046.256z" fill="#150035"/><path d="M87.244 80.13a.16.16 0 01-.062 0 .263.263 0 01-.14-.086l-.984-.824.033-.297 1.1-.247 1.317-.824a.206.206 0 01.314.173v.989a.412.412 0 01-.1.247l-.04.033-1.302.824a.26.26 0 01-.136.012zm-.72-.976l.732.618 1.236-.762v-.746l-1.087.68v.033l-.882.177z" fill="#150035"/><path d="M87.087 79.99l-1.68-.968a.41.41 0 01-.177-.338v-1.059c0-.127.078-.19.177-.132l1.68.969a.412.412 0 01.177.333v1.055c0 .136-.066.198-.177.14z" fill="red"/><path d="M87.158 80.18a.284.284 0 01-.157-.046l-1.676-.964a.601.601 0 01-.264-.482v-1.063a.317.317 0 01.148-.288.272.272 0 01.285 0l1.676.964a.592.592 0 01.264.482v1.055a.317.317 0 01-.148.288.267.267 0 01-.128.054zm0-.338l-.083.148.087-.144-.004-.004zm-1.767-2.147v.993a.26.26 0 00.094.19l1.599.919v-.993a.259.259 0 00-.095-.19l-1.598-.919z" fill="#150035"/><path d="M87.436 76.92l-1.332.83.18.286 1.331-.83-.179-.287z" fill="#150035"/><path d="M88.484 78.61l-1.171.705.133.223 1.172-.706-.134-.222z" fill="red"/><path d="M28.402 32.301l-1.676-.96a.115.115 0 00-.12 0l-1.33.824a.054.054 0 000 .074l1.28 1.377a.045.045 0 010 .028v.441a.413.413 0 00.178.338l.44-.523-.074.737a.054.054 0 00.075 0l1.334-.824a.264.264 0 00.058-.14v-1.026a.41.41 0 00-.165-.346z" fill="#fff"/><path d="M27.158 34.847h-.05a.226.226 0 01-.14-.099l-.028-.049.029-.297-.206.248-.116-.079a.597.597 0 01-.26-.486v-.412l-1.276-1.347a.22.22 0 01.01-.243.217.217 0 01.064-.058l1.33-.824a.276.276 0 01.293 0l1.68.968a.584.584 0 01.26.482v1.05a.412.412 0 01-.095.248l-.04.037-1.335.824a.247.247 0 01-.12.037zm-.029-1.166l.12.07c.034.02.062.049.082.083l.029.045-.05.515 1.092-.68a.071.071 0 000-.02v-1.047a.259.259 0 00-.09-.19l-1.665-.955-1.161.733 1.203 1.302a.282.282 0 01.028.116v.44a.192.192 0 000 .07l.412-.482z" fill="#150035"/><path d="M26.182 33.747v.087l.93.787a.085.085 0 00.056.041.086.086 0 00.068-.012l1.302-.824a.265.265 0 00.058-.14v-.973a.037.037 0 00-.054-.033l-1.318.824-1.042.243z" fill="#150035"/><path d="M27.182 34.831h-.061a.255.255 0 01-.14-.09l-.985-.825.033-.3 1.1-.248 1.314-.824a.213.213 0 01.21 0 .207.207 0 01.103.182v.984a.412.412 0 01-.095.248l-.041.037-1.302.824a.272.272 0 01-.136.012zm-.72-.972l.729.614 1.235-.758v-.763l-1.091.676v.037l-.873.194z" fill="#150035"/><path d="M27.023 34.691l-1.677-.968a.412.412 0 01-.177-.334v-1.05c0-.133.078-.19.177-.137l1.677.969a.412.412 0 01.177.337v1.051c0 .128-.079.19-.177.132z" fill="red"/><path d="M27.096 34.88a.31.31 0 01-.156-.04l-1.68-.97a.588.588 0 01-.26-.481v-1.05a.325.325 0 01.144-.293.28.28 0 01.284 0l1.68.964a.599.599 0 01.26.486v1.05a.327.327 0 01-.144.29.247.247 0 01-.128.044zm0-.333l-.086.144.086-.144zm-1.754-2.151v.993a.258.258 0 00.07.19l1.602.922v-.993a.27.27 0 00-.09-.193l-1.582-.92z" fill="#150035"/><path d="M27.389 31.63l-1.334.832.179.287 1.334-.832-.18-.287z" fill="#150035"/><path d="M28.422 33.31l-1.172.705.134.223 1.171-.706-.133-.222z" fill="red"/><path d="M40.286 39.186l-9.68-5.624a.107.107 0 00-.12 0l-1.33.824a.058.058 0 000 .074l1.285 1.376a.057.057 0 010 .025v.445a.413.413 0 00.173.338l.445-.527v.02l7.946 5.39a.054.054 0 00.074 0l1.335-.825a.263.263 0 00.057-.14V39.52a.411.411 0 00-.185-.334z" fill="#fff"/><path d="M39.042 41.72h-.037a.268.268 0 01-.111-.062l-7.827-5.307-.412.511-.123-.07a.59.59 0 01-.26-.482v-.412l-1.276-1.351a.226.226 0 01.074-.305l1.33-.824a.284.284 0 01.293 0l9.68 5.624a.59.59 0 01.28.478v1.05a.412.412 0 01-.095.248l-.041.037-1.335.824a.247.247 0 01-.14.041zm-7.863-5.71l7.867 5.356 1.236-.77V39.52a.258.258 0 00-.09-.19l-9.648-5.607-1.178.733 1.199 1.29a.194.194 0 01.037.115v.445a.43.43 0 000 .07l.412-.474.123.07.042.037z" fill="#150035"/><path d="M31.549 36.834s6.512 3.827 6.508 3.885l.947.775a.09.09 0 00.124.033l1.302-.825a.264.264 0 00.057-.14v-.976a.03.03 0 00-.003-.019.033.033 0 00-.014-.013.033.033 0 00-.036.003l-1.318.824-6.53-3.782-1.037.235z" fill="#150035"/><path d="M39.066 41.708h-.062a.235.235 0 01-.14-.09l-.935-.788c-.32-.226-4.012-2.41-6.467-3.852l-.366-.215 1.503-.342.058.033c4.877 2.852 6.146 3.565 6.438 3.73l1.236-.771a.205.205 0 01.313.173v.985a.412.412 0 01-.095.247l-.041.037-1.302.824a.238.238 0 01-.14.029zm-.885-1.13l.894.788 1.235-.762v-.742l-1.12.68c-.09.053-.09.057-.997-.466l-5.647-3.296-.544.123c4.774 2.806 5.894 3.474 6.15 3.709l.029-.033z" fill="#150035"/><path d="M38.906 41.568l-9.68-5.624a.412.412 0 01-.173-.347v-1.042c0-.128.078-.19.173-.132l9.68 5.62a.411.411 0 01.177.338v1.05c0 .133-.078.19-.177.137z" fill="red"/><path d="M38.976 41.778a.31.31 0 01-.152-.045l-9.68-5.645a.584.584 0 01-.26-.49v-1.043a.326.326 0 01.144-.288.281.281 0 01.285 0l9.692 5.632a.59.59 0 01.26.482v1.05a.318.318 0 01-.145.29.256.256 0 01-.144.057zm0-.338l-.086.148.086-.148zm-9.754-6.827v.984a.268.268 0 00.09.194l9.602 5.575v-.985a.26.26 0 00-.09-.19l-9.602-5.578z" fill="#150035"/><path d="M31.259 33.842l-1.332.83.178.287 1.332-.83-.178-.287z" fill="#150035"/><path d="M40.305 40.186l-1.171.706.134.222 1.171-.705-.134-.223z" fill="red"/><path d="M70.063 55.033l-1.676-.964a.108.108 0 00-.12 0l-1.33.824a.054.054 0 000 .07l1.285 1.377a.045.045 0 010 .028v.445a.413.413 0 00.177.334l.428-.535-.07.737a.054.054 0 00.075 0l1.334-.824a.264.264 0 00.058-.14v-1.01a.41.41 0 00-.16-.342z" fill="#fff"/><path d="M68.819 57.572h-.05a.219.219 0 01-.14-.1l-.029-.049.03-.296-.207.247-.123-.07a.59.59 0 01-.26-.482v-.412l-1.269-1.364a.222.222 0 01.075-.301l1.33-.824a.267.267 0 01.293 0l1.68.968a.589.589 0 01.26.482v1.051a.412.412 0 01-.095.247l-.041.037-1.335.824a.248.248 0 01-.12.042zm-.033-1.162l.123.066a.24.24 0 01.079.078l.028.05-.049.514 1.096-.68v-1.063a.258.258 0 00-.09-.19l-1.649-.955-1.178.733 1.199 1.298a.205.205 0 01.033.111v.446a.188.188 0 000 .066l.408-.474z" fill="#150035"/><path d="M67.839 56.471v.087l.93.787a.086.086 0 00.124.029l1.302-.825a.264.264 0 00.058-.14v-.972a.038.038 0 00-.018-.031.038.038 0 00-.036-.002l-1.318.824-1.042.243z" fill="#150035"/><path d="M68.844 57.559h-.062a.255.255 0 01-.14-.09l-.985-.825.03-.296 1.103-.252 1.314-.824a.214.214 0 01.21 0 .214.214 0 01.103.181v.985a.412.412 0 01-.095.247l-.04.037-1.302.825a.288.288 0 01-.136.012zm-.721-.977l.729.614 1.236-.758v-.741l-1.084.675v.037l-.881.173z" fill="#150035"/><path d="M68.683 57.435l-1.668-.984a.412.412 0 01-.177-.338v-1.05c0-.133.078-.19.177-.137l1.677.968a.412.412 0 01.177.338v1.051c-.009.128-.087.19-.186.152z" fill="red"/><path d="M68.753 57.604a.305.305 0 01-.152-.041l-1.68-.952a.589.589 0 01-.26-.482v-1.067a.319.319 0 01.144-.288.272.272 0 01.284 0l1.68.968a.585.585 0 01.26.482v1.05a.316.316 0 01-.144.289.25.25 0 01-.132.041zm0-.334l-.086.145.086-.145zm-1.738-2.15v.993a.259.259 0 00.09.19l1.603.922v-.993a.252.252 0 00-.09-.19l-1.603-.922z" fill="#150035"/><path d="M69.036 54.351l-1.332.83.179.287 1.332-.83-.179-.287z" fill="#150035"/><path d="M70.083 56.038l-1.172.705.134.223 1.172-.706-.134-.222z" fill="red"/><path d="M89.645 73.917l-9.68-5.624a.115.115 0 00-.12 0l-1.33.824a.058.058 0 000 .074l1.286 1.376a.057.057 0 010 .025v.44a.413.413 0 00.173.339l.444-.528 7.93 5.39a.054.054 0 00.074 0l1.335-.824a.264.264 0 00.057-.14v-1.051a.412.412 0 00-.169-.3z" fill="#fff"/><path d="M88.401 76.455h-.05a.266.266 0 01-.11-.062l-7.806-5.307-.412.511-.124-.07a.59.59 0 01-.26-.482v-.412l-1.268-1.368a.222.222 0 01.074-.3l1.33-.825a.276.276 0 01.293 0l9.68 5.62a.59.59 0 01.26.482v1.051a.412.412 0 01-.095.247l-.041.037-1.335.825a.247.247 0 01-.136.053zm-7.86-5.71L88.41 76.1l1.236-.77v-1.047a.259.259 0 00-.09-.19l-9.66-5.608-1.178.734 1.203 1.29a.24.24 0 01.033.115v.408a.41.41 0 000 .07l.412-.474.123.07.054.045z" fill="#150035"/><path d="M80.91 71.56s6.511 3.828 6.507 3.886l.931.783a.091.091 0 00.124.032l1.302-.823a.264.264 0 00.057-.14v-.969c0-.006 0-.013-.004-.019a.033.033 0 00-.05-.01l-1.317.824-6.53-3.782-1.02.218z" fill="#150035"/><path d="M88.435 76.443h-.062a.235.235 0 01-.14-.09l-.947-.788c-.318-.226-4.008-2.41-6.463-3.852l-.367-.214 1.504-.343.057.033c4.877 2.84 6.146 3.573 6.438 3.738l1.236-.77a.202.202 0 01.21 0 .195.195 0 01.103.176v.985a.412.412 0 01-.095.247l-.04.037-1.302.825a.24.24 0 01-.132.016zm-.902-1.129l.91.77 1.236-.762v-.742l-1.112.697c-.091.053-.091.058-.997-.466l-5.647-3.296-.544.124c4.77 2.806 5.894 3.473 6.15 3.708l.004-.033z" fill="#150035"/><path d="M88.265 76.303l-9.68-5.625a.413.413 0 01-.173-.337V69.29c0-.128.078-.19.173-.132l9.68 5.62a.412.412 0 01.177.338v1.05c-.008.133-.078.19-.177.137z" fill="red"/><path d="M88.335 76.492a.308.308 0 01-.152-.045l-9.68-5.624a.585.585 0 01-.26-.482V69.29a.326.326 0 01.145-.289.28.28 0 01.284 0l9.68 5.625a.589.589 0 01.26.482v1.05a.316.316 0 01-.145.289.254.254 0 01-.132.045zm0-.338l-.086.149.087-.149zm-9.77-6.802v.989a.268.268 0 00.09.193l9.602 5.575v-.993a.26.26 0 00-.09-.19l-9.602-5.574z" fill="#150035"/><path d="M80.62 68.583l-1.333.83.179.287 1.332-.83-.179-.287z" fill="#150035"/><path d="M89.668 74.923l-1.172.705.134.223 1.172-.706-.134-.222z" fill="red"/><path d="M79.656 62.669l-5.354-3.083a.207.207 0 00-.194 0l-1.372.825 1.281 2.167v-.684a.713.713 0 00.297.569l2.747 1.586 1.384 2.32 1.389-.825a.275.275 0 00.09-.234v-2.06a.714.714 0 00-.268-.581z" fill="#fff"/><path d="M78.5 66.558l-.145-.037-.041-.066-1.363-2.279-2.715-1.57-.041-.028h-.177l-.153.074-1.322-2.213.033-.148.066-.041 1.396-.824a.35.35 0 01.359 0l5.354 3.082a.874.874 0 01.38.712v2.06a.441.441 0 01-.161.371l-1.47.907zm-4.643-4.664h.338a.559.559 0 00.21.412l2.788 1.61.03.046 1.301 2.18 1.236-.746v-2.147a.55.55 0 00-.21-.412l-5.355-3.082a.044.044 0 00-.03 0l-1.235.742.927 1.47v-.073z" fill="#150035"/><path d="M76.818 63.286l.037.627.215.123 1.375 2.308h.038l1.375-.824a.276.276 0 00.09-.235v-2.06l-1.358.824-1.772-.763z" fill="#150035"/><path d="M78.511 66.55l-.168-.046-1.393-2.328-.26-.152-.044-.77.107-.182 1.8.8 1.38-.825.18.095v2.171a.442.442 0 01-.16.371l-1.442.866zm-1.495-2.724l.177.099.03.045 1.3 2.18 1.237-.746v-1.87l-1.092.65-.058.095-1.647-.725.053.272z" fill="#150035"/><path d="M78.273 66.364l-5.355-3.078a.729.729 0 01-.297-.568v-2.085c0-.218.136-.317.297-.223l5.355 3.083a.712.712 0 01.296.568v2.06c0 .24-.132.338-.296.243z" fill="red"/><path d="M78.392 66.57a.443.443 0 01-.206-.057L72.83 63.43a.874.874 0 01-.383-.713v-2.085a.412.412 0 01.19-.383.358.358 0 01.362 0l5.355 3.082a.878.878 0 01.383.717v2.06a.412.412 0 01-.186.387.321.321 0 01-.16.074zm-.037-.35a.07.07 0 00.037 0v-2.15a.548.548 0 00-.215-.413l-5.354-3.082h-.033a.49.49 0 000 .09v2.086a.556.556 0 00.214.412l5.35 3.057z" fill="#150035"/><path d="M74.973 59.964l-1.332.83.178.287 1.332-.83-.178-.287z" fill="#150035"/><path d="M79.797 64.453l-1.172.705.134.223 1.171-.706-.133-.222z" fill="red"/><path d="M79.612 55.161l-5.355-3.078a.186.186 0 00-.194 0l-1.372.824 1.29 2.164v2.958a.708.708 0 00.3.564l2.748 1.59 1.384 2.316 1.388-.824a.267.267 0 00.09-.23V55.73a.713.713 0 00-.28-.569z" fill="#fff"/><path d="M78.372 62.738l-.103-.144L76.9 60.32l-2.715-1.566a.873.873 0 01-.383-.713V55.12l-1.355-2.27.153-.104 1.396-.824a.362.362 0 01.358 0l5.355 3.082a.874.874 0 01.38.713v5.736a.44.44 0 01-.161.37l-1.557.915zm-5.458-9.781l1.235 2.06v3.004a.557.557 0 00.215.412l2.788 1.61.03.046 1.3 2.18 1.237-.746a.78.78 0 000-.087V55.73a.555.555 0 00-.21-.412l-5.355-3.082h-.03l-1.21.72z" fill="#150035"/><path d="M76.773 59.421l.038.63.214.124L78.4 62.48h.038l1.375-.824a.269.269 0 00.091-.231v-5.666s0-.02-.02 0l-1.36.825-1.75 2.838z" fill="#150035"/><path d="M78.466 62.685l-.17-.046-1.396-2.32-.259-.148-.045-.77.028-.054 1.772-2.884.037-.025 1.446-.86.185.098v5.777a.445.445 0 01-.16.37l-1.438.862zm-1.495-2.728l.177.103.029.045 1.301 2.18 1.236-.746a.782.782 0 000-.086v-5.427l-1.092.651-1.705 2.79.053.49z" fill="#150035"/><path d="M78.228 62.5l-5.355-3.083a.712.712 0 01-.297-.568v-5.72c0-.218.132-.32.297-.226l5.355 3.082a.713.713 0 01.296.569v5.719c0 .222-.132.321-.296.226z" fill="red"/><path d="M78.347 62.706a.433.433 0 01-.206-.058l-5.334-3.082a.878.878 0 01-.383-.717v-5.72a.412.412 0 01.19-.386.35.35 0 01.362 0l5.334 3.081a.869.869 0 01.383.713v5.736a.412.412 0 01-.19.387.3.3 0 01-.156.046zm-.037-.35h.033a.713.713 0 000-.095v-5.707a.54.54 0 00-.214-.412l-5.335-3.082a.077.077 0 00-.032 0 .49.49 0 000 .09v5.699a.549.549 0 00.214.412l5.334 3.094z" fill="#150035"/><path d="M75.024 52.428l-1.334.832.18.287 1.333-.832-.179-.288z" fill="#150035"/><path d="M79.752 60.584l-1.172.706.134.223 1.171-.706-.133-.223z" fill="red"/><path d="M77 60.27l-2.884-1.648a.854.854 0 01-.354-.68v-2.439c0-.26.16-.379.354-.268l2.883 1.648a.851.851 0 01.355.676v2.427c0 .276-.161.396-.355.284z" fill="#fff"/><path d="M77.14 60.48a.432.432 0 01-.227-.065l-2.883-1.648a1.03 1.03 0 01-.44-.825v-2.439a.479.479 0 01.21-.412.412.412 0 01.411 0l2.883 1.648a1.026 1.026 0 01.441.824v2.427a.487.487 0 01-.395.49zm-3.164-5.105s-.04.05-.04.14v2.423a.696.696 0 00.271.536l2.883 1.648a.127.127 0 00.066 0c.03-.04.043-.09.037-.14v-2.406a.69.69 0 00-.272-.532l-2.883-1.648a.12.12 0 00-.062-.02z" fill="#150035"/><path d="M75.636 58.222a.413.413 0 01-.342-.235l-1.59-2.657.288-.173 1.59 2.657a.21.21 0 00.05.062l1.557-.824.156.3-1.59.825a.247.247 0 01-.119.045z" fill="#150035"/><path d="M79.612 47.608l-5.355-3.082a.198.198 0 00-.194 0l-1.372.824 1.29 2.164v2.958a.718.718 0 00.3.569l2.748 1.586 1.384 2.336 1.388-.824a.263.263 0 00.09-.23v-5.732a.705.705 0 00-.28-.569z" fill="#fff"/><path d="M78.372 55.182l-.103-.145-1.368-2.282-2.714-1.57a.87.87 0 01-.383-.713v-2.925l-1.302-2.184.033-.149.07-.04 1.392-.825a.35.35 0 01.359 0l5.354 3.082a.88.88 0 01.38.717v5.748a.442.442 0 01-.161.37l-1.557.916zM72.914 45.4l1.236 2.06v3.012a.556.556 0 00.214.412l2.784 1.607.03.045 1.3 2.18 1.237-.746a.832.832 0 000-.086v-5.707a.558.558 0 00-.21-.412l-5.355-3.082h-.03l-1.206.717z" fill="#150035"/><path d="M76.773 51.865l.038.63.214.124 1.375 2.307h.038l1.375-.824a.264.264 0 00.091-.23v-5.67s0-.02-.02 0l-1.36.824-1.75 2.839z" fill="#150035"/><path d="M78.466 55.128l-.173-.045-1.393-2.328-.259-.153-.045-.766.028-.058 1.772-2.884.037-.025 1.446-.86.185.098v5.789a.442.442 0 01-.16.37l-1.438.862zM76.97 52.4l.177.103.029.046 1.301 2.18 1.236-.746a.78.78 0 000-.087v-5.422l-1.092.647-1.68 2.793.029.486z" fill="#150035"/><path d="M78.228 54.963l-5.355-3.082a.704.704 0 01-.297-.564v-5.744c0-.218.132-.321.297-.227l5.355 3.082a.713.713 0 01.296.569v5.723c0 .219-.132.318-.296.243z" fill="red"/><path d="M78.347 55.149a.434.434 0 01-.206-.058l-5.334-3.082a.873.873 0 01-.383-.713v-5.723a.412.412 0 01.19-.388.358.358 0 01.362 0l5.334 3.082a.868.868 0 01.383.713v5.74a.412.412 0 01-.19.387.297.297 0 01-.156.042zm-.037-.35h.033a.49.49 0 000-.091v-5.711a.543.543 0 00-.214-.412l-5.322-3.099a.076.076 0 00-.033 0 .49.49 0 000 .09v5.72a.545.545 0 00.214.412l5.322 3.09z" fill="#150035"/><path d="M75.016 44.863l-1.334.832.179.287 1.334-.832-.18-.287z" fill="#150035"/><path d="M79.75 53.028l-1.17.705.133.223 1.172-.706-.134-.222z" fill="red"/><path d="M76.901 49.47c-.572-.943-1.207-.46-1.326-.35h-.033c-.12-.247-.754-1.462-1.326-1.182-.725.354.152 1.92.152 1.92l1.17 2.303s0 .025.029 0l1.182-.943s.881-.552.152-1.747z" fill="#fff"/><path d="M75.608 52.343h-.087a.201.201 0 01-.136-.112l-1.17-2.299c-.057-.107-.61-1.116-.412-1.747a.642.642 0 01.342-.412c.626-.305 1.236.635 1.479 1.113a.942.942 0 01.618-.14 1.21 1.21 0 01.824.642c.823 1.323-.194 1.974-.206 1.978l-1.252.977zm-1.236-4.298a.222.222 0 00-.103.025.326.326 0 00-.17.198c-.127.412.24 1.236.413 1.487l1.091 2.155 1.038-.824c.046-.029.738-.494.112-1.524a.898.898 0 00-.569-.487.663.663 0 00-.502.173l-.062.058h-.095a.18.18 0 01-.136-.111c-.28-.593-.692-1.15-.997-1.15h-.02z" fill="#150035"/><path d="M75.165 49.556l-.3.155.658 1.278.3-.155-.658-1.278z" fill="#150035"/><path d="M40.072 44.25l-6.62-3.815a.235.235 0 00-.235-.021h-.029l-1.7 1.01 1.598 2.682v3.667a.89.89 0 00.366.705l3.41 1.97 1.718 2.883h.021l1.722-1.026a.334.334 0 00.115-.284v-7.058a.886.886 0 00-.366-.713z" fill="#fff"/><path d="M38.547 53.6l-.107-.149-1.697-2.843-3.373-1.949a1.048 1.048 0 01-.453-.849v-3.617l-1.615-2.707.033-.149.07-.041 1.726-1.026a.412.412 0 01.412 0l6.615 3.82a1.056 1.056 0 01.457.853v7.136a.498.498 0 01-.185.412L38.547 53.6zm-6.842-12.094l1.533 2.592v3.708a.712.712 0 00.3.565l3.448 1.994.029.045 1.648 2.74 1.577-.951a.214.214 0 00.033-.14v-7.096a.725.725 0 00-.288-.56l-6.615-3.82c-.025 0-.058-.029-.07-.02h-.025l-1.57.943z" fill="#150035"/><path d="M36.554 49.537l.045.779.268.156 1.726 2.876h.045l1.705-1.018a.333.333 0 00.116-.284v-7.054h-.03l-1.688 1.001-2.187 3.544z" fill="#150035"/><path d="M38.647 53.538l-.182-.046-1.721-2.884-.31-.177-.057-.927.033-.054 2.183-3.589.041-.024 1.772-1.055.107.05a.185.185 0 01.094.16v7.087a.5.5 0 01-.185.412l-1.775 1.047zM36.76 50.24l.227.132.028.045 1.648 2.74 1.578-.96a.214.214 0 00.033-.14V45.26l-1.43.824-2.121 3.523.037.634z" fill="#150035"/><path d="M38.354 53.356l-6.62-3.824a.88.88 0 01-.366-.704v-7.096c0-.271.165-.411.367-.276l6.62 3.82a.892.892 0 01.366.705v7.095c0 .272-.165.395-.367.28z" fill="red"/><path d="M38.502 53.57a.47.47 0 01-.235-.07l-6.615-3.82a1.06 1.06 0 01-.453-.852v-7.095a.498.498 0 01.21-.445.413.413 0 01.412 0l6.615 3.823a1.047 1.047 0 01.453.85v7.115a.487.487 0 01-.21.445.338.338 0 01-.177.05zm-.066-.362a.111.111 0 00.074.02s.041-.057.041-.152v-7.095a.713.713 0 00-.284-.556L31.652 41.6a.106.106 0 00-.074 0 .21.21 0 00-.042.152v7.075a.722.722 0 00.285.56l6.615 3.82z" fill="#150035"/><path d="M34.278 40.933l-1.65 1.028.178.287 1.65-1.028-.178-.287z" fill="#150035"/><path d="M40.437 51.04l-1.46.882.136.223 1.459-.883-.135-.223z" fill="red"/><path d="M33.197 46.203s-.44.025-.366 1.055c.004.54.16 1.068.449 1.524l.856.297s0 .029.05.074c.54.775 1.285 1.191 1.825 1.043l.33-.095-.063-2.225a3.236 3.236 0 01-.704-.824c-.227-.412.07-.47.054-.968-.017-.499-.388-1.385-.779-1.389-.391-.004-.214.412-.132.824a.853.853 0 01-.412.923.824.824 0 00-.379.322 1.549 1.549 0 00-.729-.56z" fill="#fff"/><path d="M35.78 50.382a2.335 2.335 0 01-1.718-1.146v-.025l-.853-.296-.029-.037a3.058 3.058 0 01-.486-1.607 1.447 1.447 0 01.223-1.068.445.445 0 01.305-.169h.057a2.2 2.2 0 01.647.454c.088-.083.188-.15.297-.202a.68.68 0 00.333-.742l-.037-.177c-.066-.28-.127-.544 0-.717a.41.41 0 01.33-.136c.54 0 .923 1.022.943 1.55a1.2 1.2 0 01-.082.53.354.354 0 00.02.38c.176.288.399.544.66.758l.061.05.082 2.435-.457.127a1.01 1.01 0 01-.296.038zm-2.394-1.752l.861.297.079.12c.49.704 1.165 1.104 1.647.972l.202-.054-.053-2.006a3.213 3.213 0 01-.684-.824.671.671 0 01-.041-.655.886.886 0 00.074-.388c-.02-.498-.38-1.236-.61-1.236h-.066c-.006.14.012.279.054.412 0 .062.033.128.045.19a1.026 1.026 0 01-.515 1.108.689.689 0 00-.305.247l-.148.276-.148-.272a1.453 1.453 0 00-.581-.465c-.087.053-.23.268-.19.865.007.495.137.981.38 1.413z" fill="#150035"/><path d="M33.987 49.15a2.475 2.475 0 01-.21-.825l.338-.025c.02.23.077.456.169.668l-.297.181zm.03-1.92h-.338a1.207 1.207 0 01.095-.549l.276.194a2.55 2.55 0 00-.033.354z" fill="#150035"/><path d="M36.756 48.943l-1.084-.626a.738.738 0 01-.309-.585c0-.227.14-.334.31-.235l1.083.626a.733.733 0 01.304.586c0 .226-.115.333-.304.234z" fill="#fff"/><path d="M36.875 49.15a.411.411 0 01-.206-.062l-1.083-.623a.903.903 0 01-.391-.733.411.411 0 01.193-.412.359.359 0 01.367 0l1.083.639a.902.902 0 01.412.733.437.437 0 01-.19.412.33.33 0 01-.185.045zm-1.326-1.521a.274.274 0 000 .103.588.588 0 00.223.44l1.066.61h.037a.274.274 0 000-.102.578.578 0 00-.222-.441l-1.067-.593a.057.057 0 00-.037-.017z" fill="#150035"/><path d="M36.682 49.578l-.94-.544a.596.596 0 01-.25-.482c0-.186.11-.272.25-.194l.94.544a.597.597 0 01.263.482c0 .19-.123.272-.263.194z" fill="#fff"/><path d="M36.785 49.776a.366.366 0 01-.19-.054l-.935-.527a.771.771 0 01-.337-.63.378.378 0 01.173-.351.325.325 0 01.333 0l.935.54a.774.774 0 01.342.63.413.413 0 01-.173.355.317.317 0 01-.148.037zm-1.12-1.27a.448.448 0 00.169.383l.934.54v-.045a.438.438 0 00-.169-.338l-.934-.54z" fill="#150035"/><path d="M36.574 50.192l-.824-.482a.596.596 0 01-.251-.482c0-.186.111-.272.251-.194l.824.482a.596.596 0 01.251.503c0 .165-.11.251-.25.173z" fill="#fff"/><path d="M36.673 50.39a.353.353 0 01-.185-.054l-.824-.478a.771.771 0 01-.337-.63.379.379 0 01.172-.35.325.325 0 01.334 0l.824.477a.771.771 0 01.338.664.378.378 0 01-.173.35.268.268 0 01-.149.02zm-1.009-1.195a.449.449 0 00.169.383l.824.478a.436.436 0 00-.169-.383l-.824-.478z" fill="#150035"/><path d="M36.43 50.781l-.585-.35a.6.6 0 01-.255-.482c0-.186.115-.272.255-.194l.585.338a.613.613 0 01.251.486c0 .198-.11.285-.25.202z" fill="#fff"/><path d="M36.533 50.983a.354.354 0 01-.185-.054l-.585-.338a.772.772 0 01-.338-.63.38.38 0 01.173-.35.326.326 0 01.334 0l.585.338a.77.77 0 01.337.63.38.38 0 01-.173.35.267.267 0 01-.148.054zm-.766-1.067a.448.448 0 00.169.383l.58.334a.45.45 0 00-.169-.38l-.58-.337z" fill="#150035"/><path d="M44.475 46.916l-1.29-.787a.181.181 0 00-.202 0l-1.305.775a.07.07 0 00-.025.09l1.236 2.164a.08.08 0 010 .032v2.312a.713.713 0 00.296.577l-1.161-.626a.07.07 0 01.024.024l1.236 2.151a.067.067 0 00.066.033.065.065 0 00.025-.008l1.314-.779a.264.264 0 00.09-.23v-5.16a.717.717 0 00-.304-.568z" fill="#fff"/><path d="M43.334 53.822h-.062a.243.243 0 01-.144-.111l-1.236-2.151a.083.083 0 00.037.037l.165-.297.63.342a.745.745 0 010-.132v-2.315L41.49 47.06a.235.235 0 01.082-.321l1.306-.775a.35.35 0 01.383 0l1.29.787a.87.87 0 01.378.713v5.15a.412.412 0 01-.165.371l-1.322.783a.246.246 0 01-.107.054zm-.857-1.94l.894 1.565 1.236-.725v-5.237a.557.557 0 00-.21-.412l-1.29-.787h-.028l-1.236.729 1.182 2.06a.224.224 0 01.033.115v2.312a.547.547 0 00.21.412l-.16.297-.63-.33z" fill="#150035"/><path d="M41.97 50.991s.479-2.802.948-.412l-.898.87.029.032 1.236 2.13a.087.087 0 00.12.03l1.297-.767a.264.264 0 00.09-.23v-5.122h-.029l-1.355.824-1.437 2.645z" fill="#150035"/><path d="M43.342 53.813h-.066a.256.256 0 01-.153-.127l-1.235-2.151-.247.47.177-1.043c.169-1.001.412-1.516.7-1.52h.087l.67-1.273h.046l1.434-.853.103.05a.194.194 0 01.094.164v5.105a.411.411 0 01-.164.37l-1.306.771a.242.242 0 01-.14.037zm-1.104-2.352l1.133 1.986 1.235-.725V47.78l-1.07.651-.676 1.278c.116.263.198.54.243.824l.02.09-.885.837zm.391-1.36l-.548 1.043.651-.627c-.025-.14-.06-.28-.103-.416z" fill="#150035"/><path d="M43.09 53.682l-1.289-.779a.713.713 0 01-.296-.569v-5.158c0-.219.132-.318.296-.223l1.29.787a.713.713 0 01.296.569v5.146c0 .223-.132.322-.296.227z" fill="red"/><path d="M43.21 53.888a.412.412 0 01-.206-.062l-1.29-.787a.873.873 0 01-.374-.713v-5.15a.412.412 0 01.185-.388.37.37 0 01.363 0l1.293.791a.874.874 0 01.38.713v5.163a.412.412 0 01-.19.387.3.3 0 01-.16.046zm-.033-.35h.029a.714.714 0 000-.095v-5.134a.545.545 0 00-.214-.412l-1.294-.791h-.029v5.22a.559.559 0 00.21.412l1.298.8z" fill="#150035"/><path d="M44.063 46.517l-1.334.832.18.287 1.334-.832-.18-.287z" fill="#150035"/><path d="M44.615 51.144l-1.172.706.134.222 1.172-.705-.134-.223z" fill="red"/><path d="M63.308 65.837L59.6 63.702a.132.132 0 00-.14 0l-1.557.969a.062.062 0 000 .082l1.5 1.611c.003.01.003.02 0 .03v.518a.49.49 0 00.206.412l.515-.614a.048.048 0 010 .021l1.647 1.862a.062.062 0 00.087 0l1.557-.972a.306.306 0 00.07-.16v-1.237a.504.504 0 00-.177-.387z" fill="#fff"/><path d="M61.833 68.77h-.054a.235.235 0 01-.136-.09l-1.532-1.73-.482.576-.124-.074a.655.655 0 01-.288-.54v-.474l-1.487-1.586a.231.231 0 01.078-.313l1.553-.968a.297.297 0 01.313 0l3.707 2.134a.66.66 0 01.293.54v1.236a.47.47 0 01-.107.268l-.041.037-1.562.972a.21.21 0 01-.131.013zm-1.574-2.163l1.594 1.797 1.454-.907V66.22a.323.323 0 00-.123-.247l-3.683-2.13-1.421.885 1.421 1.53a.215.215 0 01.037.118v.536c0 .047.012.094.033.136l.478-.573.123.07a.214.214 0 01.087.062z" fill="#150035"/><path d="M60.692 67.518v.103l1.088.915a.108.108 0 00.144.037l1.524-.952a.313.313 0 00.066-.16v-1.154a.042.042 0 00-.04-.043.042.042 0 00-.022.005l-1.54.96-1.22.289z" fill="#150035"/><path d="M61.858 68.758h-.066a.28.28 0 01-.148-.099l-1.141-.96.033-.313 1.273-.288 1.54-.96a.205.205 0 01.322.177v1.154a.474.474 0 01-.103.267l-.042.037-1.524.952a.304.304 0 01-.144.033zm-.902-1.129l.914.77 1.438-.902a.142.142 0 000-.04v-.924l-1.314.824-.02.037-1.018.235z" fill="#150035"/><path d="M61.66 68.618l-3.707-2.13a.503.503 0 01-.206-.412V64.84c0-.153.095-.223.206-.157l3.707 2.135a.492.492 0 01.206.412v1.236c.013.148-.078.218-.206.152z" fill="red"/><path d="M61.755 68.812a.313.313 0 01-.165-.046l-3.707-2.134a.655.655 0 01-.293-.54v-1.236a.35.35 0 01.157-.313.293.293 0 01.305 0l3.707 2.134a.655.655 0 01.288.54v1.236a.342.342 0 01-.156.313.3.3 0 01-.136.046zm-3.802-3.931v1.207a.325.325 0 00.123.248l3.646 2.105v-1.207a.33.33 0 00-.12-.247l-3.649-2.106z" fill="#150035"/><path d="M60.365 64.052l-1.555.97.178.286 1.556-.97-.179-.286z" fill="#150035"/><path d="M63.32 67.02l-1.369.825.134.222 1.37-.824-.135-.223z" fill="red"/><path d="M69.98 40.818l-1.289-.791a.181.181 0 00-.202 0l-1.301.779a.06.06 0 00-.031.038.062.062 0 00.006.048l1.236 2.163a.045.045 0 010 .033v2.316a.713.713 0 00.296.568l-1.161-.626a.042.042 0 010 .025l1.235 2.15a.065.065 0 00.066.034.065.065 0 00.025-.008l1.31-.78a.263.263 0 00.095-.23v-5.171a.706.706 0 00-.284-.548z" fill="#fff"/><path d="M68.84 47.72h-.062a.229.229 0 01-.144-.112l-1.236-2.15a.083.083 0 00.03.028l.164-.292.626.337V43.11l-1.236-2.135a.24.24 0 01.087-.321l1.301-.775a.35.35 0 01.383 0l1.294.787a.882.882 0 01.379.713v5.15a.413.413 0 01-.165.372l-1.322.782a.246.246 0 01-.099.037zm-.857-1.941l.894 1.565 1.236-.725a.48.48 0 000-.086v-5.167a.545.545 0 00-.214-.412l-1.29-.791h-.024l-1.236.729 1.182 2.06c.02.035.032.075.033.116v2.315a.55.55 0 00.21.412l-.165.297-.626-.313z" fill="#150035"/><path d="M67.477 44.889s.477-2.802.947-.412l-.902.865.033.033 1.236 2.13a.087.087 0 00.087.04.086.086 0 00.032-.01l1.293-.767a.264.264 0 00.095-.231v-5.118h-.029l-1.376.77-1.416 2.7z" fill="#150035"/><path d="M68.844 47.711h-.066a.245.245 0 01-.153-.12l-1.235-2.15-.247.47.177-1.043c.169-1 .412-1.516.7-1.516a.27.27 0 01.082 0l.668-1.26.037-.026 1.445-.86.108.049a.194.194 0 01.094.165v5.113a.412.412 0 01-.164.37l-1.306.776a.296.296 0 01-.14.032zm-1.1-2.352l1.133 1.986 1.236-.725a.48.48 0 000-.087v-4.854l-1.092.651-.671 1.278c.116.263.198.54.243.824v.09l-.849.837zm.412-1.356l-.548 1.038.643-.626a3.92 3.92 0 00-.116-.412h.02z" fill="#150035"/><path d="M68.597 47.58l-1.294-.788a.725.725 0 01-.296-.568v-5.15c0-.219.136-.318.296-.223l1.294.787a.726.726 0 01.296.569v5.146c0 .222-.136.321-.296.227z" fill="red"/><path d="M68.712 47.785a.412.412 0 01-.201-.057l-1.29-.787a.873.873 0 01-.379-.713v-5.155a.413.413 0 01.19-.383.359.359 0 01.362 0l1.294.791a.873.873 0 01.387.709v5.163a.412.412 0 01-.19.387.317.317 0 01-.173.045zm-.032-.35h.032a.714.714 0 000-.095v-5.15a.557.557 0 00-.214-.412l-1.293-.791h-.029a.49.49 0 000 .09v5.15a.557.557 0 00.214.413l1.29.795z" fill="#150035"/><path d="M69.59 40.375l-1.333.832.179.287 1.334-.832-.18-.287z" fill="#150035"/><path d="M70.12 45.04l-1.172.705.134.223 1.172-.706-.134-.222z" fill="red"/><path d="M70.046 35.354l-1.289-.787a.19.19 0 00-.202 0l-1.306.775a.067.067 0 00-.033.066.065.065 0 00.009.024l1.236 2.16a.13.13 0 010 .032v.24a.713.713 0 00.296.568l-1.162-.63.025.024 1.236 2.155a.07.07 0 00.09.025l1.315-.779a.265.265 0 00.09-.23v-3.074a.715.715 0 00-.305-.569z" fill="#fff"/><path d="M68.906 40.18h-.062a.243.243 0 01-.144-.112l-1.236-2.15c.01.014.022.027.037.036l.165-.296.63.342a.745.745 0 010-.132v-.21l-1.235-2.139a.232.232 0 01.082-.317l1.306-.775a.359.359 0 01.383 0l1.29.791a.869.869 0 01.378.713v3.07a.413.413 0 01-.165.37l-1.31.759a.247.247 0 01-.119.05zm-.857-1.941l.894 1.561 1.236-.72a.306.306 0 000-.087v-3.07a.546.546 0 00-.21-.412l-1.306-.8h-.029l-1.236.734 1.183 2.06a.26.26 0 01.033.116v.239a.543.543 0 00.214.412l-.165.296-.614-.33z" fill="#150035"/><path d="M67.542 37.349s.478-2.802.947-.412l-.898.869.03.033 1.235 2.126a.087.087 0 00.087.044.086.086 0 00.032-.011l1.298-.766a.265.265 0 00.09-.231v-3.04s0-.03-.028-.021l-1.355.824-1.438.585z" fill="#150035"/><path d="M68.914 40.171h-.066a.255.255 0 01-.156-.12l-1.211-2.117-.12-.12.111-.132.21-.202-.358.153.054-.305c.169-1.005.412-1.516.7-1.52.23 0 .412.267.535.91l.276-.12 1.422-.823.103.05a.189.189 0 01.094.164v3.033a.411.411 0 01-.164.37l-1.302.738a.243.243 0 01-.128.041zm-1.104-2.353l1.133 1.982 1.236-.72a.313.313 0 000-.087V36.22l-1.129.671-.49.21-.75.717zm.268-1.648c-.15.284-.255.59-.309.907l.531-.227a2.06 2.06 0 00-.222-.688v.008z" fill="#150035"/><path d="M68.663 40.04l-1.29-.792a.704.704 0 01-.296-.569v-3.082c0-.218.132-.321.297-.226l1.289.807a.712.712 0 01.297.569v3.066c0 .218-.132.317-.297.226z" fill="red"/><path d="M68.782 40.241a.413.413 0 01-.206-.058l-1.289-.79a.865.865 0 01-.375-.71v-3.086a.412.412 0 01.186-.387.35.35 0 01.362 0l1.294.791a.869.869 0 01.378.713v3.066a.432.432 0 01-.185.387.321.321 0 01-.165.074zm-.033-.346h.03a.474.474 0 000-.09v-3.058a.546.546 0 00-.215-.412l-1.293-.791a.05.05 0 00-.03 0v3.16a.557.557 0 00.21.412l1.298.779z" fill="#150035"/><path d="M69.578 34.953l-1.332.83.179.287 1.332-.83-.179-.287z" fill="#150035"/><path d="M70.185 37.5l-1.171.705.133.222 1.172-.705-.134-.223z" fill="red"/><path d="M53.487 28.012l-5.334-3.082a.184.184 0 00-.19 0h-.024l-1.372.824 1.29 2.163v2.946a.705.705 0 00.296.569l2.748 1.59 1.384 2.316 1.388-.824a.268.268 0 00.09-.23v-5.691a.713.713 0 00-.276-.581z" fill="#fff"/><path d="M52.248 35.597l-.103-.144-1.364-2.287-2.714-1.574a.88.88 0 01-.38-.717v-2.884l-1.305-2.184.037-.169.066-.04 1.4-.825a.342.342 0 01.355 0l5.354 3.082a.868.868 0 01.363.738v5.71a.412.412 0 01-.165.367l-1.544.927zm-5.458-9.79l1.235 2.06v3a.555.555 0 00.21.412l2.79 1.607.024.041 1.306 2.188 1.235-.745a.273.273 0 000-.087v-5.69a.555.555 0 00-.169-.412l-5.354-3.103a.046.046 0 00-.03 0l-1.247.73z" fill="#150035"/><path d="M50.65 32.272l.037.627.214.127 1.375 2.304h.037l1.376-.825a.268.268 0 00.091-.23v-5.682l-1.36.824-1.77 2.855z" fill="#150035"/><path d="M52.343 35.531l-.17-.04-1.392-2.333-.242-.148-.046-.77.029-.058 1.771-2.885 1.487-.881.186.098v5.79a.413.413 0 01-.165.366l-1.458.861zm-1.492-2.723l.174.099.024.041 1.306 2.188 1.236-.746a.279.279 0 000-.086v-5.427l-1.092.651-1.676 2.773.029.507z" fill="#150035"/><path d="M52.104 35.35l-5.335-3.082a.717.717 0 01-.3-.568v-5.72c0-.222.136-.32.3-.226l5.335 3.082a.714.714 0 01.296.58v5.708c0 .218-.131.321-.296.226z" fill="red"/><path d="M52.223 35.552a.378.378 0 01-.202-.058l-5.355-3.082a.869.869 0 01-.383-.712v-5.72a.412.412 0 01.19-.387.35.35 0 01.362 0l5.355 3.078a.89.89 0 01.379.746v5.706a.412.412 0 01-.185.388.312.312 0 01-.161.041zm-5.573-9.666a.714.714 0 000 .094v5.72a.553.553 0 00.214.412l5.322 3.073c.01.004.022.004.033 0v-5.768a.555.555 0 00-.21-.412l-5.355-3.078-.004-.041z" fill="#150035"/><path d="M48.835 25.277l-1.334.832.179.287 1.334-.832-.179-.287z" fill="#150035"/><path d="M53.628 33.44l-1.172.705.134.222 1.171-.705-.133-.223z" fill="red"/><path d="M49.64 28.922l.338.993a.547.547 0 00.19.264l.757.569c.206.152.285.486.14.568l-.552.301a.198.198 0 00-.07.214l.128.948c.037.255-.177.309-.358.095l-.68-.804a.337.337 0 00-.235-.136l-.675.02c-.186 0-.412-.296-.363-.51l.128-.791a.462.462 0 00-.07-.297l-.548-.94c-.148-.25-.066-.494.136-.411l.762.309a.136.136 0 00.185-.05l.338-.597c.111-.16.358-.008.45.255z" fill="#fff"/><path d="M50.435 33.179a.486.486 0 01-.354-.198l-.68-.804a.202.202 0 00-.099-.074l-.675.02a.478.478 0 01-.358-.18.696.696 0 01-.178-.524l.132-.8a.347.347 0 00-.05-.184l-.551-.936a.506.506 0 010-.58.3.3 0 01.362-.07l.75.304.313-.56a.284.284 0 01.288-.153.626.626 0 01.462.437l.33.985a.412.412 0 00.127.185l.762.565a.718.718 0 01.276.577.33.33 0 01-.16.276l-.544.296v.046l.131.951a.35.35 0 01-.177.392.274.274 0 01-.107.029zm-1.133-1.414a.484.484 0 01.355.194l.68.824a.24.24 0 00.065.058v-.02l-.132-.953a.362.362 0 01.157-.383l.552-.3a.445.445 0 00-.157-.285l-.762-.569a.742.742 0 01-.247-.346l-.338-.988a.367.367 0 00-.156-.202l-.322.568a.304.304 0 01-.411.124l-.742-.305a.314.314 0 00.054.16l.58.924c.08.121.114.267.095.412l-.148.799a.37.37 0 00.09.239c.026.034.06.06.1.074l.687-.025z" fill="#150035"/><path d="M49.626 29.825l-.321.108.21.626.322-.108-.211-.626z" fill="#150035"/><path d="M62.204 43.702l-11.81-6.819a1.837 1.837 0 00-1.738-.21l-1.916 1.236c-.02 0-.029.033 0 .05.17.358 1.772 3.708 1.916 4.326.062.26.564 2.822 1.14 5.801v1.5c.036.919.31 1.812.796 2.592.614 3.152 1.133 5.839 1.133 5.839l1.767 4.173 1.528-.922a.256.256 0 00.107-.297l-.243-.684 2.36-1.343c-.08-.432-.134-.868-.16-1.307l5.107 5.687 1.813-1.162.057-.038a1.813 1.813 0 00.709-1.623V48.14a5.667 5.667 0 00-2.566-4.438z" fill="red"/><path d="M62.142 63.567L57.31 58.21c.03.23.066.47.112.705l.024.136-2.34 1.31.186.536a.445.445 0 01-.19.527l-1.721 1.034-1.866-4.417S51 55.375 50.39 52.236a5.404 5.404 0 01-.824-2.662v-1.48c-.704-3.613-1.087-5.558-1.137-5.768-.115-.486-1.235-2.921-1.903-4.285a.23.23 0 01.091-.301l2.047-1.319a2.084 2.084 0 011.809.264l11.83 6.848a5.867 5.867 0 012.653 4.586V60.48a2.007 2.007 0 01-.824 1.797l-.066.041-1.924 1.249zm-5.301-6.482l5.355 5.975 1.73-1.092a1.647 1.647 0 00.618-1.48v-12.36a5.436 5.436 0 00-2.472-4.249L50.3 37.052a1.647 1.647 0 00-1.553-.218h-.025l-1.763 1.153c.412.824 1.73 3.65 1.87 4.24.054.227.412 2.13 1.145 5.81v1.537c.04.876.303 1.727.766 2.472l.025.062c.58 2.991 1.08 5.567 1.125 5.818l1.672 3.947 1.339-.803a.058.058 0 00.02-.066l-.296-.824 2.385-1.356a9.542 9.542 0 01-.145-1.195l-.024-.544z" fill="#150035"/><path d="M62.171 43.69l-11.41-6.593-3.617 2.336 12.185 6.465 2.471.412 1.92-1.141a5.012 5.012 0 00-1.549-1.48z" fill="#fff"/><path d="M61.853 46.496l-2.615-.412-12.481-6.634 4-2.584 11.508 6.655a5.11 5.11 0 011.599 1.553l.12.173-2.13 1.249zm-2.471-.787l2.385.379 1.648-.977a4.582 4.582 0 00-1.347-1.236l-11.3-6.551-3.24 2.093 11.854 6.292zm3.39 2.612s-4.774 1.125-5.08 1.236c-.304.111-4.942 3.87-6.528 5.637.321 1.648.544 2.798.544 2.806l1.767 4.174 1.594-.919a.247.247 0 00.107-.297l-.239-.684 2.29-1.343c-.074-.412-2.43.486-2.471.037l7.414 4.343 1.813-1.162.057-.037a1.813 1.813 0 00.709-1.623V48.128a4.146 4.146 0 00-.115-.936l-1.862 1.13z" fill="#150035"/><path d="M64.27 49.025l-.89.561.21.331.888-.56-.209-.332zm0 11.401l-.89.56.21.332.888-.561-.209-.331zm-9.74-.172l-.888.56.208.332.889-.56-.21-.332z" fill="red"/><path d="M60.35 44.893l-11.81-6.824c-1.404-.824-2.533-.152-2.533 1.476v12.36a5.647 5.647 0 002.546 4.418l1.346.774a1.144 1.144 0 01.486.75 6.67 6.67 0 002.591 4.294c.371.276.668.041.556-.437a10.035 10.035 0 01-.271-2.06c0-.326.23-.453.51-.293l6.591 3.8c1.409.823 2.55.152 2.55-1.472V49.32a5.634 5.634 0 00-2.562-4.426z" fill="red"/><path d="M61.487 63.694a2.533 2.533 0 01-1.236-.375l-6.59-3.799c-.087-.049-.145-.049-.17-.037a.193.193 0 00-.053.157c.017.686.108 1.369.272 2.035a.646.646 0 01-.186.705.573.573 0 01-.667-.082 6.844 6.844 0 01-2.665-4.417.955.955 0 00-.412-.623l-1.343-.774a5.858 5.858 0 01-2.64-4.57v-12.36c0-.862.3-1.505.824-1.822.523-.317 1.235-.247 1.997.181l11.83 6.811a5.858 5.858 0 012.645 4.586v12.361c0 .857-.3 1.504-.824 1.817-.237.14-.508.211-.782.206zm-7.946-4.61c.116.003.23.035.33.094l6.59 3.8c.618.358 1.186.411 1.607.177.42-.235.634-.775.634-1.475V49.318a5.429 5.429 0 00-2.472-4.248l-11.784-6.827c-.618-.359-1.191-.412-1.611-.181-.42.23-.647.77-.647 1.483v12.361a5.436 5.436 0 002.472 4.248l1.343.775a1.342 1.342 0 01.572.919A6.448 6.448 0 0053.092 62c.103.078.185.095.218.07.033-.025.078-.124.033-.309a9.891 9.891 0 01-.276-2.118.54.54 0 01.243-.494.448.448 0 01.23-.066z" fill="#150035"/><path d="M58.15 51.494l-4.27-5.184c-.33-.412-.697-.523-.94-.412l-.066.038-1.433.877a.033.033 0 000 .045l.671 1.616.268.676.313-.343v3.111c0 .713.663 1.546 1.203 1.508l2.092-.136a.033.033 0 01.029 0l.824.68a.033.033 0 00.041 0l1.458-.89c.359-.214.297-1-.19-1.586z" fill="red"/><path d="M56.858 54.14a.21.21 0 01-.128-.046l-.795-.651-2.06.136a1.035 1.035 0 01-.758-.33 1.97 1.97 0 01-.626-1.347v-2.678l-.202.222-.366-.927-.672-1.611a.21.21 0 01.083-.255l1.507-.92c.346-.164.791 0 1.15.45l4.292 5.204a1.796 1.796 0 01.436 1.364.643.643 0 01-.3.47l-1.45.89a.214.214 0 01-.111.028zm-.882-1.035c.048 0 .094.016.132.045l.762.623 1.376-.825a.355.355 0 00.144-.239 1.482 1.482 0 00-.367-1.091l-4.275-5.22c-.289-.351-.585-.434-.734-.364l-.057.033-1.335.825.8 1.936.411-.466v3.548c.027.42.212.813.52 1.1.13.141.31.228.502.243l2.096-.14.025-.008z" fill="#150035"/><path d="M56.927 50.019L53.88 46.31c-.33-.412-.696-.523-.939-.412l-.066.038-1.433.877a.033.033 0 000 .045l.671 1.616.268.676.313-.343v1.373h.086l-.086.164v1.57c.006.212.055.421.144.614l4.09-2.51z" fill="#fff"/><path d="M52.746 52.759l-.079-.173a1.735 1.735 0 01-.16-.684v-2.678l-.202.222-.367-.927-.671-1.611a.21.21 0 01.082-.255l1.508-.92c.346-.164.79 0 1.15.45l3.175 3.865-4.436 2.71zm.099-2.386v1.529a1.2 1.2 0 00.061.367l3.77-2.308-2.93-3.564c-.288-.35-.584-.433-.733-.362l-.057.032-1.335.825.8 1.936.411-.466v1.649h.198l-.185.362zM56 53.282l.825.68a.033.033 0 00.041 0l1.458-.89c.362-.21.3-.989-.185-1.582l-.441-.54-1.533.91a4.91 4.91 0 00-1.062.441 2.93 2.93 0 00.131 1.014l.738-.05a.034.034 0 01.029.017z" fill="#150035"/><path d="M56.857 54.139a.21.21 0 01-.128-.045l-.795-.651-.824.057-.04-.14c-.231-.96-.133-1.096-.092-1.157a3.374 3.374 0 011.13-.49l1.647-.977.535.65a1.797 1.797 0 01.437 1.364.644.644 0 01-.3.47l-1.45.89a.214.214 0 01-.12.029zm-.882-1.034c.048 0 .094.016.132.045l.762.622 1.376-.824a.354.354 0 00.144-.239 1.486 1.486 0 00-.366-1.092l-.355-.412-1.441.857a5.503 5.503 0 00-.964.371c.002.25.037.5.103.742l.597-.037.012-.033z" fill="#150035"/><path d="M51.164 47.345v5.484c0 .713.663 1.55 1.199 1.512l4.275-.284c.552-.037.552-.956 0-1.649l-4.275-5.187c-.54-.655-1.199-.59-1.199.124z" fill="red"/><path d="M52.33 54.51a1.075 1.075 0 01-.712-.334 1.95 1.95 0 01-.622-1.347v-5.484a.692.692 0 01.411-.713 1.054 1.054 0 011.088.503l4.272 5.183a1.648 1.648 0 01.383 1.55.573.573 0 01-.499.358l-4.276.284h-.045zm-.72-7.573a.3.3 0 00-.091 0c-.165.058-.186.272-.186.412v5.48c.023.42.207.814.515 1.1a.729.729 0 00.507.243l4.272-.284a.227.227 0 00.214-.16 1.336 1.336 0 00-.334-1.2l-4.276-5.2a.887.887 0 00-.622-.391z" fill="#150035"/><path d="M53.786 46.148l-1.514.928.177.288 1.514-.928-.177-.288z" fill="#150035"/><path d="M58.017 51.932l-.973.58.133.222.973-.58-.133-.222z" fill="red"/></g><defs><clipPath id="clip0"><path fill="#fff" transform="translate(25 22)" d="M0 0h65v69H0z"/></clipPath></defs></svg>