<svg width="118" height="118" fill="none" xmlns="http://www.w3.org/2000/svg"><circle cx="59" cy="59" r="59" fill="#F8F8F8"/><path d="M31.022 42.29l-7.895 4.578L22 59.924l4.663 2.927 9.471-6.002-.677-14.033-1.8.372-1.281-1.647-1.354.75z" fill="red"/><path d="M23.127 46.868l1.354 2.627 2.33-1.344-.148 14.7L22 59.924l1.127-13.056z" fill="#F1F1FF"/><path d="M26.811 48.15l8.647-5.334.677 14.033-9.472 6.002.148-14.7z" fill="#E0E4FF"/><path d="M30.37 48.844c-.054.35-.256.61-.457.58-.202-.031-.317-.34-.256-.69.061-.349.256-.606.457-.576.202.031.317.337.256.686zm2.836-1.746c-.054.349-.256.609-.457.578-.202-.03-.317-.339-.256-.688.061-.35.256-.607.457-.576.202.03.31.336.256.686z" fill="#21212C"/><path d="M22 59.924l2.404-.895 2.259 3.822L22 59.925z" fill="#E0E4FF"/><path d="M32.376 41.541v3.178l-5.565 3.432-2.33 1.344-1.354-2.627 8.667-5.005" fill="red"/><path d="M31.494 52.198a.873.873 0 01-.49-.156c-.95-.642-1.11-3.139-1.114-3.243l.242-.016c0 .026.156 2.484 1.022 3.06a.638.638 0 00.596.072c1.19-.396 1.116-3.64.989-4.845l.24-.026c.02.186.465 4.572-1.153 5.1a1.04 1.04 0 01-.332.054z" fill="#21212C"/><path d="M38.09 46.011l-7.893 4.578-1.13 13.055 4.663 2.928 9.472-6.006-.677-14.03-1.802.373-1.28-1.65-1.354.752z" fill="red"/><path d="M30.197 50.589l1.351 2.626 2.33-1.346-.148 14.703-4.663-2.928 1.13-13.055z" fill="#F1F1FF"/><path d="M33.879 51.869l8.646-5.332.677 14.03-9.471 6.005.148-14.703z" fill="#E0E4FF"/><path d="M37.437 52.565c-.053.35-.255.607-.457.576-.202-.03-.317-.337-.255-.686.06-.35.255-.61.457-.579.202.03.309.34.255.689zm2.836-1.747c-.053.35-.255.607-.457.576-.202-.03-.317-.336-.256-.685.062-.35.256-.61.458-.58.202.031.309.34.255.69z" fill="#21212C"/><path d="M29.067 63.644l2.405-.897 2.258 3.825-4.663-2.928z" fill="#E0E4FF"/><path d="M39.443 45.259v3.177l-5.565 3.432-2.33 1.347-1.352-2.627 8.664-5.005" fill="red"/><path d="M38.562 55.915a.855.855 0 01-.491-.155c-.95-.64-1.109-3.137-1.114-3.244h.255c0 .023.156 2.481 1.01 3.06a.642.642 0 00.595.07c1.19-.396 1.117-3.64.989-4.846l.255-.025c.018.186.463 4.574-1.154 5.1a1.026 1.026 0 01-.345.04z" fill="#21212C"/><path d="M84.179 30.087l2.097 49.092L69.837 89.5l-33.41-21.172 2.387-51.83 6.355 1.312L49.686 12l34.493 18.087z" fill="#AD0000"/><path d="M84.18 30.087l-5.009 6.217-7.987-1.696-1.346 54.893 16.439-10.322-2.098-49.092z" fill="#E0E4FF"/><path d="M71.184 34.608l-32.37-18.11-2.386 51.83 33.41 21.173 1.346-54.893z" fill="#EFF2FF"/><path d="M56.953 31.581c.072.51.365.905.662.865.296-.041.475-.493.406-1.02-.069-.528-.368-.906-.662-.865-.294.04-.478.503-.406 1.02zm-8.752-5.6c.072.51.366.898.657.86.291-.039.473-.49.404-1.002-.07-.513-.363-.9-.657-.862-.294.038-.473.49-.404 1.004z" fill="red"/><path opacity=".6" d="M86.277 79.179l-8.478-3.165-7.961 13.487 16.439-10.322z" fill="#F0F0FF"/><path d="M52.678 41.847a2.694 2.694 0 001.533-.459c2.654-1.726 3.452-8.027 3.615-9.674a.374.374 0 00-.615-.326.377.377 0 00-.133.247c-.161 1.555-.93 7.591-3.276 9.118a2.008 2.008 0 01-1.865.19c-3.577-1.258-3.322-10.795-2.867-14.829a.374.374 0 00-.332-.413.375.375 0 00-.422.324c-.255 2.32-1.241 14.002 3.368 15.623.319.119.654.186.994.2z" fill="#AD0000"/><path d="M49.687 12v10.58l21.498 12.028 7.987 1.696 5.008-6.217L49.686 12zm-5.254 60.96V52.056l14.226 8.26v21.616l-14.226-8.974z" fill="red"/><path d="M44.668 72.96V52.056l5.171 3.002V76.22l-5.171-3.262z" fill="red"/><path d="M49.84 76.22l-.236.1V54.977h.256l-.128.604.108 20.64z" fill="red"/><path d="M44.433 72.96V52.056l5.171 3.002V76.22l-5.171-3.262zm9.065 5.716V57.318l5.171 3.004-.01 21.61-5.161-3.256z" fill="#F0F0FF"/><path d="M43.974 51.241V73.22l15.166 9.563V60.049L43.974 51.24zM58.67 81.933l-14.236-8.974V52.05l14.226 8.262.01 21.622z" fill="#AD0000"/><path d="M44.433 71.983l5.171-4.261V66.66l-5.171 4.271v1.05zm0-6.238l5.171-4.26v-.358l-5.171 4.27v.348zm0-1.713l5.171-4.261v-1.06l-5.171 4.27v1.051zm0-6.877l3.628-2.991-.751-.437-2.877 2.375v1.053zm9.065 18.142l5.166-4.123v-1.058l-5.166 4.13v1.052zm0-4.164l5.169-4.301v-.355l-5.169 4.307v.35zm0-7.667l4.374-3.606-.75-.438-3.624 2.99v1.054z" fill="red"/><path d="M39.192 42.625l-3.789 3.583 1.901 1.08 3.782-3.58-1.894-1.083z" fill="#D36397"/><path d="M41.09 43.706l-3.788 3.583 1.898 1.084 3.784-3.58-1.893-1.087z" fill="#fff"/><path d="M42.984 44.79l-3.789 3.583 1.899 1.084 3.784-3.583-1.894-1.084z" fill="#D36397"/><path d="M44.878 45.874l-3.79 3.582 1.902 1.082 3.781-3.58-1.893-1.084z" fill="#fff"/><path d="M46.77 46.955l-3.786 3.583 1.899 1.083 3.784-3.58-1.896-1.086z" fill="#D36397"/><path d="M48.666 48.039l-3.789 3.582 1.898 1.084 3.784-3.583-1.893-1.083z" fill="#fff"/><path d="M50.56 49.122l-3.79 3.583 1.901 1.081 3.785-3.58-1.896-1.084z" fill="#D36397"/><path d="M52.456 50.203l-3.789 3.586 1.898 1.08 3.784-3.58-1.893-1.086z" fill="#fff"/><path d="M54.349 51.287l-3.79 3.583 1.899 1.084 3.784-3.58-1.893-1.087z" fill="#D36397"/><path d="M56.242 52.37l-3.789 3.584 1.901 1.083 3.784-3.582-1.896-1.084z" fill="#fff"/><path d="M58.138 53.455l-3.79 3.582 1.899 1.081 3.784-3.58-1.893-1.083z" fill="#D36397"/><path d="M60.031 54.536l-3.789 3.583 1.899 1.083 3.784-3.58-1.894-1.086z" fill="#fff"/><path d="M61.925 55.62l-3.786 3.582 1.898 1.084 3.784-3.583-1.896-1.083z" fill="#D36397"/><path d="M63.82 56.703l-3.789 3.583 1.899 1.081 3.784-3.58-1.894-1.084z" fill="#fff"/><path d="M65.714 57.787l-3.79 3.58 1.9 1.084 3.783-3.58-1.893-1.084z" fill="#D36397"/><path d="M67.608 58.868l-3.787 3.583 1.899 1.084 3.784-3.58-1.896-1.087z" fill="#fff"/><path d="M35.403 46.208s.051.994.736 1.4a.766.766 0 001.163-.319l-1.899-1.081z" fill="#C63E7D"/><path d="M37.297 47.286s.048.995.736 1.4a.767.767 0 001.162-.316l-1.898-1.084z" fill="#D0DDFF"/><path d="M39.19 48.367s.048.995.735 1.4a.769.769 0 001.163-.318l-1.898-1.082z" fill="#C63E7D"/><path d="M41.083 49.446s.049.995.736 1.4a.766.766 0 001.16-.316l-1.896-1.084z" fill="#D0DDFF"/><path d="M42.977 50.527s.048.995.735 1.4a.768.768 0 001.16-.319l-1.895-1.08z" fill="#C63E7D"/><path d="M44.87 51.606s.049.994.736 1.4a.767.767 0 001.16-.316l-1.896-1.084z" fill="#D0DDFF"/><path d="M46.764 52.687s.048.995.735 1.4a.768.768 0 001.16-.319l-1.895-1.08z" fill="#C63E7D"/><path d="M48.656 53.766s.049.994.736 1.4a.768.768 0 001.16-.316l-1.896-1.084z" fill="#D0DDFF"/><path d="M50.55 54.84s.048.996.736 1.4a.767.767 0 001.16-.317L50.55 54.84z" fill="#C63E7D"/><path d="M52.443 55.925s.049.995.736 1.4a.768.768 0 001.16-.318l-1.896-1.081z" fill="#D0DDFF"/><path d="M54.336 57.004s.049.997.733 1.4a.767.767 0 001.163-.316l-1.896-1.084z" fill="#C63E7D"/><path d="M56.237 58.085s.051.995.736 1.4a.768.768 0 001.163-.318l-1.899-1.082z" fill="#D0DDFF"/><path d="M58.12 59.174s.051.995.736 1.4a.766.766 0 001.163-.316l-1.899-1.084z" fill="#C63E7D"/><path d="M60.014 60.245s.048.995.735 1.4a.768.768 0 001.163-.319l-1.898-1.08z" fill="#D0DDFF"/><path d="M61.907 61.324s.049.995.736 1.4a.767.767 0 001.163-.316l-1.899-1.084z" fill="#C63E7D"/><path d="M63.8 62.405s.05.995.737 1.4a.766.766 0 001.16-.319l-1.896-1.08z" fill="#D0DDFF"/><path d="M83.934 73.722l-7.895 4.577-1.127 13.056 4.66 2.927 9.475-6.002-.677-14.033-1.802.373-1.282-1.65-1.352.752z" fill="red"/><path d="M76.039 78.3l1.354 2.626 2.33-1.344-.15 14.7-4.66-2.927 1.126-13.056z" fill="#F1F1FF"/><path d="M79.723 79.582l8.646-5.335.677 14.032-9.474 6.003.151-14.7z" fill="#E0E4FF"/><path d="M83.28 80.275c-.054.35-.256.607-.456.58-.199-.029-.316-.34-.255-.69.061-.349.255-.606.455-.576.2.031.309.337.255.686zm2.85-1.747c-.053.35-.255.607-.457.577-.201-.031-.317-.337-.255-.686.061-.35.255-.61.457-.58.202.031.294.34.256.69z" fill="#21212C"/><path d="M74.912 91.355l2.402-.898 2.259 3.825-4.66-2.927z" fill="#E0E4FF"/><path d="M85.286 72.97v3.177l-5.563 3.435-2.33 1.344-1.354-2.627 8.667-5.005" fill="red"/><path d="M84.406 83.626a.865.865 0 01-.49-.153c-.95-.643-1.106-3.134-1.106-3.246l.242-.013c0 .023.159 2.481 1.022 3.06a.648.648 0 00.598.069c1.188-.395 1.117-3.639.986-4.845l.243-.026c.02.187.465 4.575-1.152 5.113a.994.994 0 01-.343.04z" fill="#21212C"/><path d="M91.001 77.44l-7.895 4.577-1.126 13.058L86.64 98l9.474-6.003-.677-14.032-1.802.372-1.28-1.647-1.354.75z" fill="red"/><path d="M83.106 82.017l1.354 2.626 2.33-1.344L86.64 98l-4.66-2.925 1.126-13.058z" fill="#F1F1FF"/><path d="M86.79 83.3l8.647-5.335.677 14.032L86.64 98l.15-14.7z" fill="#E0E4FF"/><path d="M90.35 83.993c-.054.35-.256.61-.458.579-.202-.03-.317-.34-.255-.689.06-.349.255-.606.457-.576.202.03.307.347.256.686zm2.835-1.747c-.053.35-.255.61-.457.58-.202-.031-.317-.34-.255-.69.06-.349.255-.606.457-.576.202.03.31.337.255.686z" fill="#21212C"/><path d="M81.98 95.075l2.404-.898L86.64 98l-4.66-2.925z" fill="#E0E4FF"/><path d="M92.355 76.69v3.177L86.79 83.3l-2.33 1.344-1.354-2.626 8.666-5.003" fill="red"/><path d="M91.473 87.346a.872.872 0 01-.49-.155c-.95-.643-1.11-3.14-1.117-3.244l.243-.015c0 .025.158 2.484 1.01 3.06a.643.643 0 00.597.071c1.188-.395 1.117-3.639.986-4.845l.243-.025c.02.186.465 4.572-1.152 5.1a.973.973 0 01-.32.053z" fill="#21212C"/><path d="M45.504 40.832l.273-.272 13.274 7.65-.01 3.96-.274.27-13.263-11.608z" fill="#AD0000"/><path d="M45.777 40.56v3.96l13.286 7.65-.015-3.96-13.27-7.65zm4.94 5.015l.804.464v.561c0 .041 0 .064-.02.072 0 0 .02-.03.02-.072v-.56l-.805-.465zm-.512-1.514v.278-.278zm-.018 1.894l.092.044c.039.015.067.02.077 0 0 .025-.038.02-.077 0l-.092-.044v.255-.255zm-1.566-.94c.035.025.072.049.11.07a.742.742 0 00-.105-.07h-.005zm.391.127a.154.154 0 01-.135 0 .154.154 0 00.14.008l-.005-.008zm0-.837l-.097-.094-.148-.14.148.14.097.095zm.23-.764a2.012 2.012 0 000-.003v.003zm-.67-.431zm2.045 3.36l.255.143-.255-.143zm1.402.53l-.16-.104.16.105zm.018-1.881l-.687-.395.687.395z" fill="#AD0000"/><path d="M55.66 47.955c.279.16.447.308.445.645 0 .29-.169.29-.414.148l-.205-.118v-.765l.174.09z" fill="red"/><path d="M53.39 46.284c.422.255.803.765.8 1.589 0 .747-.34.925-.838.64a1.744 1.744 0 01-.82-1.596c.003-.832.46-.862.859-.633zm-.017 1.91c.36.21.465-.122.465-.51 0-.334-.074-.846-.465-1.073-.391-.227-.486.11-.486.497s.077.854.486 1.089" fill="#F1F1FF"/><path d="M53.373 46.608c.391.227.468.74.465 1.074 0 .39-.105.721-.465.51-.409-.235-.485-.717-.485-1.09 0-.371.12-.703.485-.494z" fill="red"/><path d="M48.572 43.502c.2.12.38.268.534.441v.49l-.289-.145v-.189a.157.157 0 00-.059-.14 1.076 1.076 0 00-.184-.133c-.168-.097-.298-.094-.298.107 0 .202.163.352.375.551a1.322 1.322 0 01.529.954c0 .428-.296.494-.687.267a2.264 2.264 0 01-.575-.464v-.51l.288.146v.199a.16.16 0 00.06.14c.061.057.13.107.204.148.186.107.34.127.342-.117 0-.205-.16-.358-.36-.533-.281-.255-.542-.53-.542-.947 0-.415.26-.49.662-.265zm3.202 1.902v.255l-.092-.043c-.048-.02-.084-.02-.084.059v1.5l.16.104v.275l-.686-.395v-.255l.094.046c.054.023.082.02.082-.061v-.564l-.805-.462v.658l.166.105v.275l-.687-.395v-.255l.094.043c.046.02.082.02.082-.043v-1.515l-.163-.104v-.298l.684.395v.255l-.092-.046c-.056-.023-.087-.023-.087.058v.51l.805.465v-.6l-.163-.104v-.27l.692.407zm3.953 3.672l-.243-.138v.472l.27.166v.278l-.794-.459v-.255l.094.043c.049.02.082.023.082-.043v-1.515l-.16-.102v-.278l.812.47a1.213 1.213 0 01.67 1.05c.004.49-.302.559-.731.311zm-.24-1.229v.765l.204.117c.255.143.414.143.414-.148 0-.336-.166-.484-.445-.645l-.174-.1" fill="#F1F1FF"/><path d="M45.506 40.832l13.286 7.65v3.958l-13.286-7.648v-3.96zm6.267 4.827v-.255l-.684-.395v.276l.163.104v.6l-.805-.465v-.51c0-.081.031-.081.087-.058l.092.045v-.255l-.685-.395v.276l.164.104v1.515c0 .064-.036.064-.082.043l-.094-.043v.255l.687.395v-.275l-.166-.105v-.658l.805.462v.563c0 .082-.028.084-.082.061l-.095-.045v.255l.688.395v-.276l-.161-.104v-1.51c0-.079.036-.079.084-.058l.092.043-.008.015zm1.587 2.844c.511.285.836.107.838-.64 0-.827-.378-1.347-.8-1.59-.421-.241-.856-.198-.858.633a1.74 1.74 0 00.82 1.597zm2.366.573c.43.255.736.179.736-.318a1.209 1.209 0 00-.67-1.051l-.812-.47v.279l.16.102v1.514c0 .067-.032.064-.08.044l-.095-.044v.255l.794.46v-.279l-.27-.165v-.472l.242.138-.005.007zm-7.238-3.378c.39.227.687.16.687-.268a1.32 1.32 0 00-.529-.954c-.212-.199-.378-.35-.376-.55.003-.202.13-.205.3-.108.065.038.127.082.183.133a.158.158 0 01.06.14v.189l.288.145v-.49a2.268 2.268 0 00-.534-.44c-.394-.225-.66-.138-.662.254-.002.393.255.697.542.947.199.175.36.328.36.532 0 .255-.156.225-.342.118a1.082 1.082 0 01-.205-.148.159.159 0 01-.059-.14v-.2l-.288-.145v.51c.165.185.359.342.575.464" fill="red"/></svg>