<svg width="118" height="118" fill="none" xmlns="http://www.w3.org/2000/svg"><circle cx="59" cy="59" r="59" fill="#F8F8F8"/><g clip-path="url(#clip0)"><path d="M26.666 90l-.649.377a.29.29 0 01-.256 0l-.617-.36c-.08 0-.088-.105 0-.145l.657-.385a.288.288 0 01.257 0l.616.353c.057.056.065.104-.008.16zm1.538.874l-.65.377a.29.29 0 01-.255 0l-.617-.353c-.08-.056-.08-.152-.04-.152l.649-.377a.29.29 0 01.256 0l.657.377c.04 0 .048.088 0 .128zm-1.602.922l-.649.376a.288.288 0 01-.256 0l-.617-.352c-.08-.048-.088-.113 0-.153l.649-.376a.288.288 0 01.256 0l.617.352c.048.048.056.112 0 .153zm3.093-.048l-.649.376a.288.288 0 01-.256 0l-.585-.36c-.072-.048-.088-.113 0-.153l.649-.376a.305.305 0 01.264 0l.609.36c.032.048.08.12-.032.153zm-1.595.922l-.649.376a.288.288 0 01-.256 0l-.593-.36c-.08-.049-.088-.113 0-.153l.65-.377a.288.288 0 01.256 0l.617.361c.08.048.08.12-.025.152zm3.197.007l-.65.377a.264.264 0 01-.256 0l-.585-.368c-.072 0-.088-.113 0-.153l.65-.368a.28.28 0 01.264 0l.609.352c.032.056.08.12-.032.16zm-1.594.923l-.649.352a.265.265 0 01-.256 0l-.593-.345c-.08 0-.088-.112 0-.152l.649-.369a.265.265 0 01.256 0l.617.353c.08.056.08.12-.024.16zm3.196-1.844l-.69.376a.265.265 0 01-.256 0l-.544-.368c-.072 0-.08-.113 0-.153l.649-.368a.28.28 0 01.264 0l.609.352c.024.056.032.12-.032.16zm1.595-.922l-.65.377a.281.281 0 01-.264 0l-.617-.353c-.072-.04-.08-.112 0-.152l.65-.37a.281.281 0 01.264 0l.609.353c.064.057.072.105.008.145zm1.594-.89l-.649.377a.28.28 0 01-.264 0l-.609-.377c-.08 0-.088-.112 0-.144l.657-.377a.264.264 0 01.256 0l.617.353c.048.032.056.096-.008.168zm1.594-.954l-.649.377a.304.304 0 01-.264 0l-.61-.36c-.08 0-.087-.113 0-.145l.658-.377a.264.264 0 01.256 0l.617.353c.048.048.056.112-.008.152zm1.595-.922l-.65.377a.305.305 0 01-.264 0l-.608-.36c-.08 0-.089-.113 0-.145l.648-.377a.264.264 0 01.217-.024l.617.353c.096.072.112.136.04.176zm1.594-.922l-.648.393a.288.288 0 01-.257 0l-.617-.36c-.08 0-.088-.113 0-.145l.65-.377a.265.265 0 01.256 0l.616.353c.065.032.073.096 0 .136zm1.603-.921l-.657.376a.288.288 0 01-.256 0l-.617-.36c-.072-.04-.08-.112 0-.145l.649-.376a.28.28 0 01.264 0l.61.352c.063.048.071.113.007.153zm1.594-.922l-.657.377a.288.288 0 01-.257 0l-.616-.361c-.072 0-.08-.112 0-.145l.649-.376a.304.304 0 01.264 0l.609.352c.064.049.072.113.008.153zm1.595-.923l-.65.378a.306.306 0 01-.264 0l-.609-.361c-.08 0-.088-.112 0-.144l.65-.377a.305.305 0 01.264 0l.608.353c.057.048.065.104 0 .152zm1.594-.92l-.649.376a.304.304 0 01-.264 0l-.609-.36c-.08 0-.088-.113 0-.145l.657-.377a.29.29 0 01.256 0l.617.353c.048.048.056.112-.008.152zm1.594-.923l-.649.377a.305.305 0 01-.264 0l-.61-.36c-.08 0-.087-.113 0-.145l.658-.377a.288.288 0 01.256 0l.617.353c.048.048.056.112-.008.152zm1.595-.921l-.65.376a.29.29 0 01-.256 0l-.617-.36c-.08-.04-.088-.105 0-.145l.65-.376a.29.29 0 01.264.016l.617.352c.056.032.064.097-.008.137zm1.594-.922l-.65.376a.288.288 0 01-.256 0l-.617-.36c-.072 0-.088-.104 0-.145l.65-.376a.305.305 0 01.264 0l.608.352c.065.049.073.113 0 .153zm1.602-.922l-.657.377a.29.29 0 01-.256 0l-.617-.36c-.072 0-.08-.105 0-.145l.649-.377a.304.304 0 01.264 0l.61.353c.063.048.071.112.007.152zm1.595-.922l-.657.377a.288.288 0 01-.256 0l-.617-.353c-.073-.048-.08-.112 0-.152l.648-.377a.304.304 0 01.265 0l.609.353c.064.024.072.112.008.152zM32.81 93.551l-.648.401a.288.288 0 01-.256 0l-.617-.36c-.073-.04-.08-.113 0-.145l.648-.377a.281.281 0 01.265 0l.609.353c.064.024.072.088 0 .128zm1.604-.921l-.657.376a.288.288 0 01-.257 0l-.617-.36c-.072 0-.08-.113 0-.145l.65-.377a.304.304 0 01.264 0l.609.353c.064.048.072.112.008.152zm1.594-.922l-.649.376a.304.304 0 01-.264 0l-.617-.36c-.072 0-.08-.113 0-.145l.649-.376a.304.304 0 01.264 0l.61.352c.063.048.071.112.007.153zm1.594-.922l-.649.376a.304.304 0 01-.264 0l-.61-.36c-.08 0-.087-.113 0-.145l.658-.376a.288.288 0 01.256 0l.617.352c.048.048.056.113-.008.153zm1.595-.922l-.65.377a.305.305 0 01-.264 0l-.608-.361c-.08 0-.089-.112 0-.144l.656-.377a.288.288 0 01.257 0l.617.353c.048.048.056.112-.008.152zm1.594-.922l-.648.377a.288.288 0 01-.257 0l-.617-.36c-.08-.041-.088-.113 0-.145l.65-.377a.288.288 0 01.256 0l.617.353c.064.048.072.112 0 .152zm1.594-.922l-.649.377a.288.288 0 01-.256 0l-.617-.36c-.08 0-.088-.105 0-.145l.649-.377a.288.288 0 01.256 0l.617.353c.064.048.072.112 0 .152zm1.603-.922l-.657.377a.288.288 0 01-.257 0l-.616-.36c-.073 0-.08-.105 0-.145l.648-.377a.305.305 0 01.265 0l.609.353c.064.048.072.112.008.152zm1.595-.921l-.657.376a.288.288 0 01-.257 0l-.617-.352c-.072-.048-.08-.113 0-.153l.65-.376a.304.304 0 01.264 0l.608.352c.065.048.073.112.009.153zm1.593-.922l-.649.376a.305.305 0 01-.264 0l-.609-.352c-.08-.048-.088-.112 0-.153l.649-.376a.304.304 0 01.264 0l.61.352a.087.087 0 010 .153zm1.594-.922l-.648.377a.304.304 0 01-.264 0l-.61-.377c-.08-.048-.087-.112 0-.152l.658-.377a.288.288 0 01.256 0l.617.353c.048.072.056.176-.008.176zm1.596-.922l-.65.377a.304.304 0 01-.264 0l-.609-.353c-.08-.048-.088-.112 0-.152l.65-.377a.29.29 0 01.256 0l.617.353c.056.048.064.112 0 .152zm1.594-.921l-.65.376a.288.288 0 01-.256 0l-.617-.353c-.08-.048-.088-.112 0-.152l.65-.377a.288.288 0 01.255 0l.617.353c.064.048.072.112 0 .152zm1.594-.923l-.649.377a.29.29 0 01-.256 0l-.617-.353c-.072-.048-.088-.112 0-.152l.649-.377a.305.305 0 01.264 0l.61.361c.063.04.071.104 0 .144zm1.603-.921l-.657.376a.288.288 0 01-.257 0l-.617-.352c-.072-.049-.08-.113 0-.153l.65-.376a.305.305 0 01.264 0l.609.36c.064.04.072.105.008.145zm1.593-.922l-.657.377a.288.288 0 01-.256 0l-.617-.353c-.072-.048-.08-.112 0-.152l.65-.377a.305.305 0 01.264 0l.608.36c.065.04.073.105.009.145zm1.667-2.709l-.648.376a.313.313 0 01-.265 0l-.609-.352c-.08 0-.088-.113 0-.153l.65-.376a.288.288 0 01.255 0l.617.352c.056.048.064.113 0 .153zm-1.594.905l-.65.377a.311.311 0 01-.264 0l-.609-.377c-.08-.048-.088-.112 0-.152l.657-.377a.29.29 0 01.257 0l.617.353c.048.08.056.176-.008.176zm3.189-1.827l-.649.376a.288.288 0 01-.256 0l-.617-.352c-.08 0-.088-.113 0-.153l.649-.376a.288.288 0 01.256 0l.617.352c.064.049.072.113 0 .153zm1.594-.923l-.649.378a.288.288 0 01-.256 0l-.617-.353c-.072 0-.089-.112 0-.152l.649-.377a.313.313 0 01.264 0l.609.353c.064.048.072.112 0 .152zm1.603-.921l-.658.377a.288.288 0 01-.256 0l-.617-.353c-.072-.04-.08-.112 0-.152l.65-.377a.311.311 0 01.264 0l.608.353c.065.048.073.112.008.152zm1.594-.922l-.649.377a.281.281 0 01-.264 0l-.617-.353c-.072 0-.08-.112 0-.152l.649-.377a.313.313 0 01.264 0l.61.353c.063.048.071.112.007.152zm1.594-.922l-.649.377a.28.28 0 01-.264 0l-.61-.353c-.08 0-.087-.112 0-.152l.658-.369a.265.265 0 01.256 0l.617.353c.048.048.056.104-.008.144zm1.595-.897l-.65.376a.28.28 0 01-.264 0l-.609-.376c-.08 0-.088-.113 0-.153l.657-.368a.265.265 0 01.257 0l.617.352c.048.04.056.104-.008.169zm1.594-.946l-.649.376a.281.281 0 01-.264 0l-.609-.352c-.08 0-.088-.112 0-.153l.65-.368a.264.264 0 01.255 0l.617.352c.056.04.073.105 0 .145zm-9.654 7.358l-.649.377a.28.28 0 01-.264 0l-.61-.377c-.08 0-.087-.112 0-.152l.65-.369a.265.265 0 01.256 0l.617.353c.056.032.064.096 0 .168zm-1.595.89l-.649.377a.281.281 0 01-.264 0l-.609-.353c-.08-.04-.088-.112 0-.152l.657-.369a.264.264 0 01.256 0l.617.353c.048.056.056.104-.008.144zm3.189-1.844l-.65.377a.265.265 0 01-.255 0l-.617-.353c-.08 0-.089-.112 0-.152l.649-.368a.264.264 0 01.256 0l.617.352c.064.04.072.104 0 .144zm1.594-.922l-.649.377a.265.265 0 01-.256 0l-.617-.352c-.072 0-.08-.113 0-.153l.65-.368a.281.281 0 01.264 0l.608.352c.065.04.073.104 0 .144zm1.603-.921l-.657.377a.264.264 0 01-.256 0l-.617-.353c-.072 0-.08-.112 0-.152l.649-.37a.281.281 0 01.264 0l.61.354c.063.04.071.104.007.144zm1.594-.922l-.65.377a.28.28 0 01-.264 0l-.616-.353c-.073-.04-.08-.112 0-.144l.649-.377a.281.281 0 01.264 0l.609.353c.064.04.072.104.008.144zm1.595-.921l-.65.376a.304.304 0 01-.264 0l-.609-.36c-.08 0-.088-.113 0-.145l.657-.377a.265.265 0 01.257 0l.617.353c.048.048.056.112-.008.152zm1.594-.923l-.649.377a.304.304 0 01-.264 0l-.609-.36c-.08 0-.088-.113 0-.145l.657-.377a.264.264 0 01.256 0l.617.353c.048.048.056.104-.008.152zm1.674-2.733l-.649.377a.288.288 0 01-.256 0l-.617-.361c-.08 0-.088-.112 0-.144l.649-.377a.29.29 0 01.256 0l.617.353c.064.048.072.112 0 .152zm1.595-.922l-.65.377a.288.288 0 01-.256 0l-.617-.36c-.072-.04-.08-.105 0-.145l.65-.377a.304.304 0 01.264 0l.609.353c.064.048.072.112 0 .152zm1.602-.922l-.656.377a.288.288 0 01-.257 0l-.617-.36c-.072 0-.08-.105 0-.145l.65-.377a.305.305 0 01.263 0l.61.353c.063.048.072.112.007.152zm1.594-.921l-.649.376a.304.304 0 01-.264 0l-.61-.353c-.08-.048-.087-.112 0-.152l.65-.377a.305.305 0 01.264 0l.61.353c.055.048.063.112 0 .153zM71.1 71.42l-.649.376a.304.304 0 01-.264 0l-.61-.353c-.08-.048-.087-.112 0-.152l.65-.377a.29.29 0 01.256 0l.617.353c.064.048.072.112 0 .152zm1.595-.922l-.65.376a.29.29 0 01-.256 0l-.617-.352c-.08-.048-.088-.113 0-.153l.65-.376a.288.288 0 01.256 0l.617.352c.064.049.072.113 0 .153zm1.602-.922l-.657.377a.288.288 0 01-.256 0l-.617-.353c-.072-.048-.08-.112 0-.152l.65-.377a.305.305 0 01.263 0l.61.352c.063.049.072.113.007.153zm1.594-.922l-.657.377a.29.29 0 01-.256 0l-.617-.353c-.072-.048-.08-.112 0-.152l.649-.377a.304.304 0 01.264 0l.61.36c.063.04.071.105.007.145zm1.595-.922l-.65.377a.304.304 0 01-.264 0l-.609-.353c-.08-.048-.088-.112 0-.152l.65-.377a.304.304 0 01.264 0l.609.36c.056.041.064.105 0 .145zm1.667-2.709l-.65.377a.288.288 0 01-.256 0l-.617-.353c-.08-.048-.088-.112 0-.152l.65-.377a.288.288 0 01.256 0l.617.353c.064.04.072.112 0 .152zm-1.595.922l-.649.377a.313.313 0 01-.264 0l-.61-.353c-.08-.048-.087-.112 0-.152l.658-.377a.29.29 0 01.256 0l.617.352c.048.04.056.105-.008.153zm3.188-1.844l-.648.377a.288.288 0 01-.257 0l-.617-.353c-.08-.04-.088-.112 0-.152l.65-.377a.288.288 0 01.256 0l.617.353c.064.048.072.112 0 .152zm1.604-.921l-.658.376a.289.289 0 01-.256 0l-.617-.353c-.072 0-.08-.112 0-.152l.649-.377a.313.313 0 01.264 0l.61.353c.063.048.071.112.007.152zm1.594-.923l-.657.377a.288.288 0 01-.257 0l-.616-.353c-.073 0-.08-.112 0-.152l.648-.377a.312.312 0 01.265 0l.609.353c.064.048.072.112.008.152zm-3.278 3.64l-.648.376a.264.264 0 01-.257 0l-.617-.376c-.08 0-.088-.113 0-.153l.65-.368a.264.264 0 01.255 0l.617.352c.065.064.073.169 0 .169zm-1.594.922l-.65.376a.28.28 0 01-.264 0l-.609-.352c-.08 0-.088-.113 0-.153l.657-.368a.264.264 0 01.257 0l.617.352c.048.024.056.104-.008.144zm3.189-1.844l-.649.376a.264.264 0 01-.256 0L80.739 65c-.072 0-.088-.112 0-.153l.649-.368a.281.281 0 01.264 0l.61.352c.063.04.071.105 0 .145zm1.603-.922l-.657.377a.265.265 0 01-.257 0l-.617-.353c-.072-.04-.08-.112 0-.152l.65-.37a.28.28 0 01.264 0l.609.353c.064.04.072.105.008.145z" fill="#150035"/><path d="M26.738 86.056c6.722-3.59 49.377-27.91 50.916-67.172a1.948 1.948 0 01.873-1.467.576.576 0 01.657 0l4.198 2.493-1.602 15.02-2.404 8.986v11.711a3.89 3.89 0 01-1.77 3.054l-19.758 11.4-10.247 9.675-17.17 10.99-4.31-2.597a.57.57 0 01-.273-.562 1.892 1.892 0 01.89-1.53z" fill="#fff"/><path d="M25.985 88.429a.89.89 0 01-.448-.89 2.173 2.173 0 011.065-1.755c8.196-4.393 49.225-28.24 50.74-66.916a2.222 2.222 0 011.033-1.724.865.865 0 01.986 0l4.35 2.581-1.602 15.23-2.404 8.994v11.68a4.202 4.202 0 01-1.915 3.326L58.081 70.337l-10.24 9.62L30.44 91.081l-4.455-2.653zm31.671-18.573L77.454 58.41a3.631 3.631 0 001.602-2.782v-11.71l2.404-9.05 1.586-14.79-4.006-2.405h-.048c-.08-.072-.248 0-.296.04a1.602 1.602 0 00-.713 1.195c-.665 16.609-8.613 32.48-23.628 47.165a128.062 128.062 0 01-27.472 20.264 1.602 1.602 0 00-.722 1.25.328.328 0 00.12.297l4.143 2.46 17.01-10.82 10.222-9.668z" fill="#150035"/><path d="M44.38 74.401l5.545 3.159-2.54 2.404-.8.497-5.777-3.342c1.161-.802 2.355-1.756 3.573-2.718z" fill="red"/><path d="M40.223 77.159l.392-.289a106.547 106.547 0 003.557-2.71l.169-.135 6.097 3.47-2.844 2.686-1.002.641-6.37-3.663zm9.173.465l-5-2.846c-.993.802-2.01 1.603-3.028 2.317l5.208 2.998.609-.385 2.211-2.084z" fill="#150035"/><path d="M26.121 88.204a.593.593 0 01-.272-.569 1.868 1.868 0 01.889-1.507c1.538-.801 4.96-2.733 9.334-5.659l5.448 3.207-11.089 7.07-4.31-2.541z" fill="red"/><path d="M25.97 88.477a.898.898 0 01-.433-.858 2.181 2.181 0 011.065-1.787c1.602-.866 4.983-2.75 9.31-5.611l.168-.112 6.057 3.599L30.44 91.13l-4.47-2.653zm10.11-7.647c-4.27 2.838-7.587 4.697-9.197 5.555a1.602 1.602 0 00-.722 1.25c0 .145.04.257.105.29l4.158 2.468L40.919 83.7l-4.839-2.87z" fill="#150035"/><path d="M75.7 31.428l6.088 3.455v.072l-.801 2.918-6.185-3.47a62.7 62.7 0 00.897-2.974z" fill="red"/><path d="M74.434 34.53l.08-.24c.32-.97.617-1.964.881-2.958l.104-.393 6.626 3.76v.2l-.913 3.431-6.778-3.8zm1.466-2.645a45.355 45.355 0 01-.713 2.357l5.608 3.142.641-2.356-5.536-3.143z" fill="#150035"/><path d="M82.413 29.024l-5.496-3.07c.341-2.073.563-4.163.665-6.26l5.48 3.102-.649 6.228z" fill="red"/><path d="M76.572 26.122v-.216a55.43 55.43 0 00.665-6.229v-.505l6.161 3.44-.713 6.94-6.113-3.43zm1.306-5.916a56.007 56.007 0 01-.609 5.611l4.888 2.742.585-5.563-4.864-2.79z" fill="#150035"/><path d="M83.687 20.487v37.674a3.913 3.913 0 01-1.763 3.054l-50.9 29.426c-.472.273-.857.057-.857-.497a1.883 1.883 0 01.881-1.507c6.722-3.59 49.386-27.91 50.924-67.18a1.877 1.877 0 01.874-1.475c.464-.264.84-.04.84.505z" fill="#150035"/><path d="M30.255 90.978a.938.938 0 01-.408-.85 2.19 2.19 0 011.057-1.787c8.212-4.385 49.242-28.24 50.756-66.908a2.182 2.182 0 011.025-1.724.882.882 0 01.906-.048.913.913 0 01.4.802v37.674a4.186 4.186 0 01-1.915 3.327l-50.9 29.45c-.161.1-.346.154-.536.16a.802.802 0 01-.385-.096zm52.743-70.724a1.602 1.602 0 00-.713 1.203c-.65 16.625-8.597 32.496-23.635 47.173A127.479 127.479 0 0131.2 88.894a1.602 1.602 0 00-.72 1.25c0 .145 0 .257.096.289a.336.336 0 00.288-.064l50.9-29.402a3.59 3.59 0 001.602-2.782V20.511a.36.36 0 00-.088-.305h-.064a.504.504 0 00-.216.048z" fill="#150035"/><path d="M72.187 41.15l-.318.538 4.319 2.552.317-.539-4.318-2.552zM53.106 66.59l-.318.54 4.32 2.55.317-.54-4.32-2.55zm17.902-23.336l-.318.539 4.32 2.549.318-.538-4.32-2.55zm-4.323 7.7l-.318.539 4.32 2.55.317-.539-4.32-2.55zM46.87 72.262l-.318.539 4.32 2.549.317-.539-4.32-2.549zM26.831 85.873l-.317.539 4.32 2.55.317-.539-4.32-2.55z" fill="#150035"/><path d="M78.43 21.353l-.256.406 2.866 1.81.257-.407-2.867-1.81z" fill="red"/><path d="M76.396 55.572l-1.402-.802 4.807-2.773 1.402.802-4.807 2.765v.008z" fill="#fff"/><path d="M76.397 55.869l-.128-.08-1.53-.882v-.313l.135-.072 4.936-2.837.128.088 1.514.873v.297l-.128.08-4.927 2.846zm-.922-1.114l.914.529 4.31-2.485-.897-.53-4.327 2.486z" fill="#150035"/><path d="M76.404 55.58v5.611l4.808-2.765v-5.611l-4.808 2.765z" fill="#150035"/><path d="M76.412 61.472l-.265-.136v-5.86l.12-.08 4.944-2.854.256.152v5.924l-.168.064-4.887 2.79zm.24-5.748v5.026l4.319-2.484V53.24l-4.319 2.484z" fill="#150035"/><path d="M74.986 54.763v5.61l1.402.802v-5.611l-1.402-.801z" fill="red"/><path d="M76.388 61.48l-.112-.088-1.514-.874v-5.9l.248-.152.136.072 1.53.89v5.9l-.288.152zm-1.146-1.25l.906.52v-5.033l-.906-.521v5.033z" fill="#150035"/><path d="M76.5 61.352l-.192-.329 4.719-2.717v-5.122h.384v5.362l-.128.048-4.783 2.758z" fill="red"/></g><defs><clipPath id="clip0"><path fill="#fff" transform="translate(25 17)" d="M0 0h59v77H0z"/></clipPath></defs></svg>