<svg width="58" height="57" fill="none" xmlns="http://www.w3.org/2000/svg"><path d="M56.585 51.555h-1.427V14.33c0-.767-.634-1.391-1.414-1.391h-8.628c-.78 0-1.414.624-1.414 1.391v37.225h-2.163V46.83a.842.842 0 00-.85-.835.842.842 0 00-.848.835v4.725h-8.062v-26.67h8.062v18.058c0 .461.38.835.849.835a.842.842 0 00.849-.835V24.607c0-.767-.635-1.391-1.415-1.391h-8.628c-.78 0-1.414.624-1.414 1.391v26.948h-2.164V30.76c0-.768-.634-1.392-1.414-1.392h-8.628c-.78 0-1.414.624-1.414 1.392v20.795h-2.164v-10.53c0-.767-.634-1.391-1.414-1.391H4.256c-.78 0-1.415.624-1.415 1.391v10.53H1.415c-.78 0-1.415.624-1.415 1.391v2.663C0 56.376.635 57 1.415 57h55.17c.78 0 1.415-.624 1.415-1.391v-2.663c0-.767-.635-1.391-1.415-1.391zM45.4 14.608h8.062v36.947H45.4V14.608zm-27.24 16.43h8.062v20.517H18.16V31.038zM4.54 41.303h8.06v10.252H4.539V41.303zM56.303 55.33H1.697v-2.105h54.605v2.105z" fill="red"/><path d="M12.533 24.826a3.039 3.039 0 002.279.39 3.001 3.001 0 001.883-1.296l5.797-8.414a.461.461 0 01.643-.16.85.85 0 00.063.035l8.4 4.314a3.12 3.12 0 002.306.381 3.082 3.082 0 001.942-1.343l5.601-8.687a2.855 2.855 0 003.078 1.593 2.826 2.826 0 001.832-1.149 2.739 2.739 0 00.47-2.087l-1.094-6.096C45.46.791 43.986-.225 42.443.043L36.25 1.118c-1.48.257-2.522 1.658-2.322 3.124a2.762 2.762 0 001.135 1.885c.421.303.907.481 1.415.525l-.737 1.144a.827.827 0 00.262 1.152.857.857 0 001.171-.258l1.697-2.632a.823.823 0 00-.012-.911.855.855 0 00-.853-.358l-1.068.186a1.148 1.148 0 01-.874-.195 1.11 1.11 0 01-.453-.76c-.08-.58.348-1.156.934-1.257l6.193-1.075c.62-.108 1.213.3 1.323.91l1.094 6.096a1.1 1.1 0 01-.189.84 1.137 1.137 0 01-.736.461 1.14 1.14 0 01-1.323-.91l-.24-1.339a.855.855 0 00-1.553-.302l-6.702 10.395c-.2.312-.513.528-.88.608-.365.08-.741.016-1.058-.181a.853.853 0 00-.062-.035l-8.402-4.315a2.177 2.177 0 00-2.93.663l-5.797 8.414a1.315 1.315 0 01-.843.595 1.33 1.33 0 01-.998-.172 1.293 1.293 0 01-.414-1.79l7.622-11.234.01-.016a1.42 1.42 0 011.939-.427c.02.013.04.025.061.035l8.397 4.312c.999.598 2.31.3 2.938-.675l1.056-1.639a.827.827 0 00-.262-1.152.857.857 0 00-1.171.258l-1.056 1.639a.461.461 0 01-.63.138.78.78 0 00-.061-.035l-8.396-4.31c-1.437-.873-3.33-.45-4.242.952L11.61 20.708l-.01.016a2.913 2.913 0 00-.398 2.241 2.96 2.96 0 001.331 1.861z" fill="red"/></svg>