<svg width="643" height="618" fill="none" xmlns="http://www.w3.org/2000/svg"><path d="M242.087 90.706L252.291 200h28.396L248.484 47.495h-12.791L203.487 200h28.399l10.201-109.294z" fill="#201600"/><path d="M214.592 117.633c5.913 3.19 13.937 6.428 24.075 9.714l2.467-26.455c-6.106-2.16-10.936-4.433-14.491-6.818-4.652-3.127-6.978-7.002-6.978-11.625 0-4.953 1.985-8.943 5.954-11.968 3.97-3.026 9.531-4.536 16.684-4.53 7.418 0 13.176 1.807 17.275 5.424 4.099 3.617 6.148 8.68 6.148 15.191H295c0-8.532-2.196-16.153-6.587-22.863-4.392-6.709-10.556-11.903-18.493-15.582-7.939-3.679-16.981-5.518-27.126-5.518-10.075 0-19.167 1.697-27.275 5.09-8.108 3.393-14.321 8.095-18.638 14.106-4.329 6.027-6.492 12.881-6.49 20.564 0 14.79 8.067 26.547 24.201 35.27zm20.562 47.358c-13.187-2.124-19.781-9.769-19.784-22.934H186c0 9.191 2.357 17.264 7.071 24.219 4.714 6.955 11.561 12.446 20.543 16.473a68.887 68.887 0 0019.381 5.354l2.159-23.112z" fill="red"/><path d="M247.182 102.882a177.927 177.927 0 01-4.094-1.3l2.635 28.217c6.441 2.394 11.124 4.709 14.049 6.945 3.912 2.958 5.869 7.205 5.869 12.739 0 5.082-1.952 9.039-5.854 11.871-2.791 2.023-6.375 3.312-10.726 3.89l2.166 23.202c12.157-.994 22.101-4.391 29.832-10.191 9.304-7 13.956-16.655 13.956-28.966 0-11.073-3.806-20.323-11.418-27.747-7.612-7.425-19.75-13.645-36.415-18.66z" fill="red"/><path d="M261.104 37.472L242.087 0l-19.013 37.472 14.789.019 4.224-26.779 4.224 26.779 14.793-.019z" fill="#000A10"/><path d="M575.964 615.97a61.205 61.205 0 0030.183-6.683l-3.225-6.379a54.556 54.556 0 01-53.738-2.48l-153.006-96.919-3.852 6.087 153.006 96.919a61.736 61.736 0 0030.632 9.455zm41.845-12.692c6.517-5.229 16.332-19.332 6.957-35.278l-6.218 3.649c8.628 14.637-4.667 25.569-5.237 26.033l4.498 5.596zM400.04 344.607l1.135-31.096-7.788 1.203c-8.174-17.597-23.865-34.776-47.153-49.36-38.085-24.051-83.44-63.936-134.536-64.935-47.946-1.092-101.537 35.044-138.976 54.851-24.292 12.952-41.186 28.735-50.626 45.828l-7.644-1.802-1.201 32.928-.207-.008C12 360.824 29.98 390.127 66.956 413.307c73.951 46.394 196.415 50.863 273.55 9.981 39.343-20.845 59.23-49.492 59.534-78.681zm-94.041 57.01c-28.627 15.181-66.88-7.111-103.616-8.452-36.735-1.34-71.949 18.133-99.398 1.044-54.889-34.42-52.972-86.938 4.28-117.301 57.253-30.363 148.125-27.013 203.014 7.408 54.889 34.42 52.942 86.833-4.28 117.301z" fill="#150035"/><path d="M65.047 416.351C28.104 393.207 8.453 363.29 9.592 332.056l1.36-37.281 9.29 2.207c10.274-17.235 27.744-32.72 50.73-44.89 6.486-3.43 13.44-7.363 20.782-11.489 35.402-19.916 79.418-44.708 120.007-43.815l1.485.055c41.155 1.501 78.182 27.07 110.906 49.299 8.398 5.773 16.323 11.217 24.029 16.065 22.037 13.813 38.333 30.53 47.325 48.433l9.457-1.454-1.325 36.313c-.704 31.596-22.495 60.313-61.444 80.791-38.949 20.479-89.602 30.083-139.768 28.252-50.167-1.83-99.964-14.718-137.379-38.191zm332.412-98.582l-6.189.951-1.12-2.463c-8.105-17.594-23.924-34.121-45.792-47.823-7.801-5.06-15.795-10.541-24.152-16.485-31.905-21.922-68.03-46.628-107.148-48.056l-1.347-.049c-38.729-.721-81.792 23.552-116.348 43.015-7.413 4.192-14.436 8.122-20.959 11.586-22.808 12.073-39.79 27.437-49.156 44.394l-1.298 2.409-6.067-1.433-1.041 28.54c-1.04 28.504 17.483 56.166 52.088 78.014 72.87 45.697 193.953 50.116 269.959 9.85 36.871-19.413 57.318-46.345 57.622-75.533l.106-2.903.842-24.014zm-155.261 86.156a204.845 204.845 0 00-40.056-6.997 186.843 186.843 0 00-39.491 4.06c-22.272 3.996-43.326 7.795-61.643-3.737-27.475-17.333-42.384-39.846-41.527-63.341.858-23.494 17.367-44.861 46.103-60.177 58.173-30.952 150.841-27.571 206.638 7.54 27.68 17.374 42.451 39.882 41.594 63.377-.857 23.495-17.264 44.865-46.101 60.143a53.407 53.407 0 01-27.864 5.66 193.822 193.822 0 01-37.544-6.663l-.109.135zm1.702-6.858c22.423 5.143 43.565 10.308 60.382 1.373 26.511-14.048 41.518-33.082 42.283-54.055.766-20.972-12.815-41.05-38.231-56.992-53.806-33.793-143.263-37.057-199.388-7.275-26.51 14.048-41.524 33.255-42.283 54.054-.76 20.8 12.815 41.05 38.231 56.993 15.987 10.028 34.778 6.666 56.529 2.755a191.317 191.317 0 0141.094-4.417 210.846 210.846 0 0141.497 7.292l-.114.272z" fill="#150035"/><path d="M347.543 230.424c-73.949-46.429-196.413-50.898-273.55-9.982-77.136 40.917-79.717 111.643-5.766 158.037 73.951 46.395 196.415 50.863 273.55 9.981 77.135-40.881 79.717-111.642 5.766-158.036zM307.27 366.789c-57.253 30.363-148.16 27.046-203.014-7.408-54.853-34.453-52.972-86.937 4.28-117.301 57.253-30.363 148.125-27.012 203.014 7.408 54.889 34.42 52.932 87.109-4.28 117.301z" fill="red"/><path d="M66.318 381.524c-36.943-23.144-56.594-53.061-55.456-84.261 1.139-31.199 22.918-59.605 61.45-80.029 78.017-41.334 202.346-36.832 277.141 10.112 36.907 23.177 56.593 53.095 55.455 84.295-1.139 31.2-22.918 59.605-61.449 79.995-38.992 20.685-89.596 29.91-139.761 28.045-50.165-1.865-99.965-14.684-137.38-38.157zm9.219-157.911c-35.962 19.135-56.454 45.408-57.494 73.912-1.04 28.505 17.49 55.994 52.089 78.015 72.87 45.697 193.986 50.151 269.959 9.85 36.135-19.163 56.592-45.403 57.635-74.011 1.044-28.608-17.448-56.2-52.088-78.014-36.439-22.745-84.901-35.273-133.79-37.057-48.889-1.784-98.17 7.178-136.07 27.314l-.241-.009zm26.672 138.808c-27.405-17.329-42.314-39.843-41.457-63.337.857-23.495 17.367-44.862 46.102-60.178 58.163-30.676 150.831-27.294 206.639 7.54 27.68 17.374 42.451 39.882 41.594 63.377-.858 23.495-17.264 44.866-46.101 60.143-28.838 15.278-66.846 22.298-104.238 20.934-37.392-1.365-74.518-10.953-102.401-28.474l-.138-.005zm207.396-109.855c-53.771-33.791-143.263-37.056-199.388-7.275-26.51 14.048-41.525 33.255-42.283 54.055-.76 20.799 12.815 41.05 38.231 56.992 53.807 33.758 143.264 37.022 199.388 7.275 26.511-14.047 41.518-33.082 42.283-54.054.765-20.973-12.815-41.05-38.231-56.993z" fill="#150035"/><path d="M285.718 409.803l-5.525-.202-1.25 34.275 5.524.201 1.251-34.274zm-236.016-45.7l-5.524-.202-1.25 34.275 5.524.201 1.25-34.274zm46.118 27.492l-5.523-.202-1.251 34.275 5.524.202 1.25-34.275zm196.159-153.408l-5.524-.201-1.252 34.309 5.524.202 1.252-34.31zm-150.876-8.411l-5.524-.202-1.252 34.31 5.524.201 1.252-34.309z" fill="red"/><path d="M241.406 262.67c-33.629-21.12-89.319-23.152-124.294-4.535-34.975 18.617-36.252 50.781-2.624 71.901 33.629 21.12 89.321 23.118 124.294 4.535 34.974-18.582 36.287-50.779 2.624-71.901zm359.521 279.309a2.25 2.25 0 00-.788-3.039L351.737 384.569a3.97 3.97 0 00-2.355.121l-22.598 11.977a8.99 8.99 0 00-4.026 7.049l-.882 24.186a3.464 3.464 0 00.802 2.658L571.08 584.932a2.25 2.25 0 001.682.27 2.249 2.249 0 001.387-.989l26.778-42.234z" fill="#fff"/><path d="M569.276 587.945L320.839 433.572l-.77-.685a7.16 7.16 0 01-1.712-5.183l.882-24.186a12.646 12.646 0 015.937-10.162l22.598-11.977a7.39 7.39 0 014.924-.408l.552.02 248.87 154.838a5.75 5.75 0 012.636 3.556 5.848 5.848 0 01-.783 4.4l-26.71 42.237a5.838 5.838 0 01-5.145 2.684 5.728 5.728 0 01-2.842-.761zM350.679 387.989l-22.033 11.651a5.506 5.506 0 00-2.151 4.004l-.883 24.186 246.471 153.298 25.242-39.904-246.646-153.235z" fill="#150035"/><path d="M598.531 574.482l-22.563 11.977c-2.15 1.133-3.798-.138-3.693-3.006l.883-24.186a9.064 9.064 0 014.062-7.117l22.562-11.943c2.15-1.132 3.798.139 3.694 2.972l-.882 24.186a9.065 9.065 0 01-4.063 7.117z" fill="red"/><path d="M571.56 589.793a6.912 6.912 0 01-2.882-6.298l.882-24.186a12.692 12.692 0 015.972-10.161l22.562-11.943a5.826 5.826 0 016.084.014 6.913 6.913 0 012.883 6.263l-.883 24.186a12.724 12.724 0 01-5.936 10.163l-22.598 11.976a6.705 6.705 0 01-3.487.807 5.606 5.606 0 01-2.597-.821zm25.283-18.314a5.67 5.67 0 002.118-4.04l.845-23.149-21.013 11.169a5.63 5.63 0 00-2.152 4.039l-.839 22.976 20.871-11.07.17.075z" fill="#150035"/><path d="M322.551 411.32l-.599 16.411 250.324 155.722.586-16.066L322.551 411.32zm24.017-5.145l-2.917 4.7 129.155 80.29 2.917-4.699-129.155-80.291zm153.662 96.29l-2.919 4.698 42.779 26.614 2.918-4.698-42.778-26.614z" fill="#150035"/><path d="M208.388 369.789c70.743 2.581 106.249-34.387 106.646-34.823l-4.052-3.607c-.432.468-45.164 46.788-134.998 29.221l-1.063 5.428a214.048 214.048 0 0033.467 3.781z" fill="#fff"/><path d="M265.099 349.543c37.001-13.527 46.381-39.409 46.732-40.503l-5.223-1.817c-.009.242-9.02 24.546-43.394 37.131l1.885 5.189z" fill="#fff"/><path d="M83.836 320.199a76.03 76.03 0 0128.934-27.383l-2.728-4.839a81.321 81.321 0 00-30.98 29.488l4.774 2.734zm241.141 100.412l-5.524-.202-.377 10.331 5.524.202.377-10.331z" fill="red"/><path d="M184.253 305.457c-5.405 4.093-1.276 10.333-.415 11.368-1.812-.551-12.147-3.453-19.68-.718 0 0-.242-.009 0 0 5.439-4.092 1.207-10.335.416-11.402 1.812.55 12.249 3.491 19.783.722-.134-.109.002-.035-.104.03zm-27.849-17.519c-5.404 4.093-1.275 10.333-.414 11.368-1.813-.551-12.147-3.453-19.68-.718 0 0-.242-.009 0 0 5.439-4.092 1.207-10.335.416-11.402 1.812.55 12.249 3.491 19.783.722-.1-.108-.102-.039-.105.03zm57.11 2.015c-5.405 4.093-1.276 10.333-.415 11.367l-.173-.006c-1.777-.549-12.147-3.453-19.68-.718 0 0-.207-.008 0 0 5.405-4.093 1.173-10.336.416-11.402l.173.006c1.778.55 12.249 3.492 19.783.722-.134-.109-.033-.036-.104.031zm-27.918-17.521c-5.404 4.092-1.276 10.332-.415 11.367-1.778-.549-12.147-3.453-19.68-.718 0 0-.207-.008 0 0 5.405-4.093 1.207-10.335.416-11.402 1.813.55 12.284 3.493 19.818.723-.169-.11-.068-.037-.139.03z" fill="#150035"/></svg>