<svg width="58" height="57" fill="none" xmlns="http://www.w3.org/2000/svg"><path d="M54.258 44.672V17.469a4.557 4.557 0 00-1.37-3.25 4.719 4.719 0 00-3.307-1.346h-5.744a14.632 14.632 0 00-4.91-9.159A15.116 15.116 0 0029.095.002H29a15.119 15.119 0 00-9.891 3.682 14.633 14.633 0 00-4.945 9.189H8.422a4.72 4.72 0 00-3.307 1.346 4.557 4.557 0 00-1.37 3.25v27.203l-3.47 3.401a.918.918 0 00-.272.653v3.677c0 1.22.493 2.389 1.37 3.25.434.428.95.766 1.517.997.568.231 1.176.35 1.79.35h48.642c1.24 0 2.43-.484 3.307-1.346a4.557 4.557 0 001.37-3.25v-3.678a.905.905 0 00-.27-.653l-3.471-3.401zm-1.32 1.296l1.871 1.839H3.194l1.87-1.839H52.94zM19.133 6.281c1.024.94 2.18 1.73 3.433 2.345a18.154 18.154 0 00-1 5.166h-5.613a12.63 12.63 0 013.18-7.51zm22.965 7.511h-5.612c-.081-1.76-.418-3.5-1.001-5.166a14.583 14.583 0 003.433-2.345 12.63 12.63 0 013.18 7.511zm-20.486 1.839c.08 1.76.418 3.5 1.001 5.166a14.585 14.585 0 00-3.433 2.345 12.631 12.631 0 01-3.227-7.511h5.66zm6.548 10.645a17.068 17.068 0 01-3.077-4.477 12.413 12.413 0 012.984-.606l.093 5.083zm1.871-5.083c1.048.071 2.083.275 3.078.606a16.788 16.788 0 01-3.171 4.45l.093-5.056zm0-1.839v-3.723h4.677a16.62 16.62 0 01-1.029 4.459 14.795 14.795 0 00-3.741-.736h.093zm-.093-5.562v-3.677a14.798 14.798 0 003.741-.736 16.62 16.62 0 01.936 4.413h-4.677zm0-5.516V3.174a16.774 16.774 0 013.077 4.45c-.993.347-2.027.566-3.077.652zm-1.871 0a12.414 12.414 0 01-3.078-.606 17.064 17.064 0 013.078-4.524v5.13zm0 1.839v3.677h-4.63c.09-1.519.389-3.018.888-4.459 1.207.421 2.465.684 3.742.782zm0 5.516v3.723c-1.275.083-2.533.33-3.742.736a16.62 16.62 0 01-.889-4.46h4.63zm-4.799 6.876a18.747 18.747 0 003.293 4.845 13.19 13.19 0 01-6.1-2.905 12.286 12.286 0 012.807-1.94zm11.468 0a12.284 12.284 0 012.807 1.94 13.19 13.19 0 01-6.1 2.905 18.744 18.744 0 003.293-4.845zm4.135.635a14.585 14.585 0 00-3.433-2.345 18.17 18.17 0 001.048-5.166h5.612a12.631 12.631 0 01-3.227 7.51zM34.735 6.916a18.743 18.743 0 00-3.292-4.845 13.191 13.191 0 016.099 2.905 12.285 12.285 0 01-2.807 1.94zm-11.468 0a12.288 12.288 0 01-2.806-1.94A13.191 13.191 0 0126.56 2.07a18.745 18.745 0 00-3.293 4.845zm5.734 22.505a15.135 15.135 0 009.153-3.087 14.693 14.693 0 005.318-7.945h5.173v22.063H9.357V18.39h5.173a14.693 14.693 0 005.318 7.945 15.135 15.135 0 009.153 3.087zM8.421 14.71h5.613c.006.615.05 1.23.131 1.84H8.422a.944.944 0 00-.662.268.911.911 0 00-.274.65v23.903c0 .243.099.477.274.65a.948.948 0 00.662.269H49.58a.944.944 0 00.661-.27.912.912 0 00.274-.65v-23.9a.911.911 0 00-.274-.65.944.944 0 00-.661-.269h-5.744c.081-.61.125-1.224.131-1.839h5.612c.745 0 1.459.291 1.985.808.526.518.822 1.219.822 1.95v26.66H5.616V17.47c0-.731.295-1.433.821-1.95a2.831 2.831 0 011.985-.808zm44.901 40.45H4.68a2.83 2.83 0 01-1.984-.807 2.734 2.734 0 01-.822-1.95v-2.759h54.255v2.758c0 .732-.296 1.433-.822 1.95a2.831 2.831 0 01-1.985.808z" fill="red"/><path d="M17.504 38.613a.95.95 0 00.587-.018.933.933 0 00.46-.36l1.095-1.645 1.094 1.61a.948.948 0 00.776.414c.09.012.182.012.272-.001a.936.936 0 00.492-.348.908.908 0 00.172-.572v-5.515h-1.87v2.482l-.16-.23a.93.93 0 00-.776-.407.949.949 0 00-.777.407l-.159.23v-2.482h-1.87v5.515a.908.908 0 00.171.572c.12.166.294.289.493.348zm7.483 0a.95.95 0 00.587-.018.933.933 0 00.46-.36l1.095-1.645 1.095 1.61a.93.93 0 00.776.413c.09.013.181.013.271 0a.935.935 0 00.493-.348.908.908 0 00.171-.572v-5.515h-1.87v2.482l-.16-.23a.93.93 0 00-.776-.407.949.949 0 00-.776.407l-.16.23v-2.482h-1.87v5.515a.908.908 0 00.172.572c.12.166.293.289.492.348zm7.483 0c.193.056.399.05.588-.018a.933.933 0 00.46-.36l1.095-1.645 1.094 1.61a.93.93 0 00.776.413c.09.013.182.013.272 0a.935.935 0 00.492-.348.908.908 0 00.172-.572v-5.515h-1.871v2.482l-.159-.23a.93.93 0 00-.776-.407.949.949 0 00-.777.407l-.159.23v-2.482h-1.87v5.515a.908.908 0 00.171.572.94.94 0 00.492.348zm8.69-1.839h-1.87v1.839h1.87v-1.839zm4.678-28.499h4.677v1.839c0 .176.05.348.146.496a.93.93 0 00.79.423c.218 0 .43-.074.598-.211l5.612-4.597A.922.922 0 0058 5.517a.905.905 0 00-.339-.707L52.05.213a.944.944 0 00-1.389.214.907.907 0 00-.145.494v1.838h-4.677a.944.944 0 00-.662.27.912.912 0 00-.274.65v3.677c0 .244.099.478.274.65.176.172.414.27.662.27zm.935-3.677h4.677a.944.944 0 00.662-.27.911.911 0 00.274-.65V2.88l3.217 2.638-3.217 2.639v-.8a.911.911 0 00-.274-.65.944.944 0 00-.662-.27h-4.677V4.599zM5.951 10.822c.168.137.38.212.599.211a.93.93 0 00.789-.423.908.908 0 00.146-.496V8.275h4.677a.944.944 0 00.662-.269.912.912 0 00.274-.65V3.679a.912.912 0 00-.274-.65.944.944 0 00-.662-.27H7.485V.921A.908.908 0 007.34.427a.93.93 0 00-.393-.34.95.95 0 00-.996.126L.34 4.81a.922.922 0 00-.34.707.906.906 0 00.339.708l5.612 4.597zm-.337-7.943v.8c0 .244.099.477.274.65.176.172.414.27.662.27h4.677v1.838H6.55a.944.944 0 00-.662.269.911.911 0 00-.274.65v.8L2.397 5.517 5.614 2.88z" fill="red"/></svg>