<svg width="62" height="57" fill="none" xmlns="http://www.w3.org/2000/svg"><path d="M57.602 0H4.398C1.973 0 0 1.961 0 4.371v35.867c0 2.41 1.973 4.371 4.398 4.371h20.058v2.621c0 1.1-.533 2.137-1.39 2.705l-2.27 1.505h-1.805a2.115 2.115 0 00-2.119 2.106v1.348c0 1.161.951 2.106 2.12 2.106h9.889a.905.905 0 00.908-.903.905.905 0 00-.908-.902h-9.89a.302.302 0 01-.302-.301v-1.348c0-.166.136-.3.302-.3h24.017c.167 0 .303.134.303.3v1.348c0 .166-.136.3-.303.3H33.12a.905.905 0 00-.908.903c0 .499.406.903.908.903h9.89a2.115 2.115 0 002.119-2.106v-1.348a2.116 2.116 0 00-2.12-2.106h-1.804l-2.27-1.505c-.857-.569-1.39-1.605-1.39-2.705v-2.62h20.058c2.425 0 4.398-1.962 4.398-4.372V4.371C62 1.961 60.027 0 57.602 0zM37.926 51.437l.005.003H24.069l.005-.003c1.377-.913 2.198-2.485 2.198-4.206V44.61h9.456v2.62c0 1.722.822 3.294 2.198 4.207zm22.258-11.199a2.577 2.577 0 01-2.582 2.566H4.398a2.577 2.577 0 01-2.581-2.566V4.371a2.577 2.577 0 012.581-2.565h53.204a2.577 2.577 0 012.582 2.565v35.867z" fill="red"/><path d="M58.223 5.156c0-.772-.633-1.401-1.41-1.401H5.187c-.778 0-1.41.629-1.41 1.401v34.297c0 .773.632 1.402 1.41 1.402h51.624c.778 0 1.41-.63 1.41-1.402V5.156zm-47.176.404h45.36v2.66h-45.36V5.56zm-5.453 0H9.23v2.66H5.594V5.56zm50.812 33.49H5.594V10.023h50.812V39.05z" fill="red"/><path d="M8.62 15.224v3.911c0 .946.41 1.797 1.064 2.388V32.93h-.156a.905.905 0 00-.908.903c0 .498.406.902.908.902h18.73a.905.905 0 00.908-.902.905.905 0 00-.909-.903h-.155V21.523a3.214 3.214 0 001.064-2.388v-3.91c0-.997-.816-1.807-1.818-1.807h-16.91c-1.003 0-1.818.81-1.818 1.806zm9.365 17.705h-2.27v-5.627h2.27v5.627zm4.086 0H19.8v-5.627h2.27v5.627zm2.412-17.705h2.865l.001 3.911a1.433 1.433 0 01-2.866 0v-3.911zm-4.682 0h2.866v3.911a1.43 1.43 0 01-1.433 1.425 1.43 1.43 0 01-1.433-1.423v-3.913zm-4.682 0h2.866v3.911a1.434 1.434 0 01-2.866 0v-3.911zm-.909 6.149a3.26 3.26 0 004.683 0 3.26 3.26 0 004.682 0 3.261 3.261 0 002.71.971V32.93h-2.398v-5.951c0-.817-.669-1.482-1.49-1.482h-7.008c-.822 0-1.49.665-1.49 1.482v5.951H11.5V22.344a3.263 3.263 0 002.71-.971zm-3.774-6.149h2.866v3.911A1.43 1.43 0 0111.7 20.55a1.43 1.43 0 01-1.264-1.414v-3.91zm22.579 19.51h19.768a.905.905 0 00.908-.902.905.905 0 00-.908-.903h-.004v-4.424a.905.905 0 00-.909-.902.905.905 0 00-.908.902v4.424H49.19V18.702h1.772v5.59c0 .5.407.903.908.903a.905.905 0 00.909-.902v-6.224c0-.646-.53-1.172-1.18-1.172h-3.046c-.65 0-1.18.526-1.18 1.172v14.86h-1.772v-11.55c0-.646-.529-1.172-1.179-1.172h-3.047c-.65 0-1.179.526-1.179 1.172v11.55h-1.772v-8.24c0-.646-.53-1.172-1.18-1.172h-3.047c-.65 0-1.179.526-1.179 1.172v8.24h-.003a.905.905 0 00-.908.903c0 .498.406.902.908.902zm8.997-12.722h1.773V32.93h-1.773V22.012zm-7.177 3.31h1.772v7.607h-1.772v-7.607z" fill="red"/></svg>