<svg width="58" height="57" fill="none" xmlns="http://www.w3.org/2000/svg"><path d="M56.867 0H38.871c-.459 0-.872.271-1.047.687a1.1 1.1 0 00.245 1.213l4.24 4.166L28.04 20.088 14.865 7.138a1.147 1.147 0 00-1.602 0L.336 19.843a1.1 1.1 0 000 1.574c.22.217.51.326.8.326.29 0 .58-.108.802-.326L14.064 9.5l15.78 15.509a1.145 1.145 0 001.602 0 1.1 1.1 0 000-1.575l-1.803-1.772L43.91 7.641l6.326 6.216-11.497 11.3a1.1 1.1 0 000 1.574 1.145 1.145 0 001.602 0l11.497-11.3 4.228 4.156a1.143 1.143 0 001.235.242c.423-.173.699-.579.699-1.029V1.113C58 .5 57.493 0 56.867 0zm-1.133 16.112L41.605 2.227h14.13v13.885zm-18.198 11.8a1.146 1.146 0 00-1.601 0 1.107 1.107 0 00-.332.787c0 .293.12.58.332.787a1.15 1.15 0 001.601 0 1.11 1.11 0 00.332-.787c0-.293-.12-.58-.332-.787z" fill="red"/><path d="M21.805 29.541l-6.14-6.034 1.828-1.796a1.1 1.1 0 000-1.575 1.147 1.147 0 00-1.602 0L.334 35.426a1.1 1.1 0 000 1.574 1.145 1.145 0 001.602 0l12.127-11.918 6.14 6.034a1.145 1.145 0 001.602 0 1.1 1.1 0 000-1.575zm7.248 11.305H29c-.626 0-1.133.499-1.133 1.114 0 .614.507 1.113 1.133 1.113h.044c.622 0 1.128-.493 1.133-1.105a1.123 1.123 0 00-1.124-1.122z" fill="red"/><path d="M56.867 54.773H54.88v-4.989c0-.51-.355-.956-.86-1.08l-5.265-1.289-1.887-4.476 2.795-4.57a1.1 1.1 0 00-.17-1.36l-4.39-4.315a1.148 1.148 0 00-1.385-.167l-4.65 2.747-4.554-1.855-1.311-5.174a1.13 1.13 0 00-1.1-.844h-6.207c-.52 0-.974.348-1.1.844l-1.311 5.174-4.554 1.855-4.65-2.747a1.148 1.148 0 00-1.385.167l-4.39 4.315a1.099 1.099 0 00-.17 1.36l2.795 4.57-1.887 4.476-5.265 1.29a1.117 1.117 0 00-.86 1.08v4.988H1.134c-.626 0-1.133.499-1.133 1.114A1.123 1.123 0 001.133 57h55.734c.625 0 1.132-.498 1.132-1.113s-.507-1.114-1.132-1.114zm-4.253 0H41.037a11.864 11.864 0 00-3.412-10.415 12.13 12.13 0 00-4.273-2.725 1.139 1.139 0 00-1.462.643c-.223.575.07 1.218.655 1.437a9.875 9.875 0 013.478 2.22 9.657 9.657 0 012.71 8.84H19.266a9.657 9.657 0 012.71-8.84 9.875 9.875 0 013.516-2.234c.586-.217.882-.859.661-1.434a1.14 1.14 0 00-1.46-.65 12.13 12.13 0 00-4.319 2.743 11.863 11.863 0 00-3.411 10.415H5.385v-4.119l4.96-1.214c.35-.085.636-.328.773-.654l2.325-5.513c.138-.326.11-.697-.076-1l-2.633-4.305 3.138-3.084 4.38 2.588c.309.182.687.21 1.018.074l5.61-2.284c.332-.135.578-.417.665-.76l1.236-4.875h4.437l1.236 4.875c.087.343.334.625.665.76l5.61 2.284c.332.136.71.108 1.017-.074l4.381-2.588 3.138 3.084-2.633 4.305a1.096 1.096 0 00-.076 1l2.325 5.513c.137.326.424.569.773.654l4.96 1.215v4.118z" fill="red"/></svg>