<svg width="71" height="57" fill="none" xmlns="http://www.w3.org/2000/svg"><path d="M67.043 0H23.345c-.576 0-1.042.471-1.042 1.053 0 .58.466 1.052 1.042 1.052h43.698c1.033 0 1.873.849 1.873 1.891v37.176H2.084V3.996c0-1.043.84-1.891 1.873-1.891h15.22c.575 0 1.042-.471 1.042-1.053 0-.58-.467-1.052-1.042-1.052H3.957C1.775 0 0 1.793 0 3.996v49.008C0 55.207 1.775 57 3.957 57h11.447c.576 0 1.042-.471 1.042-1.052 0-.582-.466-1.053-1.042-1.053H3.957a1.884 1.884 0 01-1.873-1.891v-9.728h66.832v9.728c0 1.043-.84 1.891-1.873 1.891h-47.47c-.576 0-1.043.471-1.043 1.053 0 .58.467 1.052 1.042 1.052h47.471C69.225 57 71 55.207 71 53.004V3.996C71 1.793 69.225 0 67.043 0z" fill="red"/><path d="M29.367 53.373c1.981 0 3.65-1.378 4.115-3.235h28.706c.575 0 1.042-.47 1.042-1.052 0-.581-.467-1.052-1.042-1.052H33.481c-.465-1.857-2.134-3.235-4.115-3.235-1.981 0-3.65 1.378-4.115 3.235H8.812c-.575 0-1.042.47-1.042 1.052 0 .581.467 1.052 1.043 1.052h16.439c.465 1.857 2.134 3.235 4.115 3.235zm0-6.47c1.191 0 2.16.98 2.16 2.183 0 1.203-.969 2.182-2.16 2.182a2.174 2.174 0 01-2.161-2.182c0-1.203.97-2.182 2.161-2.182zm-3.672-30.445c-.2-.49-.667-.807-1.192-.807h-.001a1.285 1.285 0 00-1.202.833l-4.092 10.852c-.498 1.266 1.477 2.037 1.947.75l.764-2.025h5.137l.756 2.021c.459 1.285 2.446.527 1.95-.743l-4.056-10.852a1.436 1.436 0 00-.011-.029zm-2.982 7.498l1.786-4.738 1.77 4.738h-3.556zm9.246 3.581c-.028.623.412 1.244 1.067 1.226.09 0 2.225-.008 3.076-.023 3.018-.054 5.208-2.732 5.208-6.37 0-3.824-2.136-6.393-5.314-6.393h-2.995c-.277 0-.542.111-.738.31a1.057 1.057 0 00-.304.745v10.505zm4.037-9.455c2.381 0 3.23 2.215 3.23 4.288 0 2.027-.99 4.227-3.16 4.265-.457.008-1.316.014-2.005.018-.004-1.257-.01-3.312-.01-4.295 0-.824-.004-2.972-.006-4.276h1.951zm11.543 8.576c-1.172 0-2.304-.48-3.026-1.286a1.035 1.035 0 00-1.472-.073 1.06 1.06 0 00-.073 1.487c1.111 1.238 2.82 1.977 4.57 1.977 2.108 0 3.944-1.398 4.272-3.253.248-1.405-.4-3.248-2.964-4.203a58.006 58.006 0 01-3.021-1.234 1.084 1.084 0 01-.42-1.043c.076-.532.484-.96 1.092-1.146 1.709-.52 3.26.731 3.294.76.441.37 1.096.312 1.465-.131a1.06 1.06 0 00-.127-1.483c-.098-.083-2.42-2.017-5.233-1.16-1.385.42-2.363 1.517-2.554 2.861a3.19 3.19 0 001.403 3.146c.046.03.095.057.145.08a58.53 58.53 0 003.234 1.325c1.17.436 1.766 1.113 1.634 1.858-.132.747-.998 1.518-2.22 1.518z" fill="red"/><path d="M49.364 33.792h5.988c1.724 0 3.126-1.417 3.126-3.158V13.78c0-1.74-1.402-3.157-3.126-3.157H15.648c-1.724 0-3.126 1.416-3.126 3.157v16.855c0 1.74 1.402 3.157 3.126 3.157h29.548c.575 0 1.042-.472 1.042-1.053 0-.58-.467-1.052-1.042-1.052H15.648a1.048 1.048 0 01-1.042-1.053V13.78c0-.58.467-1.052 1.042-1.052h39.704c.575 0 1.042.472 1.042 1.052v16.855c0 .58-.468 1.052-1.042 1.052h-5.988c-.576 0-1.042.471-1.042 1.052 0 .582.466 1.053 1.042 1.053z" fill="red"/></svg>