<svg width="126" height="167" fill="none" xmlns="http://www.w3.org/2000/svg"><path d="M123.474 153.999c-13.12-3.28-21.095-15.976-24.054-21.598l8.671-2.891c1.97 3.171 6.209 8.929 11.993 10.857a2.811 2.811 0 003.558-1.78 2.814 2.814 0 00-1.778-3.559c-4.766-1.588-8.805-7.885-9.962-10.178a2.812 2.812 0 00-3.404-1.406l-13.817 4.606c-.883.235-25.246 6.638-44.92 2.267-12.404-2.757-24.152-11.529-32.73-17.936a479.043 479.043 0 00-3.288-2.44c-1.461-1.068-3.728-1.935-5.73-2.702-.85-.324-2.009-.77-2.226-.892a.42.42 0 01-.16-.342v-5.351c.19-4.47 17.95-69.642 20.581-77.665a1.49 1.49 0 01.35-.24l34.9-15.941 11.15 14.519c.424.58.385 1.392-.093 1.928l-11.264 12.63c-.558.62-1.495.694-2.042.237l-4.555-4.2c-.665-.614-1.566-.909-2.453-.723a2.736 2.736 0 00-1.98 1.571c-.589.727-3.982 1.447-6.913 1.474l-1.119-.112c-1.126-.12-2.2.45-2.744 1.432a2.814 2.814 0 00.234 3.087c.912 1.18 1.637 2.142 2.08 2.737L43.98 79.19 42 83.154a2.812 2.812 0 002.513 4.07c1.033 0 2.028-.57 2.52-1.556l2.01-4.026c18.044-13.596 33.834-.999 35.237.178 5.636 5.659 6.06 9.405 6.076 9.616a2.816 2.816 0 002.814 2.738 2.813 2.813 0 002.813-2.814c0-.543-.2-5.153-6.054-11.738 8.622-10.441 18.881-13.812 30.522-10a2.813 2.813 0 101.747-5.347c-9.756-3.198-23.836-3.626-36.513 11.635-5.541-3.66-20.06-11.017-36.337-1.27l-2.024-34.416a2.67 2.67 0 00-.113-.641c1.846-.271 3.912-.785 5.55-1.753l2.731 2.515a7.128 7.128 0 009.956-.716L76.714 27c2.23-2.504 2.418-6.285.398-9.046L64.556 1.607A2.819 2.819 0 0061.158.76L24.254 17.616c-.42.186-2.546 1.215-3.258 3.35C18.84 27.43 0 95.281 0 100.628v5.378a6.02 6.02 0 002.316 4.772c.73.571 1.767.982 3.684 1.715 1.506.577 3.566 1.365 4.42 1.989 1.017.745 2.1 1.554 3.242 2.407 8.987 6.711 21.295 15.902 34.879 18.92 17.83 3.963 38.504-.157 45.37-1.771 2.775 5.591 11.18 19.997 26.067 24.808v4.832a2.813 2.813 0 105.627 0v-6.951a2.813 2.813 0 00-2.131-2.729z" fill="#4F5155"/><path d="M76.36 118.728c-29.973 6.433-42.806-14.046-43.34-14.921a2.813 2.813 0 00-4.819 2.902c.158.259 3.9 6.406 11.879 11.623 5.492 3.59 13.869 7.251 25.187 7.251 3.764 0 7.855-.405 12.276-1.352a2.812 2.812 0 002.159-3.341 2.8 2.8 0 00-3.341-2.162z" fill="#4F5155"/></svg>