<svg width="35" height="35" fill="none" xmlns="http://www.w3.org/2000/svg"><path d="M17.5 1.789l5.088 7.544.829-.559-.83.56a2 2 0 001.108.804l8.747 2.507-5.603 7.17a2 2 0 00-.423 1.301l.319 9.095-8.55-3.114a2 2 0 00-1.37 0l-8.55 3.114.319-9.095a2 2 0 00-.423-1.301l-5.603-7.17 8.747-2.507a2 2 0 001.107-.805L17.5 1.79z" stroke="red" stroke-width="2"/><path d="M17.085 9.51a.5.5 0 01.83 0l2.29 3.395a1.5 1.5 0 00.83.603l3.937 1.128a.5.5 0 01.256.789l-2.522 3.227a1.5 1.5 0 00-.317.976l.143 4.093a.5.5 0 01-.67.488l-3.849-1.402a1.501 1.501 0 00-1.026 0l-3.849 1.402a.5.5 0 01-.67-.488l.143-4.093a1.5 1.5 0 00-.317-.976l-2.522-3.227a.5.5 0 01.256-.789l3.937-1.128a1.5 1.5 0 00.83-.603l2.29-3.396z" stroke="red"/></svg>