<svg width="27" height="32" fill="none" xmlns="http://www.w3.org/2000/svg"><path d="M13.242 0L0 4.017v8.333c0 4.37 1.26 8.55 3.646 12.087 2.334 3.461 5.551 6.038 9.303 7.453l.293.11.293-.11c3.752-1.415 6.97-3.992 9.303-7.453 2.386-3.537 3.646-7.716 3.646-12.087V4.017L13.242 0zm0 25.934c-2.103-1.09-3.935-2.736-5.315-4.782a15.548 15.548 0 01-2.561-7.067l7.876-2.389 7.877 2.39a15.547 15.547 0 01-2.561 7.066c-1.38 2.046-3.213 3.693-5.316 4.782zm7.969-13.77l-7.969-2.417-7.969 2.417V8.265l7.97-2.417 7.968 2.417v3.899zm-19.453.186V5.433l10.605-3.217v1.95L3.516 6.848v5.501c0 3.58 1.032 7.002 2.984 9.897 1.526 2.263 3.545 4.09 5.863 5.315v2.066C5.971 26.655 1.758 19.873 1.758 12.35zm22.969 0c0 7.523-4.214 14.305-10.606 17.279v-2.067c2.318-1.225 4.337-3.052 5.864-5.315 1.952-2.895 2.984-6.317 2.984-9.897v-5.5L14.12 4.165v-1.95l10.606 3.218v6.917z" fill="red"/></svg>