<svg width="39" height="31" fill="none" xmlns="http://www.w3.org/2000/svg"><path d="M36.676 13.434l-6.111-6.74c-1.172-1.18-3.206-1.187-4.399.01a3.054 3.054 0 00-.785 1.348c-1.186-.914-2.996-.814-4.09.284a3.097 3.097 0 00-.788 1.346c-1.183-.914-2.994-.81-4.086.285a3.1 3.1 0 00-.78 1.317l-2.88-2.891a3.102 3.102 0 00-4.4.01 3.128 3.128 0 000 4.406L19.42 23.917l-6.559 1.035a3.65 3.65 0 00-3.111 3.6A2.445 2.445 0 0012.187 31h15.322a8.871 8.871 0 006.322-2.63l2.554-2.567A8.918 8.918 0 0039 19.466a8.97 8.97 0 00-2.324-6.032zm-1.44 11.217l-2.555 2.567a7.259 7.259 0 01-5.172 2.15H12.187a.815.815 0 01-.813-.815 2.02 2.02 0 011.726-1.99l8.15-1.285a.814.814 0 00.448-1.382L9.506 11.654a1.496 1.496 0 011.056-2.543c.379 0 .757.145 1.047.435l4.77 4.79c.012.014.026.027.04.04l3.32 3.333a.81.81 0 001.15 0 .819.819 0 000-1.153l-3.35-3.363a1.498 1.498 0 01.038-2.082c.559-.558 1.53-.561 2.09 0l1.597 1.605c.01.01.018.02.028.028l1.696 1.702a.81.81 0 001.149 0 .819.819 0 000-1.153L22.42 11.57a1.5 1.5 0 01.03-2.092c.558-.558 1.532-.56 2.09 0l1.697 1.71.003.004.002.001a.411.411 0 00.008.005l.002.002.001.001h.003a.81.81 0 001.131-.02.818.818 0 00-.001-1.153l-.098-.098a1.497 1.497 0 01.036-2.083c.559-.558 1.556-.534 2.064-.028l6.083 6.714a7.33 7.33 0 011.901 4.934c0 1.956-.76 3.798-2.138 5.183z" fill="#fff"/><path d="M26.248 11.198h.001l-.003-.002c.002.002.004.002.002.002zM17.22 7.593c-1.185-2.63-3.796-4.33-6.658-4.33-4.031 0-7.312 3.294-7.312 7.342a7.36 7.36 0 004.31 6.685.813.813 0 001.076-.408.819.819 0 00-.406-1.08 5.723 5.723 0 01-3.355-5.197c0-3.149 2.55-5.71 5.687-5.71 2.223 0 4.254 1.323 5.176 3.369a.81.81 0 001.075.408.818.818 0 00.406-1.079z" fill="#fff"/><path d="M20.759 7.879C19.532 3.24 15.338 0 10.562 0 4.738 0 0 4.758 0 10.605c0 4.795 3.227 9.007 7.848 10.238a.81.81 0 00.993-.578.815.815 0 00-.577-.998c-3.908-1.042-6.639-4.604-6.639-8.662 0-4.948 4.01-8.973 8.937-8.973 4.04 0 7.589 2.74 8.627 6.666a.806.806 0 00.994.58.818.818 0 00.576-1z" fill="#fff"/></svg>