<svg width="179" height="48" fill="none" xmlns="http://www.w3.org/2000/svg"><path d="M37.654 45c-2.262 0-4.103-.608-5.523-1.823-1.42-1.214-2.13-2.832-2.131-4.853v-.35c0-1.356.3-2.568.898-3.637.554-1.025 1.44-1.884 2.548-2.47C34.543 31.29 35.795 31 37.2 31c2.106 0 3.767.582 4.982 1.746 1.215 1.164 1.82 2.815 1.817 4.954v1.472h-9.825c.136.883.538 1.59 1.205 2.122.667.532 1.517.798 2.548.798 1.587 0 2.827-.503 3.72-1.51l2.024 1.984c-.64.784-1.507 1.403-2.512 1.795a9.243 9.243 0 01-3.506.638zm-.471-11.093c-.815 0-1.478.242-1.988.727s-.836 1.178-.977 2.08h5.73v-.288c-.02-.803-.266-1.423-.741-1.861-.475-.439-1.15-.658-2.024-.658zM45 37.877c0-1.34.282-2.533.846-3.582.532-1.015 1.381-1.862 2.441-2.434 1.06-.575 2.292-.862 3.694-.861 1.994 0 3.621.558 4.882 1.673 1.26 1.115 1.964 2.629 2.11 4.542l.027.924c0 2.072-.633 3.734-1.898 4.987-1.265 1.253-2.963 1.878-5.093 1.874-2.13 0-3.83-.625-5.1-1.874-1.268-1.25-1.904-2.947-1.904-5.093L45 37.877zm3.946.256c0 1.283.263 2.265.791 2.945.528.68 1.284 1.02 2.267 1.02.956 0 1.702-.336 2.24-1.007.536-.671.805-1.744.805-3.219 0-1.258-.269-2.233-.806-2.925-.537-.692-1.292-1.038-2.266-1.037-.965 0-1.711.343-2.24 1.03-.528.688-.792 1.752-.791 3.193z" fill="#201600"/><path d="M73 45h-4V27h4v18z" fill="red"/><path d="M79.79 31.253l.126 1.588c1.075-1.227 2.518-1.84 4.327-1.841 1.593 0 2.78.427 3.563 1.282.783.855 1.18 2.134 1.194 3.836v8.878h-4.024v-8.785c0-.778-.186-1.344-.556-1.696-.371-.352-.988-.528-1.851-.527-1.133 0-1.982.44-2.547 1.32V45H76V31.253h3.79zm16.467-3.249v3.302h2.589v2.636h-2.589v6.712c0 .497.108.852.322 1.066.214.214.624.322 1.231.324a7.28 7.28 0 001.19-.089v2.722a9.324 9.324 0 01-2.45.323c-2.835 0-4.28-1.272-4.337-3.816v-7.239H90v-2.639h2.21V28l4.047.004zM107.654 45c-2.261 0-4.102-.608-5.523-1.823-1.421-1.214-2.131-2.832-2.131-4.853v-.35c0-1.356.299-2.568.898-3.637.554-1.025 1.44-1.884 2.548-2.47 1.097-.578 2.349-.867 3.755-.867 2.107 0 3.767.582 4.982 1.746 1.215 1.164 1.82 2.815 1.817 4.954v1.472h-9.82c.135.883.537 1.59 1.204 2.122.667.532 1.517.798 2.548.798 1.586 0 2.826-.503 3.72-1.51l2.024 1.984c-.64.784-1.508 1.403-2.513 1.795a9.245 9.245 0 01-3.509.638zm-.466-11.093c-.815 0-1.478.242-1.988.727-.511.485-.836 1.178-.977 2.08h5.73v-.288c-.019-.803-.266-1.423-.741-1.861-.475-.439-1.15-.658-2.024-.658zm12.309-2.654l.116 1.588c.993-1.227 2.325-1.84 3.996-1.841 1.47 0 2.566.427 3.289 1.282.722.855 1.09 2.134 1.102 3.836v8.878h-3.713v-8.785c0-.778-.172-1.344-.514-1.696-.342-.352-.912-.528-1.709-.527-1.045 0-1.829.44-2.351 1.32V45H116V31.253h3.497zm19.54 9.767c0-.441-.247-.789-.74-1.043-.494-.254-1.285-.48-2.376-.68-3.629-.674-5.444-2.038-5.444-4.092 0-1.198.561-2.198 1.685-3.001 1.123-.803 2.591-1.205 4.406-1.204 1.935 0 3.484.403 4.645 1.21 1.162.807 1.744 1.855 1.748 3.144h-4.076a1.559 1.559 0 00-.133-.69 1.736 1.736 0 00-.43-.588c-.377-.338-.964-.506-1.763-.506-.686 0-1.217.137-1.593.412a1.346 1.346 0 00-.421.465 1.178 1.178 0 00-.143.584c0 .398.214.721.642.966.429.244 1.148.458 2.164.637a19.45 19.45 0 012.566.605c2.151.698 3.226 1.909 3.226 3.63 0 1.232-.597 2.228-1.791 2.99-1.193.761-2.735 1.142-4.624 1.141-1.277 0-2.412-.202-3.405-.605-.993-.403-1.771-.957-2.334-1.66a3.574 3.574 0 01-.846-2.277h3.864c.037.64.306 1.132.806 1.473.5.34 1.168.51 2.002.51.781 0 1.371-.13 1.77-.392.187-.115.34-.269.443-.449.104-.18.156-.379.152-.58zm5.964-13.144c-.01-.25.045-.5.16-.732.116-.232.29-.442.511-.616.448-.352 1.057-.528 1.828-.528.771 0 1.378.176 1.822.528.436.36.679.847.678 1.353-.001.506-.248.991-.686 1.35-.458.353-1.063.529-1.814.528-.751 0-1.355-.175-1.813-.524a1.819 1.819 0 01-.522-.62 1.495 1.495 0 01-.164-.739zM149.733 45h-4.474V31.393h4.474V45zM158 40.438L160.795 31H165l-5.078 14h-3.844L151 31h4.205L158 40.438zM173.107 45c-2.1 0-3.81-.608-5.128-1.823-1.319-1.214-1.978-2.832-1.979-4.853v-.35c0-1.356.278-2.568.834-3.637a5.907 5.907 0 012.366-2.47c1.018-.578 2.181-.867 3.487-.867 1.956 0 3.498.582 4.626 1.746 1.128 1.164 1.69 2.815 1.687 4.954v1.472h-9.118c.123.883.495 1.59 1.118 2.122.622.532 1.41.798 2.365.798 1.474 0 2.626-.503 3.455-1.51l1.879 1.984a5.682 5.682 0 01-2.336 1.795 8.046 8.046 0 01-3.256.638zm-.437-11.093c-.757 0-1.373.242-1.846.727-.474.485-.776 1.178-.906 2.08h5.319v-.288c-.018-.803-.247-1.423-.688-1.861-.44-.439-1.067-.658-1.879-.658zM14.5 21.483L17.012 48H24l-7.925-37h-3.149L5 48h6.99l2.51-26.517z" fill="#201600"/><path d="M7.246 27.707c1.526.753 3.598 1.517 6.214 2.293l.637-6.243c-1.576-.51-2.823-1.047-3.74-1.61-1.201-.738-1.801-1.652-1.801-2.743 0-1.17.512-2.11 1.537-2.825 1.024-.714 2.46-1.07 4.306-1.069 1.914 0 3.4.427 4.459 1.28 1.057.854 1.586 2.049 1.586 3.585H28c0-2.013-.567-3.812-1.7-5.395-1.134-1.584-2.725-2.81-4.773-3.678-2.05-.868-4.383-1.302-7.002-1.302-2.6 0-4.947.4-7.04 1.201-2.092.801-3.696 1.91-4.81 3.33C1.558 15.952 1 17.57 1 19.383c0 3.49 2.082 6.265 6.246 8.323zM13 39.479C9.512 38.97 7.768 37.145 7.768 34H0c0 2.196.623 4.124 1.87 5.786 1.247 1.661 3.058 2.973 5.433 3.935A19.75 19.75 0 0012.43 45l.57-5.521z" fill="red"/><path d="M16.025 24.314A46.202 46.202 0 0115 24l.66 6.822c1.612.579 2.785 1.138 3.517 1.679.98.715 1.47 1.742 1.47 3.08 0 1.228-.49 2.185-1.466 2.87-.7.489-1.597.8-2.686.94L17.038 45c3.043-.24 5.533-1.061 7.468-2.464C26.836 40.844 28 38.51 28 35.534c0-2.678-.953-4.913-2.858-6.708-1.906-1.796-4.945-3.3-9.117-4.512z" fill="red"/><path d="M19 8.996L14.5 0 10 8.996 13.5 9l1-6.428L15.5 9l3.5-.004z" fill="#000A10"/></svg>