<svg width="133" height="133" fill="none" xmlns="http://www.w3.org/2000/svg"><path d="M77.411 4.622a69.35 69.35 0 0114.53 51.213 69.32 69.32 0 01-8.095 25.403 69.1 69.1 0 01-17.432 20.75l-8.074.207 2.067-7.83A59.444 59.444 0 0082.3 54.708a59.458 59.458 0 00-12.5-44.067 4.852 4.852 0 117.611-6.02zm7.547 104.98a4.855 4.855 0 00-4.975-4.726l-25.872.663 6.607-25.023a4.852 4.852 0 10-9.384-2.477l-8.259 31.278a4.854 4.854 0 004.817 6.09l32.34-.829a4.863 4.863 0 003.393-1.509 4.852 4.852 0 001.333-3.467z" fill="red"/></svg>