<svg width="822" height="1046" fill="none" xmlns="http://www.w3.org/2000/svg"><path d="M120.263 850.197l-8.057 4.719a3.767 3.767 0 01-3.194 0l-7.258-4.429c-1.016-.508-1.089-1.379 0-1.887l8.129-4.647a3.56 3.56 0 013.194 0l7.259 4.429c.653.508.798 1.379-.073 1.815zm19.815-11.399l-8.057 4.647a3.484 3.484 0 01-3.266 0l-7.259-4.356c-.944-.581-1.016-1.38 0-1.888l7.549-4.792a3.338 3.338 0 013.194 0l7.621 4.357c.944.726 1.089 1.524.218 2.032zm-1.234 22.655l-8.057 4.646a3.484 3.484 0 01-3.266 0l-7.259-4.356c-1.016-.581-1.089-1.379 0-1.888l8.13-4.646a3.338 3.338 0 013.194 0l7.621 4.356c.581.218.726 1.016-.363 1.888zm-19.598 11.033l-8.057 4.719a3.767 3.767 0 01-3.194 0l-7.258-4.428c-.944-.509-1.089-1.38 0-1.888l8.057-4.647a3.554 3.554 0 013.194 0l7.258 4.429c.726.508.871 1.379 0 1.815zm39.633-22.87l-8.057 4.574a3.986 3.986 0 01-3.267 0l-7.259-4.428c-.943-.581-1.016-1.38 0-1.888l8.058-4.647a3.7 3.7 0 013.266 0l7.622 4.429c.363.653.435 1.525-.363 1.96zm19.816-11.399l-8.057 4.647a3.484 3.484 0 01-3.267 0l-7.258-4.357c-.944-.581-1.017-1.452 0-1.887l7.766-4.793a3.484 3.484 0 013.267 0l7.621 4.357c.654.726.726 1.525-.072 2.033zm-19.744 34.342l-8.057 4.647a3.484 3.484 0 01-3.267 0l-7.258-4.356c-1.016-.581-1.089-1.38 0-1.888l8.129-4.647a3.337 3.337 0 013.194 0l7.622 4.357c.363.581.508 1.379-.363 1.887zm-20.107 11.399l-8.057 4.72a3.78 3.78 0 01-3.194 0l-7.621-4.429c-.944-.508-1.089-1.38 0-1.815l8.057-4.72a3.78 3.78 0 013.194 0l7.258 4.429c1.379.509 1.525 1.089.363 1.815zm39.923-22.508l-8.057 4.719a3.978 3.978 0 01-3.266 0l-7.259-4.429c-.943-.508-1.016-1.379 0-1.815l7.694-5.227a3.986 3.986 0 013.267 0l7.258 4.429c1.089.653 1.162 1.524.363 2.323zm19.816-11.761l-8.057 4.502a3.484 3.484 0 01-3.266 0l-7.622-4.356c-.944-.581-1.016-1.38 0-1.888l8.057-4.647a3.483 3.483 0 013.267 0l7.621 4.356c.726.727.799 1.525 0 2.033zm-20.832 33.543l-8.057 4.719a3.978 3.978 0 01-3.266 0l-7.259-4.429c-1.016-.508-1.089-1.379 0-1.815l8.13-4.719a3.767 3.767 0 013.194 0l7.258 4.429c.726.653.871 1.815 0 1.815zm19.817-11.254l-7.912 4.647a3.485 3.485 0 01-3.267 0l-7.621-4.356c-.944-.581-1.017-1.38 0-1.888l8.057-4.647a3.483 3.483 0 013.266 0l7.259 4.357c.943.58 1.016 1.379.218 1.887zm19.816-11.471l-8.057 4.719a3.986 3.986 0 01-3.267 0l-7.621-4.429c-.944-.508-1.017-1.379 0-1.815l7.839-4.792a3.997 3.997 0 013.266 0l7.622 4.429c.944.581 1.016 1.452.218 1.888zm-1.016 22.291l-8.057 4.719a3.981 3.981 0 01-3.266 0l-7.622-4.283c-.944-.509-1.016-1.38 0-1.816l8.057-4.719a3.997 3.997 0 013.266 0l7.259 4.429c1.089.363 1.162 1.234.363 1.67zm161.36 102.084l-8.057 4.646a3.7 3.7 0 01-3.266 0l-7.622-4.646c-.944-.509-1.016-1.38 0-1.816l8.057-4.719a3.997 3.997 0 013.267 0l7.621 4.429c.653.363.653 1.234 0 2.106zm-1.017 21.778l-8.057 4.65a3.7 3.7 0 01-3.266 0l-7.622-4.65c-.944-.51-1.016-1.38 0-1.81l8.057-4.72a3.966 3.966 0 013.266 0l7.622 4.43c.726.87.798 2.1 0 2.1zm19.816-11.323l-8.057 4.647a3.495 3.495 0 01-3.266 0l-7.259-4.356c-.943-.581-1.016-1.38 0-1.888l8.057-4.647a3.483 3.483 0 013.267 0l7.258 4.356c.726.581.799 1.38 0 1.888zm.073 22.943l-8.057 4.65c-.503.26-1.064.4-1.634.4-.569 0-1.13-.14-1.633-.4l-7.621-4.36c-.944-.58-1.017-1.45 0-1.89l8.057-4.64a3.7 3.7 0 013.266 0l7.259 4.42c1.089.51 1.161 1.31.363 1.82zm19.816-11.62l-8.057 4.65a3.7 3.7 0 01-3.267 0l-7.258-4.43c-.944-.58-1.016-1.38 0-1.89l8.057-4.64a3.702 3.702 0 011.633-.383c.566 0 1.125.133 1.633.383l7.622 4.43c.363.72.435 1.88-.363 1.88zm-1.016 22.44l-8.057 4.64a3.7 3.7 0 01-3.266 0l-7.259-4.42c-.943-.59-1.016-1.38 0-1.89l8.057-4.65a3.704 3.704 0 013.267 0l7.258 4.43c.726.58.799 1.23 0 1.89zm19.816-11.4l-8.13 4.64a3.307 3.307 0 01-3.194 0l-7.621-4.35c-.944-.58-1.089-1.45 0-1.89l8.057-4.65a3.7 3.7 0 013.266 0l7.259 4.43c1.089.51 1.161 1.31.363 1.82zm-1.017 22.29l-8.057 4.65c-.503.26-1.064.4-1.633.4-.57 0-1.13-.14-1.633-.4l-7.622-4.36c-.944-.58-1.016-1.45 0-1.89l8.057-4.64a3.7 3.7 0 013.266 0l7.259 4.43c1.089.5 1.162 1.3.363 1.81zm19.818-11.54l-8.13 4.64a3.545 3.545 0 01-3.194 0l-7.258-4.43c-.944-.58-1.089-1.38 0-1.88l8.057-4.65a3.7 3.7 0 013.266 0l7.259 4.43c.726.65.798 1.89 0 1.89zm19.743-11.33l-8.057 4.65c-.49.26-1.039.4-1.597.4s-1.107-.14-1.597-.4l-7.622-4.36c-.943-.58-1.089-1.45 0-1.89l8.057-4.65a3.674 3.674 0 011.597-.37c.555 0 1.102.13 1.597.37l7.259 4.43c1.089.51 1.234 1.31.363 1.82zm19.816-11.47l-8.057 4.64a3.545 3.545 0 01-3.194 0l-7.259-4.43c-1.016-.58-1.088-1.38 0-1.88l8.13-4.651a3.56 3.56 0 013.194 0l7.622 4.361c.508.65.508 1.52-.436 1.96zm19.816-11.404l-8.057 4.647a3.483 3.483 0 01-3.266 0l-7.259-4.357c-.943-.581-1.016-1.452 0-1.887l8.13-4.647a3.554 3.554 0 013.194 0l7.258 4.429c.726.508.871 1.307 0 1.815zm19.816-11.47l-8.057 4.647a3.7 3.7 0 01-3.266 0l-7.622-4.429c-.944-.581-1.016-1.38 0-1.888l8.057-4.647a3.712 3.712 0 013.267 0l7.258 4.357c1.089.653 1.162 1.525.363 1.96zm-59.303 57.214l-8.13 4.72a3.823 3.823 0 01-3.194 0l-7.621-4.43c-.944-.51-1.089-1.38 0-1.82l8.057-4.72c.514-.23 1.07-.34 1.633-.34s1.12.11 1.633.34l7.259 4.43c1.089.51 1.161 1.38.363 1.82zm19.816-11.54l-8.129 4.64a3.307 3.307 0 01-3.194 0l-7.259-4.35c-.944-.58-1.089-1.38 0-1.89l8.057-4.65a3.307 3.307 0 013.194 0l7.622 4.36c.508.72.508 1.89-.291 1.89zm19.743-11.33l-8.057 4.72a3.823 3.823 0 01-3.194 0l-7.694-4.57c-1.016-.51-1.089-1.38 0-1.82l8.13-4.72a3.823 3.823 0 013.194 0l7.258 4.43c1.089.65 1.234 1.52.363 1.96zm19.817-11.4l-8.057 4.64a3.452 3.452 0 01-3.267 0l-7.621-4.35c-.944-.58-1.016-1.38 0-1.89l8.129-4.646a3.338 3.338 0 013.194 0l7.259 4.356c1.089.58 1.234 1.38.363 1.89zM229.432 905.015l-8.057 4.719a3.978 3.978 0 01-3.266 0l-7.259-4.429c-1.016-.508-1.089-1.379 0-1.815l7.84-5.082a3.766 3.766 0 013.193 0l7.622 4.429c.653.653.798 1.524-.073 2.178zm-1.015 21.78l-8.058 4.72a3.78 3.78 0 01-3.193 0l-7.622-4.429c-1.016-.508-1.089-1.38 0-1.815l8.13-4.72a3.78 3.78 0 013.194 0l7.258 4.429c1.016.799 1.162 1.815.291 1.815zm19.816-11.108l-7.767 4.647a3.48 3.48 0 01-3.266 0l-7.622-4.357c-.943-.58-1.016-1.379 0-1.887l8.13-4.647a3.338 3.338 0 013.194 0l7.622 4.356c.435.581.58 1.38-.291 1.888zm.072 22.944l-8.057 4.647a3.553 3.553 0 01-3.194 0l-7.621-4.429c-1.017-.509-1.089-1.38 0-1.816l8.129-4.719a3.782 3.782 0 013.194 0l7.622 4.429c.653.508.798 1.38-.073 1.888zm19.817-11.471l-8.057 4.646a3.485 3.485 0 01-3.267 0l-7.621-4.356c-.944-.581-1.017-1.379 0-1.888l8.129-4.646a3.338 3.338 0 013.194 0l7.622 4.356c.726.581.871 1.525 0 1.888zm-1.016 22.288l-8.057 4.647a3.484 3.484 0 01-3.267 0l-7.258-4.356c-1.016-.581-1.089-1.38 0-1.888l8.129-4.647a3.338 3.338 0 013.194 0l7.622 4.356c.363.581.508 1.38-.363 1.888zm19.816-11.397l-8.057 4.647a3.7 3.7 0 01-3.267 0l-7.621-4.429c-.944-.508-1.016-1.379 0-1.815l8.057-4.719a3.981 3.981 0 013.266 0l7.622 4.429c.726.508.798 1.379 0 1.887zm-1.017 22.291l-8.057 4.646a3.7 3.7 0 01-3.267 0l-7.258-4.429c-1.016-.508-1.089-1.379 0-1.815l8.13-4.719a3.766 3.766 0 013.193 0l7.622 4.429c.363.508.508 1.379-.363 1.888zm19.889-11.763l-8.058 4.647a3.481 3.481 0 01-3.266 0l-7.622-4.356c-.943-.581-1.016-1.38 0-1.888l8.058-4.647a3.48 3.48 0 013.266 0l7.622 4.357c.653.871.725 1.887 0 1.887zm19.743-11.109l-8.057 4.647a3.698 3.698 0 01-3.266 0l-7.259-4.429c-.943-.509-1.016-1.38 0-1.815l8.057-4.72a4 4 0 013.267 0l7.258 4.429c.726.508.799 1.38 0 1.888zm19.816-11.472l-8.13 4.647a3.336 3.336 0 01-3.193 0l-7.259-4.357c-.944-.581-1.089-1.379 0-1.887l7.476-4.865a3.485 3.485 0 013.267 0l7.258 4.356c1.307.799 1.38 1.598.581 2.106zm19.745-11.4l-8.057 4.937a3.56 3.56 0 01-3.194 0l-7.259-4.429c-.943-.508-1.088-1.379 0-1.815l8.057-4.719a3.77 3.77 0 013.194 0l7.259 4.429c.726.218.871 1.089 0 1.597zm19.816-11.472l-8.057 4.647a3.485 3.485 0 01-3.267 0l-7.258-4.356c-1.017-.581-1.089-1.38 0-1.888l8.129-4.647a3.337 3.337 0 013.194 0l7.259 4.357c.726.581.726 1.379 0 1.887zm-.073 22.655l-8.057 4.646a3.557 3.557 0 01-3.194 0l-7.621-4.429c-1.017-.58-1.089-1.379 0-1.887l7.839-4.575a3.553 3.553 0 013.194 0l7.258 4.429c1.38.509 1.38 1.38.581 1.816zm19.816-11.402l-8.057 4.647a3.481 3.481 0 01-3.266 0l-7.694-4.501c-.944-.581-1.016-1.452 0-1.888l8.129-4.647a3.56 3.56 0 013.194 0l7.622 4.429c.798.653.943 1.452.072 1.96zm-79.047 45.963l-8.057 4.647a3.704 3.704 0 01-3.267 0l-7.621-4.429c-.944-.508-1.017-1.38 0-1.888l8.057-4.647a3.698 3.698 0 013.266 0l7.622 4.429c.726.581.798 1.452 0 1.888zm19.816-11.401l-8.057 4.647a3.483 3.483 0 01-3.267 0l-7.258-4.357c-.944-.581-1.016-1.452 0-1.888l8.057-4.646a3.484 3.484 0 013.266 0l7.259 4.356c.726.581.798 1.525 0 1.888zm19.817-11.472l-8.13 4.646a3.554 3.554 0 01-3.194 0l-7.621-4.429c-.944-.581-1.089-1.379 0-1.887l8.057-4.647a3.7 3.7 0 013.266 0l7.259 4.429c1.089.581 1.161 1.452.363 1.888zm141.471-5.882l-8.057 4.647a3.338 3.338 0 01-3.194 0l-7.621-4.356c-1.017-.581-1.089-1.38 0-1.888l8.129-4.647a3.337 3.337 0 013.194 0l7.259 4.357c1.016.58 1.161 1.379.29 1.887zm19.817-11.471l-8.057 4.719a3.986 3.986 0 01-3.267 0l-7.621-4.574c-.944-.508-1.017-1.379 0-1.815l8.129-4.719a3.767 3.767 0 013.194 0l7.259 4.429c1.089.653 1.234 1.379.363 1.96zm19.816-11.399l-8.275 4.647a3.483 3.483 0 01-3.267 0l-7.258-4.356c-.944-.581-1.016-1.38 0-1.888l8.057-4.647a3.484 3.484 0 013.266 0l7.259 4.356c.944.581 1.016 1.38.218 1.888zm-19.744 34.343l-8.057 4.646a3.338 3.338 0 01-3.194 0l-7.258-4.356c-.944-.581-1.089-1.38 0-1.888l8.129-4.647a3.337 3.337 0 013.194 0l7.259 4.357c.653.581.798 1.379-.073 1.888zm19.815-11.399l-8.057 4.647a3.7 3.7 0 01-3.267 0l-7.258-4.429c-.944-.508-1.016-1.38 0-1.815l8.13-4.72a3.776 3.776 0 013.193 0l7.622 4.429c.363.509.508 1.38-.363 1.888z" fill="#150035"/><path d="M196.116 527.464l-79.482 44.87a14.508 14.508 0 01-12.776-.508l-22.284-12.851c-3.774-2.179-4.21-5.518-.943-7.261l79.845-45.233a14.505 14.505 0 0112.775.508l22.284 12.851c3.412 2.033 3.847 5.373.581 7.624z" fill="red"/><path d="M111.117 575.82a17.202 17.202 0 01-8.566-2.105l-21.776-12.852a7.253 7.253 0 01-4.21-6.099 5.956 5.956 0 013.267-5.082l79.845-45.233a16.336 16.336 0 017.538-1.56c2.601.089 5.143.798 7.415 2.068l22.284 12.851a7.264 7.264 0 014.21 6.099 5.938 5.938 0 01-.941 2.986 5.944 5.944 0 01-2.325 2.096l-80.136 45.234a12.917 12.917 0 01-6.605 1.597zm54.512-68.612a9.292 9.292 0 00-4.428 1.016l-79.482 45.234s-1.089.726-1.089 1.306c0 .581.508 1.453 2.033 2.324l22.284 12.851a11.893 11.893 0 0010.597.508l79.846-45.233c.363 0 1.089-.726 1.089-1.307s-.509-1.452-2.033-2.323l-22.284-12.852a12.555 12.555 0 00-6.533-1.524z" fill="#fff"/><path d="M127.013 290.261l87.612-50.824c3.92-2.251 7.259 0 7.259 5.373v40.151a17.363 17.363 0 01-7.259 13.723l-10.089 5.808a34.148 34.148 0 01-5.355 12.949 34.14 34.14 0 01-10.106 9.704c-.581 0-1.017 0-.726-.871a24.548 24.548 0 001.306-12.924l-62.569 36.303c-3.92 2.323-7.259 0-7.259-5.373v-40.369a17.06 17.06 0 017.186-13.65z" fill="red"/><path d="M124.327 352.485a5.732 5.732 0 01-2.903-.726 8.491 8.491 0 01-3.557-7.697v-40.151a19.395 19.395 0 018.203-15.537l1.088 1.888-1.088-1.888 87.612-50.824a6.746 6.746 0 016.895 0 8.413 8.413 0 013.557 7.696v40.078a19.323 19.323 0 01-8.275 15.611l-9.218 5.3a36.316 36.316 0 01-16.332 23.161 2.763 2.763 0 01-3.122 0 2.975 2.975 0 01-.725-3.267 25.42 25.42 0 001.379-9.221l-59.739 34.415a7.257 7.257 0 01-3.775 1.162zm93.129-111.523a4.137 4.137 0 00-1.742.581l-87.612 50.824a14.963 14.963 0 00-6.025 11.762v40.151a4.57 4.57 0 001.379 3.921 2.68 2.68 0 002.468-.436l65.328-37.537.726 2.832a23.896 23.896 0 010 10.165 33.258 33.258 0 0010.816-18.733v-.944l10.96-6.316a15.244 15.244 0 006.097-11.835v-40.296a4.5 4.5 0 00-1.451-3.921 1.234 1.234 0 00-.944-.218z" fill="#fff"/><path d="M199.666 269.277l-59.787 34.514 2.177 3.773 59.787-34.514-2.177-3.773zm-.073 13.678l-59.782 34.524 2.178 3.773 59.782-34.524-2.178-3.773z" fill="#fff"/><path d="M81.356 241.034l52.915-29.986c3.92-2.251 7.259 0 7.259 5.372v17.498a17.289 17.289 0 01-7.259 13.723l-12.557 7.261a34.64 34.64 0 01-15.461 22.507c-.581 0-1.016 0-.726-.944a24.833 24.833 0 001.234-12.996l-25.405 14.086c-3.92 2.323-7.26 0-7.26-5.373v-17.498a17.07 17.07 0 017.26-13.65z" fill="red"/><path d="M78.525 280.606a5.735 5.735 0 01-2.904-.726 8.494 8.494 0 01-3.556-7.696v-17.498a19.39 19.39 0 018.202-15.538l52.916-29.986a6.604 6.604 0 016.823 0 8.348 8.348 0 013.557 7.26v17.498a19.467 19.467 0 01-8.203 15.611l-11.759 6.752a36.305 36.305 0 01-16.259 23.016 2.763 2.763 0 01-3.121 0 3.118 3.118 0 01-.726-3.34 24.538 24.538 0 001.524-8.785l-22.574 12.343a8.206 8.206 0 01-3.92 1.089zm3.92-37.682a14.959 14.959 0 00-6.025 11.762v17.498a4.576 4.576 0 001.38 3.92 2.678 2.678 0 002.467-.435l27.946-15.465.726 2.759c.699 3.431.65 6.972-.145 10.382a33.468 33.468 0 0010.742-18.95v-.944l13.647-7.696a15.186 15.186 0 006.024-11.835v-17.498a4.429 4.429 0 00-1.379-3.848c-.798-.508-1.887 0-2.468.363l-52.915 29.987z" fill="#fff"/><path d="M68.364 414.491l87.539-50.824c3.992-2.251 7.259 0 7.259 5.445v74.93a17.137 17.137 0 01-7.259 13.649l-54.295 31.366a16.702 16.702 0 00.944 11.908c0 .435 0 1.379-.726 1.742-11.323 6.535-14.517-1.67-15.533-4.937l-18.147 10.528c-3.992 2.251-7.259 0-7.259-5.446v-74.711a16.995 16.995 0 017.477-13.65z" fill="red"/><path d="M65.459 511.347a5.803 5.803 0 01-2.903-.798 8.495 8.495 0 01-3.557-7.697v-74.711a19.243 19.243 0 018.275-15.538l87.539-50.824a6.755 6.755 0 017.259-.363 8.491 8.491 0 013.557 7.696v74.93a19.242 19.242 0 01-8.275 15.537l-53.787 30.858c-.787 3.15-.4 6.48 1.089 9.366a3.42 3.42 0 010 2.396 4.068 4.068 0 01-1.815 2.396 13.79 13.79 0 01-12.34 2.033 10.82 10.82 0 01-5.444-5.663l-15.606 9.221a8.638 8.638 0 01-3.992 1.161zm2.903-96.856l1.09 1.888a14.52 14.52 0 00-6.098 11.762v74.711a4.574 4.574 0 001.38 3.921c.798.436 1.886 0 2.54 0l20.76-12.343.725 2.759a8.054 8.054 0 003.847 5.446 9.366 9.366 0 007.84-1.525 20.188 20.188 0 01-.944-12.488v-.944l55.166-31.874a14.878 14.878 0 005.952-11.762V369.33a4.505 4.505 0 00-1.379-3.92 2.826 2.826 0 00-2.541.363l-87.539 50.824-.799-2.106z" fill="#fff"/><path d="M140.938 396.377L81.15 430.891l2.177 3.773 59.788-34.514-2.177-3.773zm.034 13.702l-59.788 34.514 2.177 3.773 59.787-34.514-2.176-3.773zm-.01 13.667L81.18 458.27l2.178 3.773 59.781-34.524-2.177-3.773zm0 13.709L81.18 471.979l2.178 3.773 59.781-34.524-2.177-3.773z" fill="#fff"/><path d="M226.312 829.433l-19.235 4.719-20.978-7.986 2.759-5.01 6.75-2.251s8.783-1.452 10.09-5.954c1.306-4.501 13.936 0 13.936 0l8.711 7.261-2.033 9.221z" fill="red"/><path d="M206.932 837.128l-24.535-9.439 4.864-8.858 8.274-2.759c2.904-.435 7.259-2.105 7.767-3.92a5.008 5.008 0 012.758-3.195 23.155 23.155 0 0114.881 1.307l.871.508 10.017 8.568-2.759 12.415-22.138 5.373zm-16.768-12.415l17.13 6.462 16.623-4.066 1.306-5.664-7.258-6.026a19.673 19.673 0 00-9.945-1.452c-1.524 5.518-10.089 7.26-11.904 7.696l-5.516 1.815-.436 1.235z" fill="#150035"/><path d="M293.744 719.507s-38.761-12.706-49.577-22.218c0 0 6.823 14.086-1.524 37.32-6.533 17.933-9.436 61.497-11.614 76.599a7.987 7.987 0 01-7.259 7.261l-3.484.508c-4.282 0-12.848-3.413-12.993-8.205-.726-31.511-3.121-138.096 4.138-148.043 8.492-11.327 36.656-22.58 50.81-20.039 14.155 2.541 55.747 9.075 55.747 9.075l-24.244 67.742z" fill="#fff"/><path d="M220.069 821.736a20.462 20.462 0 01-12.339-4.864 8.51 8.51 0 01-3.122-6.099c-1.451-51.768-2.831-140.057 4.501-149.786 9.146-12.125 38.616-23.742 53.133-21.128 14.517 2.614 55.311 9.003 55.674 9.076l3.412.508-26.132 73.622-2.613-.799a301.66 301.66 0 01-43.552-18.224 61.94 61.94 0 01-3.629 31.511 341.69 341.69 0 00-9.799 60.917 1409.597 1409.597 0 01-1.67 15.174 10.89 10.89 0 01-9.799 9.584l-3.266.436-.799.072zm37.455-176.577c-13.864 0-36.293 9.584-43.915 19.241-4.355 5.808-5.662 63.239-3.339 146.228a3.125 3.125 0 001.234 2.033 14.517 14.517 0 008.783 3.412l3.194-.436a5.294 5.294 0 004.718-4.792c.508-3.63 1.089-8.857 1.669-14.956 2.178-20.257 5.082-48.065 10.163-62.223a49.024 49.024 0 001.596-35.142l-6.024-12.778 10.452 9.438c8.493 7.624 37.092 17.789 45.948 20.766l21.776-61.933c-10.235-1.597-40.867-6.462-52.481-8.568a22.39 22.39 0 00-3.774-.29z" fill="#150035"/><path d="M182.397 821.519c2.613-4.284 8.347-3.848 13.066-2.614l-.871.581c-2.468 2.033 0 5.082 4.282 7.261a17.928 17.928 0 0023.954-4.212l.508-1.524v-1.452c1.597-1.816 3.92-4.139 5.734-5.882a3.133 3.133 0 012.898-.842 3.13 3.13 0 012.256 2.004 28.034 28.034 0 01-.871 19.749l-1.597 15.102a3.558 3.558 0 01-1.379 2.469l-.581.363a5.804 5.804 0 01-3.992 0 25.552 25.552 0 01-5.009-1.307 2.105 2.105 0 01-1.379-2.106l.436-7.26a1.379 1.379 0 00-1.888-1.38l-2.177 1.452a14.521 14.521 0 01-6.606 2.251 13.495 13.495 0 01-7.258-1.452c-10.743-5.373-24.099-13.432-19.526-21.201z" fill="#150035"/><path d="M228.78 855.135a9.883 9.883 0 01-3.412-.654 30.837 30.837 0 01-5.081-1.307 4.361 4.361 0 01-2.831-4.283l.363-5.446h-.653a16.259 16.259 0 01-7.622 2.614c-2.929.207-5.86-.37-8.492-1.67-13.138-6.607-19.744-12.053-21.341-17.498a8.42 8.42 0 01.944-6.825c1.887-3.049 6.025-6.099 15.533-3.63l4.719 1.234-4.138 2.686-.653.509c0 .581.726 2.105 3.919 3.775a16.037 16.037 0 0020.978-3.267v-2.759l.726-.944c1.452-1.597 3.339-3.485 5.662-5.808a5.294 5.294 0 014.79-1.38 5.226 5.226 0 013.847 3.34 29.486 29.486 0 01-.725 20.983l-1.597 14.884a5.74 5.74 0 01-1.888 3.776 2.982 2.982 0 01-1.596.944 3.723 3.723 0 01-1.452.726zm-10.09-16.917a3.47 3.47 0 012.553 1.172 3.492 3.492 0 01.859 2.676l-.436 7.26c1.489.5 3.019.864 4.573 1.089h.726c.673.111 1.36.111 2.033 0 .253-.289.428-.64.508-1.016l1.669-15.61a25.855 25.855 0 00.944-18.152 1.02 1.02 0 00-.799-.726.864.864 0 00-.798 0 113.155 113.155 0 00-5.154 5.155v1.307l-.726 2.033a20.101 20.101 0 01-26.784 4.937c-2.25-1.162-6.097-3.703-6.46-7.26a3.565 3.565 0 010-1.525 7.26 7.26 0 00-7.259 2.323 3.853 3.853 0 00-.508 3.413c1.161 3.993 7.621 9.003 19.09 14.521a12.267 12.267 0 006.17 1.234 12.48 12.48 0 005.662-1.888l2.177-1.452a3.41 3.41 0 011.96.509z" fill="#150035"/><path d="M217.954 829.194l-1.213 8.921 4.316.586 1.212-8.921-4.315-.586zm223.432 12.072v-135.7a.514.514 0 000-.508l-64.167 5.736-6.097-35.432a.432.432 0 00-.581 0L237.708 751.09a.514.514 0 01-.436 0l-11.323-3.05s-.654 0-.654.509v135.119a6.175 6.175 0 003.049 4.792l59.521 34.56a16.183 16.183 0 0016.405 0l133.995-76.09a6.177 6.177 0 003.121-5.228v-.436z" fill="red"/><path d="M296.213 928.175c-3.393.002-6.725-.9-9.654-2.614l-59.593-34.56a9.079 9.079 0 01-4.428-7.261V748.548a3.408 3.408 0 011.306-2.686 3.415 3.415 0 012.976-.581l10.38 2.904 131.672-75.51a3.191 3.191 0 013.412 0l1.089.653 5.734 34.198 62.134-5.591h.508a3.335 3.335 0 012.468 3.267v136.499a9.067 9.067 0 01-4.573 7.261l-133.849 76.599a19.013 19.013 0 01-9.582 2.614zm-68.086-176.65v132.433a3.547 3.547 0 001.67 2.541l59.521 34.488a13.565 13.565 0 0013.573 0l133.923-76.89a3.201 3.201 0 001.742-2.831V708.107l-61.989 5.59-1.307-.508-1.161-.653-5.444-33.036-130.656 74.639h-1.597l-8.275-2.614z" fill="#150035"/><path d="M441.023 705.059l-64.167 5.736-81.152 63.53v150.948a15.9 15.9 0 008.638-2.106l133.922-76.236a6.092 6.092 0 003.121-5.228V705.567a.577.577 0 00-.362-.508z" fill="#150035"/><path d="M296.213 928.176h-3.339V773.162l83.62-65.78.943.508 63.804-5.663h.508a3.34 3.34 0 012.468 3.267v135.918a8.999 8.999 0 01-4.573 7.624l-133.85 76.599a19.314 19.314 0 01-9.581 2.541zm2.323-152.472v146.591a14.08 14.08 0 004.428-1.597l133.849-76.527a3.344 3.344 0 001.742-2.904V708.108l-60.827 5.445-79.192 62.151zM234.441 756.1l1.96-5.445-10.452-2.905s-.654.001-.654.509v135.119a6.175 6.175 0 003.049 4.792l6.025 3.485V756.1h.072z" fill="#150035"/><path d="M237.272 896.667l-10.307-6.172a9.067 9.067 0 01-4.428-7.26V748.26a3.408 3.408 0 011.234-2.976 3.415 3.415 0 012.976-.581l13.356 3.703-1.016 2.904-1.815 5.01v140.347zm-9.146-145.212v132.433a3.547 3.547 0 001.67 2.541l1.742 1.017V755.158s.435-1.017.943-2.614l-4.355-1.089z" fill="#150035"/><path d="M288.227 787.61l-59.811-34.706a6.314 6.314 0 01-2.325-8.65 6.314 6.314 0 012.325-2.313l134.213-76.527a15.818 15.818 0 0115.751 0l59.811 34.706a6.317 6.317 0 010 10.963L304.124 787.61a15.97 15.97 0 01-15.897 0z" fill="#fff"/><path d="M296.212 792.547a18.431 18.431 0 01-9.363-2.469l-59.812-34.705a9.078 9.078 0 01-4.573-7.987 9.152 9.152 0 014.573-7.914l134.14-76.672a18.726 18.726 0 0118.728 0l59.811 34.706a9.147 9.147 0 010 15.9l-133.922 76.672a18.368 18.368 0 01-9.582 2.469zm74.329-126.552a13.058 13.058 0 00-6.533 1.67l-134.14 76.744a3.487 3.487 0 000 6.026l59.811 34.706a12.99 12.99 0 0012.993 0l134.213-76.672a3.56 3.56 0 001.742-3.049 3.477 3.477 0 00-1.742-2.977l-59.811-34.706a13.14 13.14 0 00-6.533-1.742z" fill="#150035"/><path d="M200.254 537.34l-11.469-7.261a22.931 22.931 0 00-14.154-3.63 14.515 14.515 0 00-14.01 7.696v2.977l11.179 3.848.363 1.67-3.63 1.743s3.267 11.762 23.518 8.93c18.365-2.541 8.203-15.973 8.203-15.973z" fill="#fff"/><path d="M185.88 556.507c-16.913 0-20.179-10.963-20.324-11.472l-.653-2.323 1.379-.654-9.001-3.122.944-6.171a17.275 17.275 0 0116.259-9.366 25.69 25.69 0 0115.824 4.066l12.194 8.059a12.12 12.12 0 012.837 14.418 12.123 12.123 0 01-13.144 6.565 50.402 50.402 0 01-6.315 0zm-13.719-10.891c2.033 2.614 7.259 6.462 19.308 4.792 3.267-.435 7.259-1.525 8.42-4.066a8.557 8.557 0 00-1.669-7.26l-10.961-7.261a20.033 20.033 0 00-12.122-2.759 11.967 11.967 0 00-6.564 1.318 11.967 11.967 0 00-4.832 4.636l10.525 3.703 1.234 5.445-3.339 1.452z" fill="#150035"/><path d="M211.431 541.405l-6.605-3.921a2.614 2.614 0 00-3.122 0 29.046 29.046 0 00-8.202 11.98 3.342 3.342 0 001.669 3.993l7.259 3.486a2.835 2.835 0 003.557-1.09l6.242-10.092a3.34 3.34 0 00-.798-4.356z" fill="#150035"/><path d="M203.665 560.356a7.242 7.242 0 01-2.396-.508l-7.258-3.558a6.096 6.096 0 01-3.049-7.26 31.512 31.512 0 019.001-13.142 5.441 5.441 0 016.387-.508l6.606 3.848a6.254 6.254 0 012.777 3.912 6.237 6.237 0 01-.817 4.728l-6.243 10.02a5.654 5.654 0 01-2.179 1.894 5.648 5.648 0 01-2.829.574zm-.436-20.402a28.233 28.233 0 00-7.258 10.746v.435l7.258 3.558 6.243-10.165a.436.436 0 000-.436l-6.243-4.138z" fill="#150035"/><path d="M287.43 533.928c-1.597 4.937 2.395-6.317 0 0-6.606 17.57-14.518 36.303-14.518 36.303s-19.017-9.221-33.026-14.521a103.32 103.32 0 01-24.898-13.578.873.873 0 00-.943 0 15.464 15.464 0 00-10.743 14.521c-.009.429.147.845.435 1.162 4.936 4.502 48.343 43.564 80.644 50.824a113.486 113.486 0 0027.801-48.864c9.218-31.438-20.905-37.9-24.752-25.847z" fill="red"/><path d="M285.179 612.052h-1.452c-32.954-7.261-76.942-47.121-81.877-51.623a4.217 4.217 0 01-1.38-3.412 18.303 18.303 0 0112.703-16.772 3.705 3.705 0 013.557.581 97.751 97.751 0 0024.099 13.141c11.033 3.921 24.824 10.31 30.559 13.069 2.468-5.881 8.347-20.329 13.356-33.761a4.38 4.38 0 010-.872c.285-1 .837-1.903 1.596-2.613a14.511 14.511 0 0115.171-3.268c10.525 3.195 18.655 15.247 12.993 34.706a114.575 114.575 0 01-28.599 50.17l-.726.654zm-78.974-55.544c6.75 6.172 46.818 41.821 77.305 49.445a114.002 114.002 0 0025.913-46.54c4.863-16.845-1.887-25.412-9.219-27.663a8.565 8.565 0 00-9.654 2.105 19.233 19.233 0 01-1.016 2.469c-6.46 16.99-13.864 34.996-13.936 35.141l-1.162 2.832-2.685-1.38s-19.163-9.148-32.81-13.867a109.614 109.614 0 01-24.897-13.432 12.555 12.555 0 00-7.839 10.89z" fill="#150035"/><path d="M143.273 812.224a19.16 19.16 0 01-12.993 5.663 15.103 15.103 0 00-11.759 6.535l10.38 12.633 20.542-.726 11.178-8.059 3.049-13.65-12.703-5.736-7.694 3.34z" fill="red"/><path d="M127.594 840.031l-12.557-15.32 1.161-1.742a17.636 17.636 0 0113.937-7.842h.435a16.691 16.691 0 0010.598-4.501l.435-.436 9.291-4.138 15.969 7.26-3.774 16.99-12.703 9.221-22.792.508zm-5.371-15.537l7.984 9.729 18.292-.654 9.509-7.26 2.613-10.092-9.436-4.212-5.952 2.614a22.423 22.423 0 01-14.518 6.244 10.6 10.6 0 00-8.492 3.631z" fill="#150035"/><path d="M360.596 710.94s-49.722 84.15-173.845-9.874c-.508 0-1.234 0-1.016.653a60.432 60.432 0 01-2.395 38.699c-7.767 17.643-15.389 56.052-18.583 71.299a7.769 7.769 0 01-7.621 6.535h-3.412c-4.355 0-10.162-4.066-10.017-8.858 1.379-31.366 5.735-137.951 13.501-146.954 11.832-14.013 39.705-12.779 53.569-9.076 13.864 3.703 93.419 25.775 93.419 25.775l56.4 31.801z" fill="#fff"/><path d="M153.797 821.227a14.517 14.517 0 01-9.944-4.647 9.808 9.808 0 01-2.976-7.261v-1.815c3.992-94.896 8.348-140.202 14.009-146.954 12.993-14.739 41.447-13.868 56.545-9.657l93.492 25.848h.581l58.94 33.108-1.452 2.469a81.093 81.093 0 01-22.753 22.439 81.055 81.055 0 01-29.654 11.903c-34.842 6.825-75.49-6.607-121.002-39.933a60.573 60.573 0 01-3.702 34.778c-7.259 16.119-14.518 50.825-17.711 67.161l-.726 3.558a10.6 10.6 0 01-10.453 8.785l-3.194.218zm36.874-167.429c-12.121 0-24.752 2.831-31.284 10.6-3.194 3.776-7.985 31.729-12.703 143.542v1.742a4.862 4.862 0 001.452 3.05 8.853 8.853 0 005.807 2.831h3.193a5.224 5.224 0 005.009-4.283l.726-3.485a446.567 446.567 0 0118.001-68.395 56.568 56.568 0 002.25-36.303 3.562 3.562 0 011.452-3.921 3.414 3.414 0 013.992 0c45.948 34.778 86.669 49.082 121.002 42.329a77.445 77.445 0 0047.109-29.042l-53.424-29.913c-5.589-1.598-79.845-22.145-93.056-25.703a74.294 74.294 0 00-19.526-3.049z" fill="#150035"/><path d="M112.423 825.657c1.742-7.261 8.929-8.568 17.857-7.696a13.202 13.202 0 00-6.025 4.138c-2.468 2.469 0 5.446 5.299 7.261a19.667 19.667 0 0024.462-6.607l1.524-1.67 1.452-1.888.435-.508c1.379-1.961 3.484-4.502 5.154-6.535a3.698 3.698 0 013.449-1.306 3.7 3.7 0 012.866 2.323 31.157 31.157 0 01.653 20.257v16.263a3.983 3.983 0 01-1.161 2.832 3.044 3.044 0 01-1.815.871c-2.421.41-4.904.261-7.259-.435a2.257 2.257 0 01-1.742-2.033l-.58-8.35a.878.878 0 00-.514-.799.871.871 0 00-.938.146l-1.379 1.234a15.817 15.817 0 01-4.791 3.049 16.037 16.037 0 01-11.614 0c-11.977-3.63-27.946-10.31-25.333-20.547z" fill="#150035"/><path d="M164.541 856.006a31.483 31.483 0 01-5.807-.653 4.354 4.354 0 01-3.412-4.066l-.435-5.736a19.232 19.232 0 01-4.791 2.904 18.432 18.432 0 01-13.211.363c-8.928-3.195-29.833-10.6-26.639-23.669 2.758-11.109 15.969-9.73 20.324-9.294l10.961 1.089-10.598 3.122a10.019 10.019 0 00-4.936 3.413c-.435 0-.508.508-.508.653 0 .145 1.597 2.033 4.791 3.34a17.487 17.487 0 0021.776-5.736l.363-.435 1.379-1.453 1.452-1.887 2.105.871-1.67-.944c1.452-2.033 3.629-4.719 5.226-6.607a5.659 5.659 0 015.227-2.106 6.245 6.245 0 014.718 3.558 33.043 33.043 0 01.871 21.782v16.046a5.96 5.96 0 01-1.815 4.356 5.443 5.443 0 01-2.686 1.452 6.824 6.824 0 01-2.685-.363zm-8.566-16.336a2.89 2.89 0 011.089 0 3.12 3.12 0 011.96 2.686l.581 8.277c1.878.579 3.843.825 5.807.726h.58a.934.934 0 00.654-.363 1.61 1.61 0 00.508-1.234V832.99a29.05 29.05 0 00-.581-18.877 1.596 1.596 0 00-1.307-1.017 1.377 1.377 0 00-1.306.508c-1.524 1.815-3.629 4.429-5.009 6.39l-2.032 2.541-1.452 1.597a21.773 21.773 0 01-27.002 7.261c-2.54-1.017-6.823-3.122-7.259-6.535a4.943 4.943 0 011.452-4.429l.581-.581c-6.388.581-8.057 3.485-8.711 6.172-2.032 8.35 12.631 14.521 23.809 18.514a14.508 14.508 0 0010.089 0 16.814 16.814 0 004.138-2.686l1.379-1.234a3.116 3.116 0 012.032-.944z" fill="#150035"/><path d="M159.169 828.634h-4.355v10.819h4.355v-10.819z" fill="red"/><path d="M182.905 701.717a18.952 18.952 0 00-5.879-11.254l3.557-4.356a23.965 23.965 0 017.912 15.61l-5.59.508h2.831l-2.831-.508zm184.588-128.001s10.38 68.249 16.114 105.569c5.734 37.319-42.318 56.85-73.312 60.626-30.995 3.775-63.296-12.997-72.587-29.043a71.645 71.645 0 00-24.897-23.669s39.342-27.373 50.81-97.655c11.469-70.283 50.811-81.464 52.626-81.464 1.814 0 51.246 65.636 51.246 65.636z" fill="#150035"/><path d="M301.439 743.25c-28.599 0-56.981-15.102-66.562-30.712a67.52 67.52 0 00-23.445-22.581l-4.065-2.178 3.774-2.686c.363 0 38.471-27.663 49.432-95.767 12.194-75.583 55.02-83.642 55.528-83.642 1.743 0 3.557 0 53.642 66.579l.436.508v.726s10.452 68.323 16.114 105.569a39.873 39.873 0 01-7.912 30.93c-14.155 18.66-44.133 29.914-67.578 32.746a78.548 78.548 0 01-9.364.508zm-83.62-56.052a74.271 74.271 0 0121.776 22.435c8.565 14.013 39.415 31.293 70.264 27.518 22.212-2.686 50.811-13.142 63.731-30.494a34.27 34.27 0 007.259-26.865c-5.372-35.068-14.518-97.509-15.969-104.842-16.986-22.581-44.133-58.085-49.504-63.531-5.299 1.67-38.762 14.522-49.069 78.85-9.654 59.319-38.543 88.434-48.488 96.929z" fill="#150035"/><path d="M227.11 693.152l-2.396-3.63c31.43-20.984 46.456-69.121 46.674-69.629l4.137 1.306c-.653 2.033-15.679 50.099-48.415 71.953z" fill="red"/><path d="M156.991 556.507a42.198 42.198 0 00-9.219-15.247c-3.92-3.122-7.259 0-8.275 2.178a1.306 1.306 0 01-1.814.436l-11.614-6.462a3.122 3.122 0 00-3.993.944 15.612 15.612 0 00-.798 15.174c4.718 11.835 24.679 16.264 24.679 16.264l11.034-13.287z" fill="#fff"/><path d="M146.975 572.988l-1.669-.435c-.871 0-21.776-4.865-26.639-18.007a18.157 18.157 0 011.161-17.861 5.81 5.81 0 017.259-1.742l10.525 5.881a8.929 8.929 0 015.589-3.558 7.618 7.618 0 015.952 1.743 44.3 44.3 0 0110.162 16.554l.581 1.525-12.921 15.9zm-22.284-33.108a12.06 12.06 0 00-.363 12.561c3.049 7.841 14.881 12.561 20.905 14.521l8.928-10.673a36.872 36.872 0 00-8.057-12.851c-.943-.726-1.451-.654-1.597-.581a4.795 4.795 0 00-2.613 2.178 4.138 4.138 0 01-5.516 1.307l-11.687-6.462z" fill="#150035"/><path d="M164.831 561.589l-6.025-6.316a3.044 3.044 0 00-3.484-.799 29.828 29.828 0 00-12.049 10.165 3.847 3.847 0 00.653 4.864l7.259 6.245a3.122 3.122 0 004.137 0l9.437-8.713a3.84 3.84 0 001.164-2.708 3.853 3.853 0 00-1.092-2.738z" fill="#150035"/><path d="M153.362 579.377a5.95 5.95 0 01-3.92-1.524l-7.259-6.244a6.686 6.686 0 01-1.089-8.568 32.245 32.245 0 0113.211-11.109 5.736 5.736 0 016.678 1.38l6.025 6.317a7.263 7.263 0 011.815 4.792 6.757 6.757 0 01-2.105 4.646l-9.509 8.713a6.172 6.172 0 01-3.847 1.597zm3.629-21.781a24.391 24.391 0 00-11.106 9.003 1.017 1.017 0 000 1.089l7.259 6.244 9.799-8.713a1.386 1.386 0 000-.653.8.8 0 000-.654l-5.952-6.316z" fill="#150035"/><path d="M284.017 543.221a8.927 8.927 0 00-9.508-4.138 10.232 10.232 0 00-5.009 2.904 115.45 115.45 0 00-17.929 21.782c-10.67 16.627-33.97 47.121-33.97 47.121s-16.478-14.884-29.035-24.105a113.362 113.362 0 01-21.268-20.983 1.014 1.014 0 00-.871-.436 14.956 14.956 0 00-14.154 10.964 1.3 1.3 0 000 1.161c3.556 5.736 34.406 54.237 63.586 72.606a5.292 5.292 0 006.242-.581c9.146-8.131 37.455-33.979 51.609-58.084 17.058-29.043 14.009-41.894 10.162-48.428l.145.217z" fill="red"/><path d="M218.69 653.797a8.139 8.139 0 01-4.21-1.234c-29.688-19.023-61.045-68.25-64.457-73.768a4.352 4.352 0 01-.508-3.557 17.782 17.782 0 0116.84-12.924 3.772 3.772 0 013.194 1.597 111.417 111.417 0 0020.687 20.402c9.727 7.261 21.776 17.789 26.93 22.218 5.734-7.261 23.3-30.858 32.011-44.508a118.434 118.434 0 0118.437-22.435 12.99 12.99 0 016.242-3.267 11.759 11.759 0 0112.34 5.663c6.823 11.544 3.484 28.316-10.162 51.26-14.517 24.323-43.552 50.824-52.19 58.084a8.274 8.274 0 01-5.154 2.469zm-63.731-77.47c4.791 7.26 34.552 53.655 62.425 71.444a2.321 2.321 0 002.831 0c8.42-7.261 37.019-33.472 50.81-57.068 12.34-20.693 15.752-36.303 10.163-45.524l2.322-1.598-2.468 1.453a5.873 5.873 0 00-6.46-2.759 7.253 7.253 0 00-3.557 1.815 115.196 115.196 0 00-17.493 21.346c-10.598 16.554-33.898 47.048-34.116 47.339l-1.887 2.468-2.323-2.105s-16.477-14.521-29.034-23.888a113.95 113.95 0 01-21.268-20.837 11.977 11.977 0 00-9.945 7.914z" fill="#150035"/><path d="M213.754 624.321a37.622 37.622 0 01.944-14.521l5.444 1.525a32.384 32.384 0 00-.871 11.689l-5.517 1.307z" fill="#150035"/><path d="M289.099 498.857s5.081 16.99.726 24.977c-4.355 7.986 16.26 5.808 16.26 5.808l20.905-15.029a40.016 40.016 0 01-5.807-18.805c.363-8.713 1.306-9.584-.654-8.931-1.959.654-31.43 11.98-31.43 11.98z" fill="red"/><path d="M300.205 532.836c-5.008 0-10.743-.726-12.92-3.994a5.946 5.946 0 010-6.316c3.048-5.736.363-18.442-.944-22.871l-.798-2.469 2.468-.944c3.048-1.161 29.542-11.471 31.575-12.125a3.996 3.996 0 013.629.436c1.525 1.234 1.379 2.831 1.089 5.518 0 1.307 0 3.195-.363 5.808a37.399 37.399 0 005.444 17.063l1.379 2.251-23.663 16.989h-.726c-1.524.436-3.774.654-6.17.654zm-7.694-32.237a40.673 40.673 0 010 24.613 1.39 1.39 0 000 .654 26.998 26.998 0 0012.92 1.089l18.292-13.142a38.495 38.495 0 01-4.936-18.151v-5.083c-5.734 1.96-17.203 6.462-26.276 10.02z" fill="#150035"/><path d="M290.768 416.377S265 415.36 256.652 437.505a38.28 38.28 0 008.711 39.135s21.776-6.825 25.55-17.063c3.775-10.237-.145-43.2-.145-43.2z" fill="#fff"/><path d="M264.565 479.546l-1.233-1.162a40.807 40.807 0 01-9.292-41.893c8.929-23.743 36.294-22.944 36.874-22.944h2.396v2.396c0 1.38 3.847 33.326 0 44.144-3.847 10.819-24.97 18.079-27.365 18.805l-1.38.654zm23.664-60.263a31.712 31.712 0 00-29.035 19.168 34.421 34.421 0 006.896 34.633c6.533-2.323 19.598-8.059 21.776-14.521 2.177-6.462 1.452-28.897.363-39.28z" fill="#150035"/><path d="M305.794 419.428s17.638-15.392 24.607 22.363c4.791 26.066-5.299 41.676-24.68 56.56a20.83 20.83 0 01-18.872 3.63 26.635 26.635 0 01-16.26-18.805 89.697 89.697 0 01-2.395-44.652c-3.702-15.465 6.46-13.142 24.752-18.224l12.848-.872z" fill="red"/><path d="M292.874 505.684a25.017 25.017 0 01-6.823-1.017 29.04 29.04 0 01-18.147-20.765 92.803 92.803 0 01-2.613-45.378 15.028 15.028 0 01.871-11.617c2.686-4.212 8.13-5.373 15.606-7.261 3.049-.653 6.533-1.38 10.38-2.469h.581l11.904-.871a14.964 14.964 0 016.408-2.725 14.962 14.962 0 016.948.474c7.258 2.542 12.34 11.617 15.17 26.937 4.573 24.613-2.903 41.821-25.768 59.319a23.734 23.734 0 01-14.517 5.373zm.508-82.626c-3.847 1.09-7.259 1.816-10.453 2.469-6.097 1.307-10.525 2.251-11.976 4.502a10.742 10.742 0 000 7.841v1.234a87.154 87.154 0 002.395 43.564 23.442 23.442 0 0014.517 16.844 17.917 17.917 0 0016.26-3.122c17.638-13.504 28.381-27.808 23.59-53.801-2.976-16.336-7.839-21.346-11.468-22.653a9.589 9.589 0 00-8.638 1.961l-.726.581-13.501.58z" fill="#150035"/><path d="M293.745 541.987c-8.202 1.089-21.776-9.294-15.098-15.03l.943-.726c5.517-3.557 21.776 1.525 32.301-5.227 7.84-5.083 7.767-10.31 7.259-12.634a4.641 4.641 0 011.452-4.501 5.866 5.866 0 014.428-1.235 11.032 11.032 0 018.347 9.968 11.035 11.035 0 01-.653 4.554 37.398 37.398 0 01-21.123 20.039 67.217 67.217 0 01-17.856 4.792z" fill="red"/><path d="M292.51 545.106a21.768 21.768 0 01-17.493-10.383 7.693 7.693 0 011.742-9.656l1.306-1.017a24.823 24.823 0 0113.211-1.815 35.713 35.713 0 0019.236-3.412c6.532-4.211 6.46-8.132 6.097-9.584a7.257 7.257 0 012.395-7.261 8.574 8.574 0 016.46-1.888 11.622 11.622 0 018.493 5.373 15.394 15.394 0 011.67 13.215 40.743 40.743 0 01-22.865 21.781 69.364 69.364 0 01-18.437 4.647h-1.815zm-3.629-17.28a17.928 17.928 0 00-7.767 1.016l-.508.436c-.581.508-1.162 1.162-.436 2.759a15.6 15.6 0 0013.211 7.261 63.57 63.57 0 0017.276-4.357 34.55 34.55 0 0019.38-18.224 9.506 9.506 0 00-1.016-8.277 5.815 5.815 0 00-4.21-2.832 3.268 3.268 0 00-2.395.581 1.748 1.748 0 00-.436 1.743c.581 2.614.871 9.511-8.565 15.61a40.997 40.997 0 01-22.357 4.284h-2.177z" fill="#150035"/><path d="M298.97 404.689c-14.517 1.815-30.704 13.215-33.825 23.089-3.629 11.617-2.105 18.369 9.799 17.062 4.718-.581 8.565 12.343 10.307 16.845a8.43 8.43 0 006.751 4.356c3.702-.435 8.856 4.647 9.364 10.31a13.732 13.732 0 01-3.775 11.835c7.985 18.732-29.034 39.352 7.622 54.091.943.436-25.478 37.029 8.71 57.068 28.454 16.7 86.088 10.674 98.936-21.781 22.356-56.851-56.037-67.596-59.739-116.17-2.904-38.408-31.14-59.609-54.15-56.705z" fill="#fff"/><path d="M352.031 611.252a79.832 79.832 0 01-39.56-9.438c-14.517-8.423-27.945-25.34-11.105-58.085a25.629 25.629 0 01-14.518-12.851 28.185 28.185 0 014.21-21.782c3.412-7.261 6.606-13.577 4.065-19.604l-1.016-2.25 2.105-1.307a11.62 11.62 0 002.323-9.294 10.463 10.463 0 00-3.629-6.68 4.14 4.14 0 00-2.541-1.089 11.1 11.1 0 01-9.727-6.099c0-.726-.58-1.524-.871-2.468-3.629-10.02-5.589-12.416-6.532-12.706a13.135 13.135 0 01-12.413-3.413c-2.831-3.485-2.976-8.93 0-17.28 3.412-10.963 20.978-23.089 36.294-25.049a45.798 45.798 0 0133.898 10.891 67.598 67.598 0 0123.445 48.065c1.524 20.039 16.913 33.762 31.793 46.976 20.179 18.006 41.084 36.303 27.728 70.645a50.382 50.382 0 01-32.519 27.808 96.126 96.126 0 01-31.43 5.01zm-50.81-122.268a32.32 32.32 0 01-4.791 22.363 24.035 24.035 0 00-4.065 17.57c1.597 4.066 6.242 7.261 14.517 10.746l1.162.508.435 1.162c.508 1.379 0 2.178-1.089 4.429-12.412 23.742-9.654 40.514 8.638 50.824a85.927 85.927 0 0065.764 3.921 45.888 45.888 0 0029.034-24.541c11.905-30.349-6.605-46.831-26.203-64.256-15.679-14.013-31.938-28.534-33.681-50.824a61.726 61.726 0 00-21.776-44.072 39.564 39.564 0 00-29.542-9.657c-12.848 1.598-29.035 12.271-31.503 21.056s-1.669 10.746-.653 12.053c1.016 1.306 4.863 1.67 7.258 1.379 6.243-.726 9.8 9.148 12.413 16.336 0 .944.58 1.743.871 2.324a5.814 5.814 0 003.847 2.541 9.212 9.212 0 016.678 2.396 15.683 15.683 0 015.734 10.455 18.806 18.806 0 01-3.339 13.287h.291z" fill="#150035"/><path d="M272.186 445.203a22.438 22.438 0 0111.106-24.831l2.25 5.155a16.916 16.916 0 00-7.766 18.878l-5.59.798zm35.712 98.016l-5.444-1.815a45.67 45.67 0 019.074-16.264l4.21 3.848a38.195 38.195 0 00-7.84 14.231zm29.399-83.279a47.274 47.274 0 00-12.195-29.042l3.775-4.211a51.846 51.846 0 0114.081 32.309l-5.661.944zm45.294 129.602l-2.831-4.937a29.047 29.047 0 0014.88-22.29h5.662a34.494 34.494 0 01-17.711 27.227z" fill="#150035"/><path d="M531.902 888.17v-70.282a.649.649 0 00-.435-.508l-64.167 5.808-5.879-35.432a.675.675 0 00-.509 0l-59.085 33.907h-.436l-11.323-3.194a.58.58 0 00-.653.581v69.629a6.02 6.02 0 003.048 4.864l59.521 34.488a16.334 16.334 0 0016.405 0l60.392-34.706a6.162 6.162 0 003.121-5.227v.072z" fill="red"/><path d="M460.186 933.187c-3.394.002-6.726-.9-9.655-2.614l-59.521-34.56a8.859 8.859 0 01-4.427-7.261V819.05a3.123 3.123 0 011.306-2.686 3.41 3.41 0 012.976-.581l10.38 2.904 58.069-33.471a3.56 3.56 0 013.412 0l1.161.654 5.662 34.269 62.207-5.59h.508a3.264 3.264 0 012.468 3.195v70.427a9.001 9.001 0 01-4.5 7.261l-60.465 34.633a18.655 18.655 0 01-9.581 3.122zm-68.014-111.16v66.58a3.41 3.41 0 001.742 2.541l59.521 34.56a13.712 13.712 0 0013.574 0l60.392-34.705a3.27 3.27 0 001.669-2.832v-67.668l-62.061 5.59-1.525-.581-.798-.363-5.517-32.963-57.053 32.746h-1.597l-8.347-2.905z" fill="#150035"/><path d="M531.539 817.453l-64.167 5.736-7.258 21.782v85.384c3.024.074 6.01-.679 8.638-2.178l60.392-34.633a6.313 6.313 0 003.121-5.3v-70.21a.508.508 0 00-.726-.581z" fill="#150035"/><path d="M460.185 933.187h-3.339v-89.014l8.638-25.195 2.323 1.307 63.876-5.736h.436a3.34 3.34 0 012.54 3.268v70.355a8.932 8.932 0 01-4.5 7.26l-60.465 34.706a18.934 18.934 0 01-9.509 3.049zm2.396-87.708v81.827c1.555-.28 3.051-.82 4.427-1.597l60.392-34.633a3.42 3.42 0 001.67-2.904v-67.669l-59.812 5.373-6.677 19.603zM398.488 826.6l1.96-5.446-10.453-3.267a.584.584 0 00-.582.291.578.578 0 00-.071.217v69.702a6.093 6.093 0 003.048 4.864l6.025 3.485V826.6h.073z" fill="#150035"/><path d="M401.318 901.749l-10.308-6.026a8.859 8.859 0 01-4.427-7.261V818.76a3.123 3.123 0 011.306-2.686 3.336 3.336 0 012.976-.581l13.356 3.703-1.016 2.904-1.815 5.01-.072 74.639zm-9.146-79.867v66.435a3.41 3.41 0 001.742 2.541l1.742 1.016v-66.289l.944-2.541-4.428-1.162z" fill="#150035"/><path d="M452.274 858.113l-59.812-34.706a6.317 6.317 0 010-10.963l60.683-34.851a15.96 15.96 0 0115.896 0l59.812 34.705a6.39 6.39 0 010 10.964l-60.61 34.851a15.969 15.969 0 01-15.969 0z" fill="#fff"/><path d="M460.259 863.049a18.214 18.214 0 01-9.436-2.541l-59.739-34.633a9.216 9.216 0 01-4.549-7.95 9.226 9.226 0 014.549-7.951l60.682-34.851a18.659 18.659 0 0118.655 0l59.811 34.633a9.22 9.22 0 010 15.901l-60.682 34.851a18.576 18.576 0 01-9.291 2.541zm.798-84.731a12.7 12.7 0 00-6.46 1.743l-60.682 34.85a3.344 3.344 0 00-1.743 2.977 3.412 3.412 0 001.743 3.05l59.811 34.705a12.987 12.987 0 0012.993 0l60.682-34.85a3.49 3.49 0 001.742-2.977 3.41 3.41 0 00-1.742-3.05l-59.811-34.705a13.135 13.135 0 00-6.533-1.743z" fill="#150035"/><path d="M389.196 829.503h-4.355v42.33h4.355v-42.33z" fill="red"/><path d="M492.778 758.861l-28.527-16.7a2.902 2.902 0 00-3.121 0l-34.696 21.782a1.45 1.45 0 00-.508 1.888l33.535 35.94c.062.213.062.44 0 .653v11.617c0 3.412 13.573-6.389 16.114-4.937l.435.508-17.057 10.673a1.314 1.314 0 00.847.637 1.304 1.304 0 001.04-.201l34.841-21.782a6.757 6.757 0 001.525-3.63v-27.663a11.113 11.113 0 00-4.428-8.785z" fill="#fff"/><path d="M460.331 823.478h-1.016a4.432 4.432 0 01-2.614-1.96l-1.379-2.396 3.412-2.106a3.41 3.41 0 01-1.597-2.977v-11.254l-33.608-35.722a4.285 4.285 0 011.38-5.736l34.696-21.781a5.51 5.51 0 016.025 0l28.889 16.917a13.655 13.655 0 016.025 11.181v27.445a9.442 9.442 0 01-2.178 5.446l-.653.58-34.842 21.782a4.062 4.062 0 01-2.54.581zm-30.85-58.085l32.374 34.851c.424.648.651 1.404.653 2.178v8.205l3.557-1.743c5.517-2.686 8.711-4.211 11.106-2.831h.508l16.259-10.093a4.34 4.34 0 00.654-1.524v-26.792a8.287 8.287 0 00-3.194-6.317l-28.599-16.699-33.318 20.765z" fill="#150035"/><path d="M434.854 796.107v2.25l24.244 20.475a2.316 2.316 0 002.395 1.134c.31-.051.606-.166.871-.335l33.971-21.201a6.756 6.756 0 001.524-3.63v-25.412a.942.942 0 00-.975-.947.952.952 0 00-.477.148l-34.333 21.782-27.22 5.736z" fill="#150035"/><path d="M460.911 823.116h-1.234a5.226 5.226 0 01-2.903-1.888l-25.115-21.201.58-5.809 27.874-6.316 34.406-21.709a3.697 3.697 0 013.774 0 3.767 3.767 0 011.96 3.339v25.703a9.433 9.433 0 01-2.178 5.445l-.653.581-34.043 21.201a5.094 5.094 0 01-2.468.654zM438.7 798.43l22.356 18.805 33.463-20.621a3.34 3.34 0 00.653-1.524V772.8l-31.067 19.313v.726L438.7 798.43z" fill="#150035"/><path d="M456.775 821.011l-28.527-16.7a11.104 11.104 0 01-4.573-8.785v-27.445c0-3.412 2.033-4.937 4.573-3.485l28.527 16.99a11.182 11.182 0 014.645 8.785v27.518c0 3.049-2.105 4.574-4.645 3.122z" fill="red"/><path d="M458.662 824.422a7.262 7.262 0 01-3.267-.944l-28.599-16.772a13.577 13.577 0 01-5.952-11.181V768.08a6.824 6.824 0 012.976-6.172 5.587 5.587 0 015.807 0l28.599 16.99a13.655 13.655 0 016.025 11.181v27.808a6.68 6.68 0 01-3.049 6.172 4.645 4.645 0 01-2.54.363zm-.436-5.881a10.724 10.724 0 010-1.162v-27.3a8.269 8.269 0 00-3.194-6.316l-28.236-16.7c.042.386.042.776 0 1.162v27.445a8.425 8.425 0 003.121 6.317l28.309 16.554z" fill="#150035"/><path d="M493.963 784.166l-30.595 18.425 2.246 3.732 30.596-18.424-2.247-3.733zm-55.554-89.707a1.81 1.81 0 00-1.337.582 1.805 1.805 0 00-.477 1.378l5.371 54.309c0 3.268 3.194 6.535 9.582 8.06 3.501.885 7.168.885 10.67 0 6.387-1.525 9.581-4.792 9.581-8.06l5.372-54.309c.02-.25-.012-.502-.095-.739a1.805 1.805 0 00-.99-1.07 1.818 1.818 0 00-.73-.151h-36.947z" fill="red"/><path d="M456.846 762.489a24.866 24.866 0 01-6.025-.726c-7.258-1.815-11.686-5.809-11.686-10.819l-5.371-54.018a4.355 4.355 0 011.234-3.558 4.421 4.421 0 013.411-1.525h36.947a4.43 4.43 0 013.411 1.525 4.36 4.36 0 011.234 3.558l-5.444 54.309c0 4.719-4.355 8.713-11.614 10.528a24.946 24.946 0 01-6.097.726zm-17.348-65.345l5.299 53.147c0 2.033 2.323 4.356 7.258 5.591a18.59 18.59 0 009.364 0c5.081-1.235 7.259-3.558 7.259-5.301l5.299-53.437h-34.479z" fill="#150035"/><path d="M471.365 686.327a8.785 8.785 0 010 16.699 31.854 31.854 0 01-29.035 0 8.783 8.783 0 01-4.379-13.506 8.78 8.78 0 014.379-3.193 31.866 31.866 0 0129.035 0z" fill="red"/><path d="M456.847 709.342a33.025 33.025 0 01-15.897-3.848 11.612 11.612 0 01-7.572-10.891 11.618 11.618 0 017.572-10.891 34.76 34.76 0 0131.866 0 11.616 11.616 0 015.493 17.524 11.616 11.616 0 01-5.493 4.258 33.1 33.1 0 01-15.969 3.848zm0-23.669a27.142 27.142 0 00-13.066 3.049c-2.903 1.743-4.573 3.848-4.573 5.954a7.698 7.698 0 004.573 5.881 29.542 29.542 0 0026.131 0 7.625 7.625 0 004.646-5.881c0-2.106-1.67-4.211-4.646-5.954a26.702 26.702 0 00-13.065-3.049z" fill="#150035"/><path d="M485.638 650.503l-31.758 52.911 5.974 3.588 31.759-52.911-5.975-3.588z" fill="#150035"/><path d="M456.5 665.581l-6.611 39.014 6.87 1.165 6.611-39.014-6.87-1.165z" fill="#150035"/><path d="M516.731 961.575v-31.003a.574.574 0 00-.363-.508l-64.239 5.808-5.879-35.432a.808.808 0 00-.581 0l-59.158 33.617h-.436l-11.25-3.122a.513.513 0 00-.726.508v30.349a6.174 6.174 0 003.048 4.792l59.304 34.996a16.506 16.506 0 008.202 2.18c2.877 0 5.704-.75 8.202-2.18l60.392-34.705a6.165 6.165 0 002.291-2.19 6.161 6.161 0 00.903-3.038l.29-.072z" fill="red"/><path d="M445.016 1006.66c-3.393.01-6.725-.9-9.654-2.61l-59.521-34.489a9.358 9.358 0 01-4.5-7.26v-30.785a3.407 3.407 0 011.306-2.686 3.415 3.415 0 012.976-.581l10.38 2.904 58.069-33.471a3.404 3.404 0 013.339 0l1.162.653 5.662 34.27 62.061-5.373h.508a3.264 3.264 0 012.468 3.195v31.438a8.783 8.783 0 01-4.5 7.261l-60.392 34.704a19.646 19.646 0 01-9.364 2.83zm-68.086-71.877v27.3a3.344 3.344 0 001.669 2.541l59.521 34.561a13.741 13.741 0 006.787 1.795c2.38 0 4.719-.62 6.787-1.795l60.392-34.633a3.777 3.777 0 001.742-2.905v-28.461l-62.061 5.518-1.162-.436-1.234-.653-5.662-33.036-57.053 32.745h-1.597l-8.129-2.541z" fill="#150035"/><path d="M516.295 930.138l-64.239 5.735-7.259 21.782v46.105c3.025.08 6.013-.67 8.638-2.18l60.392-34.631a6.247 6.247 0 003.194-5.228v-31.075a.506.506 0 00-.726-.508z" fill="#150035"/><path d="M445.015 1006.66h-3.338v-49.731l8.637-25.049 2.251 1.235 63.876-5.736h.508a3.411 3.411 0 012.468 3.267v31.366a9.006 9.006 0 01-4.501 7.26l-60.392 34.638a19.225 19.225 0 01-9.509 2.75zm2.323-48.424v42.544a12.353 12.353 0 004.428-1.594l60.392-34.633a3.778 3.778 0 001.742-2.904v-28.462l-59.811 5.373-6.751 19.676zm-64.095-18.952l2.396-5.228-10.453-2.904a.51.51 0 00-.511.041.516.516 0 00-.215.467v30.349a6.175 6.175 0 003.049 4.792l6.025 3.485v-30.93l-.291-.072z" fill="#150035"/><path d="M386.074 975.153l-10.235-5.954a9.358 9.358 0 01-4.5-7.26v-30.785a3.345 3.345 0 011.307-2.686 3.404 3.404 0 012.976-.581l13.356 3.703-1.017 2.904c-.798 2.251-1.451 4.138-1.814 5.01l-.073 35.649zm-9.146-40.732v27.3a3.328 3.328 0 001.67 2.541l1.742 1.017v-27.01l.943-2.541-4.355-1.307z" fill="#150035"/><path d="M437.03 970.796l-59.739-34.705a6.317 6.317 0 010-10.964l60.683-34.633a15.6 15.6 0 0115.824 0l59.811 34.633a6.317 6.317 0 010 10.964l-60.683 34.85a15.962 15.962 0 01-15.896-.145z" fill="#fff"/><path d="M445.015 975.732a18.652 18.652 0 01-9.364-2.469l-59.811-34.705a9.22 9.22 0 01-4.549-7.951 9.222 9.222 0 014.549-7.95l60.61-34.851a18.94 18.94 0 0118.727 0l59.811 34.706a9.14 9.14 0 014.558 7.914 9.147 9.147 0 01-4.558 7.914l-60.682 34.851a18.368 18.368 0 01-9.291 2.541zm.871-84.731a13.137 13.137 0 00-6.533 1.742l-60.973 34.851a3.491 3.491 0 00-1.742 2.977 3.335 3.335 0 001.742 3.049l59.812 34.706a12.984 12.984 0 0012.993 0l60.682-34.778a3.56 3.56 0 000-6.099l-59.811-34.706a12.693 12.693 0 00-6.17-1.742z" fill="#150035"/><path d="M406.98 929.99l31.503 18.152 18.437-10.673-31.213-18.442-18.727 10.963z" fill="#fff"/><path d="M438.482 951.409l-37.164-21.782 24.462-14.521 36.729 21.782-24.027 14.521zm-25.84-21.782l25.84 14.521 12.848-7.26-25.623-15.102-13.065 7.841z" fill="#150035"/></svg>