<svg width="41" height="41" fill="none" xmlns="http://www.w3.org/2000/svg"><path d="M38.938 5.272L37.436 3.77a7.04 7.04 0 00-9.956 0L8.292 22.958a5.01 5.01 0 00-1.459 3.521v3.417a2.563 2.563 0 002.563 2.562h3.416A5.012 5.012 0 0016.334 31l14.168-14.167a.854.854 0 10-1.208-1.208L15.126 29.792a3.293 3.293 0 01-2.313.958H9.396a.854.854 0 01-.854-.854v-3.417a3.292 3.292 0 01.958-2.313L28.688 4.978a5.467 5.467 0 017.54 0L37.73 6.48a5.334 5.334 0 010 7.54L16.333 35.417a7.346 7.346 0 01-5.229 2.166H4.271a2.563 2.563 0 01-2.563-2.562v-6.834a7.445 7.445 0 012.166-5.229L20.25 6.582a.854.854 0 10-1.207-1.208L2.667 21.751A9.166 9.166 0 000 28.187v6.834a4.27 4.27 0 004.27 4.27h6.834a9.055 9.055 0 006.437-2.666l21.397-21.397a7.04 7.04 0 000-9.956z" fill="#CFD8DC"/><path d="M11.104 39.292H4.271A4.27 4.27 0 010 35.02v-6.834a9.166 9.166 0 012.667-6.437L19.043 5.374a.854.854 0 111.208 1.208L3.874 22.958a7.445 7.445 0 00-2.166 5.23v6.833a2.563 2.563 0 002.563 2.562h6.833a7.346 7.346 0 005.23-2.166L37.73 14.02a5.333 5.333 0 000-7.54l-1.502-1.502a5.467 5.467 0 00-7.54 0L9.5 24.166a3.291 3.291 0 00-.958 2.313v3.417c0 .472.382.854.854.854h3.416a3.293 3.293 0 002.314-.958l14.167-14.167a.854.854 0 111.207 1.207L16.334 31a5.012 5.012 0 01-3.52 1.46H9.396a2.563 2.563 0 01-2.563-2.563V26.48a5.009 5.009 0 011.46-3.52L27.48 3.77a7.04 7.04 0 019.956 0l1.502 1.502a7.04 7.04 0 010 9.956L17.541 36.625a9.055 9.055 0 01-6.437 2.667z" fill="#fff"/></svg>