<svg width="21" height="21" fill="none" xmlns="http://www.w3.org/2000/svg"><g clip-path="url(#clip0)" fill="red"><path d="M11.019 9.981a.41.41 0 10-.58.58.41.41 0 00.58-.58zM16.24 4.76a2.05 2.05 0 10-2.9 2.899 2.05 2.05 0 002.9-2.898zm-.58 2.32c-.48.48-1.26.48-1.74.001a1.23 1.23 0 111.74 0z"/><path d="M20.88.12a.409.409 0 00-.306-.12c-.092.004-2.3.092-4.925 1.02-2.104.743-3.857 1.806-5.211 3.16-.304.304-.599.626-.881.96-1.34-.788-2.412-.541-3.09-.178-1.563.836-2.53 3.105-2.53 4.729a.41.41 0 00.7.29c.825-.824 1.84-.772 2.172-.729l.144.144c-.283.672-.51 1.341-.677 1.992-.06.235-.04.485.05.712-.396.182-.777.45-1.108.781-1.056 1.056-1.27 3.63-1.28 3.738a.41.41 0 00.442.441c.109-.008 2.682-.223 3.738-1.278a3.86 3.86 0 00.78-1.108c.242.095.49.107.714.05a14.37 14.37 0 001.991-.678l.144.144c.044.332.095 1.348-.729 2.171a.41.41 0 00.29.7c1.624 0 3.893-.966 4.73-2.528.362-.678.61-1.751-.179-3.09.335-.283.656-.578.96-.882 1.354-1.354 2.418-3.107 3.16-5.21C20.907 2.726 20.996.518 21 .425a.41.41 0 00-.12-.305zM4.854 8.81c.254-1.233.994-2.587 1.998-3.124.671-.359 1.405-.324 2.185.103a16.584 16.584 0 00-1.724 2.81c-.006-.005-.08-.097-.217-.128a3.506 3.506 0 00-2.242.339zm2.683 6.393c-.564.564-1.887.861-2.723.982.121-.836.419-2.159.983-2.723a2.955 2.955 0 011.05-.69l1.38 1.38a2.955 2.955 0 01-.69 1.05zm1.87-1.273a.385.385 0 01-.359-.116l-.803-.804-1.06-1.059a.385.385 0 01-.116-.358c.132-.512.303-1.037.512-1.567l3.392 3.392c-.53.209-1.055.38-1.566.512zm5.906.217c-.537 1.004-1.89 1.744-3.123 1.999.393-.74.48-1.682.336-2.253-.033-.133-.12-.2-.125-.207a16.59 16.59 0 002.81-1.723c.426.78.461 1.513.102 2.184zm.925-4.165c-.37.37-.768.727-1.183 1.061a15.76 15.76 0 01-3.27 2.027L7.93 9.213a15.756 15.756 0 012.027-3.27c.335-.415.692-.813 1.061-1.183 1.215-1.215 2.784-2.182 4.662-2.878l3.437 3.437c-.696 1.879-1.663 3.447-2.878 4.662zm3.173-5.527l-2.866-2.867a18.44 18.44 0 013.599-.732 18.439 18.439 0 01-.733 3.599z"/><path d="M9.858 16.941a.41.41 0 00-.58 0l-1.16 1.16a.41.41 0 00.58.58l1.16-1.16a.41.41 0 000-.58zm-5.8-5.8a.41.41 0 00-.58 0l-1.16 1.16a.41.41 0 10.58.58l1.16-1.16a.41.41 0 000-.58zm2.902 6.381a.41.41 0 00-.581 0L3.601 20.3a.41.41 0 10.58.58l2.778-2.778a.41.41 0 000-.58zm-3.282 0a.41.41 0 00-.58 0L.319 20.3a.41.41 0 10.58.58l2.779-2.778a.41.41 0 000-.58zm-.2-3.481a.41.41 0 00-.58 0L.12 16.82a.41.41 0 10.58.58l2.778-2.779a.41.41 0 000-.58zm9.281-5.801a.41.41 0 00-.58 0l-.58.58a.41.41 0 00.58.58l.58-.58a.41.41 0 000-.58z"/></g><defs><clipPath id="clip0"><path fill="#fff" d="M0 0h21v21H0z"/></clipPath></defs></svg>