<svg width="23" height="23" fill="none" xmlns="http://www.w3.org/2000/svg"><g clip-path="url(#clip0)" fill="red"><path d="M15.955 17.73a.45.45 0 00-.646-.002.45.45 0 10.628.642.45.45 0 00.018-.64z"/><path d="M20.022 9.081a.45.45 0 00-.842.312 9.4 9.4 0 01.584 3.276c0 5.201-4.231 9.433-9.432 9.433a9.377 9.377 0 01-5.365-1.674.45.45 0 10-.512.738A10.27 10.27 0 0010.332 23c2.76 0 5.354-1.075 7.305-3.026a10.263 10.263 0 003.026-7.305 10.3 10.3 0 00-.64-3.588zM13.811 2.94a10.303 10.303 0 00-3.479-.601 10.258 10.258 0 00-7.304 3.026 10.263 10.263 0 00-3.026 7.304c0 2.14.648 4.193 1.875 5.938a.448.448 0 10.735-.517A9.372 9.372 0 01.9 12.67c0-5.202 4.232-9.433 9.432-9.433 1.091 0 2.16.185 3.177.548a.449.449 0 10.302-.846z"/><path d="M22.965 3.725a.45.45 0 00-.415-.277h-2.36l.254-.254a.45.45 0 00-.636-.635l-.257.257V.449a.45.45 0 00-.766-.317l-3.96 3.96a.449.449 0 00-.131.317v1.558a7.906 7.906 0 00-4.361-1.293c-4.409 0-7.995 3.587-7.995 7.995 0 4.409 3.586 7.995 7.995 7.995a7.985 7.985 0 004.14-1.154.45.45 0 00-.466-.768 7.084 7.084 0 01-3.674 1.024 7.105 7.105 0 01-7.097-7.097 7.105 7.105 0 017.097-7.096c1.598 0 3.105.518 4.36 1.497v.603l-.818.819a5.455 5.455 0 00-3.542-1.302 5.486 5.486 0 00-5.48 5.48 5.486 5.486 0 005.48 5.479 5.486 5.486 0 005.48-5.48c0-1.35-.491-2.586-1.303-3.542l.822-.822h.598a7.113 7.113 0 011.5 4.364 7.079 7.079 0 01-1.062 3.735.45.45 0 10.764.474 7.975 7.975 0 001.196-4.209 8.019 8.019 0 00-1.296-4.364h1.558c.12 0 .234-.047.318-.131l3.96-3.96a.449.449 0 00.097-.49zm-8.05 8.944a4.587 4.587 0 01-4.582 4.582 4.587 4.587 0 01-4.581-4.582 4.587 4.587 0 014.58-4.581 4.56 4.56 0 012.906 1.041l-1.023 1.023a3.127 3.127 0 00-1.882-.627 3.148 3.148 0 00-3.144 3.144 3.148 3.148 0 003.144 3.144 3.148 3.148 0 003.144-3.144c0-.705-.233-1.357-.627-1.882l1.023-1.022a4.56 4.56 0 011.041 2.904zm-4.9.318a.448.448 0 00.635 0l1.556-1.555c.235.355.373.78.373 1.237a2.248 2.248 0 01-2.246 2.246 2.248 2.248 0 01-2.246-2.246 2.248 2.248 0 012.246-2.245c.457 0 .882.137 1.237.373l-1.555 1.555a.45.45 0 000 .635zm5.577-6.212v-2.18l3.061-3.061v2.18l-3.061 3.061zm2.812.632H16.23l3.062-3.061h2.173l-3.06 3.061zM3.653 19.33a.45.45 0 00-.635.635.452.452 0 00.635 0 .453.453 0 00.132-.318.453.453 0 00-.132-.317z"/></g><defs><clipPath id="clip0"><path fill="#fff" d="M0 0h23v23H0z"/></clipPath></defs></svg>