<svg width="21" height="21" fill="none" xmlns="http://www.w3.org/2000/svg"><path d="M18.9 3.15H9.45v.7h9.45v-.7zm-3.5 1.4H9.45v.7h5.95v-.7zm0 1.4H9.45v.7h5.95v-.7zm3.5-4.2h-6.65v.7h6.65v-.7zm-7.35 0h-.7v.7h.7v-.7zM10.85 14h-.7v.7h.7V14zM5.848 2.347l-.495-.494-.7.7a.35.35 0 000 .494l.7.7.495-.494-.452-.453.452-.453zm2.8.206l-.7-.7-.495.494.453.453-.453.453.495.494.7-.7a.35.35 0 000-.494zm-1.981-.914l-.7 2.1.663.221.701-2.1-.664-.221zM18.2 10.85v-2.8h-.7v2.8h-.7v-3.5h-.7v3.5h-.7V9.1h-.7v1.75H14v-2.1h-.7v2.1h-.7v-1.4h-.7v1.4h-.7v.7h7.7v-.7h-.7z" fill="red"/><path d="M18.55 0H2.45a2.102 2.102 0 00-2.1 2.1V14a2.102 2.102 0 002.1 2.1h4.333l-1.4 2.8H3.5a1.05 1.05 0 100 2.1h14a1.05 1.05 0 100-2.1h-1.884l-1.4-2.8h4.334a2.102 2.102 0 002.1-2.1V2.1a2.102 2.102 0 00-2.1-2.1zM1.05 4.925l.795.947a.35.35 0 00.268.125h1.072a.35.35 0 00.268-.125l.796-.947.785.255.087 1.233a.35.35 0 00.143.258l.867.63c.084.06.19.082.29.057l1.202-.299.486.668-.655 1.05a.35.35 0 00-.034.294l.331 1.019a.35.35 0 00.201.216l1.148.465v.826l-1.148.465a.348.348 0 00-.202.217l-.105.321H5.63a3.295 3.295 0 00-4.58-4.298V4.925zm0 4.21A2.6 2.6 0 014.83 12.6H1.05V9.135zM17.5 19.6a.35.35 0 110 .7h-14a.35.35 0 010-.7h14zm-2.667-.7H6.166l1.4-2.8h5.867l1.4 2.8zM19.95 14a1.4 1.4 0 01-1.4 1.4H2.45a1.4 1.4 0 01-1.4-1.4v-.7h18.9v.7zm0-1.4H8.489l1.092-.443a.35.35 0 00.219-.324v-1.298a.35.35 0 00-.219-.324l-1.216-.493-.23-.708.693-1.113a.35.35 0 00-.014-.39l-.763-1.05a.35.35 0 00-.367-.135l-1.273.315L5.81 6.2l-.092-1.305a.35.35 0 00-.242-.309l-1.233-.4a.353.353 0 00-.377.107l-.842 1.003h-.747l-.842-1.003a.353.353 0 00-.377-.108l-.008.003V2.1A1.4 1.4 0 012.45.7h16.1a1.4 1.4 0 011.4 1.4v10.5z" fill="red"/></svg>