<svg width="21" height="21" fill="none" xmlns="http://www.w3.org/2000/svg"><g clip-path="url(#clip0)" fill="red"><path d="M8.755 1.404a7.347 7.347 0 107.348 7.347 7.355 7.355 0 00-7.348-7.347zm0 .7a6.64 6.64 0 015.429 2.823l-.875.875a1.38 1.38 0 00-.705-.2 1.4 1.4 0 00-1.4 1.4c.002.249.07.493.199.706L9.112 10a1.357 1.357 0 00-1.413 0L6.108 8.408a1.38 1.38 0 00.198-.706 1.397 1.397 0 00-2.749-.35H2.26a6.657 6.657 0 016.496-5.248zm4.549 4.898a.7.7 0 11-1.4 0 .7.7 0 011.4 0zM9.105 11.2a.7.7 0 11-1.4 0 .7.7 0 011.4 0zM5.607 7.702a.7.7 0 11-1.4 0 .7.7 0 011.4 0zm6.378 6.862c-.988.548-2.1.836-3.23.835a6.643 6.643 0 01-6.61-7.348h1.412a1.4 1.4 0 001.35 1.05c.249-.001.493-.07.706-.198l1.591 1.59a1.38 1.38 0 00-.198.707 1.4 1.4 0 002.799 0 1.381 1.381 0 00-.198-.706l2.29-2.291c.214.129.458.197.707.198a1.4 1.4 0 001.4-1.4 1.38 1.38 0 00-.199-.706l.763-.762a6.642 6.642 0 01-2.583 9.03z"/><path d="M17.501 3.504a1.4 1.4 0 001.35-1.05H21v-.7h-2.149a1.4 1.4 0 00-1.35-1.049 1.4 1.4 0 00-1.4 1.4c.002.249.07.493.2.706l-.615.615a8.747 8.747 0 10-2.184 12.667l1.055 1.056.495.494 2.817 2.817a1.834 1.834 0 102.594-2.594l-2.817-2.816-.495-.495-1.055-1.056a8.718 8.718 0 000-9.494l.7-.7c.212.129.456.198.705.199zm0-2.1a.7.7 0 110 1.4.7.7 0 010-1.4zm2.467 16.957a1.135 1.135 0 11-1.605 1.604l-2.816-2.816 1.604-1.605 2.817 2.817zm-3.311-3.311l-1.605 1.604-.968-.968c.05-.038.095-.08.144-.119a9.273 9.273 0 00.383-.325l.112-.105a8.2 8.2 0 00.417-.417l.105-.112a8.841 8.841 0 00.325-.383c.039-.048.08-.095.118-.144l.969.969zM15.3 13.424c-.11.154-.224.305-.344.45-.035.043-.072.084-.108.125a7.868 7.868 0 01-.846.846l-.125.108a8.06 8.06 0 111.423-1.529z"/></g><defs><clipPath id="clip0"><path fill="#fff" d="M0 0h21v21H0z"/></clipPath></defs></svg>