<svg width="640" height="548" fill="none" xmlns="http://www.w3.org/2000/svg"><path d="M131.195 517.835l-6.082 3.505a2.798 2.798 0 01-2.465 0l-5.479-3.34c-.767-.384-.822-1.041 0-1.369l6.136-3.559a2.841 2.841 0 012.411 0l5.753 3.34c.219.383.329 1.04-.274 1.423zm14.903-8.598l-6.082 3.505a2.633 2.633 0 01-2.465 0l-5.753-3.505c-.713-.438-.767-1.04 0-1.423l6.081-3.504a2.625 2.625 0 012.466 0l5.753 3.285c.548.602.603 1.204 0 1.642zm-.767 16.756l-6.082 3.504a2.637 2.637 0 01-2.465 0l-5.589-3.395c-.712-.438-.767-1.04 0-1.423l6.137-3.505a2.52 2.52 0 012.41 0l5.753 3.286c.384.547.493 1.204-.164 1.533zm-14.958 8.651l-6.082 3.505a2.696 2.696 0 01-2.411 0l-5.752-3.34c-.768-.384-.822-1.041 0-1.369l6.136-3.559a2.852 2.852 0 012.411 0l5.753 3.34c.767.383.767 1.04-.055 1.423zm29.915-17.303l-6.081 3.559a2.805 2.805 0 01-2.466 0l-5.753-3.45c-.712-.383-.767-1.04 0-1.369l6.082-3.559a3.028 3.028 0 012.465 0l5.753 3.34c.548.493.603 1.15 0 1.479zm14.739-8.597l-6.137 3.505a2.523 2.523 0 01-2.41 0l-5.753-3.286c-.713-.438-.822-1.04 0-1.423l6.136-3.778a2.625 2.625 0 012.466 0l5.479 3.285c.986.712 1.041 1.314.219 1.697zm-14.684 25.9l-6.082 3.504a2.785 2.785 0 01-2.465 0l-5.753-3.34c-.712-.438-.767-1.04 0-1.423l6.136-3.505a2.697 2.697 0 012.411 0l5.753 3.34c.548.438.658 1.096 0 1.424zm-14.958 8.65l-6.081 3.505a2.528 2.528 0 01-2.411 0l-5.698-3.395c-.767-.438-.822-1.095 0-1.424l6.136-3.504a2.685 2.685 0 012.411 0l5.479 3.34c.712.274.822 1.095.164 1.478zm29.916-17.246l-6.082 3.504a2.634 2.634 0 01-2.465 0l-5.479-3.285c-.713-.438-.767-1.095 0-1.424l6.081-3.504a2.793 2.793 0 012.466 0l5.753 3.34c.274.383.329.985-.274 1.369zm14.958-8.651l-6.137 3.505a2.696 2.696 0 01-2.41 0l-5.479-3.34c-.713-.439-.822-1.041 0-1.424l6.081-3.504a2.793 2.793 0 012.466 0l5.479 3.34c.548.438.602 1.095 0 1.423zm14.957-8.597l-6.136 3.504a2.528 2.528 0 01-2.411 0l-5.753-3.285c-.712-.438-.822-1.096 0-1.424l6.027-3.833a2.683 2.683 0 012.411 0l5.478 3.34c.932.712.987 1.314.384 1.698zm-30.682 34.057l-6.082 3.504a2.637 2.637 0 01-2.466 0l-5.753-3.285c-.712-.438-.767-1.095 0-1.424l6.082-3.504a2.79 2.79 0 012.466 0l5.753 3.34c.493.602.493.985 0 1.369zm14.957-8.651l-6.081 3.504a2.793 2.793 0 01-2.466 0l-5.479-3.34c-.712-.438-.767-1.04 0-1.423l6.082-3.505a2.799 2.799 0 012.465 0l5.479 3.285c.548.493.603 1.15 0 1.479zm14.958-8.541l-6.137 3.504a2.51 2.51 0 01-2.41 0l-5.753-3.504c-.712-.438-.822-1.095 0-1.424l6.081-3.504a2.805 2.805 0 012.466 0l5.479 3.34c.822.548.877 1.15.274 1.588zm14.903-8.707l-5.972 3.504a2.685 2.685 0 01-2.411 0l-5.479-3.34c-.712-.438-.822-1.04 0-1.423l6.082-3.505a2.683 2.683 0 012.41 0l5.753 3.286c.165.492.274 1.149-.383 1.478zm-15.67 25.46l-6.082 3.505a2.632 2.632 0 01-2.465 0l-5.753-3.286c-.712-.438-.767-1.095 0-1.423l6.082-3.505a2.798 2.798 0 012.465 0l5.753 3.34c.548.384.603 1.041 0 1.369zm15.177-8.651l-6.137 3.504a2.681 2.681 0 01-2.41 0l-5.479-3.34c-.713-.438-.822-1.04 0-1.424l6.081-3.504a2.528 2.528 0 012.411 0l5.753 3.285c.11.493.164 1.15-.219 1.479zM15.315 468.172l-6.082 3.504a2.525 2.525 0 01-2.41 0l-5.48-3.285c-.712-.438-.822-1.04 0-1.424l6.082-3.504a2.525 2.525 0 012.41 0l5.48 3.285c.821.438.821 1.041 0 1.424zm14.957-8.652l-6.082 3.559a3.01 3.01 0 01-2.465 0l-5.48-3.34c-.766-.383-.821-1.04 0-1.423l5.699-3.833a2.684 2.684 0 012.41 0l5.48 3.34c.986.712 1.096 1.369.438 1.697zm-.767 16.865l-6.081 3.559a2.852 2.852 0 01-2.411 0l-5.753-3.559c-.712-.383-.822-1.04 0-1.424l6.082-3.504a2.684 2.684 0 012.41 0l5.48 3.34c.821.548.93 1.205.273 1.588zm-14.903 8.596l-6.136 3.504a2.514 2.514 0 01-2.411 0L.576 485.2c-.712-.438-.822-1.04 0-1.424l6.082-3.504a2.525 2.525 0 012.41 0l5.753 3.285c.33.438.384 1.041-.219 1.424zm29.861-17.248l-6.082 3.505a2.634 2.634 0 01-2.465 0l-5.48-3.286c-.766-.438-.821-1.04 0-1.423l6.137-3.505a2.524 2.524 0 012.41 0l5.754 3.286c.274.438.383 1.04-.274 1.423zm14.957-8.65l-6.082 3.559a3.011 3.011 0 01-2.465 0l-5.753-3.34c-.712-.383-.767-1.04 0-1.424l5.917-3.394a2.789 2.789 0 012.466 0l5.479 3.34c.986.273.986.931.438 1.259zm-14.903 25.899l-6.081 3.559a2.852 2.852 0 01-2.411 0l-5.48-3.34c-.711-.384-.821-1.041 0-1.369l6.082-3.559a2.853 2.853 0 012.411 0l5.753 3.34c.274.383.384 1.04-.274 1.369zm-14.903 8.65l-6.136 3.505a2.524 2.524 0 01-2.41 0l-5.48-3.286c-.712-.438-.821-1.04 0-1.423l6.082-3.505a2.524 2.524 0 012.41 0l5.48 3.286c.602.602.657 1.04.055 1.423zm29.861-17.247l-6.081 3.505a2.635 2.635 0 01-2.466 0l-5.479-3.286c-.767-.438-.822-1.04 0-1.423l6.137-3.505a2.524 2.524 0 012.41 0l5.753 3.286c.22.438.22 1.04-.274 1.423zm14.958-8.652l-6.082 3.559a3.01 3.01 0 01-2.465 0l-5.918-3.45c-.712-.383-.767-1.04 0-1.369l6.082-3.559a3.027 3.027 0 012.466 0l5.478 3.34c.987.493 1.041 1.15.439 1.479zm14.957-8.596l-6.081 3.504a2.635 2.635 0 01-2.466 0l-5.753-3.285c-.712-.438-.767-1.041 0-1.424l5.918-3.45a2.635 2.635 0 012.465 0l5.753 3.286c.712.383.767.985.165 1.369zm-30.682 34.057l-6.081 3.504a2.513 2.513 0 01-2.411 0l-5.753-3.285c-.932-.602-.932-1.15-.22-1.533l6.137-3.504a2.514 2.514 0 012.41 0l5.754 3.285c.712.547.822 1.15.164 1.533zm14.957-8.651l-6.081 3.559a3.01 3.01 0 01-2.466 0l-5.479-3.34c-.712-.383-.767-1.041 0-1.369l5.808-3.669a2.852 2.852 0 012.41 0l5.754 3.34c.602.493.712 1.15.054 1.479zm14.958-8.597l-6.081 3.505a2.635 2.635 0 01-2.466 0l-5.753-3.286c-.712-.438-.767-1.04 0-1.423l5.918-3.833a2.624 2.624 0 012.465 0l5.48 3.285c.985.767 1.04 1.369.437 1.752zm15.177-8.65l-6.356 3.614a2.852 2.852 0 01-2.41 0l-5.48-3.34c-.712-.383-.821-1.04 0-1.369l6.082-3.559a3.011 3.011 0 012.466 0l5.753 3.34c.274.328.329.986-.055 1.314zM87.856 492.81l-5.972 3.45a2.635 2.635 0 01-2.466 0l-5.479-3.286c-.712-.438-.767-1.04 0-1.423l6.082-3.505a2.635 2.635 0 012.466 0l5.479 3.286c.438.438.493 1.04-.11 1.478zm14.958-8.704l-6.082 3.559a3.027 3.027 0 01-2.465 0l-5.753-3.34c-.713-.384-.767-1.041 0-1.369l6.081-3.559a3.01 3.01 0 012.466 0l5.753 3.34c.548.383.603 1.04 0 1.369zm-30.025 17.301l-6.082 3.505a2.524 2.524 0 01-2.41 0l-5.48-3.286c-.712-.438-.821-1.04 0-1.423l6.082-3.505a2.524 2.524 0 012.411 0l5.753 3.286c.274.438.383 1.04-.274 1.423zm-14.903 8.597l-6.136 3.559a2.852 2.852 0 01-2.411 0l-5.808-3.45c-.712-.383-.822-1.04 0-1.423l6.082-3.505a2.802 2.802 0 012.465 0l5.48 3.34c.876.712.93 1.15.328 1.479zm29.916.055l-5.918 3.504a2.525 2.525 0 01-2.41 0l-5.48-3.285c-.712-.438-.821-1.041 0-1.424l6.082-3.504a2.513 2.513 0 012.41 0l5.754 3.285c.11.602.219 1.04-.438 1.424zm-14.904 8.652l-6.136 3.505a2.696 2.696 0 01-2.41 0l-5.754-3.34c-.712-.384-.822-1.041 0-1.369l6.082-3.559a3.011 3.011 0 012.465 0l5.48 3.34c.821.383.876 1.04.273 1.423zm29.861-17.248l-6.081 3.504a2.685 2.685 0 01-2.411 0l-5.753-3.34c-.767-.383-.822-1.04 0-1.369l6.136-3.559a2.852 2.852 0 012.411 0l5.753 3.34c.493.383.603 1.04-.055 1.424zm14.957-8.652l-6.081 3.504a2.625 2.625 0 01-2.466 0l-5.753-3.504c-.712-.438-.767-1.04 0-1.423l5.863-3.395a2.524 2.524 0 012.411 0l5.752 3.285c.822.548.932 1.15.274 1.533zm14.959-8.597l-6.082 3.504a2.79 2.79 0 01-2.466 0l-5.753-3.34c-.712-.383-.767-1.04 0-1.368l6.082-3.559a3.013 3.013 0 012.466 0l5.479 3.34c.821.383.876 1.04.274 1.423zm-30.683 34.057l-6.082 3.505a2.696 2.696 0 01-2.41 0l-5.753-3.34c-.713-.384-.822-1.041 0-1.369l6.082-3.559a2.838 2.838 0 012.41 0l5.753 3.34c.548.383.658 1.04 0 1.423zm14.958-8.65l-6.082 3.504a2.634 2.634 0 01-2.465 0l-5.479-3.285c-.767-.438-.822-1.041 0-1.424l6.136-3.504a2.513 2.513 0 012.411 0l5.753 3.285c.274.438.383 1.04-.274 1.424zm14.957-8.596l-6.191 3.505a2.799 2.799 0 01-2.465 0l-5.753-3.34c-.713-.384-.767-1.041 0-1.369l6.081-3.559a3.013 3.013 0 012.466 0l5.753 3.34c.657.383.712 1.04.109 1.423zm14.958-8.652l-6.082 3.504a2.633 2.633 0 01-2.465 0l-5.753-3.285c-.712-.438-.767-1.04 0-1.424l5.917-3.833a2.636 2.636 0 012.466 0l5.479 3.286c1.205.766 1.205 1.369.438 1.752zm232.966-167.33l-6.246 3.504a2.733 2.733 0 01-2.52 0l-5.917-3.395c-.712-.438-.822-1.095 0-1.478l6.246-3.614a2.91 2.91 0 012.52 0l5.917 3.395c.548.547.658 1.204 0 1.588zm-15.341 8.978l-6.246 3.614a3.123 3.123 0 01-2.52 0l-5.918-3.614c-.712-.383-.822-1.04 0-1.423l6.027-3.669a2.74 2.74 0 012.52 0l5.918 3.395c.767.547.876 1.204.219 1.697zm29.696-.601l-6.246 3.614a2.745 2.745 0 01-2.52 0l-5.917-3.395c-.712-.438-.822-1.041 0-1.424l6.301-3.668a2.733 2.733 0 012.52 0l5.917 3.394c.712.493.822 1.15-.055 1.479zm-15.122 8.87l-6.246 3.614a2.745 2.745 0 01-2.52 0l-5.917-3.395c-.713-.438-.822-1.095 0-1.424l6.246-3.614a2.745 2.745 0 012.52 0l5.917 3.395c.548.438.658 1.041 0 1.424zm29.915-.438l-6.246 3.614a2.745 2.745 0 01-2.52 0l-6.027-3.505c-.712-.438-.822-1.095 0-1.478l6.246-3.614a2.908 2.908 0 012.52 0l5.918 3.395c.657.547.767 1.204.109 1.588zm-15.34 8.871l-6.246 3.614a2.913 2.913 0 01-2.521 0l-5.917-3.395c-.712-.438-.822-1.095 0-1.478l6.246-3.614a2.736 2.736 0 012.52 0l5.918 3.395c.547.438.547 1.204 0 1.478zm30.737-.001l-6.246 3.614a2.752 2.752 0 01-2.521 0l-5.862-3.395c-.767-.438-.822-1.04 0-1.424l6.355-3.723a2.637 2.637 0 012.466 0l5.917 3.395c.493.547.548 1.259-.109 1.533zm-15.342 8.87l-6.246 3.614a2.74 2.74 0 01-2.52 0l-6.082-3.504c-.767-.438-.822-1.095 0-1.424l6.301-3.613a2.621 2.621 0 012.465 0l5.918 3.394c.767.548.821 1.15.164 1.533zm30.737-17.684l-6.301 3.614a3.007 3.007 0 01-2.465 0l-5.918-3.45c-.767-.383-.821-1.04 0-1.423l6.247-3.614a2.733 2.733 0 012.52 0l5.862 3.395c.603.438.658 1.095.055 1.478zm15.342-8.871l-6.137 3.613a2.733 2.733 0 01-2.52 0l-5.917-3.394c-.713-.438-.822-1.095 0-1.479l6.246-3.614a2.908 2.908 0 012.52 0l5.917 3.395c.439.438.548 1.095-.109 1.479zm15.341-8.87l-6.247 3.614a2.733 2.733 0 01-2.52 0l-5.917-3.395c-.712-.438-.822-1.095 0-1.423l6.246-3.614a2.908 2.908 0 012.52 0l5.918 3.45c.438.273.438.985 0 1.368zm15.341-8.87l-6.246 3.614a2.752 2.752 0 01-2.521 0l-5.862-3.395c-.767-.438-.822-1.04 0-1.424l6.301-3.613a2.621 2.621 0 012.465 0l5.918 3.394c.493.438.602 1.095-.055 1.424zm15.341-8.652l-6.246 3.559a2.91 2.91 0 01-2.52 0l-5.863-3.559c-.767-.383-.822-1.04 0-1.424l6.301-3.723a2.637 2.637 0 012.466 0l5.917 3.395c.548.547.603 1.204-.055 1.752zm15.396-9.035l-6.301 3.56a2.802 2.802 0 01-2.466 0l-5.917-3.395c-.767-.438-.822-1.095 0-1.479l6.246-3.613a2.895 2.895 0 012.52 0l5.863 3.394c.603.493.657 1.15.055 1.533zm15.341-8.869l-6.191 3.613a2.736 2.736 0 01-2.52 0l-5.918-3.394c-.712-.438-.821-1.095 0-1.479l6.246-3.614a3.131 3.131 0 012.521 0l5.917 3.45c.493.383.603 1.04-.055 1.424zm-92.923 70.414l-6.411 3.614a2.733 2.733 0 01-2.52 0l-5.862-3.395c-.767-.438-.822-1.095 0-1.478l6.3-3.614a3.012 3.012 0 012.466 0l5.917 3.45c.713.383.767 1.04.11 1.423zm15.505-8.706l-6.301 3.614a2.636 2.636 0 01-2.465 0l-6.027-3.614c-.767-.438-.822-1.095 0-1.424l6.246-3.614a2.746 2.746 0 012.52 0l5.863 3.395c.602.493.657 1.095.164 1.643zm15.232-9.035l-6.246 3.559a2.74 2.74 0 01-2.52 0l-5.918-3.395c-.712-.438-.822-1.04 0-1.423l6.246-3.614a2.74 2.74 0 012.521 0l5.917 3.395c.548.492.657 1.149 0 1.478zm15.341-8.815l-6.247 3.614a3.123 3.123 0 01-2.52 0l-5.917-3.45c-.712-.383-.822-1.04 0-1.423l6.027-3.724a2.745 2.745 0 012.52 0l5.917 3.395c.767.548.877 1.205.22 1.588zm15.341-8.871l-6.246 3.613a2.736 2.736 0 01-2.52 0l-5.918-3.394c-.712-.438-.821-1.096 0-1.479l6.246-3.614a2.913 2.913 0 012.521 0l5.917 3.395c.548.438.658 1.095 0 1.479zm15.341-8.869l-6.465 3.614a2.736 2.736 0 01-2.52 0l-5.863-3.395c-.767-.438-.822-1.095 0-1.423l6.301-3.614a2.79 2.79 0 012.465 0l5.918 3.449c.767.329.822.986.164 1.369zm15.451-8.871l-6.301 3.613a2.625 2.625 0 01-2.465 0l-5.918-3.394c-.767-.438-.821-1.041 0-1.424l6.027-3.614a2.746 2.746 0 012.52 0l5.863 3.395c.767.438.822 1.095.274 1.424zm15.286-8.816l-6.301 3.614a3.028 3.028 0 01-2.466 0l-5.917-3.45c-.712-.383-.822-1.04 0-1.424l6.246-3.613a2.74 2.74 0 012.52 0l5.863 3.394c.603.438.657 1.095.055 1.479zM288.88 326.247l-6.301 3.614a3.028 3.028 0 01-2.466 0l-5.917-3.45c-.712-.383-.822-1.04 0-1.423l6.246-3.614a2.74 2.74 0 012.521 0l5.862 3.395c.603.438.658 1.095.055 1.478zm-15.231 8.816l-6.301 3.614a2.636 2.636 0 01-2.466 0l-5.917-3.395c-.767-.438-.822-1.041 0-1.424l6.246-3.614a2.748 2.748 0 012.52 0l5.863 3.395c.493.383.548 1.095.055 1.424zm29.805-.439l-6.301 3.614a2.634 2.634 0 01-2.465 0l-5.918-3.395c-.767-.438-.822-1.095 0-1.423l6.246-3.614a2.74 2.74 0 012.521 0l5.862 3.395c.603.438.658.821.055 1.423zm-15.341 8.872l-6.301 3.614a2.636 2.636 0 01-2.466 0l-5.698-3.505c-.767-.438-.822-1.095 0-1.478l6.246-3.614a2.908 2.908 0 012.521 0l5.862 3.395c.384.547.438 1.204-.164 1.588zm29.915-.438l-6.026 3.614a2.805 2.805 0 01-2.466 0l-5.917-3.395c-.767-.438-.822-1.095 0-1.478l6.246-3.614a2.733 2.733 0 012.52 0l5.863 3.395c.328.438.383 1.095-.22 1.478zm-15.396 8.815l-6.246 3.613a2.895 2.895 0 01-2.52 0l-5.863-3.449c-.767-.383-.822-1.04 0-1.424l6.301-3.614a2.636 2.636 0 012.466 0l5.917 3.395c.548.493.603 1.15-.055 1.479zm30.792.054l-6.246 3.614a2.736 2.736 0 01-2.52 0l-5.918-3.394c-.712-.439-.822-1.096 0-1.424l6.246-3.614a2.74 2.74 0 012.521 0l5.917 3.395c.493.438.493 1.04 0 1.423zm-15.341 8.871l-6.081 3.614a2.74 2.74 0 01-2.521 0l-5.917-3.395c-.712-.438-.822-1.095 0-1.478l5.917-3.614a3.128 3.128 0 012.521 0l5.917 3.45c.712.383.822 1.04.164 1.423zm30.682-17.742l-6.246 3.614a2.736 2.736 0 01-2.52 0l-6.082-3.504c-.767-.438-.822-1.04 0-1.424l6.301-3.614a2.636 2.636 0 012.465 0l5.918 3.395c.767.548.822 1.205.164 1.533zm-.767 17.303l-6.246 3.614a2.908 2.908 0 01-2.52 0l-5.917-3.395c-.713-.438-.822-1.095 0-1.478l6.081-3.724a2.752 2.752 0 012.521 0l5.917 3.395c.712.548.822 1.205.164 1.588zM258.8 309.108l-6.246 3.614a2.733 2.733 0 01-2.52 0l-5.917-3.395c-.713-.438-.822-1.095 0-1.423l6.246-3.614a2.733 2.733 0 012.52 0l5.917 3.395c.548.438.658 1.04 0 1.423zm15.397 8.925l-6.027 3.614a2.91 2.91 0 01-2.521 0l-5.862-3.395c-.767-.438-.822-1.095 0-1.478l6.301-3.614a2.633 2.633 0 012.465 0l5.918 3.395c.328.438.383 1.04-.274 1.478zm-15.342 8.817l-6.246 3.614a2.91 2.91 0 01-2.52 0l-5.918-3.449c-.712-.438-.821-1.041 0-1.424l6.247-3.614a2.746 2.746 0 012.52 0l5.917 3.395c.548.493.658 1.15 0 1.478zm104.485 24.639l-6.246 3.614a2.74 2.74 0 01-2.521 0l-5.917-3.395c-.712-.438-.822-1.095 0-1.478l6.246-3.614a3.123 3.123 0 012.52 0l5.918 3.45c.547.383.657 1.04 0 1.423zm-112.977-98.558l-6.246 3.614a2.736 2.736 0 01-2.52 0l-5.863-3.395c-.767-.438-.822-1.095 0-1.478l6.301-3.614a3.013 3.013 0 012.465 0l5.918 3.449c.548.384.602 1.041-.055 1.424zm15.45 8.871l-6.3 3.613a2.793 2.793 0 01-2.466 0l-5.917-3.449c-.767-.383-.822-1.04 0-1.424l6.081-3.668a2.74 2.74 0 012.521 0l5.862 3.395c.767.547.822 1.204.219 1.533zm-15.34 8.87l-6.301 3.614a2.637 2.637 0 01-2.466 0l-5.917-3.395c-.767-.438-.822-1.095 0-1.423l6.246-3.614a2.736 2.736 0 012.52 0l5.863 3.395c.603.438.657 1.04.055 1.423zM562.5 306.097l-6.246 3.614a2.733 2.733 0 01-2.52 0l-6.136-3.504c-.713-.438-.822-1.041 0-1.424l6.246-3.614a2.746 2.746 0 012.52 0l5.917 3.395c.767.547.877 1.205.219 1.533zm-15.341 8.871l-6.301 3.614a2.633 2.633 0 01-2.465 0l-5.918-3.395c-.712-.438-.821-1.095 0-1.424l6.246-3.614a2.913 2.913 0 012.521 0l5.862 3.45c.493.328.493.985.055 1.369zm30.683-17.685l-6.246 3.559a2.908 2.908 0 01-2.52 0l-5.918-3.45c-.712-.383-.822-1.04 0-1.423l6.246-3.614a2.74 2.74 0 012.521 0l5.917 3.394c.548.493.657 1.15 0 1.534zm15.341-8.87l-6.246 3.614a2.913 2.913 0 01-2.521 0l-5.862-3.395c-.767-.438-.822-1.095 0-1.479l6.301-3.613a2.621 2.621 0 012.465 0l5.917 3.394c.548.438.603 1.095-.054 1.479zm15.396-8.872l-6.301 3.614a2.636 2.636 0 01-2.466 0l-5.917-3.395c-.767-.438-.822-1.095 0-1.479l6.246-3.613a3.124 3.124 0 012.521 0l5.862 3.449c.603.384.658 1.15.055 1.424zm15.341-8.869l-6.301 3.614a2.637 2.637 0 01-2.466 0l-5.917-3.395c-.767-.438-.822-1.095 0-1.423l6.246-3.614a2.74 2.74 0 012.52 0l5.863 3.395c.438.438.438 1.04.055 1.423zm15.341-8.872l-6.246 3.614a2.908 2.908 0 01-2.52 0l-5.918-3.45c-.712-.383-.821-1.04 0-1.423l6.247-3.614a2.733 2.733 0 012.52 0l5.917 3.395c.548.493.658 1.15 0 1.478zm-62.186 52.73l-6.246 3.614a2.74 2.74 0 01-2.521 0l-5.917-3.395c-.712-.438-.822-1.095 0-1.478l6.246-3.614a2.908 2.908 0 012.521 0l5.917 3.395c.548.438.657 1.095 0 1.478zm15.34-8.869l-6.246 3.613a2.733 2.733 0 01-2.52 0l-5.917-3.394c-.712-.438-.822-1.095 0-1.424l6.246-3.614a2.908 2.908 0 012.52 0l5.917 3.45c.548.328.658.985 0 1.369zm15.452-8.871l-6.246 3.614a2.74 2.74 0 01-2.521 0l-5.862-3.395c-.767-.438-.822-1.04 0-1.424l6.301-3.613a2.621 2.621 0 012.465 0l5.917 3.394c.439.329.494 1.096-.054 1.424zm15.231-8.816l-6.246 3.614a3.123 3.123 0 01-2.52 0l-5.862-3.449c-.768-.384-.822-1.041 0-1.424l6.3-3.614a2.637 2.637 0 012.466 0l5.917 3.395c.548.438.603 1.095-.055 1.478zm15.396-8.706l-6.301 3.614a2.786 2.786 0 01-2.465 0l-5.918-3.614c-.767-.438-.821-1.095 0-1.478l6.246-3.614a2.913 2.913 0 012.521 0l5.862 3.395c.603.493.658 1.15.055 1.697z" fill="#150035"/><path d="M412.431 334.46l-165.575-95.109a2.247 2.247 0 01-1.369-2.136v-19.219a.872.872 0 01.876-.821l31.504-.274a.442.442 0 00.384 0l125.14-72.933a9.258 9.258 0 018.109-.383l134.454 77.259a.602.602 0 00.438 0h31.395a.821.821 0 01.822.821v19.328a3.616 3.616 0 01-1.973 2.464L420.54 334.022a9.21 9.21 0 01-8.109.438z" fill="red"/><path d="M416.102 337.362a8.886 8.886 0 01-4.547-1.095l-165.74-95.055a4.437 4.437 0 01-2.465-4.106v-19.274a3.012 3.012 0 012.959-2.957h31.175L402.35 142.38a11.288 11.288 0 0110.246-.383l134.125 77.04h31.011a2.954 2.954 0 012.082.821 2.963 2.963 0 01.877 2.135l-.219 18.946a5.469 5.469 0 01-.976 2.558 5.46 5.46 0 01-2.093 1.767l-155.822 90.674a11.89 11.89 0 01-5.479 1.424zm-2.411-4.764a7.07 7.07 0 005.973-.383l155.931-90.674c.391-.193.715-.498.932-.876v-17.796h-30.08a2.57 2.57 0 01-1.479-.383l-134.345-77.04a7.083 7.083 0 00-5.972.384l-125.14 72.659a3.35 3.35 0 01-1.424.438h-30.299v17.96s0 .273.329.383l165.574 95.328z" fill="#150035"/><path d="M375.229 225.444c2.192-.767 72.926-35.208 100.759-44.844l69.692 40.19h31.614a1.1 1.1 0 01.775.32 1.096 1.096 0 01.321.775v19.054a3.613 3.613 0 01-1.972 2.464l-155.439 90.619h-.384v-19.93l-45.53-88.429s.055-.164.164-.219z" fill="#150035"/><path d="M420.979 336.322l-1.37-.603a2.514 2.514 0 01-1.206-2.08v-19.493l-45.53-88.1v-1.972l1.425-.657 10.026-4.709c20.82-9.746 69.145-32.524 91.006-40.135h.877l1.041.438 69.528 40.026h30.682a3.183 3.183 0 013.002 1.986c.16.395.238.818.231 1.245l-.219 18.671a5.472 5.472 0 01-3.069 4.326l-156.424 91.057zm1.917-22.285v16.426l152.699-88.812c.391-.193.715-.498.932-.876v-17.796h-30.299l-1.37-.438-68.98-39.642c-21.916 7.72-69.2 30.06-89.527 39.697l-8.602 3.942 45.092 86.951.055.548z" fill="#150035"/><path d="M577.239 218.271l-165.52-95.055a9.155 9.155 0 00-8.164.329l-155.931 90.729c-2.411 1.423-2.63 3.504-.548 4.709l165.575 95.054a8.875 8.875 0 008.108-.383l155.932-90.674c2.411-1.424 2.63-3.505.548-4.709z" fill="#fff"/><path d="M416.102 316.994a9.534 9.534 0 01-4.602-1.095l-165.246-95.054a4.654 4.654 0 01-2.466-3.888 5.481 5.481 0 01.9-2.674 5.482 5.482 0 012.113-1.87l155.713-90.674a10.967 10.967 0 0110.246-.384l165.575 95.055a4.538 4.538 0 012.465 3.887 5.47 5.47 0 01-3.013 4.49l-156.206 90.729a10.959 10.959 0 01-5.479 1.478zM247.788 216.903h.328l165.575 95.218a6.85 6.85 0 005.972 0l155.932-90.729a1.97 1.97 0 00.932-.821h-.329l-165.575-95.492a6.853 6.853 0 00-5.972.328l-155.932 90.729a2.4 2.4 0 00-.931.767z" fill="#150035"/><path d="M256.897 226.056l-.601 19.867 4.272.129.6-19.867-4.271-.129z" fill="#150035"/><path d="M325.206 331.888l-62.515-36.193a2.238 2.238 0 01-1.37-2.135v-19.219a.818.818 0 01.822-.821h31.559c.123.046.26.046.383 0l-10.574 6.023a8.877 8.877 0 018.109-.384l31.339 17.796a.605.605 0 00.439 0h31.34a.873.873 0 01.876.821v19.328a3.331 3.331 0 01-1.917 2.464l-20.382 12.046a8.868 8.868 0 01-4.022 1.117 8.87 8.87 0 01-4.087-.843z" fill="red"/><path d="M328.712 334.79a9.537 9.537 0 01-4.602-1.041l-62.515-36.302a4.437 4.437 0 01-2.466-4.107v-19.273c.014-.78.331-1.524.882-2.076a3.018 3.018 0 012.077-.881h31.504a1.255 1.255 0 00-.603 0l2.137 3.723-2.904 1.643h.439l31.12 18.288h31.011a2.958 2.958 0 012.082.821c.546.58.858 1.34.877 2.136v19.328a5.476 5.476 0 01-3.013 4.326l-20.327 12.046a11.471 11.471 0 01-5.699 1.369zm-2.465-4.764a7.024 7.024 0 005.972-.383l20.382-12.046c.376-.213.696-.514.931-.877v-17.795h-30.079a3.133 3.133 0 01-1.535-.438l-31.285-18.124a7.135 7.135 0 00-5.862 0l-2.137-3.723 3.068-1.697h-22.189v17.959l.328.383 62.406 36.741z" fill="#150035"/><path d="M327.123 296.844h27.395a1.098 1.098 0 011.096 1.095v19.054a3.343 3.343 0 01-1.918 2.464l-19.779 11.827h-.384v-19.93c-2.465-6.571-6.41-14.51-6.41-14.51z" fill="#150035"/><path d="M333.917 334.021l-1.369-.602a2.403 2.403 0 01-1.151-2.135v-19.603c-2.356-6.077-6.082-13.579-6.136-13.633l-1.096-2.245 2.356-.712h28.217a3.16 3.16 0 011.245.231 3.167 3.167 0 011.987 2.999v19.055a5.476 5.476 0 01-3.013 4.326l-21.04 12.319zm1.918-21.901v15.878l16.766-10.403c.376-.213.696-.513.931-.876v-17.795H330.52c1.425 2.902 3.452 7.392 4.986 11.334l.439 1.095-.11.767z" fill="#150035"/><path d="M354.409 294.38l-62.515-36.248a9.056 9.056 0 00-8.109.329l-20.382 12.046c-2.411 1.369-2.63 3.504-.548 4.709l62.515 36.247a9.046 9.046 0 008.109-.328l20.382-12.046c2.411-1.424 2.63-3.395.548-4.709z" fill="#fff"/><path d="M328.876 314.421a9.706 9.706 0 01-4.602-1.095l-62.515-36.302a4.382 4.382 0 01-2.466-3.833 5.476 5.476 0 013.014-4.545l20.382-11.991a10.963 10.963 0 0110.245-.384l62.57 36.303a4.496 4.496 0 012.466 3.833 5.483 5.483 0 01-3.014 4.544l-20.381 11.992a11.52 11.52 0 01-5.699 1.478zm-65.309-41.285h.329l62.515 36.248a6.798 6.798 0 005.972-.329l20.382-12.046a2.4 2.4 0 00.931-.767h-.329l-62.57-36.302a6.914 6.914 0 00-5.917.383l-20.382 12.046c-.37.173-.691.437-.931.767z" fill="#150035"/><path d="M272.689 282.298l-.601 19.867 4.272.128.6-19.866-4.271-.129z" fill="#150035"/><path d="M336.645 309.913l-.271 17.3 3.287.052.271-17.3-3.287-.052zm34.639-98.705l-97.197-56.507a2.245 2.245 0 01-1.425-2.135v-19.219a.881.881 0 01.275-.585.883.883 0 01.602-.237l65.748-19.821h.438l30.792-17.412a9.26 9.26 0 018.109-.383l66.076 38.712h.438l31.231-.439a.777.777 0 01.622.24.769.769 0 01.2.637v19.273a3.397 3.397 0 01-1.973 2.519l-95.882 54.755a9.057 9.057 0 01-3.956 1.25 9.058 9.058 0 01-4.098-.648z" fill="red"/><path d="M374.79 214.164a9.485 9.485 0 01-4.547-1.095l-97.252-56.507a4.437 4.437 0 01-2.466-4.107v-19.219a3.067 3.067 0 012.576-2.902l65.747-19.876 30.628-17.357a10.96 10.96 0 0110.191 0l65.748 38.329 30.956-.384a3.014 3.014 0 013.013 3.012v19.328a5.474 5.474 0 01-3.013 4.326l-95.882 54.755a11.522 11.522 0 01-5.699 1.697zm-2.52-4.818a6.857 6.857 0 005.972-.329l95.882-54.755c.658-.383.877-.712.877-.821v-17.795h-30.025a2.912 2.912 0 01-1.534-.384l-65.693-38.766a6.906 6.906 0 00-5.917.383l-30.847 17.412a3.286 3.286 0 01-1.041.329l-64.981 19.602v18.288a.599.599 0 00.329.329l96.978 56.507z" fill="#150035"/><path d="M448.976 133.183h27.395a1.047 1.047 0 01.792.303 1.038 1.038 0 01.304.792v19.054a3.397 3.397 0 01-1.973 2.519l-95.498 54.755h-.384v-19.931c-2.411-6.57 69.364-57.492 69.364-57.492z" fill="#150035"/><path d="M379.777 213.124l-1.315-.657a2.404 2.404 0 01-1.206-2.081v-19.657c-.602-2.299.658-6.899 34.573-32.852 17.532-13.525 35.503-26.447 35.668-26.447l.602-.329h28.162a3.075 3.075 0 012.302.986 2.852 2.852 0 01.931 2.3v19.054a5.472 5.472 0 01-3.014 4.326l-96.703 55.357zm1.917-22.23v16.426l92.65-53.167c.657-.383.876-.712.876-.821v-17.85h-25.806c-32.161 22.942-65.747 49.279-67.665 54.755v.438l-.055.219z" fill="#150035"/><path d="M476.042 130.773L378.79 74.266a8.878 8.878 0 00-8.109.384l-95.882 54.754c-2.411 1.424-2.63 3.505-.548 4.709l97.197 56.726a9.376 9.376 0 008.164-.383l95.882-54.755c2.356-1.643 2.63-3.723.548-4.928z" fill="#fff"/><path d="M375.01 193.742a9.534 9.534 0 01-4.602-1.041l-97.253-56.561a4.5 4.5 0 01-1.755-1.581 4.48 4.48 0 01-.71-2.252 5.475 5.475 0 013.013-4.545l95.937-54.755a10.966 10.966 0 0110.246-.383l97.197 56.288a4.542 4.542 0 012.521 3.888 5.478 5.478 0 01-3.069 4.489l-95.882 54.755a11.854 11.854 0 01-5.643 1.698zm-100.046-61.49h.328l97.252 56.726a7.086 7.086 0 005.972-.383l95.883-54.755c.602-.383.822-.657.876-.821l-97.526-56.89a6.848 6.848 0 00-5.972.328l-95.882 54.974c-.37.172-.691.436-.931.766v.055z" fill="#150035"/><path d="M284.11 141.438l-.601 19.867 4.272.129.6-19.867-4.271-.129z" fill="#150035"/><path d="M458.292 146.271l-.272 17.301 3.287.051.272-17.3-3.287-.052zm-44.929 131.628l-17.533-2.683 2.301-4.983a34.083 34.083 0 01-5.972-2.628 24.744 24.744 0 01-5.041-3.888l-8.437 1.26-5.479-11.28 8.766-1.314a14.291 14.291 0 013.671-8.268l-6.52-3.778 13.643-7.885 6.026 3.505a53.792 53.792 0 0116.437-2.574l2.192-4.763 17.533 2.737-2.301 4.928a38.766 38.766 0 015.972 2.629 23.22 23.22 0 015.04 3.942l8.438-1.314 5.479 11.279-8.766 1.369a14.448 14.448 0 01-3.671 8.268l6.52 3.723-13.643 7.885-5.972-3.449a51.867 51.867 0 01-16.437 2.518l-2.246 4.764zm-12.712-5.476l10.958 1.643 2.082-4.435h1.096a50.632 50.632 0 0016.821-2.574l.712-.273 5.479 3.285 7.123-4.107-5.479-3.066 1.588-1.478a11.283 11.283 0 004.164-8.761v-1.478l7.288-1.15-2.356-5.092-7.671 1.204-.603-.602a21.864 21.864 0 00-4.986-3.997 38.303 38.303 0 00-7.013-2.902l-1.808-.548 2.028-4.38-10.958-1.643-2.082 4.435h-.932c-5.6-.035-11.163.91-16.437 2.793h-.712l-5.479-3.285-7.068 4.051 5.479 3.067-1.644 1.533a11.285 11.285 0 00-4.109 8.761v1.478l-7.287 1.15 2.356 5.037 7.671-1.204.602.657a20.842 20.842 0 004.931 3.942 35.248 35.248 0 007.068 2.957l1.808.547-2.63 4.435zm14.739-10.129a18.367 18.367 0 01-12.383-4.216 6.85 6.85 0 01-2.356-5.038 7.005 7.005 0 012.356-5.037 20.39 20.39 0 0124.765 0 7.003 7.003 0 012.356 5.037 6.837 6.837 0 01-2.356 5.038 18.362 18.362 0 01-12.382 4.435v-.219zm0-15.113a15.186 15.186 0 00-10.136 3.231 3.346 3.346 0 00-1.05 4.281c.249.477.609.887 1.05 1.195a17.654 17.654 0 0020.272 0 3.333 3.333 0 001.049-1.195 3.33 3.33 0 000-3.087 3.339 3.339 0 00-1.049-1.194 15.29 15.29 0 00-10.136-3.011v-.22z" fill="red"/><path d="M438.018 235.464a38.8 38.8 0 00-7.397-3.066l2.192-4.655-14.191-2.19-2.136 4.654a49.688 49.688 0 00-17.424 2.683l-5.807-3.394-10.356 5.968 5.863 3.395a12.922 12.922 0 00-4.657 10.02l-8 1.259 3.836 8.159 8.054-.931a20.385 20.385 0 005.479 4.271 36.949 36.949 0 007.342 3.066l-2.137 4.654 14.136 2.19 2.136-4.599a50.552 50.552 0 0017.424-2.683l5.862 3.34 10.355-5.968-5.862-3.395a12.866 12.866 0 004.657-10.02l7.999-1.26-3.78-8.158-8.109.985a23.845 23.845 0 00-5.479-4.325zm-10.958 16.755a19.023 19.023 0 01-22.519 0 4.872 4.872 0 010-7.666 19.024 19.024 0 0122.519 0 4.87 4.87 0 011.399 6.011 4.873 4.873 0 01-1.399 1.71v-.055z" fill="#150035"/><path d="M555.652 286.825l-62.515-36.303a2.247 2.247 0 01-1.37-2.135v-19.219a.827.827 0 01.507-.759.83.83 0 01.315-.062h31.942l30.792-17.412a8.885 8.885 0 018.109-.384l31.395 18.508h31.833a.821.821 0 01.822.821v19.328a3.331 3.331 0 01-1.973 2.464l-61.474 34.824a9.039 9.039 0 01-8.383.329z" fill="red"/><path d="M559.158 289.781a9.485 9.485 0 01-4.547-1.095l-62.57-36.303a4.5 4.5 0 01-1.827-1.697 4.497 4.497 0 01-.639-2.409v-19.274a3.012 3.012 0 012.959-2.957h31.175l30.518-17.248a10.967 10.967 0 0110.246-.383l31.066 18.343h31.066a2.684 2.684 0 012.082.876 2.57 2.57 0 01.876 2.081v19.328a5.474 5.474 0 01-3.013 4.326l-61.803 35.426a11.51 11.51 0 01-5.589.986zm-2.41-4.819a6.851 6.851 0 005.972-.328l61.583-35.427c.658-.383.877-.766.877-.821v-17.85H595.1a3.514 3.514 0 01-1.479-.383l-31.449-18.507a6.906 6.906 0 00-5.917.383l-30.573 17.959a3.28 3.28 0 01-1.48.384h-30.189v18.397l62.735 36.193z" fill="#150035"/><path d="M599.045 228.4h27.395a1.099 1.099 0 011.096 1.095v19.055a3.344 3.344 0 01-1.973 2.464l-61.528 35.207h-.384v-19.93c-2.082-6.571 35.394-37.891 35.394-37.891z" fill="#150035"/><path d="M564.034 288.74l-1.315-.657a2.462 2.462 0 01-1.205-2.081v-19.876c-.877-7.391 21.916-27.705 35.887-39.368l.658-.383h28.217a3.178 3.178 0 013.232 3.23v19.055a5.474 5.474 0 01-3.013 4.325l-62.461 35.755zm1.918-21.902v15.989l58.351-33.62c.658-.383.877-.766.877-.821v-17.85h-25.697c-16.437 13.908-34.079 31.046-33.805 34.879l.384.93-.11.493z" fill="#150035"/><path d="M626.331 225.937l-62.296-36.247a9.147 9.147 0 00-8.164.328l-62.022 35.426c-2.356 1.424-2.63 3.505-.548 4.709l62.515 36.303a9.39 9.39 0 004.126.745 9.387 9.387 0 004.038-1.129l61.748-35.426c2.411-1.369 2.685-3.504.603-4.709z" fill="#fff"/><path d="M559.378 269.358a9.549 9.549 0 01-4.603-1.04l-62.515-36.303a4.541 4.541 0 01-2.52-3.887 5.478 5.478 0 013.068-4.49l61.803-35.427a10.963 10.963 0 0110.246-.383l62.515 36.303a4.543 4.543 0 012.52 3.832 5.472 5.472 0 01-3.068 4.545l-61.803 35.426a11.84 11.84 0 01-5.643 1.424zm-65.31-41.23h.329l62.515 36.302a7.07 7.07 0 005.972-.383l61.803-35.427c.359-.167.663-.432.877-.766h-.329l-62.515-36.193a6.858 6.858 0 00-5.972.329l-61.803 35.316c-.603.384-.822.657-.877.822z" fill="#150035"/><path d="M503.122 237.248l-.597 19.867 4.272.128.597-19.867-4.272-.128z" fill="#150035"/><path d="M608.52 241.534l-.269 17.3 3.287.051.269-17.3-3.287-.051z" fill="red"/><path d="M592.909 173.372l-16.437-9.965a2.357 2.357 0 00-2.575 0l-16.437 9.801a.873.873 0 000 1.15l15.615 27.377c.023.127.023.257 0 .383v3.012a8.97 8.97 0 003.78 7.173l-14.738-7.94.328.329 15.561 27.377a.828.828 0 00.836.437.816.816 0 00.314-.108l16.437-9.801a3.553 3.553 0 001.206-2.957v-38.931a9.029 9.029 0 00-3.89-7.337z" fill="#fff"/><path d="M578.445 234.423a1.87 1.87 0 01-.767 0 3.063 3.063 0 01-1.808-1.369l-15.561-27.377c.125.185.294.336.493.438l2.082-3.723 7.945 4.271a8.352 8.352 0 010-1.643v-2.409l-15.615-27.378a2.955 2.955 0 011.041-3.997l16.437-9.856a4.492 4.492 0 014.821 0l16.437 10.02a10.957 10.957 0 014.822 8.98v38.876a5.474 5.474 0 01-2.137 4.709l-16.437 9.911a3.018 3.018 0 01-1.753.547zm-10.958-24.585l11.341 19.821 15.451-9.144c.033-.364.033-.73 0-1.095v-38.711a6.956 6.956 0 00-2.685-5.476l-16.437-9.965a.65.65 0 00-.328 0l-15.561 9.253 15.013 26.228c.255.451.387.961.383 1.478v3.012a6.904 6.904 0 002.685 5.475l-2.082 3.778-7.78-4.654z" fill="#150035"/><path d="M561.186 198.613s6.027-35.481 11.999-5.475l-11.397 10.951.384.383 15.396 26.939a1.151 1.151 0 001.534.438l16.437-9.691a3.564 3.564 0 001.205-2.957v-38.328h-.383l-17.149 10.129-18.026 7.611z" fill="#150035"/><path d="M578.554 234.313c-.271.053-.55.053-.822 0a3.343 3.343 0 01-2.027-1.478l-15.451-26.94-1.698-1.642 4.219-4.052-4.493 1.916.657-3.887c2.137-12.703 5.151-19.164 8.876-19.219 2.959 0 4.986 3.395 6.794 11.498l3.342-1.423 18.136-10.951 1.37.657a2.415 2.415 0 011.205 2.081v38.328a5.473 5.473 0 01-2.137 4.709l-16.437 9.746a3.065 3.065 0 01-1.534.657zm-13.971-29.732l14.355 25.078 15.45-9.144a6.068 6.068 0 000-1.095v-35.098l-14.574 8.651-5.972 2.519-9.259 9.089zm3.397-21.026a37.05 37.05 0 00-3.89 11.499l6.684-2.847a28.076 28.076 0 00-2.794-8.652z" fill="#150035"/><path d="M575.376 232.672l-16.437-10.02a8.863 8.863 0 01-3.781-7.173v-38.821c0-2.792 1.699-4.052 3.781-2.847l16.437 9.965a9.03 9.03 0 013.726 7.228v38.985c0 2.574-1.644 3.888-3.726 2.683z" fill="red"/><path d="M576.856 235.464a5.476 5.476 0 01-2.575-.711l-16.437-9.966a10.932 10.932 0 01-3.502-3.928 10.937 10.937 0 01-1.265-5.106v-39.095a5.48 5.48 0 01.519-2.779 5.482 5.482 0 011.837-2.149 4.661 4.661 0 014.602 0l16.437 10.02a10.957 10.957 0 013.533 3.919 10.962 10.962 0 011.289 5.116v39.204a5.478 5.478 0 01-2.411 4.873 3.77 3.77 0 01-2.027.602zm-.384-4.435a.715.715 0 00.384 0v-40.025a7.005 7.005 0 00-2.685-5.476l-16.437-10.02a.661.661 0 00-.384 0v39.971a7.069 7.069 0 002.685 5.475l16.437 10.075z" fill="#150035"/><path d="M586.978 168.224l-16.882 10.509 2.26 3.625 16.881-10.509-2.259-3.625z" fill="#150035"/><path d="M594.659 200.557l-14.837 8.917 1.694 2.816 14.837-8.917-1.694-2.816z" fill="red"/><path d="M174.314 194.453a156.476 156.476 0 01-9.588-15.605c0-.328 5.479-38.328-.931-66.034 1.37 2.628 19.779 38.766 25.751 62.913l6.136 25.078a134.023 134.023 0 01-22.628 34.112l-7.506 6.735a1.584 1.584 0 01-1.774.136 1.574 1.574 0 01-.472-.41l-6.794-9.199a1.476 1.476 0 010-1.423 178.852 178.852 0 0111.232-25.407 84.437 84.437 0 006.574-10.896z" fill="#fff"/><path d="M164.507 244.17h-.438a3.666 3.666 0 01-2.521-1.478l-6.793-9.199a3.556 3.556 0 01-.494-3.449 180.676 180.676 0 0111.506-25.899 77.881 77.881 0 005.972-9.473 166.628 166.628 0 01-8.93-14.784l-.384-.602v-.712c0-1.533 5.479-38.328-.877-65.213l-.438-1.861 3.562-1.314.876 1.697c2.027 3.942 19.944 39.259 25.861 63.406l6.356 25.735v.657a135.253 135.253 0 01-23.012 34.714l-7.671 6.899a3.616 3.616 0 01-2.575.876zm-5.917-12.976l6.191 8.377 7.013-6.242a136.43 136.43 0 0021.916-32.853l-5.972-24.366a304.039 304.039 0 00-19.341-49.772 247.832 247.832 0 01-1.205 51.908 167.927 167.927 0 009.095 14.783l.767.986-.548 1.205a87.907 87.907 0 01-6.958 10.951 173.204 173.204 0 00-10.958 25.023z" fill="#150035"/><path d="M175.027 196.479l-1.096-4.107a18.865 18.865 0 017.945 0l-.822 4.162a16.884 16.884 0 00-6.027-.055z" fill="#150035"/><path d="M168.781 480.546s3.342 1.424 7.177 10.951a87.61 87.61 0 0019.231 23.216c4.493 3.669-2.082 17.905-16.437 11.389-6.355-2.847-16.436-8.268-20.71-10.403a20.361 20.361 0 01-11.506-15.551 29.432 29.432 0 010-13.086c2.685-6.789 14.245-9.637 14.245-9.637l8 3.121z" fill="red"/><path d="M185.985 530.099a19.358 19.358 0 01-7.945-1.862c-3.89-1.752-8.931-4.38-13.423-6.735-2.959-1.533-5.479-2.902-7.342-3.723a22.568 22.568 0 01-12.711-17.138 29.554 29.554 0 01.383-14.182c3.014-7.72 15.177-10.951 15.67-10.951h.657l8.274 3.067c.657.328 4.273 2.245 8.328 12.155a83.781 83.781 0 0018.574 22.45 8.322 8.322 0 01.438 10.951 13.158 13.158 0 01-10.903 5.968zm-25.204-50.265c-3.287.931-10.41 3.778-12.163 8.213a28.61 28.61 0 000 11.991 18.23 18.23 0 0010.355 13.853l7.452 3.833c4.438 2.3 9.478 4.928 13.204 6.626a10.143 10.143 0 0013.807-2.629c1.425-2.245 1.425-4.49.548-5.475a90.422 90.422 0 01-19.889-24.202c-3.123-7.665-5.479-9.582-6.081-9.801l-7.233-2.409z" fill="#150035"/><path d="M168.562 481.368a97.425 97.425 0 005.972 16.043c2.41 4.435-2.192 8.323-10.958 2.738a29.782 29.782 0 01-10.958-18.398l14.3-2.19 1.644 1.807z" fill="#fff"/><path d="M171.192 505.077a16.888 16.888 0 01-8.767-3.121 31.266 31.266 0 01-11.78-20.095l-.383-2.081 17.642-2.738 2.575 3.121v.439a93.1 93.1 0 005.753 15.55 5.471 5.471 0 01-.712 7.063 6.302 6.302 0 01-4.328 1.862zm-15.889-21.573a25.782 25.782 0 009.423 14.783c4.438 2.848 7.233 2.738 8.055 1.971.821-.766 0-1.259 0-1.916a96.684 96.684 0 01-5.972-15.988l-.494-.548-11.012 1.698z" fill="#150035"/><path d="M49.01 386.15a48.921 48.921 0 001.315 29.02c5.863 12.867-7.78 21.902-19.231 7.939a54.73 54.73 0 01-11.616-31.264 18.339 18.339 0 01.274-15.277 18.248 18.248 0 0117.752-4.216c14.41 3.504 11.506 13.798 11.506 13.798z" fill="red"/><path d="M43.531 432.197a18.37 18.37 0 01-13.807-7.721 56.811 56.811 0 01-12.108-32.031c-2.028-3.943-2.302-14.401.986-17.467a20.173 20.173 0 0119.45-4.873 17.856 17.856 0 0111.725 7.72 12.368 12.368 0 011.37 8.925 46.457 46.457 0 001.26 27.377 12.316 12.316 0 01-3.397 16.427 10.59 10.59 0 01-5.479 1.643zm-10.958-58.588a16.44 16.44 0 00-10.958 4.49 17.621 17.621 0 000 12.539l.384.547v.657a52.924 52.924 0 0010.958 29.896c5.479 6.407 10.958 7.228 13.916 5.476a8.321 8.321 0 001.754-10.951 50.016 50.016 0 01-1.48-30.444c0-.876 1.699-8.322-10.081-11.389a17.305 17.305 0 00-4.493-.821z" fill="#150035"/><path d="M49.01 386.149l-3.561 11.389c-2.466 2.41-9.808-3.011-10.958-6.132a23.147 23.147 0 01-1.699-5.476 15.87 15.87 0 014.712-13.579l11.506 13.798z" fill="#fff"/><path d="M43.805 400.277H42.6a17.696 17.696 0 01-10.355-7.885 24.518 24.518 0 01-1.808-5.968 17.895 17.895 0 015.479-15.769l1.643-1.424 13.753 16.426-4.164 12.977-.384.384a4.278 4.278 0 01-2.959 1.259zm-6.41-24.859a13.028 13.028 0 00-2.794 10.13 23.64 23.64 0 001.534 4.928 13.315 13.315 0 007.56 5.475l3.014-9.363-9.314-11.17z" fill="#150035"/><path d="M157.111 259.94a137.426 137.426 0 01-23.615 90.51l-15.56 12.593-26.957 7.118-42.572 15.989a2.577 2.577 0 01-2.191 0l-1.534-.712a12.875 12.875 0 01-6.63-9.199l-.493-2.573a2.847 2.847 0 011.041-2.683c4.767-3.559 21.04-15.824 31.176-22.833 15.176-10.513 24.655-16.426 35.175-18.781 10.519-2.354-4.219-71.619-4.219-71.619l28.107-13.415 28.272 15.605z" fill="#150035"/><path d="M47.422 388.778a4.927 4.927 0 01-2.137-.548l-1.753-.985a15.115 15.115 0 01-8.054-10.568l-.494-2.628a4.763 4.763 0 011.808-4.764c4.767-3.559 21.04-15.824 31.285-22.887 14.41-10.02 24.71-16.427 35.943-19.11 4.492-.985 1.753-33.236-5.863-69.1l-.329-1.643 30.573-14.619 30.463 16.426v1.041a140.924 140.924 0 01-23.998 92.152l-.383.493-15.944 12.757-27.395 7.228-42.134 16.153a4.45 4.45 0 01-1.588.602zm55.502-129.823c4.657 22.285 13.314 70.14 2.191 72.495-11.122 2.354-20.381 8.761-34.189 18.452-10.136 7.064-26.354 19.219-31.12 22.778a.82.82 0 000 .602l.493 2.574a10.943 10.943 0 005.315 7.447l1.534.711a.542.542 0 00.493 0l42.572-15.988 26.737-6.625 14.958-11.992a137.2 137.2 0 0023.23-87.607l-26.627-14.62-25.587 11.773z" fill="#150035"/><path d="M134.537 274.504s29.916 84.542 30.299 102.228c.384 15.988 3.781 89.797 4.438 104.034a3.225 3.225 0 01-2.082 3.175 17.27 17.27 0 01-12.711 0h-.767a3.18 3.18 0 01-2.027-2.518 233.435 233.435 0 00-10.958-41.778c-7.561-19.274-2.466-50.101-2.466-50.101s-10.465-30.06-25.258-43.804c-14.793-13.743-36.271-49.279-35.997-71.893.274-22.613 57.529.657 57.529.657z" fill="#150035"/><path d="M160.727 487.335a19.401 19.401 0 01-7.013-1.314h-.767a5.483 5.483 0 01-3.397-4.162 226.716 226.716 0 00-10.958-41.285c-7.232-18.452-3.397-46.322-2.685-50.757-1.424-3.888-11.287-30.061-24.491-42.161-14.793-13.58-36.983-49.773-36.71-73.481a10.51 10.51 0 014.713-9.254c13.423-9.418 51.776 5.859 55.94 7.611l.877.383.438.876c1.206 3.505 30.025 85.089 30.409 102.885.383 15.988 3.725 89.25 4.438 103.76a5.481 5.481 0 01-3.397 5.475 18.805 18.805 0 01-7.397 1.424zM91.308 265.907a17.645 17.645 0 00-9.369 2.026 6.3 6.3 0 00-2.794 5.475c0 21.902 20.93 57.109 35.339 70.305 14.41 13.196 25.368 43.202 25.806 44.461v1.04s-4.876 30.499 2.411 49.006a233.817 233.817 0 0110.958 42.161 1.09 1.09 0 00.712.876h.767a15.184 15.184 0 0010.958 0 1.199 1.199 0 00.713-1.095c-.713-14.51-4.055-87.608-4.438-104.034-.384-16.426-26.299-90.838-29.532-99.982a138.243 138.243 0 00-41.53-10.239z" fill="#150035"/><path d="M57.065 135.317c8.328-15.715 40.818-27.816 40.818-27.816l13.314 2.026 20.382-9.418s28.874 4.49 33.257 10.294c4.383 5.804 6.849 46.542 3.014 62.202-3.836 15.66-2.685 77.642-2.685 77.642s-10.41 17.412-14.574 19.876c-4.164 2.464-9.095-10.239-9.095-10.239h-.877c-2.082 9.199-3.89 14.783-3.89 14.783s-73.638 14.839-67.885-19.437c5.753-34.277-1.37-87.115-1.37-87.115s-18.792-17.084-10.41-32.798z" fill="red"/><path d="M104.676 279.869c-12.82 0-26.134-1.916-33.147-8.706a17.403 17.403 0 01-4.767-16.426c5.479-31.374-.493-79.23-1.315-85.801-3.287-3.175-18.519-19.109-10.3-34.605 8.656-16.426 40.599-28.363 41.968-28.855h.548l13.26 2.026 20.272-9.583h.657c4.931.767 29.97 4.928 34.627 10.951 4.658 6.023 7.233 48.458 3.397 64.009-3.835 15.55-2.63 76.656-2.63 77.149v.602l-.328.493c-1.808 3.012-10.958 18.015-15.396 20.643a4.224 4.224 0 01-3.726.328 14.683 14.683 0 01-6.356-7.227c-1.534 6.242-2.739 9.91-2.794 10.075l-.383 1.204-1.206.274a186.03 186.03 0 01-32.381 3.449zM58.927 136.303c-7.451 14.071 9.807 29.896 9.972 30.06l.602.493v.766c0 .548 7.068 53.605 1.37 87.608a13.241 13.241 0 003.616 13.086c12.876 12.43 52.982 5.914 60.598 4.545a229.142 229.142 0 003.452-13.36l.438-2.026 4.109.766.438 1.095c1.973 5.093 4.822 9.199 5.918 9.199a92.495 92.495 0 0013.588-18.616c0-6.899-.987-62.585 2.739-77.643 4-16.426.932-55.685-2.63-60.23-2.63-3.449-19.615-7.501-31.285-9.363l-20.327 9.035-13.204-2.191c-4.11 1.588-31.833 12.868-39.175 26.611l-.219.165z" fill="#150035"/><path d="M110.594 93.759a39.58 39.58 0 01-3.342 13.305 41.442 41.442 0 009.752 10.403 24.83 24.83 0 0024.546 2.793 72.977 72.977 0 01-3.561-22.23c.822-8.487-27.395-4.271-27.395-4.271z" fill="#fff"/><path d="M131.578 124.421a26.2 26.2 0 01-15.834-5.476 44.635 44.635 0 01-10.3-10.951l-.603-.931.438-.985a38.303 38.303 0 003.178-12.539v-1.807l1.808-.274c3.726-.602 22.628-3.12 28.162 2.136a5.096 5.096 0 011.644 4.435 70.718 70.718 0 003.506 21.354l.603 1.862-1.808.766a28.772 28.772 0 01-10.794 2.41zm-21.915-17.577a40.74 40.74 0 008.656 8.925 22.523 22.523 0 0020.601 3.176 65.689 65.689 0 01-3.068-21.08 1.142 1.142 0 00-.072-.54 1.142 1.142 0 00-.311-.446c-2.74-2.628-14.465-2.3-22.903-1.205a44.038 44.038 0 01-2.903 11.17z" fill="#150035"/><path d="M109.553 100.109s-14.355 2.464-16.437 12.539a45.677 45.677 0 0015.245 15.801 45.716 45.716 0 0020.861 6.868l1.973-13.087a30.2 30.2 0 01-16.437-5.858 14.402 14.402 0 01-5.479-15.989l.274-.274z" fill="red"/><path d="M131.195 137.673h-2.027a47.522 47.522 0 01-21.89-7.213 47.481 47.481 0 01-15.915-16.66l-.33-.657v-.712c2.192-11.389 17.424-14.072 18.082-14.182l3.506-.602-1.205 3.614a12.204 12.204 0 004.931 13.579 27.733 27.733 0 0014.903 5.475h2.52l-2.575 17.358zm-35.668-25.352a43.377 43.377 0 0013.635 14.028 43.412 43.412 0 0018.417 6.615l1.37-8.761a34.537 34.537 0 01-14.958-6.078 16.91 16.91 0 01-7.232-15.057 16.105 16.105 0 00-11.232 9.253z" fill="#150035"/><path d="M135.962 121.847l7.506 10.951a19.87 19.87 0 005.096-22.559l-10.958 1.533a8.815 8.815 0 01-1.644 10.075z" fill="red"/><path d="M142.92 136.084l-9.698-14.455 1.206-1.259a6.795 6.795 0 001.424-7.502l-1.315-2.683 15.451-2.135.548 1.642a21.894 21.894 0 01-5.808 24.969l-1.808 1.423zm-4.273-14.072l5.15 7.666a17.946 17.946 0 003.232-16.919l-6.52.931c.289 1.44.272 2.925-.049 4.358a10.491 10.491 0 01-1.813 3.964z" fill="#150035"/><path d="M152.508 60.25a56.09 56.09 0 013.123 27.377 66.225 66.225 0 01-5.479 19.328l-1.534 3.45a3.83 3.83 0 01-3.507 2.245 43.846 43.846 0 01-28.764-11.335l-3.89-4.544a10.948 10.948 0 01-2.685-7.228 9.533 9.533 0 01-6.465-5.804 9.894 9.894 0 01.493-7.775 3.504 3.504 0 014.438-1.697l3.561-4.71 12.876-16.754 27.833 7.446z" fill="#fff"/><path d="M145.112 115.005a46.095 46.095 0 01-30.354-12.101l-4.054-4.71a13.245 13.245 0 01-3.069-7.117 11.29 11.29 0 01-6.41-6.626 11.88 11.88 0 01.712-9.417 5.484 5.484 0 015.479-3.121l16.437-21.519 30.08 8.049.383.876a58.493 58.493 0 013.452 28.308 68.881 68.881 0 01-5.479 19.986l-1.589 3.449a5.86 5.86 0 01-5.588 3.943zm-38.025-38.876a1.37 1.37 0 00-1.26.821 7.609 7.609 0 00-.548 6.023 7.453 7.453 0 004.931 4.49l1.644.383v1.698c0 2.153.778 4.234 2.192 5.859l3.89 4.544a41.598 41.598 0 0027.395 10.568 1.587 1.587 0 001.479-.986l1.534-3.449a62.725 62.725 0 005.479-18.672 57.231 57.231 0 00-2.575-25.406l-25.532-6.735-16.437 21.41-1.479-.548h-.713z" fill="#150035"/><path d="M152.18 47.053a11.725 11.725 0 0013.478 1.917 20.048 20.048 0 01-1.676 7.765 20.051 20.051 0 01-19.144 12.001c-20.163-.274-30.847-.821-31.559 7.228l-3.561-1.369a5.045 5.045 0 00-6.054 2.18 5.038 5.038 0 00-.686 2.2 16.428 16.428 0 01-5.479-13.14c0-9.035 6.849-30.17 27.121-29.35h3.726a41.763 41.763 0 0123.834 10.568z" fill="#150035"/><path d="M104.786 83.082l-3.123-2.19a18.509 18.509 0 01-6.684-14.893 36.618 36.618 0 0110.41-24.476 25.04 25.04 0 0118.957-7.009h3.781a43.406 43.406 0 0125.422 10.951 9.59 9.59 0 0010.958 1.588l3.178-1.478v3.45s-.822 21.902-22.574 21.902h-2.958c-18.19 0-26.19 0-26.683 5.475v1.095l-1.863 1.205-4.766-2.026a2.853 2.853 0 00-3.444 1.215c-.226.38-.36.808-.392 1.249l-.219 3.942zm18.355-44.297a20.775 20.775 0 00-14.794 5.804A32.845 32.845 0 0099.252 66a15.486 15.486 0 002.795 9.198 7.495 7.495 0 011.753-1.807 7.18 7.18 0 016.41-.657l1.315.493c2.466-7.063 12.876-6.954 30.463-6.68h2.685c4.306.34 8.581-.962 11.966-3.644a17.079 17.079 0 006.279-10.811 13.977 13.977 0 01-12.328-3.45 38.912 38.912 0 00-22.902-9.691h-3.671l-.876-.165zm17.423 221.099l-4.274-.274c3.233-50.976 0-115.861 0-116.518h4.274c-.164.438 3.233 65.596 0 116.792z" fill="#150035"/><path d="M120.237 356.746a46.993 46.993 0 00-4.602-6.297l-1.096-1.205a215.853 215.853 0 01-15.341-17.466l2.739-1.862a202.87 202.87 0 0015.013 17.248l1.095 1.15a55.81 55.81 0 015.096 6.68l-2.904 1.752zm16.96-79.57l-3.115 1.049 12.683 37.619 3.115-1.049-12.683-37.619zm-52.19 27.88l-.657-3.23a15.456 15.456 0 0011.286-7.009 19.043 19.043 0 00.33-14.236l3.067-1.15a21.886 21.886 0 01-.493 16.974 18.352 18.352 0 01-13.533 8.651zm54.461 85.09l-2.465-2.136a22.987 22.987 0 016.52-5.475l1.479 2.902a21.29 21.29 0 00-5.534 4.709zm19.122 87.827a22.45 22.45 0 01-8.985-2.026l1.315-3.011a14.908 14.908 0 0016.437-1.478l2.355 2.299a16.438 16.438 0 01-11.122 4.216zM52.462 383.959a22.227 22.227 0 01-10.958-16.426l3.287-.438a19.16 19.16 0 008.93 14.126l-1.26 2.738zM110.32 69.996a16.421 16.421 0 011.096-14.236 18.956 18.956 0 0114.3-6.462c8.054-.547 8.547-4.763 8.547-4.927h3.288c0 .273-.493 7.227-11.616 7.994a15.625 15.625 0 00-11.889 5.201 13.136 13.136 0 00-.603 11.444l-3.123.986zm-6.52 2.19a13.187 13.187 0 01-2.849-12.977l3.123.93s-1.808 6.462 1.808 9.528l-2.082 2.519z" fill="red"/><path d="M177.273 515.591v-4.271a13.21 13.21 0 009.534-5.092l3.451 2.518a17.533 17.533 0 01-12.985 6.845zM42.655 407.833a14.964 14.964 0 01-8.931-2.629l2.466-3.449a12.832 12.832 0 0011.341 1.15l1.644 3.942a19.637 19.637 0 01-6.52.986zm-.603 8.322a20.932 20.932 0 01-7.89-1.752l1.589-3.723c8.218 3.395 11.56-.329 11.67-.493l3.342 2.683a10.951 10.951 0 01-8.711 3.285zm141.905 103.596l-.438-4.271a13.372 13.372 0 007.945-4.873l3.451 2.519a17.425 17.425 0 01-10.958 6.625zM100.841 121.41l-3.835-1.971a28.875 28.875 0 0112.273-10.951l1.753 3.888a24.428 24.428 0 00-10.191 9.034zm11.068-30.663l-4.219-.547a12.433 12.433 0 013.123-7.01l3.068 3.012a8.103 8.103 0 00-1.972 4.545zm125.523 78.628c53.475 14.729 128.866-4.873 168.369-43.803 19.78-19.438 26.793-40.026 22.245-57.603l-5.479-20.259-4.493 2.19a76.715 76.715 0 00-37.695-21.463c-25.916-7.119-64.214-22.176-93.8-14.894-31.559 7.72-54.242 38.329-74.624 58.697a75.934 75.934 0 00-22.299 37.288l-4.986.329 4.986 19.164c4.218 17.85 20.491 32.853 47.776 40.354zm-.328-90.29c29.312-28.856 85.253-43.42 124.975-32.47 39.723 10.951 48.106 43.202 18.738 72.112-14.629 14.455-39.174 7.118-61.803 13.032-22.628 5.913-43.284 24.913-63.172 19.438-39.668-10.951-47.941-43.202-18.738-72.112z" fill="#150035"/><path d="M276.114 176.382a149.633 149.633 0 01-39.284-4.928c-26.957-7.446-44.38-22.23-49.311-41.668l-5.753-21.902 6.027-.383a80.213 80.213 0 0122.683-36.576c4.109-4.052 8.273-8.542 12.711-13.25 17.588-18.836 37.312-39.917 63.063-46.214 25.752-6.297 55.722 3.176 80.541 10.458 5.096 1.533 9.972 3.012 14.465 4.216a80.611 80.611 0 0137.641 20.917l5.479-2.629 6.026 23.052c4.822 19.055-3.287 40.135-22.847 59.409-31.175 30.718-84.047 49.498-131.441 49.498zm-84.65-50.429l.493 2.136c4.219 18.124 20.656 31.977 46.243 38.985 52.762 14.565 127.386-4.818 166.342-43.201 18.519-18.234 26.189-38 21.916-55.522v-.328l-4.877-17.248-3.616 1.752-1.041-1.204a74.633 74.633 0 00-36.709-20.807c-4.493-1.26-9.424-2.738-14.574-4.326-24.162-7.337-54.242-16.426-78.13-10.568-23.889 5.86-43.832 26.611-60.762 44.735-4.438 4.764-8.657 9.254-12.876 13.36a75.229 75.229 0 00-21.916 36.029l-.329 1.588-4.054.274 3.835 14.619.055-.274zm72.049 28.144a30.864 30.864 0 01-8.219-.766c-19.943-5.476-32.874-16.427-36.764-30.827-3.89-14.401 2.301-30.334 17.04-44.844 29.806-29.349 86.787-44.133 127.057-32.853 19.999 5.475 32.874 16.426 36.764 30.881 3.89 14.456-2.301 30.006-17.039 44.79-9.753 9.582-23.341 10.129-37.641 10.951-8.458.029-16.89.966-25.148 2.792a130.876 130.876 0 00-23.998 9.473c-10.958 5.421-21.642 10.622-32.271 10.622l.219-.219zM333.205 45.08c-34.189 0-72.322 13.58-94.622 35.536-13.588 13.415-19.231 27.871-15.889 40.738 3.342 12.867 15.287 22.723 33.751 27.815 11.725 3.231 24.162-2.902 37.312-9.363a136.254 136.254 0 0124.71-10.129 121.992 121.992 0 0126.025-2.957c13.533-.548 26.244-1.095 34.846-9.527 13.588-13.142 19.286-27.87 15.944-40.519-3.342-12.648-15.341-22.942-33.97-27.98a104.981 104.981 0 00-28.107-3.614z" fill="#150035"/><path d="M231.844 147.856c53.475 14.729 128.866-4.873 168.369-43.803 39.504-38.931 28.217-82.132-25.258-97.026C321.48-7.866 246.089 11.9 206.531 50.831c-39.558 38.93-28.162 82.406 25.313 97.025zm-.329-90.29c29.313-28.746 85.308-43.311 124.976-32.36 39.668 10.95 48.105 43.201 18.793 72.112-29.313 28.91-85.198 43.42-124.976 32.469-39.777-10.951-47.886-43.201-18.793-72.112v-.11z" fill="#fff"/><path d="M270.58 154.974a149.037 149.037 0 01-39.284-4.927c-26.683-7.338-43.832-21.902-49.311-41.067-5.479-19.164 3.123-40.3 22.792-59.682C244.993 9.929 321.425-9.947 375.503 4.946c26.627 7.338 43.831 21.902 49.31 41.067 5.479 19.164-3.232 40.299-23.066 59.682-30.956 30.499-83.829 49.279-131.167 49.279zm-38.353-9.089c52.763 14.565 127.387-4.818 166.342-43.201 18.519-18.288 26.244-38 21.916-55.631-4.328-17.631-20.82-31.046-46.133-37.945C321.644-5.457 247.02 13.926 207.9 52.309c-18.573 18.288-26.244 38.329-21.915 55.631 4.328 17.303 20.929 31.046 46.023 37.945h.219zm46.9-10.348a110.28 110.28 0 01-29.312-3.669c-19.944-5.476-32.874-16.426-36.764-30.882-3.89-14.455 2.356-30.28 17.094-44.844 29.751-29.294 86.732-44.132 127.003-32.853 19.998 5.476 32.874 16.427 36.764 30.882 3.89 14.455-2.301 30.28-17.04 44.844-23.176 22.504-62.57 36.522-97.745 36.522zm-46.078-76.329c-13.643 13.415-19.286 27.87-15.944 40.738 3.342 12.867 15.341 22.723 33.751 27.815 39.01 10.951 94.129-3.613 122.893-31.976 13.643-13.415 19.286-27.87 15.944-40.738-3.342-12.867-15.341-22.723-33.86-27.651-39.01-10.951-94.129 3.559-122.894 31.922l.11-.11z" fill="#150035"/><path d="M273.352 152.456l-4.136 1.076 5.493 21.09 4.136-1.076-5.493-21.09zM413.566 91.74l-4.136 1.076 5.493 21.09 4.136-1.076-5.493-21.09zm-24.864 23.359l-4.136 1.076 5.493 21.089 4.136-1.075-5.493-21.09zM245.851 47.02l-4.136 1.075 5.49 21.09 4.136-1.075-5.49-21.09zm93.219-25.244l-4.146 1.067 5.452 21.139 4.145-1.068-5.451-21.139z" fill="red"/><path d="M92.13 278.72a1.479 1.479 0 010-2.026l132.92-129.878a2.62 2.62 0 011.479 0l15.67 4.325a5.476 5.476 0 013.452 3.833l3.89 14.784a2.292 2.292 0 010 1.752L116.457 301.169a1.371 1.371 0 01-1.699 0L92.13 278.72z" fill="#fff"/><path d="M115.47 303.744a3.578 3.578 0 01-2.52-1.041l-22.354-22.449a3.722 3.722 0 01-1.041-2.519 3.338 3.338 0 011.096-2.519L223.79 145.064h.329a4.053 4.053 0 012.958-.383l15.67 4.271a7.942 7.942 0 014.986 5.475l4 14.62a4.435 4.435 0 01-.329 3.34l-.384.493-133.029 129.878a3.677 3.677 0 01-2.521.986zm-21.313-26.009l21.313 21.464 132.044-129.002-3.89-14.948a3.626 3.626 0 00-2.027-2.3l-15.396-4.271L94.157 277.735z" fill="#150035"/><path d="M98.32 298.541l15.671 4.325c1.479.384 2.301-.657 1.863-2.354l-3.89-14.893a5.483 5.483 0 00-3.452-3.833l-15.67-4.326c-1.48-.383-2.301.657-1.863 2.355l3.89 14.893a5.478 5.478 0 003.452 3.833z" fill="red"/><path d="M114.32 305.057a4.186 4.186 0 01-1.151 0l-15.67-4.271a8.057 8.057 0 01-4.986-5.475l-3.89-14.893a4.215 4.215 0 01.877-4.162 3.894 3.894 0 013.671-.821l15.615 4.326a7.72 7.72 0 014.986 5.475l3.89 14.893a4.216 4.216 0 01-.877 4.162 3.613 3.613 0 01-2.465.766zm-15.67-8.596l14.738 4.106-3.726-14.4a3.67 3.67 0 00-1.972-2.3l-14.848-4.106 3.726 14.4a3.72 3.72 0 002.027 2.3h.055z" fill="#150035"/><path d="M246.911 159.519l2.63 10.075L115.58 300.513l-2.575-9.911 133.906-131.083zm-15.856-.211l-69.101 67.531 2.988 3.053 69.101-67.53-2.988-3.054zM148.891 240.1l-22.877 22.357 2.988 3.053 22.877-22.357-2.988-3.053z" fill="#150035"/><path d="M156.377 262.814l-39.549 37.337 2.257 2.389 39.55-37.338-2.258-2.388z" fill="red"/><path d="M263.403 123.271c-24.985-3.34-34.463-18.233-34.847-18.89l3.671-2.245s8.876 13.853 31.724 16.864l-.548 4.271zm118.839-52.839a48.277 48.277 0 00-21.533-12.922l1.261-4.052a52.721 52.721 0 0123.45 14.072l-3.178 2.902z" fill="#150035"/><path d="M104.896 252.876a28.28 28.28 0 0016.437 4.873c4.265-.016 8.526-.254 12.766-.712 7.287-.766 20.436-12.922.822-15.386l-9.205-1.15-.712-.821 3.835-3.614v-1.369l-4.548-1.149a13.422 13.422 0 00-12.382 8.049 61.923 61.923 0 01-6.849 11.279h-.164z" fill="#fff"/><path d="M120.949 259.885a30.414 30.414 0 01-17.258-5.476l-2.082-1.423 1.698-1.807a68.103 68.103 0 006.52-10.951 15.567 15.567 0 0114.519-9.199l6.52 1.588v3.997l-1.862 1.752 6.3.767c10.082 1.259 12.164 5.147 12.164 8.213 0 5.475-7.89 10.951-13.04 11.444-4 .438-8.383.657-12.985.712l-.494.383zm-12.985-7.611a26.044 26.044 0 0013.314 3.34c4.438 0 8.712 0 12.602-.712 3.89-.712 9.15-4.599 9.205-7.227 0-1.753-3.233-3.231-8.438-3.888l-10.246-1.259-2.52-3.067 3.616-3.394-1.698-.603a11.51 11.51 0 00-10.137 7.118 97.185 97.185 0 01-5.698 9.692z" fill="#150035"/><path d="M106.047 237.381l7.396 3.449a19.303 19.303 0 01-.399 7.631 19.342 19.342 0 01-3.326 6.879l-6.959-2.847-8.657-11.553 11.945-3.559z" fill="red"/><path d="M110.43 257.913l-9.041-3.668-10.958-14.62 15.67-4.49 9.15 4.216v1.095a21.22 21.22 0 01-4.109 16.427l-.712 1.04zm-6.301-7.173l4.876 1.972a17.515 17.515 0 002.466-10.459l-5.479-2.573-8.219 2.354 6.356 8.706z" fill="#150035"/><path d="M74.652 132.963c-5.48-3.23-13.369-3.066-16.437 2.41-6.849 12.484-29.532 55.63-36.6 76.711a4.979 4.979 0 002.137 5.804c12.109 7.447 54.79 32.853 79.007 34.605 0 0 3.013-2.19 3.287-15.112 0 0-21.916-12.703-27.997-17.686a54.362 54.362 0 00-25.04-11.608s26.629-37.617 28.546-53.496c1.918-15.878-6.903-21.628-6.903-21.628z" fill="#fff"/><path d="M103.362 254.683h-.767c-24.71-1.862-67.447-27.378-79.939-34.879a7.116 7.116 0 01-3.068-8.323c7.397-21.902 31.23-67.129 36.71-77.094a10.96 10.96 0 016.848-5.147 16.45 16.45 0 0112.492 1.971c.384 0 9.917 6.57 7.89 23.599-1.699 13.853-20.766 42.654-27.012 51.743A60.286 60.286 0 0179.2 218.052c6.137 4.763 27.395 17.357 27.779 17.521l1.041.603v1.259c-.274 12.922-3.288 16.098-4.164 16.755l-.493.493zm-36.49-121.775a10.19 10.19 0 00-2.63.329 6.9 6.9 0 00-4.22 3.121c-5.478 9.91-29.038 54.754-36.38 76.656a2.791 2.791 0 001.26 3.286c12.11 7.501 52.928 31.703 76.706 34.221a28.4 28.4 0 002.192-11.936c-4.548-2.683-21.532-12.813-27.395-17.193a53.542 53.542 0 00-23.943-10.951l-3.452-.657 2.027-2.902c.274-.383 26.354-37.398 28.162-52.565 1.754-14.236-5.479-19.328-5.972-19.547l1.206-1.807-1.206 1.807a12.833 12.833 0 00-6.355-1.862z" fill="#150035"/><path d="M45.284 213.835l-3.068-2.956a20.272 20.272 0 0110.575-4.928l.493 4.271a15.453 15.453 0 00-8 3.613z" fill="#150035"/><path d="M193.108 224.514h-4.219a5.861 5.861 0 00-4.164 1.533l-10.355 9.418a5.479 5.479 0 00-1.754 4.983 5.48 5.48 0 006.411 4.873l3.999-.548a19.397 19.397 0 0010.958-5.037 14.396 14.396 0 004.548-9.637 5.493 5.493 0 00-.38-2.117 5.487 5.487 0 00-2.939-3.025 5.466 5.466 0 00-2.105-.443z" fill="#fff"/><path d="M178.259 247.728a7.84 7.84 0 01-4.478-1.293 7.823 7.823 0 01-3.328-8.25 7.83 7.83 0 012.327-4.036l10.465-9.637a8.17 8.17 0 015.479-2.135h4.219a7.625 7.625 0 015.276 2.497 7.62 7.62 0 011.956 5.497 16.418 16.418 0 01-5.479 10.951 21.542 21.542 0 01-11.944 5.476l-3.945.547-.548.383zm10.41-21.19a3.467 3.467 0 00-2.465.986l-10.41 9.746a3.615 3.615 0 002.958 6.188l3.945-.548a17.428 17.428 0 009.589-4.545 11.781 11.781 0 003.89-8.377 3.395 3.395 0 00-3.178-3.504h-4.164l-.165.054z" fill="#150035"/></svg>