<svg width="228" height="228" fill="none" xmlns="http://www.w3.org/2000/svg"><path d="M86.116 81.576l-6.278 3.618a2.886 2.886 0 01-2.545 0l-5.94-3.449c-.735-.396-.791-1.074 0-1.413l6.279-3.619a2.886 2.886 0 012.545 0l5.94 3.45c.565.395.621 1.017 0 1.413zm-.793 17.358l-6.447 3.619a2.894 2.894 0 01-2.546 0l-5.939-3.449c-.735-.396-.792-1.074 0-1.413l6.279-3.619a2.887 2.887 0 012.545 0l5.656 3.449c1.018.396 1.075 1.018.453 1.413zM100.765 90l-6.278 3.618a2.716 2.716 0 01-2.546 0l-5.656-3.392c-.735-.453-.792-1.075 0-1.47l5.826-3.958a2.716 2.716 0 012.545 0l5.939 3.392c.905.792.905 1.47.17 1.81zm.057 17.866l-6.279 3.619a2.714 2.714 0 01-2.545 0l-5.939-3.392c-.735-.453-.792-1.075 0-1.47l6.278-3.619a2.702 2.702 0 011.273-.316c.444-.001.88.108 1.273.316l5.939 3.392c.678.453.678 1.018 0 1.47zm15.441-8.932l-6.279 3.675a3.1 3.1 0 01-2.545 0l-5.939-3.562c-.735-.395-.792-1.074 0-1.47l6.278-3.618a2.888 2.888 0 012.546 0l5.656 3.449c.848.508.905 1.187.283 1.526zm-.792 17.356l-6.278 3.675a3.101 3.101 0 01-2.545 0l-5.939-3.448c-.735-.396-.792-1.075 0-1.47l6.278-3.619a2.892 2.892 0 012.545 0l5.939 3.449c.566.396.623 1.074 0 1.413zm15.441-8.876l-6.334 3.618a2.603 2.603 0 01-2.489 0l-5.939-3.618c-.735-.452-.849-1.074 0-1.47l6.278-3.619a2.727 2.727 0 012.545 0l5.939 3.393c.566.678.623 1.3 0 1.696zm-.792 17.359l-5.995 3.618a2.716 2.716 0 01-2.546 0l-5.938-3.392c-.736-.453-.792-1.074 0-1.47l6.278-3.619a2.714 2.714 0 012.545 0l5.939 3.393c.283.452.339 1.074-.283 1.47zm15.442-8.935l-6.335 3.675a2.936 2.936 0 01-2.488 0l-5.939-3.449c-.736-.396-.849-1.074 0-1.47l6.278-3.619a2.892 2.892 0 012.545 0l5.657 3.449c.848.396.904 1.075.282 1.414zm15.385-8.877l-6.278 3.619a2.614 2.614 0 01-2.489 0l-5.939-3.393c-.735-.452-.849-1.074 0-1.47l6.165-3.957a2.602 2.602 0 012.489 0l5.939 3.392c.679.791.792 1.413.113 1.809zm15.441-8.931l-6.278 3.731a2.94 2.94 0 01-2.489 0l-5.939-3.449c-.792-.396-.848-1.074 0-1.47l6.335-3.618a2.771 2.771 0 012.489 0l5.939 3.448c.509.34.622 1.018-.057 1.357zM192 89.152l-6.279 3.619a2.716 2.716 0 01-2.545 0l-5.656-3.393c-.735-.452-.792-1.074 0-1.47l6.335-3.618a2.6 2.6 0 012.489 0L192 87.682c.396.453.509 1.074 0 1.47zm15.271-8.932l-6.278 3.675a3.111 3.111 0 01-2.545 0l-5.657-3.449c-.735-.396-.791-1.074 0-1.47l6.279-3.618a2.884 2.884 0 012.545 0l5.939 3.449c.283.339.339 1.074-.283 1.413zm-46.211 44.552l-6.335 3.675a2.936 2.936 0 01-2.488 0l-5.657-3.448c-.735-.396-.848-1.075 0-1.414l5.826-3.788a3.121 3.121 0 012.546 0l5.656 3.449c1.018.509 1.074 1.131.452 1.526zm15.441-8.877l-6.335 3.618a2.597 2.597 0 01-2.488 0l-5.939-3.392c-.736-.452-.849-1.074 0-1.47l6.278-3.618a2.602 2.602 0 012.489 0l5.656 3.392c.848.452.961 1.074.339 1.47zm15.498-8.934l-6.278 3.675a2.945 2.945 0 01-2.489 0l-5.939-3.448c-.792-.396-.848-1.075 0-1.414l5.996-4.014a2.936 2.936 0 012.488 0l5.939 3.449c.736.735.849 1.413.283 1.752zm15.329-8.877l-6.279 3.675a2.712 2.712 0 01-2.545 0l-5.656-3.392c-.735-.452-.792-1.074 0-1.47l6.335-3.618a2.604 2.604 0 012.489 0l5.656 3.392c.565.396.679 1.018 0 1.413zM74.124 205.959l-6.56 3.619a2.772 2.772 0 01-2.49 0l-5.656-3.449c-.735-.452-.848-1.074 0-1.47l6.279-3.618a2.772 2.772 0 012.488 0l5.657 3.448c.791.453.905 1.131.282 1.47zm15.386-8.876l-6.278 3.618a2.601 2.601 0 01-2.489 0l-5.939-3.392c-.792-.452-.848-1.131 0-1.47l6.109-3.618a2.771 2.771 0 012.488 0l5.657 3.449c1.13.395 1.13 1.017.452 1.413zm-.792 17.358l-6.279 3.619a2.601 2.601 0 01-2.488 0l-5.656-3.392c-.736-.453-.849-1.131 0-1.47l6.278-3.619a2.771 2.771 0 012.489 0L89 213.028c.282.396.396 1.018-.283 1.413zm-30.148-.114l-6.278 3.675a3.103 3.103 0 01-2.545 0l-5.657-3.448c-.735-.396-.791-1.075 0-1.47l5.826-3.902a2.893 2.893 0 012.546 0l5.939 3.449c.735.679.791 1.357.17 1.696zm14.65 8.482l-6.278 3.618a2.715 2.715 0 01-2.545 0l-5.657-3.392c-.735-.452-.791-1.074 0-1.47l6.279-3.619a2.726 2.726 0 012.545 0l5.939 3.393c.283.452.34 1.074-.283 1.47zm30.939-17.301l-6.278 3.675a2.88 2.88 0 01-2.546 0l-5.656-3.449c-.792-.452-.848-1.074 0-1.47l6.165-3.731a2.771 2.771 0 012.49 0l5.938 3.449c.453.508.566 1.187-.113 1.526zm-.791 17.358l-6.279 3.618a2.771 2.771 0 01-2.489 0l-5.938-3.449c-.736-.452-.849-1.074 0-1.47l6.278-3.618a2.771 2.771 0 012.489 0l5.939 3.449c.565.452.678 1.13 0 1.47zm15.44-8.877l-5.996 3.618a2.715 2.715 0 01-2.545 0l-5.656-3.392c-.792-.452-.849-1.131 0-1.47l5.6-3.562a2.767 2.767 0 012.601 0l5.939 3.449c.622.339.736.961.057 1.357zm15.442-8.934l-6.278 3.618a2.88 2.88 0 01-2.545 0l-5.939-3.448c-.736-.453-.792-1.075 0-1.47l6.278-3.619a2.893 2.893 0 012.545 0l5.939 3.449c.566.452.622 1.131 0 1.47zm15.441-8.877l-6.278 3.618a2.716 2.716 0 01-2.545 0l-5.939-3.392c-.735-.452-.792-1.131 0-1.47l6.165-3.731a2.88 2.88 0 012.545 0l5.656 3.448c.962.509 1.019 1.131.396 1.527zm15.441-8.932l-6.335 3.618a2.77 2.77 0 01-2.488 0l-5.939-3.449c-.736-.452-.849-1.074 0-1.47l6.278-3.618a2.883 2.883 0 012.545 0l5.657 3.392c.848.509.905 1.188.282 1.527zm15.555-8.877l-6.278 3.618a2.603 2.603 0 01-2.489 0l-5.939-3.392c-.735-.453-.849-1.131 0-1.47l6.278-3.619a2.771 2.771 0 012.489 0l5.939 3.449c.396.396.509 1.018 0 1.414zm-46.38 44.553l-6.279 3.618a2.715 2.715 0 01-2.545 0l-5.656-3.392c-.792-.452-.848-1.074 0-1.47l6.335-3.619a2.61 2.61 0 012.489 0l5.939 3.393c.282.452.395 1.074-.283 1.47zM29.159 180.348l-6.279 3.618a2.715 2.715 0 01-2.545 0l-5.656-3.392c-.736-.452-.792-1.131 0-1.47l5.882-3.845a2.771 2.771 0 012.489 0l5.656 3.449c1.018.622 1.131 1.244.453 1.64zm15.441-8.932l-6.279 3.845a2.894 2.894 0 01-2.545 0l-5.656-3.449c-.735-.452-.792-1.074 0-1.47l6.278-3.618a2.88 2.88 0 012.546 0l5.656 3.448c.34.226.622.905 0 1.244zm-16.346 25.893l-6.279 3.619a2.772 2.772 0 01-2.488 0l-5.656-3.449c-.736-.453-.849-1.074 0-1.47l5.825-3.788a2.77 2.77 0 012.659 0l5.656 3.449c.848.621.962 1.3.283 1.639zm14.648 8.481l-6.278 3.392a2.601 2.601 0 01-2.489 0l-5.656-3.392c-.735-.453-.848-1.131 0-1.47l6.335-3.619a2.771 2.771 0 012.489 0l5.939 3.449c.226.622.34 1.244-.34 1.64zm.623 17.302l-6.278 3.618a2.772 2.772 0 01-2.489 0l-5.656-3.449c-.735-.452-.848-1.074 0-1.47l6.278-3.618a2.772 2.772 0 012.489 0l5.656 3.449c.566.452.679 1.13 0 1.47zm-15.555-8.708l-6.278 3.618a2.715 2.715 0 01-2.545 0l-5.939-3.392c-.735-.452-.792-1.131 0-1.47l6.052-3.958a2.893 2.893 0 012.545 0l5.657 3.449c1.018.735 1.074 1.357.509 1.753zm-12.16-59.818l-6.28 3.731a2.601 2.601 0 01-2.488 0l-5.656-3.392c-.735-.452-.849-1.074 0-1.47l6.278-3.618a2.601 2.601 0 012.489 0l5.656 3.392c.849.339.849.961 0 1.357zm-.736 17.359l-6.334 3.618a2.601 2.601 0 01-2.49 0l-5.655-3.392c-.736-.453-.849-1.074 0-1.47l6.278-3.619a2.6 2.6 0 012.489 0l5.939 3.393c.34.452.396 1.074-.227 1.47zm15.385-8.934l-6.279 3.675a2.94 2.94 0 01-2.488 0l-5.94-3.449c-.734-.396-.848-1.074 0-1.414l6.11-3.505a2.94 2.94 0 012.488 0l5.656 3.449c1.018.226 1.132.904.453 1.244zm119.289 50.998l-6.278 3.675a3.102 3.102 0 01-2.545 0l-5.657-3.448c-.735-.396-.791-1.075 0-1.414l5.826-3.618a3.105 3.105 0 012.546 0l5.939 3.449c.735.339.791 1.017.169 1.356zm15.441-8.876l-6.278 3.618a2.716 2.716 0 01-2.545 0l-5.939-3.392c-.736-.452-.792-1.074 0-1.47l6.278-3.618a2.716 2.716 0 012.545 0l5.939 3.392c.566.452.622 1.074 0 1.47zm15.498-8.934l-6.335 3.675a2.94 2.94 0 01-2.489 0l-5.939-3.449c-.735-.395-.848-1.074 0-1.413l6.279-3.675a3.116 3.116 0 012.545 0l5.656 3.449c.792.396.848 1.074.283 1.413zm15.668-26.574l-6.335 3.619a2.614 2.614 0 01-2.489 0l-5.939-3.619c-.735-.452-.848-1.074 0-1.47l6.278-3.618a2.716 2.716 0 012.546 0l5.656 3.392c.848.396.905 1.018.283 1.696zm15.384-9.214l-6.278 3.562a2.94 2.94 0 01-2.489 0l-5.656-3.449c-.735-.396-.848-1.074 0-1.413l5.996-3.675a2.936 2.936 0 012.488 0l5.939 3.449c.566.508.679 1.187 0 1.526zm15.441-8.876l-6.278 3.618a2.602 2.602 0 01-2.489 0l-5.939-3.392c-.791-.452-.848-1.074 0-1.47l6.335-3.618a2.603 2.603 0 012.489 0l5.656 3.392c.792.452.905 1.074.226 1.47zm-30.768 35.674l-6.279 3.619a2.714 2.714 0 01-2.545 0l-5.656-3.393c-.736-.452-.792-1.13 0-1.47l6.278-3.618a2.88 2.88 0 012.545 0l5.657 3.449c.565.396.622.791 0 1.413zm15.44-8.932l-6.335 3.619a2.77 2.77 0 01-2.488 0l-5.939-3.449c-.736-.452-.849-1.074 0-1.47l6.222-3.675a2.712 2.712 0 012.545 0l5.656 3.392c.905.566.962 1.244.339 1.583zm15.385-8.651l-6.278 3.618a2.77 2.77 0 01-2.489 0l-5.656-3.392c-.735-.452-.848-1.131 0-1.47l6.278-3.618a2.777 2.777 0 012.489 0l5.939 3.448c.283.17.396.792-.283 1.414z" fill="#150035"/><path d="M105.968 193.409L5.345 135.062a2.315 2.315 0 01-1.414-2.205l.396-19.788a.906.906 0 011.018-1.074L73.22 91.528h.396l31.562-18.036a9.331 9.331 0 018.371-.339l68.213 39.916a.677.677 0 00.453 0h32.409a.848.848 0 01.849.848v19.958a3.452 3.452 0 01-2.036 2.544l-98.983 56.538a9.332 9.332 0 01-8.485.452z" fill="red"/><path d="M109.589 196.461a9.055 9.055 0 01-4.695-1.131L4.497 136.983a4.583 4.583 0 01-2.545-4.241l.17-19.675a3.166 3.166 0 012.658-2.996l67.874-20.467 31.505-17.866a11.317 11.317 0 0110.577-.34l67.874 39.577h32.07a2.773 2.773 0 012.15.848 3.057 3.057 0 01.905 2.205v19.958a5.65 5.65 0 01-3.111 4.467l-99.153 56.538a12.452 12.452 0 01-5.882 1.47zm-2.432-4.919a7.13 7.13 0 006.108-.396l99.04-56.538c.678-.396.905-.735.905-.848v-18.375h-31.053a2.825 2.825 0 01-1.527-.395l-68.213-40.03a7.3 7.3 0 00-6.165.396l-31.788 17.98c-.354.19-.736.323-1.131.395l-66.8 20.184v18.827s0 .283.34.453l100.284 58.347z" fill="#150035"/><path d="M185.947 113.068h28.281a1.133 1.133 0 011.131 1.131v19.675a3.452 3.452 0 01-2.036 2.544l-98.587 56.538h-.396v-20.58c-2.263-6.954 71.607-59.308 71.607-59.308z" fill="#150035"/><path d="M114.736 195.387l-1.358-.679a2.431 2.431 0 01-1.244-2.148v-20.297c-.679-2.375.735-7.181 35.634-33.923 17.986-13.795 36.539-27.025 36.708-27.138h29.695c.87 0 1.704.346 2.319.961a3.339 3.339 0 01.962 2.374v19.676a5.655 5.655 0 01-3.111 4.466l-99.605 56.708zm1.98-22.615v16.565l95.645-54.898c.679-.396.905-.735.905-.848v-18.375h-26.64c-33.202 23.633-67.874 50.884-69.854 56.538l.283.735-.339.283z" fill="#150035"/><path d="M214.115 110.354L113.718 52.007a9.168 9.168 0 00-8.371.396L6.364 108.94c-2.489 1.47-2.715 3.618-.566 4.862l100.341 58.573a9.153 9.153 0 004.233.815 9.18 9.18 0 004.138-1.21l98.983-56.538c2.488-1.696 2.771-3.845.622-5.089z" fill="#fff"/><path d="M109.759 175.259a9.784 9.784 0 01-4.694-1.131L4.668 115.951a4.693 4.693 0 01-2.546-4.015 5.651 5.651 0 013.224-4.523l99.04-56.538a11.313 11.313 0 0110.52-.395l100.284 57.95a4.865 4.865 0 012.602 4.014 5.654 5.654 0 01-3.168 4.693l-98.982 56.538a11.722 11.722 0 01-5.883 1.583zM6.534 111.936h.34l100.283 58.517a7.468 7.468 0 006.166-.339l98.982-56.538c.393-.167.713-.468.905-.848h-.339l-100.058-58.8a7.126 7.126 0 00-6.108.396l-99.04 56.538a2.154 2.154 0 00-.905.848l-.226.226z" fill="#150035"/><path d="M15.927 121.399l-.618 20.457 4.41.133.618-20.457-4.41-.133z" fill="#150035"/><path d="M195.691 126.413l-.262 17.864 3.393.05.262-17.865-3.393-.049z" fill="red"/><path d="M69.882 161.408l-14.31-8.367a1.471 1.471 0 00-1.584 0l-17.42 10.912a.791.791 0 000 .961l16.968 17.979a.79.79 0 010 .396v5.653c0 1.697 6.787-3.166 8.088-2.431l-8.654 5.711a.794.794 0 00.962 0l17.477-10.912c.415-.52.67-1.148.736-1.809v-13.683a5.657 5.657 0 00-2.263-4.41z" fill="#fff"/><path d="M53.593 194.596h-.679a3.057 3.057 0 01-1.81-1.3l-1.131-1.866 1.3-.848v-6.841l-16.798-17.866a2.884 2.884 0 01.962-3.958L52.8 151.118a3.623 3.623 0 013.846 0l14.31 8.368a7.637 7.637 0 013.394 6.332v13.739a5.655 5.655 0 01-1.245 3.223l-.508.452-17.478 10.912a3.001 3.001 0 01-1.527.452zm-14.31-29.909l15.724 16.962c.256.448.393.954.396 1.47v3.109l.678-.339c2.659-1.3 4.525-2.261 6.166-1.413l7.522-4.693a.966.966 0 000-.283v-13.682a3.393 3.393 0 00-1.187-2.488l-13.858-8.198-15.441 9.555z" fill="#150035"/><path d="M40.81 180.179v1.187L52.857 191.6a1.193 1.193 0 001.204.557c.155-.024.303-.079.437-.162l16.968-10.629c.44-.509.717-1.14.792-1.809v-12.891a.51.51 0 00-.735-.395l-17.251 10.742-13.462 3.166z" fill="#150035"/><path d="M53.876 194.371h-.792a4.069 4.069 0 01-1.867-1.188l-12.84-10.911.397-3.845 14.423-3.166 16.969-10.742a2.601 2.601 0 012.715 0 2.654 2.654 0 011.414 2.318v12.89a5.651 5.651 0 01-1.301 3.223l-.51.452-16.968 10.63a3.171 3.171 0 01-1.64.339zM44.43 181.65l9.615 8.028 15.95-9.894v-10.177l-14.14 9.046v.453L44.43 181.65z" fill="#150035"/><path d="M51.84 192.559l-14.367-8.424a5.656 5.656 0 01-2.263-4.353v-13.739c0-1.696 1.018-2.488 2.263-1.753l14.366 8.368a5.655 5.655 0 012.263 4.41v13.739c0 1.696-1.018 2.487-2.263 1.752z" fill="red"/><path d="M52.744 195.047a4.578 4.578 0 01-2.15-.565l-14.196-8.425a7.806 7.806 0 01-3.394-6.275v-13.739a4.128 4.128 0 011.867-3.788 3.68 3.68 0 013.733 0l14.31 8.481a7.798 7.798 0 013.394 6.332v13.739a4.236 4.236 0 01-1.867 3.788 3.626 3.626 0 01-1.697.452zm0-4.41l-1.075 1.922 1.075-1.922zm-15.328-23.859v13.004a3.397 3.397 0 001.188 2.487l13.292 7.746v-12.947a3.277 3.277 0 00-1.301-2.488l-13.179-7.802z" fill="#150035"/><path d="M70.101 173.631l-15.312 9.215 1.75 2.906 15.313-9.215-1.75-2.906zm51.931-70.286L57.495 65.917a2.488 2.488 0 01-1.414-2.262V43.81a.848.848 0 01.848-.848h32.976l31.957-18.488a9.285 9.285 0 018.428-.396l32.41 19.11h32.806a.904.904 0 01.905.848v19.958a3.568 3.568 0 01-2.037 2.601l-63.914 36.41a9.448 9.448 0 01-8.428.34z" fill="red"/><path d="M125.709 106.396a9.859 9.859 0 01-4.751-1.13L56.252 67.837a4.524 4.524 0 01-2.546-4.24V43.696a3.052 3.052 0 013.055-2.997l32.183-.283 31.844-17.809a11.32 11.32 0 0110.578-.396l32.353 18.827h32.014a2.993 2.993 0 012.206.905 3.128 3.128 0 01.905 2.205v19.901a5.653 5.653 0 01-3.111 4.467l-64.198 36.354a11.318 11.318 0 01-5.826 1.526zm-2.545-4.975a7.072 7.072 0 006.165-.339l63.802-36.58c.679-.396.905-.792.905-.848V45.222l-30.996.283a3.06 3.06 0 01-1.471-.283L129.16 26a7.3 7.3 0 00-6.166.396L91.15 44.375c-.45.249-.955.385-1.47.395l-31.222.452v18.545l.339.452 64.367 37.202z" fill="#150035"/><path d="M166.83 43.017h28.281a1.132 1.132 0 011.187 1.131v19.675a3.554 3.554 0 01-2.036 2.601l-63.349 36.298h-.396v-20.58c-2.375-6.785 36.313-39.124 36.313-39.124z" fill="#150035"/><path d="M130.799 105.323l-1.357-.678a2.426 2.426 0 01-1.188-2.149V81.973c-1.018-7.576 22.625-28.552 36.991-40.651l.679-.396h29.186c.87 0 1.704.346 2.319.961a3.161 3.161 0 011.018 2.375v19.675a5.655 5.655 0 01-3.111 4.467l-64.537 36.919zm2.036-22.615V99.16l60.295-34.657c.679-.396.905-.792.905-.849v-18.43h-26.414c-16.969 14.36-35.181 32.056-34.899 36.014l.453 1.017-.34.453z" fill="#150035"/><path d="M194.997 40.472L130.46 3.044a9.335 9.335 0 00-8.371.34l-63.802 36.58c-2.488 1.47-2.771 3.618-.622 4.862L122.26 82.31a9.56 9.56 0 008.371-.395l63.801-36.694c2.432-1.3 2.715-3.505.566-4.749z" fill="#fff"/><path d="M125.879 85.308a9.959 9.959 0 01-4.751-1.074L56.591 46.749a4.638 4.638 0 01-2.545-4.014 5.651 5.651 0 013.11-4.636l63.802-36.58a11.316 11.316 0 0110.577-.396l64.593 37.485a4.643 4.643 0 012.546 3.957 5.656 5.656 0 01-3.168 4.693l-63.801 36.58a12.053 12.053 0 01-5.826 1.47zM58.457 42.735h.34l64.537 37.484a7.298 7.298 0 006.448-.226l63.518-36.58c.37-.197.697-.466.962-.791h-.339L129.329 4.967a7.071 7.071 0 00-6.165.34l-63.802 36.58c-.622.395-.848.678-.904.848z" fill="#150035"/><path d="M67.81 52.225l-.618 20.457 4.41.133.618-20.457-4.41-.133z" fill="#150035"/><path d="M176.584 56.524l-.262 17.864 3.393.05.262-17.864-3.393-.05zm-51.553 5.32l-13.179-2.035 1.64-3.505a23.185 23.185 0 01-3.563-1.64 17.975 17.975 0 01-3.337-2.544l-5.657.905-4.129-8.764 6.335-.961a9.726 9.726 0 012.15-4.975l-4.752-2.714 10.464-6.05 4.186 2.375a36.103 36.103 0 0110.634-1.64l1.527-3.336 13.122 2.036-1.584 3.505c1.219.434 2.393.983 3.507 1.64 1.238.695 2.38 1.55 3.394 2.544l5.656-.905 4.072 8.764-6.278.96a10.236 10.236 0 01-2.149 4.976l4.694 2.714-10.69 6.05-4.185-2.431a35.426 35.426 0 01-10.577 1.696l-1.301 3.335zm-8.202-4.692l6.165.96 1.414-2.996h1.075a31.85 31.85 0 0011.312-1.752h.736l3.789 2.205 3.677-2.149-3.45-1.979 1.696-1.526a7.46 7.46 0 002.659-5.654v-1.64l4.695-.735-1.132-2.318-5.147.792-.622-.792a13.912 13.912 0 00-3.224-2.544 22.065 22.065 0 00-4.695-1.979l-1.81-.565 1.471-2.827-6.165-.961-1.527 3.223h-1.132a31.743 31.743 0 00-11.312 1.696h-.735l-3.846-2.205-3.564 2.205 3.394 1.979-1.64 1.526a7.003 7.003 0 00-2.659 5.654v1.526l-4.751.622 1.075 2.375 5.09-.792.622.622a13.08 13.08 0 003.281 2.601c1.463.84 3.02 1.504 4.638 1.979l1.867.565-1.245 2.884zm9.22-5.654c-3.202.13-6.34-.916-8.824-2.94a5.654 5.654 0 01-1.81-3.901 5.653 5.653 0 011.81-3.845 14.711 14.711 0 0117.704 0 5.648 5.648 0 011.753 3.845 5.653 5.653 0 01-1.753 3.901 13.24 13.24 0 01-8.88 2.657v.283zm0-10.29a9.676 9.676 0 00-6.505 2.092 1.925 1.925 0 00-.735 1.357 2.037 2.037 0 00.735 1.413 11.317 11.317 0 0013.009 0 2.023 2.023 0 00.736-1.413 1.913 1.913 0 00-.736-1.357 9.446 9.446 0 00-6.504-2.375v.283z" fill="red"/><path d="M141.603 31.143a26.9 26.9 0 00-5.034-2.091l1.47-3.166-9.672-1.47-1.47 3.11a33.954 33.954 0 00-11.822 1.865l-4.015-2.318-7.071 4.07 4.016 2.319a8.767 8.767 0 00-3.224 6.84l-5.656.849 2.602 5.654 5.656-.849a14.863 14.863 0 003.62 2.94 26.873 26.873 0 005.034 2.092l-1.471 3.166 9.559 1.357 1.414-3.11c4.039.09 8.062-.541 11.878-1.865l4.016 2.318 7.07-4.07-4.016-2.319a8.762 8.762 0 003.394-6.897l5.656-.848-2.602-5.654-5.656.848a16.216 16.216 0 00-3.676-2.77zm-7.579 11.308a12.904 12.904 0 01-15.385 0 3.385 3.385 0 01-1.215-2.6 3.39 3.39 0 011.215-2.601 12.898 12.898 0 0115.385 0 3.404 3.404 0 011.284 2.657 3.397 3.397 0 01-1.284 2.657v-.113z" fill="#150035"/></svg>