<svg width="93" height="117" viewBox="0 0 93 117" fill="none" xmlns="http://www.w3.org/2000/svg">
<g clip-path="url(#clip0)">
<path d="M0.595187 18.431H0V33.8816H0.595187V18.431Z" fill="#201600"/>
<path d="M0.595187 12.0886H0V17.4931H0.595187V12.0886Z" fill="#201600"/>
<path d="M0.889133 59.4657H0.293945V64.8702H0.889133V59.4657Z" fill="#201600"/>
<path d="M92.3966 70.076H92.9918V52.5908C92.9918 52.5908 93.4044 47.0273 88.2303 44.7303L87.9922 45.2787C89.3813 45.8997 90.5484 46.9298 91.3381 48.2319C92.1278 49.534 92.5026 51.0461 92.4125 52.5669L92.3966 70.076Z" fill="#201600"/>
<path d="M93.0005 72.2299H92.4053V78.1351H93.0005V72.2299Z" fill="#201600"/>
<path d="M18.7048 86.7267L21.9426 86.7902C21.9944 86.8057 22.0495 86.8057 22.1013 86.7902L34.4971 79.6372C34.8879 79.4204 35.324 79.2981 35.7704 79.2801C36.2169 79.2622 36.6613 79.3491 37.0683 79.5339L65.1849 95.7872H65.2405L74.5809 98.9663C74.6431 98.9864 74.6972 99.0257 74.7357 99.0785C74.7742 99.1313 74.795 99.195 74.7952 99.2604V101.645C74.8746 101.971 74.6682 102.344 74.1842 102.622L58.7252 111.484C58.3343 111.701 57.8982 111.823 57.4518 111.841C57.0053 111.859 56.5609 111.772 56.1539 111.587L18.8555 90.025C18.7312 89.9645 18.6248 89.8726 18.5469 89.7583C18.4689 89.644 18.4221 89.5113 18.4111 89.3733V87.0366C18.4129 86.9577 18.4439 86.8822 18.4982 86.8249C18.5525 86.7676 18.6261 86.7326 18.7048 86.7267Z" fill="#201600"/>
<path d="M55.9638 111.85L18.6654 90.2874C18.494 90.2026 18.3489 90.0727 18.2455 89.9118C18.142 89.7508 18.0842 89.5647 18.0781 89.3734V87.0367C18.0832 86.8844 18.1455 86.7396 18.2527 86.6314C18.3079 86.5716 18.3758 86.5249 18.4513 86.4946C18.5268 86.4644 18.608 86.4514 18.6892 86.4565L21.9429 86.5281L34.3386 79.375C34.774 79.1327 35.2601 78.9963 35.7578 78.977C36.2555 78.9577 36.7507 79.0559 37.2035 79.2637L65.3201 95.525L74.6606 98.7041C74.7806 98.7466 74.8846 98.8251 74.9584 98.9289C75.0323 99.0328 75.0724 99.1568 75.0733 99.2843V101.605C75.0947 101.873 75.029 102.141 74.886 102.369C74.743 102.597 74.5303 102.772 74.2797 102.869L58.8366 111.747C58.3489 112.011 57.8037 112.15 57.2494 112.152C56.8021 112.163 56.3594 112.059 55.9638 111.85ZM34.6481 79.836L22.2524 86.989C22.16 87.0544 22.0477 87.0853 21.9349 87.0764L18.6971 87.0049V86.7109V89.3654C18.7073 89.4495 18.739 89.5294 18.789 89.5976C18.8391 89.6658 18.9058 89.72 18.9828 89.7549L56.2812 111.317C56.6423 111.475 57.0346 111.547 57.428 111.529C57.8214 111.512 58.2055 111.404 58.5509 111.214L74.0495 102.257C74.3828 102.058 74.5654 101.804 74.5178 101.597V99.1651L65.1773 95.986L65.0741 95.9383L36.9178 79.7327C36.6209 79.5812 36.2906 79.5074 35.9576 79.5181C35.5018 79.5158 35.0523 79.6249 34.6481 79.836Z" fill="#201600"/>
<path d="M18.8235 87.4261L56.1219 108.996C56.5331 109.187 56.984 109.277 57.4368 109.257C57.8896 109.238 58.3313 109.11 58.7248 108.885L74.2155 99.928C75.0091 99.4909 75.0647 98.8233 74.406 98.4418L37.1076 76.8793C36.7007 76.6946 36.2562 76.6077 35.8098 76.6256C35.3633 76.6435 34.9272 76.7658 34.5364 76.9827L19.0457 85.9637C18.2521 86.4088 18.1648 87.0684 18.8235 87.4261Z" fill="white"/>
<path d="M55.9639 109.275L18.6655 87.7123C18.4938 87.6292 18.3478 87.501 18.243 87.3415C18.1382 87.182 18.0786 86.997 18.0703 86.8062C18.0937 86.5694 18.1795 86.343 18.319 86.1503C18.4584 85.9576 18.6465 85.8054 18.8639 85.7094L34.3546 76.7522C34.79 76.5099 35.2761 76.3735 35.7738 76.3542C36.2715 76.3349 36.7667 76.4331 37.2195 76.6409L74.5179 98.2113C74.6895 98.2924 74.8356 98.4189 74.9406 98.5772C75.0455 98.7356 75.1051 98.9196 75.1131 99.1094C75.0897 99.3463 75.0039 99.5726 74.8644 99.7654C74.725 99.9581 74.5369 100.11 74.3195 100.206L58.8367 109.171C58.3484 109.433 57.8032 109.569 57.2495 109.569C56.8029 109.583 56.3603 109.481 55.9639 109.275ZM34.6483 77.2609L19.1496 86.226C18.856 86.4009 18.6734 86.6155 18.6734 86.8062C18.6851 86.8908 18.7183 86.971 18.7697 87.0392C18.8211 87.1073 18.889 87.1612 18.9671 87.1956L56.2655 108.758C56.6266 108.916 57.0188 108.988 57.4123 108.97C57.8057 108.952 58.1898 108.844 58.5351 108.655L74.0338 99.6976C74.3354 99.5227 74.5099 99.3002 74.5099 99.1094C74.4975 99.0251 74.4641 98.9452 74.4128 98.8771C74.3615 98.8091 74.2939 98.7551 74.2163 98.72L36.9179 77.1575C36.621 77.0061 36.2907 76.9323 35.9577 76.9429C35.5018 76.9397 35.0521 77.0489 34.6483 77.2609Z" fill="#201600"/>
<path d="M57.471 109.45H57.0107V111.659H57.471V109.45Z" fill="#FF0000"/>
<path d="M73.3431 100.627H72.8828V102.845H73.3431V100.627Z" fill="#FF0000"/>
<path d="M20.2835 88.2368H19.8232V90.4543H20.2835V88.2368Z" fill="#FF0000"/>
<path d="M3.00734 2.04258C2.99889 2.03512 2.99213 2.02594 2.9875 2.01567C2.98286 2.00539 2.98047 1.99424 2.98047 1.98297C2.98047 1.97169 2.98286 1.96054 2.9875 1.95027C2.99213 1.93999 2.99889 1.93082 3.00734 1.92336L5.80075 0.389427C5.88215 0.33523 5.97803 0.306982 6.07576 0.308401C6.1735 0.309819 6.26852 0.340838 6.34832 0.397375L89.984 48.7361C90.2323 48.9194 90.4336 49.159 90.5716 49.4353C90.7095 49.7116 90.7801 50.0167 90.7776 50.3256V114.393C90.7873 114.51 90.771 114.628 90.7298 114.738C90.6886 114.848 90.6237 114.947 90.5395 115.029L87.6192 116.618L84.7146 113.114L85.8574 112.613L6.34832 66.6425C6.10192 66.4575 5.90193 66.2175 5.76419 65.9416C5.62645 65.6657 5.55474 65.3614 5.55474 65.053V5.51578L3.00734 2.04258Z" fill="white"/>
<path d="M84.2628 113.002L85.231 112.573L6.23775 66.9048C5.94205 66.7 5.69978 66.427 5.5313 66.1089C5.36283 65.7908 5.27307 65.4369 5.26958 65.0768V5.61116L2.76979 2.22538C2.73814 2.18104 2.71613 2.13054 2.7052 2.07715C2.69426 2.02375 2.69464 1.96866 2.7063 1.91542C2.71794 1.86285 2.74012 1.8132 2.77149 1.76948C2.80287 1.72576 2.84279 1.68888 2.88883 1.66109L5.61875 0.150998C5.75238 0.0569417 5.91173 0.00646973 6.07506 0.00646973C6.23839 0.00646973 6.39774 0.0569417 6.53137 0.150998L90.1354 48.4818C90.4286 48.6884 90.6687 48.9619 90.8356 49.2798C91.0026 49.5976 91.0917 49.9506 91.0956 50.3098V114.369C91.1072 114.539 91.078 114.709 91.0103 114.866C90.9426 115.022 90.8385 115.16 90.7067 115.267L87.5324 117L84.2628 113.002ZM5.94412 0.643764L3.39672 2.06643L5.86476 5.42041V65.0768C5.86842 65.3319 5.93041 65.5827 6.04597 65.8101C6.16153 66.0374 6.32758 66.2352 6.53137 66.3882L86.5404 112.653L85.2231 113.225L87.7149 116.237L90.3814 114.759C90.428 114.705 90.4627 114.641 90.4832 114.573C90.5037 114.504 90.5096 114.432 90.5004 114.361V50.3018C90.4979 50.0465 90.4365 49.7953 90.3208 49.5677C90.2052 49.3402 90.0385 49.1426 89.8338 48.9904L6.23775 0.651712C6.18671 0.622931 6.12961 0.606594 6.0711 0.604025C6.02563 0.603444 5.98116 0.617361 5.94412 0.643764Z" fill="#201600"/>
<path d="M3.4596 68.2718L87.0636 116.611C87.508 116.865 87.8572 116.611 87.8572 115.991V51.9232C87.8572 51.6147 87.7854 51.3105 87.6477 51.0346C87.51 50.7587 87.31 50.5187 87.0636 50.3336L3.4596 2.01873C3.00726 1.75646 2.66602 2.01873 2.66602 2.63866V66.7061C2.66786 67.0109 2.74053 67.311 2.87827 67.5828C3.01602 67.8546 3.21505 68.0905 3.4596 68.2718Z" fill="#201600"/>
<path d="M86.9135 116.833L3.30953 68.5262C3.02317 68.3169 2.78994 68.0432 2.62866 67.727C2.46738 67.4108 2.38255 67.0611 2.38103 66.7061V2.63868C2.36191 2.46376 2.38842 2.28686 2.45797 2.12527C2.52751 1.96368 2.63772 1.82292 2.77783 1.71673C2.90261 1.65408 3.04168 1.6255 3.18101 1.63387C3.32034 1.64225 3.455 1.68728 3.57141 1.76442L87.2071 50.0713C87.5027 50.2744 87.745 50.5459 87.9135 50.8627C88.0821 51.1796 88.1719 51.5324 88.1753 51.8914V115.959C88.1911 116.136 88.1598 116.313 88.0845 116.474C88.0092 116.634 87.8926 116.772 87.7468 116.873C87.6379 116.935 87.5149 116.968 87.3897 116.968C87.2215 116.968 87.0566 116.922 86.9135 116.833ZM3.07939 2.23334C3.0159 2.23334 2.94448 2.40025 2.94448 2.63868V66.7061C2.94694 66.9603 3.00845 67.2104 3.12416 67.4367C3.23986 67.6629 3.40657 67.859 3.61109 68.0096L87.2071 116.348C87.2547 116.348 87.3738 116.436 87.4452 116.396C87.5166 116.356 87.5801 116.229 87.5801 115.991V51.9232C87.5777 51.669 87.5161 51.4189 87.4004 51.1926C87.2847 50.9664 87.118 50.7703 86.9135 50.6197L3.30953 2.27308C3.26821 2.24666 3.22253 2.22782 3.17462 2.21744L3.07939 2.23334Z" fill="#201600"/>
<path d="M3.58683 67.0717L86.913 115.267C87.048 115.347 87.1511 115.267 87.1511 115.092V51.6132C87.1518 51.5227 87.1305 51.4335 87.0891 51.3532C87.0476 51.2729 86.9872 51.2039 86.913 51.1522L3.58683 2.94861C3.45192 2.87708 3.34082 2.94861 3.34082 3.13141V66.6107C3.34232 66.7016 3.36542 66.7908 3.4082 66.871C3.45098 66.9511 3.51222 67.0199 3.58683 67.0717Z" fill="#FF0000"/>
<path d="M86.7942 115.53L3.43622 67.326C3.31632 67.2495 3.21776 67.1437 3.14975 67.0186C3.08175 66.8935 3.04652 66.7532 3.04737 66.6107V3.13143C3.04348 3.04246 3.06263 2.95399 3.10296 2.87461C3.14328 2.79523 3.20341 2.72765 3.27751 2.67841C3.346 2.63785 3.42411 2.61646 3.50368 2.61646C3.58325 2.61646 3.66136 2.63785 3.72985 2.67841L87.0878 50.8661C87.2059 50.9465 87.3028 51.0542 87.3705 51.1801C87.4382 51.306 87.4746 51.4464 87.4767 51.5894V115.069C87.4816 115.157 87.4628 115.244 87.4223 115.323C87.3818 115.401 87.3211 115.467 87.2465 115.514C87.1827 115.555 87.1083 115.577 87.0322 115.577C86.9501 115.583 86.8679 115.567 86.7942 115.53ZM3.64255 66.6107C3.64487 66.6881 3.676 66.7618 3.72985 66.8174L86.8815 114.894V51.6132C86.8792 51.5358 86.848 51.4621 86.7942 51.4065L3.64255 3.33013V66.6107Z" fill="#201600"/>
<path d="M2.64258 66.7617V63.1136L87.8813 112.39V116.038C87.8813 116.603 87.4845 116.833 87.0005 116.547L3.52346 68.3036C3.26504 68.135 3.05039 67.9072 2.89723 67.6391C2.74406 67.371 2.65677 67.0703 2.64258 66.7617Z" fill="#201600"/>
<path d="M86.8498 116.833L3.37284 68.5579C3.07705 68.3588 2.83282 68.0921 2.66033 67.7797C2.48784 67.4674 2.39204 67.1184 2.38086 66.7617V62.605L88.0878 112.144L88.2386 112.231V116.038C88.2446 116.194 88.2105 116.349 88.1396 116.488C88.0688 116.628 87.9635 116.746 87.8339 116.833C87.72 116.898 87.5918 116.933 87.4609 116.936C87.2515 116.963 87.0388 116.927 86.8498 116.833ZM2.9443 63.6303V66.8094C2.95948 67.0635 3.03332 67.3106 3.16001 67.5312C3.28669 67.7519 3.46278 67.9401 3.6744 68.081L87.1514 116.348C87.1906 116.392 87.2438 116.421 87.3019 116.43C87.36 116.439 87.4193 116.427 87.4699 116.397C87.5204 116.367 87.559 116.321 87.5791 116.265C87.5991 116.21 87.5994 116.149 87.5799 116.094V112.605L2.9443 63.6303Z" fill="#201600"/>
<path d="M39.9823 86.7651L39.7559 87.1572L50.5484 93.4078L50.7748 93.0156L39.9823 86.7651Z" fill="#FF0000"/>
<path d="M90.6463 49.0988L87.7822 50.8217L88.0887 51.3327L90.9528 49.6098L90.6463 49.0988Z" fill="#201600"/>
<path d="M10.9176 2.83977L8.04395 4.54651L8.34754 5.05922L11.2212 3.35249L10.9176 2.83977Z" fill="#201600"/>
<path d="M90.6525 109.802L87.7881 111.524L88.0945 112.035L90.9588 110.313L90.6525 109.802Z" fill="#201600"/>
<path d="M66.2626 104.616L66.0322 105.015L67.8459 106.066L68.0763 105.667L66.2626 104.616Z" fill="#FF0000"/>
<path d="M57.3921 107.908C57.7061 107.907 58.0138 107.819 58.2809 107.653L61.5266 105.65L61.2171 105.15L57.9714 107.153C57.8003 107.252 57.6059 107.305 57.4079 107.305C57.21 107.305 57.0155 107.252 56.8445 107.153L24.7282 88.825L24.4346 89.3416L56.5509 107.685C56.8071 107.832 57.0971 107.908 57.3921 107.908Z" fill="#201600"/>
<path d="M23.514 88.809L23.7997 88.2845L21.419 86.9572C21.3862 86.9411 21.3585 86.9162 21.3388 86.8854C21.3192 86.8545 21.3085 86.8189 21.3079 86.7823C21.3126 86.7488 21.3261 86.7172 21.347 86.6907C21.3679 86.6641 21.3955 86.6437 21.4269 86.6313L24.7441 84.6841L24.4425 84.1675L21.1253 86.1147C21.0045 86.1864 20.9049 86.2889 20.8366 86.4118C20.7683 86.5347 20.7337 86.6735 20.7365 86.8141C20.7381 86.9536 20.7764 87.0902 20.8474 87.2102C20.9185 87.3301 21.0198 87.4293 21.1412 87.4976L23.514 88.809Z" fill="#201600"/>
<path d="M13.0861 48.7838L76.3664 85.3438C77.414 85.9479 78.2631 85.3438 78.2631 83.9053V76.3548C78.2536 75.6417 78.077 74.9408 77.7476 74.3086C77.4182 73.6763 76.9451 73.1304 76.3664 72.7147L13.0861 36.1547C12.0386 35.5507 11.1895 36.1547 11.1895 37.5933V45.1437C11.2008 45.8565 11.3782 46.5567 11.7075 47.1887C12.0367 47.8206 12.5088 48.3668 13.0861 48.7838Z" fill="white"/>
<path d="M77.7707 88.3561L14.4983 51.7961C13.8716 51.357 13.3583 50.7747 13.0009 50.0975C12.6435 49.4203 12.4522 48.6676 12.4429 47.9016V40.3512C12.406 40.0084 12.46 39.6619 12.5993 39.3465C12.7386 39.0312 12.9584 38.7582 13.2365 38.555C13.4779 38.4306 13.7484 38.3738 14.0194 38.3906C14.2904 38.4074 14.5518 38.4971 14.7761 38.6504L78.0961 75.2183C78.7218 75.6578 79.2339 76.2403 79.5899 76.9176C79.946 77.5949 80.1357 78.3474 80.1435 79.1128V86.6314C80.1788 86.9741 80.1241 87.32 79.9849 87.6351C79.8457 87.9501 79.6268 88.2233 79.3499 88.4276C79.157 88.5391 78.9378 88.5967 78.715 88.5945C78.3843 88.6038 78.0575 88.5213 77.7707 88.3561ZM13.5698 39.0319C13.385 39.1873 13.2418 39.3864 13.1531 39.6112C13.0644 39.836 13.0331 40.0794 13.0619 40.3194V47.8698C13.0757 48.5299 13.241 49.178 13.5452 49.7637C13.8493 50.3495 14.2841 50.8573 14.8157 51.2477L78.0961 87.8077C78.2307 87.9062 78.3887 87.9676 78.5545 87.9857C78.7202 88.0038 78.8877 87.9781 79.0404 87.911C79.2263 87.7582 79.3704 87.5606 79.4592 87.3368C79.5481 87.113 79.5787 86.8703 79.5483 86.6314V79.081C79.5282 78.4229 79.3574 77.7783 79.0492 77.1968C78.741 76.6153 78.3036 76.1124 77.7707 75.727L14.4983 39.167C14.3134 39.054 14.1035 38.9885 13.8872 38.9762C13.7785 38.9691 13.6697 38.9882 13.5698 39.0319Z" fill="#201600"/>
<path d="M90.8114 107.588L87.9473 109.311L88.2537 109.822L91.1178 108.099L90.8114 107.588Z" fill="#201600"/>
<path d="M12.7524 3.83432L9.8877 5.55615L10.194 6.06726L13.0587 4.34543L12.7524 3.83432Z" fill="#201600"/>
<path d="M90.7983 52.159L87.9336 53.8809L88.2399 54.392L91.1046 52.6701L90.7983 52.159Z" fill="#201600"/>
<path d="M53.6383 89.1666C53.7671 89.7073 54.0416 90.2021 54.4319 90.5972C54.4319 90.5972 53.7097 90.5098 53.6383 91.0741C53.5099 90.5333 53.2353 90.0384 52.8447 89.6435C52.8447 89.6435 52.8447 89.6435 52.8447 89.6435C52.8447 89.6435 53.5748 89.7309 53.6383 89.1746C53.6304 89.1507 53.6383 89.1587 53.6383 89.1666Z" fill="#201600"/>
<path d="M51.2653 87.7917C51.3909 88.3336 51.6659 88.8292 52.0588 89.2224C52.0588 89.2224 51.3287 89.1429 51.2653 89.6992C51.1376 89.1581 50.863 88.663 50.4717 88.2686C50.5828 88.2686 51.2097 88.3481 51.2653 87.7917Z" fill="#201600"/>
<path d="M48.8844 86.4247C49.0182 86.961 49.2921 87.452 49.678 87.8473C49.678 87.8473 48.9558 87.7678 48.8844 88.3242C48.7549 87.7839 48.4805 87.2892 48.0908 86.8936C48.0908 86.8936 48.8289 86.9731 48.8844 86.4167C48.8765 86.4088 48.8844 86.4088 48.8844 86.4247Z" fill="#201600"/>
<path d="M46.5123 85.0417C46.6394 85.5807 46.9142 86.0735 47.3059 86.4644C47.3059 86.4644 46.5758 86.3849 46.5123 86.9413C46.3822 86.4035 46.1078 85.9115 45.7188 85.5186C45.7188 85.5186 46.4488 85.5981 46.5123 85.0417C46.5044 85.0417 46.5123 85.0417 46.5123 85.0417Z" fill="#201600"/>
<path d="M44.1393 83.6747C44.2663 84.2137 44.5412 84.7064 44.9329 85.0974C44.8218 85.0974 44.2028 85.0179 44.1393 85.5742C44.0123 85.0352 43.7374 84.5425 43.3457 84.1516C43.4568 84.1516 44.0837 84.2311 44.1393 83.6747C44.1234 83.6588 44.1393 83.6668 44.1393 83.6747Z" fill="#201600"/>
<path d="M41.7584 82.2997C41.8913 82.8387 42.1652 83.3326 42.552 83.7303C42.552 83.7303 41.8298 83.6508 41.7584 84.2072C41.63 83.6664 41.3555 83.1715 40.9648 82.7766C40.9648 82.7766 41.6949 82.8561 41.7584 82.2997C41.7505 82.2838 41.7584 82.2918 41.7584 82.2997Z" fill="#201600"/>
<path d="M39.3854 80.9248C39.511 81.4667 39.786 81.9623 40.179 82.3554C40.179 82.3554 39.4489 82.2759 39.3854 82.8402C39.2601 82.2982 38.9851 81.8025 38.5918 81.4096C38.7029 81.4096 39.3298 81.4971 39.3854 80.9328C39.3695 80.9089 39.3854 80.9169 39.3854 80.9248Z" fill="#201600"/>
<path d="M37.0045 79.5498C37.1329 80.0906 37.4075 80.5856 37.7981 80.9804C37.687 80.9804 37.068 80.901 37.0045 81.4573C36.8793 80.9153 36.6043 80.4195 36.2109 80.0267C36.2109 80.0267 36.2109 80.0267 36.2109 80.0267C36.2109 80.0267 36.949 80.1141 37.0045 79.5498C36.9966 79.5339 37.0045 79.5419 37.0045 79.5498Z" fill="#201600"/>
<path d="M34.6315 78.1828C34.7585 78.7218 35.0334 79.2146 35.4251 79.6055C35.4251 79.6055 34.695 79.526 34.6315 80.0824C34.5008 79.5425 34.2266 79.0481 33.8379 78.6517C33.8379 78.6517 33.8379 78.6517 33.8379 78.6517C33.8379 78.6517 34.568 78.7392 34.6315 78.1828C34.6235 78.1669 34.6315 78.1669 34.6315 78.1828Z" fill="#201600"/>
<path d="M32.2594 76.8078C32.3864 77.3468 32.6613 77.8396 33.053 78.2305C33.053 78.2305 32.3229 78.151 32.2594 78.7074C32.1299 78.167 31.8555 77.6724 31.4658 77.2768C31.5769 77.2768 32.2039 77.3562 32.2594 76.7999C32.2435 76.7919 32.2594 76.792 32.2594 76.8078Z" fill="#201600"/>
<path d="M77.3981 102.908C77.5286 103.446 77.8029 103.938 78.1917 104.331C78.1917 104.331 77.4695 104.252 77.3981 104.808C77.2679 104.27 76.9935 103.778 76.6045 103.385C76.6045 103.385 77.3346 103.465 77.3981 102.908Z" fill="#201600"/>
<path d="M75.025 101.533C75.1521 102.072 75.4269 102.565 75.8186 102.956C75.8186 102.956 75.0885 102.877 75.025 103.433C74.8998 102.891 74.6248 102.395 74.2314 102.002C74.3425 102.002 74.9695 102.082 75.025 101.526C75.0092 101.518 75.025 101.526 75.025 101.533Z" fill="#201600"/>
<path d="M72.6442 100.143C72.7763 100.682 73.0503 101.176 73.4378 101.573C73.4378 101.573 72.7156 101.494 72.6442 102.058C72.5158 101.517 72.2412 101.022 71.8506 100.627C71.8506 100.627 71.8506 100.627 71.8506 100.627C71.8506 100.627 72.5807 100.715 72.6442 100.151C72.6362 100.143 72.6442 100.143 72.6442 100.143Z" fill="#201600"/>
<path d="M70.2721 98.7836C70.3978 99.3254 70.6727 99.8211 71.0657 100.214C71.0657 100.214 70.3356 100.127 70.2721 100.691C70.1464 100.149 69.8715 99.6536 69.4785 99.2605C69.4785 99.2605 69.4785 99.2605 69.4785 99.2605C69.4785 99.2605 70.2086 99.3479 70.2721 98.7836C70.2642 98.7677 70.2721 98.7756 70.2721 98.7836Z" fill="#201600"/>
<path d="M67.8991 97.4085C68.0247 97.9504 68.2997 98.446 68.6926 98.8392C68.5815 98.8392 67.9625 98.7597 67.8991 99.316C67.7714 98.7749 67.4968 98.2798 67.1055 97.8854C67.1055 97.8854 67.1055 97.8854 67.1055 97.8854C67.1055 97.8854 67.8435 97.9728 67.8991 97.4165C67.8832 97.4006 67.8911 97.4006 67.8991 97.4085Z" fill="#201600"/>
<path d="M65.5182 96.0416C65.6487 96.5792 65.9231 97.0711 66.3118 97.4643C66.3118 97.4643 65.5896 97.3848 65.5182 97.9411C65.3853 97.4021 65.1114 96.9083 64.7246 96.5105C64.7246 96.5105 65.4547 96.59 65.5182 96.0337C65.5103 96.0257 65.5182 96.0257 65.5182 96.0416Z" fill="#201600"/>
<path d="M63.1451 94.6665C63.2722 95.2055 63.547 95.6983 63.9387 96.0892C63.9387 96.0892 63.2086 96.0097 63.1451 96.5661C63.0181 96.0271 62.7433 95.5343 62.3516 95.1434C62.4627 95.1434 63.0896 95.2229 63.1451 94.6665C63.1293 94.6506 63.1451 94.6586 63.1451 94.6665Z" fill="#201600"/>
<path d="M60.7643 93.2916C60.8981 93.828 61.172 94.319 61.5579 94.7143C61.5579 94.7143 60.8357 94.6348 60.7643 95.1912C60.6342 94.6534 60.3597 94.1615 59.9707 93.7685C59.9707 93.7685 59.9707 93.7685 59.9707 93.7685C59.9707 93.7685 60.7008 93.848 60.7643 93.2916C60.7564 93.2758 60.7643 93.2837 60.7643 93.2916Z" fill="#201600"/>
<path d="M58.3922 91.9166C58.5198 92.4577 58.7945 92.9529 59.1858 93.3473C59.1858 93.3473 58.4557 93.2678 58.3922 93.8241C58.2666 93.2823 57.9916 92.7866 57.5986 92.3935C57.5986 92.3935 58.3287 92.4809 58.3922 91.9166C58.3843 91.9008 58.3922 91.9087 58.3922 91.9166Z" fill="#201600"/>
<path d="M56.0192 90.5416C56.1448 91.0835 56.4198 91.5791 56.8128 91.9722C56.7017 91.9722 56.0827 91.8928 56.0192 92.4571C55.8939 91.9151 55.6189 91.4193 55.2256 91.0264C55.2256 91.0264 55.9636 91.1139 56.0192 90.5496V90.5416Z" fill="#201600"/>
<path d="M53.6383 86.4088C53.7671 86.9495 54.0416 87.4443 54.4319 87.8394C54.4319 87.8394 53.7097 87.7599 53.6383 88.3242C53.5099 87.7835 53.2353 87.2885 52.8447 86.8936C52.8447 86.8936 52.8447 86.8936 52.8447 86.8936C52.8447 86.8936 53.5748 86.9811 53.6383 86.4168C53.6304 86.3929 53.6383 86.4009 53.6383 86.4088Z" fill="#201600"/>
<path d="M51.2653 85.0417C51.3909 85.5836 51.6659 86.0793 52.0588 86.4724C52.0588 86.4724 51.3287 86.3849 51.2653 86.9492C51.14 86.4072 50.865 85.9115 50.4717 85.5186C50.5828 85.5186 51.2097 85.606 51.2653 85.0417C51.2494 85.0417 51.2653 85.0417 51.2653 85.0417Z" fill="#201600"/>
<path d="M48.8844 83.6667C49.0182 84.2031 49.2921 84.6941 49.678 85.0894C49.678 85.0894 48.9558 85.002 48.8844 85.5663C48.7591 85.0243 48.4841 84.5285 48.0908 84.1357C48.0908 84.1357 48.8289 84.2151 48.8844 83.6588C48.8765 83.6508 48.8844 83.6508 48.8844 83.6667Z" fill="#201600"/>
<path d="M46.5123 82.2919C46.6394 82.8309 46.9142 83.3236 47.3059 83.7145C47.3059 83.7145 46.5758 83.6351 46.5123 84.1914C46.3841 83.6529 46.1094 83.1604 45.7188 82.7688C45.7188 82.7688 45.7188 82.7688 45.7188 82.7688C45.7188 82.7688 46.4488 82.8482 46.5123 82.2919C46.5044 82.276 46.5123 82.2839 46.5123 82.2919Z" fill="#201600"/>
<path d="M44.1393 80.9169C44.2663 81.4559 44.5412 81.9486 44.9329 82.3395C44.8218 82.3395 44.2028 82.2601 44.1393 82.8164C44.0123 82.2774 43.7374 81.7847 43.3457 81.3938C43.4568 81.3938 44.0837 81.4732 44.1393 80.9169C44.1234 80.901 44.1393 80.9089 44.1393 80.9169Z" fill="#201600"/>
<path d="M41.7584 79.5419C41.8889 80.0795 42.1633 80.5714 42.552 80.9646C42.552 80.9646 41.8298 80.8851 41.7584 81.4414C41.6283 80.9036 41.3539 80.4117 40.9648 80.0188C40.9648 80.0188 40.9648 80.0188 40.9648 80.0188C40.9648 80.0188 41.6949 80.0982 41.7584 79.5419C41.7505 79.526 41.7584 79.5339 41.7584 79.5419Z" fill="#201600"/>
<path d="M39.3854 78.1669C39.513 78.708 39.7877 79.2031 40.179 79.5975C40.179 79.5975 39.4489 79.518 39.3854 80.0744C39.2601 79.5324 38.9851 79.0366 38.5918 78.6438C38.7029 78.6438 39.3298 78.7312 39.3854 78.1669C39.3695 78.151 39.3854 78.1589 39.3854 78.1669Z" fill="#201600"/>
<path d="M37.0045 76.7919C37.1329 77.3327 37.4075 77.8276 37.7981 78.2225C37.687 78.2225 37.068 78.143 37.0045 78.7073C36.8793 78.1653 36.6043 77.6696 36.2109 77.2767C36.2109 77.2767 36.949 77.3641 37.0045 76.7998C36.9966 76.776 37.0045 76.7839 37.0045 76.7919Z" fill="#201600"/>
<path d="M34.6315 75.4169C34.7571 75.9587 35.0321 76.4544 35.4251 76.8475C35.4251 76.8475 34.695 76.7601 34.6315 77.3244C34.5031 76.7836 34.2285 76.2886 33.8379 75.8938C33.8379 75.8938 33.8379 75.8938 33.8379 75.8938C33.8379 75.8938 34.568 75.9812 34.6315 75.4169C34.6235 75.401 34.6315 75.4089 34.6315 75.4169Z" fill="#201600"/>
<path d="M32.2594 74.042C32.3851 74.5838 32.66 75.0795 33.053 75.4726C33.053 75.4726 32.3229 75.3931 32.2594 75.9495C32.1318 75.4084 31.8571 74.9132 31.4658 74.5189C31.5769 74.5189 32.2039 74.5983 32.2594 74.042Z" fill="#201600"/>
<path d="M77.3981 100.143C77.5286 100.68 77.8029 101.172 78.1917 101.565C78.1917 101.565 77.4695 101.486 77.3981 102.042C77.2652 101.503 76.9913 101.009 76.6045 100.612C76.6045 100.612 77.3346 100.691 77.3981 100.135C77.3901 100.143 77.3981 100.143 77.3981 100.143Z" fill="#201600"/>
<path d="M75.025 98.7757C75.1521 99.3147 75.4269 99.8074 75.8186 100.198C75.8186 100.198 75.0885 100.119 75.025 100.675C74.898 100.136 74.6231 99.6434 74.2314 99.2525C74.3425 99.2525 74.9695 99.332 75.025 98.7757C75.0092 98.7598 75.025 98.7677 75.025 98.7757Z" fill="#201600"/>
<path d="M72.6442 97.4007C72.778 97.937 73.0519 98.428 73.4378 98.8233C73.4378 98.8233 72.7156 98.7438 72.6442 99.3002C72.514 98.7624 72.2396 98.2705 71.8506 97.8775C71.8506 97.8775 71.8506 97.8775 71.8506 97.8775C71.8506 97.8775 72.5807 97.957 72.6442 97.4007C72.6362 97.3848 72.6442 97.3927 72.6442 97.4007Z" fill="#201600"/>
<path d="M70.2721 96.0256C70.3978 96.5675 70.6727 97.0631 71.0657 97.4563C71.0657 97.4563 70.3356 97.3768 70.2721 97.9411C70.1464 97.3992 69.8715 96.9036 69.4785 96.5105C69.4785 96.5105 70.2086 96.5979 70.2721 96.0336C70.2642 96.0098 70.2721 96.0177 70.2721 96.0256Z" fill="#201600"/>
<path d="M67.8991 94.6506C68.0247 95.1925 68.2997 95.6881 68.6926 96.0813C68.5815 96.0813 67.9625 96.0018 67.8991 96.5661C67.7738 96.0241 67.4988 95.5283 67.1055 95.1355C67.1055 95.1355 67.8435 95.2229 67.8991 94.6586C67.8832 94.6348 67.8911 94.6427 67.8991 94.6506Z" fill="#201600"/>
<path d="M65.5182 93.2757C65.647 93.8164 65.9215 94.3112 66.3118 94.7063C66.3118 94.7063 65.5896 94.6189 65.5182 95.1832C65.3875 94.6433 65.1133 94.1489 64.7246 93.7526C64.7246 93.7526 64.7246 93.7526 64.7246 93.7526C64.7246 93.7526 65.4547 93.84 65.5182 93.2837C65.5103 93.2678 65.5182 93.2678 65.5182 93.2757Z" fill="#201600"/>
<path d="M63.1451 91.9087C63.2722 92.4477 63.547 92.9404 63.9387 93.3313C63.9387 93.3313 63.2086 93.2519 63.1451 93.8082C63.0156 93.2679 62.7412 92.7732 62.3516 92.3776C62.4627 92.3776 63.0896 92.4571 63.1451 91.9007C63.1293 91.8928 63.1451 91.8928 63.1451 91.9087Z" fill="#201600"/>
<path d="M60.7643 90.5337C60.8981 91.07 61.172 91.5611 61.5579 91.9564C61.5579 91.9564 60.8357 91.8769 60.7643 92.4332C60.6342 91.8955 60.3597 91.4035 59.9707 91.0106C59.9707 91.0106 59.9707 91.0106 59.9707 91.0106C59.9707 91.0106 60.7008 91.0901 60.7643 90.5337C60.7564 90.5178 60.7643 90.5258 60.7643 90.5337Z" fill="#201600"/>
<path d="M58.3922 89.1587C58.5192 89.6977 58.7941 90.1905 59.1858 90.5814C59.1858 90.5814 58.4557 90.5019 58.3922 91.0582C58.2652 90.5192 57.9903 90.0265 57.5986 89.6356C57.5986 89.6356 57.5986 89.6356 57.5986 89.6356C57.5986 89.6356 58.3287 89.7151 58.3922 89.1587C58.3843 89.1428 58.3922 89.1508 58.3922 89.1587Z" fill="#201600"/>
<path d="M56.0192 87.7837C56.1442 88.3235 56.4193 88.8167 56.8128 89.2064C56.7017 89.2064 56.0827 89.1269 56.0192 89.6832C55.8939 89.1412 55.6189 88.6455 55.2256 88.2526C55.2256 88.2526 55.2256 88.2526 55.2256 88.2526C55.2256 88.2526 55.9636 88.3321 56.0192 87.7758V87.7837Z" fill="#201600"/>
<path d="M53.6383 83.6509C53.7665 84.1894 54.0412 84.6819 54.4319 85.0736C54.4319 85.0736 53.7097 84.9941 53.6383 85.5504C53.5099 85.0096 53.2353 84.5147 52.8447 84.1198C52.8447 84.1198 52.8447 84.1198 52.8447 84.1198C52.8447 84.1198 53.5748 84.2072 53.6383 83.6429C53.6304 83.635 53.6383 83.6429 53.6383 83.6509Z" fill="#201600"/>
<path d="M51.2653 82.2759C51.3909 82.8177 51.6659 83.3134 52.0588 83.7065C52.0588 83.7065 51.3287 83.627 51.2653 84.1913C51.14 83.6493 50.865 83.1536 50.4717 82.7607C50.5828 82.7607 51.2097 82.8481 51.2653 82.2838C51.2494 82.26 51.2653 82.2679 51.2653 82.2759Z" fill="#201600"/>
<path d="M48.8844 80.901C49.0165 81.4403 49.2906 81.9343 49.678 82.3316C49.678 82.3316 48.9558 82.2442 48.8844 82.8085C48.7591 82.2665 48.4841 81.7707 48.0908 81.3779C48.0908 81.3779 48.0908 81.3779 48.0908 81.3779C48.0908 81.3779 48.8289 81.4653 48.8844 80.901Z" fill="#201600"/>
<path d="M46.5123 79.526C46.638 80.0678 46.9129 80.5635 47.3059 80.9566C47.3059 80.9566 46.5758 80.8771 46.5123 81.4335C46.3817 80.8936 46.1074 80.3992 45.7188 80.0029C45.7188 80.0029 46.4488 80.0823 46.5123 79.526C46.5044 79.518 46.5123 79.518 46.5123 79.526Z" fill="#201600"/>
<path d="M44.1393 78.1589C44.2663 78.6979 44.5412 79.1907 44.9329 79.5816C44.8218 79.5816 44.2028 79.5021 44.1393 80.0584C44.0097 79.5181 43.7353 79.0235 43.3457 78.6278C43.4568 78.6278 44.0837 78.7073 44.1393 78.151C44.1234 78.143 44.1393 78.143 44.1393 78.1589Z" fill="#201600"/>
<path d="M41.7584 76.784C41.8889 77.3216 42.1633 77.8134 42.552 78.2066C42.552 78.2066 41.8298 78.1271 41.7584 78.6835C41.6283 78.1457 41.3539 77.6538 40.9648 77.2608C40.9648 77.2608 40.9648 77.2608 40.9648 77.2608C40.9648 77.2608 41.6949 77.3403 41.7584 76.784C41.7505 76.7681 41.7584 76.776 41.7584 76.784Z" fill="#201600"/>
<path d="M39.3854 75.409C39.5124 75.948 39.7873 76.4407 40.179 76.8316C40.179 76.8316 39.4489 76.7521 39.3854 77.3085C39.2583 76.7695 38.9835 76.2768 38.5918 75.8858C38.7029 75.8858 39.3298 75.9653 39.3854 75.409C39.3695 75.3931 39.3854 75.401 39.3854 75.409Z" fill="#201600"/>
<path d="M37.0045 74.0341C37.1352 74.574 37.4094 75.0683 37.7981 75.4647C37.687 75.4647 37.068 75.3852 37.0045 75.9495C36.8793 75.4075 36.6043 74.9117 36.2109 74.5189C36.2109 74.5189 36.949 74.5984 37.0045 74.042C36.9966 74.0182 37.0045 74.0261 37.0045 74.0341Z" fill="#201600"/>
<path d="M34.6315 72.6591C34.7571 73.2009 35.0321 73.6966 35.4251 74.0897C35.4251 74.0897 34.695 74.0102 34.6315 74.5745C34.5031 74.0337 34.2285 73.5388 33.8379 73.1439C33.8379 73.1439 33.8379 73.1439 33.8379 73.1439C33.8379 73.1439 34.568 73.2313 34.6315 72.667C34.6235 72.6432 34.6315 72.6511 34.6315 72.6591Z" fill="#201600"/>
<path d="M32.2594 71.2841C32.3851 71.8259 32.66 72.3216 33.053 72.7147C33.053 72.7147 32.3229 72.6272 32.2594 73.1915C32.1341 72.6495 31.8591 72.1538 31.4658 71.7609C31.5769 71.7609 32.2039 71.8484 32.2594 71.292C32.2435 71.2682 32.2594 71.2761 32.2594 71.2841Z" fill="#201600"/>
<path d="M77.3981 97.3847C77.5269 97.9254 77.8014 98.4202 78.1917 98.8154C78.1917 98.8154 77.4695 98.7359 77.3981 99.2922C77.2674 98.7523 76.9932 98.258 76.6045 97.8616C76.6045 97.8616 77.3346 97.9411 77.3981 97.3847C77.3901 97.3768 77.3981 97.3768 77.3981 97.3847Z" fill="#201600"/>
<path d="M75.025 96.0177C75.1521 96.5567 75.4269 97.0495 75.8186 97.4404C75.8186 97.4404 75.0885 97.3609 75.025 97.9172C74.898 97.3782 74.6231 96.8855 74.2314 96.4946C74.3425 96.4946 74.9695 96.5741 75.025 96.0177C75.0092 96.0018 75.025 96.0098 75.025 96.0177Z" fill="#201600"/>
<path d="M72.6442 94.6427C72.778 95.1791 73.0519 95.6701 73.4378 96.0654C73.4378 96.0654 72.7156 95.9859 72.6442 96.5423C72.514 96.0045 72.2396 95.5125 71.8506 95.1196C71.8506 95.1196 71.8506 95.1196 71.8506 95.1196C71.8506 95.1196 72.5807 95.1991 72.6442 94.6427C72.6362 94.6268 72.6442 94.6348 72.6442 94.6427Z" fill="#201600"/>
<path d="M70.2721 93.2677C70.3997 93.8088 70.6744 94.3039 71.0657 94.6983C71.0657 94.6983 70.3356 94.6188 70.2721 95.1752C70.1451 94.6362 69.8702 94.1434 69.4785 93.7525C69.4785 93.7525 69.4785 93.7525 69.4785 93.7525C69.4785 93.7525 70.2086 93.832 70.2721 93.2757C70.2642 93.2518 70.2721 93.2598 70.2721 93.2677Z" fill="#201600"/>
<path d="M67.8991 91.8928C68.0247 92.4347 68.2997 92.9303 68.6926 93.3234C68.5815 93.3234 67.9625 93.244 67.8991 93.8083C67.7738 93.2663 67.4988 92.7705 67.1055 92.3777C67.1055 92.3777 67.8435 92.4651 67.8991 91.9008C67.8832 91.8769 67.8911 91.8849 67.8991 91.8928Z" fill="#201600"/>
<path d="M65.5182 90.5178C65.647 91.0585 65.9215 91.5533 66.3118 91.9484C66.3118 91.9484 65.5896 91.861 65.5182 92.4253C65.3898 91.8845 65.1152 91.3896 64.7246 90.9947C64.7246 90.9947 65.4547 91.0821 65.5182 90.5178C65.5103 90.5019 65.5182 90.5099 65.5182 90.5178Z" fill="#201600"/>
<path d="M63.1451 89.1428C63.2708 89.6847 63.5458 90.1803 63.9387 90.5734C63.9387 90.5734 63.2086 90.494 63.1451 91.0503C63.0175 90.5092 62.7428 90.0141 62.3516 89.6197C62.4627 89.6197 63.0896 89.6992 63.1451 89.1428Z" fill="#201600"/>
<path d="M60.7643 87.7759C60.8981 88.3122 61.172 88.8032 61.5579 89.1985C61.5579 89.1985 60.8357 89.1191 60.7643 89.6754C60.6314 89.1364 60.3575 88.6425 59.9707 88.2448C59.9707 88.2448 59.9707 88.2448 59.9707 88.2448C59.9707 88.2448 60.7008 88.3243 60.7643 87.7679C60.7564 87.76 60.7643 87.76 60.7643 87.7759Z" fill="#201600"/>
<path d="M58.3922 86.4009C58.5192 86.9399 58.7941 87.4326 59.1858 87.8236C59.1858 87.8236 58.4557 87.7441 58.3922 88.3004C58.2652 87.7614 57.9903 87.2687 57.5986 86.8778C57.5986 86.8778 57.5986 86.8778 57.5986 86.8778C57.5986 86.8778 58.3287 86.9572 58.3922 86.4009C58.3843 86.385 58.3922 86.393 58.3922 86.4009Z" fill="#201600"/>
<path d="M56.0192 85.0417C56.1462 85.5807 56.4211 86.0735 56.8128 86.4644C56.7017 86.4644 56.0827 86.3849 56.0192 86.9413C55.8921 86.4023 55.6173 85.9095 55.2256 85.5186C55.2256 85.5186 55.9636 85.5981 56.0192 85.0417C56.0033 85.0417 56.0112 85.0417 56.0192 85.0417Z" fill="#201600"/>
<path d="M53.6383 80.893C53.7688 81.4306 54.0432 81.9225 54.4319 82.3156C54.4319 82.3156 53.7097 82.2361 53.6383 82.7925C53.5082 82.2547 53.2338 81.7628 52.8447 81.3698C52.8447 81.3698 53.5748 81.4493 53.6383 80.893C53.6304 80.8771 53.6383 80.885 53.6383 80.893Z" fill="#201600"/>
<path d="M51.2653 79.518C51.3948 80.0583 51.6692 80.5529 52.0588 80.9486C52.0588 80.9486 51.3287 80.8691 51.2653 81.4254C51.14 80.8834 50.865 80.3877 50.4717 79.9948C50.5828 79.9948 51.2097 80.0743 51.2653 79.518C51.2494 79.4782 51.2653 79.4782 51.2653 79.518Z" fill="#201600"/>
<path d="M48.8844 78.1431C49.0165 78.6824 49.2906 79.1764 49.678 79.5737C49.678 79.5737 48.9558 79.4942 48.8844 80.0585C48.7591 79.5165 48.4841 79.0207 48.0908 78.6279C48.0908 78.6279 48.0908 78.6279 48.0908 78.6279C48.0908 78.6279 48.8289 78.7153 48.8844 78.151C48.8765 78.1272 48.8844 78.1351 48.8844 78.1431Z" fill="#201600"/>
<path d="M46.5123 76.7681C46.638 77.3099 46.9129 77.8056 47.3059 78.1987C47.3059 78.1987 46.5758 78.1113 46.5123 78.6756C46.3839 78.1348 46.1094 77.6398 45.7188 77.245C45.7187 77.245 45.7188 77.245 45.7188 77.245C45.7188 77.245 46.4488 77.3324 46.5123 76.7681C46.5044 76.7522 46.5123 76.7601 46.5123 76.7681Z" fill="#201600"/>
<path d="M44.1393 75.4011C44.2663 75.9401 44.5412 76.4328 44.9329 76.8238C44.8218 76.8238 44.2028 76.7363 44.1393 77.3006C44.0117 76.7596 43.737 76.2644 43.3457 75.87C43.4568 75.87 44.0837 75.9495 44.1393 75.3932C44.1234 75.3852 44.1393 75.3852 44.1393 75.4011Z" fill="#201600"/>
<path d="M41.7584 74.0261C41.8889 74.5637 42.1633 75.0556 42.552 75.4488C42.552 75.4488 41.8298 75.3693 41.7584 75.9256C41.6256 75.3866 41.3516 74.8928 40.9648 74.495C40.9648 74.495 40.9648 74.495 40.9648 74.495C40.9648 74.495 41.6949 74.5745 41.7584 74.0182C41.7505 74.0102 41.7584 74.0102 41.7584 74.0261Z" fill="#201600"/>
<path d="M39.3854 72.651C39.5124 73.19 39.7873 73.6828 40.179 74.0737C40.179 74.0737 39.4489 73.9942 39.3854 74.5506C39.2583 74.0116 38.9835 73.5188 38.5918 73.1279C38.7029 73.1279 39.3298 73.2074 39.3854 72.651C39.3695 72.6351 39.3854 72.6431 39.3854 72.651Z" fill="#201600"/>
<path d="M37.0045 71.2761C37.1347 71.8139 37.4091 72.3059 37.7981 72.6988C37.687 72.6988 37.068 72.6193 37.0045 73.1757C36.8775 72.6367 36.6026 72.1439 36.2109 71.753C36.2109 71.753 36.949 71.8325 37.0045 71.2761C36.9966 71.2602 37.0045 71.2682 37.0045 71.2761Z" fill="#201600"/>
<path d="M34.6315 69.9409C34.7591 70.482 35.0338 70.9771 35.4251 71.3715C35.4251 71.3715 34.695 71.292 34.6315 71.8484C34.5031 71.3076 34.2285 70.8127 33.8379 70.4178C33.8379 70.4178 33.8379 70.4178 33.8379 70.4178C33.8379 70.4178 34.568 70.5052 34.6315 69.9409C34.6235 69.8853 34.6315 69.8932 34.6315 69.9409Z" fill="#201600"/>
<path d="M32.2594 68.5261C32.3851 69.068 32.66 69.5636 33.053 69.9567C33.053 69.9567 32.3229 69.8773 32.2594 70.4416C32.1341 69.8996 31.8591 69.4038 31.4658 69.011C31.5769 69.011 32.2039 69.0984 32.2594 68.5341C32.2435 68.5102 32.2594 68.5182 32.2594 68.5261Z" fill="#201600"/>
<path d="M29.8785 75.4329C30.0091 75.9705 30.2834 76.4624 30.6721 76.8555C30.6721 76.8555 29.95 76.7761 29.8785 77.3324C29.7484 76.7946 29.474 76.3027 29.085 75.9098C29.085 75.9098 29.085 75.9098 29.085 75.9098C29.085 75.9098 29.8151 75.9892 29.8785 75.4329C29.8706 75.417 29.8785 75.4249 29.8785 75.4329Z" fill="#201600"/>
<path d="M27.5055 74.0579C27.6325 74.5969 27.9074 75.0896 28.2991 75.4805C28.2991 75.4805 27.569 75.4011 27.5055 75.9574C27.3817 75.4172 27.1064 74.9236 26.7119 74.5348C26.831 74.5348 27.4499 74.6142 27.5055 74.0579C27.4976 74.042 27.5055 74.0499 27.5055 74.0579Z" fill="#201600"/>
<path d="M25.1325 72.6829C25.2581 73.2247 25.5331 73.7204 25.926 74.1135C25.8149 74.1135 25.1959 74.034 25.1325 74.5903C25.0072 74.0483 24.7322 73.5526 24.3389 73.1597C24.3389 73.1597 24.3389 73.1597 24.3389 73.1597C24.3389 73.1597 25.0769 73.2392 25.1325 72.6829Z" fill="#201600"/>
<path d="M22.7516 71.3079C22.8804 71.8485 23.1549 72.3433 23.5452 72.7385C23.5452 72.7385 22.823 72.659 22.7516 73.2233C22.6232 72.6825 22.3486 72.1876 21.958 71.7927C21.958 71.7927 21.958 71.7927 21.958 71.7927C21.958 71.7927 22.6881 71.8801 22.7516 71.3158C22.7437 71.292 22.7516 71.2999 22.7516 71.3079Z" fill="#201600"/>
<path d="M29.8785 72.6749C30.0091 73.2126 30.2834 73.7044 30.6721 74.0976C30.6721 74.0976 29.95 74.0181 29.8785 74.5744C29.7457 74.0354 29.4717 73.5416 29.085 73.1438C29.085 73.1438 29.085 73.1438 29.085 73.1438C29.085 73.1438 29.8151 73.2233 29.8785 72.667C29.8706 72.659 29.8785 72.659 29.8785 72.6749Z" fill="#201600"/>
<path d="M27.5055 71.2999C27.6325 71.8389 27.9074 72.3317 28.2991 72.7226C28.2991 72.7226 27.569 72.6431 27.5055 73.1995C27.3817 72.6592 27.1064 72.1656 26.7119 71.7768C26.831 71.7768 27.4499 71.8563 27.5055 71.2999C27.4976 71.2841 27.5055 71.292 27.5055 71.2999Z" fill="#201600"/>
<path d="M25.1325 69.9409C25.2595 70.4799 25.5343 70.9727 25.926 71.3636C25.8149 71.3636 25.1959 71.2841 25.1325 71.8404C25.0054 71.3014 24.7306 70.8087 24.3389 70.4178C24.3389 70.4178 25.0769 70.4973 25.1325 69.9409C25.1166 69.9409 25.1245 69.9409 25.1325 69.9409Z" fill="#201600"/>
<path d="M29.8785 69.9409C30.0073 70.4815 30.2818 70.9764 30.6721 71.3715C30.6721 71.3715 29.95 71.292 29.8785 71.8484C29.7479 71.3085 29.4736 70.8141 29.085 70.4178C29.085 70.4178 29.8151 70.4973 29.8785 69.9409Z" fill="#201600"/>
<path d="M27.5055 68.5421C27.6325 69.0811 27.9074 69.5739 28.2991 69.9648C28.2991 69.9648 27.569 69.8853 27.5055 70.4417C27.3817 69.9014 27.1064 69.4078 26.7119 69.019C26.831 69.019 27.4499 69.0985 27.5055 68.5421C27.4976 68.5262 27.5055 68.5342 27.5055 68.5421Z" fill="#201600"/>
<path d="M25.1325 67.1671C25.2595 67.7061 25.5343 68.1989 25.926 68.5898C25.8149 68.5898 25.1959 68.5103 25.1325 69.0667C25.0054 68.5277 24.7306 68.0349 24.3389 67.644C24.3389 67.644 25.0769 67.7235 25.1325 67.1671C25.1166 67.1512 25.1245 67.1592 25.1325 67.1671Z" fill="#201600"/>
<path d="M22.7516 65.7921C22.8821 66.3298 23.1565 66.8216 23.5452 67.2148C23.5452 67.2148 22.823 67.1353 22.7516 67.6917C22.6215 67.1539 22.347 66.6619 21.958 66.269C21.958 66.269 21.958 66.269 21.958 66.269C21.958 66.269 22.6881 66.3485 22.7516 65.7921C22.7437 65.7762 22.7516 65.7842 22.7516 65.7921Z" fill="#201600"/>
<path d="M29.8785 67.1511C30.0073 67.6918 30.2818 68.1866 30.6721 68.5817C30.6721 68.5817 29.95 68.4943 29.8785 69.0586C29.7501 68.5178 29.4756 68.0229 29.085 67.628C29.085 67.628 29.085 67.628 29.085 67.628C29.085 67.628 29.8151 67.7154 29.8785 67.1591C29.8706 67.1352 29.8785 67.1432 29.8785 67.1511Z" fill="#201600"/>
<path d="M27.5055 65.7842C27.6325 66.3232 27.9074 66.8159 28.2991 67.2068C28.2991 67.2068 27.569 67.1273 27.5055 67.6837C27.3811 67.1414 27.1059 66.6454 26.7119 66.2531C26.831 66.2531 27.4499 66.3326 27.5055 65.7762C27.4976 65.7683 27.5055 65.7683 27.5055 65.7842Z" fill="#201600"/>
<path d="M25.1325 64.3774C25.2595 64.9164 25.5343 65.4092 25.926 65.8001C25.8149 65.8001 25.1959 65.7206 25.1325 66.277C25.0054 65.738 24.7306 65.2452 24.3389 64.8543C24.3389 64.8543 24.3389 64.8543 24.3389 64.8543C24.3389 64.8543 25.0769 64.9338 25.1325 64.3774C25.1166 64.3774 25.1245 64.3774 25.1325 64.3774Z" fill="#201600"/>
<path d="M22.7516 63.0342C22.8821 63.5718 23.1565 64.0637 23.5452 64.4569C23.5452 64.4569 22.823 64.3774 22.7516 64.9337C22.6215 64.3959 22.347 63.904 21.958 63.5111C21.958 63.5111 22.6881 63.5905 22.7516 63.0342C22.7437 63.0183 22.7516 63.0263 22.7516 63.0342Z" fill="#201600"/>
<path d="M77.3981 94.6268C77.5269 95.1674 77.8014 95.6623 78.1917 96.0574C78.1917 96.0574 77.4695 95.9779 77.3981 96.5343C77.2697 95.9935 76.9951 95.4986 76.6045 95.1037C76.6045 95.1037 77.3346 95.1911 77.3981 94.6348C77.3901 94.6189 77.3981 94.6189 77.3981 94.6268Z" fill="#201600"/>
<path d="M75.025 93.2599C75.1521 93.7989 75.4269 94.2916 75.8186 94.6825C75.8186 94.6825 75.0885 94.6031 75.025 95.1594C74.8974 94.6183 74.6227 94.1232 74.2314 93.7288C74.3425 93.7288 74.9695 93.8083 75.025 93.2519C75.0092 93.244 75.025 93.244 75.025 93.2599Z" fill="#201600"/>
<path d="M72.6442 91.8848C72.778 92.4211 73.0519 92.9121 73.4378 93.3074C73.4378 93.3074 72.7156 93.228 72.6442 93.7843C72.514 93.2465 72.2396 92.7546 71.8506 92.3617C71.8506 92.3617 72.5807 92.4411 72.6442 91.8848C72.6362 91.8689 72.6442 91.8768 72.6442 91.8848Z" fill="#201600"/>
<path d="M70.2721 90.5099C70.3991 91.0489 70.674 91.5416 71.0657 91.9326C71.0657 91.9326 70.3356 91.8531 70.2721 92.4094C70.1451 91.8704 69.8702 91.3777 69.4785 90.9868C69.4785 90.9868 70.2086 91.0663 70.2721 90.5099C70.2642 90.494 70.2721 90.502 70.2721 90.5099Z" fill="#201600"/>
<path d="M67.8991 89.1349C68.0261 89.6739 68.3009 90.1666 68.6926 90.5576C68.5815 90.5576 67.9625 90.4781 67.8991 91.0424C67.772 90.5034 67.4972 90.0106 67.1055 89.6197C67.1055 89.6197 67.8435 89.6992 67.8991 89.1428C67.8832 89.119 67.8911 89.127 67.8991 89.1349Z" fill="#201600"/>
<path d="M65.5182 87.7599C65.647 88.3005 65.9215 88.7954 66.3118 89.1905C66.3118 89.1905 65.5896 89.111 65.5182 89.6753C65.3898 89.1346 65.1152 88.6396 64.7246 88.2447C64.7246 88.2447 65.4547 88.3321 65.5182 87.7678C65.5103 87.744 65.5182 87.752 65.5182 87.7599Z" fill="#201600"/>
<path d="M63.1451 86.3849C63.2708 86.9268 63.5458 87.4224 63.9387 87.8155C63.9387 87.8155 63.2086 87.7281 63.1451 88.2924C63.0199 87.7504 62.7449 87.2546 62.3516 86.8618C62.4627 86.8618 63.0896 86.9492 63.1451 86.3849C63.1293 86.369 63.1451 86.377 63.1451 86.3849Z" fill="#201600"/>
<path d="M60.7643 85.0418C60.8964 85.5811 61.1705 86.0751 61.5579 86.4724C61.5579 86.4724 60.8357 86.3929 60.7643 86.9492C60.6336 86.4093 60.3594 85.915 59.9707 85.5186C59.9707 85.5186 59.9707 85.5186 59.9707 85.5186C59.9707 85.5186 60.7008 85.5981 60.7643 85.0338V85.0418Z" fill="#201600"/>
<path d="M58.3922 83.6429C58.5192 84.1819 58.7941 84.6747 59.1858 85.0656C59.1858 85.0656 58.4557 84.9861 58.3922 85.5425C58.2627 85.0021 57.9883 84.5075 57.5986 84.1119C57.5986 84.1119 57.5986 84.1119 57.5986 84.1119C57.5986 84.1119 58.3287 84.1913 58.3922 83.635C58.3843 83.627 58.3922 83.627 58.3922 83.6429Z" fill="#201600"/>
<path d="M56.0192 82.268C56.1462 82.807 56.4211 83.2997 56.8128 83.6906C56.7017 83.6906 56.0827 83.6111 56.0192 84.1675C55.8921 83.6285 55.6173 83.1358 55.2256 82.7448C55.2256 82.7448 55.9636 82.8243 56.0192 82.268C56.0033 82.2521 56.0112 82.26 56.0192 82.268Z" fill="#201600"/>
<path d="M53.6383 36.3295C53.7671 36.8701 54.0416 37.3649 54.4319 37.7601C54.4319 37.7601 53.7097 37.6727 53.6383 38.2369C53.5099 37.6962 53.2353 37.2012 52.8447 36.8063C52.8447 36.8063 52.8447 36.8063 52.8447 36.8063C52.8447 36.8063 53.5748 36.8938 53.6383 36.3295Z" fill="#201600"/>
<path d="M51.2653 34.9705C51.3909 35.5123 51.6659 36.008 52.0588 36.4011C52.0588 36.4011 51.3287 36.3216 51.2653 36.8779C51.1376 36.3369 50.863 35.8417 50.4717 35.4473C50.5828 35.4473 51.2097 35.5348 51.2653 34.9784V34.9705Z" fill="#201600"/>
<path d="M48.8844 33.5875C49.0182 34.1238 49.2921 34.6149 49.678 35.0102C49.678 35.0102 48.9558 34.9307 48.8844 35.487C48.7549 34.9467 48.4805 34.4521 48.0908 34.0564C48.0908 34.0564 48.8289 34.1359 48.8844 33.5796C48.8765 33.5716 48.8844 33.5716 48.8844 33.5875Z" fill="#201600"/>
<path d="M46.5123 32.2125C46.6394 32.7515 46.9142 33.2443 47.3059 33.6352C47.3059 33.6352 46.5758 33.5557 46.5123 34.1121C46.3822 33.5743 46.1078 33.0823 45.7188 32.6894C45.7188 32.6894 46.4488 32.7689 46.5123 32.2125C46.5044 32.1967 46.5123 32.2046 46.5123 32.2125Z" fill="#201600"/>
<path d="M44.1393 30.8376C44.2663 31.3766 44.5412 31.8694 44.9329 32.2603C44.8218 32.2603 44.2028 32.1808 44.1393 32.7372C44.0123 32.1982 43.7374 31.7054 43.3457 31.3145C43.4568 31.3145 44.0837 31.394 44.1393 30.8376Z" fill="#201600"/>
<path d="M41.7584 29.4627C41.8889 30.0003 42.1633 30.4921 42.552 30.8853C42.552 30.8853 41.8298 30.8058 41.7584 31.3701C41.6283 30.8324 41.3539 30.3404 40.9648 29.9475C40.9648 29.9475 40.9648 29.9475 40.9648 29.9475C40.9648 29.9475 41.6949 30.0349 41.7584 29.4706C41.7505 29.4468 41.7584 29.4547 41.7584 29.4627Z" fill="#201600"/>
<path d="M39.3854 28.0877C39.511 28.6295 39.786 29.1252 40.179 29.5183C40.179 29.5183 39.4489 29.4388 39.3854 30.0031C39.2601 29.4611 38.9851 28.9653 38.5918 28.5725C38.7029 28.5725 39.3298 28.6599 39.3854 28.0956C39.3695 28.0718 39.3854 28.0797 39.3854 28.0877Z" fill="#201600"/>
<path d="M37.0045 26.7127C37.1329 27.2534 37.4075 27.7484 37.7981 28.1433C37.687 28.1433 37.068 28.0558 37.0045 28.6201C36.8793 28.0781 36.6043 27.5824 36.2109 27.1895C36.2109 27.1895 36.949 27.277 37.0045 26.7206C36.9966 26.6968 37.0045 26.7047 37.0045 26.7127Z" fill="#201600"/>
<path d="M34.6315 25.3376C34.7571 25.8795 35.0321 26.3751 35.4251 26.7683C35.4251 26.7683 34.695 26.6888 34.6315 27.2451C34.5008 26.7052 34.2266 26.2109 33.8379 25.8145C33.8379 25.8145 34.568 25.894 34.6315 25.3376Z" fill="#201600"/>
<path d="M32.2594 23.9707C32.3864 24.5097 32.6613 25.0024 33.053 25.3933C33.053 25.3933 32.3229 25.3139 32.2594 25.8702C32.1299 25.3299 31.8555 24.8352 31.4658 24.4396C31.5769 24.4396 32.2039 24.5191 32.2594 23.9627C32.2435 23.9548 32.2594 23.9548 32.2594 23.9707Z" fill="#201600"/>
<path d="M77.3981 50.0713C77.5286 50.6089 77.8029 51.1008 78.1917 51.4939C78.1917 51.4939 77.4695 51.4145 77.3981 51.9708C77.2679 51.433 76.9935 50.9411 76.6045 50.5482C76.6045 50.5482 77.3346 50.6276 77.3981 50.0713C77.3901 50.0713 77.3981 50.0713 77.3981 50.0713Z" fill="#201600"/>
<path d="M75.025 48.6963C75.15 49.2361 75.4252 49.7293 75.8186 50.119C75.8186 50.119 75.0885 50.0395 75.025 50.5958C74.8998 50.0538 74.6248 49.5581 74.2314 49.1652C74.3425 49.1652 74.9695 49.2447 75.025 48.6884C75.0092 48.6804 75.025 48.6884 75.025 48.6963Z" fill="#201600"/>
<path d="M72.6442 47.3214C72.7763 47.8607 73.0503 48.3547 73.4378 48.752C73.4378 48.752 72.7156 48.6725 72.6442 49.2289C72.5158 48.6881 72.2412 48.1932 71.8506 47.7983C71.8506 47.7983 72.5807 47.8857 72.6442 47.3214Z" fill="#201600"/>
<path d="M70.2721 45.9464C70.3978 46.4883 70.6727 46.9839 71.0657 47.377C71.0657 47.377 70.3356 47.2976 70.2721 47.8619C70.1464 47.32 69.8715 46.8243 69.4785 46.4312C69.4785 46.4312 70.2086 46.5187 70.2721 45.9544C70.2642 45.9305 70.2721 45.9385 70.2721 45.9464Z" fill="#201600"/>
<path d="M67.8991 44.5714C68.0247 45.1133 68.2997 45.6089 68.6926 46.002C68.5815 46.002 67.9625 45.9225 67.8991 46.4789C67.7738 45.9369 67.4988 45.4411 67.1055 45.0483C67.1055 45.0483 67.8435 45.1278 67.8991 44.5714Z" fill="#201600"/>
<path d="M65.5182 43.2045C65.6487 43.7421 65.9231 44.2339 66.3118 44.6271C66.3118 44.6271 65.5896 44.5476 65.5182 45.104C65.3875 44.5641 65.1133 44.0697 64.7246 43.6734C64.7246 43.6734 64.7246 43.6734 64.7246 43.6734C64.7246 43.6734 65.4547 43.7529 65.5182 43.1965C65.5103 43.1886 65.5182 43.1886 65.5182 43.2045Z" fill="#201600"/>
<path d="M63.1451 41.8294C63.2722 42.3684 63.547 42.8612 63.9387 43.2521C63.9387 43.2521 63.2086 43.1726 63.1451 43.729C63.0181 43.19 62.7433 42.6972 62.3516 42.3063C62.4627 42.3063 63.0896 42.3858 63.1451 41.8294C63.1293 41.8135 63.1451 41.8135 63.1451 41.8294Z" fill="#201600"/>
<path d="M60.7643 40.4545C60.8981 40.9908 61.172 41.4818 61.5579 41.8771C61.5579 41.8771 60.8357 41.7977 60.7643 42.354C60.6342 41.8162 60.3597 41.3243 59.9707 40.9313C59.9707 40.9313 60.7008 41.0108 60.7643 40.4545Z" fill="#201600"/>
<path d="M58.3922 39.0795C58.5198 39.6206 58.7945 40.1157 59.1858 40.5101C59.1858 40.5101 58.4557 40.4306 58.3922 40.987C58.2652 40.448 57.9903 39.9552 57.5986 39.5643C57.5986 39.5643 57.5986 39.5643 57.5986 39.5643C57.5986 39.5643 58.3287 39.6438 58.3922 39.0874C58.3843 39.0636 58.3922 39.0715 58.3922 39.0795Z" fill="#201600"/>
<path d="M56.0192 37.7045C56.1448 38.2463 56.4198 38.742 56.8128 39.1351C56.7017 39.1351 56.0827 39.0556 56.0192 39.6199C55.8939 39.0779 55.6189 38.5821 55.2256 38.1893C55.2256 38.1893 55.9636 38.2767 56.0192 37.7124V37.7045Z" fill="#201600"/>
<path d="M53.6383 33.5715C53.7671 34.1122 54.0416 34.607 54.4319 35.0022C54.4319 35.0022 53.7097 34.9227 53.6383 35.487C53.5099 34.9462 53.2353 34.4512 52.8447 34.0564C52.8447 34.0564 52.8447 34.0564 52.8447 34.0564C52.8447 34.0564 53.5748 34.1438 53.6383 33.5795C53.6304 33.5557 53.6383 33.5636 53.6383 33.5715Z" fill="#201600"/>
<path d="M51.2653 32.1967C51.3909 32.7385 51.6659 33.2342 52.0588 33.6273C52.0588 33.6273 51.3287 33.5478 51.2653 34.1121C51.14 33.5701 50.865 33.0744 50.4717 32.6815C50.5828 32.6815 51.2097 32.7689 51.2653 32.2126C51.2494 32.1808 51.2653 32.1887 51.2653 32.1967Z" fill="#201600"/>
<path d="M48.8844 30.8217C49.0165 31.361 49.2906 31.855 49.678 32.2523C49.678 32.2523 48.9558 32.1648 48.8844 32.7291C48.7568 32.1881 48.4821 31.6929 48.0908 31.2985C48.0908 31.2985 48.0908 31.2985 48.0908 31.2985C48.0908 31.2985 48.8289 31.386 48.8844 30.8296V30.8217Z" fill="#201600"/>
<path d="M46.5123 29.4547C46.6394 29.9937 46.9142 30.4864 47.3059 30.8773C47.3059 30.8773 46.5758 30.7979 46.5123 31.3542C46.3795 30.8152 46.1055 30.3214 45.7188 29.9236C45.7188 29.9236 45.7188 29.9236 45.7188 29.9236C45.7188 29.9236 46.4488 30.0031 46.5123 29.4467C46.5044 29.407 46.5123 29.407 46.5123 29.4547Z" fill="#201600"/>
<path d="M44.1393 28.0797C44.2663 28.6187 44.5412 29.1114 44.9329 29.5024C44.8218 29.5024 44.2028 29.4229 44.1393 29.9792C44.0123 29.4402 43.7374 28.9475 43.3457 28.5566C43.4568 28.5566 44.0837 28.6361 44.1393 28.0797Z" fill="#201600"/>
<path d="M41.7584 26.7047C41.8889 27.2424 42.1633 27.7342 42.552 28.1274C42.552 28.1274 41.8298 28.0479 41.7584 28.6043C41.6283 28.0665 41.3539 27.5745 40.9648 27.1816C40.9648 27.1816 41.6949 27.2611 41.7584 26.7047C41.7505 26.6888 41.7584 26.6968 41.7584 26.7047Z" fill="#201600"/>
<path d="M39.3854 25.3297C39.513 25.8708 39.7877 26.366 40.179 26.7603C40.179 26.7603 39.4489 26.6809 39.3854 27.2372C39.2601 26.6952 38.9851 26.1995 38.5918 25.8066C38.7029 25.8066 39.3298 25.8861 39.3854 25.3297C39.3854 25.3218 39.3695 25.3138 39.3854 25.3297Z" fill="#201600"/>
<path d="M37.0045 23.9547C37.1329 24.4955 37.4075 24.9905 37.7981 25.3853C37.687 25.3853 37.068 25.3059 37.0045 25.8701C36.8793 25.3282 36.6043 24.8324 36.2109 24.4395C36.2109 24.4395 36.2109 24.4395 36.2109 24.4395C36.2109 24.4395 36.949 24.527 37.0045 23.9627C36.9966 23.9388 37.0045 23.9468 37.0045 23.9547Z" fill="#201600"/>
<path d="M34.6315 22.5797C34.7571 23.1216 35.0321 23.6172 35.4251 24.0103C35.4251 24.0103 34.695 23.9229 34.6315 24.4872C34.5031 23.9464 34.2285 23.4515 33.8379 23.0566C33.8379 23.0566 33.8379 23.0566 33.8379 23.0566C33.8379 23.0566 34.568 23.144 34.6315 22.5797C34.6235 22.5638 34.6315 22.5718 34.6315 22.5797Z" fill="#201600"/>
<path d="M32.2594 21.2128C32.3864 21.7518 32.6613 22.2445 33.053 22.6354C33.053 22.6354 32.3229 22.5559 32.2594 23.1123C32.1318 22.5712 31.8571 22.0761 31.4658 21.6817C31.5769 21.6817 32.2039 21.7612 32.2594 21.2048C32.2435 21.1969 32.2594 21.1969 32.2594 21.2128Z" fill="#201600"/>
<path d="M77.3981 47.3134C77.5286 47.851 77.8029 48.3429 78.1917 48.736C78.1917 48.736 77.4695 48.6566 77.3981 49.2129C77.2679 48.6751 76.9935 48.1832 76.6045 47.7902C76.6045 47.7902 77.3346 47.8697 77.3981 47.3134C77.3901 47.2975 77.3981 47.3054 77.3981 47.3134Z" fill="#201600"/>
<path d="M75.025 45.9385C75.1521 46.4775 75.4269 46.9702 75.8186 47.3611C75.8186 47.3611 75.0885 47.2817 75.025 47.838C74.898 47.299 74.6231 46.8063 74.2314 46.4153C74.3425 46.4153 74.9695 46.4948 75.025 45.9385Z" fill="#201600"/>
<path d="M72.6442 44.5635C72.778 45.0998 73.0519 45.5909 73.4378 45.9862C73.4378 45.9862 72.7156 45.9067 72.6442 46.463C72.514 45.9252 72.2396 45.4333 71.8506 45.0404C71.8506 45.0404 71.8506 45.0404 71.8506 45.0404C71.8506 45.0404 72.5807 45.1198 72.6442 44.5635C72.6362 44.5476 72.6442 44.5556 72.6442 44.5635Z" fill="#201600"/>
<path d="M70.2721 43.1885C70.3978 43.7303 70.6727 44.226 71.0657 44.6191C71.0657 44.6191 70.3356 44.5396 70.2721 45.1039C70.1464 44.5621 69.8715 44.0664 69.4785 43.6733C69.4785 43.6733 70.2086 43.7528 70.2721 43.1964C70.2642 43.1726 70.2721 43.1805 70.2721 43.1885Z" fill="#201600"/>
<path d="M67.8991 41.8135C68.0247 42.3553 68.2997 42.851 68.6926 43.2441C68.5815 43.2441 67.9625 43.1567 67.8991 43.721C67.7738 43.179 67.4988 42.6832 67.1055 42.2903C67.1055 42.2903 67.8435 42.3778 67.8991 41.8135Z" fill="#201600"/>
<path d="M65.5182 40.4386C65.647 40.9792 65.9215 41.4741 66.3118 41.8692C66.3118 41.8692 65.5896 41.7897 65.5182 42.3461C65.3898 41.8053 65.1152 41.3103 64.7246 40.9154C64.7246 40.9154 64.7246 40.9154 64.7246 40.9154C64.7246 40.9154 65.4547 40.9949 65.5182 40.4386C65.5103 40.4306 65.5182 40.4306 65.5182 40.4386Z" fill="#201600"/>
<path d="M63.1451 39.0715C63.2722 39.6105 63.547 40.1033 63.9387 40.4942C63.9387 40.4942 63.2086 40.4147 63.1451 40.9711C63.0175 40.43 62.7428 39.9348 62.3516 39.5404C62.4627 39.5404 63.0896 39.6199 63.1451 39.0636C63.1293 39.0556 63.1451 39.0556 63.1451 39.0715Z" fill="#201600"/>
<path d="M60.7643 37.6966C60.8981 38.2329 61.172 38.7239 61.5579 39.1192C61.5579 39.1192 60.8357 39.0397 60.7643 39.5961C60.6342 39.0583 60.3597 38.5664 59.9707 38.1734C59.9707 38.1734 59.9707 38.1734 59.9707 38.1734C59.9707 38.1734 60.7008 38.2529 60.7643 37.6966C60.7564 37.6807 60.7643 37.6886 60.7643 37.6966Z" fill="#201600"/>
<path d="M58.3922 36.3216C58.5192 36.8606 58.7941 37.3533 59.1858 37.7442C59.1858 37.7442 58.4557 37.6647 58.3922 38.2211C58.2652 37.6821 57.9903 37.1893 57.5986 36.7984C57.5986 36.7984 57.5986 36.7984 57.5986 36.7984C57.5986 36.7984 58.3287 36.8779 58.3922 36.3216C58.3843 36.3057 58.3922 36.3136 58.3922 36.3216Z" fill="#201600"/>
<path d="M56.0192 34.9705C56.1487 35.5108 56.4231 36.0054 56.8128 36.4011C56.7017 36.4011 56.0827 36.3216 56.0192 36.8779C55.8939 36.3359 55.6189 35.8402 55.2256 35.4473C55.2256 35.4473 55.9636 35.5268 56.0192 34.9705Z" fill="#201600"/>
<path d="M29.8785 22.5956C30.0091 23.1332 30.2834 23.6251 30.6721 24.0183C30.6721 24.0183 29.95 23.9388 29.8785 24.4951C29.7484 23.9573 29.474 23.4654 29.085 23.0725C29.085 23.0725 29.8151 23.152 29.8785 22.5956C29.8706 22.5797 29.8785 22.5877 29.8785 22.5956Z" fill="#201600"/>
<path d="M27.5055 21.2207C27.6325 21.7597 27.9074 22.2525 28.2991 22.6434C28.2991 22.6434 27.569 22.5639 27.5055 23.1203C27.3817 22.58 27.1064 22.0864 26.7119 21.6976C26.831 21.6976 27.4499 21.7771 27.5055 21.2207C27.4976 21.2048 27.5055 21.2128 27.5055 21.2207Z" fill="#201600"/>
<path d="M25.1325 19.8695C25.2601 20.4106 25.5347 20.9057 25.926 21.3001C25.8149 21.3001 25.1959 21.2206 25.1325 21.777C25.0072 21.235 24.7322 20.7392 24.3389 20.3464C24.3389 20.3464 25.0769 20.4259 25.1325 19.8695C25.1166 19.8695 25.1245 19.8695 25.1325 19.8695Z" fill="#201600"/>
<path d="M22.7516 18.4707C22.8804 19.0113 23.1549 19.5062 23.5452 19.9013C23.5452 19.9013 22.823 19.8218 22.7516 20.3861C22.6232 19.8454 22.3486 19.3504 21.958 18.9555C21.958 18.9555 21.958 18.9555 21.958 18.9555C21.958 18.9555 22.6881 19.043 22.7516 18.4787C22.7437 18.4548 22.7516 18.4628 22.7516 18.4707Z" fill="#201600"/>
<path d="M29.8785 19.8696C30.0091 20.4072 30.2834 20.8991 30.6721 21.2922C30.6721 21.2922 29.95 21.2128 29.8785 21.7691C29.7484 21.2313 29.474 20.7394 29.085 20.3465C29.085 20.3465 29.085 20.3465 29.085 20.3465C29.085 20.3465 29.8151 20.4259 29.8785 19.8696C29.8706 19.8219 29.8785 19.8696 29.8785 19.8696Z" fill="#201600"/>
<path d="M27.5055 18.4628C27.6325 19.0018 27.9074 19.4945 28.2991 19.8855C28.2991 19.8855 27.569 19.806 27.5055 20.3623C27.3817 19.8221 27.1064 19.3285 26.7119 18.9397C26.831 18.9397 27.4499 19.0191 27.5055 18.4628C27.4976 18.4469 27.5055 18.4548 27.5055 18.4628Z" fill="#201600"/>
<path d="M25.1325 17.0878C25.2595 17.6268 25.5343 18.1195 25.926 18.5104C25.8149 18.5104 25.1959 18.431 25.1325 18.9873C25.0054 18.4483 24.7306 17.9556 24.3389 17.5646C24.3389 17.5646 24.3389 17.5646 24.3389 17.5646C24.3389 17.5646 25.0769 17.6441 25.1325 17.0878Z" fill="#201600"/>
<path d="M22.7516 15.7128C22.8804 16.2534 23.1549 16.7483 23.5452 17.1434C23.5452 17.1434 22.823 17.0639 22.7516 17.6282C22.6232 17.0874 22.3486 16.5925 21.958 16.1976C21.958 16.1976 21.958 16.1976 21.958 16.1976C21.958 16.1976 22.6881 16.2771 22.7516 15.7207C22.7437 15.6969 22.7516 15.7048 22.7516 15.7128Z" fill="#201600"/>
<path d="M21.1089 50.866V58.5118C21.1089 58.5675 21.0534 58.5595 21.0216 58.5118L19.6249 56.1275C19.6249 56.1275 19.5614 56.0719 19.5456 56.1275L18.4346 57.9158C18.4346 57.9158 18.3949 57.9158 18.3711 57.9158L17.5775 56.9859C17.5775 56.9859 17.5378 56.9143 17.5775 56.8905L18.6568 55.0784C18.6568 55.0784 18.6568 54.991 18.6091 54.9671L16.4347 53.7114C16.3871 53.7114 16.3633 53.608 16.4347 53.5921L21.1089 50.8024C21.1089 50.8024 21.1089 50.7707 21.1089 50.866Z" fill="#201600"/>
<path d="M20.8716 58.5597L19.5781 56.3581L18.5861 57.9477L18.5147 58.0351H18.4353C18.3989 58.0367 18.3627 58.0296 18.3296 58.0144C18.2964 57.9992 18.2674 57.9763 18.2448 57.9477L17.4513 57.0178C17.4136 56.9797 17.3894 56.9305 17.3822 56.8774C17.3751 56.8244 17.3854 56.7704 17.4116 56.7237L18.4353 54.999L16.3244 53.783C16.2838 53.7578 16.2501 53.7227 16.2265 53.681C16.203 53.6394 16.1902 53.5925 16.1895 53.5446V53.4095L20.951 50.58L21.07 50.5244L21.1573 50.58C21.1979 50.6053 21.2315 50.6404 21.2551 50.682C21.2787 50.7237 21.2914 50.7706 21.2922 50.8185V58.4643V58.6312H21.1652H21.1097C21.0672 58.6415 21.0228 58.6403 20.9809 58.6278C20.9391 58.6152 20.9014 58.5917 20.8716 58.5597ZM16.6021 53.5684L18.6496 54.7527C18.6817 54.7694 18.7097 54.7931 18.7317 54.8219C18.7536 54.8508 18.7689 54.8841 18.7765 54.9196C18.7883 54.9472 18.7944 54.9769 18.7944 55.007C18.7944 55.037 18.7883 55.0668 18.7765 55.0944L17.7449 56.8429L18.4115 57.6377L19.4273 56.0482L19.4987 55.9528H19.5939C19.6363 55.9543 19.6776 55.9669 19.7138 55.9892C19.75 56.0115 19.7797 56.0427 19.8003 56.0799L20.9351 58.0192V50.9854L16.6021 53.5684Z" fill="#201600"/>
<path d="M69.42 78.2673L69.1211 78.7827L74.5423 81.9363L74.8412 81.4209L69.42 78.2673Z" fill="#FF0000"/>
<path d="M75.5813 82.8243L70.1611 79.6451L75.5813 82.8243Z" fill="white"/>
<path d="M70.3091 79.4152L70.0107 79.931L75.4357 83.078L75.7341 82.5622L70.3091 79.4152Z" fill="#201600"/>
<path d="M47.2022 50.7627C46.5649 50.7133 45.9505 50.5027 45.4166 50.1507C44.5688 49.6551 43.8054 49.0273 43.1549 48.2909L43.1152 48.2433V45.9463L43.4168 46.2722C43.9406 46.8444 44.385 47.2975 44.7421 47.6154C45.0436 47.8871 45.3705 48.1293 45.7182 48.3386C46.1229 48.5691 46.3292 48.593 46.4245 48.5691C46.5197 48.5453 46.5911 48.5214 46.5911 48.1797C46.5873 48.0164 46.5466 47.856 46.4721 47.7108C46.3737 47.5029 46.254 47.3058 46.115 47.1226C45.9563 46.9001 45.615 46.5027 45.1151 45.9384C44.7117 45.4922 44.3454 45.0138 44.0199 44.5078C43.7767 44.1328 43.5796 43.7299 43.4327 43.3077C43.2834 42.8922 43.2082 42.4537 43.2105 42.0122C43.2105 41.1379 43.4803 40.5895 44.004 40.3749C44.3642 40.2867 44.7396 40.2809 45.1023 40.358C45.465 40.4351 45.8057 40.593 46.0991 40.82C46.5225 41.0672 46.9211 41.3547 47.2895 41.6784C47.6625 42.0122 48.0831 42.3937 48.464 42.8308L48.5433 42.9182L47.8688 44.5078L47.6863 44.325C47.3646 43.9744 47.0256 43.6402 46.6705 43.3236C46.4247 43.1103 46.159 42.9213 45.8769 42.7593C45.623 42.6083 45.4246 42.5526 45.3135 42.6003C45.2024 42.648 45.1627 42.6639 45.1627 42.958C45.1629 43.1088 45.1954 43.2578 45.2579 43.3951C45.3338 43.5805 45.4353 43.7544 45.5595 43.9117C45.7023 44.1104 46.0515 44.5237 46.5991 45.1436C47.1982 45.7824 47.7129 46.4956 48.1307 47.2657C48.4036 47.8281 48.5473 48.4445 48.5513 49.0698C48.5513 49.9679 48.2577 50.5243 47.6704 50.723C47.518 50.7646 47.3594 50.778 47.2022 50.7627ZM43.4644 48.1081C44.0737 48.8007 44.7922 49.3887 45.5912 49.8487C45.869 50.0632 46.1873 50.2189 46.527 50.3064C46.8667 50.3938 47.2206 50.4112 47.5672 50.3574C48.0037 50.2064 48.218 49.7772 48.218 49.0301C48.2122 48.457 48.0793 47.8924 47.8291 47.3769C47.4291 46.6223 46.93 45.9246 46.3451 45.3026C45.7975 44.6747 45.4404 44.2534 45.2897 44.0468C45.1528 43.8637 45.0358 43.6665 44.9405 43.4587C44.8685 43.2764 44.8309 43.0824 44.8294 42.8864C44.8103 42.7505 44.8345 42.612 44.8986 42.4907C44.9628 42.3694 45.0635 42.2715 45.1865 42.2109C45.3355 42.1692 45.4922 42.1634 45.6438 42.1938C45.7955 42.2241 45.9379 42.2899 46.0594 42.3857C46.3559 42.5597 46.635 42.762 46.8927 42.9897C47.1308 43.1964 47.4244 43.4746 47.7656 43.8322L48.1465 42.9818C47.7736 42.5924 47.4165 42.2427 47.0752 41.9406C46.7243 41.6385 46.3441 41.3723 45.9404 41.1459C45.6901 40.949 45.4001 40.8087 45.0906 40.7346C44.781 40.6605 44.4591 40.6544 44.1469 40.7167C43.7501 40.8756 43.5517 41.3128 43.5517 42.036C43.5525 42.4396 43.6223 42.8402 43.758 43.2202C43.9012 43.6158 44.0875 43.9943 44.3135 44.3488C44.631 44.8251 44.9838 45.2768 45.369 45.7C45.8848 46.2722 46.2261 46.6775 46.3927 46.908C46.5494 47.1094 46.6826 47.328 46.7895 47.5597C46.8809 47.751 46.9296 47.9598 46.9324 48.1717C46.9324 48.6804 46.7022 48.8473 46.5118 48.895C46.1678 48.9299 45.8231 48.8365 45.5436 48.6327C45.1745 48.4023 44.829 48.1361 44.5119 47.8379C44.2183 47.5756 43.8612 47.2259 43.4644 46.8047V48.1081Z" fill="white"/>
<path d="M54.6622 54.8798H54.4876C54.1582 54.8748 53.8315 54.8185 53.5194 54.7129C53.0951 54.5576 52.686 54.3633 52.2973 54.1327C51.3428 53.5817 50.5493 52.7897 49.9959 51.8358C49.433 50.872 49.1422 49.7731 49.1547 48.6566C49.1547 47.4247 49.4245 46.6379 49.9483 46.2723C50.472 45.9067 51.2656 45.9703 52.21 46.5187C53.0575 47.0078 53.7611 47.7124 54.2495 48.5613C54.7276 49.4156 54.9764 50.3795 54.9716 51.3589V52.5749L51.1386 50.3575C51.1889 50.7432 51.3128 51.1156 51.5037 51.4543C51.7582 51.8723 52.1163 52.2173 52.5433 52.4557C52.8555 52.6403 53.1885 52.787 53.5353 52.8928C53.8459 52.9934 54.1692 53.0495 54.4955 53.0597H54.6622V54.8798ZM52.4719 53.8307C52.8386 54.0522 53.2268 54.2359 53.6305 54.3791C53.852 54.4533 54.0808 54.504 54.313 54.5301V53.4094C54.0145 53.3887 53.7191 53.3354 53.4321 53.2505C53.0633 53.1324 52.7091 52.9724 52.3766 52.7736C51.9008 52.5123 51.5034 52.1281 51.2259 51.6609C50.9497 51.1761 50.7996 50.6295 50.7895 50.0714V49.7534L54.6622 51.9947V51.3748C54.6659 50.4464 54.425 49.5335 53.9638 48.7282C53.5079 47.9327 52.8475 47.274 52.0513 46.8207C51.2577 46.3438 50.599 46.2564 50.1546 46.5584C49.7102 46.8604 49.4801 47.5757 49.4801 48.6725C49.4702 49.7222 49.7444 50.7549 50.2736 51.6609C50.8025 52.5656 51.5609 53.3142 52.4719 53.8307ZM53.4718 50.437L50.8291 48.911V48.7997C50.8177 48.61 50.8488 48.4202 50.9202 48.2441C50.9916 48.0681 51.1015 47.9103 51.2418 47.7824C51.4958 47.5996 51.8291 47.6314 52.2417 47.8698C52.6334 48.0811 52.9559 48.4013 53.1702 48.7918C53.3925 49.2046 53.5097 49.6659 53.5115 50.1349L53.4718 50.437ZM51.1863 48.7202L53.0988 49.825C53.0651 49.5216 52.9735 49.2275 52.829 48.9587C52.6439 48.6246 52.3689 48.3493 52.0354 48.1639C51.7576 48.0049 51.5434 47.9731 51.4085 48.0685C51.3301 48.1569 51.27 48.2601 51.2319 48.372C51.1937 48.4839 51.1782 48.6023 51.1863 48.7202Z" fill="white"/>
<path d="M61.2646 59.1875L59.8044 58.345L59.5187 57.3515C59.2876 57.5172 59.0093 57.6037 58.7251 57.5979C58.2907 57.5434 57.875 57.3883 57.5109 57.1449C56.921 56.8072 56.4309 56.319 56.0904 55.7302C55.738 55.1245 55.5518 54.4363 55.5508 53.7353C55.5508 52.9405 55.8206 52.4398 56.3444 52.3285C57.1003 52.2903 57.8478 52.5026 58.4712 52.9325L59.2648 53.3538C59.2713 53.0595 59.1961 52.7692 59.0476 52.5152C58.899 52.2612 58.683 52.0535 58.4236 51.9152C57.9364 51.6449 57.3929 51.4925 56.8364 51.4701H56.7173L56.0666 49.5468H56.3444C57.1893 49.564 58.013 49.8142 58.7251 50.27C59.4886 50.6876 60.1415 51.2816 60.6297 52.0026C61.0779 52.6869 61.3127 53.4892 61.3043 54.3075L61.2646 59.1875ZM60.098 58.1145L60.8916 58.5914V54.2757C60.9111 53.5292 60.7095 52.7936 60.3123 52.1616C59.8477 51.5007 59.2366 50.9566 58.5267 50.572C57.9328 50.2012 57.2626 49.9703 56.5666 49.8965L56.9872 51.1443C57.5646 51.1835 58.126 51.3519 58.6299 51.637C58.9461 51.8 59.2099 52.0491 59.391 52.3556C59.5721 52.6621 59.6631 53.0136 59.6536 53.3697V53.9657L58.3521 53.2504C57.7961 52.8648 57.1316 52.6671 56.4555 52.6861C56.3285 52.6861 55.9317 52.7974 55.9317 53.7512C55.9245 54.3886 56.086 55.0166 56.3999 55.5712C56.7106 56.1089 57.1566 56.5556 57.6935 56.8667C58.0075 57.0592 58.3595 57.1812 58.7251 57.2244C58.9977 57.2268 59.2602 57.1211 59.4552 56.9303L59.5504 56.8508L59.7568 56.97L60.098 58.1145ZM58.86 56.358C58.6038 56.3434 58.3554 56.2641 58.1379 56.1276C57.8758 55.9972 57.6549 55.7968 57.4994 55.5485C57.344 55.3003 57.2601 55.0138 57.257 54.7208C57.257 54.1406 57.5189 53.9657 57.7411 53.926C58.1609 53.9064 58.5757 54.0235 58.9235 54.2598L59.6457 54.6493V55.3248C59.6709 55.5089 59.6433 55.6964 59.566 55.8653C59.4887 56.0342 59.3649 56.1776 59.2092 56.2786C59.1025 56.3372 58.9815 56.3648 58.86 56.358ZM57.9315 54.2519H57.8442C57.7966 54.2519 57.6379 54.2519 57.6379 54.7128C57.6398 54.9449 57.7071 55.1717 57.832 55.3672C57.957 55.5626 58.1345 55.7188 58.3442 55.8176C58.6616 56.003 58.9076 56.0507 59.0822 55.9607C59.2489 55.8732 59.3282 55.6507 59.3282 55.3089V54.84L58.7251 54.5618C58.4867 54.401 58.2157 54.2952 57.9315 54.2519Z" fill="white"/>
<path d="M64.5737 61.1028L62.5977 59.9584V52.6464L64.1848 53.5445L64.3991 54.681C64.5827 54.4978 64.8183 54.3757 65.0736 54.3313C65.4737 54.2765 65.8801 54.3697 66.2164 54.5936C66.4197 54.7074 66.6135 54.8377 66.7957 54.983L66.8671 55.0387L66.6608 57.1766L66.3989 56.9461C66.2596 56.8247 66.108 56.7181 65.9466 56.6282C65.4784 56.358 65.153 56.2785 64.8911 56.3898C64.6292 56.5011 64.5499 56.8031 64.5499 57.2799L64.5737 61.1028ZM62.9468 59.7597L64.2324 60.5068V57.2799C64.2324 56.66 64.407 56.2547 64.7641 56.0798C64.9969 56.0051 65.2444 55.9885 65.4851 56.0314C65.7257 56.0744 65.9523 56.1756 66.145 56.3262C66.2299 56.3745 66.312 56.4276 66.391 56.4852L66.4783 55.1976C66.3364 55.0842 66.1851 54.9831 66.0259 54.8956C65.7568 54.7175 65.4341 54.6388 65.1133 54.6731C64.982 54.6952 64.8569 54.7448 64.7461 54.8188C64.6353 54.8928 64.5414 54.9894 64.4705 55.1022L64.3832 55.2374L64.0896 55.0705L63.8515 53.767L62.9468 53.2504V59.7597Z" fill="white"/>
<path d="M71.7323 64.9973C71.5334 64.9955 71.3358 64.9661 71.145 64.9099C70.7777 64.7812 70.4241 64.6161 70.0895 64.4171C69.1607 63.8916 68.3981 63.1151 67.8887 62.1764C67.3794 61.2376 67.1438 60.1744 67.2088 59.1079C67.2088 57.8522 67.4866 57.0733 68.05 56.7236C68.6135 56.3739 69.4071 56.4693 70.4308 57.0415C71.1488 57.4626 71.7923 57.9997 72.3354 58.6311L72.4068 58.7106L71.7878 60.2365L71.5973 60.0458C71.3513 59.7756 71.1133 59.5451 70.8911 59.3384C70.6987 59.1576 70.4856 59.0002 70.2562 58.8695C69.9705 58.6947 69.7404 58.6549 69.5975 58.7423C69.4547 58.8298 69.2483 59.1397 69.2483 60.0696C69.2483 61.3731 69.6293 62.2235 70.4308 62.6845C70.6768 62.8375 70.9443 62.9527 71.2244 63.0262C71.465 63.078 71.7138 63.078 71.9545 63.0262L72.1608 62.9865V64.9576H72.0179L71.7323 64.9973ZM70.2641 64.1151C70.5731 64.3067 70.9033 64.4614 71.2482 64.5761C71.4345 64.6387 71.6315 64.663 71.8275 64.6476V63.3918C71.6045 63.4108 71.38 63.3974 71.1609 63.3521C70.8341 63.2719 70.5212 63.1433 70.2324 62.9706C69.7613 62.6554 69.3856 62.2167 69.1463 61.7023C68.907 61.188 68.8133 60.6178 68.8754 60.0537C68.8754 59.1636 69.0499 58.6311 69.3991 58.4642C69.5628 58.3916 69.7431 58.365 69.9207 58.3874C70.0983 58.4098 70.2664 58.4803 70.407 58.5913C70.6563 58.74 70.8902 58.913 71.1053 59.1079L71.645 59.6325L71.9862 58.8377C71.4812 58.2706 70.8892 57.7877 70.2324 57.4071C69.3515 56.8985 68.6452 56.7872 68.2405 57.0733C67.8358 57.3594 67.558 58.0747 67.558 59.1874C67.4964 60.192 67.7173 61.1937 68.1956 62.0788C68.674 62.9639 69.3906 63.6969 70.2641 64.1946V64.1151Z" fill="white"/>
<path d="M79.0809 69.4879L77.0969 68.3513V64.2025C77.1421 63.836 77.0843 63.464 76.9301 63.1285C76.7759 62.7929 76.5314 62.5071 76.224 62.303C75.6606 61.9772 75.5018 62.1679 75.4304 62.2315C75.359 62.2951 75.1606 62.7401 75.1606 63.6859V67.2386L73.1846 66.0941V56.064L75.1844 57.2243V59.2908C75.1844 59.4418 75.1844 59.7994 75.1844 60.3558V60.5863C75.5971 60.2922 76.1684 60.3478 76.8906 60.7691C77.587 61.153 78.1638 61.7224 78.5571 62.4143C78.9406 63.1126 79.1374 63.8984 79.1285 64.6953L79.0809 69.4879ZM77.4461 68.1447L78.7317 68.8918V64.6794C78.7441 63.941 78.5636 63.2122 78.208 62.5653C77.8397 61.9304 77.308 61.4061 76.6684 61.0473C75.6129 60.4353 75.2717 60.8724 75.1606 61.0473L75.0654 61.1585L74.7559 60.9837L74.8035 60.3399C74.8035 59.7994 74.8035 59.4497 74.8035 59.2987V57.4151L73.5179 56.668V65.8954L74.8035 66.6425V63.6859C74.7486 63.0955 74.882 62.5028 75.1844 61.993C75.3669 61.7785 75.724 61.6036 76.3986 61.993C76.7549 62.2316 77.0403 62.5621 77.2247 62.9495C77.409 63.337 77.4855 63.7672 77.4461 64.1946V68.1447Z" fill="white"/>
<path d="M49.44 50.5084C49.44 51.3032 49.1861 51.8277 48.6464 52.0026C48.2762 52.0649 47.8972 52.0504 47.5327 51.9602C47.1683 51.87 46.8262 51.7059 46.5276 51.478C45.694 50.9983 44.9458 50.3832 44.3135 49.658V47.8697C44.7342 48.3455 45.182 48.7966 45.6546 49.2208C45.9621 49.5028 46.2971 49.753 46.6545 49.9679C46.8959 50.1494 47.1948 50.2369 47.4957 50.2143C47.6862 50.1666 47.7814 49.9838 47.7814 49.6659C47.7811 49.4759 47.7377 49.2883 47.6545 49.1175C47.5527 48.8981 47.4277 48.6902 47.2815 48.4976C47.1148 48.275 46.7736 47.8777 46.2657 47.2975C45.8878 46.8686 45.5429 46.4116 45.234 45.9304C45.0026 45.5625 44.811 45.1708 44.6627 44.7621C44.517 44.3649 44.4418 43.9453 44.4404 43.5222C44.4404 42.7275 44.6785 42.2347 45.1467 42.0439C45.4831 41.9718 45.8311 41.9735 46.1667 42.049C46.5024 42.1245 46.8177 42.2719 47.091 42.4811C47.5052 42.725 47.8957 43.007 48.2576 43.3235C48.6226 43.6494 49.0512 44.0309 49.4162 44.4601L48.8766 45.6443C48.5499 45.2907 48.2056 44.9538 47.8449 44.6349C47.6002 44.4134 47.3344 44.2164 47.0513 44.0468C46.7418 43.864 46.4958 43.8084 46.3292 43.8878C46.1625 43.9673 46.0832 44.1263 46.0832 44.4045C46.084 44.5758 46.1163 44.7455 46.1784 44.9052C46.2688 45.0981 46.3777 45.2818 46.5038 45.4536C46.6545 45.6602 47.0037 46.0735 47.5592 46.6934C48.1486 47.3213 48.6529 48.0241 49.0591 48.7837C49.3137 49.3227 49.4438 49.9122 49.44 50.5084Z" fill="#201600"/>
<path d="M53.4401 55.46C52.5079 54.9349 51.7304 54.1728 51.1863 53.2505C50.6459 52.3172 50.3714 51.2534 50.3928 50.1747C50.3928 49.0143 50.6467 48.2672 51.1863 47.9175C51.726 47.5678 52.3767 47.6632 53.2655 48.1718C54.0883 48.6409 54.7686 49.3249 55.2336 50.1509C55.7097 50.9768 55.9564 51.9153 55.9478 52.869V53.783L52.0831 51.5497C52.0983 52.0738 52.2399 52.5864 52.4958 53.0439C52.7547 53.4954 53.1303 53.8687 53.583 54.1248C53.9046 54.3135 54.245 54.468 54.5988 54.5857C54.9268 54.6818 55.2652 54.7378 55.6066 54.7526V56.2071C55.2957 56.2052 54.9873 56.1515 54.694 56.0481C54.256 55.8982 53.8356 55.701 53.4401 55.46ZM53.21 49.4991C52.8608 49.3031 52.5963 49.2713 52.4164 49.4038C52.2994 49.5192 52.2084 49.6583 52.1495 49.8118C52.0907 49.9654 52.0653 50.1297 52.0752 50.2939L54.3686 51.6133C54.37 51.1746 54.2608 50.7427 54.0512 50.3575C53.8579 49.9972 53.5661 49.6995 53.21 49.4991Z" fill="#201600"/>
<path d="M61.0032 59.712L60.6937 58.5834H60.6461C60.5354 58.6955 60.4029 58.7837 60.2569 58.8425C60.1108 58.9013 59.9543 58.9294 59.7969 58.9252C59.3912 58.8746 59.0027 58.7304 58.6621 58.5039C58.0906 58.1746 57.6177 57.6978 57.2925 57.1234C56.9673 56.5489 56.8017 55.8977 56.813 55.2374C56.813 54.5062 57.0352 54.0929 57.4797 54.0055C58.1939 53.9766 58.8983 54.1802 59.4874 54.5857L60.527 55.15V54.84C60.5354 54.5138 60.4521 54.1917 60.2865 53.9107C60.1209 53.6296 59.8798 53.4008 59.5906 53.2504C59.0821 52.9625 58.515 52.794 57.932 52.7577L57.3924 51.1681C58.2063 51.1872 58.9994 51.4291 59.6858 51.8675C60.4213 52.2757 61.0516 52.8499 61.5269 53.5445C61.9556 54.2036 62.1793 54.9754 62.1697 55.7619V60.4035L61.0032 59.712ZM60.527 56.2229L59.8921 55.8891C59.5836 55.6723 59.2135 55.5608 58.8367 55.5712C58.5986 55.6189 58.4875 55.8255 58.4875 56.1991C58.4886 56.4619 58.5637 56.7191 58.704 56.9412C58.8444 57.1633 59.0444 57.3413 59.2811 57.4548C59.4067 57.555 59.556 57.6208 59.7146 57.6458C59.8732 57.6709 60.0355 57.6544 60.1858 57.5979C60.4159 57.4787 60.527 57.2164 60.527 56.8031V56.2229Z" fill="#201600"/>
<path d="M67.1685 56.2229C67.3603 56.3332 67.5433 56.4581 67.7161 56.5964L67.597 58.2972C67.4472 58.1678 67.285 58.0533 67.1129 57.9555C66.9433 57.8203 66.7437 57.7281 66.531 57.6866C66.3183 57.6451 66.0987 57.6556 65.8908 57.7171C65.6051 57.8601 65.4544 58.2098 65.4544 58.7662V62.2871L63.8672 61.3413V54.4187L65.1052 55.134L65.3432 56.4375L65.4226 56.4851C65.5096 56.348 65.6259 56.232 65.7632 56.1454C65.9004 56.0588 66.0551 56.0038 66.2162 55.9844C66.5511 55.9571 66.8858 56.0409 67.1685 56.2229Z" fill="#201600"/>
<path d="M71.2317 65.7444C70.328 65.2357 69.5863 64.4816 69.092 63.5689C68.5978 62.6563 68.3712 61.6223 68.4383 60.5863C68.4383 59.41 68.6923 58.6549 69.2319 58.3291C69.7715 58.0032 70.4619 58.1145 71.4063 58.6549C72.1105 59.0791 72.7405 59.6161 73.2712 60.2445L72.7871 61.4287C72.5332 61.1585 72.2951 60.9201 72.0729 60.7214C71.8705 60.5295 71.6469 60.3615 71.4063 60.2207C70.5572 59.7279 70.1366 60.2207 70.1366 61.5718C70.1366 62.9229 70.5572 63.8528 71.4063 64.3376C71.678 64.5014 71.9721 64.6245 72.2792 64.7033C72.5414 64.7539 72.8107 64.7539 73.0728 64.7033V66.2928C72.807 66.3334 72.5353 66.3116 72.2792 66.2292C71.9131 66.1072 71.5618 65.9446 71.2317 65.7444Z" fill="#201600"/>
<path d="M79.9618 70.6722L78.327 69.7264V65.6809C78.372 65.2836 78.306 64.8816 78.1365 64.5196C77.967 64.1576 77.7005 63.8498 77.3668 63.6304C76.9065 63.3681 76.5732 63.3522 76.3748 63.6304C76.1106 64.1155 76.0051 64.6715 76.0733 65.2199V68.4786L74.4385 67.4771V57.8444L76.0733 58.814V60.7771C76.0733 60.9281 76.0733 61.2778 76.0733 61.8342V62.3667L76.1605 62.4144C76.5256 61.9534 77.1049 61.9454 77.8906 62.4144C78.5556 62.7878 79.1048 63.3379 79.4777 64.0039C79.8495 64.6742 80.0384 65.4308 80.0253 66.1975L79.9618 70.6722Z" fill="#201600"/>
</g>
<defs>
<clipPath id="clip0">
<rect width="93" height="117" fill="white"/>
</clipPath>
</defs>
</svg>
