<svg width="402" height="258" viewBox="0 0 402 258" fill="none" xmlns="http://www.w3.org/2000/svg">
<path d="M213.333 121.714H399.969C401.091 121.714 402 122.625 402 123.749V126.801C402 127.926 401.091 128.837 399.969 128.837H213.333C212.211 128.837 211.302 127.926 211.302 126.801V123.749C211.302 122.625 212.211 121.714 213.333 121.714Z" fill="#D03434"/>
<path d="M165.278 26.2452C162.748 35.1826 168.925 44.3926 175.727 46.3274C182.529 48.2622 187.387 42.1902 189.917 33.2527C192.447 24.3153 188.979 15.5031 182.177 13.5683C175.375 11.6335 167.806 17.3102 165.278 26.2452Z" fill="#F09959"/>
<path d="M203.423 199.423C203.423 199.423 185.985 226.572 183.631 227.75C181.278 228.929 175.389 229.224 177.596 233.643C179.803 238.063 180.687 255.481 182.74 256.365C184.792 257.249 202.465 259.311 199.815 256.365C197.164 253.419 195.536 254.892 194.198 249.578C192.861 244.265 190.985 234.232 193.485 232.168C195.986 230.103 211.295 211.511 211.295 211.511L203.423 199.423Z" fill="#F09959"/>
<path d="M291.184 211.081C291.184 211.081 312.382 246.102 316.305 249.249C320.229 252.397 333.184 257.119 322.588 257.904C311.992 258.69 306.885 254.374 300.213 252.409C293.541 250.445 285.299 249.262 288.439 244.145C291.579 239.028 290.273 227.863 283.503 220.78C276.733 213.696 291.184 211.081 291.184 211.081Z" fill="#F09959"/>
<path d="M183.023 129.888C183.023 129.888 235.494 128.513 256.297 145.626C268.466 164.12 297.903 218.685 300.19 224.688C298.62 226.262 289.788 229.108 285.864 228.71C274.283 214.869 258.979 202.905 252.893 192.047C245.39 178.668 243.078 171.98 230.909 170.799C218.741 169.618 191.261 165.682 183.023 165.682C174.786 165.682 183.023 129.888 183.023 129.888Z" fill="#78818D"/>
<path d="M137.262 258H140.013L159.735 175.51H153.685L137.262 258Z" fill="#D03434"/>
<path d="M219.652 258H216.904L194.269 172.594H200.322L219.652 258Z" fill="#D03434"/>
<path d="M153.124 126.273L183.632 131.55C183.632 131.55 224.174 131.923 242.701 135.385C259.561 138.533 262.052 157.729 242.701 184.175C231.713 199.195 222.423 211.184 203.423 224.688C198.59 221.131 196.741 219.778 195.406 211.228C196.782 209.338 200.341 197.51 201.446 195.195C211.954 173.175 225.982 165.166 226.185 163C223.831 159.165 163.804 182.997 151.868 168.977C140.463 155.59 153.124 126.273 153.124 126.273Z" fill="#8D8989"/>
<path d="M151.857 57.0427C159.891 55.9108 168.075 57.4429 175.727 62.9969C182.416 69.8302 189.982 81.0977 189.519 99.6871C188.929 123.293 193.162 124.81 188.748 131.302C170.331 138.914 138.832 171.68 146.251 136.564C151.62 111.139 134.469 92.186 148.306 63.9791C149.432 61.6858 150.838 59.4588 151.857 57.0427Z" fill="#F37168"/>
<path d="M189.525 108.57C189.883 120.876 191.617 124.503 190.292 128.36C182.782 129.129 169.048 132.142 165.616 136.954C161.697 142.461 157.778 143.249 159.598 139.183C161.418 135.117 166.27 129.345 158.812 109.54C151.354 89.7353 147.822 76.3611 155.15 62.5916L189.525 108.57Z" fill="#D54A41"/>
<path d="M151.858 57.0426C156.806 45.3012 158.021 32.1111 158.021 32.1111L170.973 35.9463C170.973 35.9463 163.625 52.4708 170.679 58.3734C172.439 59.8277 174.124 61.3708 175.728 62.9968C168.083 57.4551 159.892 55.9107 151.858 57.0426Z" fill="#F09959"/>
<path d="M157.631 35.2367C158.397 34.5517 159.345 33.6972 160.367 32.8059L170.931 35.934L170.953 35.9905C170.708 36.5773 168.014 42.8654 167.654 48.9252C164.504 47.0101 161.058 43.8893 157.121 38.436C157.33 37.2255 157.499 36.1452 157.631 35.2367Z" fill="#E38540"/>
<path d="M160.965 60.7331C174.304 65.3983 172.825 79.4993 185.104 100.264C191.457 111.016 197.351 110.856 197.351 110.856C208.36 110.802 219.357 110.106 230.285 108.772C241.572 107.39 242.287 110.758 234.449 113.57C218.616 119.244 202.188 125.355 188.939 123.882C175.691 122.409 153.036 88.5251 151.868 79.7055C150.244 67.5221 154.246 58.3784 160.965 60.7331Z" fill="#F09959"/>
<path d="M167.837 178.948C168.665 178.948 169.515 178.937 170.387 178.916C181.26 178.646 188.66 177.138 194.607 175.928C201.551 174.514 205.384 173.733 209.827 175.867C210.644 176.233 211.571 176.264 212.411 175.955C213.25 175.645 213.936 175.019 214.322 174.209C214.707 173.4 214.762 172.472 214.474 171.623C214.186 170.774 213.579 170.071 212.781 169.664C206.256 166.541 200.796 167.653 193.238 169.193C187.555 170.352 180.484 171.791 170.213 172.046C158.721 172.333 151.713 170.624 148.169 166.676C145.004 163.158 144.078 157.248 145.256 148.077C145.658 144.937 146.06 142.327 146.417 140.021C147.419 133.524 148.081 129.217 147.26 122.588C146.498 116.425 144.463 108.215 139.748 92.2965C139.488 91.4226 138.892 90.688 138.092 90.2542C137.292 89.8205 136.353 89.7231 135.481 89.9836C134.609 90.2441 133.876 90.841 133.443 91.6432C133.011 92.4453 132.914 93.3869 133.173 94.2608C141.959 123.926 141.501 126.814 139.637 138.975C139.277 141.317 138.866 143.977 138.452 147.2C137.002 158.512 138.472 166.163 143.076 171.282C147.814 176.539 155.507 178.948 167.837 178.948Z" fill="#D03434"/>
<path d="M289.744 240.597C303.808 247.491 311.377 251.442 315.886 251.066C316.952 250.978 317.834 250.867 318.581 250.752C323.597 253.725 331.602 257.237 322.595 257.904C311.997 258.693 306.892 254.364 300.22 252.397C293.548 250.43 285.306 249.249 288.446 244.132C289.082 243.039 289.522 241.843 289.744 240.597Z" fill="#D54A41"/>
<path d="M182.098 228.327C182.441 239.489 183.972 250.551 190.784 252.635C192.366 253.136 194.037 253.286 195.683 253.075C196.753 254.401 198.061 254.415 199.815 256.37C202.465 259.316 184.802 257.256 182.74 256.37C180.678 255.483 179.801 238.075 177.596 233.648C175.784 230.017 179.433 229.17 182.098 228.327Z" fill="#D54A41"/>
<path d="M236.271 122.689H280.953C281.606 122.688 282.246 122.501 282.796 122.149C283.347 121.796 283.786 121.294 284.061 120.7L302.118 81.7458C302.489 80.921 302.52 79.9829 302.206 79.135C301.891 78.2871 301.255 77.5977 300.437 77.2164C299.619 76.8352 298.683 76.7927 297.834 77.0982C296.984 77.4037 296.289 78.0326 295.899 78.8485L278.753 115.814H236.271C235.362 115.814 234.489 116.176 233.846 116.821C233.203 117.465 232.842 118.339 232.842 119.251C232.842 120.163 233.203 121.037 233.846 121.682C234.489 122.326 235.362 122.689 236.271 122.689Z" fill="#8D8989"/>
<path d="M226.924 109.17C235.953 109.037 244.905 103.645 249.353 104.431C253.801 105.216 268.326 115.318 266.499 115.711C264.672 116.103 253.152 110.122 252.76 110.031C252.369 109.941 249.882 114.174 243.732 115.73C237.582 117.287 243.69 111.109 224.627 116.879C212.228 120.634 226.924 109.17 226.924 109.17Z" fill="#F09959"/>
<path d="M153.185 46.3274L151.857 57.0425C151.857 57.0425 163.541 57.7374 169.353 61.0177C175.166 64.298 183.746 73.7707 183.746 73.7707L176.738 61.6733L175.727 53.934L153.185 46.3274Z" fill="#F2E5DE"/>
<path d="M158.157 59.444C166.836 57.8137 170.85 65.6069 176.476 78.3305C182.103 91.0541 191.707 106.506 193.622 108.497C195.538 110.488 225.81 108.497 225.81 108.497C225.81 108.497 226.726 117.285 225.81 118.333C224.894 119.381 219.659 119.251 219.659 119.251C219.659 119.251 217.56 120.928 215.601 122.254C213.641 123.58 197.019 126.072 189.301 125.679C181.583 125.286 174.514 124.628 173.469 123.45C172.423 122.271 151.358 89.7405 150.047 78.0678C148.737 66.3951 153.729 60.2764 158.157 59.444Z" fill="#F2E5DE"/>
<path d="M183.746 5.92973C200.157 6.71789 197.583 31.4653 197.583 31.4653C197.583 31.4653 193.321 32.7863 184.393 31.3106C185.079 28.6539 184.785 21.8673 184.785 21.8673C184.785 21.8673 183.746 27.3747 182.428 30.7189C180.542 31.5881 178.406 30.8171 174.774 29.9381C172.91 37.7952 167.641 41.1246 164.033 42.2614C160.048 43.5186 155.83 45.0163 151.12 42.6543C146.41 40.2922 148.999 16.1611 151.5 11.3094C155.255 4.02438 161.493 -2.49701 172.288 0.947837C177.701 2.67394 183.746 5.92973 183.746 5.92973Z" fill="#303C60"/>
<path d="M155.208 35.3226L148.497 45.144C148.497 45.144 155.933 63.7702 134.307 72.2067C117.37 78.8165 119.366 90.4598 127.018 102.162C134.67 113.864 122.438 124.098 122.438 124.098C122.438 124.098 120.573 111.126 104.116 108.678C81.677 105.339 75.3233 75.1384 92.0821 60.0381C105.953 47.5428 110.171 57.8921 119.559 46.6786C128.948 35.465 146.669 43.0397 146.669 43.0397L153.165 33.5425L155.208 35.3226Z" fill="#303C60"/>
<path d="M84.3643 90.4698C84.4677 90.4698 84.5693 90.4428 84.6591 90.3914C84.749 90.3401 84.8239 90.2662 84.8766 90.1769C84.9292 90.0877 84.9578 89.9863 84.9595 89.8826C84.9611 89.779 84.9358 89.6767 84.886 89.5858C79.2524 79.2488 83.8499 66.7266 86.1646 63.3333C86.4095 62.9748 86.6545 62.609 86.8994 62.2235C89.1749 58.6632 92.0064 54.2338 107.114 51.5059C110.754 50.8504 113.701 48.6823 116.819 46.3865C123.261 41.6453 130.565 36.2705 146.43 43.5924C146.571 43.6415 146.725 43.636 146.862 43.5769C146.999 43.5178 147.109 43.4094 147.171 43.273C147.232 43.1366 147.24 42.9821 147.194 42.8399C147.147 42.6977 147.05 42.5781 146.919 42.5046C130.415 34.8931 122.81 40.4863 116.104 45.4216C113.098 47.6314 110.259 49.7209 106.894 50.3323C91.2716 53.151 88.2784 57.826 85.8854 61.5802C85.6404 61.9583 85.4151 62.3168 85.1799 62.6605C82.7526 66.2134 77.9297 79.3348 83.8401 90.1604C83.8916 90.2544 83.9676 90.3328 84.0598 90.3873C84.1521 90.4417 84.2572 90.4702 84.3643 90.4698Z" fill="#303C60"/>
<path d="M158.792 45.3895C159.959 45.3825 161.123 45.2881 162.275 45.1071C168.017 44.2453 175.72 40.9748 176.325 22.6064C176.322 22.4532 176.26 22.3072 176.153 22.1983C176.045 22.0894 175.9 22.0259 175.747 22.0208C175.595 22.0158 175.446 22.0696 175.331 22.1712C175.217 22.2728 175.146 22.4145 175.132 22.5671C174.887 30.1393 173.386 35.74 170.679 39.2167C168.622 41.8587 165.896 43.354 162.106 43.9261C156.794 44.7216 153.271 43.7395 151.64 41.0018C151.557 40.8685 151.426 40.7731 151.274 40.7361C151.122 40.6991 150.961 40.7234 150.826 40.8038C150.692 40.8842 150.594 41.0143 150.555 41.1662C150.515 41.318 150.536 41.4794 150.614 41.6156C152.103 44.1274 154.856 45.3895 158.792 45.3895Z" fill="#303C60"/>
<path d="M381.993 258H377.584L360.431 126.566H370.133L381.993 258Z" fill="#D03434"/>
<path d="M232.372 258H236.78L253.934 126.566H244.234L232.372 258Z" fill="#D03434"/>
<path d="M59.4565 147.055C51.8266 154.038 55.1455 161.019 60.784 173.986C66.4225 186.952 67.4121 234.831 67.4121 234.831L62.7583 234.166C62.7583 234.166 63.422 184.959 57.1247 171.658C50.8273 158.357 48.1697 151.711 42.5312 156.032C36.8927 160.354 59.4565 147.055 59.4565 147.055Z" fill="#74B570"/>
<path d="M63.6478 138.015C62.7195 133.878 57.2181 129.399 49.8626 125.601C50.955 131.705 54.4626 141.683 50.8424 143.731C45.9436 146.491 50.3525 132.559 48.4762 124.901C41.2184 121.389 33.5269 118.86 25.6038 117.38C25.6038 117.407 25.6234 117.434 25.6356 117.464C29.9466 128.437 35.5851 132.758 33.2631 134.42C31.5166 135.67 25.8267 122.998 18.3217 116.496C12.6881 116.194 7.91182 116.96 5.09501 119.197C0.732643 122.659 -2.19438 125.731 2.19249 136.272C4.69822 138.069 7.94367 139.356 11.7157 139.734C21.6676 140.731 26.3117 141.062 19.3456 144.399C15.9336 146.027 10.2167 144.306 5.58244 143.257C7.08637 146.037 8.93324 149.179 11.1793 152.759C12.5144 154.903 14.0745 156.898 15.8332 158.709C19.0394 159.322 21.8342 159.33 23.3161 158.694C27.9699 156.7 39.8985 150.383 42.8843 153.047C45.8064 155.652 20.7712 157.299 22.5053 163.916C34.6396 170.924 48.5253 167.599 50.982 161.154C54.2642 152.504 66.4328 150.471 63.6478 138.015Z" fill="#9CD499"/>
<path d="M38.561 185.29C51.827 175.316 65.426 184.627 72.3921 195.266C79.3582 205.905 74.3834 229.845 74.3834 229.845C74.3834 229.845 71.7283 229.845 71.7283 228.848C71.7283 227.851 79.025 200.584 61.7789 188.283C51.0015 180.588 43.2051 184.293 42.2082 187.952C41.2113 191.61 46.5216 198.264 46.5216 198.264L38.561 185.29Z" fill="#74B570"/>
<path d="M69.0752 164.788C55.8068 164.788 51.4959 185.413 55.1455 197.37C58.7951 209.328 63.7674 231.617 63.7674 231.617L67.0839 228.293C67.0839 228.293 54.4817 197.039 57.4651 183.075C60.4484 169.112 67.7526 166.782 69.0752 166.782C70.3979 166.782 69.0752 164.788 69.0752 164.788Z" fill="#9CD499"/>
<path d="M57.9476 197.463C57.0368 196.214 55.8386 195.203 54.4547 194.517C54.631 195.479 54.8616 196.43 55.1455 197.365C56.8062 202.819 58.7436 210.413 60.3603 217.064C60.5097 216.212 60.735 214.899 61.0951 212.873C61.1759 212.397 61.242 211.876 61.2861 211.326C59.9195 206.771 58.805 202.143 57.9476 197.463Z" fill="#74B570"/>
<path d="M54.3198 197.564C29.1131 186.925 42.3937 172.324 20.1704 181.966C18.6052 182.646 16.6971 184.357 14.7817 186.719C17.061 187.414 19.463 187.607 21.8237 187.286C28.4567 186.29 26.1347 191.608 15.1908 192.934C13.4473 193.111 11.7278 193.475 10.0617 194.019C4.85185 204.064 2.50288 217.273 13.5252 221.865C15.6978 222.769 18.3872 223.287 21.3779 223.481C24.7826 220.78 20.5476 205.066 25.7868 207.236C30.8277 209.316 24.207 220.694 25.1133 223.559C30.0904 223.468 35.5966 222.656 40.8604 221.349C42.9448 220.178 44.5345 218.609 45.0244 216.547C46.6826 209.566 35.7363 205.252 35.4056 199.259C35.0994 193.756 39.4177 211.363 50.8539 213.954C61.2173 209.109 66.1039 202.537 54.3198 197.564Z" fill="#9CD499"/>
<path d="M72.2821 178.749C69.6294 173.102 76.593 171.766 76.2623 176.09C75.9684 179.92 75.9366 189.231 79.8532 191.765C86.611 191.028 95.8061 188.3 102.757 184.153C102.846 183.559 102.744 182.952 102.466 182.42C99.4802 176.434 80.2426 171.447 86.2118 169.453C90.9685 167.864 99.2989 177.241 106.013 181.975C110.044 178.909 112.746 175.253 112.746 171.172C112.746 165.647 106.052 159.386 97.3933 156.405C93.4963 156.801 89.8761 158.934 84.2229 162.148C75.8704 166.892 77.8005 159.222 85.6925 154.667C78.8734 155.021 72.0763 157.942 67.0648 164.918C67.0648 164.918 67.5376 167.899 64.3901 172.51C55.8025 185.094 65.7128 192.438 77.5605 191.961C76.8992 188.627 74.1142 182.658 72.2821 178.749Z" fill="#9CD499"/>
<path d="M39.3595 184.728C32.8734 189.751 25.6673 195.627 16.825 199.617C7.98263 203.607 9.74865 216.61 9.74865 216.61C9.74865 216.61 8.42108 205.38 15.7913 201.537C23.1616 197.695 28.0383 193.113 33.6303 192.226C39.2223 191.34 42.3281 190.454 42.3281 190.454C42.3281 190.454 40.5597 186.908 41.5933 185.577C42.627 184.247 39.3595 184.728 39.3595 184.728Z" fill="#74B570"/>
<path d="M7.38763 125.726C31.1223 132.08 48.5179 147.301 51.7609 150.996C55.0039 154.692 55.0039 155.725 55.0039 155.725L52.4982 160.454L51.3176 159.862C51.3176 159.862 53.2355 155.873 48.2215 150.702C39.5776 141.781 29.0575 134.742 21.8342 131.638C14.6109 128.535 7.38763 125.726 7.38763 125.726Z" fill="#74B570"/>
<path d="M63.834 257.423H72.8967C75.9935 257.423 78.9634 256.19 81.1531 253.995C83.3428 251.8 84.573 248.823 84.573 245.718V224.833H52.1602L52.1602 245.718C52.1602 248.822 53.39 251.799 55.5792 253.994C57.7684 256.189 60.7376 257.422 63.834 257.423Z" fill="#8D8989"/>
<path d="M52.1603 228.568H84.5781V230.856H52.1603V228.568Z" fill="white"/>
<path d="M52.1603 232.74H84.5781V234.085H52.1603V232.74Z" fill="white"/>
</svg>
