<svg version="1.1" id="Layer_2" opacity=".5" xmlns="http://www.w3.org/2000/svg" x="0" y="0" viewBox="0 0 1188 318" xml:space="preserve"><style>.st0{fill:#fff}</style><g id="r"><path class="st0" d="M824 574c-49.1 0-96.8-9.6-141.7-28.6C639 527 600 500.7 566.6 467.2c-33.4-33.5-59.7-72.5-78-115.9-19-44.9-28.6-92.7-28.6-141.9s9.6-96.9 28.6-141.9c18.3-43.4 44.6-82.4 78-115.9 33.4-33.3 72.4-59.6 115.7-78 44.9-19 92.5-28.6 141.7-28.6s96.8 9.6 141.7 28.6c43.3 18.4 82.3 44.6 115.7 78.1 33.4 33.5 59.7 72.5 78 115.9 19 44.9 28.6 92.7 28.6 141.9s-9.6 96.9-28.6 141.9c-18.3 43.4-44.6 82.4-78 115.9S1009 527 965.7 545.4c-44.9 19-92.6 28.6-141.7 28.6zm0-727C624.4-153 462 9.6 462 209.5S624.4 572 824 572s362-162.6 362-362.5S1023.6-153 824-153z"/><path class="st0" d="M675.5 462c-49.2 0-96.9-9.6-141.9-28.6-43.4-18.3-82.4-44.5-115.9-77.9-33.5-33.4-59.8-72.3-78.1-115.5-19-44.8-28.6-92.4-28.6-141.5S320.6 1.8 339.6-43c18.4-43.3 44.6-82.2 78.1-115.5 33.5-33.4 72.5-59.6 115.9-77.9 44.9-19 92.7-28.6 141.9-28.6s96.9 9.6 141.9 28.6c43.4 18.3 82.4 44.5 115.9 77.9 33.5 33.4 59.8 72.3 78.1 115.5 19 44.8 28.6 92.4 28.6 141.5s-9.6 96.7-28.6 141.5c-18.4 43.3-44.6 82.2-78.1 115.5-33.5 33.4-72.5 59.6-115.9 77.9-45 19-92.7 28.6-141.9 28.6zm0-725C475.6-263 313-100.8 313 98.5S475.6 460 675.5 460 1038 297.8 1038 98.5 875.4-263 675.5-263z"/><path class="st0" d="M427.2 579c-57.2 0-112.7-11.3-165-33.4-50.5-21.4-95.8-52.1-134.7-91.2-39-39.1-69.5-84.6-90.9-135.3C14.5 266.7 3.3 210.9 3.3 153.5S14.5 40.3 36.6-12.1c21.3-50.7 51.9-96.2 90.8-135.3 38.9-39.1 84.3-69.8 134.7-91.2 52.3-22.2 107.8-33.4 165-33.4s112.7 11.3 165 33.4c50.5 21.4 95.8 52.1 134.7 91.2 38.9 39.1 69.5 84.6 90.8 135.3C839.8 40.3 851 96.1 851 153.5s-11.2 113.2-33.3 165.6c-21.3 50.7-51.9 96.2-90.8 135.3-38.9 39.1-84.3 69.8-134.7 91.2-52.3 22.2-107.8 33.4-165 33.4zm0-849C194.6-270 5.3-80 5.3 153.5S194.6 577 427.2 577 849 387 849 153.5 659.8-270 427.2-270z"/></g></svg>