<svg width="118" height="118" viewBox="0 0 118 118" fill="none" xmlns="http://www.w3.org/2000/svg">
<circle cx="59" cy="59" r="59" fill="#F8F8F8"/>
<path d="M31.0218 42.2909L23.1268 46.8681L22 59.9239L26.6629 62.8513L36.1344 56.8487L35.4574 42.8162L33.6561 43.1885L32.376 41.5413L31.0218 42.2909Z" fill="#FF0000"/>
<path d="M23.1268 46.8682L24.4809 49.4946L26.8111 48.1508L26.6629 62.8513L22 59.924L23.1268 46.8682Z" fill="#F1F1FF"/>
<path d="M26.8113 48.1507L35.4575 42.8162L36.1346 56.8486L26.6631 62.8512L26.8113 48.1507Z" fill="#E0E4FF"/>
<path d="M30.37 48.8444C30.3163 49.1938 30.1145 49.4538 29.9126 49.4233C29.7108 49.3927 29.5958 49.0841 29.6571 48.7348C29.7184 48.3854 29.9126 48.1279 30.1145 48.1585C30.3163 48.1891 30.4313 48.4951 30.37 48.8444Z" fill="#21212C"/>
<path d="M33.2059 47.0976C33.1523 47.4469 32.9504 47.707 32.7486 47.6764C32.5467 47.6458 32.4317 47.3373 32.4931 46.9879C32.5544 46.6386 32.7486 46.381 32.9504 46.4116C33.1523 46.4422 33.2596 46.7482 33.2059 47.0976Z" fill="#21212C"/>
<path d="M22 59.9241L24.4043 59.0291L26.6629 62.8515L22 59.9241Z" fill="#E0E4FF"/>
<path d="M32.3762 41.5413V44.7185L26.8113 48.1508L24.4811 49.4946L23.127 46.8681L31.7936 41.8626" fill="#FF0000"/>
<path d="M31.4942 52.1977C31.3187 52.1963 31.1477 52.1421 31.0036 52.0421C30.0532 51.3995 29.8948 48.9031 29.8896 48.7986L30.1324 48.7833C30.1324 48.8088 30.2882 51.2669 31.1544 51.8432C31.2401 51.903 31.3393 51.9408 31.4431 51.9533C31.5469 51.9657 31.6522 51.9525 31.7497 51.9146C32.9404 51.5194 32.8663 48.2758 32.7385 47.0697L32.9787 47.0442C32.9991 47.2303 33.4437 51.6163 31.8264 52.1441C31.7193 52.1798 31.6071 52.1979 31.4942 52.1977Z" fill="#21212C"/>
<path d="M38.0892 46.0113L30.1967 50.5885L29.0674 63.6443L33.7303 66.5716L43.2018 60.5665L42.5247 46.5366L40.7234 46.9089L39.4434 45.259L38.0892 46.0113Z" fill="#FF0000"/>
<path d="M30.1967 50.5886L31.5483 53.2151L33.8785 51.8687L33.7303 66.5718L29.0674 63.6444L30.1967 50.5886Z" fill="#F1F1FF"/>
<path d="M33.8787 51.8686L42.5249 46.5366L43.202 60.5665L33.7305 66.5717L33.8787 51.8686Z" fill="#E0E4FF"/>
<path d="M37.4374 52.5647C37.3837 52.9141 37.1819 53.1716 36.98 53.141C36.7782 53.1104 36.6632 52.8044 36.7245 52.4551C36.7858 52.1057 36.98 51.8456 37.1819 51.8762C37.3837 51.9068 37.491 52.2154 37.4374 52.5647Z" fill="#21212C"/>
<path d="M40.2733 50.8181C40.2196 51.1675 40.0178 51.425 39.8159 51.3944C39.6141 51.3638 39.4991 51.0578 39.5604 50.7085C39.6218 50.3591 39.8159 50.099 40.0178 50.1296C40.2196 50.1602 40.327 50.4688 40.2733 50.8181Z" fill="#21212C"/>
<path d="M29.0674 63.6444L31.4717 62.7468L33.7303 66.5718L29.0674 63.6444Z" fill="#E0E4FF"/>
<path d="M39.443 45.259V48.4363L33.8781 51.8685L31.5479 53.2149L30.1963 50.5885L38.8604 45.5829" fill="#FF0000"/>
<path d="M38.5616 55.9154C38.3859 55.9152 38.2146 55.8608 38.071 55.7598C37.1206 55.1198 36.9621 52.6234 36.957 52.5163H37.2125C37.2125 52.5392 37.3684 54.9974 38.2218 55.5762C38.3079 55.6352 38.4071 55.6723 38.5109 55.6843C38.6146 55.6963 38.7197 55.6829 38.8171 55.6451C40.0077 55.2498 39.9336 52.0063 39.8059 50.8002L40.0614 50.7747C40.0793 50.9608 40.5239 55.3493 38.9065 55.8746C38.7947 55.9077 38.6781 55.9215 38.5616 55.9154Z" fill="#21212C"/>
<path d="M84.1787 30.0869L86.2764 79.1787L69.8373 89.501L36.4277 68.3286L38.8141 16.4981L45.1685 17.8114L49.6858 12L84.1787 30.0869Z" fill="#AD0000"/>
<path d="M84.1793 30.0869L79.1714 36.3037L71.1844 34.608L69.8379 89.501L86.277 79.1788L84.1793 30.0869Z" fill="#E0E4FF"/>
<path d="M71.1838 34.6079L38.8141 16.498L36.4277 68.3286L69.8373 89.5009L71.1838 34.6079Z" fill="#EFF2FF"/>
<path d="M56.9529 31.5811C57.0245 32.0911 57.3183 32.4863 57.6147 32.4455C57.9111 32.4047 58.0899 31.9534 58.021 31.4256C57.952 30.8977 57.653 30.5203 57.3592 30.5611C57.0654 30.6019 56.8814 31.0635 56.9529 31.5811Z" fill="#FF0000"/>
<path d="M48.2013 25.9814C48.2728 26.4914 48.5667 26.879 48.8579 26.8407C49.1492 26.8025 49.3306 26.3512 49.2616 25.8386C49.1927 25.3261 48.8988 24.9385 48.605 24.9767C48.3112 25.015 48.1323 25.4663 48.2013 25.9814Z" fill="#FF0000"/>
<path opacity="0.6" d="M86.277 79.1787L77.7994 76.0142L69.8379 89.5009L86.277 79.1787Z" fill="#F0F0FF"/>
<path d="M52.6778 41.8473C53.2237 41.8531 53.7583 41.693 54.2109 41.3883C56.8655 39.662 57.6627 33.361 57.8262 31.7138C57.8315 31.6637 57.8266 31.6131 57.8119 31.565C57.7971 31.5168 57.7728 31.4722 57.7403 31.4336C57.7079 31.3951 57.668 31.3634 57.6231 31.3406C57.5781 31.3177 57.5291 31.3042 57.4787 31.3007C57.3817 31.2942 57.2858 31.3252 57.2111 31.3875C57.1364 31.4497 57.0886 31.5382 57.0776 31.6347C56.9166 33.1902 56.1476 39.226 53.8021 40.7534C53.5301 40.9341 53.218 41.0457 52.8929 41.0786C52.5679 41.1115 52.2397 41.0646 51.9369 40.9421C48.3598 39.685 48.6153 30.1481 49.0701 26.1141C49.0809 26.0153 49.052 25.9164 48.9897 25.8389C48.9274 25.7615 48.8369 25.7119 48.738 25.701C48.689 25.6945 48.6392 25.6978 48.5915 25.7106C48.5437 25.7234 48.499 25.7455 48.4598 25.7756C48.4207 25.8056 48.3878 25.8431 48.3632 25.8859C48.3386 25.9287 48.3227 25.9759 48.3164 26.0248C48.0609 28.3453 47.0747 40.0266 51.6839 41.6484C52.0026 41.7669 52.3381 41.8341 52.6778 41.8473Z" fill="#AD0000"/>
<path d="M49.6865 12V22.5798L71.1846 34.608L79.1716 36.3037L84.1795 30.0869L49.6865 12Z" fill="#FF0000"/>
<path d="M44.4326 72.9594V52.0574L58.659 60.3167V81.9327L44.4326 72.9594Z" fill="#FF0000"/>
<path d="M44.668 72.9594V52.0574L49.8394 55.0587V76.2208L44.668 72.9594Z" fill="#FF0000"/>
<path d="M49.8396 76.2208L49.6045 76.3202V54.9771H49.86L49.7322 55.5814L49.8396 76.2208Z" fill="#FF0000"/>
<path d="M44.4326 72.9594V52.0574L49.604 55.0587V76.2208L44.4326 72.9594Z" fill="#F0F0FF"/>
<path d="M53.498 78.6764V57.3179L58.6694 60.3217L58.6592 81.9326L53.498 78.6764Z" fill="#F0F0FF"/>
<path d="M43.9736 51.2412V73.2193L59.1403 82.7817V60.0488L43.9736 51.2412ZM58.6702 81.9325L44.4335 72.9592V52.0495L58.66 60.3114L58.6702 81.9325Z" fill="#AD0000"/>
<path d="M44.4326 71.9827L49.604 67.7217V66.6609L44.4326 70.9321V71.9827Z" fill="#FF0000"/>
<path d="M44.4326 65.7454L49.604 61.4844V61.1274L44.4326 65.3961V65.7454Z" fill="#FF0000"/>
<path d="M44.4326 64.032L49.604 59.771V58.7102L44.4326 62.9814V64.032Z" fill="#FF0000"/>
<path d="M44.4326 57.1547L48.0608 54.1636L47.3096 53.7275L44.4326 56.1016V57.1547Z" fill="#FF0000"/>
<path d="M53.498 75.2975L58.6643 71.1742V70.116L53.498 74.2469V75.2975Z" fill="#FF0000"/>
<path d="M53.498 71.1335L58.6669 66.8317V66.4773L53.498 70.7842V71.1335Z" fill="#FF0000"/>
<path d="M53.498 63.4659L57.8723 59.8602L57.1211 59.4216L53.498 62.4127V63.4659Z" fill="#FF0000"/>
<path d="M39.1924 42.625L35.4033 46.2077L37.3043 47.2889L41.0857 43.7087L39.1924 42.625Z" fill="#D36397"/>
<path d="M41.0909 43.7063L37.3018 47.289L39.2001 48.3727L42.9841 44.7926L41.0909 43.7063Z" fill="white"/>
<path d="M42.9844 44.79L39.1953 48.3727L41.0937 49.4565L44.8777 45.8738L42.9844 44.79Z" fill="#D36397"/>
<path d="M44.878 45.8738L41.0889 49.4565L42.9898 50.5377L46.7713 46.9575L44.878 45.8738Z" fill="white"/>
<path d="M46.7709 46.9548L42.9844 50.5375L44.8828 51.6213L48.6668 48.0411L46.7709 46.9548Z" fill="#D36397"/>
<path d="M48.6661 48.0386L44.877 51.6213L46.7753 52.705L50.5593 49.1223L48.6661 48.0386Z" fill="white"/>
<path d="M50.5596 49.1223L46.7705 52.705L48.6715 53.7862L52.4555 50.206L50.5596 49.1223Z" fill="#D36397"/>
<path d="M52.4561 50.2034L48.667 53.7886L50.5654 54.8698L54.3494 51.2897L52.4561 50.2034Z" fill="white"/>
<path d="M54.3487 51.2874L50.5596 54.87L52.458 55.9538L56.242 52.3736L54.3487 51.2874Z" fill="#D36397"/>
<path d="M56.2422 52.3708L52.4531 55.9535L54.3541 57.0373L58.1381 53.4546L56.2422 52.3708Z" fill="white"/>
<path d="M58.1377 53.4546L54.3486 57.0373L56.247 58.1185L60.031 54.5383L58.1377 53.4546Z" fill="#D36397"/>
<path d="M60.0313 54.5359L56.2422 58.1186L58.1406 59.2023L61.9246 55.6222L60.0313 54.5359Z" fill="white"/>
<path d="M61.9252 55.6196L58.1387 59.2023L60.0371 60.2861L63.8211 56.7034L61.9252 55.6196Z" fill="#D36397"/>
<path d="M63.8204 56.7034L60.0312 60.2861L61.9296 61.3673L65.7136 57.7871L63.8204 56.7034Z" fill="white"/>
<path d="M65.7139 57.7871L61.9248 61.3673L63.8232 62.451L67.6072 58.8708L65.7139 57.7871Z" fill="#D36397"/>
<path d="M67.6079 58.8684L63.8213 62.4511L65.7197 63.5348L69.5037 59.9547L67.6079 58.8684Z" fill="white"/>
<path d="M35.4033 46.2078C35.4033 46.2078 35.4544 47.2023 36.1392 47.6077C36.2325 47.6766 36.3403 47.7235 36.4545 47.7447C36.5686 47.766 36.6861 47.761 36.7981 47.7303C36.91 47.6996 37.0135 47.644 37.1008 47.5675C37.188 47.491 37.2567 47.3958 37.3017 47.289L35.4033 46.2078Z" fill="#C63E7D"/>
<path d="M37.2969 47.2864C37.2969 47.2864 37.3454 48.2809 38.0327 48.6863C38.1259 48.7553 38.2336 48.8023 38.3476 48.8237C38.4616 48.8451 38.579 48.8404 38.6909 48.81C38.8029 48.7795 38.9064 48.7241 38.9938 48.6479C39.0811 48.5717 39.15 48.4767 39.1953 48.3701L37.2969 47.2864Z" fill="#D0DDFF"/>
<path d="M39.1895 48.3674C39.1895 48.3674 39.238 49.3619 39.9253 49.7674C40.0187 49.8363 40.1265 49.8831 40.2406 49.9044C40.3548 49.9256 40.4722 49.9207 40.5842 49.89C40.6962 49.8593 40.7997 49.8036 40.8869 49.7272C40.9742 49.6507 41.0429 49.5555 41.0878 49.4486L39.1895 48.3674Z" fill="#C63E7D"/>
<path d="M41.083 49.4463C41.083 49.4463 41.1316 50.4408 41.8189 50.8462C41.912 50.9147 42.0194 50.9613 42.1332 50.9824C42.2469 51.0036 42.3639 50.9988 42.4755 50.9683C42.5871 50.9379 42.6904 50.8827 42.7775 50.8068C42.8647 50.7309 42.9335 50.6362 42.9788 50.53L41.083 49.4463Z" fill="#D0DDFF"/>
<path d="M42.9766 50.5273C42.9766 50.5273 43.0251 51.5218 43.7124 51.9273C43.8057 51.9957 43.9133 52.0421 44.0272 52.0631C44.141 52.0841 44.2582 52.079 44.3698 52.0484C44.4814 52.0177 44.5846 51.9622 44.6717 51.886C44.7587 51.8098 44.8273 51.715 44.8724 51.6085L42.9766 50.5273Z" fill="#C63E7D"/>
<path d="M44.8701 51.606C44.8701 51.606 44.9187 52.6004 45.606 53.0059C45.6991 53.0744 45.8065 53.1209 45.9203 53.1421C46.034 53.1632 46.151 53.1584 46.2626 53.128C46.3742 53.0976 46.4775 53.0423 46.5647 52.9664C46.6518 52.8905 46.7206 52.7959 46.766 52.6897L44.8701 51.606Z" fill="#D0DDFF"/>
<path d="M46.7637 52.6873C46.7637 52.6873 46.8122 53.6817 47.4995 54.0872C47.5928 54.1556 47.7004 54.202 47.8143 54.223C47.9281 54.244 48.0453 54.239 48.1569 54.2083C48.2685 54.1776 48.3717 54.1221 48.4588 54.0459C48.5458 53.9697 48.6145 53.8749 48.6595 53.7684L46.7637 52.6873Z" fill="#C63E7D"/>
<path d="M48.6562 53.7659C48.6562 53.7659 48.7048 54.7604 49.3921 55.1658C49.4852 55.2343 49.5927 55.2808 49.7064 55.302C49.8201 55.3231 49.9372 55.3183 50.0488 55.2879C50.1604 55.2575 50.2636 55.2023 50.3508 55.1263C50.438 55.0504 50.5068 54.9558 50.5521 54.8496L48.6562 53.7659Z" fill="#D0DDFF"/>
<path d="M50.5498 54.8394C50.5498 54.8394 50.5984 55.8364 51.2857 56.2393C51.3788 56.3078 51.4862 56.3543 51.6 56.3755C51.7137 56.3966 51.8307 56.3918 51.9423 56.3614C52.0539 56.331 52.1572 56.2758 52.2443 56.1998C52.3315 56.1239 52.4003 56.0293 52.4456 55.9231L50.5498 54.8394Z" fill="#C63E7D"/>
<path d="M52.4434 55.9255C52.4434 55.9255 52.4919 56.92 53.1792 57.3255C53.2725 57.3939 53.3801 57.4403 53.494 57.4613C53.6078 57.4823 53.725 57.4772 53.8366 57.4466C53.9482 57.4159 54.0514 57.3604 54.1385 57.2842C54.2255 57.208 54.2941 57.1132 54.3392 57.0067L52.4434 55.9255Z" fill="#D0DDFF"/>
<path d="M54.3359 57.0044C54.3359 57.0044 54.3845 58.0014 55.0692 58.4043C55.1624 58.4733 55.2701 58.5203 55.3841 58.5417C55.4981 58.5631 55.6155 58.5584 55.7274 58.528C55.8394 58.4975 55.9429 58.4421 56.0303 58.3659C56.1177 58.2897 56.1865 58.1948 56.2318 58.0881L54.3359 57.0044Z" fill="#C63E7D"/>
<path d="M56.2373 58.0854C56.2373 58.0854 56.2884 59.0799 56.9732 59.4854C57.0665 59.5543 57.1743 59.6011 57.2885 59.6224C57.4026 59.6436 57.5201 59.6387 57.6321 59.608C57.744 59.5773 57.8475 59.5216 57.9348 59.4452C58.022 59.3687 58.0907 59.2735 58.1357 59.1666L56.2373 58.0854Z" fill="#D0DDFF"/>
<path d="M58.1201 59.1743C58.1201 59.1743 58.1712 60.1688 58.856 60.5742C58.9491 60.6432 59.0568 60.6902 59.1708 60.7116C59.2848 60.733 59.4022 60.7284 59.5142 60.6979C59.6261 60.6675 59.7297 60.6121 59.817 60.5359C59.9044 60.4597 59.9733 60.3647 60.0185 60.258L58.1201 59.1743Z" fill="#C63E7D"/>
<path d="M60.0137 60.2451C60.0137 60.2451 60.0622 61.2396 60.7495 61.645C60.8429 61.714 60.9507 61.7608 61.0648 61.7821C61.179 61.8033 61.2965 61.7984 61.4084 61.7677C61.5204 61.737 61.6239 61.6813 61.7111 61.6049C61.7984 61.5284 61.8671 61.4331 61.9121 61.3263L60.0137 60.2451Z" fill="#D0DDFF"/>
<path d="M61.9072 61.324C61.9072 61.324 61.9558 62.3185 62.6431 62.7239C62.7363 62.7929 62.8439 62.8399 62.9579 62.8613C63.0719 62.8827 63.1893 62.878 63.3013 62.8476C63.4132 62.8171 63.5168 62.7617 63.6041 62.6855C63.6915 62.6093 63.7604 62.5143 63.8056 62.4077L61.9072 61.324Z" fill="#C63E7D"/>
<path d="M63.8008 62.4053C63.8008 62.4053 63.8493 63.3998 64.5366 63.8052C64.6299 63.8736 64.7375 63.9201 64.8514 63.941C64.9652 63.962 65.0824 63.957 65.194 63.9263C65.3056 63.8956 65.4088 63.8401 65.4959 63.764C65.5829 63.6878 65.6516 63.5929 65.6966 63.4865L63.8008 62.4053Z" fill="#D0DDFF"/>
<path d="M83.9339 73.722L76.0389 78.2991L74.9121 91.3549L79.5725 94.2823L89.0466 88.2797L88.3695 74.2473L86.5682 74.6196L85.2855 72.9697L83.9339 73.722Z" fill="#FF0000"/>
<path d="M76.0389 78.2991L77.393 80.9255L79.7232 79.5817L79.5725 94.2822L74.9121 91.3549L76.0389 78.2991Z" fill="#F1F1FF"/>
<path d="M79.723 79.5816L88.3693 74.2471L89.0463 88.2795L79.5723 94.2821L79.723 79.5816Z" fill="#E0E4FF"/>
<path d="M83.2793 80.2753C83.2257 80.6247 83.0238 80.8822 82.8245 80.8542C82.6252 80.8261 82.5077 80.515 82.569 80.1657C82.6304 79.8163 82.8245 79.5588 83.0238 79.5894C83.2231 79.62 83.333 79.926 83.2793 80.2753Z" fill="#21212C"/>
<path d="M86.1307 78.5283C86.0771 78.8777 85.8752 79.1352 85.6734 79.1046C85.4715 79.074 85.3565 78.768 85.4179 78.4187C85.4792 78.0693 85.6734 77.8092 85.8752 77.8398C86.0771 77.8704 86.169 78.179 86.1307 78.5283Z" fill="#21212C"/>
<path d="M74.9121 91.3549L77.3138 90.4573L79.5725 94.2822L74.9121 91.3549Z" fill="#E0E4FF"/>
<path d="M85.2857 72.9697V76.147L79.7234 79.5818L77.3932 80.9256L76.0391 78.2991L84.7057 73.2936" fill="#FF0000"/>
<path d="M84.4065 83.6259C84.2312 83.6258 84.0601 83.5724 83.9159 83.4729C82.9654 82.8303 82.8096 80.339 82.8096 80.2268L83.0523 80.214C83.0523 80.237 83.2107 82.6952 84.0743 83.274C84.1609 83.333 84.2606 83.3701 84.3647 83.3821C84.4689 83.3941 84.5744 83.3806 84.6722 83.3428C85.8603 82.9476 85.7887 79.704 85.6584 78.4979L85.9012 78.4724C85.9216 78.6586 86.3662 83.0471 84.7488 83.5851C84.6379 83.6179 84.5221 83.6317 84.4065 83.6259Z" fill="#21212C"/>
<path d="M91.0013 77.4396L83.1063 82.0168L81.9795 95.0752L86.6399 98L96.1139 91.9974L95.4369 77.9649L93.6355 78.3372L92.3555 76.6899L91.0013 77.4396Z" fill="#FF0000"/>
<path d="M83.1063 82.0168L84.4604 84.6433L86.7906 83.2995L86.6399 98L81.9795 95.0752L83.1063 82.0168Z" fill="#F1F1FF"/>
<path d="M86.7904 83.2996L95.4366 77.9651L96.1137 91.9975L86.6396 98.0001L86.7904 83.2996Z" fill="#E0E4FF"/>
<path d="M90.3495 83.9931C90.2958 84.3424 90.094 84.6025 89.8921 84.5719C89.6903 84.5413 89.5753 84.2328 89.6366 83.8834C89.6979 83.5341 89.8921 83.2766 90.094 83.3072C90.2958 83.3378 90.4006 83.6539 90.3495 83.9931Z" fill="#21212C"/>
<path d="M93.1854 82.2463C93.1317 82.5956 92.9299 82.8557 92.7281 82.8251C92.5262 82.7945 92.4112 82.486 92.4726 82.1366C92.5339 81.7873 92.7281 81.5297 92.9299 81.5603C93.1317 81.5909 93.2391 81.8969 93.1854 82.2463Z" fill="#21212C"/>
<path d="M81.9795 95.0751L84.3838 94.1775L86.6399 97.9999L81.9795 95.0751Z" fill="#E0E4FF"/>
<path d="M92.3547 76.6899V79.8672L86.7898 83.2994L84.4596 84.6433L83.1055 82.0168L91.7721 77.0138" fill="#FF0000"/>
<path d="M91.4733 87.3464C91.2978 87.345 91.1269 87.2908 90.9828 87.1908C90.0323 86.5482 89.8739 84.0518 89.8662 83.9472L90.1089 83.9319C90.1089 83.9574 90.2673 86.4156 91.1182 86.9919C91.2044 87.0517 91.304 87.0895 91.4082 87.102C91.5124 87.1144 91.6182 87.1012 91.7161 87.0633C92.9041 86.6681 92.8326 83.4245 92.7023 82.2184L92.945 82.1929C92.9655 82.379 93.41 86.765 91.7927 87.2928C91.69 87.3284 91.582 87.3465 91.4733 87.3464Z" fill="#21212C"/>
<path d="M45.5039 40.8324L45.7773 40.5596L59.0507 48.2095L59.0405 52.1695L58.7671 52.4398L45.5039 40.8324Z" fill="#AD0000"/>
<path d="M45.7773 40.5596V44.5197L59.0635 52.1695L59.0482 48.2095L45.7773 40.5596ZM50.7162 45.5753L51.5211 46.0394V46.6004C51.5211 46.6412 51.5211 46.6642 51.5006 46.6718C51.491 46.6764 51.4806 46.6787 51.47 46.6787C51.4593 46.6787 51.4489 46.6764 51.4393 46.6718C51.4489 46.6764 51.4593 46.6787 51.47 46.6787C51.4806 46.6787 51.491 46.6764 51.5006 46.6718C51.5006 46.6718 51.5211 46.6412 51.5211 46.6004V46.0394L50.7162 45.5753ZM50.2052 44.0607V44.3386V44.0607ZM50.1873 45.9553L50.2793 45.9986C50.3176 46.0139 50.3457 46.019 50.356 45.9986C50.356 46.0241 50.3176 46.019 50.2793 45.9986L50.1873 45.9553V46.2103V45.9553ZM48.6211 45.0144C48.6563 45.0402 48.693 45.064 48.731 45.0858C48.7669 45.1067 48.8045 45.1247 48.8434 45.1393C48.8045 45.1247 48.7669 45.1067 48.731 45.0858C48.6948 45.0639 48.6598 45.04 48.6262 45.0144H48.6211ZM49.012 45.1419C48.991 45.1522 48.9678 45.1576 48.9443 45.1576C48.9208 45.1576 48.8977 45.1522 48.8766 45.1419C48.8977 45.1542 48.9215 45.1614 48.9459 45.1627C48.9704 45.1641 48.9948 45.1595 49.0171 45.1495L49.012 45.1419ZM49.012 44.3055L48.9149 44.2111L48.7667 44.0709C48.6841 43.9998 48.6164 43.9131 48.5674 43.8159C48.5468 43.7711 48.5363 43.7223 48.5368 43.6731C48.5363 43.7223 48.5468 43.7711 48.5674 43.8159C48.6164 43.9131 48.6841 43.9998 48.7667 44.0709L48.9149 44.2111L49.012 44.3055C49.0779 44.3692 49.1394 44.4374 49.196 44.5095C49.1394 44.4374 49.0779 44.3692 49.012 44.3055ZM49.242 43.5405C49.1209 43.4219 48.9852 43.3191 48.8383 43.2345C48.9851 43.3183 49.1207 43.4202 49.242 43.5379V43.5405ZM48.5725 43.1095C48.5043 43.0887 48.4313 43.0887 48.363 43.1095C48.4313 43.0887 48.5043 43.0887 48.5725 43.1095ZM50.6166 46.4704L50.8721 46.6132L50.6166 46.4704ZM52.0193 47.0008L51.8583 46.8962L52.0193 47.0008ZM52.0372 45.1189L51.3499 44.7237L52.0372 45.1189Z" fill="#AD0000"/>
<path d="M55.6601 47.9545C55.9386 48.1151 56.1072 48.263 56.1046 48.5996C56.1046 48.8903 55.936 48.8903 55.6907 48.7475L55.4863 48.6302V47.8652L55.6601 47.9545Z" fill="#FF0000"/>
<path d="M53.3907 46.2842C53.8122 46.5392 54.1929 47.0492 54.1904 47.8728C54.1904 48.6199 53.8506 48.7984 53.3523 48.5128C53.0836 48.3459 52.8653 48.1092 52.7209 47.828C52.5764 47.5469 52.5112 47.2318 52.5322 46.9166C52.5347 46.0853 52.9921 46.0547 53.3907 46.2842ZM53.3728 48.1941C53.733 48.4032 53.8378 48.0717 53.8378 47.6841C53.8378 47.3501 53.7637 46.8375 53.3728 46.6106C52.9818 46.3836 52.8873 46.7202 52.8873 47.1078C52.8873 47.4954 52.964 47.9621 53.3728 48.1967" fill="#F1F1FF"/>
<path d="M53.3732 46.6081C53.7641 46.835 53.8407 47.3476 53.8382 47.6816C53.8382 48.0718 53.7334 48.4033 53.3732 48.1916C52.9643 47.957 52.8877 47.4751 52.8877 47.1028C52.8877 46.7305 53.0078 46.399 53.3732 46.6081Z" fill="#FF0000"/>
<path d="M48.5719 43.5023C48.7715 43.6212 48.9516 43.77 49.1059 43.9434V44.433L48.8172 44.2877V44.099C48.82 44.0726 48.8161 44.0459 48.8058 44.0214C48.7955 43.9968 48.7792 43.9753 48.7584 43.9587C48.702 43.9082 48.6403 43.8637 48.5745 43.8261C48.4058 43.7292 48.2755 43.7318 48.2755 43.9332C48.2755 44.1347 48.439 44.2851 48.6511 44.484C48.8022 44.5963 48.9275 44.7394 49.0187 44.9039C49.1099 45.0683 49.1649 45.2503 49.18 45.4377C49.18 45.8661 48.8836 45.9324 48.4927 45.7055C48.2769 45.5833 48.0827 45.4265 47.9178 45.2414V44.7314L48.2065 44.8767V45.0756C48.2037 45.102 48.2077 45.1287 48.2179 45.1533C48.2282 45.1778 48.2445 45.1993 48.2653 45.2159C48.3274 45.273 48.396 45.3226 48.4697 45.3638C48.6562 45.4709 48.8095 45.4913 48.8121 45.2465C48.8121 45.0425 48.6511 44.8895 48.4518 44.7135C48.1708 44.4585 47.9102 44.1831 47.9102 43.7675C47.9102 43.3518 48.1708 43.2779 48.5719 43.5023Z" fill="#F1F1FF"/>
<path d="M51.7743 45.4045V45.6595L51.6823 45.6161C51.6337 45.5957 51.598 45.5957 51.598 45.6748V47.1742L51.7589 47.2787V47.5541L51.0716 47.1589V46.9039L51.1662 46.9498C51.2198 46.9727 51.2479 46.9702 51.2479 46.8886V46.325L50.4431 45.8635V46.5214L50.6092 46.6259V46.9013L49.9219 46.5061V46.2511L50.0164 46.2944C50.0624 46.3148 50.0982 46.3148 50.0982 46.2511V44.7364L49.9347 44.6318V44.3335L50.6194 44.7287V44.9837L50.5274 44.9378C50.4712 44.9149 50.4405 44.9149 50.4405 44.9965V45.5065L51.2454 45.9706V45.3713L51.0819 45.2668V44.9965L51.7743 45.4045Z" fill="#F1F1FF"/>
<path d="M55.7265 49.0762L55.4837 48.9385V49.4103L55.7546 49.576V49.854L54.96 49.395V49.14L55.0545 49.1833C55.103 49.2037 55.1363 49.2063 55.1363 49.14V47.6253L54.9753 47.5233V47.2454L55.7878 47.7146C55.9842 47.8128 56.1502 47.9624 56.2681 48.1474C56.386 48.3325 56.4514 48.5459 56.4572 48.7651C56.4623 49.2547 56.1557 49.3236 55.7265 49.0762ZM55.4863 47.8472V48.6121L55.6907 48.7294C55.9462 48.8722 56.1046 48.8722 56.1046 48.5815C56.1046 48.2449 55.9385 48.097 55.66 47.9364L55.4863 47.8369" fill="#F1F1FF"/>
<path d="M45.5059 40.8323L58.792 48.4822V52.4397L45.5059 44.7924V40.8323ZM51.7734 45.6594V45.4044L51.0886 45.0091V45.2845L51.2521 45.3891V45.9883L50.4473 45.5242V45.0142C50.4473 44.9326 50.478 44.9326 50.5342 44.9556L50.6261 45.0015V44.7465L49.9414 44.3512V44.6266L50.1049 44.7312V46.2458C50.1049 46.3096 50.0691 46.3096 50.0232 46.2892L49.9286 46.2458V46.5008L50.6159 46.8961V46.6207L50.4498 46.5161V45.8582L51.2547 46.3198V46.8833C51.2547 46.9649 51.2266 46.9675 51.1729 46.9445L51.0784 46.8986V47.1536L51.7657 47.5489V47.2735L51.6047 47.1689V45.6594C51.6047 45.5803 51.6405 45.5803 51.689 45.6007L51.781 45.6441L51.7734 45.6594ZM53.36 48.5026C53.871 48.7882 54.1955 48.6097 54.1981 47.8625C54.1981 47.0363 53.8199 46.5161 53.3984 46.2739C52.9768 46.0316 52.5424 46.075 52.5399 46.9063C52.5189 47.2215 52.5841 47.5366 52.7286 47.8177C52.873 48.0989 53.0913 48.3356 53.36 48.5026ZM55.726 49.0763C56.1552 49.3313 56.4618 49.2548 56.4618 48.7576C56.456 48.5384 56.3906 48.3249 56.2727 48.1399C56.1548 47.9548 55.9888 47.8052 55.7924 47.707L54.9799 47.2378V47.5157L55.1409 47.6177V49.1324C55.1409 49.1987 55.1077 49.1961 55.0591 49.1757L54.9646 49.1324V49.3874L55.7592 49.8464V49.5684L55.4884 49.4027V48.931L55.7311 49.0686L55.726 49.0763ZM48.4876 45.6976C48.8785 45.9245 49.1749 45.8583 49.1749 45.4299C49.1598 45.2425 49.1048 45.0605 49.0136 44.896C48.9224 44.7316 48.7971 44.5884 48.646 44.4762C48.4339 44.2773 48.2678 44.1268 48.2704 43.9254C48.273 43.7239 48.4007 43.7214 48.5693 43.8183C48.6352 43.8559 48.6968 43.9003 48.7533 43.9509C48.7741 43.9674 48.7904 43.989 48.8007 44.0135C48.811 44.038 48.8149 44.0647 48.8121 44.0911V44.2798L49.1008 44.4252V43.9356C48.9465 43.7621 48.7664 43.6133 48.5668 43.4944C48.1733 43.27 47.9076 43.3567 47.905 43.7494C47.9025 44.1421 48.1605 44.4456 48.4467 44.6955C48.646 44.8714 48.807 45.0244 48.807 45.2284C48.807 45.4834 48.6511 45.4528 48.4646 45.3457C48.3909 45.3045 48.3223 45.2549 48.2602 45.1978C48.2394 45.1812 48.2231 45.1597 48.2128 45.1352C48.2025 45.1107 48.1986 45.084 48.2014 45.0576V44.8587L47.9127 44.7133V45.2233C48.0775 45.4084 48.2718 45.5652 48.4876 45.6874" fill="#FF0000"/>
</svg>
