<svg width="118" height="118" viewBox="0 0 118 118" fill="none" xmlns="http://www.w3.org/2000/svg">
<circle cx="59" cy="59" r="59" fill="#F8F8F8"/>
<g clip-path="url(#clip0)">
<path d="M26.6665 90.0001L26.0175 90.3769C25.9776 90.3966 25.9338 90.4069 25.8893 90.4069C25.8448 90.4069 25.8009 90.3966 25.7611 90.3769L25.1442 90.0161C25.0641 90.0161 25.0561 89.9119 25.1442 89.8719L25.8012 89.4871C25.841 89.4673 25.8849 89.457 25.9294 89.457C25.9738 89.457 26.0177 89.4673 26.0575 89.4871L26.6745 89.8398C26.7306 89.8959 26.7386 89.944 26.6665 90.0001Z" fill="#150035"/>
<path d="M28.2039 90.8739L27.5549 91.2507C27.5151 91.2704 27.4712 91.2807 27.4267 91.2807C27.3822 91.2807 27.3384 91.2704 27.2985 91.2507L26.6816 90.898C26.6015 90.8419 26.6015 90.7457 26.6415 90.7457L27.2905 90.3689C27.3304 90.3492 27.3742 90.3389 27.4187 90.3389C27.4632 90.3389 27.5071 90.3492 27.5469 90.3689L28.2039 90.7457C28.2439 90.7457 28.2519 90.8339 28.2039 90.8739Z" fill="#150035"/>
<path d="M26.602 91.7956L25.953 92.1723C25.9132 92.1921 25.8693 92.2024 25.8248 92.2024C25.7804 92.2024 25.7365 92.1921 25.6967 92.1723L25.0797 91.8196C24.9996 91.7715 24.9916 91.7074 25.0797 91.6673L25.7287 91.2906C25.7685 91.2708 25.8124 91.2605 25.8569 91.2605C25.9014 91.2605 25.9452 91.2708 25.9851 91.2906L26.602 91.6433C26.6501 91.6914 26.6581 91.7555 26.602 91.7956Z" fill="#150035"/>
<path d="M29.695 91.7476L29.046 92.1243C29.0062 92.1441 28.9623 92.1544 28.9178 92.1544C28.8734 92.1544 28.8295 92.1441 28.7896 92.1243L28.2048 91.7636C28.1327 91.7155 28.1166 91.6514 28.2048 91.6113L28.8537 91.2346C28.895 91.2147 28.9402 91.2043 28.9859 91.2043C29.0317 91.2043 29.0769 91.2147 29.1181 91.2346L29.727 91.5953C29.7591 91.6434 29.8072 91.7155 29.695 91.7476Z" fill="#150035"/>
<path d="M28.1004 92.6693L27.4515 93.046C27.4116 93.0658 27.3677 93.0761 27.3233 93.0761C27.2788 93.0761 27.2349 93.0658 27.1951 93.046L26.6022 92.6853C26.5221 92.6372 26.5141 92.5731 26.6022 92.533L27.2512 92.1563C27.291 92.1365 27.3349 92.1262 27.3794 92.1262C27.4238 92.1262 27.4677 92.1365 27.5075 92.1563L28.1245 92.517C28.2046 92.5651 28.2046 92.6372 28.1004 92.6693Z" fill="#150035"/>
<path d="M31.2966 92.6775L30.6476 93.0542C30.6084 93.076 30.5642 93.0874 30.5194 93.0874C30.4745 93.0874 30.4304 93.076 30.3912 93.0542L29.8063 92.6855C29.7342 92.6855 29.7182 92.5733 29.8063 92.5332L30.4553 92.1645C30.496 92.1427 30.5414 92.1313 30.5875 92.1313C30.6336 92.1313 30.679 92.1427 30.7197 92.1645L31.3286 92.5172C31.3607 92.5733 31.4087 92.6374 31.2966 92.6775Z" fill="#150035"/>
<path d="M29.703 93.5992L29.054 93.9519C29.0148 93.9736 28.9707 93.985 28.9258 93.985C28.881 93.985 28.8368 93.9736 28.7976 93.9519L28.2047 93.6072C28.1246 93.6072 28.1166 93.495 28.2047 93.4549L28.8537 93.0861C28.8929 93.0644 28.937 93.053 28.9819 93.053C29.0267 93.053 29.0709 93.0644 29.1101 93.0861L29.727 93.4388C29.8071 93.495 29.8071 93.5591 29.703 93.5992Z" fill="#150035"/>
<path d="M32.8989 91.7556L32.2099 92.1324C32.1707 92.1541 32.1265 92.1655 32.0817 92.1655C32.0368 92.1655 31.9927 92.1541 31.9535 92.1324L31.4087 91.7636C31.3366 91.7636 31.3286 91.6514 31.4087 91.6113L32.0577 91.2426C32.0983 91.2209 32.1437 91.2095 32.1899 91.2095C32.236 91.2095 32.2814 91.2209 32.322 91.2426L32.931 91.5953C32.955 91.6514 32.963 91.7155 32.8989 91.7556Z" fill="#150035"/>
<path d="M34.4937 90.8338L33.8447 91.2106C33.804 91.2323 33.7586 91.2437 33.7125 91.2437C33.6664 91.2437 33.621 91.2323 33.5803 91.2106L32.9634 90.8579C32.8913 90.8178 32.8833 90.7456 32.9634 90.7056L33.6123 90.3368C33.653 90.3151 33.6984 90.3037 33.7445 90.3037C33.7907 90.3037 33.8361 90.3151 33.8767 90.3368L34.4856 90.6895C34.5497 90.7456 34.5578 90.7937 34.4937 90.8338Z" fill="#150035"/>
<path d="M36.0883 89.9441L35.4394 90.3208C35.3987 90.3426 35.3533 90.354 35.3072 90.354C35.261 90.354 35.2156 90.3426 35.175 90.3208L34.5661 89.9441C34.4859 89.9441 34.4779 89.8319 34.5661 89.7998L35.223 89.4231C35.2623 89.4013 35.3064 89.3899 35.3512 89.3899C35.3961 89.3899 35.4402 89.4013 35.4794 89.4231L36.0963 89.7758C36.1444 89.8078 36.1524 89.872 36.0883 89.9441Z" fill="#150035"/>
<path d="M37.6821 88.9901L37.0331 89.3668C36.9919 89.3867 36.9467 89.397 36.9009 89.397C36.8551 89.397 36.81 89.3867 36.7687 89.3668L36.1598 89.0061C36.0797 89.0061 36.0717 88.8939 36.1598 88.8618L36.8168 88.4851C36.856 88.4633 36.9001 88.4519 36.945 88.4519C36.9898 88.4519 37.0339 88.4633 37.0732 88.4851L37.6901 88.8378C37.7382 88.8859 37.7462 88.95 37.6821 88.9901Z" fill="#150035"/>
<path d="M39.2768 88.0683L38.6278 88.4451C38.5866 88.4649 38.5414 88.4753 38.4956 88.4753C38.4499 88.4753 38.4047 88.4649 38.3634 88.4451L37.7545 88.0843C37.6744 88.0843 37.6664 87.9721 37.7545 87.9401L38.4035 87.5633C38.4358 87.5442 38.4718 87.5321 38.5091 87.528C38.5464 87.5238 38.5841 87.5277 38.6198 87.5393L39.2367 87.892C39.3329 87.9641 39.3489 88.0282 39.2768 88.0683Z" fill="#150035"/>
<path d="M40.8715 87.1464L40.2226 87.5392C40.1827 87.559 40.1389 87.5692 40.0944 87.5692C40.0499 87.5692 40.006 87.559 39.9662 87.5392L39.3493 87.1785C39.2691 87.1785 39.2611 87.0662 39.3493 87.0342L39.9982 86.6574C40.0375 86.6357 40.0816 86.6243 40.1264 86.6243C40.1713 86.6243 40.2154 86.6357 40.2546 86.6574L40.8715 87.0101C40.9356 87.0422 40.9436 87.1063 40.8715 87.1464Z" fill="#150035"/>
<path d="M42.4741 86.2247L41.8171 86.6014C41.7773 86.6212 41.7334 86.6315 41.689 86.6315C41.6445 86.6315 41.6006 86.6212 41.5608 86.6014L40.9438 86.2407C40.8717 86.2006 40.8637 86.1285 40.9438 86.0964L41.5928 85.7197C41.6335 85.6979 41.6789 85.6865 41.725 85.6865C41.7711 85.6865 41.8165 85.6979 41.8572 85.7197L42.4661 86.0724C42.5302 86.1204 42.5382 86.1846 42.4741 86.2247Z" fill="#150035"/>
<path d="M44.0679 85.3028L43.4109 85.6795C43.3711 85.6993 43.3272 85.7096 43.2827 85.7096C43.2382 85.7096 43.1944 85.6993 43.1545 85.6795L42.5376 85.3188C42.4655 85.3188 42.4575 85.2066 42.5376 85.1745L43.1866 84.7978C43.2278 84.7779 43.273 84.7676 43.3188 84.7676C43.3645 84.7676 43.4097 84.7779 43.451 84.7978L44.0599 85.1505C44.124 85.1986 44.132 85.2627 44.0679 85.3028Z" fill="#150035"/>
<path d="M45.6625 84.3809L45.0136 84.7577C44.9723 84.7775 44.9272 84.7879 44.8814 84.7879C44.8356 84.7879 44.7904 84.7775 44.7492 84.7577L44.1403 84.3969C44.0602 84.3969 44.0521 84.2847 44.1403 84.2527L44.7892 83.8759C44.8305 83.856 44.8757 83.8457 44.9214 83.8457C44.9672 83.8457 45.0124 83.856 45.0536 83.8759L45.6625 84.2286C45.7186 84.2767 45.7266 84.3328 45.6625 84.3809Z" fill="#150035"/>
<path d="M47.2573 83.4591L46.6083 83.8359C46.5671 83.8558 46.5219 83.8661 46.4761 83.8661C46.4303 83.8661 46.3851 83.8558 46.3439 83.8359L45.735 83.4752C45.6549 83.4752 45.6469 83.3629 45.735 83.3309L46.392 82.9541C46.4318 82.9344 46.4757 82.9241 46.5202 82.9241C46.5647 82.9241 46.6085 82.9344 46.6484 82.9541L47.2653 83.3068C47.3134 83.3549 47.3214 83.4191 47.2573 83.4591Z" fill="#150035"/>
<path d="M48.851 82.5375L48.2021 82.9142C48.1608 82.9341 48.1156 82.9445 48.0699 82.9445C48.0241 82.9445 47.9789 82.9341 47.9377 82.9142L47.3288 82.5535C47.2486 82.5535 47.2406 82.4413 47.3288 82.4092L47.9857 82.0325C48.0256 82.0127 48.0694 82.0024 48.1139 82.0024C48.1584 82.0024 48.2023 82.0127 48.2421 82.0325L48.859 82.3852C48.9071 82.4333 48.9151 82.4974 48.851 82.5375Z" fill="#150035"/>
<path d="M50.4458 81.6156L49.7968 81.9924C49.7569 82.0121 49.7131 82.0224 49.6686 82.0224C49.6241 82.0224 49.5802 82.0121 49.5404 81.9924L48.9235 81.6316C48.8434 81.5916 48.8353 81.5274 48.9235 81.4874L49.5724 81.1106C49.6146 81.092 49.6606 81.0837 49.7066 81.0865C49.7526 81.0893 49.7973 81.103 49.8368 81.1266L50.4538 81.4793C50.5098 81.5114 50.5179 81.5755 50.4458 81.6156Z" fill="#150035"/>
<path d="M52.0395 80.6937L51.3906 81.0704C51.3507 81.0902 51.3069 81.1005 51.2624 81.1005C51.2179 81.1005 51.174 81.0902 51.1342 81.0704L50.5173 80.7097C50.4452 80.7097 50.4291 80.6055 50.5173 80.5654L51.1662 80.1887C51.2075 80.1688 51.2527 80.1584 51.2984 80.1584C51.3442 80.1584 51.3894 80.1688 51.4306 80.1887L52.0395 80.5414C52.1036 80.5895 52.1116 80.6536 52.0395 80.6937Z" fill="#150035"/>
<path d="M53.6421 79.772L52.9851 80.1488C52.9453 80.1685 52.9014 80.1788 52.8569 80.1788C52.8124 80.1788 52.7686 80.1685 52.7287 80.1488L52.1118 79.7881C52.0397 79.7881 52.0317 79.6839 52.1118 79.6438L52.7608 79.267C52.802 79.2471 52.8472 79.2368 52.893 79.2368C52.9388 79.2368 52.9839 79.2471 53.0252 79.267L53.6341 79.6197C53.6982 79.6678 53.7062 79.7319 53.6421 79.772Z" fill="#150035"/>
<path d="M55.2368 78.8502L54.5798 79.2269C54.54 79.2467 54.4961 79.257 54.4516 79.257C54.4072 79.257 54.3633 79.2467 54.3235 79.2269L53.7065 78.8742C53.6344 78.8261 53.6264 78.762 53.7065 78.7219L54.3555 78.3452C54.3967 78.3253 54.4419 78.3149 54.4877 78.3149C54.5335 78.3149 54.5787 78.3253 54.6199 78.3452L55.2288 78.6979C55.2929 78.7219 55.3009 78.8101 55.2368 78.8502Z" fill="#150035"/>
<path d="M32.8108 93.5512L32.1619 93.952C32.122 93.9718 32.0782 93.982 32.0337 93.982C31.9892 93.982 31.9453 93.9718 31.9055 93.952L31.2886 93.5913C31.2165 93.5512 31.2085 93.4791 31.2886 93.447L31.9375 93.0702C31.9782 93.0485 32.0236 93.0371 32.0697 93.0371C32.1159 93.0371 32.1613 93.0485 32.2019 93.0702L32.8108 93.4229C32.8749 93.447 32.8829 93.5111 32.8108 93.5512Z" fill="#150035"/>
<path d="M34.4136 92.6292L33.7566 93.0059C33.7168 93.0257 33.6729 93.036 33.6284 93.036C33.5839 93.036 33.5401 93.0257 33.5002 93.0059L32.8833 92.6452C32.8112 92.6452 32.8032 92.533 32.8833 92.501L33.5323 92.1242C33.5735 92.1043 33.6187 92.094 33.6645 92.094C33.7102 92.094 33.7554 92.1043 33.7967 92.1242L34.4056 92.4769C34.4697 92.525 34.4777 92.5891 34.4136 92.6292Z" fill="#150035"/>
<path d="M36.0083 91.7076L35.3593 92.0843C35.3181 92.1042 35.2729 92.1145 35.2271 92.1145C35.1814 92.1145 35.1362 92.1042 35.0949 92.0843L34.478 91.7236C34.4059 91.7236 34.3979 91.6114 34.478 91.5793L35.127 91.2026C35.1682 91.1827 35.2134 91.1724 35.2592 91.1724C35.305 91.1724 35.3502 91.1827 35.3914 91.2026L36.0003 91.5553C36.0644 91.6034 36.0724 91.6675 36.0083 91.7076Z" fill="#150035"/>
<path d="M37.602 90.7856L36.953 91.1623C36.9118 91.1822 36.8666 91.1925 36.8208 91.1925C36.7751 91.1925 36.7299 91.1822 36.6886 91.1623L36.0797 90.8016C35.9996 90.8016 35.9916 90.6894 36.0797 90.6573L36.7367 90.2806C36.7766 90.2608 36.8204 90.2505 36.8649 90.2505C36.9094 90.2505 36.9533 90.2608 36.9931 90.2806L37.61 90.6333C37.6581 90.6813 37.6661 90.7455 37.602 90.7856Z" fill="#150035"/>
<path d="M39.1967 89.8639L38.5478 90.2407C38.5065 90.2606 38.4613 90.2709 38.4156 90.2709C38.3698 90.2709 38.3246 90.2606 38.2834 90.2407L37.6745 89.88C37.5943 89.88 37.5863 89.7677 37.6745 89.7357L38.3314 89.3589C38.3713 89.3391 38.4152 89.3289 38.4596 89.3289C38.5041 89.3289 38.548 89.3391 38.5878 89.3589L39.2047 89.7116C39.2528 89.7597 39.2608 89.8238 39.1967 89.8639Z" fill="#150035"/>
<path d="M40.7915 88.9421L40.1425 89.3188C40.1026 89.3386 40.0588 89.3489 40.0143 89.3489C39.9698 89.3489 39.9259 89.3386 39.8861 89.3188L39.2692 88.9581C39.1891 88.918 39.1811 88.8459 39.2692 88.8138L39.9182 88.4371C39.958 88.4173 40.0019 88.407 40.0463 88.407C40.0908 88.407 40.1347 88.4173 40.1745 88.4371L40.7915 88.7897C40.8556 88.8378 40.8636 88.902 40.7915 88.9421Z" fill="#150035"/>
<path d="M42.3852 88.0202L41.7362 88.3969C41.6964 88.4167 41.6525 88.427 41.608 88.427C41.5636 88.427 41.5197 88.4167 41.4799 88.3969L40.8629 88.0362C40.7828 88.0362 40.7748 87.932 40.8629 87.8919L41.5119 87.5152C41.5517 87.4954 41.5956 87.4851 41.6401 87.4851C41.6846 87.4851 41.7284 87.4954 41.7683 87.5152L42.3852 87.8679C42.4493 87.916 42.4573 87.9801 42.3852 88.0202Z" fill="#150035"/>
<path d="M43.9878 87.0984L43.3308 87.4752C43.291 87.495 43.2471 87.5053 43.2026 87.5053C43.1581 87.5053 43.1143 87.495 43.0744 87.4752L42.4575 87.1145C42.3854 87.1145 42.3774 87.0103 42.4575 86.9702L43.1065 86.5934C43.1477 86.5736 43.1929 86.5632 43.2387 86.5632C43.2845 86.5632 43.3296 86.5736 43.3709 86.5934L43.9798 86.9461C44.0439 86.9942 44.0519 87.0584 43.9878 87.0984Z" fill="#150035"/>
<path d="M45.5825 86.1766L44.9255 86.5533C44.8857 86.5731 44.8418 86.5834 44.7974 86.5834C44.7529 86.5834 44.709 86.5731 44.6692 86.5533L44.0522 86.2006C43.9801 86.1525 43.9721 86.0884 44.0522 86.0483L44.7012 85.6716C44.7424 85.6517 44.7876 85.6414 44.8334 85.6414C44.8792 85.6414 44.9244 85.6517 44.9656 85.6716L45.5745 86.0243C45.6386 86.0724 45.6466 86.1365 45.5825 86.1766Z" fill="#150035"/>
<path d="M47.1762 85.2547L46.5273 85.6314C46.486 85.6513 46.4408 85.6617 46.3951 85.6617C46.3493 85.6617 46.3041 85.6513 46.2629 85.6314L45.654 85.2787C45.5738 85.2306 45.5658 85.1665 45.654 85.1264L46.3029 84.7497C46.3442 84.7298 46.3893 84.7195 46.4351 84.7195C46.4809 84.7195 46.5261 84.7298 46.5673 84.7497L47.1762 85.1024C47.2323 85.1345 47.2403 85.2146 47.1762 85.2547Z" fill="#150035"/>
<path d="M48.7709 84.333L48.122 84.7098C48.0807 84.7297 48.0356 84.74 47.9898 84.74C47.944 84.74 47.8988 84.7297 47.8576 84.7098L47.2487 84.333C47.1686 84.2849 47.1605 84.2208 47.2487 84.1807L47.9057 83.804C47.9455 83.7842 47.9894 83.7739 48.0338 83.7739C48.0783 83.7739 48.1222 83.7842 48.162 83.804L48.779 84.1567C48.827 84.2288 48.835 84.333 48.7709 84.333Z" fill="#150035"/>
<path d="M50.3657 83.411L49.7167 83.7878C49.6755 83.8077 49.6303 83.818 49.5845 83.818C49.5387 83.818 49.4935 83.8077 49.4523 83.7878L48.8434 83.4351C48.7633 83.387 48.7553 83.3229 48.8434 83.2828L49.4924 82.906C49.5322 82.8863 49.5761 82.876 49.6206 82.876C49.665 82.876 49.7089 82.8863 49.7488 82.906L50.3657 83.2587C50.4218 83.3068 50.4298 83.371 50.3657 83.411Z" fill="#150035"/>
<path d="M51.9594 82.4894L51.3105 82.8661C51.2706 82.8859 51.2267 82.8962 51.1823 82.8962C51.1378 82.8962 51.0939 82.8859 51.0541 82.8661L50.4372 82.5135C50.357 82.4654 50.349 82.4012 50.4372 82.3612L51.0861 81.9844C51.126 81.9646 51.1698 81.9543 51.2143 81.9543C51.2588 81.9543 51.3027 81.9646 51.3425 81.9844L51.9594 82.3371C52.0235 82.3852 52.0315 82.4493 51.9594 82.4894Z" fill="#150035"/>
<path d="M53.5542 81.5674L52.9052 81.9442C52.8654 81.9639 52.8215 81.9742 52.777 81.9742C52.7326 81.9742 52.6887 81.9639 52.6488 81.9442L52.0319 81.5915C51.9598 81.5434 51.9438 81.4793 52.0319 81.4392L52.6809 81.0624C52.7221 81.0426 52.7673 81.0322 52.8131 81.0322C52.8589 81.0322 52.904 81.0426 52.9453 81.0624L53.5542 81.4232C53.6183 81.4632 53.6263 81.5274 53.5542 81.5674Z" fill="#150035"/>
<path d="M55.1567 80.6456L54.4998 81.0223C54.4599 81.0421 54.416 81.0524 54.3716 81.0524C54.3271 81.0524 54.2832 81.0421 54.2434 81.0223L53.6265 80.6696C53.5544 80.6215 53.5463 80.5574 53.6265 80.5173L54.2754 80.1406C54.3167 80.1207 54.3619 80.1104 54.4076 80.1104C54.4534 80.1104 54.4986 80.1207 54.5398 80.1406L55.1487 80.5013C55.2128 80.5414 55.2208 80.6055 55.1567 80.6456Z" fill="#150035"/>
<path d="M56.7505 79.7239L56.0935 80.1007C56.0537 80.1205 56.0098 80.1307 55.9653 80.1307C55.9208 80.1307 55.877 80.1205 55.8371 80.1007L55.2202 79.748C55.1481 79.6999 55.1401 79.6358 55.2202 79.5957L55.8692 79.2189C55.9104 79.1991 55.9556 79.1887 56.0014 79.1887C56.0471 79.1887 56.0923 79.1991 56.1336 79.2189L56.7425 79.5796C56.8066 79.6197 56.8146 79.6839 56.7505 79.7239Z" fill="#150035"/>
<path d="M58.4174 77.0146L57.7685 77.3913C57.7271 77.4106 57.6819 77.4207 57.6363 77.4207C57.5906 77.4207 57.5455 77.4106 57.5041 77.3913L56.8952 77.0386C56.815 77.0386 56.807 76.9264 56.8952 76.8863L57.5441 76.5096C57.584 76.4898 57.6278 76.4795 57.6723 76.4795C57.7168 76.4795 57.7607 76.4898 57.8005 76.5096L58.4174 76.8623C58.4735 76.9103 58.4815 76.9745 58.4174 77.0146Z" fill="#150035"/>
<path d="M56.8227 77.9202L56.1737 78.2969C56.1323 78.3163 56.0872 78.3263 56.0415 78.3263C55.9959 78.3263 55.9507 78.3163 55.9093 78.2969L55.3004 77.9202C55.2203 77.8721 55.2123 77.808 55.3004 77.7679L55.9574 77.3911C55.9973 77.3714 56.0411 77.3611 56.0856 77.3611C56.1301 77.3611 56.174 77.3714 56.2138 77.3911L56.8307 77.7438C56.8788 77.824 56.8868 77.9202 56.8227 77.9202Z" fill="#150035"/>
<path d="M60.0122 76.0927L59.3632 76.4694C59.3233 76.4892 59.2795 76.4995 59.235 76.4995C59.1905 76.4995 59.1466 76.4892 59.1068 76.4694L58.4899 76.1167C58.4098 76.1167 58.4018 76.0045 58.4899 75.9644L59.1389 75.5877C59.1787 75.5679 59.2226 75.5576 59.267 75.5576C59.3115 75.5576 59.3554 75.5679 59.3952 75.5877L60.0122 75.9404C60.0762 75.9885 60.0843 76.0526 60.0122 76.0927Z" fill="#150035"/>
<path d="M61.6059 75.1708L60.957 75.5476C60.9171 75.5674 60.8733 75.5776 60.8288 75.5776C60.7843 75.5776 60.7404 75.5674 60.7006 75.5476L60.0837 75.1949C60.0116 75.1949 59.9955 75.0827 60.0837 75.0426L60.7326 74.6658C60.774 74.6465 60.8192 74.6365 60.8648 74.6365C60.9105 74.6365 60.9556 74.6465 60.997 74.6658L61.6059 75.0185C61.67 75.0666 61.678 75.1308 61.6059 75.1708Z" fill="#150035"/>
<path d="M63.2085 74.2489L62.5515 74.6257C62.5117 74.6455 62.4678 74.6558 62.4233 74.6558C62.3789 74.6558 62.335 74.6455 62.2951 74.6257L61.6782 74.273C61.6061 74.2329 61.5981 74.1608 61.6782 74.1207L62.3272 73.744C62.3686 73.7246 62.4137 73.7146 62.4594 73.7146C62.5051 73.7146 62.5502 73.7246 62.5916 73.744L63.2005 74.0967C63.2646 74.1447 63.2726 74.2089 63.2085 74.2489Z" fill="#150035"/>
<path d="M64.8032 73.3273L64.1543 73.7041C64.1136 73.7258 64.0682 73.7372 64.0221 73.7372C63.9759 73.7372 63.9305 73.7258 63.8899 73.7041L63.2729 73.3514C63.2008 73.3514 63.1928 73.2391 63.2729 73.1991L63.9219 72.8223C63.9633 72.803 64.0084 72.793 64.0541 72.793C64.0998 72.793 64.1449 72.803 64.1863 72.8223L64.7952 73.175C64.8593 73.2231 64.8673 73.2872 64.8032 73.3273Z" fill="#150035"/>
<path d="M66.3969 72.4054L65.748 72.7821C65.7073 72.8039 65.6619 72.8153 65.6158 72.8153C65.5696 72.8153 65.5242 72.8039 65.4836 72.7821L64.8747 72.4294C64.7945 72.4294 64.7865 72.3172 64.8747 72.2771L65.5316 71.9084C65.5709 71.8867 65.615 71.8752 65.6598 71.8752C65.7047 71.8752 65.7488 71.8867 65.788 71.9084L66.4049 72.2611C66.453 72.3092 66.461 72.3653 66.3969 72.4054Z" fill="#150035"/>
<path d="M67.9917 71.5076L67.3427 71.8843C67.302 71.9061 67.2566 71.9175 67.2105 71.9175C67.1644 71.9175 67.119 71.9061 67.0783 71.8843L66.4694 71.5076C66.3893 71.5076 66.3812 71.3953 66.4694 71.3553L67.1264 70.9865C67.1656 70.9648 67.2097 70.9534 67.2546 70.9534C67.2994 70.9534 67.3435 70.9648 67.3827 70.9865L67.9997 71.3392C68.0477 71.3793 68.0557 71.4434 67.9917 71.5076Z" fill="#150035"/>
<path d="M69.5864 70.5617L68.9374 70.9384C68.8967 70.9601 68.8513 70.9715 68.8052 70.9715C68.7591 70.9715 68.7137 70.9601 68.673 70.9384L68.0641 70.5857C67.984 70.5857 67.976 70.4735 68.0641 70.4334L68.7131 70.0647C68.7523 70.0429 68.7964 70.0315 68.8413 70.0315C68.8861 70.0315 68.9302 70.0429 68.9695 70.0647L69.5864 70.4174C69.6425 70.4574 69.6585 70.5216 69.5864 70.5617Z" fill="#150035"/>
<path d="M59.9321 77.9202L59.2831 78.2969C59.2424 78.3187 59.197 78.33 59.1509 78.33C59.1048 78.33 59.0594 78.3187 59.0187 78.2969L58.4098 77.9202C58.3297 77.9202 58.3217 77.8079 58.4098 77.7679L59.0588 77.3991C59.098 77.3774 59.1421 77.366 59.187 77.366C59.2318 77.366 59.2759 77.3774 59.3152 77.3991L59.9321 77.7518C59.9882 77.7839 59.9962 77.848 59.9321 77.9202Z" fill="#150035"/>
<path d="M58.3374 78.8099L57.6884 79.1867C57.6477 79.2084 57.6023 79.2198 57.5562 79.2198C57.5101 79.2198 57.4647 79.2084 57.424 79.1867L56.8151 78.834C56.735 78.7939 56.727 78.7218 56.8151 78.6817L57.4721 78.313C57.5113 78.2912 57.5554 78.2798 57.6003 78.2798C57.6451 78.2798 57.6892 78.2912 57.7284 78.313L58.3454 78.6657C58.3934 78.7218 58.4014 78.7699 58.3374 78.8099Z" fill="#150035"/>
<path d="M61.5258 76.9664L60.8769 77.3432C60.8376 77.3649 60.7935 77.3763 60.7487 77.3763C60.7038 77.3763 60.6597 77.3649 60.6205 77.3432L60.0036 76.9905C59.9234 76.9905 59.9154 76.8783 60.0036 76.8382L60.6525 76.4695C60.6918 76.4477 60.7359 76.4363 60.7807 76.4363C60.8256 76.4363 60.8697 76.4477 60.9089 76.4695L61.5258 76.8221C61.5899 76.8622 61.5979 76.9263 61.5258 76.9664Z" fill="#150035"/>
<path d="M63.1204 76.0445L62.4714 76.4213C62.4322 76.443 62.3881 76.4544 62.3433 76.4544C62.2984 76.4544 62.2543 76.443 62.2151 76.4213L61.5981 76.0686C61.526 76.0686 61.518 75.9563 61.5981 75.9163L62.2471 75.5475C62.2878 75.5258 62.3332 75.5144 62.3793 75.5144C62.4254 75.5144 62.4708 75.5258 62.5115 75.5475L63.1204 75.9002C63.1845 75.9403 63.1925 76.0044 63.1204 76.0445Z" fill="#150035"/>
<path d="M64.7231 75.1229L64.0662 75.4996C64.0269 75.5214 63.9828 75.5328 63.938 75.5328C63.8931 75.5328 63.849 75.5214 63.8098 75.4996L63.1929 75.1469C63.1208 75.1469 63.1127 75.0347 63.1929 74.9946L63.8418 74.6259C63.8825 74.6042 63.9279 74.5928 63.974 74.5928C64.0201 74.5928 64.0656 74.6042 64.1062 74.6259L64.7151 74.9786C64.7792 75.0187 64.7872 75.0828 64.7231 75.1229Z" fill="#150035"/>
<path d="M66.3169 74.201L65.6679 74.5778C65.6273 74.5995 65.5819 74.6109 65.5357 74.6109C65.4896 74.6109 65.4442 74.5995 65.4035 74.5778L64.7866 74.2251C64.7145 74.185 64.7065 74.1128 64.7866 74.0808L65.4356 73.704C65.4763 73.6823 65.5217 73.6709 65.5678 73.6709C65.6139 73.6709 65.6593 73.6823 65.7 73.704L66.3089 74.0567C66.373 74.0968 66.381 74.1609 66.3169 74.201Z" fill="#150035"/>
<path d="M67.9116 73.2791L67.2626 73.6559C67.2214 73.6758 67.1762 73.6861 67.1304 73.6861C67.0846 73.6861 67.0394 73.6758 66.9982 73.6559L66.3893 73.2952C66.3092 73.2952 66.3012 73.1829 66.3893 73.1509L67.0463 72.7741C67.0855 72.7524 67.1296 72.741 67.1745 72.741C67.2193 72.741 67.2634 72.7524 67.3027 72.7741L67.9196 73.1268C67.9677 73.1749 67.9757 73.2391 67.9116 73.2791Z" fill="#150035"/>
<path d="M69.5063 72.3573L68.8573 72.734C68.8161 72.7539 68.7709 72.7642 68.7251 72.7642C68.6794 72.7642 68.6342 72.7539 68.5929 72.734L67.984 72.3733C67.9039 72.3733 67.8959 72.2611 67.984 72.229L68.641 71.8523C68.6802 71.8305 68.7243 71.8191 68.7692 71.8191C68.8141 71.8191 68.8582 71.8305 68.8974 71.8523L69.5143 72.205C69.5624 72.2531 69.5704 72.3092 69.5063 72.3573Z" fill="#150035"/>
<path d="M71.1801 69.6239L70.5312 70.0007C70.4913 70.0205 70.4474 70.0307 70.403 70.0307C70.3585 70.0307 70.3146 70.0205 70.2748 70.0007L69.6579 69.64C69.5777 69.64 69.5697 69.5277 69.6579 69.4957L70.3068 69.1189C70.3467 69.0992 70.3905 69.0889 70.435 69.0889C70.4795 69.0889 70.5234 69.0992 70.5632 69.1189L71.1801 69.4716C71.2442 69.5197 71.2522 69.5839 71.1801 69.6239Z" fill="#150035"/>
<path d="M72.7747 68.7022L72.1257 69.0789C72.0859 69.0987 72.042 69.109 71.9975 69.109C71.9531 69.109 71.9092 69.0987 71.8694 69.0789L71.2524 68.7182C71.1803 68.6782 71.1723 68.614 71.2524 68.5739L71.9014 68.1972C71.9426 68.1773 71.9878 68.167 72.0336 68.167C72.0794 68.167 72.1246 68.1773 72.1658 68.1972L72.7747 68.5499C72.8388 68.598 72.8468 68.6621 72.7747 68.7022Z" fill="#150035"/>
<path d="M74.3774 67.7803L73.7205 68.1571C73.6806 68.1769 73.6367 68.1871 73.5923 68.1871C73.5478 68.1871 73.5039 68.1769 73.4641 68.1571L72.8472 67.7964C72.7751 67.7964 72.767 67.6922 72.8472 67.6521L73.4961 67.2753C73.5374 67.2554 73.5826 67.2451 73.6283 67.2451C73.6741 67.2451 73.7193 67.2554 73.7605 67.2753L74.3694 67.628C74.4335 67.6761 74.4415 67.7402 74.3774 67.7803Z" fill="#150035"/>
<path d="M75.9711 66.8585L75.3222 67.2352C75.2809 67.2551 75.2358 67.2654 75.19 67.2654C75.1442 67.2654 75.099 67.2551 75.0578 67.2352L74.4489 66.8825C74.3688 66.8344 74.3607 66.7703 74.4489 66.7302L75.0978 66.3535C75.1391 66.3336 75.1843 66.3232 75.23 66.3232C75.2758 66.3232 75.321 66.3336 75.3622 66.3535L75.9711 66.7062C76.0272 66.7542 76.0352 66.8184 75.9711 66.8585Z" fill="#150035"/>
<path d="M71.1 71.4193L70.4511 71.7961C70.4098 71.816 70.3647 71.8263 70.3189 71.8263C70.2731 71.8263 70.2279 71.816 70.1867 71.7961L69.5778 71.4434C69.4977 71.3953 69.4896 71.3312 69.5778 71.2911L70.2267 70.9143C70.2666 70.8946 70.3105 70.8843 70.3549 70.8843C70.3994 70.8843 70.4433 70.8946 70.4831 70.9143L71.1 71.267C71.1641 71.3151 71.1722 71.3793 71.1 71.4193Z" fill="#150035"/>
<path d="M72.6948 70.4977L72.0458 70.8745C72.006 70.8942 71.9621 70.9045 71.9176 70.9045C71.8731 70.9045 71.8293 70.8942 71.7894 70.8745L71.1725 70.5218C71.0924 70.4737 71.0844 70.4095 71.1725 70.3695L71.8215 69.9927C71.8613 69.9729 71.9052 69.9626 71.9497 69.9626C71.9941 69.9626 72.038 69.9729 72.0779 69.9927L72.6948 70.3454C72.7589 70.3935 72.7669 70.4576 72.6948 70.4977Z" fill="#150035"/>
<path d="M74.2974 69.5757L73.6404 69.9525C73.6005 69.9723 73.5567 69.9825 73.5122 69.9825C73.4677 69.9825 73.4238 69.9723 73.384 69.9525L72.7671 69.5998C72.695 69.5517 72.687 69.4876 72.7671 69.4475L73.4161 69.0707C73.4573 69.0509 73.5025 69.0405 73.5483 69.0405C73.594 69.0405 73.6392 69.0509 73.6804 69.0707L74.2894 69.4234C74.3534 69.4715 74.3615 69.5357 74.2974 69.5757Z" fill="#150035"/>
<path d="M75.8911 68.6541L75.2341 69.0309C75.1943 69.0506 75.1504 69.0609 75.1059 69.0609C75.0615 69.0609 75.0176 69.0506 74.9778 69.0309L74.3608 68.6782C74.2887 68.6301 74.2807 68.5659 74.3608 68.5259L75.0098 68.1491C75.051 68.1292 75.0962 68.1189 75.142 68.1189C75.1878 68.1189 75.233 68.1292 75.2742 68.1491L75.8831 68.5098C75.9472 68.5499 75.9552 68.614 75.8911 68.6541Z" fill="#150035"/>
<path d="M77.4858 67.7322L76.8368 68.109C76.7956 68.1289 76.7504 68.1392 76.7046 68.1392C76.6589 68.1392 76.6137 68.1289 76.5724 68.109L75.9635 67.7563C75.8834 67.7082 75.8754 67.6441 75.9635 67.604L76.6125 67.2272C76.6537 67.2073 76.6989 67.197 76.7447 67.197C76.7905 67.197 76.8356 67.2073 76.8769 67.2272L77.4858 67.5879C77.5419 67.628 77.5499 67.6922 77.4858 67.7322Z" fill="#150035"/>
<path d="M79.1528 65.0229L78.5038 65.3996C78.464 65.4194 78.4201 65.4297 78.3756 65.4297C78.3311 65.4297 78.2873 65.4194 78.2474 65.3996L77.6305 65.0469C77.5504 64.9988 77.5424 64.9347 77.6305 64.8946L78.2795 64.5179C78.3193 64.4981 78.3632 64.4878 78.4077 64.4878C78.4521 64.4878 78.496 64.4981 78.5359 64.5179L79.1528 64.8706C79.2169 64.9106 79.2249 64.9828 79.1528 65.0229Z" fill="#150035"/>
<path d="M77.5581 65.9447L76.9091 66.3215C76.8677 66.3408 76.8226 66.3508 76.7769 66.3508C76.7312 66.3508 76.6861 66.3408 76.6447 66.3215L76.0358 65.9688C75.9557 65.9207 75.9477 65.8566 76.0358 65.8165L76.6928 65.4397C76.7326 65.42 76.7765 65.4097 76.821 65.4097C76.8654 65.4097 76.9093 65.42 76.9491 65.4397L77.5661 65.7924C77.6141 65.8325 77.6221 65.8966 77.5581 65.9447Z" fill="#150035"/>
<path d="M80.7465 64.101L80.0976 64.4777C80.0577 64.4975 80.0138 64.5078 79.9694 64.5078C79.9249 64.5078 79.881 64.4975 79.8412 64.4777L79.2243 64.125C79.1441 64.085 79.1361 64.0128 79.2243 63.9727L79.8732 63.596C79.9131 63.5762 79.9569 63.5659 80.0014 63.5659C80.0459 63.5659 80.0898 63.5762 80.1296 63.596L80.7465 63.9487C80.8106 63.9968 80.8186 64.0609 80.7465 64.101Z" fill="#150035"/>
<path d="M82.3491 63.1791L81.6921 63.5559C81.6523 63.5756 81.6084 63.5859 81.564 63.5859C81.5195 63.5859 81.4756 63.5756 81.4358 63.5559L80.8188 63.2032C80.7467 63.2032 80.7387 63.091 80.8188 63.0509L81.4678 62.6741C81.5092 62.6548 81.5543 62.6448 81.6 62.6448C81.6457 62.6448 81.6908 62.6548 81.7322 62.6741L82.3411 63.0268C82.4052 63.0749 82.4132 63.139 82.3491 63.1791Z" fill="#150035"/>
<path d="M83.9438 62.2573L83.2869 62.634C83.247 62.6538 83.2032 62.6641 83.1587 62.6641C83.1142 62.6641 83.0703 62.6538 83.0305 62.634L82.4136 62.2813C82.3415 62.2813 82.3335 62.1691 82.4136 62.129L83.0625 61.7523C83.1039 61.7329 83.1491 61.7229 83.1947 61.7229C83.2404 61.7229 83.2855 61.7329 83.3269 61.7523L83.9358 62.105C83.9999 62.153 84.0079 62.2172 83.9438 62.2573Z" fill="#150035"/>
<path d="M80.6665 65.8965L80.0175 66.2732C79.9783 66.295 79.9341 66.3064 79.8893 66.3064C79.8444 66.3064 79.8003 66.295 79.7611 66.2732L79.1442 65.8965C79.0641 65.8965 79.0561 65.7843 79.1442 65.7442L79.7931 65.3755C79.8324 65.3537 79.8765 65.3423 79.9213 65.3423C79.9662 65.3423 80.0103 65.3537 80.0495 65.3755L80.6665 65.7282C80.7305 65.7923 80.7386 65.8965 80.6665 65.8965Z" fill="#150035"/>
<path d="M79.0717 66.8185L78.4228 67.1952C78.3821 67.217 78.3367 67.2284 78.2906 67.2284C78.2444 67.2284 78.199 67.217 78.1584 67.1952L77.5495 66.8425C77.4693 66.8425 77.4613 66.7303 77.5495 66.6902L78.2064 66.3215C78.2457 66.2997 78.2898 66.2883 78.3346 66.2883C78.3795 66.2883 78.4236 66.2997 78.4628 66.3215L79.0797 66.6742C79.1278 66.6982 79.1358 66.7784 79.0717 66.8185Z" fill="#150035"/>
<path d="M82.2612 64.9747L81.6123 65.3514C81.573 65.3732 81.5289 65.3846 81.4841 65.3846C81.4392 65.3846 81.3951 65.3732 81.3559 65.3514L80.7389 64.9987C80.6668 64.9987 80.6508 64.8865 80.7389 64.8464L81.3879 64.4777C81.4286 64.456 81.474 64.4446 81.5201 64.4446C81.5662 64.4446 81.6116 64.456 81.6523 64.4777L82.2612 64.8304C82.3253 64.8705 82.3333 64.9346 82.2612 64.9747Z" fill="#150035"/>
<path d="M83.8638 64.0528L83.2068 64.4296C83.1676 64.4513 83.1235 64.4627 83.0786 64.4627C83.0337 64.4627 82.9896 64.4513 82.9504 64.4296L82.3335 64.0769C82.2614 64.0368 82.2534 63.9646 82.3335 63.9246L82.9825 63.5558C83.0231 63.5341 83.0685 63.5227 83.1147 63.5227C83.1608 63.5227 83.2062 63.5341 83.2469 63.5558L83.8558 63.9085C83.9199 63.9486 83.9279 64.0127 83.8638 64.0528Z" fill="#150035"/>
<path d="M26.7377 86.0564C33.4597 82.4653 76.1154 58.1453 77.6537 18.8838C77.6783 18.589 77.7698 18.3037 77.9211 18.0495C78.0724 17.7954 78.2796 17.579 78.527 17.4169C78.6235 17.35 78.7381 17.3142 78.8554 17.3142C78.9728 17.3142 79.0874 17.35 79.1839 17.4169L83.3822 19.9098L81.7798 34.9315L79.3762 43.9172V55.6284C79.3429 56.2411 79.1652 56.8372 78.8574 57.3681C78.5497 57.8989 78.1207 58.3493 77.6056 58.6824L57.8481 70.0809L47.6008 79.756L30.4312 90.7457L26.1208 88.1486C26.0257 88.0917 25.9493 88.0083 25.9009 87.9087C25.8525 87.809 25.8343 87.6973 25.8484 87.5874C25.8605 87.279 25.9479 86.9783 26.1029 86.7114C26.258 86.4445 26.4759 86.2197 26.7377 86.0564Z" fill="white"/>
<path d="M25.9851 88.429C25.8301 88.3425 25.7046 88.2115 25.6246 88.0529C25.5447 87.8943 25.514 87.7154 25.5365 87.5393C25.5556 87.1814 25.6629 86.8339 25.8488 86.5276C26.0347 86.2213 26.2935 85.9658 26.6021 85.7838C34.7983 81.3911 75.8275 57.5441 77.3417 18.8677C77.3664 18.5194 77.4729 18.1818 77.6525 17.8823C77.832 17.5829 78.0797 17.33 78.3753 17.1443C78.52 17.044 78.6919 16.9902 78.868 16.9902C79.0441 16.9902 79.216 17.044 79.3608 17.1443L83.7112 19.7254L82.1089 34.9555L79.7053 43.9492V55.6283C79.6733 56.2951 79.4829 56.9447 79.1499 57.5232C78.8169 58.1017 78.3509 58.5925 77.7904 58.9548L58.081 70.3373L47.8417 79.9563L30.4398 91.0823L25.9851 88.429ZM57.6564 69.8564L77.4539 58.4098C77.9162 58.1 78.3012 57.6881 78.579 57.2058C78.8569 56.7235 79.0202 56.1838 79.0563 55.6283V43.9172L81.4599 34.8673L83.0463 20.0781L79.0403 17.6733H78.9922C78.9121 17.6012 78.7438 17.6733 78.6958 17.7134C78.4949 17.8461 78.3264 18.0224 78.203 18.2292C78.0795 18.436 78.0042 18.6679 77.9827 18.9078C77.3177 35.5166 69.3699 51.3879 54.3555 66.0729C46.1426 74.0238 36.9029 80.839 26.8825 86.3369C26.6729 86.4744 26.4985 86.6591 26.3733 86.8763C26.2481 87.0935 26.1755 87.337 26.1614 87.5874C26.1545 87.6429 26.1619 87.6994 26.183 87.7513C26.204 87.8032 26.238 87.8489 26.2816 87.8839L30.4238 90.3448L47.4331 79.5234L57.6564 69.8564Z" fill="#150035"/>
<path d="M44.3809 74.4014L49.9252 77.5596L47.3854 79.9643L46.5842 80.4613L40.8076 77.1187C41.9693 76.3171 43.1631 75.3633 44.3809 74.4014Z" fill="#FF0000"/>
<path d="M40.2227 77.1588L40.6152 76.8703C41.809 75.9966 43.0188 75.0827 44.1725 74.1609L44.3408 74.0247L50.4379 77.4955L47.5937 80.1808L46.5922 80.8221L40.2227 77.1588ZM49.3963 77.6238L44.3969 74.7781C43.4034 75.5797 42.3859 76.3813 41.3684 77.0947L46.5761 80.0926L47.185 79.7079L49.3963 77.6238Z" fill="#150035"/>
<path d="M26.121 88.2045C26.0267 88.1449 25.9511 88.0599 25.9029 87.9592C25.8547 87.8585 25.8359 87.7463 25.8486 87.6354C25.8625 87.3306 25.9509 87.0339 26.1059 86.7712C26.2609 86.5085 26.4779 86.2878 26.7379 86.1284C28.2762 85.3268 31.6973 83.395 36.0718 80.4692L41.52 83.6756L30.4314 90.7455L26.121 88.2045Z" fill="#FF0000"/>
<path d="M25.9691 88.4772C25.8232 88.3899 25.7051 88.2629 25.6285 88.1111C25.5519 87.9592 25.52 87.7887 25.5365 87.6195C25.5511 87.2563 25.6562 86.9025 25.8423 86.5903C26.0284 86.2781 26.2896 86.0174 26.6021 85.8319C28.2044 84.9662 31.5855 83.0825 35.9119 80.2209L36.0802 80.1086L42.1372 83.7077L30.4398 91.1304L25.9691 88.4772ZM36.0802 80.8301C31.8098 83.6677 28.4929 85.5273 26.8825 86.385C26.6729 86.5225 26.4985 86.7073 26.3733 86.9245C26.2481 87.1416 26.1755 87.3852 26.1614 87.6355C26.1614 87.7798 26.2015 87.892 26.2656 87.9241L30.4238 90.3929L40.9194 83.6997L36.0802 80.8301Z" fill="#150035"/>
<path d="M75.6991 31.4285L81.7882 34.8833V34.9554L80.987 37.8732L74.8018 34.4023C75.1302 33.4084 75.4267 32.4144 75.6991 31.4285Z" fill="#FF0000"/>
<path d="M74.4336 34.5305L74.5137 34.2901C74.8342 33.3202 75.1306 32.3262 75.395 31.3322L75.4992 30.9395L82.1251 34.6989V34.8993L81.2117 38.33L74.4336 34.5305ZM75.8998 31.8853C75.6754 32.6869 75.4431 33.4885 75.1867 34.242L80.7951 37.3842L81.436 35.0275L75.8998 31.8853Z" fill="#150035"/>
<path d="M82.4132 29.0238L76.917 25.9537C77.2584 23.8814 77.4804 21.7912 77.582 19.6934L83.0622 22.7955L82.4132 29.0238Z" fill="#FF0000"/>
<path d="M76.5723 26.1221V25.9057C76.9112 23.8438 77.1332 21.7643 77.2373 19.6774V19.1724L83.3984 22.6112L82.6854 29.5529L76.5723 26.1221ZM77.8782 20.2064C77.7697 22.0858 77.5664 23.9586 77.2693 25.8175L82.1566 28.5589L82.7415 22.9959L77.8782 20.2064Z" fill="#150035"/>
<path d="M83.6868 20.487V58.1614C83.6525 58.773 83.4752 59.3679 83.169 59.8984C82.8629 60.4289 82.4365 60.88 81.9242 61.2154L31.0243 90.6415C30.5516 90.914 30.167 90.6976 30.167 90.1445C30.1814 89.8408 30.2691 89.5451 30.4226 89.2827C30.5761 89.0203 30.7908 88.7989 31.0483 88.6375C37.7703 85.0465 80.434 60.7264 81.9723 21.4569C81.9902 21.1593 82.0788 20.8703 82.2306 20.6138C82.3825 20.3573 82.5933 20.1407 82.8456 19.982C83.3103 19.7175 83.6868 19.9419 83.6868 20.487Z" fill="#150035"/>
<path d="M30.2552 90.978C30.1182 90.8851 30.0082 90.7575 29.9364 90.6082C29.8647 90.459 29.8337 90.2934 29.8466 90.1283C29.8611 89.766 29.9653 89.413 30.1499 89.101C30.3345 88.789 30.5937 88.5277 30.9042 88.3408C39.1164 83.9561 80.1456 60.101 81.6599 21.4327C81.6805 21.0843 81.7844 20.7459 81.9628 20.446C82.1413 20.1461 82.3891 19.8935 82.6854 19.7093C82.8178 19.62 82.972 19.5683 83.1315 19.5598C83.2909 19.5514 83.4497 19.5864 83.5908 19.6612C83.7207 19.7491 83.8259 19.8691 83.896 20.0095C83.9662 20.1499 83.999 20.306 83.9914 20.4628V58.1371C83.9607 58.8043 83.7709 59.4544 83.4378 60.0331C83.1046 60.6118 82.6379 61.1024 82.0765 61.4637L31.1766 90.9138C31.0147 91.0132 30.8296 91.0685 30.6398 91.0742C30.5056 91.0748 30.3733 91.0418 30.2552 90.978ZM82.9979 20.2544C82.796 20.3879 82.627 20.5654 82.5035 20.7737C82.38 20.9819 82.3052 21.2155 82.2848 21.4567C81.6359 38.0816 73.688 53.9529 58.6496 68.6299C50.4487 76.5844 41.2164 83.4001 31.2006 88.8939C30.9911 89.0314 30.8167 89.2161 30.6915 89.4333C30.5662 89.6505 30.4936 89.894 30.4796 90.1443C30.4796 90.2886 30.4796 90.4008 30.5757 90.4329C30.6255 90.4449 30.6774 90.4453 30.7273 90.4342C30.7773 90.4231 30.8241 90.4007 30.8641 90.3688L81.7641 60.9667C82.2285 60.6593 82.6151 60.2479 82.8932 59.7651C83.1713 59.2823 83.3334 58.7415 83.3664 58.1852V20.5109C83.3759 20.4567 83.3729 20.4012 83.3576 20.3484C83.3424 20.2956 83.3152 20.247 83.2783 20.2063H83.2142C83.1394 20.2061 83.0656 20.2225 82.9979 20.2544Z" fill="#150035"/>
<path d="M72.187 41.1492L71.8691 41.6875L76.1875 44.2396L76.5053 43.7012L72.187 41.1492Z" fill="#150035"/>
<path d="M53.1056 66.5909L52.7881 67.1294L57.1078 69.6792L57.4253 69.1407L53.1056 66.5909Z" fill="#150035"/>
<path d="M71.0079 43.2544L70.6904 43.793L75.0106 46.342L75.328 45.8035L71.0079 43.2544Z" fill="#150035"/>
<path d="M66.6847 50.9542L66.3672 51.4927L70.6869 54.0425L71.0044 53.504L66.6847 50.9542Z" fill="#150035"/>
<path d="M46.8692 72.2622L46.5518 72.8008L50.8719 75.3498L51.1894 74.8113L46.8692 72.2622Z" fill="#150035"/>
<path d="M26.8312 85.8734L26.5137 86.4119L30.8334 88.9617L31.1509 88.4232L26.8312 85.8734Z" fill="#150035"/>
<path d="M78.4303 21.3527L78.1738 21.7595L81.0404 23.5683L81.2968 23.1615L78.4303 21.3527Z" fill="#FF0000"/>
<path d="M76.3962 55.5721L74.9941 54.7705L79.8013 51.9971L81.2034 52.7987L76.3962 55.5641V55.5721Z" fill="white"/>
<path d="M76.3968 55.8688L76.2686 55.7887L74.7383 54.9069V54.5943L74.8745 54.5222L79.8098 51.6846L79.938 51.7727L81.4523 52.6465V52.9431L81.3241 53.0232L76.3968 55.8688ZM75.4754 54.7546L76.3887 55.2837L80.6992 52.7988L79.8018 52.2697L75.4754 54.7546Z" fill="#150035"/>
<path d="M76.4043 55.5802V61.1912L81.2115 58.4258V52.8147L76.4043 55.5802Z" fill="#150035"/>
<path d="M76.4119 61.4719L76.1475 61.3356V55.476L76.2676 55.3959L81.211 52.5422L81.4674 52.6945V58.6182L81.2991 58.6824L76.4119 61.4719ZM76.6522 55.7245V60.7504L80.9707 58.2655V53.2396L76.6522 55.7245Z" fill="#150035"/>
<path d="M74.9863 54.7625V60.3735L76.3884 61.1751V55.564L74.9863 54.7625Z" fill="#FF0000"/>
<path d="M76.3881 61.4799L76.276 61.3917L74.7617 60.518V54.6184L75.0101 54.4661L75.1463 54.5382L76.6766 55.428V61.3276L76.3881 61.4799ZM75.2424 60.2294L76.1478 60.7505V55.7165L75.2424 55.1955V60.2294Z" fill="#150035"/>
<path d="M76.4999 61.3517L76.3076 61.0231L81.0267 58.3057V53.1836H81.4112V58.5462L81.283 58.5943L76.4999 61.3517Z" fill="#FF0000"/>
</g>
<defs>
<clipPath id="clip0">
<rect width="59" height="77" fill="white" transform="translate(25 17)"/>
</clipPath>
</defs>
</svg>
