<svg width="58" height="57" viewBox="0 0 58 57" fill="none" xmlns="http://www.w3.org/2000/svg">
<path d="M54.2576 44.672V17.4694C54.2576 16.2503 53.7649 15.0812 52.8877 14.2191C52.0106 13.3571 50.821 12.8728 49.5805 12.8728H43.837C43.3837 9.3362 41.6391 6.08166 38.9274 3.71432C36.2158 1.34699 32.7217 0.0279334 29.0947 0.00241106H29.0012C25.3581 0.00565771 21.8413 1.31468 19.11 3.68408C16.3788 6.05348 14.6207 9.32056 14.1653 12.8728H8.42182C7.18137 12.8728 5.99173 13.3571 5.11459 14.2191C4.23746 15.0812 3.7447 16.2503 3.7447 17.4694V44.672L0.274271 48.0734C0.187574 48.1593 0.118984 48.2612 0.072433 48.3732C0.0258819 48.4852 0.0022858 48.6052 0.00299756 48.7262V52.4034C0.00299756 53.6225 0.495764 54.7917 1.3729 55.6537C1.80721 56.0805 2.32281 56.4191 2.89026 56.6501C3.45772 56.8811 4.06591 57 4.68012 57H53.3222C54.5627 57 55.7523 56.5157 56.6294 55.6537C57.5066 54.7917 57.9993 53.6225 57.9993 52.4034V48.7262C58 48.6052 57.9765 48.4852 57.9299 48.3732C57.8834 48.2612 57.8148 48.1593 57.7281 48.0734L54.2576 44.672ZM52.9387 45.9682L54.8095 47.8068H3.1928L5.06365 45.9682H52.9387ZM19.1324 6.28134C20.1562 7.22083 21.3124 8.01037 22.5654 8.6256C21.9822 10.2919 21.6452 12.0318 21.5645 13.7922H15.952C16.1486 11.0143 17.2657 8.37614 19.1324 6.28134ZM42.0971 13.7922H36.4846C36.4039 12.0318 36.0669 10.2919 35.4837 8.6256C36.7367 8.01037 37.8929 7.22083 38.9167 6.28134C40.7834 8.37614 41.9005 11.0143 42.0971 13.7922ZM21.6113 15.6308C21.6919 17.3911 22.029 19.131 22.6122 20.7973C21.3592 21.4126 20.203 22.2021 19.1792 23.1416C17.2955 21.0529 16.1617 18.4142 15.952 15.6308H21.6113ZM28.1593 26.2765C26.8982 24.954 25.8594 23.4428 25.0817 21.7994C26.0468 21.4756 27.0492 21.2718 28.0657 21.1926L28.1593 26.2765ZM30.0301 21.1926C31.0782 21.2641 32.1126 21.468 33.1077 21.7994C32.3035 23.4419 31.2324 24.9448 29.9366 26.2489L30.0301 21.1926ZM30.0301 19.354V15.6308H34.7073C34.5718 17.156 34.2257 18.656 33.6783 20.0895C32.4692 19.6842 31.2112 19.4369 29.9366 19.354H30.0301ZM29.9366 13.7922V10.1149C31.2112 10.032 32.4692 9.78468 33.6783 9.37943C34.1897 10.8026 34.5043 12.2867 34.6137 13.7922H29.9366ZM29.9366 8.27625V3.17405C31.1992 4.48496 32.2384 5.98741 33.0141 7.62354C32.0212 7.97056 30.9868 8.18995 29.9366 8.27625ZM28.0657 8.27625C27.0176 8.2048 25.9833 8.00087 24.9882 7.66951C25.7615 6.0099 26.8006 4.48285 28.0657 3.14647V8.27625ZM28.0657 10.1149V13.7922H23.4354C23.5256 12.2733 23.8245 10.7735 24.324 9.33347C25.5309 9.75437 26.789 10.0171 28.0657 10.1149ZM28.0657 15.6308V19.354C26.7911 19.4369 25.5331 19.6842 24.324 20.0895C23.8245 18.6495 23.5256 17.1496 23.4354 15.6308H28.0657ZM23.267 22.5073C24.1012 24.2808 25.2122 25.9155 26.5597 27.3521C24.3026 26.9265 22.1991 25.9246 20.4607 24.447C21.2992 23.6746 22.2439 23.0216 23.267 22.5073ZM34.7353 22.5073C35.7585 23.0216 36.7031 23.6746 37.5416 24.447C35.8032 25.9246 33.6998 26.9265 31.4426 27.3521C32.7902 25.9155 33.9011 24.2808 34.7353 22.5073ZM38.8699 23.1416C37.8461 22.2021 36.6899 21.4126 35.4369 20.7973C36.036 19.1333 36.3889 17.3934 36.4846 15.6308H42.0971C41.8874 18.4142 40.7536 21.0529 38.8699 23.1416ZM34.7353 6.91567C33.9011 5.1421 32.7902 3.50747 31.4426 2.07087C33.6998 2.49648 35.8032 3.49838 37.5416 4.97591C36.7031 5.74834 35.7585 6.4013 34.7353 6.91567ZM23.267 6.91567C22.2439 6.4013 21.2992 5.74834 20.4607 4.97591C22.1991 3.49838 24.3026 2.49648 26.5597 2.07087C25.2122 3.50747 24.1012 5.1421 23.267 6.91567ZM29.0012 29.4205C32.3157 29.4161 35.535 28.3304 38.154 26.3338C40.773 24.3373 42.6436 21.5428 43.4722 18.3887H48.6451V40.4523H9.35725V18.3887H14.5301C15.3588 21.5428 17.2293 24.3373 19.8483 26.3338C22.4673 28.3304 25.6866 29.4161 29.0012 29.4205ZM8.42182 14.7115H14.0344C14.0401 15.3264 14.0838 15.9404 14.1653 16.5501H8.42182C8.17373 16.5501 7.9358 16.647 7.76038 16.8194C7.58495 16.9918 7.4864 17.2256 7.4864 17.4694V41.3716C7.4864 41.6154 7.58495 41.8493 7.76038 42.0217C7.9358 42.1941 8.17373 42.2909 8.42182 42.2909H49.5805C49.8286 42.2909 50.0665 42.1941 50.242 42.0217C50.4174 41.8493 50.5159 41.6154 50.5159 41.3716V17.4694C50.5159 17.2256 50.4174 16.9918 50.242 16.8194C50.0665 16.647 49.8286 16.5501 49.5805 16.5501H43.837C43.9185 15.9404 43.9622 15.3264 43.968 14.7115H49.5805C50.3248 14.7115 51.0386 15.002 51.5648 15.5193C52.0911 16.0365 52.3868 16.738 52.3868 17.4694V44.1296H5.61555V17.4694C5.61555 16.738 5.91121 16.0365 6.43749 15.5193C6.96376 15.002 7.67755 14.7115 8.42182 14.7115ZM53.3222 55.1614H4.68012C3.93585 55.1614 3.22206 54.8708 2.69579 54.3536C2.16951 53.8364 1.87385 53.1349 1.87385 52.4034V49.6455H56.1285V52.4034C56.1285 53.1349 55.8328 53.8364 55.3065 54.3536C54.7803 54.8708 54.0665 55.1614 53.3222 55.1614Z" fill="#FF0000"/>
<path d="M17.5036 38.6128C17.6963 38.6688 17.9022 38.6625 18.0909 38.5946C18.2796 38.5267 18.441 38.4009 18.5513 38.2358L19.6458 36.5903L20.7402 38.1991C20.8249 38.3255 20.9402 38.4295 21.0756 38.5016C21.2111 38.5738 21.3625 38.612 21.5166 38.6128C21.6066 38.6257 21.6979 38.6257 21.7879 38.6128C21.9867 38.5537 22.1599 38.4314 22.2802 38.2649C22.4004 38.0984 22.4609 37.8974 22.452 37.6934V32.1775H20.5812V34.6597L20.4222 34.4299C20.3366 34.3047 20.221 34.2022 20.0856 34.1313C19.9502 34.0604 19.7992 34.0233 19.6458 34.0233C19.4924 34.0233 19.3413 34.0604 19.2059 34.1313C19.0705 34.2022 18.9549 34.3047 18.8694 34.4299L18.7103 34.6597V32.1775H16.8395V37.6934C16.8306 37.8974 16.8911 38.0984 17.0113 38.2649C17.1316 38.4314 17.3048 38.5537 17.5036 38.6128Z" fill="#FF0000"/>
<path d="M24.987 38.6128C25.1797 38.6688 25.3856 38.6625 25.5743 38.5946C25.763 38.5267 25.9244 38.4009 26.0347 38.2358L27.1292 36.5903L28.2236 38.1991C28.3084 38.3255 28.4236 38.4295 28.559 38.5016C28.6945 38.5738 28.846 38.612 29 38.6128C29.09 38.6257 29.1814 38.6257 29.2713 38.6128C29.4701 38.5537 29.6434 38.4314 29.7636 38.2649C29.8839 38.0984 29.9443 37.8974 29.9354 37.6934V32.1775H28.0646V34.6597L27.9056 34.4299C27.82 34.3047 27.7044 34.2022 27.569 34.1313C27.4336 34.0604 27.2826 34.0233 27.1292 34.0233C26.9758 34.0233 26.8247 34.0604 26.6893 34.1313C26.5539 34.2022 26.4383 34.3047 26.3528 34.4299L26.1938 34.6597V32.1775H24.3229V37.6934C24.314 37.8974 24.3745 38.0984 24.4947 38.2649C24.615 38.4314 24.7882 38.5537 24.987 38.6128Z" fill="#FF0000"/>
<path d="M32.4704 38.6128C32.6631 38.6688 32.869 38.6625 33.0577 38.5946C33.2464 38.5267 33.4078 38.4009 33.5181 38.2358L34.6126 36.5903L35.707 38.1991C35.7918 38.3255 35.907 38.4295 36.0424 38.5016C36.1779 38.5738 36.3293 38.612 36.4834 38.6128C36.5734 38.6257 36.6647 38.6257 36.7547 38.6128C36.9535 38.5537 37.1268 38.4314 37.247 38.2649C37.3673 38.0984 37.4277 37.8974 37.4188 37.6934V32.1775H35.548V34.6597L35.389 34.4299C35.3034 34.3047 35.1878 34.2022 35.0524 34.1313C34.917 34.0604 34.766 34.0233 34.6126 34.0233C34.4592 34.0233 34.3081 34.0604 34.1727 34.1313C34.0373 34.2022 33.9217 34.3047 33.8362 34.4299L33.6771 34.6597V32.1775H31.8063V37.6934C31.7974 37.8974 31.8579 38.0984 31.9781 38.2649C32.0984 38.4314 32.2716 38.5537 32.4704 38.6128Z" fill="#FF0000"/>
<path d="M41.1605 36.7741H39.2897V38.6127H41.1605V36.7741Z" fill="#FF0000"/>
<path d="M45.8376 8.27534H50.5148V10.114C50.5143 10.2898 50.5652 10.4621 50.6614 10.6104C50.7575 10.7586 50.8949 10.8767 51.0573 10.9505C51.1806 11.0058 51.3147 11.034 51.4502 11.0333C51.6688 11.0337 51.8806 10.9589 52.0489 10.8218L57.6614 6.22526C57.7673 6.139 57.8526 6.03084 57.9111 5.90848C57.9697 5.78613 58 5.65259 58 5.51739C58 5.38219 57.9697 5.24866 57.9111 5.1263C57.8526 5.00394 57.7673 4.89578 57.6614 4.80952L52.0489 0.212938C51.9122 0.101041 51.7458 0.0297727 51.5694 0.00749426C51.3929 -0.0147842 51.2137 0.0128508 51.0526 0.0871576C50.8916 0.161464 50.7555 0.279361 50.6602 0.427019C50.5649 0.574677 50.5145 0.745972 50.5148 0.920812V2.75944H45.8376C45.5896 2.75944 45.3516 2.8563 45.1762 3.0287C45.0008 3.20111 44.9022 3.43494 44.9022 3.67876V7.35602C44.9022 7.59984 45.0008 7.83367 45.1762 8.00608C45.3516 8.17848 45.5896 8.27534 45.8376 8.27534ZM46.7731 4.59808H51.4502C51.6983 4.59808 51.9362 4.50122 52.1116 4.32881C52.2871 4.15641 52.3856 3.92258 52.3856 3.67876V2.87895L55.6035 5.51739L52.3856 8.15583V7.35602C52.3856 7.11221 52.2871 6.87837 52.1116 6.70597C51.9362 6.53356 51.6983 6.43671 51.4502 6.43671H46.7731V4.59808Z" fill="#FF0000"/>
<path d="M5.95113 10.8218C6.11942 10.9589 6.33124 11.0337 6.5498 11.0333C6.68531 11.034 6.81937 11.0058 6.94268 10.9505C7.10505 10.8767 7.24247 10.7586 7.33863 10.6104C7.43479 10.4621 7.48567 10.2898 7.48523 10.114V8.27534H12.1623C12.4104 8.27534 12.6484 8.17848 12.8238 8.00608C12.9992 7.83367 13.0978 7.59984 13.0978 7.35602V3.67876C13.0978 3.43494 12.9992 3.20111 12.8238 3.0287C12.6484 2.8563 12.4104 2.75944 12.1623 2.75944H7.48523V0.920812C7.48552 0.745972 7.43507 0.574677 7.3398 0.427019C7.24453 0.279361 7.1084 0.161464 6.94736 0.0871576C6.78632 0.0128508 6.60706 -0.0147842 6.43061 0.00749426C6.25416 0.0297727 6.08783 0.101041 5.95113 0.212938L0.338583 4.80952C0.232655 4.89578 0.147391 5.00394 0.0888669 5.1263C0.0303431 5.24866 0 5.38219 0 5.51739C0 5.65259 0.0303431 5.78613 0.0888669 5.90848C0.147391 6.03084 0.232655 6.139 0.338583 6.22526L5.95113 10.8218ZM5.61438 2.87895V3.67876C5.61438 3.92258 5.71293 4.15641 5.88836 4.32881C6.06378 4.50122 6.30171 4.59808 6.5498 4.59808H11.2269V6.43671H6.5498C6.30171 6.43671 6.06378 6.53356 5.88836 6.70597C5.71293 6.87837 5.61438 7.11221 5.61438 7.35602V8.15583L2.39652 5.51739L5.61438 2.87895Z" fill="#FF0000"/>
</svg>
