<svg width="643" height="618" viewBox="0 0 643 618" fill="none" xmlns="http://www.w3.org/2000/svg">
<path d="M242.087 90.7056L252.291 200H280.687L248.484 47.4952H242.087H235.693L203.487 200H231.886L242.087 90.7056Z" fill="#201600"/>
<path d="M214.592 117.633C220.505 120.823 228.529 124.061 238.667 127.347L241.134 100.892C235.028 98.7314 230.198 96.4585 226.643 94.0739C221.991 90.9465 219.665 87.0715 219.665 82.4488C219.665 77.4957 221.65 73.5064 225.619 70.4809C229.589 67.4554 235.15 65.9451 242.303 65.9501C249.721 65.9501 255.479 67.7584 259.578 71.3751C263.677 74.9918 265.726 80.0555 265.726 86.566H295C295 78.0335 292.804 70.4126 288.413 63.7033C284.021 56.9941 277.857 51.8 269.92 48.1212C261.981 44.4424 252.939 42.603 242.794 42.603C232.719 42.603 223.627 44.2996 215.519 47.6927C207.411 51.0859 201.198 55.7881 196.881 61.7993C192.552 67.8255 190.389 74.6801 190.391 82.3631C190.391 97.1528 198.458 108.91 214.592 117.633Z" fill="#FF0000"/>
<path d="M235.154 164.991C221.967 162.867 215.373 155.222 215.37 142.057H186C186 151.248 188.357 159.321 193.071 166.276C197.785 173.231 204.632 178.722 213.614 182.749C219.778 185.472 226.308 187.276 232.995 188.103L235.154 164.991Z" fill="#FF0000"/>
<path d="M247.182 102.882C245.768 102.454 244.413 102.018 243.088 101.582L245.723 129.799C252.164 132.193 256.847 134.508 259.772 136.744C263.684 139.702 265.641 143.949 265.641 149.483C265.641 154.565 263.689 158.522 259.787 161.354C256.996 163.377 253.412 164.666 249.061 165.244L251.227 188.446C263.384 187.452 273.328 184.055 281.059 178.255C290.363 171.255 295.015 161.6 295.015 149.289C295.015 138.216 291.209 128.966 283.597 121.542C275.985 114.117 263.847 107.897 247.182 102.882Z" fill="#FF0000"/>
<path d="M261.104 37.4723L242.087 0L223.074 37.4723L237.863 37.4909L242.087 10.7122L246.311 37.4909L261.104 37.4723Z" fill="#000A10"/>
<path d="M575.964 615.97C586.43 616.362 596.822 614.061 606.147 609.287L602.922 602.908C594.513 607.173 585.144 609.187 575.726 608.752C566.309 608.318 557.165 605.45 549.184 600.428L396.178 503.509L392.326 509.596L545.332 606.515C554.533 612.309 565.099 615.571 575.964 615.97Z" fill="#150035"/>
<path d="M617.809 603.278C624.326 598.049 634.141 583.946 624.766 568L618.548 571.649C627.176 586.286 613.881 597.218 613.311 597.682L617.809 603.278Z" fill="#150035"/>
<path d="M400.04 344.607L401.175 313.511L393.387 314.714C385.213 297.117 369.522 279.938 346.234 265.354C308.149 241.303 262.794 201.418 211.698 200.419C163.752 199.327 110.161 235.463 72.7224 255.27C48.4297 268.222 31.5358 284.005 22.0963 301.098L14.4524 299.296L13.251 332.224L13.0438 332.216C12 360.824 29.98 390.127 66.956 413.307C140.907 459.701 263.371 464.17 340.506 423.288C379.849 402.443 399.736 373.796 400.04 344.607ZM305.999 401.617C277.372 416.798 239.119 394.506 202.383 393.165C165.648 391.825 130.434 411.298 102.985 394.209C48.0964 359.789 50.0126 307.271 107.265 276.908C164.518 246.545 255.39 249.895 310.279 284.316C365.168 318.736 363.221 371.149 305.999 401.617Z" fill="#150035"/>
<path d="M65.0471 416.351C28.1044 393.207 8.45279 363.29 9.59246 332.056L10.9527 294.775L20.2412 296.982C30.5157 279.747 47.9864 264.262 70.9714 252.092C77.4578 248.662 84.412 244.729 91.7535 240.603C127.156 220.687 171.172 195.895 211.761 196.788L213.246 196.843C254.401 198.344 291.428 223.913 324.152 246.142C332.55 251.915 340.475 257.359 348.181 262.207C370.218 276.02 386.514 292.737 395.506 310.64L404.963 309.186L403.638 345.499C402.934 377.095 381.143 405.812 342.194 426.29C303.245 446.769 252.592 456.373 202.426 454.542C152.259 452.712 102.462 439.824 65.0471 416.351ZM397.459 317.769L391.27 318.72L390.15 316.257C382.045 298.663 366.226 282.136 344.358 268.434C336.557 263.374 328.563 257.893 320.206 251.949C288.301 230.027 252.176 205.321 213.058 203.893L211.711 203.844C172.982 203.123 129.919 227.396 95.3628 246.859C87.9497 251.051 80.9265 254.981 74.4042 258.445C51.5956 270.518 34.6133 285.882 25.2479 302.839L23.95 305.248L17.883 303.815L16.8417 332.355C15.8016 360.859 34.3255 388.521 68.93 410.369C141.8 456.066 262.883 460.485 338.889 420.219C375.76 400.806 396.207 373.874 396.511 344.686L396.617 341.783L397.459 317.769ZM242.198 403.925C229.111 400.27 215.693 397.926 202.142 396.928C188.872 396.875 175.634 398.236 162.651 400.988C140.379 404.984 119.325 408.783 101.008 397.251C73.5329 379.918 58.6241 357.405 59.4813 333.91C60.3386 310.416 76.8485 289.049 105.584 273.733C163.757 242.781 256.425 246.162 312.222 281.273C339.902 298.647 354.673 321.155 353.816 344.65C352.959 368.145 336.552 389.515 307.715 404.793C299.108 409.163 289.479 411.119 279.851 410.453C267.148 409.471 254.572 407.24 242.307 403.79L242.198 403.925ZM243.9 397.067C266.323 402.21 287.465 407.375 304.282 398.44C330.793 384.392 345.8 365.358 346.565 344.385C347.331 323.413 333.75 303.335 308.334 287.393C254.528 253.6 165.071 250.336 108.946 280.118C82.4353 294.166 67.4217 313.373 66.6628 334.172C65.9038 354.972 79.4777 375.222 104.894 391.165C120.881 401.193 139.672 397.831 161.423 393.92C174.922 390.968 188.7 389.487 202.517 389.503C216.558 390.542 230.46 392.985 244.014 396.795L243.9 397.067Z" fill="#150035"/>
<path d="M347.543 230.424C273.594 183.995 151.13 179.526 73.9934 220.442C-3.14314 261.359 -5.72377 332.085 68.227 378.479C142.178 424.874 264.642 429.342 341.777 388.46C418.912 347.579 421.494 276.818 347.543 230.424ZM307.27 366.789C250.017 397.152 159.11 393.835 104.256 359.381C49.4031 324.928 51.2836 272.444 108.536 242.08C165.789 211.717 256.661 215.068 311.55 249.488C366.439 283.908 364.482 336.597 307.27 366.789Z" fill="#FF0000"/>
<path d="M66.318 381.524C29.3753 358.38 9.72365 328.463 10.8621 297.263C12.0005 266.064 33.7801 237.658 72.3126 217.234C150.329 175.9 274.658 180.402 349.453 227.346C386.36 250.523 406.046 280.441 404.908 311.641C403.769 342.841 381.99 371.246 343.459 391.636C304.467 412.321 253.863 421.546 203.698 419.681C153.533 417.816 103.733 404.997 66.318 381.524ZM75.537 223.613C39.5754 242.748 19.0835 269.021 18.0435 297.525C17.0034 326.03 35.5336 353.519 70.1318 375.54C143.002 421.237 264.118 425.691 340.091 385.39C376.226 366.227 396.683 339.987 397.726 311.379C398.77 282.771 380.278 255.179 345.638 233.365C309.199 210.62 260.737 198.092 211.848 196.308C162.959 194.524 113.678 203.486 75.7787 223.622L75.537 223.613ZM102.209 362.421C74.8037 345.092 59.8949 322.578 60.7522 299.084C61.6095 275.589 78.1193 254.222 106.854 238.906C165.017 208.23 257.685 211.612 313.493 246.446C341.173 263.82 355.944 286.328 355.087 309.823C354.229 333.318 337.823 354.689 308.986 369.966C280.148 385.244 242.14 392.264 204.748 390.9C167.356 389.535 130.23 379.947 102.347 362.426L102.209 362.421ZM309.605 252.566C255.834 218.775 166.342 215.51 110.217 245.291C83.7062 259.339 68.6925 278.546 67.9336 299.346C67.1747 320.145 80.7486 340.396 106.165 356.338C159.972 390.096 249.429 393.36 305.553 363.613C332.064 349.566 347.071 330.531 347.836 309.559C348.601 288.586 335.021 268.509 309.605 252.566Z" fill="#150035"/>
<path d="M285.718 409.803L280.193 409.601L278.943 443.876L284.467 444.077L285.718 409.803Z" fill="#FF0000"/>
<path d="M49.7024 364.103L44.1782 363.901L42.9276 398.176L48.4518 398.377L49.7024 364.103Z" fill="#FF0000"/>
<path d="M95.8208 391.595L90.2966 391.393L89.046 425.668L94.5702 425.87L95.8208 391.595Z" fill="#FF0000"/>
<path d="M291.979 238.187L286.455 237.986L285.203 272.295L290.727 272.497L291.979 238.187Z" fill="#FF0000"/>
<path d="M141.103 229.776L135.579 229.574L134.327 263.884L139.851 264.085L141.103 229.776Z" fill="#FF0000"/>
<path d="M241.406 262.67C207.777 241.55 152.087 239.518 117.112 258.135C82.137 276.752 80.8597 308.916 114.488 330.036C148.117 351.156 203.809 353.154 238.782 334.571C273.756 315.989 275.069 283.792 241.406 262.67Z" fill="white"/>
<path d="M600.927 541.979C601.218 541.469 601.299 540.867 601.152 540.299C601.004 539.731 600.641 539.243 600.139 538.94L351.737 384.569C350.958 384.37 350.136 384.412 349.382 384.69L326.784 396.667C325.607 397.443 324.63 398.486 323.931 399.711C323.231 400.935 322.83 402.307 322.758 403.716L321.876 427.902C321.819 428.376 321.86 428.857 321.998 429.315C322.136 429.773 322.368 430.197 322.678 430.56L571.08 584.932C571.584 585.239 572.187 585.336 572.762 585.202C573.336 585.067 573.834 584.712 574.149 584.213L600.927 541.979Z" fill="white"/>
<path d="M569.276 587.945L320.839 433.572L320.069 432.887C318.836 431.453 318.221 429.59 318.357 427.704L319.239 403.518C319.332 401.47 319.921 399.474 320.955 397.704C321.989 395.934 323.438 394.441 325.176 393.356L347.774 381.379C349.32 380.682 351.058 380.538 352.698 380.971L353.25 380.991L602.12 535.829C602.772 536.218 603.342 536.732 603.794 537.342C604.247 537.953 604.574 538.647 604.756 539.385C605.088 540.898 604.806 542.48 603.973 543.785L577.263 586.022C576.714 586.879 575.95 587.578 575.047 588.049C574.145 588.52 573.135 588.746 572.118 588.706C571.121 588.704 570.141 588.442 569.276 587.945ZM350.679 387.989L328.646 399.64C328.023 400.116 327.508 400.719 327.137 401.41C326.766 402.1 326.547 402.862 326.495 403.644L325.612 427.83L572.083 581.128L597.325 541.224L350.679 387.989Z" fill="#150035"/>
<path d="M598.531 574.482L575.968 586.459C573.818 587.592 572.17 586.321 572.275 583.453L573.158 559.267C573.228 557.845 573.633 556.459 574.338 555.223C575.044 553.986 576.032 552.933 577.22 552.15L599.782 540.207C601.932 539.075 603.58 540.346 603.476 543.179L602.594 567.365C602.523 568.787 602.119 570.173 601.413 571.409C600.707 572.646 599.72 573.698 598.531 574.482Z" fill="#FF0000"/>
<path d="M571.56 589.793C570.568 589.089 569.78 588.137 569.274 587.031C568.768 585.925 568.562 584.705 568.678 583.495L569.56 559.309C569.66 557.258 570.255 555.262 571.296 553.492C572.336 551.722 573.789 550.232 575.532 549.148L598.094 537.205C599.011 536.647 600.065 536.353 601.138 536.356C602.211 536.359 603.263 536.657 604.178 537.219C605.164 537.919 605.949 538.866 606.455 539.965C606.961 541.064 607.17 542.277 607.061 543.482L606.178 567.668C606.08 569.715 605.489 571.708 604.455 573.478C603.421 575.247 601.976 576.74 600.242 577.831L577.644 589.807C576.576 590.387 575.371 590.666 574.157 590.614C573.237 590.558 572.345 590.276 571.56 589.793ZM596.843 571.479C597.457 570.989 597.961 570.377 598.326 569.682C598.691 568.986 598.907 568.223 598.961 567.439L599.806 544.29L578.793 555.459C578.172 555.945 577.66 556.555 577.289 557.25C576.918 557.946 576.697 558.712 576.641 559.498L575.802 582.474L596.673 571.404L596.843 571.479Z" fill="#150035"/>
<path d="M322.551 411.32L321.952 427.731L572.276 583.453L572.862 567.387L322.551 411.32Z" fill="#150035"/>
<path d="M346.568 406.175L343.651 410.875L472.806 491.165L475.723 486.466L346.568 406.175Z" fill="#150035"/>
<path d="M500.23 502.465L497.311 507.163L540.09 533.777L543.008 529.079L500.23 502.465Z" fill="#150035"/>
<path d="M208.388 369.789C279.131 372.37 314.637 335.402 315.034 334.966L310.982 331.359C310.55 331.827 265.818 378.147 175.984 360.58L174.921 366.008C185.96 368.145 197.15 369.41 208.388 369.789Z" fill="white"/>
<path d="M265.099 349.543C302.1 336.016 311.48 310.134 311.831 309.04L306.608 307.223C306.599 307.465 297.588 331.769 263.214 344.354L265.099 349.543Z" fill="white"/>
<path d="M83.8364 320.199C90.8778 308.66 100.865 299.208 112.77 292.816L110.042 287.977C97.2713 294.864 86.5744 305.045 79.0615 317.465L83.8364 320.199Z" fill="#FF0000"/>
<path d="M324.977 420.611L319.453 420.409L319.076 430.74L324.6 430.942L324.977 420.611Z" fill="#FF0000"/>
<path d="M184.253 305.457C178.848 309.55 182.977 315.79 183.838 316.825C182.026 316.274 171.691 313.372 164.158 316.107C164.158 316.107 163.916 316.098 164.158 316.107C169.597 312.015 165.365 305.772 164.574 304.705C166.386 305.255 176.823 308.196 184.357 305.427C184.223 305.318 184.359 305.392 184.253 305.457Z" fill="#150035"/>
<path d="M156.404 287.938C151 292.031 155.129 298.271 155.99 299.306C154.177 298.755 143.843 295.853 136.31 298.588C136.31 298.588 136.068 298.579 136.31 298.588C141.749 294.496 137.517 288.253 136.726 287.186C138.538 287.736 148.975 290.677 156.509 287.908C156.409 287.8 156.407 287.869 156.404 287.938Z" fill="#150035"/>
<path d="M213.514 289.953C208.109 294.046 212.238 300.286 213.099 301.32C213.099 301.32 213.099 301.32 212.926 301.314C211.149 300.765 200.779 297.861 193.246 300.596C193.246 300.596 193.039 300.588 193.246 300.596C198.651 296.503 194.419 290.26 193.662 289.194C193.662 289.194 193.662 289.194 193.835 289.2C195.613 289.75 206.084 292.692 213.618 289.922C213.484 289.813 213.585 289.886 213.514 289.953Z" fill="#150035"/>
<path d="M185.596 272.432C180.192 276.524 184.32 282.764 185.181 283.799C183.403 283.25 173.034 280.346 165.501 283.081C165.501 283.081 165.294 283.073 165.501 283.081C170.906 278.988 166.708 272.746 165.917 271.679C167.73 272.229 178.201 275.172 185.735 272.402C185.566 272.292 185.667 272.365 185.596 272.432Z" fill="#150035"/>
</svg>
