<svg width="58" height="57" viewBox="0 0 58 57" fill="none" xmlns="http://www.w3.org/2000/svg">
<path d="M56.8673 0H38.8705C38.4123 0 37.9993 0.271307 37.8239 0.687228C37.6487 1.10326 37.7457 1.58208 38.0695 1.90048L42.3085 6.06638L28.0413 20.0877L14.8648 7.13825C14.4223 6.70362 13.7053 6.70362 13.2627 7.13825L0.335506 19.8427C-0.106853 20.2774 -0.106853 20.9823 0.335506 21.4172C0.556741 21.6345 0.846625 21.7433 1.13651 21.7433C1.42639 21.7433 1.71628 21.6345 1.93751 21.4172L14.0638 9.49996L29.8447 25.009C30.066 25.2263 30.3558 25.3351 30.6457 25.3351C30.9356 25.3351 31.2255 25.2263 31.4467 25.009C31.8891 24.5742 31.8891 23.8693 31.4467 23.4345L29.6434 21.6622L43.9105 7.64089L50.2359 13.8573L38.7388 25.1565C38.2964 25.5912 38.2964 26.2961 38.7388 26.731C38.96 26.9483 39.2499 27.0571 39.5398 27.0571C39.8297 27.0571 40.1196 26.9483 40.3408 26.731L51.8379 15.4319L56.0662 19.5873C56.2829 19.8003 56.5727 19.9134 56.8674 19.9134C57.0133 19.9134 57.1606 19.8857 57.3007 19.8287C57.7239 19.6563 58 19.2504 58 18.8001V1.11328C58.0001 0.498527 57.4928 0 56.8673 0ZM55.7345 16.1123L41.6053 2.22656H55.7345V16.1123Z" fill="#FF0000"/>
<path d="M37.5364 27.9122C37.3258 27.704 37.0335 27.586 36.7356 27.586C36.4377 27.586 36.1454 27.704 35.9347 27.9122C35.7229 28.1192 35.6028 28.4065 35.6028 28.6992C35.6028 28.992 35.7229 29.2793 35.9347 29.4862C36.1454 29.6933 36.4377 29.8125 36.7356 29.8125C37.0335 29.8125 37.3258 29.6934 37.5364 29.4862C37.7471 29.2793 37.8684 28.992 37.8684 28.6992C37.8684 28.4065 37.7472 28.1192 37.5364 27.9122Z" fill="#FF0000"/>
<path d="M21.8049 29.5415L15.6649 23.5074L17.4932 21.7107C17.9356 21.2759 17.9356 20.571 17.4933 20.1363C17.0508 19.7016 16.3337 19.7016 15.8911 20.1363L0.33429 35.4251C-0.108068 35.8598 -0.108068 36.5647 0.33429 36.9996C0.555526 37.2169 0.845409 37.3257 1.13529 37.3257C1.42518 37.3257 1.71506 37.2169 1.9363 36.9996L14.0629 25.0819L20.2029 31.116C20.4242 31.3333 20.714 31.4421 21.0039 31.4421C21.2938 31.4421 21.5837 31.3333 21.8049 31.116C22.2473 30.6813 22.2473 29.9763 21.8049 29.5415Z" fill="#FF0000"/>
<path d="M29.0526 40.8465L28.9997 40.8464C28.3742 40.8464 27.8669 41.3449 27.8669 41.9597C27.8669 42.5744 28.3742 43.073 28.9997 43.073L29.0358 43.0731C29.0387 43.0731 29.0416 43.0731 29.0444 43.0731C29.666 43.0731 30.1724 42.58 30.177 41.968C30.1817 41.3533 29.6782 40.8511 29.0526 40.8465Z" fill="#FF0000"/>
<path d="M56.8666 54.7734H54.8796V49.7845C54.8796 49.2733 54.5254 48.8277 54.0206 48.7043L48.7555 47.4151L46.868 42.9393L49.6631 38.3696C49.9311 37.9314 49.8611 37.3702 49.4933 37.0087L45.1032 32.6943C44.7353 32.3328 44.1642 32.2641 43.7185 32.5274L39.0686 35.2743L34.5144 33.4195L33.2026 28.2451C33.077 27.749 32.6236 27.4009 32.1034 27.4009H25.8958C25.3756 27.4009 24.9223 27.749 24.7967 28.2451L23.4849 33.4195L18.9307 35.2743L14.2808 32.5274C13.8349 32.2639 13.264 32.3328 12.896 32.6943L8.50608 37.0088C8.13826 37.3703 8.06826 37.9315 8.33628 38.3697L11.1313 42.9393L9.24399 47.4151L3.97885 48.7043C3.47407 48.8277 3.11984 49.2733 3.11984 49.7845V54.7734H1.1328C0.507268 54.7734 0 55.272 0 55.8867C0 56.5015 0.507268 57 1.1328 57H56.8666C57.4921 57 57.9994 56.5015 57.9994 55.8867C57.9994 55.272 57.4921 54.7734 56.8666 54.7734ZM52.6138 54.7734H41.0366C41.6657 50.9917 40.422 47.1066 37.625 44.3577C36.3986 43.1523 34.9608 42.2355 33.3521 41.6327C32.7676 41.4136 32.1131 41.7017 31.8901 42.2763C31.6672 42.8507 31.9605 43.494 32.545 43.7131C33.8535 44.2034 35.0238 44.95 36.023 45.9321C38.3891 48.2575 39.3902 51.5819 38.7339 54.7733H19.2645C18.6084 51.5818 19.6094 48.2574 21.9756 45.9321C22.9847 44.9404 24.1676 44.1891 25.4913 43.6991C26.0768 43.4824 26.3726 42.8402 26.1522 42.2648C25.9316 41.6895 25.2782 41.3989 24.6928 41.6153C23.0654 42.2177 21.6121 43.1403 20.3735 44.3576C17.5766 47.1064 16.3328 50.9914 16.962 54.7733H5.38533V50.6545L10.3456 49.44C10.6942 49.3547 10.9808 49.1121 11.1183 48.786L13.4429 43.273C13.5805 42.9468 13.5525 42.5759 13.3673 42.2733L10.734 37.9681L13.8722 34.884L18.2529 37.4719C18.5608 37.654 18.9386 37.6816 19.2702 37.5463L24.8797 35.2617C25.2115 35.1266 25.4584 34.8449 25.5452 34.5024L26.781 29.6275H31.2182L32.4539 34.5024C32.5407 34.8449 32.7877 35.1266 33.1194 35.2617L38.729 37.5463C39.0608 37.6816 39.4384 37.6541 39.7462 37.4719L44.127 34.884L47.2652 37.9681L44.6319 42.2733C44.4467 42.576 44.4187 42.9469 44.5562 43.273L46.8808 48.786C47.0183 49.1121 47.3049 49.3547 47.6535 49.44L52.6138 50.6545V54.7734Z" fill="#FF0000"/>
</svg>
