<svg width="62" height="57" viewBox="0 0 62 57" fill="none" xmlns="http://www.w3.org/2000/svg">
<path d="M57.6022 0H4.398C1.97298 0 0 1.96102 0 4.37147V40.2381C0 42.6484 1.97298 44.6094 4.398 44.6094H24.4559V47.2305C24.4559 48.3304 23.9234 49.3665 23.0659 49.935L20.7961 51.44H18.9915C17.823 51.44 16.8724 52.3848 16.8724 53.5462V54.8938C16.8724 56.0552 17.823 57 18.9915 57H28.8808C29.3825 57 29.789 56.596 29.789 56.0973C29.789 55.5987 29.3825 55.1946 28.8808 55.1946H18.9915C18.8246 55.1946 18.6888 55.0597 18.6888 54.8938V53.5462C18.6888 53.3803 18.8246 53.2454 18.9915 53.2454H43.0085C43.1754 53.2454 43.3112 53.3803 43.3112 53.5462V54.8938C43.3112 55.0597 43.1754 55.1946 43.0085 55.1946H33.1191C32.6174 55.1946 32.2109 55.5987 32.2109 56.0973C32.2109 56.596 32.6174 57 33.1191 57H43.0085C44.177 57 45.1276 56.0552 45.1276 54.8938V53.5462C45.1276 52.3848 44.177 51.44 43.0085 51.44H41.2039L38.934 49.935C38.0766 49.3665 37.5441 48.3302 37.5441 47.2305V44.6094H57.602C60.027 44.6094 62 42.6484 62 40.2381V4.37147C62.0002 1.96102 60.0273 0 57.6022 0ZM37.9261 51.437L37.9307 51.44H24.0694L24.074 51.437C25.4505 50.5244 26.2723 48.9519 26.2723 47.2306V44.6096H35.7279V47.2306C35.7279 48.9518 36.5497 50.5243 37.9261 51.437ZM60.1838 40.2381C60.1838 41.653 59.0258 42.804 57.6022 42.804C56.1603 42.804 5.78452 42.804 4.39812 42.804C2.97454 42.804 1.81652 41.653 1.81652 40.2381V4.37147C1.81652 2.95652 2.97454 1.80552 4.39812 1.80552H57.6022C59.0258 1.80552 60.1838 2.95652 60.1838 4.37147V40.2381Z" fill="#FF0000"/>
<path d="M58.2226 5.15646C58.2226 4.38351 57.5899 3.75475 56.8124 3.75475C54.6765 3.75475 7.32848 3.75475 5.18803 3.75475C4.41037 3.75475 3.77778 4.38363 3.77778 5.15646V39.4529C3.77778 40.2258 4.41049 40.8546 5.18816 40.8546H56.8123C57.59 40.8546 58.2226 40.2257 58.2226 39.4529C58.2228 38.4587 58.2226 7.3712 58.2226 5.15646ZM11.0474 5.56015H56.4061V8.21877H11.0474V5.56015ZM5.59394 5.56015H9.23098V8.21877H5.59394V5.56015ZM56.4064 39.0493H5.59394V10.0242H56.4062L56.4064 39.0493Z" fill="#FF0000"/>
<path d="M8.61998 15.2244V19.1354C8.61998 20.0807 9.03073 20.9323 9.68402 21.5234V32.9291H9.52818C9.02649 32.9291 8.61998 33.3331 8.61998 33.8318C8.61998 34.3304 9.02649 34.7345 9.52818 34.7345H28.2573C28.759 34.7345 29.1655 34.3304 29.1655 33.8318C29.1655 33.3331 28.759 32.9291 28.2573 32.9291H28.1015V21.5234C28.7548 20.9322 29.1655 20.0805 29.1655 19.1352V15.2243C29.1655 14.2284 28.3505 13.4181 27.3484 13.4181C26.7357 13.4181 11.0263 13.4181 10.4371 13.4181C9.43506 13.4183 8.61998 14.2284 8.61998 15.2244ZM17.9846 32.9291H15.7147V27.3018H17.9846V32.9291ZM22.0707 32.9291H19.801V27.3018H22.0707V32.9291ZM24.4832 15.2237H27.3484L27.3491 19.1354C27.3491 19.9338 26.6883 20.5597 25.9161 20.5597C25.1261 20.5597 24.4832 19.9207 24.4832 19.1354V15.2237ZM19.801 15.2237H22.6668V19.1354C22.6668 19.9207 22.0239 20.5597 21.2339 20.5597C20.4444 20.5597 19.802 19.9215 19.801 19.1369V15.2237ZM15.1187 15.2237H17.9845V19.1354C17.9845 19.9131 17.3434 20.5596 16.5516 20.5596C15.7616 20.5596 15.1187 19.9206 15.1187 19.1354V15.2237ZM14.2105 21.3728C15.497 22.7005 17.6181 22.689 18.8928 21.3728C20.169 22.6922 22.298 22.696 23.575 21.3728C24.2582 22.0794 25.25 22.4601 26.2851 22.3443V32.9291H23.8871V26.978C23.8871 26.1611 23.2185 25.4964 22.3965 25.4964C21.6545 25.4964 16.1315 25.4964 15.3889 25.4964C14.567 25.4964 13.8982 26.161 13.8982 26.978V32.9291H11.5004V22.3443C12.481 22.4543 13.4878 22.1185 14.2105 21.3728ZM10.4364 15.2244L10.4371 15.2237H13.3023V19.1354C13.3022 19.9805 12.5585 20.6513 11.6999 20.5489C10.9867 20.4647 10.4364 19.8592 10.4364 19.1354V15.2244Z" fill="#FF0000"/>
<path d="M33.0146 34.7344H52.7831C53.2848 34.7344 53.6913 34.3303 53.6913 33.8317C53.6913 33.333 53.2848 32.929 52.7831 32.929H52.7787V28.5053C52.7787 28.0066 52.3722 27.6026 51.8705 27.6026C51.3688 27.6026 50.9623 28.0066 50.9623 28.5053V32.929H49.1899V18.7022H50.9623V24.2927C50.9623 24.7913 51.3688 25.1954 51.8705 25.1954C52.3722 25.1954 52.7787 24.7913 52.7787 24.2927V18.0686C52.7787 17.4225 52.2498 16.8968 51.5998 16.8968H48.5527C47.9025 16.8968 47.3736 17.4225 47.3736 18.0686V32.929H45.6012V21.3788C45.6012 20.7327 45.0722 20.2069 44.4222 20.2069H41.3751C40.725 20.2069 40.196 20.7327 40.196 21.3788V32.929H38.4236V24.689C38.4236 24.0428 37.8946 23.5171 37.2446 23.5171H34.1975C33.5474 23.5171 33.0184 24.0428 33.0184 24.689V32.929H33.0148C32.5131 32.929 32.1066 33.333 32.1066 33.8317C32.1066 34.3303 32.5129 34.7344 33.0146 34.7344ZM42.0122 22.0123H43.7846V32.929H42.0122V22.0123ZM34.8346 25.3225H36.6071V32.929H34.8346V25.3225Z" fill="#FF0000"/>
</svg>
