<svg width="58" height="57" viewBox="0 0 58 57" fill="none" xmlns="http://www.w3.org/2000/svg">
<path d="M56.5854 51.555H55.1585V14.3301C55.1585 13.5628 54.524 12.9387 53.744 12.9387H45.1164C44.3364 12.9387 43.7019 13.5628 43.7019 14.3301V51.555H41.5385V46.8295C41.5385 46.3685 41.1586 45.9947 40.6898 45.9947C40.2209 45.9947 39.841 46.3685 39.841 46.8295V51.555H31.7793V24.8857H39.841V42.9429C39.841 43.404 40.2209 43.7778 40.6898 43.7778C41.1586 43.7778 41.5385 43.404 41.5385 42.9429V24.6074C41.5385 23.8401 40.904 23.216 40.1239 23.216H31.4964C30.7163 23.216 30.0818 23.8401 30.0818 24.6074V51.555H27.9184V30.7597C27.9184 29.9924 27.2839 29.3683 26.5039 29.3683H17.8763C17.0963 29.3683 16.4617 29.9924 16.4617 30.7597V51.555H14.2984V41.025C14.2984 40.2577 13.6639 39.6336 12.8838 39.6336H4.25601C3.47597 39.6336 2.84145 40.2577 2.84145 41.025V51.555H1.41456C0.634515 51.555 0 52.1791 0 52.9464V55.6086C0 56.3759 0.634515 57 1.41456 57H56.5854C57.3655 57 58 56.3759 58 55.6086V52.9464C58 52.1791 57.3655 51.555 56.5854 51.555ZM45.3993 14.6084H53.4611V51.555H45.3993V14.6084ZM18.1591 31.038H26.2208V51.555H18.1591V31.038ZM4.53893 41.3033H12.6007V51.555H4.53893V41.3033ZM56.3025 55.3303H1.69747V53.2247H56.3025V55.3303Z" fill="#FF0000"/>
<path d="M12.5331 24.826C13.0231 25.1316 13.579 25.2893 14.1455 25.2893C14.367 25.2893 14.5901 25.2651 14.8115 25.2165C15.5946 25.044 16.263 24.5836 16.6954 23.9196L22.4925 15.5062C22.4974 15.4992 22.5021 15.4921 22.5067 15.485C22.6413 15.2762 22.9238 15.2142 23.1358 15.3464C23.1559 15.3589 23.1764 15.3706 23.1975 15.3814L31.5976 19.6953C32.2906 20.1163 33.1082 20.2516 33.9042 20.0761C34.7127 19.898 35.4024 19.4209 35.8462 18.7327L41.4471 10.0456C41.9706 11.177 43.2245 11.8652 44.5249 11.639C45.2717 11.5093 45.9225 11.1014 46.3573 10.4903C46.7921 9.87917 46.9589 9.13804 46.827 8.40338L45.7325 2.30731C45.4603 0.791219 43.986 -0.225071 42.4435 0.0428604L36.2503 1.11792C34.7701 1.37483 33.7285 2.77605 33.9283 4.2416C34.0327 5.00654 34.4355 5.6762 35.0626 6.12724C35.484 6.43024 35.97 6.60845 36.4779 6.6522L35.7406 7.79572C35.4896 8.18509 35.607 8.70092 36.0028 8.94792C36.3984 9.1947 36.923 9.07938 37.1742 8.69001L38.8708 6.05845C39.0508 5.77917 39.0463 5.42152 38.8591 5.1468C38.6719 4.87207 38.3372 4.73171 38.0064 4.78926L36.9383 4.97471C36.6253 5.02891 36.315 4.95979 36.0644 4.77968C35.8139 4.59958 35.6527 4.32976 35.6105 4.01986C35.5314 3.44003 35.9594 2.86421 36.5451 2.76258L42.7383 1.68751C43.3588 1.58043 43.9513 1.98839 44.0607 2.59794L45.1552 8.69413C45.2083 8.98955 45.1412 9.28754 44.9664 9.53321C44.7915 9.77887 44.5299 9.94295 44.2296 9.99504C43.61 10.1026 43.0164 9.69416 42.907 9.0845L42.6669 7.74596C42.606 7.40657 42.3394 7.13886 41.9957 7.07207C41.6517 7.00528 41.3018 7.15299 41.1142 7.44397L34.4122 17.8388C34.2113 18.1505 33.899 18.3666 33.5328 18.4472C33.1668 18.5278 32.7905 18.4633 32.4738 18.2657C32.4537 18.2532 32.4331 18.2415 32.412 18.2307L24.0103 13.9159C23.016 13.3205 21.7124 13.6135 21.0806 14.579L15.2832 22.9929C15.2784 22.9999 15.2736 23.007 15.269 23.0142C15.0796 23.308 14.7853 23.5116 14.4402 23.5876C14.0949 23.6636 13.7402 23.6029 13.4417 23.4165C13.1428 23.2302 12.9359 22.9406 12.8587 22.6009C12.7821 22.2641 12.8423 21.9181 13.0283 21.6258L20.6496 10.392C20.6533 10.3866 20.6568 10.3813 20.6603 10.376C21.0751 9.7329 21.9447 9.54155 22.5986 9.94941C22.6187 9.96187 22.6392 9.97356 22.6603 9.98436L31.0574 14.2962C32.0559 14.8942 33.3661 14.5962 33.9949 13.6211L35.0514 11.9823C35.3024 11.5929 35.1851 11.0771 34.7892 10.8301C34.3934 10.5831 33.869 10.6985 33.6179 11.088L32.5615 12.7268C32.4269 12.9355 32.1449 12.9977 31.9324 12.8654C31.9124 12.8528 31.8918 12.8411 31.8706 12.8303L23.475 8.51914C22.0377 7.64689 20.1444 8.06988 19.2327 9.47243L11.6105 20.7078C11.6069 20.7132 11.6034 20.7185 11.5998 20.7239C11.1672 21.3943 11.0261 22.1903 11.2022 22.9653C11.3788 23.7398 11.8514 24.4008 12.5331 24.826Z" fill="#FF0000"/>
</svg>
