<svg width="71" height="57" viewBox="0 0 71 57" fill="none" xmlns="http://www.w3.org/2000/svg">
<path d="M67.0431 0.000139967H23.3449C22.7694 0.000139967 22.3028 0.471247 22.3028 1.05257C22.3028 1.63375 22.7694 2.105 23.3449 2.105H67.0431C68.0758 2.105 68.916 2.95352 68.916 3.99642V41.1719H2.0841V3.99629C2.0841 2.95338 2.92432 2.10486 3.95701 2.10486H19.1766C19.752 2.10486 20.2187 1.63361 20.2187 1.05243C20.2187 0.471247 19.752 0 19.1766 0H3.95701C1.77514 0.000140044 0 1.79284 0 3.99629V53.0039C0 55.2073 1.77514 57 3.95701 57H15.4041C15.9796 57 16.4462 56.5288 16.4462 55.9476C16.4462 55.3664 15.9796 54.8951 15.4041 54.8951H3.95701C2.92432 54.8951 2.0841 54.0466 2.0841 53.0037V43.2763H68.9159V53.0037C68.9159 54.0466 68.0757 54.8951 67.043 54.8951H19.5723C18.9968 54.8951 18.5302 55.3664 18.5302 55.9476C18.5302 56.5288 18.9968 57 19.5723 57H67.043C69.225 57 71 55.2073 71 53.0039V3.99629C71.0001 1.79284 69.2251 0.000139967 67.0431 0.000139967Z" fill="#FF0000"/>
<path d="M29.367 53.3732C31.3482 53.3732 33.0166 51.9951 33.4823 50.1384H62.1875C62.7632 50.1384 63.2296 49.6672 63.2296 49.086C63.2296 48.5048 62.7632 48.0336 62.1875 48.0336H33.4823C33.0165 46.1769 31.3482 44.7988 29.367 44.7988C27.3857 44.7988 25.7174 46.1769 25.2516 48.0336H8.81261C8.23712 48.0336 7.77049 48.5048 7.77049 49.086C7.77049 49.6672 8.23712 50.1384 8.81261 50.1384H25.2516C25.7174 51.9951 27.3857 53.3732 29.367 53.3732ZM29.367 46.9036C30.5585 46.9036 31.5279 47.8826 31.5279 49.086C31.5279 50.2894 30.5585 51.2684 29.367 51.2684C28.1754 51.2684 27.2059 50.2894 27.2059 49.086C27.2059 47.8826 28.1754 46.9036 29.367 46.9036Z" fill="#FF0000"/>
<path d="M25.695 16.4581C25.4953 15.9679 25.0276 15.6514 24.5028 15.6514C24.5024 15.6514 24.502 15.6514 24.5016 15.6514C23.9764 15.652 23.5085 15.9693 23.3097 16.4603C23.3065 16.4683 23.3034 16.4763 23.3004 16.4843L19.2078 27.3363C18.7101 28.6018 20.6848 29.3725 21.1554 28.0853L21.9191 26.0605H27.0562L27.8118 28.0824C28.2708 29.3672 30.2577 28.6095 29.7618 27.3393L25.7064 16.4869C25.7027 16.4773 25.6989 16.4676 25.695 16.4581ZM22.7128 23.9557L24.4993 19.2185L26.2696 23.9557H22.7128Z" fill="#FF0000"/>
<path d="M31.9588 27.5373C31.9309 28.16 32.3712 28.7811 33.0263 28.7633C33.1167 28.7628 35.2507 28.7546 36.1022 28.7396C39.1196 28.6862 41.3097 26.0076 41.3097 22.3701C41.3097 18.5462 39.1745 15.9771 35.9964 15.9771H33.0008C32.724 15.9771 32.4587 16.0883 32.2633 16.2861C32.0678 16.4838 31.9582 16.752 31.9588 17.0315V27.5373ZM35.9964 18.0819C38.3772 18.0819 39.2256 20.2971 39.2256 22.3701C39.2256 24.3974 38.2369 26.5968 36.0658 26.635C35.6092 26.6432 34.7505 26.6493 34.0608 26.6534C34.0566 25.3961 34.0505 23.3412 34.0505 22.3584C34.0505 21.5339 34.0471 19.3857 34.0447 18.0819H35.9964Z" fill="#FF0000"/>
<path d="M47.5389 26.6584C46.3667 26.6584 45.2354 26.1777 44.5129 25.3724C44.1263 24.9415 43.4673 24.9091 43.0409 25.2993C42.6145 25.6896 42.5821 26.3551 42.9684 26.7859C44.0794 28.024 45.788 28.7633 47.5387 28.7633C49.6459 28.7633 51.4819 27.3648 51.8097 25.5103C52.0583 24.1046 51.4101 22.262 48.8457 21.3068C47.4549 20.7886 46.164 20.2233 45.8249 20.0729C45.5022 19.8306 45.3459 19.446 45.4051 19.0301C45.4809 18.4977 45.8888 18.0693 46.4966 17.8844C48.2059 17.3644 49.7561 18.6153 49.7915 18.6444C50.2322 19.0147 50.8866 18.9563 51.2559 18.5126C51.6261 18.0677 51.5693 17.4039 51.1287 17.0299C51.0312 16.9472 48.7091 15.013 45.8955 15.8692C44.5115 16.2902 43.5332 17.3868 43.3421 18.7311C43.1639 19.9846 43.7016 21.1901 44.7452 21.8773C44.7912 21.9076 44.8395 21.9342 44.8897 21.9569C44.9524 21.9852 46.4438 22.6557 48.1244 23.2817C49.2943 23.7175 49.8898 24.395 49.7579 25.1405C49.6263 25.8866 48.76 26.6584 47.5389 26.6584Z" fill="#FF0000"/>
<path d="M49.3638 33.7917H55.3518C57.0756 33.7917 58.478 32.3754 58.478 30.6345V13.78C58.478 12.0391 57.0756 10.6229 55.3518 10.6229H15.6482C13.9243 10.6229 12.522 12.0391 12.522 13.78V30.6345C12.522 32.3754 13.9243 33.7917 15.6482 33.7917H45.1955C45.7711 33.7917 46.2376 33.3204 46.2376 32.7392C46.2376 32.1581 45.7711 31.6868 45.1955 31.6868H15.6482C15.0735 31.6868 14.6061 31.2147 14.6061 30.6344V13.78C14.6061 13.1997 15.0735 12.7276 15.6482 12.7276H55.3518C55.9265 12.7276 56.3939 13.1997 56.3939 13.78V30.6345C56.3939 31.2149 55.9265 31.687 55.3518 31.687H49.3638C48.7882 31.687 48.3217 32.1582 48.3217 32.7394C48.3218 33.3206 48.7883 33.7917 49.3638 33.7917Z" fill="#FF0000"/>
</svg>
