<svg width="126" height="167" viewBox="0 0 126 167" fill="none" xmlns="http://www.w3.org/2000/svg">
<path d="M123.474 153.999C110.354 150.719 102.379 138.023 99.4197 132.401L108.091 129.51C110.061 132.681 114.3 138.439 120.084 140.367C120.38 140.466 120.68 140.512 120.974 140.512C122.153 140.512 123.251 139.766 123.642 138.587C124.133 137.112 123.337 135.521 121.864 135.028C117.098 133.44 113.059 127.143 111.902 124.85C111.276 123.605 109.834 123.001 108.498 123.444L94.6806 128.05C93.7979 128.285 69.4352 134.688 49.7615 130.317C37.3568 127.56 25.6091 118.788 17.0319 112.381C15.8728 111.516 14.7735 110.696 13.7431 109.941C12.2816 108.873 10.0148 108.006 8.01238 107.239C7.16345 106.915 6.00436 106.469 5.78703 106.347C5.6548 106.244 5.62737 106.104 5.62737 106.005V100.654C5.81728 96.184 23.5764 31.0124 26.2083 22.9888C26.266 22.9255 26.439 22.8045 26.5572 22.7482L61.4573 6.80787L72.6086 21.3268C73.032 21.9077 72.9933 22.7187 72.5151 23.2553L61.2505 35.8844C60.6927 36.5054 59.7559 36.5793 59.2094 36.1221L54.6539 31.9225C53.9893 31.3085 53.0876 31.0131 52.2007 31.1988C51.3131 31.3816 50.5908 31.9436 50.2201 32.77C49.6321 33.4966 46.2392 34.2168 43.3077 34.2442L42.1894 34.1317C41.0627 34.0121 39.9887 34.5825 39.445 35.5644C38.8986 36.5476 38.9914 37.7623 39.6786 38.6513C40.5908 39.8315 41.3159 40.7929 41.7583 41.388L43.9808 79.19L42.0003 83.154C41.3054 84.5431 41.868 86.2325 43.2585 86.9274C43.6622 87.1292 44.0913 87.2242 44.514 87.2242C45.5472 87.2242 46.5417 86.6538 47.0333 85.6677L49.0448 81.6418C67.0882 68.0464 82.878 80.6431 84.2811 81.8198C89.917 87.4788 90.3404 91.2247 90.3572 91.4357C90.3987 92.9549 91.6429 94.1738 93.1706 94.1738C94.7256 94.1738 95.9839 92.9141 95.9839 91.3605C95.9839 90.8168 95.7842 86.2072 89.9303 79.6218C98.5525 69.1809 108.811 65.8098 120.452 69.6219C121.922 70.1079 123.518 69.2976 123.999 67.8234C124.483 66.3464 123.678 64.7576 122.199 64.2751C112.443 61.0771 98.3626 60.6487 85.6864 75.9104C80.1448 72.2495 65.6252 64.8933 49.3494 74.6394L47.3245 40.2239C47.3132 40.0052 47.2753 39.79 47.212 39.5825C49.0582 39.3117 51.1239 38.7983 52.762 37.8298L55.493 40.3449C58.4794 42.8558 62.8562 42.5414 65.4494 39.6289L76.714 27.0006C78.9449 24.4974 79.132 20.7156 77.1121 17.955L64.5562 1.60672C63.7565 0.565786 62.3393 0.22045 61.1577 0.76061L24.2544 17.616C23.8339 17.8017 21.7077 18.8306 20.9959 20.9653C18.8395 27.4296 0 95.2823 0 100.629V106.007C0 107.886 0.843301 109.625 2.31608 110.779C3.04684 111.35 4.08285 111.761 6.00014 112.494C7.50598 113.071 9.56604 113.859 10.4206 114.483C11.4369 115.228 12.5193 116.037 13.6623 116.89C22.6487 123.601 34.9571 132.792 48.5406 135.81C66.3715 139.773 87.0452 135.653 93.9112 134.039C96.6858 139.63 105.091 154.036 119.978 158.847V163.679C119.978 165.232 121.236 166.492 122.791 166.492C124.347 166.492 125.605 165.232 125.605 163.679V156.728C125.605 155.437 124.726 154.312 123.474 153.999Z" fill="#4F5155"/>
<path d="M76.3609 118.728C46.387 125.161 33.554 104.682 33.0208 103.807C32.2212 102.48 30.4987 102.051 29.1666 102.849C27.8338 103.649 27.4026 105.377 28.2023 106.709C28.3591 106.968 32.1009 113.115 40.0795 118.332C45.5718 121.922 53.9485 125.583 65.2673 125.583C69.0315 125.583 73.1221 125.178 77.5425 124.231C79.0617 123.905 80.0288 122.409 79.7018 120.89C79.3775 119.369 77.897 118.398 76.3609 118.728Z" fill="#4F5155"/>
</svg>
