<svg width="35" height="35" viewBox="0 0 35 35" fill="none" xmlns="http://www.w3.org/2000/svg">
<path d="M17.5 1.78861L22.5876 9.33332L23.4167 8.77423L22.5876 9.33332C22.8506 9.72331 23.2426 10.0081 23.6948 10.1377L32.4424 12.6449L26.8391 19.815C26.5495 20.1856 26.3998 20.6465 26.4162 21.1165L26.7349 30.2108L18.1843 27.0974C17.7423 26.9365 17.2577 26.9365 16.8157 27.0974L8.26508 30.2108L8.58376 21.1165C8.60023 20.6465 8.45049 20.1856 8.16086 19.815L2.55758 12.6449L11.3052 10.1377C11.7574 10.0081 12.1494 9.72331 12.4124 9.33332L17.5 1.78861Z" stroke="#FF0000" stroke-width="2"/>
<path d="M17.0854 9.50907C17.2837 9.21513 17.7163 9.21513 17.9146 9.50907L20.2043 12.9047C20.4016 13.1972 20.6956 13.4108 21.0347 13.508L24.9717 14.6364C25.3125 14.7341 25.4462 15.1456 25.2279 15.4249L22.7061 18.6519C22.4889 18.9299 22.3765 19.2755 22.3889 19.6281L22.5323 23.7211C22.5447 24.0754 22.1947 24.3298 21.8616 24.2085L18.0132 22.8072C17.6817 22.6866 17.3183 22.6866 16.9868 22.8072L13.1384 24.2085C12.8053 24.3298 12.4553 24.0754 12.4677 23.7211L12.6111 19.6281C12.6234 19.2756 12.5111 18.9299 12.2939 18.6519L9.77207 15.4249C9.55377 15.1456 9.68747 14.7341 10.0283 14.6364L13.9653 13.508C14.3044 13.4108 14.5984 13.1972 14.7957 12.9047L17.0854 9.50907Z" stroke="#FF0000"/>
</svg>
