<svg width="30" height="30" viewBox="0 0 30 30" fill="none" xmlns="http://www.w3.org/2000/svg">
<mask id="path-1-inside-1" fill="white">
<path d="M30 15C30 17.9667 29.1203 20.8668 27.472 23.3336C25.8238 25.8003 23.4811 27.7229 20.7403 28.8582C17.9994 29.9935 14.9834 30.2906 12.0736 29.7118C9.16393 29.133 6.49119 27.7044 4.3934 25.6066C2.29561 23.5088 0.866999 20.8361 0.288221 17.9264C-0.290558 15.0166 0.00649254 12.0006 1.14181 9.25975C2.27712 6.51886 4.19971 4.17618 6.66645 2.52796C9.13318 0.879735 12.0333 -3.53778e-08 15 0V15H30Z"/>
</mask>
<path d="M30 15C30 17.9667 29.1203 20.8668 27.472 23.3336C25.8238 25.8003 23.4811 27.7229 20.7403 28.8582C17.9994 29.9935 14.9834 30.2906 12.0736 29.7118C9.16393 29.133 6.49119 27.7044 4.3934 25.6066C2.29561 23.5088 0.866999 20.8361 0.288221 17.9264C-0.290558 15.0166 0.00649254 12.0006 1.14181 9.25975C2.27712 6.51886 4.19971 4.17618 6.66645 2.52796C9.13318 0.879735 12.0333 -3.53778e-08 15 0V15H30Z" stroke="#FF0000" stroke-width="4" mask="url(#path-1-inside-1)"/>
<mask id="path-2-inside-2" fill="white">
<path d="M16 1C17.7072 1 19.3977 1.33626 20.9749 1.98957C22.5521 2.64288 23.9852 3.60045 25.1924 4.80761C26.3996 6.01477 27.3571 7.44788 28.0104 9.02512C28.6637 10.6024 29 12.2928 29 14L16 14V1Z"/>
</mask>
<path d="M16 1C17.7072 1 19.3977 1.33626 20.9749 1.98957C22.5521 2.64288 23.9852 3.60045 25.1924 4.80761C26.3996 6.01477 27.3571 7.44788 28.0104 9.02512C28.6637 10.6024 29 12.2928 29 14L16 14V1Z" stroke="#FF0000" stroke-width="4" mask="url(#path-2-inside-2)"/>
</svg>
