<svg width="27" height="32" viewBox="0 0 27 32" fill="none" xmlns="http://www.w3.org/2000/svg">
<path d="M13.2422 0L0 4.01663V12.3502C0 16.7208 1.26082 20.9003 3.64605 24.4369C5.98031 27.898 9.19734 30.4751 12.9493 31.8896L13.2422 32L13.5351 31.8896C17.287 30.475 20.5041 27.8979 22.8383 24.4369C25.2236 20.9002 26.4844 16.7207 26.4844 12.3502V4.01663L13.2422 0ZM13.2422 25.9339C11.1389 24.8449 9.30709 23.1984 7.9268 21.1519C6.50918 19.0499 5.63766 16.6346 5.36561 14.0851L13.2422 11.6961L21.1188 14.0851C20.8468 16.6346 19.9753 19.05 18.5576 21.152C17.1773 23.1985 15.3455 24.8449 13.2422 25.9339ZM21.2109 12.1638L13.2422 9.74669L5.27344 12.1638V8.26506L13.2422 5.848L21.2109 8.26506V12.1638ZM1.75781 12.3502V5.43275L12.3633 2.21594V4.16525L3.51562 6.84894V12.3502C3.51562 15.9299 4.54752 19.3522 6.49992 22.247C8.02611 24.5098 10.0448 26.3374 12.3633 27.5622V29.6285C5.97094 26.6553 1.75781 19.8733 1.75781 12.3502ZM24.7266 12.3502C24.7266 19.8734 20.5134 26.6553 14.1211 29.6285V27.5622C16.4395 26.3374 18.4583 24.5098 19.9845 22.247C21.9369 19.3522 22.9688 15.9299 22.9688 12.3502V6.84894L14.1211 4.16525V2.21594L24.7266 5.43275V12.3502Z" fill="#FF0000"/>
</svg>
