<svg width="39" height="31" viewBox="0 0 39 31" fill="none" xmlns="http://www.w3.org/2000/svg">
<path d="M36.6764 13.4344L30.565 6.69438C29.3934 5.51475 27.359 5.50656 26.1663 6.70417C25.7812 7.09086 25.518 7.55585 25.3815 8.05183C24.1953 7.13812 22.3851 7.2377 21.2915 8.33573C20.9064 8.72241 20.6432 9.18741 20.5034 9.68178C19.3204 8.76807 17.5087 8.87254 16.4167 9.96728C16.0381 10.3475 15.7781 10.8027 15.6368 11.284L12.7573 8.39278C11.5468 7.17888 9.58058 7.1756 8.357 8.40257C7.14645 9.61647 7.14645 11.5939 8.357 12.8094L19.4195 23.9172L12.8613 24.9516C11.0869 25.2063 9.7496 26.753 9.7496 28.5526C9.7496 29.902 10.8432 31 12.187 31H27.5085C29.8939 31 32.138 30.0667 33.8311 28.3699L36.3855 25.8035C38.0722 24.1115 39 21.8599 39 19.4664C39 17.2311 38.1746 15.0889 36.6764 13.4344ZM35.2351 24.6515L32.6807 27.218C31.2978 28.6048 29.46 29.3684 27.5085 29.3684H12.187C11.7401 29.3684 11.3745 29.0029 11.3745 28.5526C11.3745 27.5605 12.1122 26.7072 13.1002 26.5637L21.2493 25.278C21.5515 25.2306 21.8001 25.0169 21.896 24.7249C21.9902 24.4345 21.9139 24.113 21.6977 23.896L9.50586 11.6544C8.93063 11.0752 8.93063 10.1337 9.51561 9.54473C9.80482 9.25594 10.1835 9.1107 10.5621 9.1107C10.9407 9.1107 11.3193 9.25594 11.6086 9.54633L16.3793 14.3367C16.3907 14.3498 16.4053 14.3628 16.4183 14.3758L19.7397 17.7092C20.0565 18.0273 20.5717 18.0273 20.8885 17.7092C21.2054 17.391 21.2054 16.8738 20.8885 16.5556L17.5395 13.1929C16.992 12.6121 17.0017 11.6902 17.5769 11.111C18.1359 10.553 19.1076 10.5498 19.6666 11.111L21.264 12.7165C21.2737 12.7263 21.2819 12.7361 21.2916 12.7443L22.988 14.446C23.3049 14.7642 23.82 14.7642 24.1369 14.446C24.4537 14.1279 24.4537 13.6107 24.1369 13.2925L22.421 11.5712C21.8668 10.9903 21.8734 10.062 22.4518 9.47949C23.0091 8.92149 23.9825 8.9182 24.5415 9.47949L26.2379 11.1894C26.2395 11.191 26.2395 11.1927 26.2412 11.1927L26.2428 11.1943C26.256 11.2009 26.2527 11.1992 26.2493 11.1975C26.2493 11.1975 26.2493 11.1992 26.2509 11.1992C26.2525 11.2008 26.2525 11.2008 26.2525 11.2008C26.2541 11.2024 26.2541 11.2024 26.2541 11.2024H26.2557C26.2573 11.2024 26.2573 11.2024 26.2573 11.2024C26.579 11.5025 27.0795 11.4944 27.3882 11.1812C27.7035 10.863 27.7035 10.3475 27.3866 10.0293L27.2891 9.93141C26.7399 9.35054 26.748 8.42712 27.3249 7.84786C27.8839 7.28986 28.8815 7.31433 29.3885 7.82009L35.4722 14.5341C36.6991 15.8883 37.3734 17.639 37.3734 19.468C37.3735 21.4243 36.613 23.2663 35.2351 24.6515Z" fill="white"/>
<path d="M26.248 11.198L26.2493 11.1975C26.2472 11.1965 26.2458 11.1959 26.2458 11.1959C26.248 11.198 26.2501 11.198 26.248 11.198Z" fill="white"/>
<path d="M17.2194 7.59334C16.0348 4.96325 13.4235 3.2631 10.562 3.2631C6.53055 3.2631 3.24981 6.55726 3.24981 10.6052C3.24981 13.4768 4.94297 16.1004 7.56074 17.2898C7.66958 17.3388 7.78338 17.3616 7.8955 17.3616C8.20588 17.3616 8.49997 17.1821 8.63647 16.882C8.82011 16.4708 8.63974 15.9878 8.23026 15.8018C6.19259 14.8767 4.8748 12.8373 4.8748 10.6053C4.8748 7.45636 7.42592 4.89473 10.5621 4.89473C12.785 4.89473 14.8162 6.21792 15.7375 8.26392C15.9228 8.67508 16.4021 8.85779 16.8133 8.67179C17.2211 8.48747 17.403 8.00289 17.2194 7.59334Z" fill="white"/>
<path d="M20.7585 7.87893C19.5317 3.24032 15.3377 0 10.5621 0C4.73831 0 0 4.75769 0 10.6053C0 15.4005 3.22712 19.6116 7.84843 20.8435C7.91827 20.8631 7.9882 20.8713 8.05644 20.8713C8.41718 20.8713 8.74539 20.6314 8.84128 20.2659C8.95668 19.8303 8.69992 19.3833 8.26446 19.2674C4.35647 18.2248 1.62498 14.663 1.62498 10.6053C1.62498 5.65672 5.63534 1.63163 10.5621 1.63163C14.6017 1.63163 18.1505 4.37269 19.1889 8.29827C19.3026 8.7323 19.7333 8.99333 20.1833 8.87746C20.6155 8.76159 20.8723 8.31456 20.7585 7.87893Z" fill="white"/>
</svg>
