<svg width="179" height="48" viewBox="0 0 179 48" fill="none" xmlns="http://www.w3.org/2000/svg">
<path d="M37.6538 44.9993C35.392 44.9993 33.551 44.3919 32.131 43.1773C30.711 41.9627 30.0007 40.3447 30 38.3235V37.9747C30 36.6184 30.2993 35.4059 30.8979 34.337C31.4516 33.3125 32.3377 32.4535 33.4457 31.8673C34.543 31.2891 35.7949 31 37.2013 31C39.3075 31 40.968 31.582 42.1829 32.7461C43.3977 33.9102 44.0034 35.5614 44 37.6998V39.172H34.1754C34.3113 40.0548 34.7129 40.762 35.3801 41.2938C36.0473 41.8256 36.8966 42.0918 37.9279 42.0923C39.5151 42.0923 40.755 41.5891 41.6478 40.5827L43.6718 42.5661C43.0319 43.3497 42.1647 43.9694 41.1596 44.3613C40.0586 44.7966 38.8617 45.0144 37.6538 44.9993ZM37.1829 33.9069C36.3676 33.9069 35.7048 34.1493 35.1946 34.6341C34.6843 35.1189 34.3589 35.8122 34.2182 36.7139H39.9479V36.4257C39.9288 35.6233 39.6819 35.0029 39.207 34.5645C38.732 34.1261 38.0574 33.9069 37.1829 33.9069Z" fill="#201600"/>
<path d="M45 37.8768C45 36.5375 45.2822 35.3436 45.8465 34.2952C46.3775 33.2802 47.2273 32.4329 48.2874 31.8613C49.3477 31.2865 50.5789 30.9994 51.981 31C53.9747 31 55.602 31.5575 56.8628 32.6726C58.1236 33.7876 58.8269 35.3019 58.9727 37.2155L59 38.1392C59 40.2105 58.3673 41.8726 57.102 43.1257C55.8366 44.3788 54.139 45.0036 52.0093 45C49.8789 45 48.179 44.3752 46.9098 43.1257C45.6405 41.8762 45.0055 40.1786 45.0049 38.033L45 37.8768ZM48.9455 38.133C48.9455 39.4164 49.2094 40.3982 49.7373 41.0783C50.2652 41.7584 51.0209 42.0981 52.0044 42.0975C52.9599 42.0975 53.7062 41.7619 54.2432 41.0908C54.7802 40.4196 55.0487 39.3468 55.0487 37.8724C55.0487 36.6139 54.7802 35.6387 54.2432 34.9467C53.7062 34.2547 52.9508 33.909 51.9771 33.9096C51.0124 33.9096 50.2658 34.2532 49.7373 34.9405C49.2088 35.6277 48.9448 36.6919 48.9455 38.133Z" fill="#201600"/>
<path d="M73 45H69V27H73V45Z" fill="#FF0000"/>
<path d="M79.7903 31.2534L79.9157 32.8411C80.9911 31.6143 82.4337 31.0006 84.2434 31C85.8356 31 87.0231 31.4275 87.8059 32.2825C88.5887 33.1374 88.9867 34.416 89 36.1181V44.9964H84.9758V36.2107C84.9758 35.4326 84.7904 34.8674 84.4196 34.515C84.0487 34.1626 83.4317 33.987 82.5687 33.9882C81.4362 33.9882 80.5874 34.4284 80.0222 35.3088V45H76V31.2534H79.7903Z" fill="#201600"/>
<path d="M96.2575 28.0036V31.3063H98.8459V33.9416H96.2575V40.6538C96.2575 41.1509 96.3645 41.5064 96.5787 41.7203C96.7928 41.9342 97.2033 42.0421 97.8103 42.0439C98.2091 42.0468 98.6074 42.0171 99 41.955V44.6774C98.2062 44.8925 97.3806 45.0012 96.5506 45C93.7151 45 92.2693 43.7281 92.2132 41.1844V33.9452H90V31.3063H92.2102V28L96.2575 28.0036Z" fill="#201600"/>
<path d="M107.654 44.9992C105.393 44.9992 103.552 44.3919 102.131 43.1773C100.71 41.9626 100 40.3447 100 38.3235V37.9746C100 36.6184 100.299 35.4059 100.898 34.337C101.452 33.3125 102.338 32.4535 103.446 31.8673C104.543 31.2891 105.795 31 107.201 31C109.308 31 110.968 31.582 112.183 32.7461C113.398 33.9102 114.003 35.5614 114 37.6998V39.172H104.18C104.315 40.0547 104.717 40.762 105.384 41.2938C106.051 41.8255 106.901 42.0917 107.932 42.0923C109.518 42.0923 110.758 41.5891 111.652 40.5826L113.676 42.5661C113.036 43.3498 112.168 43.9695 111.163 44.3613C110.061 44.7969 108.863 45.0147 107.654 44.9992ZM107.188 33.9069C106.373 33.9069 105.71 34.1493 105.2 34.6341C104.689 35.1189 104.364 35.8121 104.223 36.7139H109.953V36.4257C109.934 35.6233 109.687 35.0029 109.212 34.5645C108.737 34.1261 108.062 33.9069 107.188 33.9069Z" fill="#201600"/>
<path d="M119.497 31.2534L119.613 32.8411C120.606 31.6143 121.938 31.0006 123.609 31C125.079 31 126.175 31.4275 126.898 32.2825C127.62 33.1374 127.988 34.416 128 36.1181V44.9964H124.287V36.2107C124.287 35.4326 124.115 34.8674 123.773 34.515C123.431 34.1626 122.861 33.987 122.064 33.9882C121.019 33.9882 120.235 34.4284 119.713 35.3088V45H116V31.2534H119.497Z" fill="#201600"/>
<path d="M139.037 41.0195C139.037 40.5787 138.79 40.2313 138.297 39.9773C137.803 39.7233 137.012 39.4967 135.921 39.2974C132.292 38.6234 130.477 37.2591 130.477 35.2045C130.477 34.007 131.038 33.0068 132.162 32.2037C133.285 31.4006 134.753 30.9994 136.568 31C138.503 31 140.052 31.4033 141.213 32.2099C142.375 33.0166 142.957 34.0647 142.961 35.3544H138.885C138.894 35.1186 138.849 34.8837 138.752 34.6639C138.655 34.4441 138.509 34.244 138.322 34.0757C137.945 33.7384 137.358 33.5698 136.559 33.5698C135.873 33.5698 135.342 33.7072 134.966 33.982C134.787 34.1061 134.643 34.2654 134.545 34.4473C134.447 34.6293 134.398 34.8289 134.402 35.0305C134.402 35.4293 134.616 35.7523 135.044 35.9968C135.473 36.2413 136.192 36.4546 137.208 36.6339C138.079 36.778 138.937 36.9803 139.774 37.2389C141.925 37.9372 143 39.1475 143 40.8696C143 42.101 142.403 43.0973 141.209 43.8588C140.016 44.6202 138.474 45.0006 136.585 45C135.308 45 134.173 44.7983 133.18 44.395C132.187 43.9917 131.409 43.4385 130.846 42.7354C130.298 42.0751 130.002 41.2775 130 40.4583H133.864C133.901 41.0989 134.17 41.5897 134.67 41.9305C135.17 42.2714 135.838 42.4418 136.672 42.4418C137.453 42.4418 138.043 42.3109 138.442 42.0492C138.629 41.9343 138.782 41.7801 138.885 41.6005C138.989 41.4208 139.041 41.2212 139.037 41.0195Z" fill="#201600"/>
<path d="M145.001 27.8764C144.991 27.6258 145.046 27.3764 145.161 27.1441C145.277 26.9118 145.451 26.7018 145.672 26.5278C146.12 26.1759 146.729 26 147.5 26C148.271 26 148.878 26.1759 149.322 26.5278C149.758 26.8883 150.001 27.3746 150 27.8808C149.999 28.387 149.752 28.8723 149.314 29.2312C148.856 29.5837 148.251 29.7596 147.5 29.759C146.749 29.7584 146.145 29.5837 145.687 29.2348C145.461 29.0611 145.283 28.8501 145.165 28.6158C145.046 28.3816 144.991 28.1295 145.001 27.8764ZM149.733 45H145.259V31.3926H149.733V45Z" fill="#201600"/>
<path d="M158 40.4376L160.795 31H165L159.922 45H156.078L151 31H155.205L158 40.4376Z" fill="#201600"/>
<path d="M173.107 44.9993C171.007 44.9993 169.297 44.3919 167.979 43.1773C166.66 41.9627 166.001 40.3447 166 38.3235V37.9747C166 36.6184 166.278 35.4059 166.834 34.337C167.348 33.3129 168.171 32.454 169.2 31.8673C170.218 31.2891 171.381 31 172.687 31C174.643 31 176.185 31.582 177.313 32.7461C178.441 33.9102 179.003 35.5614 179 37.6998V39.172H169.882C170.005 40.0548 170.377 40.762 171 41.2938C171.622 41.8256 172.41 42.0918 173.365 42.0923C174.839 42.0923 175.991 41.5891 176.82 40.5827L178.699 42.5661C178.104 43.3502 177.297 43.97 176.363 44.3613C175.34 44.7966 174.229 45.0144 173.107 44.9993ZM172.67 33.9069C171.913 33.9069 171.297 34.1493 170.824 34.6341C170.35 35.1189 170.048 35.8122 169.918 36.7139H175.237V36.4257C175.219 35.6233 174.99 35.0029 174.549 34.5645C174.109 34.1261 173.482 33.9069 172.67 33.9069Z" fill="#201600"/>
<path d="M14.5 21.4835L17.0115 48H24L16.0745 11H14.5H12.9264L5 48H11.9894L14.5 21.4835Z" fill="#201600"/>
<path d="M7.24643 27.7075C8.77242 28.4603 10.8437 29.2244 13.4602 30L14.0971 23.7566C12.5211 23.2466 11.2743 22.7102 10.3567 22.1474C9.156 21.4093 8.55566 20.4948 8.55566 19.4038C8.55566 18.2348 9.06795 17.2934 10.0925 16.5793C11.1171 15.8653 12.5525 15.5089 14.3987 15.51C16.3134 15.51 17.7996 15.9368 18.8575 16.7904C19.9154 17.6439 20.4443 18.839 20.4443 20.3755H28C28 18.3618 27.4333 16.5632 26.2998 14.9798C25.1664 13.3964 23.5754 12.1705 21.5269 11.3023C19.4777 10.4341 17.1439 10 14.5255 10C11.9249 10 9.57832 10.4004 7.48561 11.2012C5.3929 12.002 3.78943 13.1117 2.67519 14.5304C1.55776 15.9526 0.99936 17.5703 1 19.3836C1 22.874 3.08214 25.6487 7.24643 27.7075Z" fill="#FF0000"/>
<path d="M13 39.4786C9.51247 38.9713 7.76837 37.1451 7.76772 34H0C0 36.1956 0.62336 38.1242 1.87008 39.7857C3.1168 41.4473 4.92782 42.759 7.30315 43.7209C8.93348 44.3716 10.6605 44.8025 12.4291 45L13 39.4786Z" fill="#FF0000"/>
<path d="M16.0249 24.3144C15.6708 24.2108 15.3317 24.1054 15 24L15.6596 30.8216C17.2721 31.4005 18.4445 31.9602 19.1768 32.5007C20.1563 33.2159 20.6461 34.2425 20.6461 35.5805C20.6461 36.8092 20.1576 37.7658 19.1805 38.4504C18.4818 38.9395 17.5845 39.2512 16.4954 39.3908L17.0376 45C20.0812 44.7598 22.5707 43.9386 24.5061 42.5364C26.8354 40.8441 28 38.5098 28 35.5337C28 32.8565 27.0472 30.6205 25.1415 28.8255C23.2359 27.0305 20.197 25.5268 16.0249 24.3144Z" fill="#FF0000"/>
<path d="M19 8.99553L14.4996 0L10 8.99553L13.5 9L14.4996 2.57156L15.4992 9L19 8.99553Z" fill="#000A10"/>
</svg>
