<svg width="822" height="1046" viewBox="0 0 822 1046" fill="none" xmlns="http://www.w3.org/2000/svg">
<path d="M120.263 850.197L112.206 854.916C111.706 855.15 111.161 855.271 110.609 855.271C110.057 855.271 109.512 855.15 109.012 854.916L101.754 850.487C100.738 849.979 100.665 849.108 101.754 848.6L109.883 843.953C110.379 843.704 110.926 843.574 111.48 843.574C112.035 843.574 112.582 843.704 113.077 843.953L120.336 848.382C120.989 848.89 121.134 849.761 120.263 850.197Z" fill="#150035"/>
<path d="M140.078 838.798L132.021 843.445C131.518 843.712 130.957 843.852 130.388 843.852C129.818 843.852 129.258 843.712 128.755 843.445L121.496 839.089C120.552 838.508 120.48 837.709 121.496 837.201L129.045 832.409C129.535 832.142 130.084 832.002 130.642 832.002C131.2 832.002 131.749 832.142 132.239 832.409L139.86 836.766C140.804 837.492 140.949 838.29 140.078 838.798Z" fill="#150035"/>
<path d="M138.844 861.453L130.787 866.099C130.284 866.366 129.723 866.506 129.154 866.506C128.584 866.506 128.024 866.366 127.521 866.099L120.262 861.743C119.246 861.162 119.173 860.364 120.262 859.855L128.392 855.209C128.882 854.942 129.431 854.802 129.989 854.802C130.547 854.802 131.096 854.942 131.586 855.209L139.207 859.565C139.788 859.783 139.933 860.581 138.844 861.453Z" fill="#150035"/>
<path d="M119.246 872.486L111.189 877.205C110.689 877.439 110.144 877.56 109.592 877.56C109.041 877.56 108.495 877.439 107.995 877.205L100.737 872.777C99.7931 872.268 99.648 871.397 100.737 870.889L108.794 866.242C109.289 865.993 109.836 865.863 110.391 865.863C110.945 865.863 111.492 865.993 111.988 866.242L119.246 870.671C119.972 871.179 120.117 872.05 119.246 872.486Z" fill="#150035"/>
<path d="M158.879 849.616L150.822 854.19C150.308 854.421 149.751 854.54 149.188 854.54C148.625 854.54 148.069 854.421 147.555 854.19L140.296 849.762C139.353 849.181 139.28 848.382 140.296 847.874L148.354 843.227C148.862 842.977 149.421 842.847 149.987 842.847C150.553 842.847 151.112 842.977 151.62 843.227L159.242 847.656C159.605 848.309 159.677 849.181 158.879 849.616Z" fill="#150035"/>
<path d="M178.695 838.217L170.638 842.864C170.135 843.131 169.574 843.27 169.004 843.27C168.435 843.27 167.874 843.131 167.371 842.864L160.113 838.507C159.169 837.926 159.096 837.055 160.113 836.62L167.879 831.827C168.382 831.56 168.943 831.421 169.513 831.421C170.082 831.421 170.643 831.56 171.146 831.827L178.767 836.184C179.421 836.91 179.493 837.709 178.695 838.217Z" fill="#150035"/>
<path d="M158.951 872.559L150.894 877.206C150.391 877.473 149.83 877.613 149.261 877.613C148.691 877.613 148.13 877.473 147.627 877.206L140.369 872.85C139.353 872.269 139.28 871.47 140.369 870.962L148.498 866.315C148.988 866.048 149.537 865.909 150.095 865.909C150.653 865.909 151.202 866.048 151.692 866.315L159.314 870.672C159.677 871.253 159.822 872.051 158.951 872.559Z" fill="#150035"/>
<path d="M138.844 883.958L130.787 888.678C130.287 888.911 129.742 889.032 129.19 889.032C128.638 889.032 128.093 888.911 127.593 888.678L119.972 884.249C119.028 883.741 118.883 882.869 119.972 882.434L128.029 877.714C128.529 877.481 129.074 877.36 129.626 877.36C130.177 877.36 130.723 877.481 131.223 877.714L138.481 882.143C139.86 882.652 140.006 883.232 138.844 883.958Z" fill="#150035"/>
<path d="M178.767 861.45L170.71 866.169C170.197 866.4 169.64 866.519 169.077 866.519C168.514 866.519 167.957 866.4 167.444 866.169L160.185 861.74C159.242 861.232 159.169 860.361 160.185 859.925L167.879 854.698C168.393 854.467 168.95 854.348 169.513 854.348C170.075 854.348 170.632 854.467 171.146 854.698L178.404 859.127C179.493 859.78 179.566 860.651 178.767 861.45Z" fill="#150035"/>
<path d="M198.583 849.689L190.526 854.191C190.023 854.458 189.462 854.598 188.893 854.598C188.323 854.598 187.763 854.458 187.26 854.191L179.638 849.835C178.694 849.254 178.622 848.455 179.638 847.947L187.695 843.3C188.198 843.033 188.759 842.894 189.328 842.894C189.898 842.894 190.459 843.033 190.962 843.3L198.583 847.656C199.309 848.383 199.382 849.181 198.583 849.689Z" fill="#150035"/>
<path d="M177.751 883.232L169.694 887.951C169.181 888.182 168.624 888.301 168.061 888.301C167.498 888.301 166.942 888.182 166.428 887.951L159.169 883.522C158.153 883.014 158.08 882.143 159.169 881.707L167.299 876.988C167.799 876.754 168.344 876.633 168.896 876.633C169.448 876.633 169.993 876.754 170.493 876.988L177.751 881.417C178.477 882.07 178.622 883.232 177.751 883.232Z" fill="#150035"/>
<path d="M197.568 871.978L189.656 876.625C189.153 876.892 188.592 877.032 188.022 877.032C187.453 877.032 186.892 876.892 186.389 876.625L178.768 872.269C177.824 871.688 177.751 870.889 178.768 870.381L186.825 865.734C187.328 865.467 187.889 865.328 188.458 865.328C189.027 865.328 189.588 865.467 190.091 865.734L197.35 870.091C198.293 870.671 198.366 871.47 197.568 871.978Z" fill="#150035"/>
<path d="M217.384 860.507L209.327 865.226C208.813 865.457 208.256 865.576 207.693 865.576C207.13 865.576 206.574 865.457 206.06 865.226L198.439 860.797C197.495 860.289 197.422 859.418 198.439 858.982L206.278 854.19C206.792 853.96 207.348 853.841 207.911 853.841C208.474 853.841 209.031 853.96 209.544 854.19L217.166 858.619C218.11 859.2 218.182 860.071 217.384 860.507Z" fill="#150035"/>
<path d="M216.368 882.798L208.311 887.517C207.797 887.748 207.241 887.867 206.678 887.867C206.115 887.867 205.558 887.748 205.045 887.517L197.423 883.234C196.479 882.725 196.407 881.854 197.423 881.418L205.48 876.699C205.994 876.469 206.55 876.35 207.113 876.35C207.676 876.35 208.233 876.469 208.746 876.699L216.005 881.128C217.094 881.491 217.167 882.362 216.368 882.798Z" fill="#150035"/>
<path d="M377.728 984.882L369.671 989.528C369.163 989.778 368.604 989.908 368.038 989.908C367.472 989.908 366.913 989.778 366.405 989.528L358.783 984.882C357.839 984.373 357.767 983.502 358.783 983.066L366.84 978.347C367.354 978.117 367.91 977.998 368.473 977.998C369.036 977.998 369.593 978.117 370.107 978.347L377.728 982.776C378.381 983.139 378.381 984.01 377.728 984.882Z" fill="#150035"/>
<path d="M376.711 1006.66L368.654 1011.31C368.146 1011.56 367.587 1011.69 367.021 1011.69C366.454 1011.69 365.896 1011.56 365.388 1011.31L357.766 1006.66C356.822 1006.15 356.75 1005.28 357.766 1004.85L365.823 1000.13C366.337 999.898 366.893 999.779 367.456 999.779C368.019 999.779 368.576 999.898 369.089 1000.13L376.711 1004.56C377.437 1005.43 377.509 1006.66 376.711 1006.66Z" fill="#150035"/>
<path d="M396.527 995.337L388.47 999.984C387.967 1000.25 387.406 1000.39 386.837 1000.39C386.268 1000.39 385.707 1000.25 385.204 999.984L377.945 995.628C377.002 995.047 376.929 994.248 377.945 993.74L386.002 989.093C386.505 988.826 387.066 988.687 387.635 988.687C388.205 988.687 388.766 988.826 389.269 989.093L396.527 993.449C397.253 994.03 397.326 994.829 396.527 995.337Z" fill="#150035"/>
<path d="M396.6 1018.28L388.543 1022.93C388.04 1023.19 387.479 1023.33 386.909 1023.33C386.34 1023.33 385.779 1023.19 385.276 1022.93L377.655 1018.57C376.711 1017.99 376.638 1017.12 377.655 1016.68L385.712 1012.04C386.22 1011.79 386.779 1011.66 387.345 1011.66C387.911 1011.66 388.47 1011.79 388.978 1012.04L396.237 1016.46C397.326 1016.97 397.398 1017.77 396.6 1018.28Z" fill="#150035"/>
<path d="M416.416 1006.66L408.359 1011.31C407.851 1011.56 407.292 1011.69 406.726 1011.69C406.159 1011.69 405.601 1011.56 405.092 1011.31L397.834 1006.88C396.89 1006.3 396.818 1005.5 397.834 1004.99L405.891 1000.35C406.399 1000.1 406.958 999.967 407.524 999.967C408.09 999.967 408.649 1000.1 409.157 1000.35L416.779 1004.78C417.142 1005.5 417.214 1006.66 416.416 1006.66Z" fill="#150035"/>
<path d="M415.4 1029.1L407.343 1033.74C406.835 1033.99 406.276 1034.12 405.71 1034.12C405.144 1034.12 404.585 1033.99 404.077 1033.74L396.818 1029.32C395.875 1028.73 395.802 1027.94 396.818 1027.43L404.875 1022.78C405.384 1022.53 405.942 1022.4 406.509 1022.4C407.075 1022.4 407.634 1022.53 408.142 1022.78L415.4 1027.21C416.126 1027.79 416.199 1028.44 415.4 1029.1Z" fill="#150035"/>
<path d="M435.216 1017.7L427.086 1022.34C426.596 1022.61 426.047 1022.75 425.489 1022.75C424.931 1022.75 424.382 1022.61 423.892 1022.34L416.271 1017.99C415.327 1017.41 415.182 1016.54 416.271 1016.1L424.328 1011.45C424.836 1011.2 425.395 1011.07 425.961 1011.07C426.527 1011.07 427.086 1011.2 427.594 1011.45L434.853 1015.88C435.942 1016.39 436.014 1017.19 435.216 1017.7Z" fill="#150035"/>
<path d="M434.199 1039.99L426.142 1044.64C425.639 1044.9 425.078 1045.04 424.509 1045.04C423.939 1045.04 423.379 1044.9 422.876 1044.64L415.254 1040.28C414.31 1039.7 414.238 1038.83 415.254 1038.39L423.311 1033.75C423.819 1033.5 424.378 1033.37 424.944 1033.37C425.511 1033.37 426.069 1033.5 426.577 1033.75L433.836 1038.18C434.925 1038.68 434.998 1039.48 434.199 1039.99Z" fill="#150035"/>
<path d="M454.017 1028.45L445.887 1033.09C445.391 1033.34 444.845 1033.47 444.29 1033.47C443.736 1033.47 443.189 1033.34 442.693 1033.09L435.435 1028.66C434.491 1028.08 434.346 1027.28 435.435 1026.78L443.492 1022.13C444 1021.88 444.559 1021.75 445.125 1021.75C445.691 1021.75 446.25 1021.88 446.758 1022.13L454.017 1026.56C454.743 1027.21 454.815 1028.45 454.017 1028.45Z" fill="#150035"/>
<path d="M473.76 1017.12L465.703 1021.77C465.213 1022.03 464.664 1022.17 464.106 1022.17C463.548 1022.17 462.999 1022.03 462.509 1021.77L454.887 1017.41C453.944 1016.83 453.798 1015.96 454.887 1015.52L462.944 1010.87C463.44 1010.63 463.987 1010.5 464.541 1010.5C465.096 1010.5 465.643 1010.63 466.138 1010.87L473.397 1015.3C474.486 1015.81 474.631 1016.61 473.76 1017.12Z" fill="#150035"/>
<path d="M493.576 1005.65L485.519 1010.29C485.023 1010.54 484.477 1010.67 483.922 1010.67C483.368 1010.67 482.821 1010.54 482.325 1010.29L475.066 1005.86C474.05 1005.28 473.978 1004.48 475.066 1003.98L483.196 999.329C483.692 999.08 484.239 998.95 484.793 998.95C485.348 998.95 485.894 999.08 486.39 999.329L494.012 1003.69C494.52 1004.34 494.52 1005.21 493.576 1005.65Z" fill="#150035"/>
<path d="M513.392 994.246L505.335 998.893C504.832 999.16 504.271 999.299 503.702 999.299C503.133 999.299 502.572 999.16 502.069 998.893L494.81 994.536C493.867 993.955 493.794 993.084 494.81 992.649L502.94 988.002C503.435 987.753 503.982 987.623 504.537 987.623C505.091 987.623 505.638 987.753 506.134 988.002L513.392 992.431C514.118 992.939 514.263 993.738 513.392 994.246Z" fill="#150035"/>
<path d="M533.208 982.776L525.151 987.423C524.643 987.673 524.084 987.803 523.518 987.803C522.952 987.803 522.393 987.673 521.885 987.423L514.263 982.994C513.319 982.413 513.247 981.614 514.263 981.106L522.32 976.459C522.828 976.21 523.387 976.08 523.953 976.08C524.52 976.08 525.078 976.21 525.587 976.459L532.845 980.816C533.934 981.469 534.007 982.341 533.208 982.776Z" fill="#150035"/>
<path d="M473.905 1039.99L465.775 1044.71C465.275 1044.94 464.73 1045.06 464.178 1045.06C463.627 1045.06 463.081 1044.94 462.581 1044.71L454.96 1040.28C454.016 1039.77 453.871 1038.9 454.96 1038.46L463.017 1033.74C463.531 1033.51 464.087 1033.4 464.65 1033.4C465.213 1033.4 465.77 1033.51 466.283 1033.74L473.542 1038.17C474.631 1038.68 474.703 1039.55 473.905 1039.99Z" fill="#150035"/>
<path d="M493.721 1028.45L485.592 1033.09C485.102 1033.36 484.553 1033.5 483.995 1033.5C483.437 1033.5 482.888 1033.36 482.398 1033.09L475.139 1028.74C474.195 1028.16 474.05 1027.36 475.139 1026.85L483.196 1022.2C483.686 1021.93 484.235 1021.79 484.793 1021.79C485.351 1021.79 485.9 1021.93 486.39 1022.2L494.012 1026.56C494.52 1027.28 494.52 1028.45 493.721 1028.45Z" fill="#150035"/>
<path d="M513.464 1017.12L505.407 1021.84C504.907 1022.07 504.362 1022.19 503.81 1022.19C503.258 1022.19 502.713 1022.07 502.213 1021.84L494.519 1017.27C493.503 1016.76 493.43 1015.89 494.519 1015.45L502.649 1010.73C503.149 1010.5 503.694 1010.38 504.246 1010.38C504.798 1010.38 505.343 1010.5 505.843 1010.73L513.101 1015.16C514.19 1015.81 514.335 1016.68 513.464 1017.12Z" fill="#150035"/>
<path d="M533.281 1005.72L525.224 1010.36C524.721 1010.63 524.16 1010.77 523.591 1010.77C523.021 1010.77 522.46 1010.63 521.957 1010.36L514.336 1006.01C513.392 1005.43 513.32 1004.63 514.336 1004.12L522.465 999.474C522.955 999.207 523.504 999.067 524.062 999.067C524.62 999.067 525.169 999.207 525.659 999.474L532.918 1003.83C534.007 1004.41 534.152 1005.21 533.281 1005.72Z" fill="#150035"/>
<path d="M229.432 905.015L221.375 909.734C220.862 909.965 220.305 910.084 219.742 910.084C219.179 910.084 218.623 909.965 218.109 909.734L210.85 905.305C209.834 904.797 209.761 903.926 210.85 903.49L218.69 898.408C219.19 898.174 219.735 898.053 220.286 898.053C220.838 898.053 221.383 898.174 221.883 898.408L229.505 902.837C230.158 903.49 230.303 904.361 229.432 905.015Z" fill="#150035"/>
<path d="M228.417 926.795L220.359 931.515C219.859 931.748 219.314 931.869 218.763 931.869C218.211 931.869 217.666 931.748 217.166 931.515L209.544 927.086C208.528 926.578 208.455 925.706 209.544 925.271L217.674 920.551C218.174 920.318 218.719 920.197 219.271 920.197C219.822 920.197 220.368 920.318 220.868 920.551L228.126 924.98C229.142 925.779 229.288 926.795 228.417 926.795Z" fill="#150035"/>
<path d="M248.233 915.687L240.466 920.334C239.963 920.601 239.403 920.74 238.833 920.74C238.264 920.74 237.703 920.601 237.2 920.334L229.578 915.977C228.635 915.397 228.562 914.598 229.578 914.09L237.708 909.443C238.198 909.176 238.747 909.036 239.305 909.036C239.863 909.036 240.412 909.176 240.902 909.443L248.524 913.799C248.959 914.38 249.104 915.179 248.233 915.687Z" fill="#150035"/>
<path d="M248.305 938.631L240.248 943.278C239.753 943.527 239.206 943.656 238.651 943.656C238.097 943.656 237.55 943.527 237.054 943.278L229.433 938.849C228.416 938.34 228.344 937.469 229.433 937.033L237.562 932.314C238.062 932.081 238.607 931.959 239.159 931.959C239.711 931.959 240.256 932.081 240.756 932.314L248.378 936.743C249.031 937.251 249.176 938.123 248.305 938.631Z" fill="#150035"/>
<path d="M268.122 927.16L260.065 931.806C259.562 932.073 259.001 932.213 258.431 932.213C257.862 932.213 257.301 932.073 256.798 931.806L249.177 927.45C248.233 926.869 248.16 926.071 249.177 925.562L257.306 920.916C257.796 920.649 258.345 920.509 258.903 920.509C259.461 920.509 260.01 920.649 260.5 920.916L268.122 925.272C268.848 925.853 268.993 926.797 268.122 927.16Z" fill="#150035"/>
<path d="M267.106 949.448L259.049 954.095C258.546 954.362 257.985 954.502 257.416 954.502C256.846 954.502 256.285 954.362 255.782 954.095L248.524 949.739C247.508 949.158 247.435 948.359 248.524 947.851L256.653 943.204C257.143 942.937 257.692 942.797 258.25 942.797C258.808 942.797 259.357 942.937 259.847 943.204L267.469 947.56C267.832 948.141 267.977 948.94 267.106 949.448Z" fill="#150035"/>
<path d="M286.922 938.051L278.865 942.698C278.357 942.948 277.798 943.078 277.232 943.078C276.665 943.078 276.107 942.948 275.598 942.698L267.977 938.269C267.033 937.761 266.961 936.89 267.977 936.454L276.034 931.735C276.548 931.504 277.104 931.385 277.667 931.385C278.23 931.385 278.787 931.504 279.3 931.735L286.922 936.164C287.648 936.672 287.72 937.543 286.922 938.051Z" fill="#150035"/>
<path d="M285.905 960.342L277.848 964.988C277.34 965.238 276.781 965.368 276.215 965.368C275.648 965.368 275.09 965.238 274.581 964.988L267.323 960.559C266.307 960.051 266.234 959.18 267.323 958.744L275.453 954.025C275.953 953.791 276.498 953.67 277.049 953.67C277.601 953.67 278.146 953.791 278.646 954.025L286.268 958.454C286.631 958.962 286.776 959.833 285.905 960.342Z" fill="#150035"/>
<path d="M305.794 948.579L297.736 953.226C297.233 953.493 296.673 953.633 296.103 953.633C295.534 953.633 294.973 953.493 294.47 953.226L286.848 948.87C285.905 948.289 285.832 947.49 286.848 946.982L294.906 942.335C295.409 942.068 295.969 941.929 296.539 941.929C297.108 941.929 297.669 942.068 298.172 942.335L305.794 946.692C306.447 947.563 306.519 948.579 305.794 948.579Z" fill="#150035"/>
<path d="M325.537 937.47L317.48 942.117C316.972 942.367 316.413 942.496 315.847 942.496C315.281 942.496 314.722 942.367 314.214 942.117L306.955 937.688C306.012 937.179 305.939 936.308 306.955 935.873L315.012 931.153C315.526 930.923 316.083 930.804 316.645 930.804C317.208 930.804 317.765 930.923 318.279 931.153L325.537 935.582C326.263 936.09 326.336 936.962 325.537 937.47Z" fill="#150035"/>
<path d="M345.353 925.998L337.223 930.645C336.733 930.912 336.184 931.051 335.627 931.051C335.069 931.051 334.52 930.912 334.03 930.645L326.771 926.288C325.827 925.707 325.682 924.909 326.771 924.401L334.247 919.536C334.75 919.269 335.311 919.129 335.881 919.129C336.45 919.129 337.011 919.269 337.514 919.536L344.772 923.892C346.079 924.691 346.152 925.49 345.353 925.998Z" fill="#150035"/>
<path d="M365.098 914.598L357.041 919.535C356.545 919.784 355.998 919.914 355.444 919.914C354.889 919.914 354.342 919.784 353.847 919.535L346.588 915.106C345.645 914.598 345.5 913.727 346.588 913.291L354.645 908.572C355.145 908.338 355.691 908.217 356.242 908.217C356.794 908.217 357.339 908.338 357.839 908.572L365.098 913.001C365.824 913.219 365.969 914.09 365.098 914.598Z" fill="#150035"/>
<path d="M384.914 903.126L376.857 907.773C376.354 908.04 375.793 908.18 375.223 908.18C374.654 908.18 374.093 908.04 373.59 907.773L366.332 903.417C365.315 902.836 365.243 902.037 366.332 901.529L374.461 896.882C374.951 896.615 375.5 896.476 376.058 896.476C376.616 896.476 377.165 896.615 377.655 896.882L384.914 901.239C385.64 901.82 385.64 902.618 384.914 903.126Z" fill="#150035"/>
<path d="M384.841 925.781L376.784 930.427C376.288 930.676 375.742 930.806 375.187 930.806C374.633 930.806 374.086 930.676 373.59 930.427L365.969 925.998C364.952 925.418 364.88 924.619 365.969 924.111L373.808 919.536C374.303 919.287 374.85 919.158 375.405 919.158C375.959 919.158 376.506 919.287 377.002 919.536L384.26 923.965C385.64 924.474 385.64 925.345 384.841 925.781Z" fill="#150035"/>
<path d="M404.657 914.379L396.6 919.026C396.097 919.293 395.537 919.433 394.967 919.433C394.398 919.433 393.837 919.293 393.334 919.026L385.64 914.525C384.696 913.944 384.624 913.073 385.64 912.637L393.769 907.99C394.265 907.741 394.812 907.611 395.366 907.611C395.921 907.611 396.468 907.741 396.963 907.99L404.585 912.419C405.383 913.072 405.528 913.871 404.657 914.379Z" fill="#150035"/>
<path d="M325.61 960.342L317.553 964.989C317.044 965.239 316.486 965.369 315.919 965.369C315.353 965.369 314.794 965.239 314.286 964.989L306.665 960.56C305.721 960.052 305.648 959.18 306.665 958.672L314.722 954.025C315.23 953.775 315.789 953.646 316.355 953.646C316.921 953.646 317.48 953.775 317.988 954.025L325.61 958.454C326.336 959.035 326.408 959.906 325.61 960.342Z" fill="#150035"/>
<path d="M345.426 948.941L337.369 953.588C336.866 953.855 336.305 953.994 335.736 953.994C335.166 953.994 334.605 953.855 334.102 953.588L326.844 949.231C325.9 948.65 325.828 947.779 326.844 947.343L334.901 942.697C335.404 942.43 335.965 942.29 336.534 942.29C337.104 942.29 337.664 942.43 338.167 942.697L345.426 947.053C346.152 947.634 346.224 948.578 345.426 948.941Z" fill="#150035"/>
<path d="M365.243 937.469L357.113 942.115C356.618 942.364 356.071 942.494 355.516 942.494C354.962 942.494 354.415 942.364 353.919 942.115L346.298 937.686C345.354 937.105 345.209 936.307 346.298 935.799L354.355 931.152C354.863 930.902 355.422 930.772 355.988 930.772C356.554 930.772 357.113 930.902 357.621 931.152L364.88 935.581C365.969 936.162 366.041 937.033 365.243 937.469Z" fill="#150035"/>
<path d="M506.714 931.587L498.657 936.234C498.167 936.501 497.618 936.641 497.06 936.641C496.502 936.641 495.953 936.501 495.463 936.234L487.842 931.878C486.825 931.297 486.753 930.498 487.842 929.99L495.971 925.343C496.461 925.076 497.01 924.937 497.568 924.937C498.126 924.937 498.675 925.076 499.165 925.343L506.424 929.7C507.44 930.28 507.585 931.079 506.714 931.587Z" fill="#150035"/>
<path d="M526.531 920.116L518.474 924.835C517.96 925.066 517.403 925.185 516.84 925.185C516.277 925.185 515.721 925.066 515.207 924.835L507.586 920.261C506.642 919.753 506.569 918.882 507.586 918.446L515.715 913.727C516.215 913.493 516.76 913.372 517.312 913.372C517.864 913.372 518.409 913.493 518.909 913.727L526.168 918.156C527.257 918.809 527.402 919.535 526.531 920.116Z" fill="#150035"/>
<path d="M546.347 908.717L538.072 913.364C537.569 913.631 537.008 913.77 536.439 913.77C535.869 913.77 535.308 913.631 534.805 913.364L527.547 909.008C526.603 908.427 526.531 907.628 527.547 907.12L535.604 902.473C536.107 902.206 536.668 902.066 537.237 902.066C537.806 902.066 538.367 902.206 538.87 902.473L546.129 906.829C547.073 907.41 547.145 908.209 546.347 908.717Z" fill="#150035"/>
<path d="M526.603 943.06L518.546 947.706C518.056 947.973 517.507 948.113 516.949 948.113C516.391 948.113 515.842 947.973 515.352 947.706L508.094 943.35C507.15 942.769 507.005 941.97 508.094 941.462L516.223 936.815C516.713 936.548 517.262 936.409 517.82 936.409C518.378 936.409 518.927 936.548 519.417 936.815L526.676 941.172C527.329 941.753 527.474 942.551 526.603 943.06Z" fill="#150035"/>
<path d="M546.418 931.661L538.361 936.308C537.853 936.558 537.294 936.688 536.728 936.688C536.161 936.688 535.603 936.558 535.094 936.308L527.836 931.879C526.892 931.371 526.82 930.499 527.836 930.064L535.966 925.344C536.465 925.111 537.011 924.99 537.562 924.99C538.114 924.99 538.659 925.111 539.159 925.344L546.781 929.773C547.144 930.282 547.289 931.153 546.418 931.661Z" fill="#150035"/>
<path d="M196.116 527.464L116.634 572.334C114.607 573.23 112.401 573.651 110.187 573.562C107.973 573.474 105.808 572.88 103.858 571.826L81.5742 558.975C77.7997 556.796 77.3642 553.457 80.6306 551.714L160.476 506.481C162.503 505.584 164.708 505.164 166.922 505.252C169.137 505.34 171.302 505.934 173.251 506.989L195.535 519.84C198.947 521.873 199.382 525.213 196.116 527.464Z" fill="#FF0000"/>
<path d="M111.117 575.82C108.127 575.875 105.175 575.149 102.551 573.715L80.7755 560.863C79.5908 560.319 78.5747 559.465 77.8339 558.392C77.093 557.318 76.6549 556.065 76.5654 554.764C76.607 553.703 76.9318 552.672 77.5062 551.778C78.0806 550.884 78.8835 550.161 79.8318 549.682L159.677 504.449C162.03 503.336 164.614 502.801 167.215 502.889C169.816 502.978 172.358 503.687 174.63 504.957L196.914 517.808C198.099 518.353 199.115 519.207 199.856 520.28C200.596 521.353 201.035 522.606 201.124 523.907C201.083 524.969 200.758 526 200.183 526.893C199.609 527.787 198.806 528.511 197.858 528.989L117.722 574.223C115.702 575.335 113.422 575.887 111.117 575.82ZM165.629 507.208C164.092 507.175 162.571 507.524 161.201 508.224L81.7191 553.458C81.7191 553.458 80.6303 554.184 80.6303 554.764C80.6303 555.345 81.1384 556.217 82.6627 557.088L104.947 569.939C106.554 570.838 108.347 571.351 110.186 571.439C112.025 571.528 113.859 571.188 115.544 570.447L195.39 525.214C195.753 525.214 196.479 524.488 196.479 523.907C196.479 523.326 195.97 522.455 194.446 521.584L172.162 508.732C170.163 507.641 167.905 507.114 165.629 507.208Z" fill="white"/>
<path d="M127.013 290.261L214.625 239.437C218.545 237.186 221.884 239.437 221.884 244.81V284.961C221.822 287.655 221.134 290.298 219.874 292.68C218.614 295.061 216.817 297.117 214.625 298.684L204.536 304.492C203.665 309.132 201.842 313.542 199.181 317.441C196.519 321.34 193.078 324.644 189.075 327.145C188.494 327.145 188.058 327.145 188.349 326.274C189.937 322.161 190.388 317.697 189.655 313.35L127.086 349.653C123.166 351.976 119.827 349.653 119.827 344.28V303.911C119.869 301.231 120.541 298.599 121.79 296.228C123.038 293.856 124.828 291.812 127.013 290.261Z" fill="#FF0000"/>
<path d="M124.327 352.485C123.312 352.504 122.31 352.254 121.424 351.759C120.209 350.9 119.241 349.737 118.617 348.386C117.993 347.035 117.734 345.545 117.867 344.062V303.911C117.915 300.858 118.682 297.86 120.107 295.16C121.533 292.46 123.576 290.135 126.07 288.374L127.158 290.262L126.07 288.374L213.682 237.55C214.725 236.93 215.916 236.603 217.129 236.603C218.343 236.603 219.534 236.93 220.577 237.55C221.798 238.403 222.77 239.565 223.395 240.917C224.019 242.269 224.275 243.763 224.134 245.246V285.324C224.096 288.397 223.325 291.416 221.886 294.132C220.447 296.847 218.381 299.179 215.859 300.935L206.641 306.235C205.61 310.994 203.634 315.497 200.828 319.476C198.022 323.455 194.445 326.828 190.309 329.396C189.849 329.711 189.305 329.88 188.748 329.88C188.191 329.88 187.647 329.711 187.187 329.396C186.753 328.987 186.451 328.457 186.322 327.874C186.193 327.292 186.241 326.683 186.462 326.129C187.486 323.167 187.954 320.04 187.841 316.908L128.102 351.323C126.975 352.052 125.669 352.454 124.327 352.485ZM217.456 240.962C216.839 241.023 216.244 241.221 215.714 241.543L128.102 292.367C126.264 293.735 124.765 295.507 123.72 297.546C122.676 299.586 122.114 301.838 122.077 304.129V344.28C121.981 344.996 122.056 345.725 122.296 346.406C122.536 347.088 122.933 347.703 123.456 348.201C123.872 348.335 124.314 348.365 124.744 348.289C125.174 348.213 125.579 348.033 125.924 347.765L191.252 310.228L191.978 313.06C192.707 316.409 192.707 319.876 191.978 323.225C197.57 318.361 201.376 311.768 202.794 304.492V303.548L213.754 297.232C215.599 295.849 217.106 294.065 218.162 292.015C219.219 289.965 219.796 287.702 219.851 285.397V245.101C219.945 244.378 219.861 243.644 219.608 242.962C219.355 242.279 218.941 241.667 218.4 241.18C218.265 241.082 218.112 241.012 217.95 240.975C217.788 240.937 217.62 240.933 217.456 240.962Z" fill="white"/>
<path d="M199.666 269.277L139.879 303.791L142.056 307.564L201.843 273.05L199.666 269.277Z" fill="white"/>
<path d="M199.593 282.955L139.811 317.479L141.989 321.252L201.771 286.728L199.593 282.955Z" fill="white"/>
<path d="M81.3556 241.034L134.271 211.048C138.191 208.797 141.53 211.048 141.53 216.42V233.918C141.474 236.614 140.788 239.258 139.528 241.641C138.268 244.024 136.467 246.078 134.271 247.641L121.714 254.902C120.796 259.506 118.953 263.875 116.295 267.744C113.637 271.613 110.22 274.902 106.253 277.409C105.672 277.409 105.237 277.409 105.527 276.465C107.09 272.321 107.516 267.834 106.761 263.469L81.3556 277.555C77.4359 279.878 74.0969 277.555 74.0969 272.182V254.684C74.147 251.998 74.8306 249.361 76.0919 246.989C77.3533 244.617 79.1568 242.577 81.3556 241.034Z" fill="#FF0000"/>
<path d="M78.525 280.606C77.51 280.625 76.508 280.375 75.6215 279.88C74.4067 279.021 73.4388 277.858 72.8146 276.507C72.1904 275.157 71.9318 273.666 72.0648 272.184V254.686C72.112 251.633 72.8796 248.634 74.305 245.934C75.7303 243.234 77.7731 240.909 80.267 239.148L133.183 209.162C134.212 208.541 135.392 208.212 136.594 208.212C137.797 208.212 138.976 208.541 140.006 209.162C141.165 209.972 142.099 211.063 142.721 212.333C143.344 213.603 143.633 215.01 143.563 216.422V233.92C143.521 236.985 142.756 239.996 141.331 242.708C139.906 245.421 137.86 247.759 135.36 249.531L123.601 256.283C122.562 261.01 120.588 265.481 117.796 269.434C115.003 273.386 111.449 276.741 107.342 279.299C106.882 279.614 106.338 279.783 105.781 279.783C105.224 279.783 104.68 279.614 104.221 279.299C103.788 278.873 103.489 278.331 103.36 277.737C103.231 277.144 103.278 276.526 103.495 275.959C104.535 273.148 105.052 270.171 105.019 267.174L82.4446 279.517C81.2502 280.203 79.9022 280.578 78.525 280.606ZM82.4446 242.924C80.6067 244.292 79.1076 246.064 78.063 248.103C77.0185 250.142 76.4563 252.395 76.42 254.686V272.184C76.324 272.9 76.3989 273.628 76.6386 274.31C76.8783 274.991 77.276 275.606 77.7991 276.104C78.2149 276.238 78.6569 276.268 79.087 276.192C79.517 276.116 79.9221 275.937 80.267 275.669L108.213 260.204L108.939 262.963C109.638 266.394 109.589 269.935 108.794 273.345C114.387 268.404 118.168 261.734 119.536 254.395V253.451L133.183 245.755C135.018 244.368 136.514 242.582 137.558 240.532C138.602 238.482 139.166 236.221 139.207 233.92V216.422C139.303 215.717 139.228 215 138.988 214.33C138.748 213.66 138.35 213.058 137.828 212.574C137.03 212.066 135.941 212.574 135.36 212.937L82.4446 242.924Z" fill="white"/>
<path d="M68.3636 414.491L155.903 363.667C159.895 361.416 163.162 363.667 163.162 369.112V444.042C163.106 446.727 162.42 449.361 161.159 451.732C159.898 454.103 158.098 456.144 155.903 457.691L101.608 489.057C100.444 493.007 100.78 497.248 102.552 500.965C102.552 501.4 102.552 502.344 101.826 502.707C90.5026 509.242 87.3087 501.037 86.2925 497.77L68.1459 508.298C64.1536 510.549 60.8872 508.298 60.8872 502.852V428.141C60.956 425.434 61.6704 422.784 62.9709 420.409C64.2714 418.035 66.1203 416.006 68.3636 414.491Z" fill="#FF0000"/>
<path d="M65.459 511.347C64.4379 511.341 63.4364 511.066 62.5556 510.549C61.3408 509.69 60.3728 508.527 59.7486 507.176C59.1244 505.825 58.8659 504.334 58.9988 502.852V428.141C59.0426 425.079 59.8163 422.072 61.2555 419.37C62.6947 416.668 64.7579 414.348 67.2737 412.603L154.813 361.779C155.862 361.033 157.103 360.602 158.39 360.537C159.676 360.473 160.953 360.778 162.072 361.416C163.287 362.275 164.255 363.438 164.879 364.789C165.503 366.139 165.762 367.63 165.629 369.112V444.042C165.585 447.103 164.811 450.11 163.372 452.813C161.933 455.515 159.869 457.835 157.354 459.579L103.567 490.437C102.78 493.587 103.167 496.917 104.656 499.803C104.945 500.575 104.945 501.426 104.656 502.199C104.379 503.2 103.73 504.057 102.841 504.595C101.09 505.882 99.0593 506.738 96.9149 507.091C94.7705 507.444 92.5729 507.286 90.5014 506.628C88.0414 505.489 86.0985 503.468 85.0574 500.965L69.4513 510.186C68.235 510.892 66.8645 511.291 65.459 511.347ZM68.3625 414.491L69.4513 416.379C67.5751 417.715 66.0436 419.479 64.9834 421.524C63.9232 423.569 63.3647 425.837 63.354 428.141V502.852C63.258 503.568 63.333 504.297 63.5727 504.978C63.8124 505.66 64.2101 506.275 64.7332 506.773C65.5316 507.209 66.6204 506.773 67.2737 506.773L88.0335 494.43L88.7594 497.189C88.975 498.319 89.4299 499.389 90.0935 500.328C90.757 501.268 91.6139 502.054 92.6064 502.635C93.9447 502.974 95.3415 503.014 96.6968 502.75C98.0521 502.486 99.3323 501.926 100.446 501.11C98.8155 497.152 98.485 492.779 99.5022 488.622V487.678L154.668 455.804C156.497 454.432 157.985 452.658 159.017 450.618C160.049 448.578 160.598 446.328 160.62 444.042V369.33C160.722 368.614 160.65 367.884 160.41 367.201C160.17 366.519 159.769 365.904 159.241 365.41C158.819 365.266 158.369 365.223 157.927 365.287C157.486 365.35 157.065 365.516 156.7 365.773L69.161 416.597L68.3625 414.491Z" fill="white"/>
<path d="M140.938 396.377L81.1499 430.891L83.3268 434.664L143.115 400.15L140.938 396.377Z" fill="white"/>
<path d="M140.972 410.079L81.1838 444.593L83.3608 448.366L143.148 413.852L140.972 410.079Z" fill="white"/>
<path d="M140.962 423.746L81.1802 458.27L83.3578 462.043L143.139 427.519L140.962 423.746Z" fill="white"/>
<path d="M140.962 437.455L81.1802 471.979L83.3578 475.752L143.139 441.228L140.962 437.455Z" fill="white"/>
<path d="M226.312 829.433L207.077 834.152L186.099 826.166L188.858 821.156L195.608 818.905C195.608 818.905 204.391 817.453 205.698 812.951C207.004 808.45 219.634 812.951 219.634 812.951L228.345 820.212L226.312 829.433Z" fill="#FF0000"/>
<path d="M206.932 837.128L182.397 827.689L187.261 818.831L195.535 816.072C198.439 815.637 202.794 813.967 203.302 812.152C203.502 811.451 203.852 810.801 204.329 810.25C204.805 809.698 205.396 809.257 206.06 808.957C211.029 807.737 216.261 808.196 220.941 810.264L221.812 810.772L231.829 819.34L229.07 831.755L206.932 837.128ZM190.164 824.713L207.294 831.175L223.917 827.109L225.223 821.445L217.965 815.419C214.832 814.082 211.405 813.582 208.02 813.967C206.496 819.485 197.931 821.227 196.116 821.663L190.6 823.478L190.164 824.713Z" fill="#150035"/>
<path d="M293.744 719.507C293.744 719.507 254.983 706.801 244.167 697.289C244.167 697.289 250.99 711.375 242.643 734.609C236.11 752.542 233.207 796.106 231.029 811.208C230.866 813.079 230.048 814.832 228.721 816.16C227.393 817.487 225.641 818.305 223.77 818.469L220.286 818.977C216.004 818.977 207.438 815.564 207.293 810.772C206.567 779.261 204.172 672.676 211.431 662.729C219.923 651.402 248.087 640.149 262.241 642.69C276.396 645.231 317.988 651.765 317.988 651.765L293.744 719.507Z" fill="white"/>
<path d="M220.069 821.736C215.53 821.53 211.189 819.818 207.73 816.872C206.814 816.128 206.064 815.201 205.527 814.151C204.99 813.101 204.677 811.951 204.608 810.773C203.157 759.005 201.777 670.716 209.109 660.987C218.255 648.862 247.725 637.245 262.242 639.859C276.759 642.473 317.553 648.862 317.916 648.935L321.328 649.443L295.196 723.065L292.583 722.266C277.612 717.339 263.051 711.245 249.031 704.042C250.577 714.683 249.326 725.543 245.402 735.553C240.305 755.521 237.026 775.91 235.603 796.47C234.95 802.641 234.369 807.941 233.933 811.644C233.645 814.123 232.514 816.427 230.73 818.172C228.947 819.916 226.618 820.995 224.134 821.228L220.868 821.664L220.069 821.736ZM257.524 645.159C243.66 645.159 221.231 654.743 213.609 664.4C209.254 670.208 207.947 727.639 210.27 810.628C210.397 811.442 210.841 812.172 211.504 812.661C213.971 814.743 217.061 815.944 220.287 816.073L223.481 815.637C224.7 815.508 225.837 814.96 226.697 814.086C227.557 813.212 228.088 812.067 228.199 810.845C228.707 807.215 229.288 801.988 229.868 795.889C232.046 775.632 234.95 747.824 240.031 733.666C244.892 722.553 245.461 710.032 241.627 698.524L235.603 685.746L246.055 695.184C254.548 702.808 283.147 712.973 292.003 715.95L313.779 654.017C303.544 652.42 272.912 647.555 261.298 645.449C260.051 645.246 258.788 645.149 257.524 645.159Z" fill="#150035"/>
<path d="M182.397 821.519C185.01 817.235 190.744 817.671 195.463 818.905L194.592 819.486C192.124 821.519 194.592 824.568 198.874 826.747C202.665 829.185 207.235 830.105 211.674 829.325C216.113 828.544 220.095 826.12 222.828 822.535L223.336 821.011V819.559C224.933 817.743 227.256 815.42 229.07 813.677C229.443 813.304 229.904 813.03 230.41 812.883C230.917 812.736 231.453 812.719 231.968 812.835C232.482 812.951 232.959 813.196 233.354 813.546C233.749 813.897 234.048 814.342 234.224 814.839C236.341 821.309 236.032 828.329 233.353 834.588L231.756 849.69C231.707 850.174 231.559 850.643 231.322 851.067C231.085 851.492 230.763 851.863 230.377 852.159C230.377 852.159 230.377 852.159 229.796 852.522C228.507 852.994 227.093 852.994 225.804 852.522C224.094 852.257 222.416 851.819 220.795 851.215C220.369 851.059 220.005 850.77 219.757 850.391C219.508 850.011 219.389 849.562 219.416 849.109L219.852 841.849C219.868 841.615 219.826 841.382 219.727 841.17C219.629 840.958 219.478 840.774 219.29 840.636C219.101 840.498 218.881 840.411 218.649 840.381C218.417 840.352 218.181 840.382 217.964 840.469L215.787 841.921C213.801 843.197 211.533 843.97 209.181 844.172C206.674 844.374 204.16 843.871 201.923 842.72C191.18 837.347 177.824 829.288 182.397 821.519Z" fill="#150035"/>
<path d="M228.78 855.135C227.613 855.12 226.458 854.899 225.368 854.481C223.641 854.191 221.941 853.753 220.287 853.174C219.422 852.852 218.682 852.264 218.174 851.494C217.665 850.724 217.414 849.812 217.456 848.891L217.819 843.445H217.166C214.885 844.942 212.264 845.841 209.544 846.059C206.615 846.266 203.684 845.689 201.052 844.389C187.914 837.782 181.308 832.336 179.711 826.891C179.379 825.751 179.291 824.554 179.453 823.378C179.616 822.201 180.025 821.073 180.655 820.066C182.542 817.017 186.68 813.967 196.188 816.436L200.907 817.67L196.769 820.356L196.116 820.865C196.116 821.446 196.842 822.97 200.035 824.64C203.33 826.746 207.279 827.576 211.142 826.974C215.005 826.373 218.515 824.381 221.013 821.373V820.356V818.614L221.739 817.67C223.191 816.073 225.078 814.185 227.401 811.862C228.025 811.256 228.788 810.814 229.624 810.573C230.459 810.332 231.341 810.301 232.191 810.482C233.064 810.664 233.876 811.067 234.549 811.651C235.223 812.236 235.735 812.983 236.038 813.822C238.379 820.668 238.121 828.137 235.313 834.805L233.716 849.689C233.589 851.142 232.914 852.492 231.828 853.465C231.41 853.941 230.851 854.272 230.232 854.409C229.807 854.755 229.311 855.003 228.78 855.135ZM218.69 838.218C219.174 838.225 219.651 838.333 220.09 838.535C220.53 838.737 220.923 839.028 221.243 839.39C221.564 839.752 221.806 840.177 221.954 840.637C222.102 841.098 222.152 841.584 222.102 842.066L221.666 849.326C223.155 849.826 224.685 850.19 226.239 850.415H226.965C227.638 850.526 228.325 850.526 228.998 850.415C229.251 850.126 229.426 849.775 229.506 849.399L231.175 833.789C233.676 828.052 234.012 821.602 232.119 815.637C232.067 815.453 231.965 815.288 231.824 815.159C231.683 815.031 231.508 814.945 231.32 814.911C231.197 814.847 231.06 814.814 230.921 814.814C230.782 814.814 230.645 814.847 230.522 814.911C228.344 816.944 226.602 818.759 225.368 820.066V821.373L224.642 823.406C221.611 827.44 217.175 830.187 212.213 831.101C207.252 832.016 202.128 831.032 197.858 828.343C195.608 827.181 191.761 824.64 191.398 821.083C191.288 820.58 191.288 820.06 191.398 819.558C190.091 819.234 188.721 819.28 187.439 819.69C186.157 820.1 185.015 820.859 184.139 821.881C183.795 822.371 183.569 822.935 183.481 823.527C183.393 824.12 183.444 824.724 183.631 825.294C184.792 829.287 191.252 834.297 202.721 839.815C204.636 840.756 206.762 841.181 208.891 841.049C210.903 840.887 212.846 840.239 214.553 839.161L216.73 837.709C217.42 837.676 218.103 837.854 218.69 838.218Z" fill="#150035"/>
<path d="M217.954 829.194L216.741 838.115L221.057 838.701L222.269 829.78L217.954 829.194Z" fill="#FF0000"/>
<path d="M441.386 841.266V705.566C441.43 705.489 441.454 705.401 441.454 705.312C441.454 705.223 441.43 705.135 441.386 705.058L377.219 710.794L371.122 675.362C371.042 675.29 370.939 675.251 370.832 675.251C370.725 675.251 370.621 675.29 370.541 675.362L237.708 751.09C237.64 751.122 237.565 751.139 237.49 751.139C237.415 751.139 237.34 751.122 237.272 751.09L225.949 748.04C225.949 748.04 225.295 748.04 225.295 748.549C225.295 751.453 225.295 883.305 225.295 883.668C225.383 884.653 225.705 885.602 226.236 886.436C226.766 887.27 227.489 887.964 228.344 888.46L287.865 923.02C290.352 924.482 293.183 925.253 296.067 925.253C298.952 925.253 301.783 924.482 304.27 923.02L438.265 846.93C439.192 846.402 439.968 845.644 440.515 844.728C441.062 843.811 441.362 842.769 441.386 841.702V841.266Z" fill="#FF0000"/>
<path d="M296.213 928.175C292.82 928.177 289.488 927.275 286.559 925.561L226.966 891.001C225.691 890.244 224.621 889.187 223.849 887.921C223.077 886.656 222.627 885.22 222.538 883.74C222.538 883.74 222.538 883.304 222.538 787.174V748.548C222.538 748.03 222.655 747.52 222.882 747.054C223.108 746.589 223.437 746.181 223.844 745.862C224.262 745.542 224.748 745.323 225.264 745.222C225.781 745.122 226.313 745.142 226.82 745.281L237.2 748.185L368.872 672.675C369.383 672.352 369.974 672.181 370.578 672.181C371.182 672.181 371.774 672.352 372.284 672.675L373.373 673.328L379.107 707.526L441.241 701.935H441.749C442.465 702.128 443.096 702.554 443.543 703.146C443.99 703.738 444.227 704.461 444.217 705.202V841.701C444.113 843.195 443.641 844.64 442.843 845.906C442.045 847.173 440.946 848.223 439.644 848.962L305.795 925.561C302.889 927.266 299.582 928.168 296.213 928.175ZM228.127 751.525V787.828C228.127 825.583 228.127 882.724 228.127 883.958C228.2 884.479 228.388 884.977 228.677 885.416C228.965 885.855 229.348 886.225 229.797 886.499L289.318 920.987C291.381 922.179 293.722 922.806 296.104 922.806C298.487 922.806 300.828 922.179 302.891 920.987L436.814 844.097C437.336 843.831 437.775 843.426 438.082 842.926C438.389 842.427 438.553 841.852 438.556 841.266V708.107L376.567 713.697L375.26 713.189L374.099 712.536L368.655 679.5L237.999 754.139H236.402L228.127 751.525Z" fill="#150035"/>
<path d="M441.023 705.059L376.856 710.795L295.704 774.325V925.273C298.725 925.407 301.721 924.676 304.342 923.167L438.264 846.931C439.197 846.409 439.976 845.652 440.524 844.735C441.072 843.817 441.369 842.772 441.385 841.703V705.567C441.38 705.457 441.342 705.35 441.278 705.26C441.214 705.17 441.125 705.1 441.023 705.059Z" fill="#150035"/>
<path d="M296.213 928.176H292.874V773.162L376.494 707.382L377.437 707.89L441.241 702.227H441.749C442.465 702.42 443.096 702.846 443.543 703.437C443.989 704.029 444.227 704.752 444.217 705.494V841.412C444.18 842.97 443.739 844.491 442.937 845.828C442.136 847.164 441.001 848.269 439.644 849.036L305.794 925.635C302.876 927.301 299.573 928.177 296.213 928.176ZM298.536 775.704V922.295C300.091 922.015 301.588 921.475 302.964 920.698L436.813 844.171C437.336 843.886 437.773 843.467 438.08 842.956C438.386 842.445 438.55 841.862 438.555 841.267V708.108L377.728 713.553L298.536 775.704Z" fill="#150035"/>
<path d="M234.441 756.1L236.401 750.655L225.949 747.75C225.949 747.75 225.295 747.751 225.295 748.259C225.295 751.163 225.295 883.015 225.295 883.378C225.383 884.363 225.705 885.312 226.236 886.146C226.766 886.98 227.489 887.674 228.344 888.17L234.369 891.655V756.1H234.441Z" fill="#150035"/>
<path d="M237.272 896.667L226.965 890.495C225.69 889.739 224.62 888.682 223.848 887.416C223.076 886.15 222.626 884.715 222.537 883.235C222.537 883.235 222.537 882.799 222.537 786.669V748.26C222.481 747.701 222.565 747.136 222.78 746.617C222.996 746.098 223.336 745.64 223.771 745.284C224.189 744.964 224.675 744.745 225.191 744.644C225.707 744.543 226.24 744.563 226.747 744.703L240.103 748.406L239.087 751.31L237.272 756.32V896.667ZM228.126 751.455V787.758C228.126 825.513 228.126 882.654 228.126 883.888C228.199 884.409 228.387 884.907 228.676 885.346C228.964 885.785 229.347 886.155 229.796 886.429L231.538 887.446V755.594V755.158C231.538 755.158 231.973 754.141 232.481 752.544L228.126 751.455Z" fill="#150035"/>
<path d="M288.227 787.61L228.416 752.904C227.451 752.351 226.648 751.553 226.091 750.591C225.533 749.628 225.239 748.535 225.239 747.422C225.239 746.31 225.533 745.217 226.091 744.254C226.648 743.292 227.451 742.494 228.416 741.941L362.629 665.414C365.026 664.038 367.741 663.314 370.504 663.314C373.268 663.314 375.983 664.038 378.38 665.414L438.191 700.12C439.157 700.673 439.959 701.471 440.517 702.433C441.075 703.396 441.369 704.489 441.369 705.601C441.369 706.714 441.075 707.807 440.517 708.77C439.959 709.732 439.157 710.53 438.191 711.083L304.124 787.61C301.705 788.998 298.965 789.729 296.176 789.729C293.387 789.729 290.646 788.998 288.227 787.61Z" fill="white"/>
<path d="M296.212 792.547C292.927 792.573 289.694 791.721 286.849 790.078L227.037 755.373C225.632 754.57 224.468 753.406 223.664 752.002C222.859 750.598 222.445 749.004 222.464 747.386C222.466 745.782 222.889 744.206 223.692 742.817C224.494 741.428 225.648 740.274 227.037 739.472L361.177 662.8C364.024 661.156 367.254 660.291 370.541 660.291C373.828 660.291 377.058 661.156 379.905 662.8L439.716 697.506C441.119 698.305 442.286 699.461 443.098 700.858C443.91 702.254 444.337 703.841 444.337 705.456C444.337 707.071 443.91 708.658 443.098 710.054C442.286 711.451 441.119 712.607 439.716 713.406L305.794 790.078C302.886 791.762 299.572 792.616 296.212 792.547ZM370.541 665.995C368.255 665.97 366.002 666.546 364.008 667.665L229.868 744.409C229.341 744.716 228.903 745.155 228.599 745.684C228.295 746.213 228.135 746.812 228.135 747.422C228.135 748.032 228.295 748.632 228.599 749.16C228.903 749.689 229.341 750.129 229.868 750.435L289.679 785.141C291.655 786.282 293.895 786.882 296.176 786.882C298.457 786.882 300.697 786.282 302.672 785.141L436.885 708.469C437.415 708.155 437.853 707.709 438.159 707.175C438.464 706.64 438.625 706.035 438.627 705.42C438.62 704.815 438.456 704.223 438.15 703.701C437.845 703.179 437.409 702.745 436.885 702.443L377.074 667.737C375.085 666.596 372.833 665.996 370.541 665.995Z" fill="#150035"/>
<path d="M200.254 537.34L188.785 530.079C184.589 527.358 179.618 526.083 174.631 526.449C171.799 526.22 168.962 526.827 166.472 528.195C163.982 529.563 161.947 531.632 160.621 534.145V537.122L171.8 540.97L172.163 542.64L168.533 544.383C168.533 544.383 171.8 556.145 192.051 553.313C210.416 550.772 200.254 537.34 200.254 537.34Z" fill="white"/>
<path d="M185.88 556.507C168.967 556.507 165.701 545.544 165.556 545.035L164.903 542.712L166.282 542.058L157.281 538.936L158.225 532.765C159.745 529.803 162.088 527.343 164.972 525.682C167.857 524.02 171.16 523.227 174.484 523.399C180.06 522.996 185.616 524.424 190.308 527.465L202.502 535.524C204.488 537.285 205.841 539.65 206.353 542.254C206.865 544.859 206.509 547.56 205.339 549.942C204.168 552.325 202.249 554.257 199.874 555.443C197.5 556.629 194.802 557.003 192.195 556.507C190.092 556.639 187.983 556.639 185.88 556.507ZM172.161 545.616C174.194 548.23 179.42 552.078 191.469 550.408C194.736 549.973 198.728 548.883 199.889 546.342C200.176 545.084 200.174 543.778 199.885 542.521C199.596 541.264 199.027 540.088 198.22 539.082L187.259 531.821C183.613 529.639 179.368 528.673 175.137 529.062C172.868 528.868 170.591 529.325 168.573 530.38C166.554 531.434 164.878 533.042 163.741 535.016L174.266 538.719L175.5 544.164L172.161 545.616Z" fill="#150035"/>
<path d="M211.431 541.405L204.826 537.484C204.375 537.148 203.827 536.967 203.265 536.967C202.703 536.967 202.155 537.148 201.704 537.484C198 540.718 195.178 544.841 193.502 549.464C193.261 550.22 193.297 551.036 193.602 551.768C193.908 552.5 194.465 553.098 195.171 553.457L202.43 556.943C203.055 557.221 203.759 557.264 204.412 557.064C205.066 556.864 205.625 556.434 205.987 555.853L212.229 545.761C212.651 545.063 212.803 544.234 212.656 543.432C212.509 542.629 212.073 541.908 211.431 541.405Z" fill="#150035"/>
<path d="M203.665 560.356C202.843 560.324 202.033 560.152 201.269 559.848L194.011 556.29C192.727 555.636 191.716 554.547 191.158 553.218C190.6 551.889 190.53 550.405 190.962 549.03C192.788 543.95 195.887 539.425 199.963 535.888C200.837 535.139 201.926 534.686 203.074 534.594C204.222 534.503 205.369 534.778 206.35 535.38L212.956 539.228C213.654 539.665 214.258 540.235 214.735 540.906C215.212 541.578 215.551 542.337 215.733 543.14C215.915 543.943 215.937 544.774 215.796 545.586C215.656 546.397 215.357 547.173 214.916 547.868L208.673 557.888C208.123 558.697 207.372 559.35 206.494 559.782C205.617 560.215 204.642 560.413 203.665 560.356ZM203.229 539.954C200.009 542.924 197.524 546.603 195.971 550.7V551.135L203.229 554.693L209.472 544.528C209.51 544.462 209.53 544.387 209.53 544.31C209.53 544.234 209.51 544.159 209.472 544.092L203.229 539.954Z" fill="#150035"/>
<path d="M287.43 533.928C285.833 538.865 289.825 527.611 287.43 533.928C280.824 551.498 272.912 570.231 272.912 570.231C272.912 570.231 253.895 561.01 239.886 555.71C231.002 552.35 222.624 547.781 214.988 542.132C214.848 542.042 214.684 541.993 214.517 541.993C214.349 541.993 214.185 542.042 214.045 542.132C210.959 543.121 208.261 545.055 206.333 547.661C204.406 550.266 203.345 553.412 203.302 556.653C203.293 557.082 203.449 557.498 203.737 557.815C208.673 562.317 252.08 601.379 284.381 608.639C297.599 594.942 307.159 578.138 312.182 559.775C321.4 528.337 291.277 521.875 287.43 533.928Z" fill="#FF0000"/>
<path d="M285.179 612.052H283.727C250.773 604.791 206.785 564.931 201.85 560.429C201.376 560.002 201.006 559.473 200.768 558.882C200.529 558.291 200.427 557.653 200.47 557.017C200.605 553.253 201.897 549.623 204.17 546.622C206.444 543.62 209.588 541.393 213.173 540.245C213.766 540.03 214.404 539.971 215.027 540.073C215.649 540.175 216.236 540.434 216.73 540.826C224.105 546.318 232.218 550.742 240.829 553.967C251.862 557.888 265.653 564.277 271.388 567.036C273.856 561.155 279.735 546.707 284.744 533.275C284.715 532.985 284.715 532.693 284.744 532.403C285.029 531.403 285.581 530.5 286.34 529.79C288.301 527.865 290.767 526.536 293.453 525.958C296.138 525.38 298.932 525.575 301.511 526.522C312.036 529.717 320.166 541.769 314.504 561.228C309.41 580.12 299.565 597.392 285.905 611.398L285.179 612.052ZM206.205 556.508C212.955 562.68 253.023 598.329 283.51 605.953C295.701 592.705 304.581 576.756 309.423 559.413C314.286 542.568 307.536 534.001 300.204 531.75C298.575 531.061 296.772 530.893 295.043 531.27C293.315 531.647 291.745 532.55 290.55 533.855C290.269 534.701 289.929 535.526 289.534 536.324C283.074 553.314 275.67 571.32 275.598 571.465L274.436 574.297L271.751 572.917C271.751 572.917 252.588 563.769 238.941 559.05C230.097 555.667 221.728 551.152 214.044 545.618C211.842 546.506 209.936 548 208.549 549.928C207.161 551.856 206.348 554.137 206.205 556.508Z" fill="#150035"/>
<path d="M143.273 812.224C139.825 815.703 135.175 817.73 130.28 817.887C127.948 817.993 125.673 818.639 123.633 819.772C121.592 820.906 119.842 822.498 118.521 824.422L128.901 837.055L149.443 836.329L160.621 828.27L163.67 814.62L150.967 808.884L143.273 812.224Z" fill="#FF0000"/>
<path d="M127.594 840.031L115.037 824.711L116.198 822.969C117.739 820.656 119.805 818.74 122.227 817.378C124.649 816.015 127.358 815.244 130.135 815.127H130.57C134.525 814.931 138.281 813.336 141.168 810.626L141.603 810.19L150.894 806.052L166.863 813.312L163.089 830.302L150.386 839.523L127.594 840.031ZM122.223 824.494L130.207 834.223L148.499 833.569L158.008 826.309L160.621 816.217L151.185 812.005L145.233 814.619C141.311 818.393 136.152 820.613 130.715 820.863C129.118 820.788 127.524 821.076 126.053 821.704C124.582 822.333 123.273 823.287 122.223 824.494Z" fill="#150035"/>
<path d="M360.596 710.94C360.596 710.94 310.874 795.09 186.751 701.066C186.243 701.066 185.517 701.066 185.735 701.719C189.209 714.532 188.367 728.132 183.34 740.418C175.573 758.061 167.951 796.47 164.757 811.717C164.465 813.532 163.539 815.185 162.144 816.382C160.748 817.578 158.974 818.241 157.136 818.252H153.724C149.369 818.252 143.562 814.186 143.707 809.394C145.086 778.028 149.442 671.443 157.208 662.44C169.04 648.427 196.913 649.661 210.777 653.364C224.641 657.067 304.196 679.139 304.196 679.139L360.596 710.94Z" fill="white"/>
<path d="M153.797 821.227C150.002 821.039 146.432 819.371 143.853 816.58C142.884 815.64 142.119 814.51 141.607 813.261C141.095 812.011 140.846 810.669 140.877 809.319V807.504C144.869 712.608 149.225 667.302 154.886 660.55C167.879 645.811 196.333 646.682 211.431 650.893L304.923 676.741H305.504L364.444 709.849L362.992 712.318C356.971 721.233 349.236 728.861 340.239 734.757C331.241 740.653 321.161 744.7 310.585 746.66C275.743 753.485 235.095 740.053 189.583 706.727C191.795 718.432 190.508 730.529 185.881 741.505C178.622 757.624 171.363 792.33 168.17 808.666L167.444 812.224C167.016 814.685 165.733 816.917 163.82 818.524C161.908 820.132 159.489 821.012 156.991 821.009L153.797 821.227ZM190.671 653.798C178.55 653.798 165.919 656.629 159.387 664.398C156.193 668.174 151.402 696.127 146.684 807.94V809.682C146.788 810.84 147.303 811.921 148.136 812.732C149.646 814.373 151.72 815.385 153.943 815.563H157.136C158.336 815.533 159.489 815.091 160.401 814.311C161.313 813.531 161.929 812.46 162.145 811.28L162.871 807.795C167.054 784.556 173.073 761.686 180.872 739.4C185.598 727.877 186.389 715.116 183.122 703.097C182.92 702.374 182.951 701.605 183.212 700.901C183.473 700.197 183.949 699.593 184.574 699.176C185.155 698.757 185.854 698.531 186.57 698.531C187.287 698.531 187.985 698.757 188.566 699.176C234.514 733.954 275.235 748.258 309.568 741.505C328.311 737.958 345.085 727.616 356.677 712.463L303.253 682.55C297.664 680.952 223.408 660.405 210.197 656.847C203.853 654.966 197.287 653.94 190.671 653.798Z" fill="#150035"/>
<path d="M112.423 825.657C114.165 818.396 121.352 817.089 130.28 817.961C127.922 818.746 125.834 820.18 124.255 822.099C121.787 824.568 124.255 827.545 129.554 829.36C133.756 831.318 138.514 831.729 142.99 830.52C147.465 829.312 151.37 826.561 154.016 822.753L155.54 821.083L156.992 819.195L157.427 818.687C158.806 816.726 160.911 814.185 162.581 812.152C162.991 811.652 163.526 811.268 164.131 811.039C164.737 810.809 165.391 810.743 166.03 810.846C166.669 810.949 167.27 811.217 167.773 811.625C168.276 812.032 168.663 812.565 168.896 813.169C171.365 819.659 171.595 826.789 169.549 833.426V849.689C169.551 850.215 169.45 850.735 169.25 851.221C169.051 851.707 168.758 852.149 168.388 852.521C167.899 853.009 167.259 853.316 166.573 853.392C164.152 853.802 161.669 853.653 159.314 852.957C158.845 852.849 158.422 852.593 158.108 852.227C157.795 851.862 157.607 851.405 157.572 850.924L156.992 842.574C156.992 842.406 156.944 842.24 156.853 842.099C156.762 841.957 156.632 841.845 156.478 841.775C156.324 841.706 156.154 841.683 155.987 841.709C155.821 841.735 155.665 841.808 155.54 841.921L154.161 843.155C152.761 844.452 151.138 845.485 149.37 846.204C145.635 847.655 141.492 847.655 137.756 846.204C125.779 842.574 109.81 835.894 112.423 825.657Z" fill="#150035"/>
<path d="M164.541 856.006C162.589 855.969 160.645 855.75 158.734 855.353C157.797 855.146 156.954 854.635 156.337 853.899C155.72 853.164 155.364 852.246 155.322 851.287L154.887 845.551C153.44 846.748 151.826 847.726 150.096 848.455C145.888 850.205 141.182 850.334 136.885 848.818C127.957 845.623 107.052 838.218 110.246 825.149C113.004 814.04 126.215 815.419 130.57 815.855L141.531 816.944L130.933 820.066C128.978 820.673 127.255 821.863 125.997 823.479C125.562 823.479 125.489 823.987 125.489 824.132C125.489 824.277 127.086 826.165 130.28 827.472C134.004 829.234 138.23 829.624 142.213 828.575C146.197 827.525 149.682 825.104 152.056 821.736L152.419 821.301L153.798 819.848L155.25 817.961L157.355 818.832L155.685 817.888C157.137 815.855 159.314 813.169 160.911 811.281C161.523 810.504 162.327 809.901 163.244 809.532C164.161 809.162 165.158 809.039 166.138 809.175C167.157 809.332 168.121 809.74 168.944 810.36C169.767 810.981 170.424 811.796 170.856 812.733C173.602 819.686 173.909 827.365 171.727 834.515V850.561C171.737 851.372 171.581 852.177 171.269 852.926C170.957 853.675 170.495 854.353 169.912 854.917C169.174 855.647 168.242 856.151 167.226 856.369C166.316 856.429 165.403 856.305 164.541 856.006ZM155.975 839.67C156.335 839.601 156.705 839.601 157.064 839.67C157.611 839.887 158.085 840.255 158.431 840.73C158.778 841.206 158.984 841.769 159.024 842.356L159.605 850.633C161.483 851.212 163.448 851.458 165.412 851.359H165.992C166.12 851.346 166.244 851.308 166.356 851.245C166.469 851.183 166.567 851.098 166.646 850.996C166.814 850.839 166.947 850.648 167.035 850.435C167.122 850.222 167.163 849.992 167.154 849.762V832.99C169.068 826.809 168.864 820.165 166.573 814.113C166.469 813.84 166.292 813.601 166.062 813.422C165.831 813.243 165.556 813.13 165.266 813.096C165.023 813.056 164.774 813.082 164.544 813.172C164.314 813.261 164.112 813.411 163.96 813.604C162.436 815.419 160.331 818.033 158.951 819.994L156.919 822.535L155.467 824.132C152.534 828.32 148.222 831.343 143.285 832.67C138.348 833.997 133.102 833.545 128.465 831.393C125.925 830.376 121.642 828.271 121.206 824.858C121.065 824.057 121.124 823.234 121.377 822.462C121.63 821.689 122.07 820.991 122.658 820.429L123.239 819.848C116.851 820.429 115.182 823.333 114.528 826.02C112.496 834.37 127.159 840.541 138.337 844.534C141.592 845.741 145.171 845.741 148.426 844.534C149.93 843.847 151.324 842.942 152.564 841.848L153.943 840.614C154.48 840.058 155.204 839.722 155.975 839.67Z" fill="#150035"/>
<path d="M159.169 828.634H154.814V839.453H159.169V828.634Z" fill="#FF0000"/>
<path d="M182.905 701.717C182.298 697.401 180.221 693.427 177.026 690.463L180.583 686.107C185.093 690.126 187.92 695.702 188.495 701.717L182.905 702.225H185.736L182.905 701.717Z" fill="#150035"/>
<path d="M367.493 573.716C367.493 573.716 377.873 641.965 383.607 679.285C389.341 716.604 341.289 736.135 310.295 739.911C279.3 743.686 246.999 726.914 237.708 710.868C231.451 701.076 222.906 692.952 212.811 687.199C212.811 687.199 252.153 659.826 263.621 589.544C275.09 519.261 314.432 508.08 316.247 508.08C318.061 508.08 367.493 573.716 367.493 573.716Z" fill="#150035"/>
<path d="M301.439 743.25C272.84 743.25 244.458 728.148 234.877 712.538C229.02 703.211 220.971 695.459 211.432 689.957L207.367 687.779L211.141 685.093C211.504 685.093 249.612 657.43 260.573 589.326C272.767 513.743 315.593 505.684 316.101 505.684C317.844 505.684 319.658 505.684 369.743 572.263L370.179 572.771V573.497C370.179 573.497 380.631 641.82 386.293 679.066C387.176 684.489 386.929 690.036 385.568 695.358C384.206 700.681 381.759 705.665 378.381 709.996C364.226 728.656 334.248 739.91 310.803 742.742C307.694 743.098 304.568 743.267 301.439 743.25ZM217.819 687.198C226.587 693.046 234.01 700.694 239.595 709.633C248.16 723.646 279.01 740.926 309.859 737.151C332.071 734.465 360.67 724.009 373.59 706.657C376.611 702.936 378.818 698.622 380.068 693.995C381.318 689.367 381.584 684.529 380.849 679.792C375.477 644.724 366.331 582.283 364.88 574.95C347.894 552.369 320.747 516.865 315.376 511.419C310.077 513.089 276.614 525.941 266.307 590.269C256.653 649.588 227.764 678.703 217.819 687.198Z" fill="#150035"/>
<path d="M227.11 693.152L224.714 689.522C256.144 668.538 271.17 620.401 271.388 619.893L275.525 621.199C274.872 623.232 259.846 671.298 227.11 693.152Z" fill="#FF0000"/>
<path d="M156.991 556.507C155.038 550.826 151.895 545.628 147.772 541.26C143.852 538.138 140.513 541.26 139.497 543.438C139.408 543.587 139.29 543.717 139.15 543.82C139.01 543.923 138.85 543.997 138.681 544.037C138.512 544.078 138.337 544.084 138.165 544.056C137.994 544.028 137.83 543.966 137.683 543.874L126.069 537.412C125.401 537.06 124.63 536.962 123.896 537.135C123.162 537.309 122.516 537.742 122.076 538.356C120.662 540.607 119.846 543.183 119.707 545.839C119.567 548.495 120.108 551.142 121.278 553.53C125.996 565.365 145.957 569.794 145.957 569.794L156.991 556.507Z" fill="white"/>
<path d="M146.975 572.988L145.306 572.553C144.435 572.553 123.53 567.688 118.667 554.546C117.301 551.723 116.69 548.593 116.893 545.463C117.097 542.332 118.108 539.308 119.828 536.685C120.64 535.588 121.813 534.812 123.14 534.493C124.468 534.174 125.865 534.334 127.087 534.943L137.612 540.824C138.95 538.965 140.951 537.691 143.201 537.266C144.26 537.123 145.337 537.204 146.362 537.505C147.387 537.805 148.338 538.317 149.153 539.009C153.723 543.707 157.194 549.361 159.315 555.563L159.896 557.088L146.975 572.988ZM124.691 539.88C123.482 541.738 122.808 543.893 122.744 546.109C122.68 548.325 123.228 550.516 124.328 552.441C127.377 560.282 139.209 565.002 145.233 566.962L154.161 556.289C152.395 551.493 149.651 547.117 146.104 543.438C145.161 542.712 144.653 542.784 144.507 542.857C143.399 543.239 142.47 544.014 141.894 545.035C141.314 545.914 140.42 546.539 139.395 546.782C138.37 547.025 137.291 546.868 136.378 546.342L124.691 539.88Z" fill="#150035"/>
<path d="M164.831 561.589L158.806 555.273C158.384 554.79 157.819 554.452 157.194 554.309C156.568 554.166 155.913 554.223 155.322 554.474C150.467 556.72 146.306 560.231 143.273 564.639C142.798 565.399 142.604 566.301 142.723 567.189C142.843 568.077 143.268 568.895 143.926 569.503L151.185 575.748C151.756 576.253 152.491 576.532 153.254 576.532C154.016 576.532 154.752 576.253 155.322 575.748L164.759 567.035C165.121 566.682 165.411 566.262 165.61 565.797C165.81 565.332 165.917 564.833 165.923 564.327C165.93 563.821 165.837 563.319 165.65 562.849C165.462 562.38 165.184 561.952 164.831 561.589Z" fill="#150035"/>
<path d="M153.362 579.377C151.913 579.363 150.519 578.821 149.442 577.853L142.183 571.609C141.017 570.541 140.268 569.093 140.068 567.524C139.869 565.956 140.233 564.367 141.094 563.041C144.407 558.206 148.974 554.365 154.305 551.932C155.419 551.417 156.669 551.273 157.871 551.521C159.074 551.77 160.164 552.397 160.983 553.312L167.008 559.629C168.175 560.952 168.82 562.656 168.823 564.421C168.755 566.185 168 567.853 166.718 569.067L157.209 577.78C156.15 578.742 154.79 579.307 153.362 579.377ZM156.991 557.596C152.473 559.42 148.605 562.556 145.885 566.599C145.782 566.762 145.727 566.95 145.727 567.143C145.727 567.336 145.782 567.525 145.885 567.688L153.144 573.932L162.943 565.219C162.995 565.005 162.995 564.78 162.943 564.566C162.989 564.463 163.013 564.352 163.013 564.239C163.013 564.126 162.989 564.015 162.943 563.912L156.991 557.596Z" fill="#150035"/>
<path d="M284.017 543.221C283.06 541.627 281.63 540.372 279.925 539.63C278.221 538.888 276.327 538.697 274.509 539.083C272.594 539.549 270.855 540.557 269.5 541.987C262.656 548.487 256.635 555.802 251.571 563.769C240.901 580.396 217.601 610.89 217.601 610.89C217.601 610.89 201.123 596.006 188.566 586.785C180.582 580.76 173.431 573.704 167.298 565.802C167.201 565.662 167.07 565.549 166.918 565.473C166.766 565.397 166.597 565.36 166.427 565.366C163.201 565.422 160.079 566.519 157.528 568.495C154.977 570.471 153.134 573.219 152.273 576.33C152.183 576.51 152.136 576.709 152.136 576.911C152.136 577.112 152.183 577.311 152.273 577.491C155.829 583.227 186.679 631.728 215.859 650.097C216.825 650.677 217.952 650.934 219.075 650.829C220.197 650.725 221.258 650.265 222.101 649.516C231.247 641.385 259.556 615.537 273.71 591.432C290.768 562.389 287.719 549.538 283.872 543.004L284.017 543.221Z" fill="#FF0000"/>
<path d="M218.69 653.797C217.201 653.779 215.744 653.352 214.48 652.563C184.792 633.54 153.435 584.313 150.023 578.795C149.691 578.273 149.473 577.685 149.386 577.071C149.298 576.458 149.342 575.833 149.515 575.238C150.561 571.559 152.763 568.315 155.796 565.987C158.83 563.659 162.533 562.371 166.355 562.314C166.978 562.296 167.596 562.432 168.153 562.711C168.71 562.989 169.19 563.402 169.549 563.911C175.525 571.586 182.48 578.445 190.236 584.313C199.963 591.574 212.012 602.102 217.166 606.531C222.9 599.27 240.466 575.673 249.177 562.023C254.379 553.817 260.571 546.282 267.614 539.588C269.354 537.945 271.514 536.814 273.856 536.321C276.246 535.873 278.716 536.177 280.926 537.191C283.136 538.205 284.977 539.88 286.196 541.984C293.019 553.528 289.68 570.3 276.034 593.244C261.517 617.567 232.482 644.068 223.844 651.328C222.474 652.737 220.647 653.612 218.69 653.797ZM154.959 576.327C159.75 583.587 189.511 629.982 217.384 647.771C217.79 648.083 218.287 648.252 218.799 648.252C219.311 648.252 219.809 648.083 220.215 647.771C228.635 640.51 257.234 614.299 271.025 590.703C283.365 570.01 286.777 554.4 281.188 545.179L283.51 543.581L281.042 545.034C280.406 543.939 279.433 543.08 278.269 542.583C277.106 542.086 275.812 541.978 274.582 542.275C273.25 542.535 272.018 543.164 271.025 544.09C264.36 550.478 258.487 557.645 253.532 565.436C242.934 581.99 219.634 612.484 219.416 612.775L217.529 615.243L215.206 613.138C215.206 613.138 198.729 598.617 186.172 589.25C178.202 583.265 171.052 576.259 164.904 568.413C162.671 568.666 160.554 569.542 158.796 570.942C157.037 572.341 155.708 574.207 154.959 576.327Z" fill="#150035"/>
<path d="M213.754 624.321C213.121 619.465 213.441 614.533 214.698 609.8L220.142 611.325C219.143 615.136 218.848 619.097 219.271 623.014L213.754 624.321Z" fill="#150035"/>
<path d="M289.099 498.857C289.099 498.857 294.18 515.847 289.825 523.834C285.47 531.82 306.085 529.642 306.085 529.642L326.99 514.613C323.519 508.926 321.523 502.462 321.183 495.808C321.546 487.095 322.489 486.224 320.529 486.877C318.57 487.531 289.099 498.857 289.099 498.857Z" fill="#FF0000"/>
<path d="M300.205 532.836C295.197 532.836 289.462 532.11 287.285 528.842C286.692 527.896 286.378 526.801 286.378 525.684C286.378 524.567 286.692 523.473 287.285 522.526C290.333 516.79 287.648 504.084 286.341 499.655L285.543 497.186L288.011 496.242C291.059 495.081 317.553 484.771 319.586 484.117C320.182 483.896 320.822 483.819 321.453 483.895C322.085 483.971 322.689 484.196 323.215 484.553C324.74 485.787 324.594 487.384 324.304 490.071C324.304 491.378 324.304 493.266 323.941 495.879C324.347 501.924 326.215 507.779 329.385 512.942L330.764 515.193L307.101 532.182H306.375C304.851 532.618 302.601 532.836 300.205 532.836ZM292.511 500.599C295.053 508.606 295.053 517.205 292.511 525.212C292.459 525.427 292.459 525.651 292.511 525.866C296.665 527.273 301.1 527.647 305.431 526.955L323.723 513.813C320.602 508.264 318.906 502.027 318.787 495.662C318.787 493.483 318.787 491.813 318.787 490.579C313.053 492.539 301.584 497.041 292.511 500.599Z" fill="#150035"/>
<path d="M290.768 416.377C290.768 416.377 265 415.36 256.652 437.505C254.344 444.196 253.935 451.396 255.473 458.305C257.011 465.214 260.434 471.561 265.363 476.64C265.363 476.64 287.139 469.815 290.913 459.577C294.688 449.34 290.768 416.377 290.768 416.377Z" fill="white"/>
<path d="M264.565 479.546L263.332 478.384C258.046 472.953 254.377 466.157 252.736 458.758C251.095 451.358 251.546 443.648 254.04 436.491C262.969 412.748 290.334 413.547 290.914 413.547H293.31V415.943C293.31 417.323 297.157 449.269 293.31 460.087C289.463 470.906 268.34 478.166 265.945 478.892L264.565 479.546ZM288.229 419.283C282.048 419.301 276.008 421.125 270.85 424.53C265.692 427.936 261.641 432.774 259.194 438.451C257.109 444.308 256.648 450.621 257.863 456.72C259.077 462.818 261.92 468.473 266.09 473.084C272.623 470.761 285.688 465.025 287.866 458.563C290.043 452.101 289.318 429.666 288.229 419.283Z" fill="#150035"/>
<path d="M305.794 419.428C305.794 419.428 323.432 404.036 330.401 441.791C335.192 467.857 325.102 483.467 305.721 498.351C303.098 500.427 300.014 501.841 296.729 502.473C293.444 503.105 290.055 502.936 286.849 501.981C282.815 500.405 279.225 497.869 276.392 494.592C273.559 491.315 271.567 487.397 270.589 483.176C266.034 468.733 265.21 453.372 268.194 438.524C264.492 423.059 274.654 425.382 292.946 420.3L305.794 419.428Z" fill="#FF0000"/>
<path d="M292.874 505.684C290.563 505.662 288.267 505.319 286.051 504.667C281.542 502.982 277.523 500.202 274.356 496.577C271.188 492.952 268.971 488.597 267.904 483.902C263.285 469.227 262.387 453.632 265.291 438.524C264.656 436.627 264.406 434.622 264.555 432.627C264.705 430.632 265.251 428.687 266.162 426.907C268.848 422.695 274.292 421.534 281.768 419.646C284.817 418.993 288.301 418.266 292.148 417.177H292.729L304.633 416.306C306.525 414.906 308.721 413.973 311.041 413.581C313.362 413.19 315.743 413.353 317.989 414.055C325.247 416.597 330.329 425.672 333.159 440.992C337.732 465.605 330.256 482.813 307.391 500.311C303.288 503.674 298.177 505.566 292.874 505.684ZM293.382 423.058C289.535 424.148 286.123 424.874 282.929 425.527C276.832 426.834 272.404 427.778 270.953 430.029C269.965 432.549 269.965 435.35 270.953 437.87V438.524V439.104C268.045 453.594 268.869 468.585 273.348 482.668C274.185 486.458 275.95 489.981 278.483 492.921C281.017 495.861 284.241 498.126 287.865 499.512C290.627 500.338 293.546 500.485 296.377 499.941C299.207 499.398 301.865 498.18 304.125 496.39C321.763 482.886 332.506 468.582 327.715 442.589C324.739 426.253 319.876 421.243 316.247 419.936C314.755 419.544 313.192 419.517 311.688 419.858C310.184 420.2 308.785 420.899 307.609 421.897L306.883 422.478L293.382 423.058Z" fill="#150035"/>
<path d="M293.745 541.987C285.543 543.076 271.969 532.693 278.647 526.957L279.59 526.231C285.107 522.674 301.366 527.756 311.891 521.004C319.731 515.921 319.658 510.694 319.15 508.37C318.967 507.559 319.005 506.713 319.261 505.921C319.516 505.129 319.979 504.42 320.602 503.869C321.219 503.376 321.929 503.013 322.69 502.801C323.451 502.589 324.247 502.532 325.03 502.634C326.534 503.008 327.943 503.695 329.164 504.65C330.385 505.605 331.392 506.807 332.118 508.177C332.844 509.547 333.273 511.055 333.377 512.602C333.482 514.149 333.259 515.7 332.724 517.156C330.722 521.739 327.821 525.874 324.193 529.316C320.565 532.759 316.283 535.438 311.601 537.195C305.898 539.607 299.889 541.22 293.745 541.987Z" fill="#FF0000"/>
<path d="M292.51 545.106C288.97 544.93 285.525 543.893 282.477 542.083C279.428 540.274 276.867 537.748 275.017 534.723C274.138 533.163 273.832 531.344 274.15 529.581C274.468 527.819 275.39 526.222 276.759 525.067L278.065 524.05C282.221 522.251 286.789 521.624 291.276 522.235C297.88 522.908 304.541 521.726 310.512 518.823C317.044 514.612 316.972 510.691 316.609 509.239C316.293 507.925 316.351 506.55 316.774 505.268C317.197 503.985 317.969 502.846 319.004 501.978C319.898 501.244 320.931 500.697 322.041 500.373C323.151 500.049 324.316 499.952 325.464 500.09C327.192 500.293 328.852 500.881 330.322 501.811C331.792 502.74 333.034 503.989 333.957 505.463C335.207 507.4 336.006 509.593 336.295 511.88C336.584 514.168 336.355 516.49 335.627 518.678C333.457 523.648 330.317 528.135 326.391 531.875C322.464 535.616 317.831 538.534 312.762 540.459C306.858 542.847 300.654 544.411 294.325 545.106H292.728H292.51ZM288.881 527.826C286.249 527.588 283.596 527.935 281.114 528.842L280.606 529.278C280.025 529.786 279.444 530.44 280.17 532.037C281.58 534.265 283.531 536.099 285.841 537.368C288.151 538.638 290.745 539.302 293.381 539.298C299.316 538.664 305.131 537.197 310.657 534.941C314.931 533.335 318.844 530.898 322.171 527.77C325.497 524.641 328.171 520.885 330.037 516.717C330.508 515.351 330.661 513.895 330.485 512.461C330.308 511.027 329.808 509.652 329.021 508.44C328.579 507.68 327.971 507.031 327.242 506.54C326.512 506.05 325.681 505.731 324.811 505.608C323.967 505.482 323.108 505.69 322.416 506.189C322.192 506.413 322.033 506.693 321.956 507C321.88 507.307 321.888 507.629 321.98 507.932C322.561 510.546 322.851 517.443 313.415 523.542C306.516 527.052 298.765 528.537 291.058 527.826H288.881Z" fill="#150035"/>
<path d="M298.97 404.689C284.453 406.504 268.266 417.904 265.145 427.778C261.516 439.395 263.04 446.147 274.944 444.84C279.662 444.259 283.509 457.183 285.251 461.685C285.925 462.916 286.895 463.959 288.074 464.72C289.253 465.481 290.603 465.935 292.002 466.041C295.704 465.606 300.858 470.688 301.366 476.351C301.711 478.482 301.55 480.664 300.894 482.72C300.238 484.777 299.107 486.649 297.591 488.186C305.576 506.918 268.557 527.538 305.213 542.277C306.156 542.713 279.735 579.306 313.923 599.345C342.377 616.045 400.011 610.019 412.859 577.564C435.215 520.713 356.822 509.968 353.12 461.394C350.216 422.986 321.98 401.785 298.97 404.689Z" fill="white"/>
<path d="M352.031 611.252C338.251 611.574 324.623 608.323 312.471 601.814C297.954 593.391 284.526 576.474 301.366 543.729C295.031 541.512 289.818 536.898 286.848 530.878C286.04 527.151 285.996 523.299 286.72 519.555C287.443 515.811 288.919 512.253 291.058 509.096C294.47 501.835 297.664 495.519 295.123 489.492L294.107 487.242L296.212 485.935C297.238 484.64 297.975 483.141 298.376 481.538C298.776 479.936 298.831 478.266 298.535 476.641C298.206 474.038 296.91 471.654 294.906 469.961C294.209 469.318 293.312 468.933 292.365 468.872C290.342 468.838 288.367 468.252 286.653 467.177C284.939 466.103 283.55 464.58 282.638 462.773C282.638 462.047 282.058 461.249 281.767 460.305C278.138 450.285 276.178 447.889 275.235 447.599C273.047 448.143 270.756 448.115 268.582 447.517C266.408 446.92 264.425 445.773 262.822 444.186C259.991 440.701 259.846 435.256 262.822 426.906C266.234 415.943 283.8 403.817 299.116 401.857C305.207 401.317 311.344 402.003 317.166 403.873C322.988 405.744 328.376 408.761 333.014 412.748C339.985 418.743 345.659 426.098 349.691 434.363C353.722 442.627 356.025 451.627 356.459 460.813C357.983 480.852 373.372 494.575 388.252 507.789C408.431 525.795 429.336 544.092 415.98 578.434C412.932 585.173 408.439 591.157 402.819 595.963C397.198 600.769 390.59 604.279 383.461 606.242C373.335 609.647 362.713 611.34 352.031 611.252ZM301.221 488.984C302.403 496.773 300.699 504.726 296.43 511.347C292.846 516.454 291.388 522.755 292.365 528.917C293.962 532.983 298.607 536.178 306.882 539.663L308.044 540.171L308.479 541.333C308.987 542.712 308.479 543.511 307.39 545.762C294.978 569.504 297.736 586.276 316.028 596.586C326.193 601.534 337.235 604.427 348.519 605.1C359.804 605.772 371.111 604.212 381.792 600.507C388.104 598.729 393.961 595.619 398.97 591.386C403.978 587.153 408.021 581.894 410.826 575.966C422.731 545.617 404.221 529.135 384.623 511.71C368.944 497.697 352.685 483.176 350.942 460.886C350.525 452.439 348.377 444.169 344.631 436.587C340.885 429.006 335.621 422.276 329.166 416.814C325.149 413.293 320.46 410.622 315.383 408.962C310.305 407.302 304.945 406.688 299.624 407.157C286.776 408.755 270.589 419.428 268.121 428.213C265.653 436.998 266.452 438.959 267.468 440.266C268.484 441.572 272.331 441.936 274.726 441.645C280.969 440.919 284.526 450.793 287.139 457.981C287.139 458.925 287.719 459.724 288.01 460.305C288.444 460.969 289.009 461.537 289.67 461.974C290.332 462.411 291.076 462.708 291.857 462.846C293.073 462.784 294.289 462.964 295.436 463.376C296.582 463.787 297.635 464.421 298.535 465.242C301.748 467.836 303.809 471.593 304.269 475.697C304.866 480.389 303.674 485.133 300.93 488.984H301.221Z" fill="#150035"/>
<path d="M272.186 445.203C271.063 440.419 271.541 435.398 273.548 430.912C275.554 426.426 278.978 422.723 283.292 420.372L285.542 425.527C282.369 427.398 279.893 430.255 278.492 433.662C277.09 437.069 276.838 440.841 277.776 444.405L272.186 445.203Z" fill="#150035"/>
<path d="M307.898 543.219L302.454 541.404C304.33 535.417 307.418 529.88 311.528 525.14L315.738 528.988C312.134 533.114 309.461 537.968 307.898 543.219Z" fill="#150035"/>
<path d="M337.297 459.94C336.671 449.149 332.367 438.899 325.102 430.898L328.877 426.687C337.199 435.481 342.181 446.912 342.958 458.996L337.297 459.94Z" fill="#150035"/>
<path d="M382.591 589.542L379.76 584.605C383.848 582.358 387.334 579.16 389.925 575.28C392.515 571.4 394.132 566.953 394.64 562.315H400.302C399.813 567.959 397.941 573.396 394.852 578.145C391.763 582.894 387.552 586.808 382.591 589.542Z" fill="#150035"/>
<path d="M531.902 888.17C531.902 888.17 531.902 820.284 531.902 817.888C531.882 817.772 531.831 817.663 531.754 817.574C531.678 817.484 531.578 817.417 531.467 817.38L467.3 823.188L461.421 787.756C461.34 787.723 461.254 787.705 461.166 787.705C461.079 787.705 460.993 787.723 460.912 787.756L401.827 821.663H401.391L390.068 818.469C389.986 818.458 389.902 818.466 389.823 818.49C389.744 818.515 389.671 818.556 389.609 818.611C389.548 818.666 389.498 818.734 389.465 818.809C389.431 818.885 389.414 818.967 389.415 819.05V888.679C389.478 889.679 389.79 890.648 390.323 891.497C390.855 892.347 391.591 893.05 392.463 893.543L451.984 928.031C454.476 929.478 457.305 930.241 460.187 930.241C463.068 930.241 465.897 929.478 468.389 928.031L528.781 893.325C529.709 892.798 530.484 892.04 531.031 891.123C531.578 890.207 531.878 889.165 531.902 888.098V888.17Z" fill="#FF0000"/>
<path d="M460.186 933.187C456.792 933.189 453.46 932.287 450.531 930.573L391.01 896.013C389.723 895.271 388.642 894.217 387.868 892.949C387.095 891.68 386.652 890.237 386.583 888.752C386.583 888.316 386.583 888.244 386.583 838.436V819.05C386.559 818.529 386.666 818.01 386.894 817.541C387.122 817.071 387.464 816.667 387.889 816.364C388.307 816.044 388.793 815.825 389.309 815.725C389.825 815.624 390.358 815.644 390.865 815.783L401.245 818.687L459.314 785.216C459.838 784.93 460.424 784.78 461.02 784.78C461.616 784.78 462.203 784.93 462.726 785.216L463.887 785.87L469.549 820.139L531.756 814.549H532.264C532.974 814.728 533.603 815.14 534.05 815.719C534.498 816.299 534.738 817.011 534.732 817.744C534.732 818.47 534.732 887.953 534.732 888.171C534.642 889.66 534.183 891.102 533.398 892.369C532.612 893.637 531.524 894.689 530.232 895.432L469.767 930.065C466.92 931.965 463.605 933.045 460.186 933.187ZM392.172 822.027V888.607C392.243 889.137 392.437 889.644 392.74 890.085C393.042 890.527 393.445 890.891 393.914 891.148L453.435 925.708C455.503 926.886 457.842 927.505 460.222 927.505C462.602 927.505 464.94 926.886 467.009 925.708L527.401 891.003C527.904 890.72 528.324 890.31 528.617 889.812C528.911 889.315 529.067 888.749 529.07 888.171C529.07 887.445 529.07 833.209 529.07 820.503L467.009 826.093L465.484 825.512L464.686 825.149L459.169 792.186L402.116 824.932H400.519L392.172 822.027Z" fill="#150035"/>
<path d="M531.539 817.453L467.372 823.189L460.114 844.971V930.355C463.138 930.429 466.124 929.676 468.752 928.177L529.144 893.544C530.072 893 530.847 892.228 531.393 891.3C531.939 890.372 532.239 889.32 532.265 888.244C532.265 888.244 532.265 820.358 532.265 818.034C532.29 817.939 532.287 817.839 532.256 817.745C532.225 817.651 532.168 817.569 532.091 817.507C532.014 817.446 531.921 817.408 531.823 817.398C531.725 817.389 531.626 817.408 531.539 817.453Z" fill="#150035"/>
<path d="M460.185 933.187H456.846V844.173L465.484 818.978L467.807 820.285L531.683 814.549H532.119C532.848 814.729 533.495 815.149 533.956 815.742C534.417 816.335 534.664 817.066 534.659 817.817C534.659 818.47 534.659 887.954 534.659 888.172C534.575 889.662 534.119 891.107 533.333 892.375C532.547 893.643 531.456 894.694 530.159 895.432L469.694 930.138C466.854 931.987 463.57 933.04 460.185 933.187ZM462.581 845.479V927.306C464.136 927.026 465.632 926.486 467.008 925.709L527.4 891.076C527.905 890.776 528.323 890.351 528.616 889.843C528.908 889.334 529.065 888.758 529.07 888.172C529.07 887.446 529.07 833.136 529.07 820.503L469.258 825.876L462.581 845.479Z" fill="#150035"/>
<path d="M398.488 826.6L400.448 821.154L389.995 817.887C389.919 817.877 389.841 817.882 389.767 817.902C389.692 817.922 389.623 817.957 389.562 818.004C389.501 818.051 389.45 818.11 389.413 818.178C389.375 818.245 389.351 818.319 389.342 818.395V888.097C389.412 889.096 389.726 890.062 390.258 890.91C390.79 891.759 391.522 892.463 392.39 892.961L398.415 896.446V826.6H398.488Z" fill="#150035"/>
<path d="M401.318 901.749L391.01 895.723C389.723 894.981 388.642 893.927 387.868 892.659C387.095 891.39 386.652 889.947 386.583 888.462C386.583 888.099 386.583 888.026 386.583 838.219V818.76C386.559 818.239 386.666 817.72 386.894 817.251C387.122 816.781 387.464 816.377 387.889 816.074C388.304 815.749 388.79 815.527 389.308 815.426C389.825 815.325 390.359 815.348 390.865 815.493L404.221 819.196L403.205 822.1L401.39 827.11L401.318 901.749ZM392.172 821.882V888.317C392.243 888.847 392.437 889.354 392.74 889.795C393.042 890.237 393.445 890.601 393.914 890.858L395.656 891.874V825.585L396.6 823.044L392.172 821.882Z" fill="#150035"/>
<path d="M452.274 858.113L392.462 823.407C391.497 822.854 390.695 822.056 390.137 821.093C389.579 820.131 389.285 819.038 389.285 817.925C389.285 816.813 389.579 815.72 390.137 814.757C390.695 813.795 391.497 812.996 392.462 812.444L453.145 777.593C455.564 776.204 458.304 775.474 461.093 775.474C463.882 775.474 466.622 776.204 469.041 777.593L528.853 812.298C529.8 812.866 530.584 813.669 531.128 814.63C531.673 815.59 531.959 816.676 531.959 817.78C531.959 818.884 531.673 819.97 531.128 820.931C530.584 821.891 529.8 822.694 528.853 823.262L468.243 858.113C465.815 859.515 463.061 860.253 460.258 860.253C457.455 860.253 454.701 859.515 452.274 858.113Z" fill="white"/>
<path d="M460.259 863.049C456.941 863.077 453.678 862.199 450.823 860.508L391.084 825.875C389.699 825.061 388.55 823.899 387.753 822.505C386.955 821.11 386.535 819.531 386.535 817.925C386.535 816.318 386.955 814.739 387.753 813.344C388.55 811.95 389.699 810.788 391.084 809.974L451.766 775.123C454.602 773.486 457.819 772.624 461.094 772.624C464.368 772.624 467.585 773.486 470.421 775.123L530.232 809.756C531.617 810.57 532.766 811.732 533.563 813.127C534.361 814.521 534.781 816.1 534.781 817.707C534.781 819.313 534.361 820.892 533.563 822.287C532.766 823.681 531.617 824.843 530.232 825.657L469.55 860.508C466.73 862.157 463.525 863.034 460.259 863.049ZM461.057 778.318C458.787 778.311 456.556 778.913 454.597 780.061L393.915 814.911C393.381 815.202 392.937 815.633 392.63 816.157C392.323 816.682 392.165 817.28 392.172 817.888C392.159 818.507 392.314 819.117 392.621 819.654C392.928 820.192 393.375 820.635 393.915 820.938L453.726 855.643C455.701 856.784 457.942 857.384 460.222 857.384C462.503 857.384 464.744 856.784 466.719 855.643L527.401 820.793C527.925 820.49 528.361 820.057 528.667 819.535C528.972 819.013 529.136 818.42 529.143 817.816C529.157 817.197 529.002 816.587 528.695 816.05C528.388 815.512 527.941 815.069 527.401 814.766L467.59 780.061C465.602 778.92 463.35 778.319 461.057 778.318Z" fill="#150035"/>
<path d="M389.196 829.503H384.841V871.833H389.196V829.503Z" fill="#FF0000"/>
<path d="M492.778 758.861L464.251 742.161C463.785 741.864 463.244 741.706 462.691 741.706C462.138 741.706 461.596 741.864 461.13 742.161L426.434 763.943C426.129 764.138 425.909 764.439 425.815 764.789C425.721 765.138 425.76 765.509 425.926 765.831L459.461 801.771C459.523 801.984 459.523 802.211 459.461 802.424V814.041C459.461 817.453 473.034 807.652 475.575 809.104C475.575 809.104 475.575 809.104 476.01 809.612L458.953 820.285C459.042 820.444 459.163 820.583 459.309 820.693C459.455 820.803 459.622 820.881 459.8 820.922C459.977 820.963 460.162 820.966 460.341 820.931C460.52 820.897 460.69 820.825 460.84 820.721L495.681 798.939C496.539 797.907 497.069 796.643 497.206 795.309V767.646C497.192 765.94 496.785 764.26 496.017 762.736C495.249 761.213 494.141 759.886 492.778 758.861Z" fill="white"/>
<path d="M460.331 823.478H459.315C458.226 823.182 457.291 822.48 456.701 821.518L455.322 819.122L458.734 817.016C458.232 816.701 457.821 816.261 457.541 815.739C457.261 815.217 457.122 814.631 457.137 814.039V802.785L423.529 767.063C422.981 766.113 422.818 764.987 423.075 763.92C423.331 762.853 423.988 761.925 424.909 761.327L459.605 739.546C460.501 738.961 461.548 738.65 462.617 738.65C463.687 738.65 464.734 738.961 465.63 739.546L494.519 756.463C496.354 757.699 497.861 759.362 498.911 761.31C499.96 763.258 500.521 765.432 500.544 767.644V795.089C500.414 797.09 499.652 798.997 498.366 800.535L497.713 801.115L462.871 822.897C462.111 823.364 461.218 823.569 460.331 823.478ZM429.481 765.393L461.855 800.244C462.279 800.892 462.506 801.648 462.508 802.422V810.627L466.065 808.884C471.582 806.198 474.776 804.673 477.171 806.053H477.679L493.938 795.96C494.252 795.499 494.474 794.981 494.592 794.436V767.644C494.559 766.421 494.256 765.219 493.704 764.127C493.152 763.035 492.364 762.079 491.398 761.327L462.799 744.628L429.481 765.393Z" fill="#150035"/>
<path d="M434.854 796.107C434.854 796.107 434.854 796.978 434.854 798.357L459.098 818.832C459.254 819.105 459.465 819.343 459.716 819.532C459.967 819.721 460.255 819.857 460.56 819.931C460.865 820.006 461.183 820.018 461.493 819.966C461.803 819.915 462.099 819.8 462.364 819.631L496.335 798.43C497.192 797.398 497.723 796.134 497.859 794.8V769.388C497.86 769.218 497.814 769.051 497.728 768.905C497.642 768.759 497.519 768.639 497.37 768.557C497.222 768.476 497.054 768.435 496.884 768.441C496.715 768.447 496.55 768.498 496.407 768.589L462.074 790.371L434.854 796.107Z" fill="#150035"/>
<path d="M460.911 823.116H459.677C458.523 822.835 457.499 822.169 456.774 821.228L431.659 800.027L432.239 794.218L460.113 787.902L494.519 766.193C495.09 765.854 495.742 765.675 496.406 765.675C497.07 765.675 497.722 765.854 498.293 766.193C498.891 766.52 499.389 767.004 499.734 767.592C500.079 768.18 500.258 768.851 500.253 769.532V795.235C500.124 797.235 499.361 799.143 498.075 800.68L497.422 801.261L463.379 822.462C462.625 822.886 461.776 823.111 460.911 823.116ZM438.7 798.43L461.056 817.235L494.519 796.614C494.861 796.169 495.086 795.645 495.172 795.09V772.8L464.105 792.113V792.839L438.7 798.43Z" fill="#150035"/>
<path d="M456.775 821.011L428.248 804.311C426.859 803.301 425.722 801.981 424.929 800.457C424.135 798.932 423.706 797.245 423.675 795.526V768.081C423.675 764.669 425.708 763.144 428.248 764.596L456.775 781.586C458.174 782.593 459.321 783.91 460.127 785.434C460.933 786.958 461.376 788.648 461.42 790.371V817.889C461.42 820.938 459.315 822.463 456.775 821.011Z" fill="#FF0000"/>
<path d="M458.662 824.422C457.513 824.37 456.394 824.047 455.395 823.478L426.796 806.706C424.97 805.467 423.474 803.801 422.436 801.852C421.399 799.904 420.853 797.732 420.844 795.525V768.08C420.752 766.88 420.979 765.677 421.502 764.593C422.024 763.51 422.824 762.583 423.82 761.908C424.695 761.376 425.699 761.095 426.723 761.095C427.747 761.095 428.752 761.376 429.627 761.908L458.226 778.898C460.061 780.134 461.568 781.797 462.618 783.745C463.667 785.693 464.228 787.867 464.251 790.079V817.887C464.351 819.096 464.119 820.309 463.582 821.396C463.045 822.483 462.222 823.404 461.202 824.059C460.406 824.416 459.526 824.542 458.662 824.422ZM458.226 818.541C458.205 818.154 458.205 817.766 458.226 817.379V790.079C458.194 788.856 457.891 787.655 457.338 786.562C456.786 785.47 455.998 784.514 455.032 783.763L426.796 767.063C426.838 767.449 426.838 767.839 426.796 768.225V795.67C426.829 796.886 427.126 798.08 427.664 799.17C428.203 800.261 428.972 801.222 429.917 801.987L458.226 818.541Z" fill="#150035"/>
<path d="M493.963 784.166L463.368 802.591L465.614 806.323L496.21 787.899L493.963 784.166Z" fill="#FF0000"/>
<path d="M438.409 694.459C438.158 694.458 437.91 694.51 437.68 694.61C437.449 694.71 437.243 694.857 437.072 695.041C436.901 695.225 436.771 695.443 436.689 695.68C436.607 695.917 436.575 696.169 436.595 696.419L441.966 750.728C441.966 753.996 445.16 757.263 451.548 758.788C455.049 759.673 458.716 759.673 462.218 758.788C468.605 757.263 471.799 753.996 471.799 750.728L477.171 696.419C477.191 696.169 477.159 695.917 477.076 695.68C476.994 695.443 476.864 695.225 476.693 695.041C476.523 694.857 476.316 694.71 476.086 694.61C475.855 694.51 475.607 694.458 475.356 694.459H438.409Z" fill="#FF0000"/>
<path d="M456.846 762.489C454.816 762.494 452.792 762.25 450.821 761.763C443.563 759.948 439.135 755.954 439.135 750.944L433.764 696.926C433.69 696.278 433.763 695.622 433.976 695.007C434.19 694.391 434.539 693.831 434.998 693.368C435.421 692.881 435.945 692.491 436.535 692.228C437.124 691.965 437.764 691.833 438.409 691.843H475.356C476.001 691.833 476.641 691.965 477.23 692.228C477.82 692.491 478.344 692.881 478.767 693.368C479.226 693.831 479.575 694.391 479.789 695.007C480.002 695.622 480.075 696.278 480.001 696.926L474.557 751.235C474.557 755.954 470.202 759.948 462.943 761.763C460.949 762.255 458.901 762.499 456.846 762.489ZM439.498 697.144L444.797 750.291C444.797 752.324 447.12 754.647 452.055 755.882C455.126 756.681 458.349 756.681 461.419 755.882C466.5 754.647 468.678 752.324 468.678 750.581L473.977 697.144H439.498Z" fill="#150035"/>
<path d="M471.365 686.327C473.125 686.903 474.657 688.021 475.744 689.52C476.831 691.02 477.416 692.825 477.416 694.677C477.416 696.529 476.831 698.334 475.744 699.833C474.657 701.333 473.125 702.45 471.365 703.026C466.871 705.327 461.895 706.526 456.847 706.526C451.8 706.526 446.824 705.327 442.33 703.026C440.57 702.45 439.037 701.333 437.951 699.833C436.864 698.334 436.279 696.529 436.279 694.677C436.279 692.825 436.864 691.02 437.951 689.52C439.037 688.021 440.57 686.903 442.33 686.327C446.824 684.027 451.8 682.827 456.847 682.827C461.895 682.827 466.871 684.027 471.365 686.327Z" fill="#FF0000"/>
<path d="M456.847 709.342C451.309 709.413 445.843 708.089 440.95 705.494C438.727 704.669 436.811 703.183 435.457 701.236C434.103 699.289 433.378 696.974 433.378 694.603C433.378 692.232 434.103 689.917 435.457 687.97C436.811 686.023 438.727 684.537 440.95 683.712C445.877 681.171 451.34 679.846 456.883 679.846C462.426 679.846 467.889 681.171 472.816 683.712C475.038 684.537 476.955 686.023 478.309 687.97C479.662 689.917 480.388 692.232 480.388 694.603C480.388 696.974 479.662 699.289 478.309 701.236C476.955 703.183 475.038 704.669 472.816 705.494C467.9 708.098 462.408 709.422 456.847 709.342ZM456.847 685.673C452.305 685.58 447.813 686.628 443.781 688.722C440.878 690.465 439.208 692.57 439.208 694.676C439.41 695.963 439.936 697.178 440.736 698.207C441.535 699.235 442.583 700.044 443.781 700.557C447.845 702.561 452.315 703.604 456.847 703.604C461.378 703.604 465.848 702.561 469.912 700.557C471.127 700.06 472.193 699.257 473.007 698.227C473.821 697.196 474.355 695.973 474.558 694.676C474.558 692.57 472.888 690.465 469.912 688.722C465.887 686.61 461.39 685.561 456.847 685.673Z" fill="#150035"/>
<path d="M485.638 650.503L453.88 703.414L459.854 707.002L491.613 654.091L485.638 650.503Z" fill="#150035"/>
<path d="M456.5 665.581L449.889 704.595L456.759 705.76L463.37 666.746L456.5 665.581Z" fill="#150035"/>
<path d="M516.731 961.575V930.572C516.726 930.461 516.688 930.355 516.624 930.265C516.56 930.175 516.471 930.105 516.368 930.064L452.129 935.872L446.25 900.44C446.063 900.368 445.856 900.368 445.669 900.44L386.511 934.057H386.075L374.825 930.935C374.743 930.896 374.653 930.879 374.563 930.886C374.473 930.894 374.387 930.925 374.313 930.977C374.239 931.028 374.18 931.099 374.143 931.181C374.105 931.263 374.09 931.353 374.099 931.443C374.099 934.275 374.099 961.502 374.099 961.792C374.186 962.777 374.509 963.726 375.039 964.56C375.57 965.394 376.293 966.088 377.147 966.584L436.451 1001.58C438.949 1003.01 441.776 1003.76 444.653 1003.76C447.53 1003.76 450.357 1003.01 452.855 1001.58L513.247 966.875C514.189 966.357 514.978 965.602 515.538 964.685C516.099 963.768 516.41 962.721 516.441 961.647L516.731 961.575Z" fill="#FF0000"/>
<path d="M445.016 1006.66C441.623 1006.67 438.291 1005.76 435.362 1004.05L375.841 969.561C374.569 968.795 373.498 967.737 372.715 966.474C371.932 965.212 371.461 963.781 371.341 962.301C371.341 962.301 371.341 961.793 371.341 939.503V931.516C371.34 930.998 371.458 930.488 371.684 930.022C371.911 929.557 372.24 929.149 372.647 928.83C373.065 928.51 373.551 928.291 374.067 928.19C374.583 928.089 375.116 928.109 375.623 928.249L386.003 931.153L444.072 897.682C444.582 897.395 445.157 897.245 445.742 897.245C446.327 897.245 446.901 897.395 447.411 897.682L448.573 898.335L454.235 932.605L516.296 927.232H516.804C517.514 927.411 518.143 927.823 518.59 928.403C519.038 928.982 519.278 929.695 519.272 930.427V961.865C519.202 963.358 518.751 964.809 517.964 966.079C517.176 967.35 516.078 968.399 514.772 969.126L454.38 1003.83C451.545 1005.55 448.325 1006.52 445.016 1006.66ZM376.93 934.783V939.793C376.93 948.578 376.93 961.575 376.93 962.083C376.987 962.609 377.168 963.113 377.459 963.555C377.749 963.996 378.14 964.363 378.599 964.624L438.12 999.185C440.188 1000.36 442.527 1000.98 444.907 1000.98C447.287 1000.98 449.626 1000.36 451.694 999.185L512.086 964.552C512.582 964.237 512.998 963.81 513.301 963.306C513.603 962.802 513.784 962.234 513.828 961.647V933.186L451.767 938.704L450.605 938.268L449.371 937.615L443.709 904.579L386.656 937.324H385.059L376.93 934.783Z" fill="#150035"/>
<path d="M516.295 930.138L452.056 935.873L444.797 957.655V1003.76C447.822 1003.84 450.81 1003.09 453.435 1001.58L513.827 966.949C514.764 966.425 515.55 965.669 516.109 964.754C516.669 963.838 516.983 962.794 517.021 961.721V930.646C517.03 930.556 517.015 930.465 516.977 930.383C516.94 930.301 516.881 930.231 516.807 930.179C516.733 930.128 516.647 930.096 516.557 930.089C516.467 930.082 516.376 930.098 516.295 930.138Z" fill="#150035"/>
<path d="M445.015 1006.66H441.677V956.929L450.314 931.88L452.565 933.115L516.441 927.379H516.949C517.658 927.583 518.282 928.012 518.727 928.601C519.172 929.19 519.414 929.908 519.417 930.646V962.012C519.326 963.5 518.868 964.943 518.082 966.21C517.297 967.477 516.209 968.53 514.916 969.272L454.524 1003.91C451.648 1005.64 448.371 1006.59 445.015 1006.66ZM447.338 958.236V1000.78C448.902 1000.54 450.405 999.994 451.766 999.186L512.158 964.553C512.655 964.238 513.071 963.812 513.373 963.307C513.675 962.803 513.856 962.235 513.9 961.649V933.187L454.089 938.56L447.338 958.236Z" fill="#150035"/>
<path d="M383.243 939.284L385.639 934.056L375.186 931.152C375.105 931.113 375.015 931.096 374.925 931.103C374.835 931.111 374.749 931.142 374.675 931.193C374.601 931.245 374.542 931.316 374.504 931.398C374.467 931.48 374.452 931.57 374.46 931.66C374.46 934.492 374.46 961.719 374.46 962.009C374.548 962.994 374.87 963.943 375.401 964.777C375.931 965.611 376.654 966.305 377.509 966.801L383.534 970.286V939.356L383.243 939.284Z" fill="#150035"/>
<path d="M386.074 975.153L375.839 969.199C374.567 968.433 373.496 967.375 372.713 966.112C371.931 964.85 371.46 963.419 371.339 961.939C371.339 961.939 371.339 961.431 371.339 939.141V931.154C371.333 930.636 371.449 930.123 371.675 929.657C371.902 929.19 372.234 928.783 372.646 928.468C373.063 928.148 373.549 927.929 374.066 927.828C374.582 927.728 375.114 927.748 375.622 927.887L388.978 931.59L387.961 934.494C387.163 936.745 386.51 938.632 386.147 939.504L386.074 975.153ZM376.928 934.421V939.431C376.928 948.216 376.928 961.213 376.928 961.721C376.986 962.247 377.167 962.751 377.457 963.193C377.747 963.635 378.138 964.001 378.598 964.262L380.34 965.279V938.269L381.283 935.728L376.928 934.421Z" fill="#150035"/>
<path d="M437.03 970.796L377.291 936.091C376.326 935.538 375.524 934.74 374.966 933.777C374.408 932.814 374.114 931.722 374.114 930.609C374.114 929.496 374.408 928.403 374.966 927.441C375.524 926.478 376.326 925.68 377.291 925.127L437.974 890.494C440.372 889.083 443.103 888.339 445.886 888.339C448.668 888.339 451.399 889.083 453.798 890.494L513.609 925.127C514.574 925.68 515.376 926.478 515.934 927.441C516.492 928.403 516.786 929.496 516.786 930.609C516.786 931.722 516.492 932.814 515.934 933.777C515.376 934.74 514.574 935.538 513.609 936.091L452.926 970.941C450.495 972.308 447.748 973.013 444.959 972.988C442.17 972.963 439.436 972.207 437.03 970.796Z" fill="white"/>
<path d="M445.015 975.732C441.731 975.748 438.501 974.896 435.651 973.263L375.84 938.558C374.455 937.744 373.307 936.582 372.509 935.187C371.711 933.793 371.291 932.214 371.291 930.607C371.291 929 371.711 927.422 372.509 926.027C373.307 924.633 374.455 923.471 375.84 922.657L436.45 887.806C439.304 886.183 442.53 885.33 445.813 885.33C449.096 885.33 452.323 886.183 455.177 887.806L514.988 922.512C516.375 923.316 517.525 924.47 518.325 925.859C519.125 927.248 519.546 928.823 519.546 930.426C519.546 932.029 519.125 933.603 518.325 934.992C517.525 936.381 516.375 937.536 514.988 938.34L454.306 973.191C451.49 974.849 448.283 975.727 445.015 975.732ZM445.886 891.001C443.594 891.002 441.341 891.602 439.353 892.743L378.38 927.594C377.857 927.896 377.421 928.33 377.115 928.852C376.81 929.374 376.645 929.966 376.638 930.571C376.617 931.191 376.769 931.805 377.076 932.343C377.384 932.882 377.835 933.324 378.38 933.62L438.192 968.326C440.167 969.467 442.407 970.067 444.688 970.067C446.969 970.067 449.21 969.467 451.185 968.326L511.867 933.548C512.393 933.232 512.829 932.784 513.131 932.25C513.433 931.716 513.592 931.112 513.592 930.498C513.592 929.884 513.433 929.281 513.131 928.746C512.829 928.212 512.393 927.765 511.867 927.449L452.056 892.743C450.182 891.644 448.058 891.044 445.886 891.001Z" fill="#150035"/>
<path d="M406.98 929.99L438.483 948.142L456.92 937.469L425.707 919.027L406.98 929.99Z" fill="white"/>
<path d="M438.482 951.409L401.318 929.627L425.78 915.106L462.509 936.888L438.482 951.409ZM412.642 929.627L438.482 944.148L451.33 936.888L425.707 921.786L412.642 929.627Z" fill="#150035"/>
</svg>
