<svg width="133" height="133" viewBox="0 0 133 133" fill="none" xmlns="http://www.w3.org/2000/svg">
<path d="M77.4113 4.62225C83.0869 11.7809 87.2922 19.9903 89.7856 28.779C92.279 37.5676 93.0115 46.7624 91.9409 55.8349C90.9119 64.7466 88.1629 73.3739 83.8464 81.238C79.4622 89.2375 73.5375 96.2897 66.4139 101.988L58.3397 102.195L60.4073 94.3643C72.6526 84.5534 80.5223 70.2989 82.3002 54.7091C83.2335 46.9022 82.6093 38.9877 80.4634 31.4236C78.3176 23.8596 74.6929 16.7963 69.7991 10.6425C69.0007 9.63304 68.6361 8.3478 68.7854 7.06951C68.9347 5.79121 69.5856 4.62458 70.5951 3.82625C71.6045 3.02792 72.8898 2.66328 74.1681 2.81256C75.4464 2.96184 76.613 3.61281 77.4113 4.62225ZM84.958 109.602C84.925 108.316 84.3823 107.095 83.4492 106.208C82.5162 105.322 81.2692 104.843 79.9826 104.876L54.1108 105.539L60.7179 80.5164C60.8806 79.9003 60.9203 79.2581 60.8348 78.6266C60.7494 77.9952 60.5403 77.3867 60.2197 76.836C59.8991 76.2853 59.4731 75.8031 58.9661 75.417C58.4592 75.0309 57.8811 74.7485 57.265 74.5858C56.6488 74.4231 56.0067 74.3834 55.3752 74.4689C54.7437 74.5544 54.1353 74.7634 53.5845 75.084C53.0338 75.4046 52.5517 75.8306 52.1656 76.3376C51.7795 76.8446 51.4971 77.4226 51.3344 78.0388L43.0755 109.317C42.8832 110.046 42.8631 110.809 43.0168 111.546C43.1705 112.284 43.4939 112.975 43.9612 113.566C44.4285 114.157 45.0269 114.631 45.7091 114.951C46.3914 115.27 47.1386 115.426 47.8917 115.407L80.2315 114.578C80.8685 114.561 81.4961 114.42 82.0784 114.161C82.6607 113.902 83.1863 113.531 83.6252 113.069C84.0641 112.607 84.4077 112.063 84.6364 111.468C84.8651 110.873 84.9744 110.239 84.958 109.602Z" fill="#FF0000"/>
</svg>
