<svg width="41" height="41" viewBox="0 0 41 41" fill="none" xmlns="http://www.w3.org/2000/svg">
<path d="M38.938 5.27199L37.4364 3.77037C34.6871 1.02105 30.2296 1.02105 27.4803 3.77029C27.4803 3.77029 27.4803 3.77029 27.4802 3.77037L8.29223 22.9583C7.36101 23.8939 6.83666 25.1592 6.83329 26.4792V29.8959C6.83329 31.3111 7.98057 32.4584 9.39579 32.4584H12.8125C14.1324 32.4546 15.3976 31.9304 16.3333 30.9994L30.5005 16.8323C30.8398 16.5045 30.8492 15.9638 30.5215 15.6245C30.1937 15.2852 29.653 15.2758 29.3137 15.6035C29.3065 15.6104 29.2996 15.6173 29.2927 15.6245L15.1255 29.7916C14.5108 30.4032 13.6796 30.7475 12.8125 30.75H9.39579C8.92405 30.75 8.5416 30.3675 8.5416 29.8958V26.4791C8.54392 25.612 8.88833 24.7807 9.49997 24.1661L28.688 4.97819C30.7993 2.96727 34.1173 2.96727 36.2286 4.97819L37.7302 6.47981C39.8116 8.5624 39.8116 11.9378 37.7302 14.0204L16.3333 35.4172C14.9496 36.8088 13.0666 37.5887 11.1042 37.5834H4.2708C2.85558 37.5834 1.7083 36.4361 1.7083 35.0209V28.1875C1.71375 26.2272 2.49211 24.3482 3.87449 22.9583L20.2505 6.58231C20.5898 6.25455 20.5993 5.71386 20.2715 5.37449C19.9437 5.0352 19.4031 5.02575 19.0637 5.35351C19.0566 5.3604 19.0496 5.36737 19.0427 5.37449L2.66668 21.7505C0.9651 23.4615 0.00688671 25.7745 0 28.1875V35.0208C0 37.3795 1.9121 39.2916 4.2708 39.2916H11.1041C13.5196 39.2969 15.837 38.3368 17.5411 36.6249L38.9379 15.2281C41.6873 12.4788 41.6873 8.02139 38.938 5.27199Z" fill="#CFD8DC"/>
<path d="M11.1042 39.2917H4.2708C1.9121 39.2917 0 37.3796 0 35.0209V28.1875C0.00688671 25.7744 0.9651 23.4615 2.66668 21.7505L19.0428 5.37449C19.3705 5.0352 19.9112 5.02575 20.2506 5.35351C20.59 5.68127 20.5993 6.22196 20.2716 6.56133C20.2647 6.56846 20.2577 6.57542 20.2506 6.58231L3.87449 22.9583C2.49219 24.3482 1.71383 26.2273 1.7083 28.1875V35.0208C1.7083 36.436 2.85558 37.5833 4.2708 37.5833H11.1041C13.0666 37.5887 14.9495 36.8087 16.3333 35.4171L37.7301 14.0203C39.8116 11.9377 39.8116 8.56232 37.7301 6.47973L36.2285 4.97811C34.1171 2.96719 30.7992 2.96719 28.6879 4.97811L9.50005 24.1662C8.88842 24.7808 8.544 25.612 8.54168 26.4792V29.8959C8.54168 30.3676 8.92413 30.7501 9.39587 30.7501H12.8125C13.6796 30.7476 14.5108 30.4032 15.1255 29.7917L29.2927 15.6246C29.6204 15.2853 30.1611 15.2758 30.5005 15.6036C30.8398 15.9313 30.8492 16.472 30.5215 16.8114C30.5146 16.8185 30.5076 16.8255 30.5005 16.8324L16.3333 30.9994C15.3976 31.9304 14.1324 32.4546 12.8125 32.4584H9.39579C7.98057 32.4584 6.83329 31.3111 6.83329 29.8959V26.4792C6.83666 25.1592 7.36093 23.8939 8.29223 22.9583L27.4802 3.77037C30.2295 1.02105 34.687 1.02105 37.4363 3.77029C37.4363 3.77029 37.4363 3.77029 37.4364 3.77037L38.938 5.27199C41.6873 8.02131 41.6873 12.4788 38.9381 15.2281C38.9381 15.2281 38.9381 15.2281 38.938 15.2282L17.5412 36.625C15.8371 38.3369 13.5196 39.297 11.1042 39.2917Z" fill="white"/>
</svg>
