<svg width="21" height="21" viewBox="0 0 21 21" fill="none" xmlns="http://www.w3.org/2000/svg">
<g clip-path="url(#clip0)">
<path d="M11.0187 9.98112C10.8583 9.82075 10.5987 9.82075 10.4383 9.98112C10.2784 10.1411 10.2784 10.4007 10.4383 10.5611C10.5987 10.721 10.8583 10.721 11.0187 10.5611C11.1787 10.4007 11.1787 10.1411 11.0187 9.98112Z" fill="#FF0000"/>
<path d="M16.2401 4.76074C15.4386 3.95933 14.1412 3.95929 13.3397 4.76074C12.5404 5.56009 12.5404 6.8611 13.3399 7.66111C14.1395 8.46026 15.4405 8.46058 16.2401 7.66103C17.0414 6.85967 17.0416 5.56222 16.2401 4.76074ZM15.66 7.08094C15.1804 7.56058 14.3998 7.56058 13.9199 7.08103C13.4402 6.60106 13.4402 5.82037 13.9198 5.34078C14.4007 4.85995 15.1791 4.85987 15.66 5.34078C16.1409 5.82156 16.1409 6.60008 15.66 7.08094Z" fill="#FF0000"/>
<path d="M20.8791 0.120139C20.7985 0.039625 20.6886 -0.0040155 20.5743 0.000291128C20.4816 0.00361339 18.2735 0.092371 15.6487 1.0201C13.5454 1.76273 11.7923 2.82598 10.438 4.18031C10.1345 4.48378 9.83923 4.80559 9.55667 5.13991C8.2176 4.35167 7.14455 4.59883 6.46619 4.96186C4.90428 5.79776 3.9375 8.06739 3.9375 9.69079C3.93762 9.85666 4.03758 10.0062 4.19081 10.0697C4.24155 10.0907 4.29487 10.1009 4.3477 10.1009C4.45446 10.1009 4.55934 10.0592 4.6378 9.98081C5.46151 9.15709 6.47751 9.20861 6.80941 9.25225L6.95304 9.39589C6.67037 10.0685 6.44265 10.7374 6.27563 11.388C6.21534 11.6234 6.23568 11.8725 6.3253 12.1004C5.9304 12.2824 5.54941 12.5496 5.21768 12.8813C4.1619 13.9372 3.94751 16.5102 3.93889 16.6193C3.92946 16.7389 3.97286 16.8567 4.05772 16.9416C4.13495 17.0187 4.23942 17.0617 4.3477 17.0617C4.35844 17.0617 4.36923 17.0613 4.38002 17.0604C4.48904 17.0518 7.06219 16.8375 8.11797 15.7817C8.44958 15.4501 8.71675 15.0691 8.89874 14.6743C9.13999 14.7692 9.3883 14.7809 9.61159 14.7236C10.2619 14.5567 10.9307 14.329 11.6034 14.0463L11.747 14.1899C11.7906 14.5219 11.8421 15.5379 11.0185 16.3615C10.9012 16.4788 10.8661 16.6552 10.9296 16.8085C10.993 16.9617 11.1426 17.0617 11.3085 17.0617C12.9319 17.0617 15.2015 16.0949 16.0374 14.533C16.4004 13.8547 16.6476 12.7816 15.8593 11.4425C16.1935 11.1601 16.5153 10.8648 16.8189 10.5612C18.1733 9.20685 19.2365 7.45372 19.9791 5.35061C20.9069 2.72569 20.9956 0.517579 20.9989 0.424884C21.003 0.311066 20.9596 0.200693 20.8791 0.120139ZM4.85453 8.80858C5.10931 7.57553 5.84936 6.22247 6.85342 5.68509C7.52439 5.32604 8.25779 5.36123 9.03758 5.78808C8.37325 6.66179 7.79571 7.6031 7.31431 8.59711C7.3082 8.59334 7.23437 8.50052 7.09721 8.46959C7.04082 8.45683 5.95559 8.22342 4.85453 8.80858ZM7.53793 15.2016C6.97396 15.7656 5.65101 16.063 4.81482 16.1845C4.93631 15.3482 5.2338 14.0253 5.79772 13.4614C6.11354 13.1456 6.47973 12.9061 6.8478 12.7713L8.22805 14.1515C8.09319 14.5196 7.85379 14.8858 7.53793 15.2016ZM9.40783 13.929C9.28913 13.9594 9.15164 13.9148 9.04943 13.8127C8.51881 13.2821 8.31123 13.0745 8.2461 13.0094C8.12666 12.89 7.83377 12.5971 7.18683 11.9501C7.08454 11.8476 7.03992 11.7102 7.07023 11.5917C7.2016 11.0801 7.37341 10.5551 7.58235 10.0252L10.9741 13.417C10.4441 13.6259 9.91925 13.7977 9.40783 13.929ZM15.3142 14.1459C14.7768 15.1499 13.4238 15.89 12.1908 16.1447C12.5839 15.405 12.6706 14.4632 12.527 13.8921C12.4936 13.7595 12.4071 13.6928 12.4022 13.685C13.3962 13.2036 14.3374 12.626 15.2112 11.9617C15.6381 12.7416 15.6732 13.475 15.3142 14.1459ZM16.239 9.98114C15.8694 10.3507 15.4714 10.7077 15.0561 11.0423C14.0577 11.8462 12.9588 12.5271 11.7864 13.0692L7.93012 9.213C8.47218 8.04053 9.15312 6.94164 9.95694 5.94336C10.2918 5.52775 10.6488 5.12974 11.0182 4.76035C12.2333 3.54522 13.8015 2.57816 15.6805 1.88204L19.1173 5.31882C18.4212 7.19778 17.4542 8.76597 16.239 9.98114ZM19.4124 4.45376L16.5456 1.58694C18.1075 1.1018 19.4663 0.920147 20.1445 0.85485C20.0792 1.53321 19.8975 2.89201 19.4124 4.45376Z" fill="#FF0000"/>
<path d="M9.85812 16.9414C9.69787 16.7812 9.43816 16.7813 9.27803 16.9415L8.11811 18.1018C7.95799 18.262 7.95803 18.5217 8.1182 18.6818C8.27844 18.842 8.53815 18.842 8.69828 18.6817L9.8582 17.5214C10.0183 17.3612 10.0183 17.1015 9.85812 16.9414Z" fill="#FF0000"/>
<path d="M4.05783 11.1412C3.8977 10.981 3.63803 10.981 3.47778 11.1411L2.31745 12.301C2.15724 12.4611 2.1572 12.7208 2.31733 12.881C2.47741 13.0412 2.73708 13.0413 2.89737 12.8811L4.0577 11.7212C4.21791 11.5611 4.21795 11.3014 4.05783 11.1412Z" fill="#FF0000"/>
<path d="M6.95906 17.5217C6.79898 17.3616 6.53923 17.3616 6.37902 17.5217L3.60063 20.2997C3.44042 20.4598 3.44042 20.7196 3.60059 20.8797C3.76067 21.0399 4.02042 21.04 4.18063 20.8798L6.95902 18.1018C7.11923 17.9416 7.11923 17.6819 6.95906 17.5217Z" fill="#FF0000"/>
<path d="M3.67781 17.5217C3.51769 17.3616 3.25794 17.3616 3.09777 17.5217L0.319379 20.2997C0.159172 20.4598 0.159172 20.7196 0.319338 20.8797C0.479422 21.0399 0.739173 21.04 0.89938 20.8798L3.67777 18.1018C3.83798 17.9416 3.83798 17.6819 3.67781 17.5217Z" fill="#FF0000"/>
<path d="M3.47814 14.0412C3.31802 13.8811 3.05827 13.8811 2.8981 14.0413L0.120119 16.8197C-0.0400466 16.9799 -0.0400466 17.2395 0.12016 17.3997C0.280326 17.5599 0.540036 17.5599 0.700202 17.3997L3.47819 14.6213C3.63835 14.4611 3.63835 14.2014 3.47814 14.0412Z" fill="#FF0000"/>
<path d="M12.7587 8.24073C12.5985 8.08056 12.3388 8.08056 12.1786 8.24073L11.5986 8.82069C11.4385 8.98086 11.4385 9.24057 11.5986 9.40077C11.7588 9.56094 12.0185 9.56094 12.1787 9.40077L12.7587 8.82081C12.9188 8.66065 12.9188 8.40094 12.7587 8.24073Z" fill="#FF0000"/>
</g>
<defs>
<clipPath id="clip0">
<rect width="21" height="21" fill="white"/>
</clipPath>
</defs>
</svg>
