<svg width="21" height="21" viewBox="0 0 21 21" fill="none" xmlns="http://www.w3.org/2000/svg">
<path d="M18.8992 3.1499H9.44922V3.8499H18.8992V3.1499Z" fill="#FF0000"/>
<path d="M15.3992 4.55005H9.44922V5.25005H15.3992V4.55005Z" fill="#FF0000"/>
<path d="M15.3992 5.94995H9.44922V6.64995H15.3992V5.94995Z" fill="#FF0000"/>
<path d="M18.9 1.75H12.25V2.45H18.9V1.75Z" fill="#FF0000"/>
<path d="M11.5496 1.75H10.8496V2.45H11.5496V1.75Z" fill="#FF0000"/>
<path d="M10.8504 14H10.1504V14.7H10.8504V14Z" fill="#FF0000"/>
<path d="M5.84816 2.34744L5.35326 1.85254L4.65325 2.55254C4.51662 2.68921 4.51662 2.91076 4.65325 3.04744L5.35326 3.74744L5.84816 3.25254L5.39561 2.79999L5.84816 2.34744Z" fill="#FF0000"/>
<path d="M8.64803 2.55254L7.94803 1.85254L7.45312 2.34744L7.90568 2.79999L7.45312 3.25254L7.94803 3.74744L8.64803 3.04744C8.78466 2.91076 8.78466 2.68921 8.64803 2.55254Z" fill="#FF0000"/>
<path d="M6.66745 1.63881L5.9668 3.73877L6.63048 3.96021L7.33114 1.86025L6.66745 1.63881Z" fill="#FF0000"/>
<path d="M18.1992 10.8501V8.0501H17.4992V10.8501H16.7992V7.3501H16.0992V10.8501H15.3992V9.1001H14.6992V10.8501H13.9992V8.7501H13.2992V10.8501H12.5992V9.4501H11.8992V10.8501H11.1992V11.5501H18.8992V10.8501H18.1992Z" fill="#FF0000"/>
<path d="M18.5496 0H2.44961C1.29028 0.0011375 0.350747 0.940669 0.349609 2.1V8.9691V8.97225V12.95V14C0.350747 15.1593 1.29028 16.0989 2.44961 16.1H6.78331L5.38331 18.9H3.49961C2.9197 18.9 2.44961 19.3701 2.44961 19.95C2.44961 20.5299 2.9197 21 3.49961 21H17.4996C18.0795 21 18.5496 20.5299 18.5496 19.95C18.5496 19.3701 18.0795 18.9 17.4996 18.9H15.6159L14.2159 16.1H18.5496C19.7089 16.0989 20.6485 15.1593 20.6496 14V2.1C20.6485 0.940669 19.7089 0.0011375 18.5496 0ZM1.04961 4.9245L1.84516 5.8716C1.91166 5.95083 2.00983 5.99655 2.11326 5.99655H3.18461C3.28803 5.99655 3.38621 5.95083 3.45271 5.8716L4.24861 4.9245L5.03401 5.17965L5.12081 6.4127C5.12798 6.51582 5.1804 6.61049 5.26396 6.67135L6.13091 7.30135C6.21478 7.3619 6.321 7.38251 6.42141 7.3577L7.62296 7.05915L8.10876 7.7273L7.45391 8.7773C7.39966 8.86532 7.3871 8.97282 7.41961 9.07095L7.75106 10.0898C7.78295 10.1881 7.85659 10.2672 7.95231 10.3061L9.09961 10.7712V11.5972L7.95161 12.0624C7.85567 12.1011 7.7819 12.1805 7.75036 12.279L7.64536 12.6H5.62901C6.41336 10.9578 5.71791 8.99067 4.07571 8.20632C3.11115 7.74563 1.98302 7.78142 1.04961 8.30235V4.9245ZM1.04961 9.135C2.18168 8.25182 3.8154 8.45359 4.69853 9.58571C5.38042 10.4598 5.43305 11.67 4.82961 12.6H1.04961V9.135ZM17.4996 19.6C17.6929 19.6 17.8496 19.7567 17.8496 19.95C17.8496 20.1433 17.6929 20.3 17.4996 20.3H3.49961C3.30632 20.3 3.14961 20.1433 3.14961 19.95C3.14961 19.7567 3.30632 19.6 3.49961 19.6H17.4996ZM14.8333 18.9H6.16591L7.56591 16.1H13.4333L14.8333 18.9ZM19.9496 14C19.9496 14.7732 19.3228 15.4 18.5496 15.4H2.44961C1.67642 15.4 1.04961 14.7732 1.04961 14V13.3H5.01231H5.01546H19.9496V14ZM19.9496 12.6H8.48886L9.58121 12.1573C9.71316 12.1037 9.79952 11.9756 9.79961 11.8331V10.535C9.79965 10.3925 9.71329 10.2641 9.58121 10.2106L8.36461 9.71845L8.13431 9.0097L8.82801 7.8967C8.90326 7.77577 8.8977 7.62134 8.81401 7.5061L8.05101 6.4561C7.96723 6.34073 7.82189 6.28771 7.68351 6.32205L6.41091 6.63705L5.80961 6.20025L5.71756 4.89475C5.70754 4.75243 5.61212 4.63041 5.47641 4.5864L4.24266 4.1853C4.1069 4.14208 3.9585 4.18473 3.86641 4.29345L3.02396 5.2962H2.27741L1.43461 4.29345C1.34247 4.1846 1.19385 4.1419 1.05801 4.1853L1.04961 4.18845V2.1C1.04961 1.32681 1.67642 0.7 2.44961 0.7H18.5496C19.3228 0.7 19.9496 1.32681 19.9496 2.1V12.6Z" fill="#FF0000"/>
</svg>
