<svg width="21" height="21" viewBox="0 0 21 21" fill="none" xmlns="http://www.w3.org/2000/svg">
<g clip-path="url(#clip0)">
<path d="M8.75542 1.40405C4.69766 1.40405 1.4082 4.69351 1.4082 8.75127C1.4082 12.809 4.69766 16.0985 8.75542 16.0985C12.8132 16.0985 16.1026 12.809 16.1026 8.75127C16.0982 4.69534 12.8113 1.40847 8.75542 1.40405ZM8.75542 2.10379C10.9165 2.10549 12.9417 3.15877 14.184 4.92722L13.3093 5.80189C13.0964 5.67309 12.8528 5.60417 12.604 5.60246C11.8311 5.60246 11.2045 6.22903 11.2045 7.00193C11.2057 7.25099 11.2742 7.49507 11.4029 7.70831L9.11193 9.99924C8.67814 9.73474 8.13296 9.73474 7.69917 9.99924L6.10797 8.40805C6.23659 8.1948 6.30512 7.95073 6.30635 7.70166C6.30731 6.93029 5.68279 6.30421 4.91142 6.30325C4.27349 6.30246 3.7161 6.73398 3.55709 7.3518H2.25908C2.92151 4.29278 5.6255 2.10838 8.75542 2.10379ZM13.3037 7.00193C13.3037 7.3884 12.9904 7.70166 12.604 7.70166C12.2175 7.70166 11.9042 7.3884 11.9042 7.00193C11.9042 6.61546 12.2175 6.3022 12.604 6.3022C12.9904 6.3022 13.3037 6.61546 13.3037 7.00193ZM9.10528 11.2003C9.10528 11.5868 8.79202 11.9001 8.40555 11.9001C8.01908 11.9001 7.70581 11.5868 7.70581 11.2003C7.70581 10.8139 8.01908 10.5006 8.40555 10.5006C8.79202 10.5006 9.10528 10.8139 9.10528 11.2003ZM5.60661 7.70166C5.60661 8.08814 5.29335 8.4014 4.90688 8.4014C4.5204 8.4014 4.20714 8.08814 4.20714 7.70166C4.20714 7.31519 4.5204 7.00193 4.90688 7.00193C5.29335 7.00193 5.60661 7.31519 5.60661 7.70166ZM11.9853 14.5637C10.9973 15.1123 9.88558 15.3997 8.75542 15.3987C5.08662 15.4012 2.11043 12.4291 2.10794 8.76032C2.10776 8.52355 2.12027 8.28691 2.14537 8.05149H3.55709C3.71615 8.66747 4.27069 9.09868 4.90688 9.10109C5.15594 9.09987 5.40001 9.03134 5.61326 8.90272L7.20446 10.4939C7.07584 10.7072 7.0073 10.9512 7.00608 11.2003C7.00608 11.9732 7.63265 12.5998 8.40555 12.5998C9.17845 12.5998 9.80502 11.9732 9.80502 11.2003C9.80379 10.9512 9.73526 10.7072 9.60664 10.4939L11.8976 8.20298C12.1108 8.3316 12.3549 8.40013 12.604 8.40136C13.3769 8.40136 14.0034 7.77479 14.0034 7.00189C14.0022 6.75282 13.9337 6.50875 13.8051 6.2955L14.5678 5.53314C16.3484 8.74003 15.1921 12.7831 11.9853 14.5637Z" fill="#FF0000"/>
<path d="M17.5013 3.50395C18.1375 3.50154 18.692 3.07037 18.8511 2.45435H21V1.75461H18.8511C18.692 1.13858 18.1375 0.707414 17.5013 0.705009C16.7284 0.705009 16.1018 1.33158 16.1018 2.10448C16.1031 2.35354 16.1716 2.59762 16.3002 2.81086L15.6855 3.42558C12.7442 -0.406389 7.25339 -1.12843 3.42143 1.81286C-0.410539 4.75415 -1.13258 10.245 1.80871 14.077C4.58509 17.694 9.67439 18.5715 13.5016 16.0929L14.5575 17.1488L15.0522 17.6435L17.8687 20.4599C18.585 21.1762 19.7463 21.1762 20.4626 20.4599C21.1789 19.7436 21.1789 18.5823 20.4626 17.866L17.6462 15.0496L17.1514 14.5549L16.0955 13.499C17.9699 10.6119 17.9699 6.89211 16.0955 4.00496L16.7953 3.30522C17.0084 3.43389 17.2524 3.50255 17.5013 3.50395ZM17.5013 1.40474C17.8878 1.40474 18.201 1.71801 18.201 2.10448C18.201 2.49095 17.8878 2.80421 17.5013 2.80421C17.1148 2.80421 16.8016 2.49095 16.8016 2.10448C16.8016 1.71801 17.1149 1.40474 17.5013 1.40474ZM19.9679 18.3607C20.416 18.7987 20.4241 19.5171 19.9861 19.9652C19.5481 20.4133 18.8297 20.4215 18.3816 19.9834C18.3755 19.9775 18.3694 19.9714 18.3634 19.9652L15.547 17.1488L17.1514 15.5443L19.9679 18.3607ZM16.6567 15.0496L15.0522 16.6541L14.0838 15.6856C14.1331 15.6478 14.1793 15.6062 14.228 15.5674C14.2766 15.5285 14.3329 15.482 14.385 15.4383C14.4617 15.3739 14.5372 15.3088 14.6114 15.242C14.6495 15.207 14.6859 15.172 14.7234 15.137C14.8668 15.0027 15.0057 14.8638 15.1401 14.7203C15.175 14.6829 15.21 14.6465 15.245 14.6084C15.3118 14.5342 15.3769 14.4586 15.4413 14.382C15.4852 14.3302 15.5282 14.2779 15.5704 14.2249C15.6089 14.1767 15.6505 14.1305 15.6883 14.0811L16.6567 15.0496ZM15.2999 13.4244C15.1897 13.5784 15.076 13.7292 14.956 13.8744C14.921 13.9167 14.8836 13.9576 14.8476 13.9993C14.7405 14.1238 14.63 14.2447 14.5159 14.3617C14.4662 14.413 14.4157 14.4635 14.3644 14.5132C14.2478 14.6273 14.127 14.7378 14.0019 14.8449C13.9603 14.8799 13.9194 14.918 13.877 14.9534C13.7318 15.0734 13.581 15.1871 13.4271 15.2973C9.80528 17.8848 4.77161 17.0463 2.18412 13.4244C-0.403367 9.80261 0.435134 4.76894 4.05696 2.18145C7.67879 -0.406039 12.7125 0.432418 15.2999 4.05429C17.3021 6.85681 17.3021 10.6219 15.2999 13.4244Z" fill="#FF0000"/>
</g>
<defs>
<clipPath id="clip0">
<rect width="21" height="21" fill="white"/>
</clipPath>
</defs>
</svg>
