<svg width="23" height="23" viewBox="0 0 23 23" fill="none" xmlns="http://www.w3.org/2000/svg">
<g clip-path="url(#clip0)">
<path d="M15.9549 17.7294C15.8023 17.5709 15.5206 17.5254 15.3136 17.7235C15.3122 17.7249 15.3107 17.7264 15.3092 17.7278C15.1049 17.9287 15.1418 18.2116 15.2956 18.3691C15.3772 18.4527 15.4951 18.5042 15.6185 18.5042C15.7274 18.5042 15.8406 18.4641 15.937 18.3705C16.1427 18.171 16.1077 17.8878 15.9549 17.7294Z" fill="#FF0000"/>
<path d="M20.0223 9.08135C19.9361 8.8487 19.6777 8.73006 19.4451 8.81613C19.2125 8.90229 19.0938 9.16069 19.1799 9.39333C19.5677 10.4402 19.7643 11.5424 19.7643 12.6693C19.7643 17.8703 15.5329 22.1016 10.332 22.1016C8.4021 22.1016 6.54688 21.5229 4.96675 20.4281C4.76294 20.2868 4.48303 20.3375 4.34176 20.5414C4.20043 20.7453 4.25119 21.0252 4.45514 21.1664C6.18624 22.3659 8.21842 22.9999 10.3321 22.9999C13.0915 22.9999 15.6857 21.9253 17.6369 19.9741C19.5881 18.0229 20.6627 15.4287 20.6627 12.6693C20.6626 11.4356 20.4471 10.2284 20.0223 9.08135Z" fill="#FF0000"/>
<path d="M13.8112 2.93934C12.6968 2.54088 11.5265 2.33887 10.3325 2.33887C7.57312 2.33887 4.97893 3.41344 3.0277 5.36457C1.07653 7.31584 0.00195312 9.91008 0.00195312 12.6694C0.00195312 14.8093 0.650444 16.8623 1.87744 18.6065C1.96486 18.7309 2.10389 18.7973 2.24521 18.7973C2.33447 18.7973 2.42463 18.7708 2.5032 18.7155C2.70611 18.5727 2.7549 18.2925 2.61218 18.0897C1.49223 16.4975 0.900254 14.6233 0.900254 12.6694C0.900254 7.46844 5.13157 3.23717 10.3325 3.23717C11.4231 3.23717 12.4917 3.42153 13.5087 3.78517C13.7422 3.86872 13.9994 3.74708 14.0828 3.51348C14.1664 3.27993 14.0447 3.02289 13.8112 2.93934Z" fill="#FF0000"/>
<path d="M22.9649 3.72494C22.8954 3.55707 22.7316 3.44768 22.5499 3.44768H20.1899L20.4437 3.19387C20.619 3.0185 20.619 2.73405 20.4437 2.55864C20.2682 2.38326 19.9839 2.38326 19.8084 2.55864L19.5514 2.81568V0.449198C19.5514 0.267579 19.4419 0.103749 19.2741 0.0342103C19.1063 -0.0353286 18.913 0.00312441 18.7847 0.131556L14.8251 4.09114C14.7408 4.17537 14.6935 4.28961 14.6935 4.40874V5.96685C13.3979 5.11936 11.9043 4.67445 10.3328 4.67445C5.92445 4.67445 2.33789 8.26101 2.33789 12.6694C2.33789 17.0778 5.92445 20.6644 10.3328 20.6644C11.796 20.6644 13.2275 20.2653 14.4725 19.5105C14.6846 19.3818 14.7523 19.1056 14.6237 18.8935C14.4952 18.6814 14.2189 18.6136 14.0068 18.7423C12.9022 19.412 11.6318 19.766 10.3328 19.766C6.41975 19.766 3.23619 16.5825 3.23619 12.6694C3.23619 8.75622 6.41975 5.57271 10.3328 5.57271C11.9307 5.57271 13.4377 6.09061 14.6935 7.0704V7.67347L13.875 8.49199C12.9191 7.68021 11.6823 7.18962 10.3328 7.18962C7.31132 7.18962 4.85315 9.64779 4.85315 12.6693C4.85315 15.6908 7.31132 18.149 10.3328 18.149C13.3544 18.149 15.8125 15.6908 15.8125 12.6693C15.8125 11.3199 15.322 10.0831 14.5102 9.12719L15.3319 8.30543H15.9295C16.8978 9.5464 17.4295 11.0901 17.4295 12.6693C17.4295 13.9935 17.0625 15.285 16.3683 16.4042C16.2375 16.615 16.3024 16.8919 16.5133 17.0227C16.587 17.0684 16.6687 17.0902 16.7496 17.0902C16.8999 17.0902 17.0467 17.0148 17.1317 16.8778C17.9143 15.6162 18.3278 14.161 18.3278 12.6693C18.3278 11.1179 17.8721 9.59667 17.0319 8.30543H18.5902C18.7094 8.30543 18.8236 8.25809 18.9078 8.17386L22.8674 4.21427C22.996 4.08598 23.0344 3.89277 22.9649 3.72494ZM14.9143 12.6694C14.9143 15.1956 12.8591 17.2508 10.3329 17.2508C7.80676 17.2508 5.75154 15.1956 5.75154 12.6694C5.75154 10.1432 7.80676 8.08801 10.3329 8.08801C11.4346 8.08801 12.4466 8.47897 13.2378 9.12934L12.2148 10.1523C11.6898 9.75874 11.0382 9.52533 10.333 9.52533C8.59931 9.52533 7.1889 10.9358 7.1889 12.6694C7.1889 14.4031 8.59936 15.8135 10.333 15.8135C12.0666 15.8135 13.4771 14.403 13.4771 12.6694C13.4771 11.9642 13.2436 11.3125 12.8501 10.7875L13.873 9.76454C14.5234 10.5557 14.9143 11.5677 14.9143 12.6694ZM10.0153 12.987C10.1031 13.0748 10.218 13.1186 10.3329 13.1186C10.4479 13.1186 10.5628 13.0748 10.6505 12.987L12.2057 11.4319C12.4411 11.787 12.5787 12.2124 12.5787 12.6694C12.5787 13.9077 11.5712 14.9152 10.3329 14.9152C9.09462 14.9152 8.08716 13.9077 8.08716 12.6694C8.08716 11.4311 9.09462 10.4236 10.3329 10.4236C10.79 10.4236 11.2153 10.5612 11.5705 10.7967L10.0153 12.3518C9.83992 12.5272 9.83992 12.8116 10.0153 12.987ZM15.5919 6.77522V4.5948L18.6531 1.53356V3.71398L15.5919 6.77522ZM18.4043 7.40722H16.2304L19.2916 4.34598H21.4655L18.4043 7.40722Z" fill="#FF0000"/>
<path d="M3.6534 19.3299C3.56989 19.2464 3.45404 19.1982 3.33589 19.1982C3.21725 19.1982 3.1014 19.2463 3.01834 19.3299C2.93434 19.4134 2.88672 19.5293 2.88672 19.6474C2.88672 19.7656 2.93434 19.8814 3.01834 19.965C3.10185 20.0485 3.2173 20.0966 3.33589 20.0966C3.45404 20.0966 3.56989 20.0485 3.6534 19.965C3.73695 19.8814 3.78507 19.7656 3.78507 19.6474C3.78507 19.5293 3.737 19.4139 3.6534 19.3299Z" fill="#FF0000"/>
</g>
<defs>
<clipPath id="clip0">
<rect width="23" height="23" fill="white"/>
</clipPath>
</defs>
</svg>
