<svg width="228" height="228" viewBox="0 0 228 228" fill="none" xmlns="http://www.w3.org/2000/svg">
<path d="M86.1162 81.5755L79.8379 85.194C79.4419 85.3886 79.0065 85.4897 78.5653 85.4897C78.124 85.4897 77.6886 85.3886 77.2926 85.194L71.3536 81.7451C70.6183 81.3494 70.5618 80.6709 71.3536 80.3317L77.632 76.7133C78.028 76.5187 78.4634 76.4175 78.9046 76.4175C79.3459 76.4175 79.7813 76.5187 80.1773 76.7133L86.1162 80.1621C86.6819 80.5579 86.7384 81.1798 86.1162 81.5755Z" fill="#150035"/>
<path d="M85.3235 98.9344L78.8755 102.553C78.4795 102.747 78.0441 102.849 77.6029 102.849C77.1616 102.849 76.7262 102.747 76.3302 102.553L70.3912 99.104C69.6559 98.7083 69.5994 98.0298 70.3912 97.6906L76.6696 94.0721C77.0656 93.8776 77.501 93.7764 77.9422 93.7764C78.3835 93.7764 78.8189 93.8776 79.2149 94.0721L84.871 97.521C85.8891 97.9167 85.9457 98.5386 85.3235 98.9344Z" fill="#150035"/>
<path d="M100.765 89.9996L94.4867 93.618C94.0948 93.8259 93.6578 93.9346 93.2141 93.9346C92.7704 93.9346 92.3334 93.8259 91.9414 93.618L86.2853 90.2257C85.55 89.7734 85.4934 89.1515 86.2853 88.7557L92.1111 84.7981C92.5031 84.5902 92.9401 84.4814 93.3838 84.4814C93.8275 84.4814 94.2645 84.5902 94.6564 84.7981L100.595 88.1903C101.5 88.9819 101.5 89.6603 100.765 89.9996Z" fill="#150035"/>
<path d="M100.822 107.866L94.5432 111.485C94.1513 111.693 93.7143 111.801 93.2706 111.801C92.8269 111.801 92.3899 111.693 91.9979 111.485L86.059 108.093C85.3237 107.64 85.2671 107.018 86.059 106.623L92.3373 103.004C92.7293 102.796 93.1662 102.687 93.6099 102.688C94.0537 102.687 94.4906 102.796 94.8826 103.004L100.822 106.396C101.5 106.849 101.5 107.414 100.822 107.866Z" fill="#150035"/>
<path d="M116.263 98.9342L109.984 102.609C109.584 102.789 109.15 102.881 108.712 102.881C108.273 102.881 107.839 102.789 107.439 102.609L101.5 99.0473C100.765 98.6515 100.708 97.9731 101.5 97.5773L107.778 93.9589C108.174 93.7643 108.61 93.6631 109.051 93.6631C109.492 93.6631 109.928 93.7643 110.324 93.9589L115.98 97.4077C116.828 97.9165 116.885 98.595 116.263 98.9342Z" fill="#150035"/>
<path d="M115.471 116.29L109.193 119.965C108.793 120.145 108.359 120.237 107.92 120.237C107.482 120.237 107.048 120.145 106.648 119.965L100.709 116.517C99.9736 116.121 99.917 115.442 100.709 115.047L106.987 111.428C107.383 111.234 107.819 111.132 108.26 111.132C108.701 111.132 109.136 111.234 109.532 111.428L115.471 114.877C116.037 115.273 116.094 115.951 115.471 116.29Z" fill="#150035"/>
<path d="M130.912 107.414L124.578 111.032C124.196 111.24 123.768 111.349 123.333 111.349C122.898 111.349 122.471 111.24 122.089 111.032L116.15 107.414C115.415 106.962 115.301 106.34 116.15 105.944L122.428 102.325C122.82 102.118 123.257 102.009 123.701 102.009C124.145 102.009 124.581 102.118 124.973 102.325L130.912 105.718C131.478 106.396 131.535 107.018 130.912 107.414Z" fill="#150035"/>
<path d="M130.12 124.773L124.125 128.391C123.733 128.599 123.296 128.708 122.852 128.708C122.408 128.708 121.971 128.599 121.579 128.391L115.641 124.999C114.905 124.546 114.849 123.925 115.641 123.529L121.919 119.91C122.311 119.702 122.748 119.594 123.191 119.594C123.635 119.594 124.072 119.702 124.464 119.91L130.403 123.303C130.686 123.755 130.742 124.377 130.12 124.773Z" fill="#150035"/>
<path d="M145.562 115.838L139.227 119.513C138.838 119.695 138.413 119.789 137.983 119.789C137.553 119.789 137.128 119.695 136.739 119.513L130.8 116.064C130.064 115.668 129.951 114.99 130.8 114.594L137.078 110.975C137.474 110.781 137.909 110.68 138.351 110.68C138.792 110.68 139.227 110.781 139.623 110.975L145.28 114.424C146.128 114.82 146.184 115.499 145.562 115.838Z" fill="#150035"/>
<path d="M160.947 106.961L154.669 110.58C154.287 110.787 153.859 110.896 153.424 110.896C152.989 110.896 152.562 110.787 152.18 110.58L146.241 107.187C145.506 106.735 145.392 106.113 146.241 105.717L152.406 101.76C152.788 101.552 153.216 101.443 153.65 101.443C154.085 101.443 154.513 101.552 154.895 101.76L160.834 105.152C161.513 105.943 161.626 106.565 160.947 106.961Z" fill="#150035"/>
<path d="M176.388 98.0294L170.11 101.761C169.72 101.943 169.296 102.037 168.866 102.037C168.436 102.037 168.011 101.943 167.621 101.761L161.682 98.3121C160.89 97.9163 160.834 97.2378 161.682 96.8421L168.017 93.2236C168.403 93.0297 168.829 92.9287 169.261 92.9287C169.694 92.9287 170.12 93.0297 170.506 93.2236L176.445 96.6725C176.954 97.0117 177.067 97.6901 176.388 98.0294Z" fill="#150035"/>
<path d="M192 89.1521L185.721 92.7706C185.329 92.9785 184.892 93.0872 184.449 93.0872C184.005 93.0872 183.568 92.9785 183.176 92.7706L177.52 89.3783C176.785 88.926 176.728 88.3041 177.52 87.9083L183.855 84.2899C184.237 84.082 184.664 83.9731 185.099 83.9731C185.534 83.9731 185.962 84.082 186.344 84.2899L192 87.6822C192.396 88.1345 192.509 88.7564 192 89.1521Z" fill="#150035"/>
<path d="M207.271 80.2201L200.993 83.895C200.593 84.0744 200.159 84.1671 199.72 84.1671C199.282 84.1671 198.848 84.0744 198.448 83.895L192.791 80.4462C192.056 80.0504 192 79.372 192.791 78.9762L199.07 75.3578C199.466 75.1632 199.901 75.062 200.342 75.062C200.784 75.062 201.219 75.1632 201.615 75.3578L207.554 78.8066C207.837 79.1458 207.893 79.8808 207.271 80.2201Z" fill="#150035"/>
<path d="M161.06 124.772L154.725 128.447C154.336 128.629 153.911 128.723 153.481 128.723C153.051 128.723 152.626 128.629 152.237 128.447L146.58 124.999C145.845 124.603 145.732 123.924 146.58 123.585L152.406 119.797C152.807 119.618 153.24 119.525 153.679 119.525C154.118 119.525 154.551 119.618 154.952 119.797L160.608 123.246C161.626 123.755 161.682 124.377 161.06 124.772Z" fill="#150035"/>
<path d="M176.501 115.895L170.166 119.513C169.785 119.721 169.357 119.83 168.922 119.83C168.487 119.83 168.059 119.721 167.678 119.513L161.739 116.121C161.003 115.669 160.89 115.047 161.739 114.651L168.017 111.033C168.399 110.825 168.827 110.716 169.261 110.716C169.696 110.716 170.124 110.825 170.506 111.033L176.162 114.425C177.01 114.877 177.123 115.499 176.501 115.895Z" fill="#150035"/>
<path d="M191.999 106.961L185.721 110.636C185.331 110.818 184.906 110.913 184.476 110.913C184.046 110.913 183.622 110.818 183.232 110.636L177.293 107.188C176.501 106.792 176.445 106.113 177.293 105.774L183.289 101.76C183.678 101.578 184.103 101.484 184.533 101.484C184.963 101.484 185.388 101.578 185.777 101.76L191.716 105.209C192.452 105.944 192.565 106.622 191.999 106.961Z" fill="#150035"/>
<path d="M207.328 98.0844L201.049 101.759C200.657 101.967 200.221 102.076 199.777 102.076C199.333 102.076 198.896 101.967 198.504 101.759L192.848 98.3671C192.113 97.9148 192.056 97.2928 192.848 96.8971L199.183 93.2786C199.565 93.0708 199.993 92.9619 200.427 92.9619C200.862 92.9619 201.29 93.0708 201.672 93.2786L207.328 96.6709C207.893 97.0667 208.007 97.6886 207.328 98.0844Z" fill="#150035"/>
<path d="M74.1244 205.959L67.5633 209.578C67.1771 209.772 66.751 209.873 66.3189 209.873C65.8868 209.873 65.4607 209.772 65.0745 209.578L59.4184 206.129C58.6831 205.677 58.57 205.055 59.4184 204.659L65.6967 201.041C66.0828 200.847 66.509 200.746 66.9411 200.746C67.3732 200.746 67.7993 200.847 68.1854 201.041L73.8416 204.489C74.6335 204.942 74.7466 205.62 74.1244 205.959Z" fill="#150035"/>
<path d="M89.51 197.083L83.2317 200.701C82.8499 200.909 82.4221 201.018 81.9873 201.018C81.5526 201.018 81.1248 200.909 80.743 200.701L74.804 197.309C74.0121 196.857 73.9556 196.178 74.804 195.839L80.9127 192.221C81.2988 192.027 81.7249 191.926 82.157 191.926C82.5891 191.926 83.0153 192.027 83.4014 192.221L89.0575 195.67C90.1888 196.065 90.1888 196.687 89.51 197.083Z" fill="#150035"/>
<path d="M88.7178 214.441L82.4395 218.06C82.0577 218.268 81.6299 218.377 81.1951 218.377C80.7604 218.377 80.3326 218.268 79.9508 218.06L74.2946 214.668C73.5593 214.215 73.4462 213.537 74.2946 213.198L80.573 209.579C80.9591 209.385 81.3852 209.284 81.8173 209.284C82.2494 209.284 82.6756 209.385 83.0617 209.579L89.0006 213.028C89.2834 213.424 89.3966 214.046 88.7178 214.441Z" fill="#150035"/>
<path d="M58.5702 214.327L52.2919 218.002C51.8916 218.182 51.4579 218.275 51.0193 218.275C50.5806 218.275 50.1469 218.182 49.7466 218.002L44.0905 214.554C43.3552 214.158 43.2986 213.479 44.0905 213.084L49.9163 209.182C50.3123 208.988 50.7477 208.887 51.1889 208.887C51.6302 208.887 52.0656 208.988 52.4616 209.182L58.4006 212.631C59.1359 213.31 59.1924 213.988 58.5702 214.327Z" fill="#150035"/>
<path d="M73.2202 222.809L66.9418 226.427C66.5499 226.635 66.1129 226.744 65.6692 226.744C65.2254 226.744 64.7885 226.635 64.3965 226.427L58.7404 223.035C58.0051 222.583 57.9485 221.961 58.7404 221.565L65.0187 217.946C65.4107 217.739 65.8476 217.63 66.2913 217.63C66.7351 217.63 67.172 217.739 67.564 217.946L73.503 221.339C73.7858 221.791 73.8423 222.413 73.2202 222.809Z" fill="#150035"/>
<path d="M104.159 205.508L97.8807 209.183C97.4847 209.378 97.0493 209.479 96.6081 209.479C96.1668 209.479 95.7314 209.378 95.3354 209.183L89.6793 205.734C88.8874 205.282 88.8308 204.66 89.6793 204.264L95.8445 200.533C96.2306 200.339 96.6567 200.238 97.0888 200.238C97.5209 200.238 97.9471 200.339 98.3332 200.533L104.272 203.982C104.725 204.49 104.838 205.169 104.159 205.508Z" fill="#150035"/>
<path d="M103.368 222.866L97.0892 226.484C96.7031 226.678 96.277 226.779 95.8449 226.779C95.4128 226.779 94.9866 226.678 94.6005 226.484L88.6615 223.035C87.9262 222.583 87.8131 221.961 88.6615 221.565L94.9399 217.947C95.326 217.753 95.7521 217.652 96.1842 217.652C96.6164 217.652 97.0425 217.753 97.4286 217.947L103.368 221.396C103.933 221.848 104.046 222.526 103.368 222.866Z" fill="#150035"/>
<path d="M118.808 213.989L112.812 217.607C112.42 217.815 111.983 217.924 111.54 217.924C111.096 217.924 110.659 217.815 110.267 217.607L104.611 214.215C103.819 213.763 103.762 213.084 104.611 212.745L110.211 209.183C110.611 208.97 111.058 208.859 111.511 208.859C111.965 208.859 112.412 208.97 112.812 209.183L118.751 212.632C119.373 212.971 119.487 213.593 118.808 213.989Z" fill="#150035"/>
<path d="M134.25 205.055L127.972 208.673C127.576 208.868 127.141 208.969 126.699 208.969C126.258 208.969 125.823 208.868 125.427 208.673L119.488 205.225C118.752 204.772 118.696 204.15 119.488 203.755L125.766 200.136C126.162 199.942 126.597 199.84 127.039 199.84C127.48 199.84 127.915 199.942 128.311 200.136L134.25 203.585C134.816 204.037 134.872 204.716 134.25 205.055Z" fill="#150035"/>
<path d="M149.691 196.178L143.413 199.796C143.021 200.004 142.584 200.113 142.14 200.113C141.697 200.113 141.26 200.004 140.868 199.796L134.929 196.404C134.194 195.952 134.137 195.273 134.929 194.934L141.094 191.203C141.49 191.008 141.925 190.907 142.367 190.907C142.808 190.907 143.243 191.008 143.639 191.203L149.295 194.651C150.257 195.16 150.314 195.782 149.691 196.178Z" fill="#150035"/>
<path d="M165.132 187.246L158.797 190.864C158.411 191.058 157.985 191.159 157.553 191.159C157.121 191.159 156.695 191.058 156.309 190.864L150.37 187.415C149.634 186.963 149.521 186.341 150.37 185.945L156.648 182.327C157.044 182.132 157.48 182.031 157.921 182.031C158.362 182.031 158.797 182.132 159.193 182.327L164.85 185.719C165.698 186.228 165.755 186.907 165.132 187.246Z" fill="#150035"/>
<path d="M180.687 178.369L174.409 181.987C174.027 182.195 173.599 182.304 173.164 182.304C172.729 182.304 172.302 182.195 171.92 181.987L165.981 178.595C165.246 178.142 165.132 177.464 165.981 177.125L172.259 173.506C172.645 173.312 173.071 173.211 173.504 173.211C173.936 173.211 174.362 173.312 174.748 173.506L180.687 176.955C181.083 177.351 181.196 177.973 180.687 178.369Z" fill="#150035"/>
<path d="M134.307 222.922L128.028 226.54C127.636 226.748 127.199 226.857 126.756 226.857C126.312 226.857 125.875 226.748 125.483 226.54L119.827 223.148C119.035 222.696 118.979 222.074 119.827 221.678L126.162 218.059C126.544 217.852 126.971 217.743 127.406 217.743C127.841 217.743 128.269 217.852 128.651 218.059L134.59 221.452C134.872 221.904 134.985 222.526 134.307 222.922Z" fill="#150035"/>
<path d="M29.1586 180.348L22.8803 183.966C22.4883 184.174 22.0514 184.283 21.6076 184.283C21.1639 184.283 20.727 184.174 20.335 183.966L14.6788 180.574C13.9435 180.122 13.887 179.443 14.6788 179.104L20.5613 175.259C20.9474 175.065 21.3735 174.964 21.8056 174.964C22.2377 174.964 22.6639 175.065 23.05 175.259L28.7061 178.708C29.7242 179.33 29.8374 179.952 29.1586 180.348Z" fill="#150035"/>
<path d="M44.5998 171.416L38.3214 175.261C37.9254 175.455 37.4901 175.557 37.0488 175.557C36.6075 175.557 36.1722 175.455 35.7762 175.261L30.12 171.812C29.3847 171.36 29.3281 170.738 30.12 170.342L36.3983 166.724C36.7943 166.529 37.2297 166.428 37.671 166.428C38.1122 166.428 38.5476 166.529 38.9436 166.724L44.5998 170.172C44.9392 170.398 45.222 171.077 44.5998 171.416Z" fill="#150035"/>
<path d="M28.2537 197.309L21.9754 200.928C21.5893 201.122 21.1631 201.223 20.731 201.223C20.2989 201.223 19.8728 201.122 19.4867 200.928L13.8305 197.479C13.0952 197.026 12.9821 196.405 13.8305 196.009L19.6563 192.221C20.064 191.998 20.521 191.881 20.9855 191.881C21.4501 191.881 21.9071 191.998 22.3147 192.221L27.9709 195.67C28.8193 196.291 28.9325 196.97 28.2537 197.309Z" fill="#150035"/>
<path d="M42.9024 205.79L36.6241 209.182C36.2423 209.39 35.8144 209.499 35.3797 209.499C34.945 209.499 34.5171 209.39 34.1353 209.182L28.4792 205.79C27.7439 205.337 27.6307 204.659 28.4792 204.32L34.8141 200.701C35.2002 200.507 35.6263 200.406 36.0584 200.406C36.4905 200.406 36.9167 200.507 37.3028 200.701L43.2418 204.15C43.468 204.772 43.5811 205.394 42.9024 205.79Z" fill="#150035"/>
<path d="M43.5252 223.092L37.2469 226.71C36.8607 226.904 36.4346 227.005 36.0025 227.005C35.5704 227.005 35.1443 226.904 34.7581 226.71L29.102 223.261C28.3667 222.809 28.2536 222.187 29.102 221.791L35.3803 218.173C35.7664 217.979 36.1926 217.878 36.6247 217.878C37.0568 217.878 37.4829 217.979 37.869 218.173L43.5252 221.622C44.0908 222.074 44.2039 222.752 43.5252 223.092Z" fill="#150035"/>
<path d="M27.9707 214.384L21.6924 218.002C21.3004 218.21 20.8635 218.319 20.4197 218.319C19.976 218.319 19.5391 218.21 19.1471 218.002L13.2081 214.61C12.4728 214.158 12.4163 213.479 13.2081 213.14L19.2602 209.182C19.6562 208.988 20.0916 208.887 20.5329 208.887C20.9741 208.887 21.4095 208.988 21.8055 209.182L27.4617 212.631C28.4798 213.366 28.5363 213.988 27.9707 214.384Z" fill="#150035"/>
<path d="M15.8091 154.566L9.53079 158.297C9.14899 158.505 8.72118 158.614 8.28643 158.614C7.85169 158.614 7.42388 158.505 7.04208 158.297L1.38591 154.905C0.650611 154.453 0.537488 153.831 1.38591 153.435L7.66426 149.817C8.04605 149.609 8.47387 149.5 8.90861 149.5C9.34336 149.5 9.77117 149.609 10.153 149.817L15.8091 153.209C16.6576 153.548 16.6576 154.17 15.8091 154.566Z" fill="#150035"/>
<path d="M15.0744 171.925L8.73953 175.543C8.35773 175.751 7.92992 175.86 7.49517 175.86C7.06043 175.86 6.63262 175.751 6.25082 175.543L0.594653 172.151C-0.140648 171.698 -0.253772 171.077 0.594653 170.681L6.873 167.062C7.25479 166.854 7.68261 166.746 8.11735 166.746C8.5521 166.746 8.97991 166.854 9.36171 167.062L15.3007 170.455C15.6401 170.907 15.6966 171.529 15.0744 171.925Z" fill="#150035"/>
<path d="M30.4589 162.991L24.1805 166.666C23.7909 166.848 23.3662 166.942 22.9362 166.942C22.5062 166.942 22.0814 166.848 21.6918 166.666L15.7529 163.217C15.0176 162.821 14.9044 162.143 15.7529 161.803L21.8615 158.298C22.2511 158.116 22.6759 158.022 23.1059 158.022C23.5359 158.022 23.9606 158.116 24.3502 158.298L30.0064 161.747C31.0245 161.973 31.1376 162.651 30.4589 162.991Z" fill="#150035"/>
<path d="M149.748 213.989L143.47 217.664C143.07 217.844 142.636 217.937 142.197 217.937C141.759 217.937 141.325 217.844 140.925 217.664L135.268 214.216C134.533 213.82 134.477 213.141 135.268 212.802L141.094 209.184C141.495 209.004 141.928 208.912 142.367 208.912C142.806 208.912 143.239 209.004 143.64 209.184L149.579 212.633C150.314 212.972 150.37 213.65 149.748 213.989Z" fill="#150035"/>
<path d="M165.189 205.113L158.911 208.731C158.519 208.939 158.082 209.048 157.638 209.048C157.195 209.048 156.758 208.939 156.366 208.731L150.427 205.339C149.691 204.887 149.635 204.265 150.427 203.869L156.705 200.251C157.097 200.043 157.534 199.934 157.978 199.934C158.421 199.934 158.858 200.043 159.25 200.251L165.189 203.643C165.755 204.095 165.811 204.717 165.189 205.113Z" fill="#150035"/>
<path d="M180.687 196.179L174.352 199.854C173.962 200.036 173.538 200.13 173.108 200.13C172.678 200.13 172.253 200.036 171.863 199.854L165.924 196.405C165.189 196.01 165.076 195.331 165.924 194.992L172.203 191.317C172.603 191.138 173.037 191.045 173.475 191.045C173.914 191.045 174.348 191.138 174.748 191.317L180.404 194.766C181.196 195.162 181.252 195.84 180.687 196.179Z" fill="#150035"/>
<path d="M196.355 169.605L190.02 173.224C189.638 173.431 189.21 173.54 188.775 173.54C188.341 173.54 187.913 173.431 187.531 173.224L181.592 169.605C180.857 169.153 180.744 168.531 181.592 168.135L187.87 164.517C188.262 164.309 188.699 164.2 189.143 164.2C189.587 164.2 190.024 164.309 190.416 164.517L196.072 167.909C196.92 168.305 196.977 168.927 196.355 169.605Z" fill="#150035"/>
<path d="M211.739 160.391L205.461 163.953C205.071 164.135 204.647 164.229 204.217 164.229C203.787 164.229 203.362 164.135 202.972 163.953L197.316 160.504C196.581 160.108 196.468 159.43 197.316 159.091L203.312 155.416C203.701 155.234 204.126 155.14 204.556 155.14C204.986 155.14 205.411 155.234 205.8 155.416L211.739 158.865C212.305 159.373 212.418 160.052 211.739 160.391Z" fill="#150035"/>
<path d="M227.18 151.515L220.902 155.133C220.52 155.341 220.092 155.45 219.658 155.45C219.223 155.45 218.795 155.341 218.413 155.133L212.474 151.741C211.683 151.289 211.626 150.667 212.474 150.271L218.809 146.653C219.191 146.445 219.619 146.336 220.054 146.336C220.488 146.336 220.916 146.445 221.298 146.653L226.954 150.045C227.746 150.497 227.859 151.119 227.18 151.515Z" fill="#150035"/>
<path d="M196.412 187.189L190.133 190.808C189.741 191.016 189.304 191.124 188.861 191.124C188.417 191.124 187.98 191.016 187.588 190.808L181.932 187.415C181.196 186.963 181.14 186.285 181.932 185.945L188.21 182.327C188.606 182.132 189.041 182.031 189.483 182.031C189.924 182.031 190.359 182.132 190.755 182.327L196.412 185.776C196.977 186.172 197.034 186.567 196.412 187.189Z" fill="#150035"/>
<path d="M211.852 178.257L205.517 181.876C205.131 182.07 204.705 182.171 204.273 182.171C203.841 182.171 203.415 182.07 203.029 181.876L197.09 178.427C196.354 177.975 196.241 177.353 197.09 176.957L203.312 173.282C203.704 173.074 204.14 172.965 204.584 172.965C205.028 172.965 205.465 173.074 205.857 173.282L211.513 176.674C212.418 177.24 212.475 177.918 211.852 178.257Z" fill="#150035"/>
<path d="M227.237 169.606L220.959 173.224C220.573 173.418 220.147 173.519 219.715 173.519C219.283 173.519 218.856 173.418 218.47 173.224L212.814 169.832C212.079 169.38 211.966 168.701 212.814 168.362L219.092 164.744C219.479 164.55 219.905 164.449 220.337 164.449C220.769 164.449 221.195 164.55 221.581 164.744L227.52 168.192C227.803 168.362 227.916 168.984 227.237 169.606Z" fill="#150035"/>
<path d="M105.968 193.409L5.34528 135.062C4.91467 134.88 4.54921 134.572 4.29686 134.178C4.04452 133.785 3.91707 133.324 3.93124 132.857L4.32717 113.069C4.29843 112.927 4.30433 112.78 4.34437 112.64C4.38442 112.501 4.45743 112.373 4.55726 112.268C4.65708 112.162 4.78079 112.082 4.91794 112.035C5.05509 111.987 5.20166 111.974 5.34528 111.995L73.2193 91.5278H73.6152L105.177 73.4922C106.449 72.7875 107.868 72.3898 109.322 72.3309C110.775 72.272 112.222 72.5535 113.548 73.153L181.761 113.069C181.907 113.121 182.067 113.121 182.214 113.069H214.623C214.848 113.069 215.064 113.158 215.223 113.317C215.382 113.476 215.472 113.692 215.472 113.917V133.875C215.368 134.434 215.128 134.959 214.773 135.402C214.418 135.846 213.958 136.195 213.436 136.419L114.453 192.957C113.175 193.698 111.74 194.126 110.265 194.204C108.79 194.283 107.318 194.01 105.968 193.409Z" fill="#FF0000"/>
<path d="M109.589 196.461C107.95 196.516 106.328 196.125 104.894 195.33L4.49727 136.983C3.71152 136.594 3.05402 135.987 2.60285 135.236C2.15167 134.484 1.92578 133.619 1.952 132.742L2.12168 113.067C2.15141 112.338 2.43224 111.641 2.91666 111.095C3.40109 110.549 4.05936 110.187 4.78008 110.071L72.6541 89.604L104.159 71.738C105.761 70.8238 107.562 70.3149 109.405 70.2558C111.249 70.1967 113.079 70.5891 114.736 71.3987L182.61 110.975H214.68C215.079 110.954 215.477 111.018 215.848 111.165C216.219 111.311 216.554 111.536 216.83 111.823C217.121 112.111 217.351 112.455 217.506 112.834C217.662 113.213 217.739 113.619 217.735 114.028V133.986C217.634 134.932 217.296 135.838 216.752 136.618C216.208 137.399 215.476 138.03 214.624 138.453L115.471 194.991C113.662 195.958 111.641 196.463 109.589 196.461ZM107.157 191.542C108.14 191.934 109.199 192.101 110.256 192.033C111.312 191.965 112.34 191.662 113.265 191.146L212.305 134.608C212.983 134.212 213.21 133.873 213.21 133.76V115.385H182.157C181.621 115.401 181.091 115.264 180.63 114.99L112.417 74.9606C111.423 74.5718 110.356 74.4057 109.29 74.4741C108.225 74.5425 107.188 74.8436 106.252 75.3564L74.464 93.3355C74.11 93.5257 73.7282 93.6592 73.3328 93.7312L6.53349 113.915V132.742C6.53349 132.742 6.53349 133.025 6.87286 133.195L107.157 191.542Z" fill="#150035"/>
<path d="M185.947 113.068H214.228C214.528 113.068 214.815 113.187 215.028 113.399C215.24 113.611 215.359 113.899 215.359 114.199V133.874C215.255 134.433 215.015 134.958 214.66 135.401C214.305 135.845 213.845 136.195 213.323 136.418L114.736 192.956H114.34V172.376C112.077 165.422 185.947 113.068 185.947 113.068Z" fill="#150035"/>
<path d="M114.736 195.387L113.378 194.708C112.997 194.495 112.68 194.183 112.461 193.805C112.242 193.427 112.129 192.997 112.134 192.56V172.263C111.455 169.888 112.869 165.082 147.768 138.34C165.754 124.545 184.307 111.315 184.476 111.202H185.042C185.494 111.202 185.494 111.202 214.171 111.202C215.041 111.202 215.875 111.548 216.49 112.163C216.799 112.476 217.043 112.847 217.208 113.254C217.373 113.662 217.456 114.098 217.452 114.537V134.213C217.351 135.159 217.013 136.064 216.469 136.845C215.926 137.625 215.194 138.256 214.341 138.679L114.736 195.387ZM116.716 172.772V189.337L212.361 134.439C213.04 134.043 213.266 133.704 213.266 133.591V115.216H186.626C153.424 138.849 118.752 166.1 116.772 171.754L117.055 172.489L116.716 172.772Z" fill="#150035"/>
<path d="M214.115 110.354L113.718 52.0071C112.392 51.4029 110.94 51.1235 109.484 51.1924C108.028 51.2612 106.61 51.6762 105.347 52.4029L6.36385 108.941C3.87513 110.411 3.64889 112.559 5.79823 113.803L106.139 172.376C107.465 172.981 108.916 173.26 110.372 173.191C111.828 173.122 113.246 172.707 114.51 171.981L213.493 115.443C215.981 113.747 216.264 111.598 214.115 110.354Z" fill="white"/>
<path d="M109.759 175.259C108.124 175.28 106.51 174.891 105.065 174.128L4.66759 115.951C3.92425 115.569 3.29642 114.995 2.84897 114.289C2.40152 113.584 2.15066 112.771 2.12231 111.936C2.22496 110.969 2.57564 110.044 3.14044 109.252C3.70523 108.46 4.46502 107.826 5.34633 107.413L104.386 50.8754C105.976 49.9619 107.764 49.4485 109.597 49.3796C111.43 49.3106 113.252 49.6882 114.906 50.4796L215.19 108.431C215.933 108.819 216.563 109.393 217.019 110.096C217.475 110.8 217.741 111.609 217.792 112.445C217.723 113.437 217.394 114.392 216.838 115.216C216.282 116.04 215.518 116.703 214.624 117.138L115.642 173.676C113.855 174.713 111.825 175.259 109.759 175.259ZM6.53412 111.936H6.87349L107.157 170.453C108.15 170.839 109.213 171.009 110.277 170.95C111.34 170.892 112.379 170.607 113.323 170.114L212.305 113.576C212.698 113.409 213.018 113.108 213.21 112.728H212.871L112.813 53.9284C111.83 53.5366 110.771 53.3688 109.714 53.4373C108.658 53.5058 107.63 53.8087 106.705 54.3242L7.66536 110.862C7.28686 111.05 6.97209 111.345 6.76037 111.71L6.53412 111.936Z" fill="#150035"/>
<path d="M15.927 121.399L15.3088 141.856L19.7186 141.989L20.3368 121.532L15.927 121.399Z" fill="#150035"/>
<path d="M195.691 126.413L195.429 144.277L198.822 144.327L199.084 126.462L195.691 126.413Z" fill="#FF0000"/>
<path d="M69.8822 161.408L55.5722 153.041C55.3357 152.89 55.0609 152.81 54.7803 152.81C54.4997 152.81 54.2249 152.89 53.9884 153.041L36.5674 163.953C36.4619 164.091 36.4048 164.26 36.4048 164.433C36.4048 164.607 36.4619 164.776 36.5674 164.914L53.5359 182.893C53.5695 183.023 53.5695 183.159 53.5359 183.289V188.942C53.5359 190.639 60.3233 185.776 61.6242 186.511L52.9703 192.222C53.1084 192.327 53.2773 192.384 53.4511 192.384C53.6249 192.384 53.7938 192.327 53.9319 192.222L71.4094 181.31C71.8238 180.79 72.0791 180.162 72.1447 179.501V165.818C72.1274 164.96 71.9147 164.117 71.5227 163.352C71.1306 162.588 70.5696 161.924 69.8822 161.408Z" fill="white"/>
<path d="M53.5928 194.596H52.914C52.1684 194.406 51.522 193.941 51.1041 193.296L49.9728 191.43L51.2737 190.582V189.055V183.741L34.4749 165.875C34.0784 165.222 33.9569 164.439 34.1372 163.697C34.3174 162.955 34.7847 162.315 35.4365 161.917L52.8009 151.118C53.3772 150.757 54.0437 150.565 54.724 150.565C55.4043 150.565 56.0708 150.757 56.6471 151.118L70.9572 159.486C71.9993 160.182 72.854 161.124 73.4459 162.228C74.0378 163.332 74.3486 164.565 74.3509 165.818V179.557C74.2826 180.735 73.8475 181.861 73.1065 182.78L72.5975 183.232L55.1199 194.144C54.661 194.429 54.1333 194.586 53.5928 194.596ZM39.2827 164.687L55.0068 181.649C55.2632 182.097 55.3996 182.603 55.4027 183.119V186.228L56.0815 185.889C58.7399 184.589 60.6064 183.628 62.2467 184.476L69.7694 179.783C69.7833 179.689 69.7833 179.594 69.7694 179.5V165.818C69.7566 165.343 69.6443 164.877 69.4397 164.448C69.2351 164.02 68.9427 163.639 68.5816 163.33L54.724 155.132L39.2827 164.687Z" fill="#150035"/>
<path d="M40.8098 180.179V181.366L52.8574 191.6C52.9386 191.734 53.0456 191.85 53.1722 191.943C53.2988 192.036 53.4426 192.102 53.5951 192.139C53.7476 192.176 53.9059 192.182 54.0608 192.157C54.2157 192.133 54.3642 192.078 54.4977 191.995L71.4662 181.366C71.9068 180.857 72.1829 180.226 72.2581 179.557V166.666C72.2487 166.585 72.2197 166.507 72.1737 166.439C72.1277 166.371 72.0659 166.316 71.9937 166.277C71.9215 166.238 71.841 166.217 71.759 166.216C71.677 166.215 71.596 166.234 71.5228 166.271L54.2715 177.013L40.8098 180.179Z" fill="#150035"/>
<path d="M53.8758 194.371H53.084C52.3641 194.155 51.7181 193.744 51.2174 193.183L38.3779 182.272L38.7739 178.427L53.1971 175.261L70.1656 164.519C70.5743 164.269 71.044 164.137 71.5231 164.137C72.0021 164.137 72.4719 164.269 72.8805 164.519C73.3029 164.742 73.6572 165.076 73.9061 165.484C74.1549 165.892 74.2891 166.359 74.2946 166.837V179.727C74.2102 180.912 73.755 182.039 72.9937 182.95L72.4846 183.402L55.5161 194.032C55.0097 194.29 54.4431 194.407 53.8758 194.371ZM44.43 181.65L54.0455 189.678L69.9959 179.784C69.9959 179.784 69.9959 179.784 69.9959 179.501V169.607L55.8555 178.653V179.106L44.43 181.65Z" fill="#150035"/>
<path d="M51.8393 192.559L37.4727 184.135C36.7927 183.626 36.2361 182.97 35.8445 182.217C35.4528 181.463 35.236 180.631 35.2102 179.782V166.043C35.2102 164.347 36.2283 163.555 37.4727 164.29L51.8393 172.658C52.5267 173.173 53.0877 173.838 53.4797 174.602C53.8717 175.366 54.0845 176.209 54.1018 177.068V190.807C54.1018 192.503 53.0837 193.294 51.8393 192.559Z" fill="#FF0000"/>
<path d="M52.7442 195.047C51.9922 195.038 51.254 194.844 50.5949 194.482L36.3979 186.057C35.3738 185.356 34.5317 184.421 33.9415 183.33C33.3513 182.239 33.0299 181.022 33.0042 179.782V166.043C32.9453 165.302 33.0876 164.559 33.4161 163.892C33.7447 163.226 34.2472 162.66 34.8707 162.255C35.4363 161.922 36.0808 161.746 36.7373 161.746C37.3937 161.746 38.0382 161.922 38.6038 162.255L52.9139 170.736C53.9457 171.442 54.7926 172.386 55.3832 173.488C55.9738 174.59 56.2908 175.818 56.3076 177.068V190.807C56.3546 191.546 56.2071 192.285 55.8796 192.949C55.5521 193.614 55.0561 194.181 54.4411 194.595C53.9212 194.882 53.3384 195.038 52.7442 195.047ZM52.7442 190.637L51.6695 192.559L52.7442 190.637ZM37.416 166.778V179.782C37.4288 180.256 37.5411 180.723 37.7457 181.152C37.9503 181.58 38.2427 181.961 38.6038 182.269L51.8958 190.015V177.068C51.8767 176.583 51.7501 176.108 51.5251 175.678C51.3001 175.248 50.9824 174.873 50.5949 174.58L37.416 166.778Z" fill="#150035"/>
<path d="M70.1011 173.631L54.7886 182.846L56.539 185.752L71.8515 176.537L70.1011 173.631Z" fill="#FF0000"/>
<path d="M122.032 103.345L57.4952 65.9165C57.069 65.7126 56.7097 65.3917 56.4593 64.9912C56.2089 64.5907 56.0778 64.1273 56.0811 63.655V43.8102C56.0811 43.6988 56.1031 43.5885 56.1457 43.4857C56.1883 43.3828 56.2508 43.2893 56.3296 43.2105C56.4084 43.1318 56.5019 43.0693 56.6049 43.0267C56.7078 42.9841 56.8181 42.9621 56.9295 42.9621H89.509H89.905L121.862 24.4742C123.136 23.747 124.564 23.3319 126.029 23.2631C127.494 23.1943 128.954 23.4738 130.29 24.0784L162.7 43.1883H163.096H195.506C195.736 43.1878 195.958 43.2753 196.126 43.4329C196.294 43.5905 196.396 43.8064 196.411 44.0363V63.9943C196.306 64.5599 196.067 65.0919 195.712 65.5448C195.358 65.9977 194.899 66.358 194.374 66.595L130.46 103.005C129.177 103.711 127.748 104.109 126.286 104.168C124.823 104.226 123.367 103.945 122.032 103.345Z" fill="#FF0000"/>
<path d="M125.709 106.396C124.056 106.424 122.422 106.035 120.958 105.266L56.2517 67.8374C55.4614 67.4538 54.7999 66.8486 54.348 66.0957C53.896 65.3427 53.6731 64.4745 53.7064 63.597V43.6956C53.7212 42.8958 54.0495 42.1337 54.6207 41.5733C55.1919 41.0129 55.9604 40.699 56.7607 40.6991L88.9443 40.4164L120.788 22.607C122.386 21.6839 124.184 21.1653 126.028 21.0963C127.871 21.0273 129.704 21.4101 131.366 22.2112L163.719 41.0384H195.733C196.143 41.0303 196.55 41.1064 196.929 41.262C197.309 41.4176 197.652 41.6494 197.939 41.943C198.227 42.233 198.455 42.577 198.611 42.9554C198.766 43.3337 198.845 43.739 198.844 44.1479V64.0493C198.743 64.9953 198.405 65.9006 197.861 66.6813C197.317 67.4621 196.585 68.0931 195.733 68.5158L131.535 104.87C129.767 105.895 127.754 106.423 125.709 106.396ZM123.164 101.421C124.15 101.834 125.218 102.018 126.286 101.96C127.354 101.901 128.394 101.601 129.329 101.082L193.131 64.5016C193.81 64.1059 194.036 63.7101 194.036 63.6535V45.2222L163.04 45.5049C162.534 45.5341 162.029 45.4369 161.569 45.2222L129.16 25.9993C128.166 25.6104 127.098 25.4443 126.033 25.5127C124.968 25.5811 123.931 25.8823 122.994 26.395L91.1502 44.3741C90.6995 44.6236 90.1947 44.7595 89.6796 44.7699L58.4576 45.2222V63.7666C58.4576 63.7666 58.4576 63.7666 58.7969 64.2189L123.164 101.421Z" fill="#150035"/>
<path d="M166.83 43.0175H195.111C195.264 43.0099 195.417 43.0334 195.561 43.0868C195.705 43.1402 195.836 43.2223 195.947 43.328C196.058 43.4338 196.147 43.5611 196.207 43.7021C196.268 43.8431 196.299 43.9949 196.298 44.1483V63.8235C196.194 64.3891 195.955 64.9211 195.6 65.374C195.245 65.8269 194.786 66.1873 194.262 66.4243L130.913 102.722H130.517V82.1418C128.142 75.3573 166.83 43.0175 166.83 43.0175Z" fill="#150035"/>
<path d="M130.799 105.323L129.442 104.645C129.071 104.424 128.765 104.109 128.557 103.731C128.348 103.354 128.243 102.927 128.254 102.496V81.9728C127.236 74.3968 150.879 53.4212 165.245 41.322L165.924 40.9263C166.377 40.9263 166.32 40.9263 195.11 40.9263C195.98 40.9266 196.814 41.2724 197.429 41.8874C197.756 42.1894 198.016 42.557 198.191 42.9662C198.367 43.3754 198.454 43.8169 198.447 44.262V63.9372C198.346 64.8832 198.008 65.7885 197.465 66.5693C196.921 67.35 196.189 67.981 195.336 68.4037L130.799 105.323ZM132.835 82.7078V99.1604L193.13 64.5026C193.809 64.1068 194.035 63.7111 194.035 63.6545V45.2232H167.621C150.652 59.5838 132.44 77.2802 132.722 81.2379L133.175 82.2555L132.835 82.7078Z" fill="#150035"/>
<path d="M194.997 40.4723L130.46 3.04411C129.135 2.44464 127.688 2.16311 126.234 2.22201C124.781 2.28091 123.361 2.6786 122.089 3.38334L58.2873 39.9634C55.7986 41.4334 55.5158 43.5818 57.6652 44.8257L122.259 82.3104C123.592 82.8843 125.039 83.1469 126.49 83.0784C127.94 83.0098 129.356 82.6118 130.63 81.9146L194.431 45.2215C196.863 43.9211 197.146 41.7161 194.997 40.4723Z" fill="white"/>
<path d="M125.879 85.3079C124.231 85.3486 122.598 84.9795 121.128 84.2337L56.5909 46.749C55.8438 46.3717 55.2127 45.7994 54.7646 45.0927C54.3165 44.386 54.068 43.5712 54.0457 42.7348C54.1185 41.759 54.4435 40.8188 54.9888 40.0062C55.534 39.1936 56.281 38.5363 57.1565 38.0987L120.958 1.5186C122.555 0.595524 124.354 0.0768964 126.197 0.00791507C128.041 -0.0610662 129.873 0.321692 131.535 1.12283L196.128 38.6075C196.867 38.9802 197.493 39.5437 197.941 40.2396C198.388 40.9355 198.641 41.7385 198.674 42.5652C198.605 43.5566 198.276 44.5124 197.72 45.3363C197.164 46.1601 196.4 46.8229 195.506 47.2578L131.705 83.8379C129.918 84.8119 127.914 85.3176 125.879 85.3079ZM58.4575 42.7348H58.7968L123.334 80.2195C124.354 80.6784 125.466 80.8967 126.584 80.8575C127.702 80.8183 128.796 80.5226 129.782 79.9933L193.3 43.4132C193.67 43.2156 193.997 42.9466 194.262 42.6217H193.923L129.329 4.96741C128.343 4.55416 127.275 4.36998 126.208 4.42874C125.14 4.4875 124.099 4.78766 123.164 5.30664L59.3625 41.8867C58.7403 42.2825 58.514 42.5652 58.4575 42.7348Z" fill="#150035"/>
<path d="M67.81 52.2247L67.1919 72.6821L71.6017 72.8153L72.2198 52.3578L67.81 52.2247Z" fill="#150035"/>
<path d="M176.584 56.5241L176.322 74.3882L179.715 74.4379L179.977 56.5738L176.584 56.5241Z" fill="#FF0000"/>
<path d="M125.031 61.8444L111.852 59.809L113.492 56.3037C112.26 55.8587 111.068 55.3102 109.929 54.6641C108.721 53.9491 107.601 53.0952 106.592 52.1199L100.935 53.0245L96.8064 44.2611L103.141 43.2999C103.372 41.4714 104.117 39.7459 105.291 38.3246L100.539 35.6108L111.003 29.5612L115.189 31.9358C118.632 30.8612 122.216 30.3085 125.823 30.2962L127.35 26.9604L140.472 28.9958L138.888 32.5012C140.107 32.9348 141.281 33.4838 142.395 34.1408C143.633 34.8357 144.775 35.6912 145.789 36.685L151.445 35.7804L155.517 44.5438L149.239 45.5049C148.983 47.3263 148.24 49.045 147.09 50.4802L151.784 53.1941L141.094 59.2436L136.909 56.8125C133.489 57.9108 129.923 58.4827 126.332 58.5086L125.031 61.8444ZM116.829 57.1517L122.994 58.1129L124.408 55.1164H125.483C129.329 55.22 133.162 54.6262 136.795 53.3637H137.531L141.32 55.5687L144.997 53.4202L141.547 51.4414L143.243 49.9149C144.069 49.2204 144.734 48.3554 145.193 47.3794C145.652 46.4034 145.894 45.3395 145.902 44.2611V42.6215L150.597 41.8865L149.465 39.5684L144.318 40.3599L143.696 39.5684C142.753 38.5656 141.667 37.7082 140.472 37.0242C138.989 36.1856 137.413 35.5215 135.777 35.0454L133.967 34.48L135.438 31.6531L129.273 30.692L127.746 33.9146H126.614C122.772 33.7903 118.939 34.3651 115.302 35.6108H114.567L110.721 33.4058L107.157 35.6108L110.551 37.5896L108.911 39.1161C108.06 39.7889 107.378 40.6497 106.917 41.6307C106.455 42.6117 106.228 43.6862 106.252 44.7699V46.2964L101.501 46.9184L102.576 49.293L107.666 48.5014L108.288 49.1233C109.235 50.1609 110.343 51.0391 111.569 51.7241C113.032 52.5633 114.589 53.2275 116.207 53.7029L118.074 54.2683L116.829 57.1517ZM126.049 51.4979C122.847 51.6277 119.709 50.5819 117.225 48.558C116.131 47.5466 115.481 46.1447 115.415 44.6568C115.495 43.1888 116.145 41.8098 117.225 40.8123C119.776 38.8905 122.883 37.851 126.077 37.851C129.271 37.851 132.378 38.8905 134.929 40.8123C135.989 41.8191 136.617 43.197 136.682 44.6568C136.631 46.1365 136.002 47.5372 134.929 48.558C132.386 50.4848 129.232 51.4284 126.049 51.2152V51.4979ZM126.049 41.208C123.698 41.091 121.386 41.8348 119.544 43.2999C119.334 43.4631 119.161 43.6678 119.034 43.9014C118.908 44.1349 118.831 44.3922 118.809 44.6568C118.83 44.9298 118.906 45.1956 119.032 45.4385C119.159 45.6813 119.333 45.8962 119.544 46.0703C121.449 47.4085 123.721 48.1265 126.049 48.1265C128.377 48.1265 130.649 47.4085 132.553 46.0703C132.765 45.8962 132.939 45.6813 133.065 45.4385C133.191 45.1956 133.267 44.9298 133.289 44.6568C133.267 44.3922 133.19 44.1349 133.063 43.9014C132.937 43.6678 132.763 43.4631 132.553 43.2999C130.764 41.7139 128.44 40.8652 126.049 40.9253V41.208Z" fill="#FF0000"/>
<path d="M141.603 31.1435C140 30.2774 138.313 29.5765 136.569 29.0516L138.039 25.8855L128.367 24.4155L126.897 27.5251C122.877 27.4421 118.874 28.0739 115.075 29.3909L111.06 27.0728L103.989 31.1435L108.005 33.4616C106.991 34.2889 106.175 35.3328 105.617 36.5167C105.059 37.7005 104.773 38.9941 104.781 40.3027L99.125 41.1508L101.727 46.8046L107.383 45.9565C108.427 47.1207 109.649 48.1128 111.003 48.8965C112.606 49.7626 114.292 50.4635 116.037 50.9884L114.566 54.1545L124.125 55.5114L125.539 52.4018C129.578 52.4915 133.601 51.8597 137.417 50.5361L141.433 52.8541L148.503 48.7834L144.487 46.4653C145.54 45.649 146.393 44.6035 146.981 43.4083C147.569 42.2131 147.877 40.8996 147.881 39.5677L153.537 38.7196L150.935 33.0658L145.279 33.9139C144.192 32.8205 142.954 31.8877 141.603 31.1435ZM134.024 42.4511C131.799 44.1033 129.102 44.9955 126.331 44.9955C123.56 44.9955 120.863 44.1033 118.639 42.4511C118.258 42.1327 117.953 41.7349 117.743 41.2855C117.533 40.8362 117.424 40.3463 117.424 39.8504C117.424 39.3545 117.533 38.8646 117.743 38.4153C117.953 37.9659 118.258 37.568 118.639 37.2497C120.863 35.5975 123.56 34.7053 126.331 34.7053C129.102 34.7053 131.799 35.5975 134.024 37.2497C134.424 37.5673 134.747 37.9713 134.97 38.4314C135.192 38.8915 135.308 39.3959 135.308 39.9069C135.308 40.4179 135.192 40.9223 134.97 41.3825C134.747 41.8426 134.424 42.2466 134.024 42.5642V42.4511Z" fill="#150035"/>
</svg>
